G04*
G04 #@! TF.GenerationSoftware,Altium Limited,Altium Designer,22.10.1 (41)*
G04*
G04 Layer_Color=8388736*
%FSLAX25Y25*%
%MOIN*%
G70*
G04*
G04 #@! TF.SameCoordinates,A175BB40-D52E-4970-BDEE-3E26937F75EC*
G04*
G04*
G04 #@! TF.FilePolarity,Negative*
G04*
G01*
G75*
G04:AMPARAMS|DCode=32|XSize=69.06mil|YSize=18.73mil|CornerRadius=9.37mil|HoleSize=0mil|Usage=FLASHONLY|Rotation=90.000|XOffset=0mil|YOffset=0mil|HoleType=Round|Shape=RoundedRectangle|*
%AMROUNDEDRECTD32*
21,1,0.06906,0.00000,0,0,90.0*
21,1,0.05033,0.01873,0,0,90.0*
1,1,0.01873,0.00000,0.02516*
1,1,0.01873,0.00000,-0.02516*
1,1,0.01873,0.00000,-0.02516*
1,1,0.01873,0.00000,0.02516*
%
%ADD32ROUNDEDRECTD32*%
%ADD33R,0.01873X0.06906*%
%ADD35C,0.03499*%
%ADD36C,0.03531*%
%ADD43R,0.29528X0.08661*%
G04:AMPARAMS|DCode=52|XSize=47.37mil|YSize=59.58mil|CornerRadius=10.5mil|HoleSize=0mil|Usage=FLASHONLY|Rotation=180.000|XOffset=0mil|YOffset=0mil|HoleType=Round|Shape=RoundedRectangle|*
%AMROUNDEDRECTD52*
21,1,0.04737,0.03858,0,0,180.0*
21,1,0.02638,0.05958,0,0,180.0*
1,1,0.02099,-0.01319,0.01929*
1,1,0.02099,0.01319,0.01929*
1,1,0.02099,0.01319,-0.01929*
1,1,0.02099,-0.01319,-0.01929*
%
%ADD52ROUNDEDRECTD52*%
%ADD53R,0.04147X0.04540*%
%ADD54R,0.12611X0.08674*%
G04:AMPARAMS|DCode=55|XSize=55.64mil|YSize=79.65mil|CornerRadius=11.86mil|HoleSize=0mil|Usage=FLASHONLY|Rotation=180.000|XOffset=0mil|YOffset=0mil|HoleType=Round|Shape=RoundedRectangle|*
%AMROUNDEDRECTD55*
21,1,0.05564,0.05593,0,0,180.0*
21,1,0.03192,0.07965,0,0,180.0*
1,1,0.02372,-0.01596,0.02797*
1,1,0.02372,0.01596,0.02797*
1,1,0.02372,0.01596,-0.02797*
1,1,0.02372,-0.01596,-0.02797*
%
%ADD55ROUNDEDRECTD55*%
%ADD56R,0.05524X0.07296*%
%ADD57R,0.05328X0.06115*%
%ADD58R,0.04540X0.09265*%
%ADD59R,0.13595X0.09265*%
%ADD60R,0.06509X0.02572*%
%ADD61R,0.04343X0.03556*%
%ADD62R,0.03556X0.04343*%
%ADD63R,0.11417X0.02559*%
G04:AMPARAMS|DCode=64|XSize=25.72mil|YSize=53.28mil|CornerRadius=5.95mil|HoleSize=0mil|Usage=FLASHONLY|Rotation=90.000|XOffset=0mil|YOffset=0mil|HoleType=Round|Shape=RoundedRectangle|*
%AMROUNDEDRECTD64*
21,1,0.02572,0.04138,0,0,90.0*
21,1,0.01382,0.05328,0,0,90.0*
1,1,0.01190,0.02069,0.00691*
1,1,0.01190,0.02069,-0.00691*
1,1,0.01190,-0.02069,-0.00691*
1,1,0.01190,-0.02069,0.00691*
%
%ADD64ROUNDEDRECTD64*%
%ADD65R,0.06115X0.06902*%
%ADD66R,0.11430X0.05918*%
%ADD67R,0.06115X0.04540*%
%ADD68R,0.03359X0.06804*%
%ADD69R,0.05131X0.03359*%
%ADD70R,0.04540X0.04147*%
%ADD71R,0.10052X0.07493*%
G04:AMPARAMS|DCode=72|XSize=47.37mil|YSize=59.58mil|CornerRadius=10.5mil|HoleSize=0mil|Usage=FLASHONLY|Rotation=270.000|XOffset=0mil|YOffset=0mil|HoleType=Round|Shape=RoundedRectangle|*
%AMROUNDEDRECTD72*
21,1,0.04737,0.03858,0,0,270.0*
21,1,0.02638,0.05958,0,0,270.0*
1,1,0.02099,-0.01929,-0.01319*
1,1,0.02099,-0.01929,0.01319*
1,1,0.02099,0.01929,0.01319*
1,1,0.02099,0.01929,-0.01319*
%
%ADD72ROUNDEDRECTD72*%
%ADD73R,0.03950X0.03950*%
%ADD74R,0.03950X0.03950*%
%ADD75C,0.04737*%
%ADD76O,0.04186X0.01863*%
%ADD77O,0.01863X0.04186*%
%ADD78R,0.13005X0.13005*%
%ADD79R,0.04737X0.02965*%
%ADD80R,0.11784X0.03713*%
%ADD81C,0.06600*%
%ADD82C,0.13595*%
%ADD83C,0.06706*%
%ADD84C,0.12611*%
G36*
X26575Y276181D02*
X22638D01*
Y271063D01*
X19882D01*
Y280118D01*
X26575D01*
Y276181D01*
D02*
G37*
G36*
X38386Y271063D02*
X35630D01*
Y276181D01*
X31693D01*
Y280118D01*
X38386D01*
Y271063D01*
D02*
G37*
G36*
X22638Y287598D02*
X26575D01*
Y283661D01*
X19882D01*
Y292717D01*
X22638D01*
Y287598D01*
D02*
G37*
G36*
X38386Y283661D02*
X31693D01*
Y287598D01*
X35630D01*
Y292717D01*
X38386D01*
Y283661D01*
D02*
G37*
D32*
X320606Y247639D02*
D03*
X323165D02*
D03*
X325724D02*
D03*
X328284D02*
D03*
Y231494D02*
D03*
X325724D02*
D03*
X323165D02*
D03*
X320606Y138388D02*
D03*
X323165D02*
D03*
X325724D02*
D03*
X328284D02*
D03*
Y122242D02*
D03*
X325724D02*
D03*
X323165D02*
D03*
X321000Y356104D02*
D03*
X323559D02*
D03*
X326118D02*
D03*
X328677D02*
D03*
Y339959D02*
D03*
X326118D02*
D03*
X323559D02*
D03*
D33*
X320606Y231494D02*
D03*
X320606Y122242D02*
D03*
X321000Y339959D02*
D03*
D35*
X21973Y278174D02*
D03*
X33784D02*
D03*
D36*
X21973Y285753D02*
D03*
X36294D02*
D03*
D43*
X90551Y335827D02*
D03*
Y312992D02*
D03*
D52*
X164961Y266142D02*
D03*
X157874D02*
D03*
X131890Y342126D02*
D03*
X138976D02*
D03*
X164961Y279921D02*
D03*
X157874D02*
D03*
X146457Y342126D02*
D03*
X153543D02*
D03*
X138976Y333858D02*
D03*
X131890D02*
D03*
D53*
X10433Y217717D02*
D03*
X15551D02*
D03*
X-4134Y214173D02*
D03*
X984D02*
D03*
X10433Y210630D02*
D03*
X15551D02*
D03*
X10827Y236614D02*
D03*
X15945D02*
D03*
X-4528Y240158D02*
D03*
X591D02*
D03*
X10827Y227559D02*
D03*
X15945D02*
D03*
X25787Y223622D02*
D03*
X30906D02*
D03*
X25787Y230709D02*
D03*
X30906D02*
D03*
X325787Y289764D02*
D03*
X320669D02*
D03*
X10827Y243701D02*
D03*
X15945D02*
D03*
X325787Y283465D02*
D03*
X320669D02*
D03*
X325394Y181102D02*
D03*
X320276D02*
D03*
X325394Y174803D02*
D03*
X320276D02*
D03*
X325787Y71653D02*
D03*
X320669D02*
D03*
X325787Y65354D02*
D03*
X320669D02*
D03*
X37598Y353150D02*
D03*
X42717Y364961D02*
D03*
X42717Y359055D02*
D03*
X312831Y124213D02*
D03*
X312831Y233465D02*
D03*
X313224Y341929D02*
D03*
X312831Y136024D02*
D03*
X312831Y245276D02*
D03*
X313224Y353740D02*
D03*
X429331Y69291D02*
D03*
X424213D02*
D03*
X417913Y352362D02*
D03*
X412795D02*
D03*
X429331D02*
D03*
X424213D02*
D03*
X417913Y358661D02*
D03*
X412795D02*
D03*
X429331D02*
D03*
X424213D02*
D03*
X417913Y338583D02*
D03*
X412795D02*
D03*
X429331D02*
D03*
X424213D02*
D03*
X417913Y344882D02*
D03*
X412795D02*
D03*
X429331D02*
D03*
X424213D02*
D03*
X417913Y324803D02*
D03*
X412795D02*
D03*
X429331D02*
D03*
X424213D02*
D03*
X417913Y331102D02*
D03*
X412795D02*
D03*
X429331D02*
D03*
X424213D02*
D03*
X417913Y311024D02*
D03*
X412795D02*
D03*
X429331D02*
D03*
X424213D02*
D03*
X417913Y317323D02*
D03*
X412795D02*
D03*
X429331D02*
D03*
X424213D02*
D03*
X417913Y297244D02*
D03*
X412795D02*
D03*
X429331D02*
D03*
X424213D02*
D03*
X417913Y303543D02*
D03*
X412795D02*
D03*
X429331D02*
D03*
X424213D02*
D03*
X417913Y283465D02*
D03*
X412795D02*
D03*
X429331D02*
D03*
X424213D02*
D03*
X417913Y289764D02*
D03*
X412795D02*
D03*
X429331D02*
D03*
X424213D02*
D03*
X417913Y269685D02*
D03*
X412795D02*
D03*
X429331D02*
D03*
X424213D02*
D03*
X417913Y275984D02*
D03*
X412795D02*
D03*
X429331D02*
D03*
X424213D02*
D03*
X417913Y255906D02*
D03*
X412795D02*
D03*
X429331D02*
D03*
X424213D02*
D03*
X417913Y262205D02*
D03*
X412795D02*
D03*
X429331D02*
D03*
X424213D02*
D03*
X417913Y242126D02*
D03*
X412795D02*
D03*
X429331D02*
D03*
X424213D02*
D03*
X417913Y248425D02*
D03*
X412795D02*
D03*
X429331D02*
D03*
X424213D02*
D03*
X417913Y228346D02*
D03*
X412795D02*
D03*
X429331D02*
D03*
X424213D02*
D03*
X417913Y234646D02*
D03*
X412795D02*
D03*
X429331D02*
D03*
X424213D02*
D03*
X417913Y214567D02*
D03*
X412795D02*
D03*
X429331D02*
D03*
X424213D02*
D03*
X417913Y220866D02*
D03*
X412795D02*
D03*
X429331D02*
D03*
X424213D02*
D03*
X417913Y200787D02*
D03*
X412795D02*
D03*
X429331D02*
D03*
X424213D02*
D03*
X417913Y207087D02*
D03*
X412795D02*
D03*
X429331D02*
D03*
X424213D02*
D03*
X417913Y187008D02*
D03*
X412795D02*
D03*
X429331D02*
D03*
X424213D02*
D03*
X417913Y193307D02*
D03*
X412795D02*
D03*
X429331D02*
D03*
X424213D02*
D03*
X417913Y173228D02*
D03*
X412795D02*
D03*
X429331D02*
D03*
X424213D02*
D03*
X417913Y179527D02*
D03*
X412795D02*
D03*
X429331D02*
D03*
X424213D02*
D03*
X417913Y159449D02*
D03*
X412795D02*
D03*
X429331D02*
D03*
X424213D02*
D03*
X417913Y165748D02*
D03*
X412795D02*
D03*
X429331D02*
D03*
X424213D02*
D03*
X417913Y145669D02*
D03*
X412795D02*
D03*
X429331D02*
D03*
X424213D02*
D03*
X417913Y151969D02*
D03*
X412795D02*
D03*
X429331D02*
D03*
X424213D02*
D03*
X417913Y131890D02*
D03*
X412795D02*
D03*
X429331D02*
D03*
X424213D02*
D03*
X417913Y138189D02*
D03*
X412795D02*
D03*
X429331D02*
D03*
X424213D02*
D03*
X417913Y118110D02*
D03*
X412795D02*
D03*
X429331D02*
D03*
X424213D02*
D03*
X417913Y124409D02*
D03*
X412795D02*
D03*
X429331D02*
D03*
X424213D02*
D03*
X417913Y104331D02*
D03*
X412795D02*
D03*
X429331D02*
D03*
X424213D02*
D03*
X417913Y110630D02*
D03*
X412795D02*
D03*
X429331D02*
D03*
X424213D02*
D03*
X417913Y90551D02*
D03*
X412795D02*
D03*
X429331D02*
D03*
X424213D02*
D03*
X417913Y96850D02*
D03*
X412795D02*
D03*
X429331D02*
D03*
X424213D02*
D03*
X417913Y76772D02*
D03*
X412795D02*
D03*
X429331D02*
D03*
X424213D02*
D03*
X417913Y83071D02*
D03*
X412795D02*
D03*
X429331D02*
D03*
X424213D02*
D03*
X417913Y62992D02*
D03*
X412795D02*
D03*
X429331D02*
D03*
X424213D02*
D03*
X417913Y69291D02*
D03*
X412795D02*
D03*
X417913Y49213D02*
D03*
X412795D02*
D03*
X429331D02*
D03*
X424213D02*
D03*
X417913Y55512D02*
D03*
X412795D02*
D03*
X429331D02*
D03*
X424213D02*
D03*
X417913Y35433D02*
D03*
X412795D02*
D03*
X429331D02*
D03*
X424213D02*
D03*
X417913Y41732D02*
D03*
X412795D02*
D03*
X429331D02*
D03*
X424213D02*
D03*
X265587Y344291D02*
D03*
X260469D02*
D03*
X308106Y341929D02*
D03*
X265587Y351378D02*
D03*
X260469D02*
D03*
X308106Y353740D02*
D03*
X265193Y235827D02*
D03*
X260075D02*
D03*
X307713Y233465D02*
D03*
X265193Y242913D02*
D03*
X260075D02*
D03*
X307713Y245276D02*
D03*
X265193Y126575D02*
D03*
X260075D02*
D03*
X307713Y124213D02*
D03*
X265193Y133661D02*
D03*
X260075D02*
D03*
X307713Y136024D02*
D03*
X42717Y353150D02*
D03*
X37598Y359055D02*
D03*
X37598Y364961D02*
D03*
X110433Y253150D02*
D03*
X105315D02*
D03*
X73032Y298819D02*
D03*
X67913D02*
D03*
D54*
X548228Y376378D02*
D03*
Y17323D02*
D03*
D55*
X475394D02*
D03*
X463976D02*
D03*
X24213Y313386D02*
D03*
X35630D02*
D03*
X24213Y322835D02*
D03*
X35630D02*
D03*
X24213Y332283D02*
D03*
X35630D02*
D03*
D56*
X464173Y26772D02*
D03*
X475197D02*
D03*
D57*
X353839Y321654D02*
D03*
X346949D02*
D03*
X353839Y212992D02*
D03*
X346949D02*
D03*
X353839Y103543D02*
D03*
X346949D02*
D03*
X350295Y329134D02*
D03*
X343406D02*
D03*
X350295Y221071D02*
D03*
X343406D02*
D03*
X350295Y111547D02*
D03*
X343406D02*
D03*
D58*
X85827Y279528D02*
D03*
X76772D02*
D03*
X67716D02*
D03*
D59*
X76772Y256693D02*
D03*
D60*
X50394Y353051D02*
D03*
Y350492D02*
D03*
Y347933D02*
D03*
Y345374D02*
D03*
X67716Y353051D02*
D03*
Y350492D02*
D03*
Y347933D02*
D03*
Y345374D02*
D03*
D61*
X94095Y259449D02*
D03*
Y264961D02*
D03*
X152756Y279528D02*
D03*
Y274016D02*
D03*
X148031Y279528D02*
D03*
Y274016D02*
D03*
X143307Y279528D02*
D03*
Y274016D02*
D03*
X114961Y276772D02*
D03*
Y282283D02*
D03*
X110236Y276772D02*
D03*
Y282283D02*
D03*
X75984Y349213D02*
D03*
Y343701D02*
D03*
X111024Y321654D02*
D03*
Y316142D02*
D03*
X42126Y335433D02*
D03*
Y340945D02*
D03*
X47638Y314961D02*
D03*
Y309449D02*
D03*
X52362Y314961D02*
D03*
Y309449D02*
D03*
X57087Y314961D02*
D03*
Y309449D02*
D03*
X166142Y336221D02*
D03*
Y341732D02*
D03*
X187402Y334646D02*
D03*
Y329134D02*
D03*
X192126Y334646D02*
D03*
Y329134D02*
D03*
X295311Y345472D02*
D03*
Y339961D02*
D03*
X250035Y339567D02*
D03*
Y345079D02*
D03*
X254760D02*
D03*
Y350590D02*
D03*
X336614Y344882D02*
D03*
Y350394D02*
D03*
X250035Y350591D02*
D03*
Y356102D02*
D03*
X295311Y350197D02*
D03*
Y355709D02*
D03*
X330906Y300650D02*
D03*
Y306161D02*
D03*
X326575Y300650D02*
D03*
Y306161D02*
D03*
X330906Y310492D02*
D03*
Y316004D02*
D03*
X326575Y310492D02*
D03*
Y316004D02*
D03*
X294917Y237008D02*
D03*
Y231496D02*
D03*
X249642Y231102D02*
D03*
Y236614D02*
D03*
X254366D02*
D03*
Y242126D02*
D03*
X336221Y236417D02*
D03*
Y241929D02*
D03*
X249642Y242126D02*
D03*
Y247638D02*
D03*
X294917Y241732D02*
D03*
Y247244D02*
D03*
X330503Y192330D02*
D03*
Y197842D02*
D03*
X326172Y192330D02*
D03*
Y197842D02*
D03*
X330503Y202172D02*
D03*
Y207684D02*
D03*
X326172Y202172D02*
D03*
Y207684D02*
D03*
X294917Y127756D02*
D03*
Y122244D02*
D03*
X249642Y121850D02*
D03*
Y127362D02*
D03*
X254366D02*
D03*
Y132874D02*
D03*
X336221Y127165D02*
D03*
Y132677D02*
D03*
X249642Y132874D02*
D03*
Y138386D02*
D03*
X294917Y132480D02*
D03*
Y137992D02*
D03*
X330576Y82808D02*
D03*
Y88320D02*
D03*
X326245Y82808D02*
D03*
Y88320D02*
D03*
X330576Y92650D02*
D03*
Y98162D02*
D03*
X326245Y92650D02*
D03*
Y98162D02*
D03*
D62*
X67716Y287795D02*
D03*
X73228D02*
D03*
X273228Y330315D02*
D03*
X278740D02*
D03*
X272835Y221850D02*
D03*
X278346D02*
D03*
X272835Y112598D02*
D03*
X278346D02*
D03*
X334252Y332677D02*
D03*
X328740D02*
D03*
X320948Y363423D02*
D03*
X315437D02*
D03*
X333858Y224213D02*
D03*
X328346D02*
D03*
X320555Y254958D02*
D03*
X315043D02*
D03*
X333858Y114961D02*
D03*
X328346D02*
D03*
X320555Y145706D02*
D03*
X315043D02*
D03*
X143307Y285827D02*
D03*
X148819D02*
D03*
X143307Y290551D02*
D03*
X148819D02*
D03*
X288976Y148031D02*
D03*
X283465D02*
D03*
X288976Y257283D02*
D03*
X283465D02*
D03*
X289370Y365748D02*
D03*
X283858D02*
D03*
X272835Y148031D02*
D03*
X278346D02*
D03*
X272835Y257283D02*
D03*
X278346D02*
D03*
X273228Y365748D02*
D03*
X278740D02*
D03*
X51575Y359055D02*
D03*
X57087D02*
D03*
X37795Y347638D02*
D03*
X43307D02*
D03*
X166535Y325197D02*
D03*
X172047D02*
D03*
X166535Y320472D02*
D03*
X172047D02*
D03*
X341929Y283327D02*
D03*
X336417D02*
D03*
X341929Y287657D02*
D03*
X336417D02*
D03*
X341527Y175007D02*
D03*
X336015D02*
D03*
X341527Y179338D02*
D03*
X336015D02*
D03*
X341600Y65485D02*
D03*
X336088D02*
D03*
X341600Y69816D02*
D03*
X336088D02*
D03*
D63*
X-49000Y264567D02*
D03*
Y261417D02*
D03*
Y258268D02*
D03*
Y255118D02*
D03*
Y251969D02*
D03*
Y248819D02*
D03*
Y245669D02*
D03*
Y242520D02*
D03*
Y239370D02*
D03*
Y236221D02*
D03*
Y233071D02*
D03*
Y229921D02*
D03*
Y226772D02*
D03*
Y223622D02*
D03*
Y220472D02*
D03*
Y217323D02*
D03*
Y214173D02*
D03*
Y211024D02*
D03*
Y207874D02*
D03*
Y204724D02*
D03*
Y201575D02*
D03*
Y198425D02*
D03*
Y182677D02*
D03*
Y179528D02*
D03*
Y176378D02*
D03*
Y173228D02*
D03*
Y170079D02*
D03*
Y166929D02*
D03*
Y163779D02*
D03*
Y160630D02*
D03*
Y157480D02*
D03*
Y154331D02*
D03*
Y151181D02*
D03*
Y148031D02*
D03*
Y144882D02*
D03*
Y141732D02*
D03*
Y138583D02*
D03*
Y135433D02*
D03*
Y132283D02*
D03*
Y129134D02*
D03*
D64*
X121555Y285335D02*
D03*
Y282776D02*
D03*
Y280217D02*
D03*
Y277658D02*
D03*
X138287Y285335D02*
D03*
Y282776D02*
D03*
Y280217D02*
D03*
Y277658D02*
D03*
D65*
X133858Y293307D02*
D03*
X125984D02*
D03*
D66*
X66142Y322047D02*
D03*
Y311024D02*
D03*
D67*
X160236Y335827D02*
D03*
Y342126D02*
D03*
D68*
X288244Y119835D02*
D03*
X283244D02*
D03*
X278244D02*
D03*
X273244D02*
D03*
Y141189D02*
D03*
X278244D02*
D03*
X283244D02*
D03*
X288244D02*
D03*
X288244Y229087D02*
D03*
X283244D02*
D03*
X278244D02*
D03*
X273244D02*
D03*
Y250441D02*
D03*
X278244D02*
D03*
X283244D02*
D03*
X288244D02*
D03*
X288638Y337551D02*
D03*
X283638D02*
D03*
X278638D02*
D03*
X273638D02*
D03*
Y358906D02*
D03*
X278638D02*
D03*
X283638D02*
D03*
X288638D02*
D03*
D69*
X172047Y330906D02*
D03*
Y338386D02*
D03*
X181496D02*
D03*
Y334646D02*
D03*
Y330906D02*
D03*
D70*
X-12598Y127756D02*
D03*
X111024Y333268D02*
D03*
Y328150D02*
D03*
X-3937Y122835D02*
D03*
Y127953D02*
D03*
X-12598Y122638D02*
D03*
X-20866Y122638D02*
D03*
Y127756D02*
D03*
X406693Y358071D02*
D03*
Y352953D02*
D03*
Y344291D02*
D03*
Y339173D02*
D03*
Y330512D02*
D03*
Y325394D02*
D03*
Y316732D02*
D03*
Y311614D02*
D03*
Y302953D02*
D03*
Y297835D02*
D03*
Y289173D02*
D03*
Y284055D02*
D03*
Y275394D02*
D03*
Y270276D02*
D03*
Y261614D02*
D03*
Y256496D02*
D03*
Y247835D02*
D03*
Y242717D02*
D03*
Y234055D02*
D03*
Y228937D02*
D03*
Y220276D02*
D03*
Y215158D02*
D03*
Y206496D02*
D03*
Y201378D02*
D03*
Y192717D02*
D03*
Y187598D02*
D03*
Y178937D02*
D03*
Y173819D02*
D03*
Y165157D02*
D03*
Y160039D02*
D03*
Y151378D02*
D03*
Y146260D02*
D03*
Y137598D02*
D03*
Y132480D02*
D03*
Y123819D02*
D03*
Y118701D02*
D03*
X406693Y110039D02*
D03*
Y104921D02*
D03*
Y96260D02*
D03*
Y91142D02*
D03*
Y82480D02*
D03*
Y77362D02*
D03*
Y68701D02*
D03*
Y63583D02*
D03*
Y54921D02*
D03*
Y49803D02*
D03*
Y41142D02*
D03*
Y36024D02*
D03*
X301217Y339370D02*
D03*
Y344488D02*
D03*
X336614Y360827D02*
D03*
Y355709D02*
D03*
X301217Y356299D02*
D03*
Y351181D02*
D03*
X300823Y230906D02*
D03*
Y236024D02*
D03*
X336221Y252362D02*
D03*
Y247244D02*
D03*
X300823Y247835D02*
D03*
Y242717D02*
D03*
X300823Y121653D02*
D03*
Y126772D02*
D03*
X336221Y143110D02*
D03*
Y137992D02*
D03*
X300823Y138583D02*
D03*
Y133465D02*
D03*
X76378Y359449D02*
D03*
Y354331D02*
D03*
X11024Y290354D02*
D03*
Y285236D02*
D03*
D71*
X67520Y334646D02*
D03*
X50591D02*
D03*
D72*
X22441Y304724D02*
D03*
X35827D02*
D03*
Y297638D02*
D03*
X22441D02*
D03*
D73*
X117323Y253150D02*
D03*
X123622D02*
D03*
X79921Y298819D02*
D03*
X86221D02*
D03*
D74*
X11024Y297244D02*
D03*
Y303543D02*
D03*
D75*
X343701Y344094D02*
D03*
X243736Y344291D02*
D03*
Y351378D02*
D03*
X343701Y350787D02*
D03*
X343307Y235630D02*
D03*
X243342Y235827D02*
D03*
Y242913D02*
D03*
X343307Y242323D02*
D03*
X343307Y126378D02*
D03*
Y133071D02*
D03*
X243342Y126575D02*
D03*
Y133661D02*
D03*
X400394Y352362D02*
D03*
Y358661D02*
D03*
Y338583D02*
D03*
Y344882D02*
D03*
Y324803D02*
D03*
Y331102D02*
D03*
Y311024D02*
D03*
Y317323D02*
D03*
Y297244D02*
D03*
Y303543D02*
D03*
Y283465D02*
D03*
Y289764D02*
D03*
Y269685D02*
D03*
Y275984D02*
D03*
Y255906D02*
D03*
Y262205D02*
D03*
Y242126D02*
D03*
Y248425D02*
D03*
Y228346D02*
D03*
Y234646D02*
D03*
Y214567D02*
D03*
Y220866D02*
D03*
Y200787D02*
D03*
Y207087D02*
D03*
Y187008D02*
D03*
Y193307D02*
D03*
Y173228D02*
D03*
Y179527D02*
D03*
Y159449D02*
D03*
Y165748D02*
D03*
Y145669D02*
D03*
Y151969D02*
D03*
Y131890D02*
D03*
Y138189D02*
D03*
Y118110D02*
D03*
Y124409D02*
D03*
X400394Y104331D02*
D03*
Y110630D02*
D03*
Y90551D02*
D03*
Y96850D02*
D03*
Y76772D02*
D03*
Y83071D02*
D03*
Y62992D02*
D03*
Y69291D02*
D03*
Y49213D02*
D03*
Y55512D02*
D03*
Y35433D02*
D03*
Y41732D02*
D03*
D76*
X357421Y296122D02*
D03*
Y298091D02*
D03*
Y300059D02*
D03*
Y302028D02*
D03*
Y303996D02*
D03*
Y305965D02*
D03*
Y307933D02*
D03*
Y309902D02*
D03*
X338248D02*
D03*
Y307933D02*
D03*
Y305965D02*
D03*
Y303996D02*
D03*
Y302028D02*
D03*
Y300059D02*
D03*
Y298091D02*
D03*
Y296122D02*
D03*
X357019Y187802D02*
D03*
Y189771D02*
D03*
Y191739D02*
D03*
Y193708D02*
D03*
Y195676D02*
D03*
Y197645D02*
D03*
Y199613D02*
D03*
Y201582D02*
D03*
X337845D02*
D03*
Y199613D02*
D03*
Y197645D02*
D03*
Y195676D02*
D03*
Y193708D02*
D03*
Y191739D02*
D03*
Y189771D02*
D03*
Y187802D02*
D03*
X357092Y78280D02*
D03*
Y80249D02*
D03*
Y82217D02*
D03*
Y84186D02*
D03*
Y86154D02*
D03*
Y88123D02*
D03*
Y90091D02*
D03*
Y92060D02*
D03*
X337919D02*
D03*
Y90091D02*
D03*
Y88123D02*
D03*
Y86154D02*
D03*
Y84186D02*
D03*
Y82217D02*
D03*
Y80249D02*
D03*
Y78280D02*
D03*
D77*
X354724Y312598D02*
D03*
X352756D02*
D03*
X350787D02*
D03*
X348819D02*
D03*
X346850D02*
D03*
X344882D02*
D03*
X342913D02*
D03*
X340945D02*
D03*
Y293425D02*
D03*
X342913D02*
D03*
X344882D02*
D03*
X346850D02*
D03*
X348819D02*
D03*
X350787D02*
D03*
X352756D02*
D03*
X354724D02*
D03*
X354322Y204279D02*
D03*
X352353D02*
D03*
X350385D02*
D03*
X348416D02*
D03*
X346448D02*
D03*
X344479D02*
D03*
X342511D02*
D03*
X340542D02*
D03*
Y185106D02*
D03*
X342511D02*
D03*
X344479D02*
D03*
X346448D02*
D03*
X348416D02*
D03*
X350385D02*
D03*
X352353D02*
D03*
X354322D02*
D03*
X354395Y94757D02*
D03*
X352427D02*
D03*
X350458D02*
D03*
X348489D02*
D03*
X346521D02*
D03*
X344552D02*
D03*
X342584D02*
D03*
X340616D02*
D03*
Y75583D02*
D03*
X342584D02*
D03*
X344552D02*
D03*
X346521D02*
D03*
X348489D02*
D03*
X350458D02*
D03*
X352427D02*
D03*
X354395D02*
D03*
D78*
X347835Y303012D02*
D03*
X347432Y194692D02*
D03*
X347505Y85170D02*
D03*
D79*
X442618Y355512D02*
D03*
X434547Y351575D02*
D03*
Y359449D02*
D03*
X442618Y341732D02*
D03*
X434547Y337795D02*
D03*
Y345669D02*
D03*
X442618Y327953D02*
D03*
X434547Y324016D02*
D03*
Y331890D02*
D03*
X442618Y314173D02*
D03*
X434547Y310236D02*
D03*
Y318110D02*
D03*
X442618Y300394D02*
D03*
X434547Y296457D02*
D03*
Y304331D02*
D03*
X442618Y286614D02*
D03*
X434547Y282677D02*
D03*
Y290551D02*
D03*
X442618Y272835D02*
D03*
X434547Y268898D02*
D03*
Y276772D02*
D03*
X442618Y259055D02*
D03*
X434547Y255118D02*
D03*
Y262992D02*
D03*
X442618Y245276D02*
D03*
X434547Y241339D02*
D03*
Y249213D02*
D03*
X442618Y231496D02*
D03*
X434547Y227559D02*
D03*
Y235433D02*
D03*
X442618Y217717D02*
D03*
X434547Y213779D02*
D03*
Y221654D02*
D03*
X442618Y203937D02*
D03*
X434547Y200000D02*
D03*
Y207874D02*
D03*
X442618Y190157D02*
D03*
X434547Y186221D02*
D03*
Y194095D02*
D03*
X442618Y176378D02*
D03*
X434547Y172441D02*
D03*
Y180315D02*
D03*
X442618Y162598D02*
D03*
X434547Y158661D02*
D03*
Y166535D02*
D03*
X442618Y148819D02*
D03*
X434547Y144882D02*
D03*
Y152756D02*
D03*
X442618Y135039D02*
D03*
X434547Y131102D02*
D03*
Y138976D02*
D03*
X442618Y121260D02*
D03*
X434547Y117323D02*
D03*
Y125197D02*
D03*
X442618Y107480D02*
D03*
X434547Y103543D02*
D03*
Y111417D02*
D03*
X442618Y93701D02*
D03*
X434547Y89764D02*
D03*
Y97638D02*
D03*
X442618Y79921D02*
D03*
X434547Y75984D02*
D03*
Y83858D02*
D03*
X442618Y66142D02*
D03*
X434547Y62205D02*
D03*
Y70079D02*
D03*
X442618Y52362D02*
D03*
X434547Y48425D02*
D03*
Y56299D02*
D03*
X442618Y38583D02*
D03*
X434547Y34646D02*
D03*
Y42520D02*
D03*
D80*
X28602Y196909D02*
D03*
X44626D02*
D03*
X28602Y191909D02*
D03*
X44626D02*
D03*
X28602Y186909D02*
D03*
X44626D02*
D03*
X28602Y181909D02*
D03*
X44626D02*
D03*
X28602Y176909D02*
D03*
X44626D02*
D03*
X28602Y171909D02*
D03*
X44626D02*
D03*
X28602Y166909D02*
D03*
X44626D02*
D03*
X28602Y161909D02*
D03*
X44626D02*
D03*
X28602Y156909D02*
D03*
X44626D02*
D03*
X28602Y151909D02*
D03*
X44626D02*
D03*
D81*
X9843Y268779D02*
D03*
Y258780D02*
D03*
D82*
X524843Y36850D02*
D03*
Y356850D02*
D03*
D83*
X489843Y353070D02*
D03*
X499843Y348070D02*
D03*
X489843Y343070D02*
D03*
X499843Y338070D02*
D03*
X489843Y333070D02*
D03*
X499843Y328070D02*
D03*
X489843Y323070D02*
D03*
X499843Y318070D02*
D03*
X489843Y297640D02*
D03*
X499843Y292640D02*
D03*
X489843Y287640D02*
D03*
X499843Y282640D02*
D03*
X489843Y277640D02*
D03*
X499843Y272640D02*
D03*
X489843Y267640D02*
D03*
X499843Y262640D02*
D03*
X489843Y242200D02*
D03*
X499843Y237200D02*
D03*
X489843Y232200D02*
D03*
X499843Y227200D02*
D03*
X489843Y222200D02*
D03*
X499843Y217200D02*
D03*
X489843Y212200D02*
D03*
X499843Y207200D02*
D03*
X489843Y186770D02*
D03*
X499843Y181770D02*
D03*
X489843Y176770D02*
D03*
X499843Y171770D02*
D03*
X489843Y166770D02*
D03*
X499843Y161770D02*
D03*
X489843Y156770D02*
D03*
X499843Y151770D02*
D03*
X489843Y131340D02*
D03*
X499843Y126340D02*
D03*
X489843Y121340D02*
D03*
X499843Y116340D02*
D03*
X489843Y111340D02*
D03*
X499843Y106340D02*
D03*
X489843Y101340D02*
D03*
X499843Y96340D02*
D03*
X489843Y75910D02*
D03*
X499843Y70910D02*
D03*
X489843Y65910D02*
D03*
X499843Y60910D02*
D03*
X489843Y55910D02*
D03*
X499843Y50910D02*
D03*
X489843Y45910D02*
D03*
X499843Y40910D02*
D03*
D84*
X539331Y367618D02*
D03*
Y26083D02*
D03*
X482993Y251850D02*
D03*
Y196850D02*
D03*
Y141850D02*
D03*
M02*
