G04*
G04 #@! TF.GenerationSoftware,Altium Limited,Altium Designer,22.10.1 (41)*
G04*
G04 Layer_Color=16711935*
%FSLAX25Y25*%
%MOIN*%
G70*
G04*
G04 #@! TF.SameCoordinates,A175BB40-D52E-4970-BDEE-3E26937F75EC*
G04*
G04*
G04 #@! TF.FilePolarity,Negative*
G04*
G01*
G75*
%ADD54R,0.12611X0.08674*%
%ADD63R,0.11417X0.02559*%
%ADD81C,0.06600*%
%ADD82C,0.13595*%
%ADD83C,0.06706*%
%ADD84C,0.12611*%
D54*
X548228Y251969D02*
D03*
Y141732D02*
D03*
D63*
X-49000Y264567D02*
D03*
Y261417D02*
D03*
Y258268D02*
D03*
Y255118D02*
D03*
Y251969D02*
D03*
Y248819D02*
D03*
Y245669D02*
D03*
Y242520D02*
D03*
Y233071D02*
D03*
Y229921D02*
D03*
Y226772D02*
D03*
Y223622D02*
D03*
Y220472D02*
D03*
Y217323D02*
D03*
Y214173D02*
D03*
Y211024D02*
D03*
Y207874D02*
D03*
Y204724D02*
D03*
Y201575D02*
D03*
Y198425D02*
D03*
Y182677D02*
D03*
Y179528D02*
D03*
Y176378D02*
D03*
Y173228D02*
D03*
Y170079D02*
D03*
Y166929D02*
D03*
Y163779D02*
D03*
Y160630D02*
D03*
Y157480D02*
D03*
Y154331D02*
D03*
Y151181D02*
D03*
Y148031D02*
D03*
Y144882D02*
D03*
Y141732D02*
D03*
Y138583D02*
D03*
Y135433D02*
D03*
Y132283D02*
D03*
Y129134D02*
D03*
Y239370D02*
D03*
Y236221D02*
D03*
D81*
X9843Y268779D02*
D03*
Y258780D02*
D03*
D82*
X524843Y36850D02*
D03*
Y356850D02*
D03*
D83*
X489843Y353070D02*
D03*
X499843Y348070D02*
D03*
X489843Y343070D02*
D03*
X499843Y338070D02*
D03*
X489843Y333070D02*
D03*
X499843Y328070D02*
D03*
X489843Y323070D02*
D03*
X499843Y318070D02*
D03*
X489843Y297640D02*
D03*
X499843Y292640D02*
D03*
X489843Y287640D02*
D03*
X499843Y282640D02*
D03*
X489843Y277640D02*
D03*
X499843Y272640D02*
D03*
X489843Y267640D02*
D03*
X499843Y262640D02*
D03*
X489843Y242200D02*
D03*
X499843Y237200D02*
D03*
X489843Y232200D02*
D03*
X499843Y227200D02*
D03*
X489843Y222200D02*
D03*
X499843Y217200D02*
D03*
X489843Y212200D02*
D03*
X499843Y207200D02*
D03*
X489843Y186770D02*
D03*
X499843Y181770D02*
D03*
X489843Y176770D02*
D03*
X499843Y171770D02*
D03*
X489843Y166770D02*
D03*
X499843Y161770D02*
D03*
X489843Y156770D02*
D03*
X499843Y151770D02*
D03*
X489843Y131340D02*
D03*
X499843Y126340D02*
D03*
X489843Y121340D02*
D03*
X499843Y116340D02*
D03*
X489843Y111340D02*
D03*
X499843Y106340D02*
D03*
X489843Y101340D02*
D03*
X499843Y96340D02*
D03*
X489843Y75910D02*
D03*
X499843Y70910D02*
D03*
X489843Y65910D02*
D03*
X499843Y60910D02*
D03*
X489843Y55910D02*
D03*
X499843Y50910D02*
D03*
X489843Y45910D02*
D03*
X499843Y40910D02*
D03*
D84*
X539331Y367618D02*
D03*
Y26083D02*
D03*
X482993Y251850D02*
D03*
Y196850D02*
D03*
Y141850D02*
D03*
M02*
