G04*
G04 #@! TF.GenerationSoftware,Altium Limited,Altium Designer,22.10.1 (41)*
G04*
G04 Layer_Color=8421504*
%FSLAX25Y25*%
%MOIN*%
G70*
G04*
G04 #@! TF.SameCoordinates,A175BB40-D52E-4970-BDEE-3E26937F75EC*
G04*
G04*
G04 #@! TF.FilePolarity,Positive*
G04*
G01*
G75*
G04:AMPARAMS|DCode=19|XSize=39.37mil|YSize=51.58mil|CornerRadius=6.5mil|HoleSize=0mil|Usage=FLASHONLY|Rotation=180.000|XOffset=0mil|YOffset=0mil|HoleType=Round|Shape=RoundedRectangle|*
%AMROUNDEDRECTD19*
21,1,0.03937,0.03858,0,0,180.0*
21,1,0.02638,0.05158,0,0,180.0*
1,1,0.01299,-0.01319,0.01929*
1,1,0.01299,0.01319,0.01929*
1,1,0.01299,0.01319,-0.01929*
1,1,0.01299,-0.01319,-0.01929*
%
%ADD19ROUNDEDRECTD19*%
%ADD20R,0.03347X0.03740*%
%ADD21R,0.11811X0.07874*%
G04:AMPARAMS|DCode=22|XSize=47.64mil|YSize=71.65mil|CornerRadius=7.86mil|HoleSize=0mil|Usage=FLASHONLY|Rotation=180.000|XOffset=0mil|YOffset=0mil|HoleType=Round|Shape=RoundedRectangle|*
%AMROUNDEDRECTD22*
21,1,0.04764,0.05593,0,0,180.0*
21,1,0.03192,0.07165,0,0,180.0*
1,1,0.01572,-0.01596,0.02797*
1,1,0.01572,0.01596,0.02797*
1,1,0.01572,0.01596,-0.02797*
1,1,0.01572,-0.01596,-0.02797*
%
%ADD22ROUNDEDRECTD22*%
%ADD23R,0.04724X0.06496*%
%ADD24R,0.04528X0.05315*%
%ADD25R,0.03740X0.08465*%
%ADD26R,0.12795X0.08465*%
%ADD27R,0.05709X0.01772*%
%ADD28R,0.03543X0.02756*%
%ADD29R,0.02756X0.03543*%
%ADD30R,0.11024X0.02165*%
G04:AMPARAMS|DCode=31|XSize=17.72mil|YSize=45.28mil|CornerRadius=1.95mil|HoleSize=0mil|Usage=FLASHONLY|Rotation=90.000|XOffset=0mil|YOffset=0mil|HoleType=Round|Shape=RoundedRectangle|*
%AMROUNDEDRECTD31*
21,1,0.01772,0.04138,0,0,90.0*
21,1,0.01382,0.04528,0,0,90.0*
1,1,0.00390,0.02069,0.00691*
1,1,0.00390,0.02069,-0.00691*
1,1,0.00390,-0.02069,-0.00691*
1,1,0.00390,-0.02069,0.00691*
%
%ADD31ROUNDEDRECTD31*%
G04:AMPARAMS|DCode=32|XSize=69.06mil|YSize=18.73mil|CornerRadius=9.37mil|HoleSize=0mil|Usage=FLASHONLY|Rotation=90.000|XOffset=0mil|YOffset=0mil|HoleType=Round|Shape=RoundedRectangle|*
%AMROUNDEDRECTD32*
21,1,0.06906,0.00000,0,0,90.0*
21,1,0.05033,0.01873,0,0,90.0*
1,1,0.01873,0.00000,0.02516*
1,1,0.01873,0.00000,-0.02516*
1,1,0.01873,0.00000,-0.02516*
1,1,0.01873,0.00000,0.02516*
%
%ADD32ROUNDEDRECTD32*%
%ADD33R,0.01873X0.06906*%
%ADD34R,0.05315X0.06102*%
%ADD35C,0.03499*%
%ADD36C,0.03531*%
%ADD37R,0.10630X0.05118*%
%ADD38R,0.05315X0.03740*%
%ADD39R,0.02559X0.06004*%
%ADD40R,0.04331X0.02559*%
%ADD41R,0.03740X0.03347*%
%ADD42R,0.09252X0.06693*%
%ADD43R,0.29528X0.08661*%
G04:AMPARAMS|DCode=44|XSize=39.37mil|YSize=51.58mil|CornerRadius=6.5mil|HoleSize=0mil|Usage=FLASHONLY|Rotation=270.000|XOffset=0mil|YOffset=0mil|HoleType=Round|Shape=RoundedRectangle|*
%AMROUNDEDRECTD44*
21,1,0.03937,0.03858,0,0,270.0*
21,1,0.02638,0.05158,0,0,270.0*
1,1,0.01299,-0.01929,-0.01319*
1,1,0.01299,-0.01929,0.01319*
1,1,0.01299,0.01929,0.01319*
1,1,0.01299,0.01929,-0.01319*
%
%ADD44ROUNDEDRECTD44*%
%ADD45R,0.03150X0.03150*%
%ADD46R,0.03150X0.03150*%
%ADD47O,0.03386X0.01063*%
%ADD48O,0.01063X0.03386*%
%ADD49R,0.12205X0.12205*%
%ADD50R,0.03937X0.02165*%
%ADD51R,0.10984X0.02913*%
G36*
X26575Y276181D02*
X22638D01*
Y271063D01*
X19882D01*
Y280118D01*
X26575D01*
Y276181D01*
D02*
G37*
G36*
X38386Y271063D02*
X35630D01*
Y276181D01*
X31693D01*
Y280118D01*
X38386D01*
Y271063D01*
D02*
G37*
G36*
X22638Y287598D02*
X26575D01*
Y283661D01*
X19882D01*
Y292717D01*
X22638D01*
Y287598D01*
D02*
G37*
G36*
X38386Y283661D02*
X31693D01*
Y287598D01*
X35630D01*
Y292717D01*
X38386D01*
Y283661D01*
D02*
G37*
D19*
X164961Y266142D02*
D03*
X157874D02*
D03*
X131890Y342126D02*
D03*
X138976D02*
D03*
X164961Y279921D02*
D03*
X157874D02*
D03*
X146457Y342126D02*
D03*
X153543D02*
D03*
X138976Y333858D02*
D03*
X131890D02*
D03*
D20*
X10433Y217717D02*
D03*
X15551D02*
D03*
X-4134Y214173D02*
D03*
X984D02*
D03*
X10433Y210630D02*
D03*
X15551D02*
D03*
X10827Y236614D02*
D03*
X15945D02*
D03*
X-4528Y240158D02*
D03*
X591D02*
D03*
X10827Y227559D02*
D03*
X15945D02*
D03*
X25787Y223622D02*
D03*
X30906D02*
D03*
X25787Y230709D02*
D03*
X30906D02*
D03*
X325787Y289764D02*
D03*
X320669D02*
D03*
X10827Y243701D02*
D03*
X15945D02*
D03*
X325787Y283465D02*
D03*
X320669D02*
D03*
X325394Y181102D02*
D03*
X320276D02*
D03*
X325394Y174803D02*
D03*
X320276D02*
D03*
X325787Y71653D02*
D03*
X320669D02*
D03*
X325787Y65354D02*
D03*
X320669D02*
D03*
X37598Y353150D02*
D03*
X42717Y364961D02*
D03*
X42717Y359055D02*
D03*
X312831Y124213D02*
D03*
X312831Y233465D02*
D03*
X313224Y341929D02*
D03*
X312831Y136024D02*
D03*
X312831Y245276D02*
D03*
X313224Y353740D02*
D03*
X429331Y69291D02*
D03*
X424213D02*
D03*
X417913Y352362D02*
D03*
X412795D02*
D03*
X429331D02*
D03*
X424213D02*
D03*
X417913Y358661D02*
D03*
X412795D02*
D03*
X429331D02*
D03*
X424213D02*
D03*
X417913Y338583D02*
D03*
X412795D02*
D03*
X429331D02*
D03*
X424213D02*
D03*
X417913Y344882D02*
D03*
X412795D02*
D03*
X429331D02*
D03*
X424213D02*
D03*
X417913Y324803D02*
D03*
X412795D02*
D03*
X429331D02*
D03*
X424213D02*
D03*
X417913Y331102D02*
D03*
X412795D02*
D03*
X429331D02*
D03*
X424213D02*
D03*
X417913Y311024D02*
D03*
X412795D02*
D03*
X429331D02*
D03*
X424213D02*
D03*
X417913Y317323D02*
D03*
X412795D02*
D03*
X429331D02*
D03*
X424213D02*
D03*
X417913Y297244D02*
D03*
X412795D02*
D03*
X429331D02*
D03*
X424213D02*
D03*
X417913Y303543D02*
D03*
X412795D02*
D03*
X429331D02*
D03*
X424213D02*
D03*
X417913Y283465D02*
D03*
X412795D02*
D03*
X429331D02*
D03*
X424213D02*
D03*
X417913Y289764D02*
D03*
X412795D02*
D03*
X429331D02*
D03*
X424213D02*
D03*
X417913Y269685D02*
D03*
X412795D02*
D03*
X429331D02*
D03*
X424213D02*
D03*
X417913Y275984D02*
D03*
X412795D02*
D03*
X429331D02*
D03*
X424213D02*
D03*
X417913Y255906D02*
D03*
X412795D02*
D03*
X429331D02*
D03*
X424213D02*
D03*
X417913Y262205D02*
D03*
X412795D02*
D03*
X429331D02*
D03*
X424213D02*
D03*
X417913Y242126D02*
D03*
X412795D02*
D03*
X429331D02*
D03*
X424213D02*
D03*
X417913Y248425D02*
D03*
X412795D02*
D03*
X429331D02*
D03*
X424213D02*
D03*
X417913Y228346D02*
D03*
X412795D02*
D03*
X429331D02*
D03*
X424213D02*
D03*
X417913Y234646D02*
D03*
X412795D02*
D03*
X429331D02*
D03*
X424213D02*
D03*
X417913Y214567D02*
D03*
X412795D02*
D03*
X429331D02*
D03*
X424213D02*
D03*
X417913Y220866D02*
D03*
X412795D02*
D03*
X429331D02*
D03*
X424213D02*
D03*
X417913Y200787D02*
D03*
X412795D02*
D03*
X429331D02*
D03*
X424213D02*
D03*
X417913Y207087D02*
D03*
X412795D02*
D03*
X429331D02*
D03*
X424213D02*
D03*
X417913Y187008D02*
D03*
X412795D02*
D03*
X429331D02*
D03*
X424213D02*
D03*
X417913Y193307D02*
D03*
X412795D02*
D03*
X429331D02*
D03*
X424213D02*
D03*
X417913Y173228D02*
D03*
X412795D02*
D03*
X429331D02*
D03*
X424213D02*
D03*
X417913Y179527D02*
D03*
X412795D02*
D03*
X429331D02*
D03*
X424213D02*
D03*
X417913Y159449D02*
D03*
X412795D02*
D03*
X429331D02*
D03*
X424213D02*
D03*
X417913Y165748D02*
D03*
X412795D02*
D03*
X429331D02*
D03*
X424213D02*
D03*
X417913Y145669D02*
D03*
X412795D02*
D03*
X429331D02*
D03*
X424213D02*
D03*
X417913Y151969D02*
D03*
X412795D02*
D03*
X429331D02*
D03*
X424213D02*
D03*
X417913Y131890D02*
D03*
X412795D02*
D03*
X429331D02*
D03*
X424213D02*
D03*
X417913Y138189D02*
D03*
X412795D02*
D03*
X429331D02*
D03*
X424213D02*
D03*
X417913Y118110D02*
D03*
X412795D02*
D03*
X429331D02*
D03*
X424213D02*
D03*
X417913Y124409D02*
D03*
X412795D02*
D03*
X429331D02*
D03*
X424213D02*
D03*
X417913Y104331D02*
D03*
X412795D02*
D03*
X429331D02*
D03*
X424213D02*
D03*
X417913Y110630D02*
D03*
X412795D02*
D03*
X429331D02*
D03*
X424213D02*
D03*
X417913Y90551D02*
D03*
X412795D02*
D03*
X429331D02*
D03*
X424213D02*
D03*
X417913Y96850D02*
D03*
X412795D02*
D03*
X429331D02*
D03*
X424213D02*
D03*
X417913Y76772D02*
D03*
X412795D02*
D03*
X429331D02*
D03*
X424213D02*
D03*
X417913Y83071D02*
D03*
X412795D02*
D03*
X429331D02*
D03*
X424213D02*
D03*
X417913Y62992D02*
D03*
X412795D02*
D03*
X429331D02*
D03*
X424213D02*
D03*
X417913Y69291D02*
D03*
X412795D02*
D03*
X417913Y49213D02*
D03*
X412795D02*
D03*
X429331D02*
D03*
X424213D02*
D03*
X417913Y55512D02*
D03*
X412795D02*
D03*
X429331D02*
D03*
X424213D02*
D03*
X417913Y35433D02*
D03*
X412795D02*
D03*
X429331D02*
D03*
X424213D02*
D03*
X417913Y41732D02*
D03*
X412795D02*
D03*
X429331D02*
D03*
X424213D02*
D03*
X265587Y344291D02*
D03*
X260469D02*
D03*
X308106Y341929D02*
D03*
X265587Y351378D02*
D03*
X260469D02*
D03*
X308106Y353740D02*
D03*
X265193Y235827D02*
D03*
X260075D02*
D03*
X307713Y233465D02*
D03*
X265193Y242913D02*
D03*
X260075D02*
D03*
X307713Y245276D02*
D03*
X265193Y126575D02*
D03*
X260075D02*
D03*
X307713Y124213D02*
D03*
X265193Y133661D02*
D03*
X260075D02*
D03*
X307713Y136024D02*
D03*
X42717Y353150D02*
D03*
X37598Y359055D02*
D03*
X37598Y364961D02*
D03*
X110433Y253150D02*
D03*
X105315D02*
D03*
X73032Y298819D02*
D03*
X67913D02*
D03*
D21*
X548228Y376378D02*
D03*
Y17323D02*
D03*
D22*
X475394D02*
D03*
X463976D02*
D03*
X24213Y313386D02*
D03*
X35630D02*
D03*
X24213Y322835D02*
D03*
X35630D02*
D03*
X24213Y332283D02*
D03*
X35630D02*
D03*
D23*
X464173Y26772D02*
D03*
X475197D02*
D03*
D24*
X353839Y321654D02*
D03*
X346949D02*
D03*
X353839Y212992D02*
D03*
X346949D02*
D03*
X353839Y103543D02*
D03*
X346949D02*
D03*
X350295Y329134D02*
D03*
X343406D02*
D03*
X350295Y221071D02*
D03*
X343406D02*
D03*
X350295Y111547D02*
D03*
X343406D02*
D03*
D25*
X85827Y279528D02*
D03*
X76772D02*
D03*
X67716D02*
D03*
D26*
X76772Y256693D02*
D03*
D27*
X50394Y353051D02*
D03*
Y350492D02*
D03*
Y347933D02*
D03*
Y345374D02*
D03*
X67716Y353051D02*
D03*
Y350492D02*
D03*
Y347933D02*
D03*
Y345374D02*
D03*
D28*
X94095Y259449D02*
D03*
Y264961D02*
D03*
X152756Y279528D02*
D03*
Y274016D02*
D03*
X148031Y279528D02*
D03*
Y274016D02*
D03*
X143307Y279528D02*
D03*
Y274016D02*
D03*
X114961Y276772D02*
D03*
Y282283D02*
D03*
X110236Y276772D02*
D03*
Y282283D02*
D03*
X75984Y349213D02*
D03*
Y343701D02*
D03*
X111024Y321654D02*
D03*
Y316142D02*
D03*
X42126Y335433D02*
D03*
Y340945D02*
D03*
X47638Y314961D02*
D03*
Y309449D02*
D03*
X52362Y314961D02*
D03*
Y309449D02*
D03*
X57087Y314961D02*
D03*
Y309449D02*
D03*
X166142Y336221D02*
D03*
Y341732D02*
D03*
X187402Y334646D02*
D03*
Y329134D02*
D03*
X192126Y334646D02*
D03*
Y329134D02*
D03*
X295311Y345472D02*
D03*
Y339961D02*
D03*
X250035Y339567D02*
D03*
Y345079D02*
D03*
X254760D02*
D03*
Y350590D02*
D03*
X336614Y344882D02*
D03*
Y350394D02*
D03*
X250035Y350591D02*
D03*
Y356102D02*
D03*
X295311Y350197D02*
D03*
Y355709D02*
D03*
X330906Y300650D02*
D03*
Y306161D02*
D03*
X326575Y300650D02*
D03*
Y306161D02*
D03*
X330906Y310492D02*
D03*
Y316004D02*
D03*
X326575Y310492D02*
D03*
Y316004D02*
D03*
X294917Y237008D02*
D03*
Y231496D02*
D03*
X249642Y231102D02*
D03*
Y236614D02*
D03*
X254366D02*
D03*
Y242126D02*
D03*
X336221Y236417D02*
D03*
Y241929D02*
D03*
X249642Y242126D02*
D03*
Y247638D02*
D03*
X294917Y241732D02*
D03*
Y247244D02*
D03*
X330503Y192330D02*
D03*
Y197842D02*
D03*
X326172Y192330D02*
D03*
Y197842D02*
D03*
X330503Y202172D02*
D03*
Y207684D02*
D03*
X326172Y202172D02*
D03*
Y207684D02*
D03*
X294917Y127756D02*
D03*
Y122244D02*
D03*
X249642Y121850D02*
D03*
Y127362D02*
D03*
X254366D02*
D03*
Y132874D02*
D03*
X336221Y127165D02*
D03*
Y132677D02*
D03*
X249642Y132874D02*
D03*
Y138386D02*
D03*
X294917Y132480D02*
D03*
Y137992D02*
D03*
X330576Y82808D02*
D03*
Y88320D02*
D03*
X326245Y82808D02*
D03*
Y88320D02*
D03*
X330576Y92650D02*
D03*
Y98162D02*
D03*
X326245Y92650D02*
D03*
Y98162D02*
D03*
D29*
X67716Y287795D02*
D03*
X73228D02*
D03*
X273228Y330315D02*
D03*
X278740D02*
D03*
X272835Y221850D02*
D03*
X278346D02*
D03*
X272835Y112598D02*
D03*
X278346D02*
D03*
X334252Y332677D02*
D03*
X328740D02*
D03*
X320948Y363423D02*
D03*
X315437D02*
D03*
X333858Y224213D02*
D03*
X328346D02*
D03*
X320555Y254958D02*
D03*
X315043D02*
D03*
X333858Y114961D02*
D03*
X328346D02*
D03*
X320555Y145706D02*
D03*
X315043D02*
D03*
X143307Y285827D02*
D03*
X148819D02*
D03*
X143307Y290551D02*
D03*
X148819D02*
D03*
X288976Y148031D02*
D03*
X283465D02*
D03*
X288976Y257283D02*
D03*
X283465D02*
D03*
X289370Y365748D02*
D03*
X283858D02*
D03*
X272835Y148031D02*
D03*
X278346D02*
D03*
X272835Y257283D02*
D03*
X278346D02*
D03*
X273228Y365748D02*
D03*
X278740D02*
D03*
X51575Y359055D02*
D03*
X57087D02*
D03*
X37795Y347638D02*
D03*
X43307D02*
D03*
X166535Y325197D02*
D03*
X172047D02*
D03*
X166535Y320472D02*
D03*
X172047D02*
D03*
X341929Y283327D02*
D03*
X336417D02*
D03*
X341929Y287657D02*
D03*
X336417D02*
D03*
X341527Y175007D02*
D03*
X336015D02*
D03*
X341527Y179338D02*
D03*
X336015D02*
D03*
X341600Y65485D02*
D03*
X336088D02*
D03*
X341600Y69816D02*
D03*
X336088D02*
D03*
D30*
X-49000Y264567D02*
D03*
Y261417D02*
D03*
Y258268D02*
D03*
Y255118D02*
D03*
Y251969D02*
D03*
Y248819D02*
D03*
Y245669D02*
D03*
Y242520D02*
D03*
Y239370D02*
D03*
Y236221D02*
D03*
Y233071D02*
D03*
Y229921D02*
D03*
Y226772D02*
D03*
Y223622D02*
D03*
Y220472D02*
D03*
Y217323D02*
D03*
Y214173D02*
D03*
Y211024D02*
D03*
Y207874D02*
D03*
Y204724D02*
D03*
Y201575D02*
D03*
Y198425D02*
D03*
Y182677D02*
D03*
Y179528D02*
D03*
Y176378D02*
D03*
Y173228D02*
D03*
Y170079D02*
D03*
Y166929D02*
D03*
Y163779D02*
D03*
Y160630D02*
D03*
Y157480D02*
D03*
Y154331D02*
D03*
Y151181D02*
D03*
Y148031D02*
D03*
Y144882D02*
D03*
Y141732D02*
D03*
Y138583D02*
D03*
Y135433D02*
D03*
Y132283D02*
D03*
Y129134D02*
D03*
D31*
X121555Y285335D02*
D03*
Y282776D02*
D03*
Y280217D02*
D03*
Y277658D02*
D03*
X138287Y285335D02*
D03*
Y282776D02*
D03*
Y280217D02*
D03*
Y277658D02*
D03*
D32*
X320606Y247639D02*
D03*
X323165D02*
D03*
X325724D02*
D03*
X328284D02*
D03*
Y231494D02*
D03*
X325724D02*
D03*
X323165D02*
D03*
X320606Y138388D02*
D03*
X323165D02*
D03*
X325724D02*
D03*
X328284D02*
D03*
Y122242D02*
D03*
X325724D02*
D03*
X323165D02*
D03*
X321000Y356104D02*
D03*
X323559D02*
D03*
X326118D02*
D03*
X328677D02*
D03*
Y339959D02*
D03*
X326118D02*
D03*
X323559D02*
D03*
D33*
X320606Y231494D02*
D03*
X320606Y122242D02*
D03*
X321000Y339959D02*
D03*
D34*
X133858Y293307D02*
D03*
X125984D02*
D03*
D35*
X21973Y278174D02*
D03*
X33784D02*
D03*
D36*
X21973Y285753D02*
D03*
X36294D02*
D03*
D37*
X66142Y322047D02*
D03*
Y311024D02*
D03*
D38*
X160236Y335827D02*
D03*
Y342126D02*
D03*
D39*
X288244Y119835D02*
D03*
X283244D02*
D03*
X278244D02*
D03*
X273244D02*
D03*
Y141189D02*
D03*
X278244D02*
D03*
X283244D02*
D03*
X288244D02*
D03*
X288244Y229087D02*
D03*
X283244D02*
D03*
X278244D02*
D03*
X273244D02*
D03*
Y250441D02*
D03*
X278244D02*
D03*
X283244D02*
D03*
X288244D02*
D03*
X288638Y337551D02*
D03*
X283638D02*
D03*
X278638D02*
D03*
X273638D02*
D03*
Y358906D02*
D03*
X278638D02*
D03*
X283638D02*
D03*
X288638D02*
D03*
D40*
X172047Y330906D02*
D03*
Y338386D02*
D03*
X181496D02*
D03*
Y334646D02*
D03*
Y330906D02*
D03*
D41*
X-12598Y127756D02*
D03*
X111024Y333268D02*
D03*
Y328150D02*
D03*
X-3937Y122835D02*
D03*
Y127953D02*
D03*
X-12598Y122638D02*
D03*
X-20866Y122638D02*
D03*
Y127756D02*
D03*
X406693Y358071D02*
D03*
Y352953D02*
D03*
Y344291D02*
D03*
Y339173D02*
D03*
Y330512D02*
D03*
Y325394D02*
D03*
Y316732D02*
D03*
Y311614D02*
D03*
Y302953D02*
D03*
Y297835D02*
D03*
Y289173D02*
D03*
Y284055D02*
D03*
Y275394D02*
D03*
Y270276D02*
D03*
Y261614D02*
D03*
Y256496D02*
D03*
Y247835D02*
D03*
Y242717D02*
D03*
Y234055D02*
D03*
Y228937D02*
D03*
Y220276D02*
D03*
Y215158D02*
D03*
Y206496D02*
D03*
Y201378D02*
D03*
Y192717D02*
D03*
Y187598D02*
D03*
Y178937D02*
D03*
Y173819D02*
D03*
Y165157D02*
D03*
Y160039D02*
D03*
Y151378D02*
D03*
Y146260D02*
D03*
Y137598D02*
D03*
Y132480D02*
D03*
Y123819D02*
D03*
Y118701D02*
D03*
X406693Y110039D02*
D03*
Y104921D02*
D03*
Y96260D02*
D03*
Y91142D02*
D03*
Y82480D02*
D03*
Y77362D02*
D03*
Y68701D02*
D03*
Y63583D02*
D03*
Y54921D02*
D03*
Y49803D02*
D03*
Y41142D02*
D03*
Y36024D02*
D03*
X301217Y339370D02*
D03*
Y344488D02*
D03*
X336614Y360827D02*
D03*
Y355709D02*
D03*
X301217Y356299D02*
D03*
Y351181D02*
D03*
X300823Y230906D02*
D03*
Y236024D02*
D03*
X336221Y252362D02*
D03*
Y247244D02*
D03*
X300823Y247835D02*
D03*
Y242717D02*
D03*
X300823Y121653D02*
D03*
Y126772D02*
D03*
X336221Y143110D02*
D03*
Y137992D02*
D03*
X300823Y138583D02*
D03*
Y133465D02*
D03*
X76378Y359449D02*
D03*
Y354331D02*
D03*
X11024Y290354D02*
D03*
Y285236D02*
D03*
D42*
X67520Y334646D02*
D03*
X50591D02*
D03*
D43*
X90551Y335827D02*
D03*
Y312992D02*
D03*
D44*
X22441Y304724D02*
D03*
X35827D02*
D03*
Y297638D02*
D03*
X22441D02*
D03*
D45*
X117323Y253150D02*
D03*
X123622D02*
D03*
X79921Y298819D02*
D03*
X86221D02*
D03*
D46*
X11024Y297244D02*
D03*
Y303543D02*
D03*
D47*
X357421Y296122D02*
D03*
Y298091D02*
D03*
Y300059D02*
D03*
Y302028D02*
D03*
Y303996D02*
D03*
Y305965D02*
D03*
Y307933D02*
D03*
Y309902D02*
D03*
X338248D02*
D03*
Y307933D02*
D03*
Y305965D02*
D03*
Y303996D02*
D03*
Y302028D02*
D03*
Y300059D02*
D03*
Y298091D02*
D03*
Y296122D02*
D03*
X357019Y187802D02*
D03*
Y189771D02*
D03*
Y191739D02*
D03*
Y193708D02*
D03*
Y195676D02*
D03*
Y197645D02*
D03*
Y199613D02*
D03*
Y201582D02*
D03*
X337845D02*
D03*
Y199613D02*
D03*
Y197645D02*
D03*
Y195676D02*
D03*
Y193708D02*
D03*
Y191739D02*
D03*
Y189771D02*
D03*
Y187802D02*
D03*
X357092Y78280D02*
D03*
Y80249D02*
D03*
Y82217D02*
D03*
Y84186D02*
D03*
Y86154D02*
D03*
Y88123D02*
D03*
Y90091D02*
D03*
Y92060D02*
D03*
X337919D02*
D03*
Y90091D02*
D03*
Y88123D02*
D03*
Y86154D02*
D03*
Y84186D02*
D03*
Y82217D02*
D03*
Y80249D02*
D03*
Y78280D02*
D03*
D48*
X354724Y312598D02*
D03*
X352756D02*
D03*
X350787D02*
D03*
X348819D02*
D03*
X346850D02*
D03*
X344882D02*
D03*
X342913D02*
D03*
X340945D02*
D03*
Y293425D02*
D03*
X342913D02*
D03*
X344882D02*
D03*
X346850D02*
D03*
X348819D02*
D03*
X350787D02*
D03*
X352756D02*
D03*
X354724D02*
D03*
X354322Y204279D02*
D03*
X352353D02*
D03*
X350385D02*
D03*
X348416D02*
D03*
X346448D02*
D03*
X344479D02*
D03*
X342511D02*
D03*
X340542D02*
D03*
Y185106D02*
D03*
X342511D02*
D03*
X344479D02*
D03*
X346448D02*
D03*
X348416D02*
D03*
X350385D02*
D03*
X352353D02*
D03*
X354322D02*
D03*
X354395Y94757D02*
D03*
X352427D02*
D03*
X350458D02*
D03*
X348489D02*
D03*
X346521D02*
D03*
X344552D02*
D03*
X342584D02*
D03*
X340616D02*
D03*
Y75583D02*
D03*
X342584D02*
D03*
X344552D02*
D03*
X346521D02*
D03*
X348489D02*
D03*
X350458D02*
D03*
X352427D02*
D03*
X354395D02*
D03*
D49*
X347835Y303012D02*
D03*
X347432Y194692D02*
D03*
X347505Y85170D02*
D03*
D50*
X442618Y355512D02*
D03*
X434547Y351575D02*
D03*
Y359449D02*
D03*
X442618Y341732D02*
D03*
X434547Y337795D02*
D03*
Y345669D02*
D03*
X442618Y327953D02*
D03*
X434547Y324016D02*
D03*
Y331890D02*
D03*
X442618Y314173D02*
D03*
X434547Y310236D02*
D03*
Y318110D02*
D03*
X442618Y300394D02*
D03*
X434547Y296457D02*
D03*
Y304331D02*
D03*
X442618Y286614D02*
D03*
X434547Y282677D02*
D03*
Y290551D02*
D03*
X442618Y272835D02*
D03*
X434547Y268898D02*
D03*
Y276772D02*
D03*
X442618Y259055D02*
D03*
X434547Y255118D02*
D03*
Y262992D02*
D03*
X442618Y245276D02*
D03*
X434547Y241339D02*
D03*
Y249213D02*
D03*
X442618Y231496D02*
D03*
X434547Y227559D02*
D03*
Y235433D02*
D03*
X442618Y217717D02*
D03*
X434547Y213779D02*
D03*
Y221654D02*
D03*
X442618Y203937D02*
D03*
X434547Y200000D02*
D03*
Y207874D02*
D03*
X442618Y190157D02*
D03*
X434547Y186221D02*
D03*
Y194095D02*
D03*
X442618Y176378D02*
D03*
X434547Y172441D02*
D03*
Y180315D02*
D03*
X442618Y162598D02*
D03*
X434547Y158661D02*
D03*
Y166535D02*
D03*
X442618Y148819D02*
D03*
X434547Y144882D02*
D03*
Y152756D02*
D03*
X442618Y135039D02*
D03*
X434547Y131102D02*
D03*
Y138976D02*
D03*
X442618Y121260D02*
D03*
X434547Y117323D02*
D03*
Y125197D02*
D03*
X442618Y107480D02*
D03*
X434547Y103543D02*
D03*
Y111417D02*
D03*
X442618Y93701D02*
D03*
X434547Y89764D02*
D03*
Y97638D02*
D03*
X442618Y79921D02*
D03*
X434547Y75984D02*
D03*
Y83858D02*
D03*
X442618Y66142D02*
D03*
X434547Y62205D02*
D03*
Y70079D02*
D03*
X442618Y52362D02*
D03*
X434547Y48425D02*
D03*
Y56299D02*
D03*
X442618Y38583D02*
D03*
X434547Y34646D02*
D03*
Y42520D02*
D03*
D51*
X28602Y196909D02*
D03*
X44626D02*
D03*
X28602Y191909D02*
D03*
X44626D02*
D03*
X28602Y186909D02*
D03*
X44626D02*
D03*
X28602Y181909D02*
D03*
X44626D02*
D03*
X28602Y176909D02*
D03*
X44626D02*
D03*
X28602Y171909D02*
D03*
X44626D02*
D03*
X28602Y166909D02*
D03*
X44626D02*
D03*
X28602Y161909D02*
D03*
X44626D02*
D03*
X28602Y156909D02*
D03*
X44626D02*
D03*
X28602Y151909D02*
D03*
X44626D02*
D03*
M02*
