G04*
G04 #@! TF.GenerationSoftware,Altium Limited,Altium Designer,22.10.1 (41)*
G04*
G04 Layer_Physical_Order=1*
G04 Layer_Color=255*
%FSLAX25Y25*%
%MOIN*%
G70*
G04*
G04 #@! TF.SameCoordinates,A175BB40-D52E-4970-BDEE-3E26937F75EC*
G04*
G04*
G04 #@! TF.FilePolarity,Positive*
G04*
G01*
G75*
%ADD14C,0.00787*%
%ADD15C,0.01000*%
G04:AMPARAMS|DCode=19|XSize=39.37mil|YSize=51.58mil|CornerRadius=6.5mil|HoleSize=0mil|Usage=FLASHONLY|Rotation=180.000|XOffset=0mil|YOffset=0mil|HoleType=Round|Shape=RoundedRectangle|*
%AMROUNDEDRECTD19*
21,1,0.03937,0.03858,0,0,180.0*
21,1,0.02638,0.05158,0,0,180.0*
1,1,0.01299,-0.01319,0.01929*
1,1,0.01299,0.01319,0.01929*
1,1,0.01299,0.01319,-0.01929*
1,1,0.01299,-0.01319,-0.01929*
%
%ADD19ROUNDEDRECTD19*%
%ADD20R,0.03347X0.03740*%
%ADD21R,0.11811X0.07874*%
G04:AMPARAMS|DCode=22|XSize=47.64mil|YSize=71.65mil|CornerRadius=7.86mil|HoleSize=0mil|Usage=FLASHONLY|Rotation=180.000|XOffset=0mil|YOffset=0mil|HoleType=Round|Shape=RoundedRectangle|*
%AMROUNDEDRECTD22*
21,1,0.04764,0.05593,0,0,180.0*
21,1,0.03192,0.07165,0,0,180.0*
1,1,0.01572,-0.01596,0.02797*
1,1,0.01572,0.01596,0.02797*
1,1,0.01572,0.01596,-0.02797*
1,1,0.01572,-0.01596,-0.02797*
%
%ADD22ROUNDEDRECTD22*%
%ADD23R,0.04724X0.06496*%
%ADD24R,0.04528X0.05315*%
%ADD25R,0.03740X0.08465*%
%ADD26R,0.12795X0.08465*%
%ADD27R,0.05709X0.01772*%
%ADD28R,0.03543X0.02756*%
%ADD29R,0.02756X0.03543*%
%ADD30R,0.11024X0.02165*%
G04:AMPARAMS|DCode=31|XSize=17.72mil|YSize=45.28mil|CornerRadius=1.95mil|HoleSize=0mil|Usage=FLASHONLY|Rotation=90.000|XOffset=0mil|YOffset=0mil|HoleType=Round|Shape=RoundedRectangle|*
%AMROUNDEDRECTD31*
21,1,0.01772,0.04138,0,0,90.0*
21,1,0.01382,0.04528,0,0,90.0*
1,1,0.00390,0.02069,0.00691*
1,1,0.00390,0.02069,-0.00691*
1,1,0.00390,-0.02069,-0.00691*
1,1,0.00390,-0.02069,0.00691*
%
%ADD31ROUNDEDRECTD31*%
G04:AMPARAMS|DCode=32|XSize=69.06mil|YSize=18.73mil|CornerRadius=9.37mil|HoleSize=0mil|Usage=FLASHONLY|Rotation=90.000|XOffset=0mil|YOffset=0mil|HoleType=Round|Shape=RoundedRectangle|*
%AMROUNDEDRECTD32*
21,1,0.06906,0.00000,0,0,90.0*
21,1,0.05033,0.01873,0,0,90.0*
1,1,0.01873,0.00000,0.02516*
1,1,0.01873,0.00000,-0.02516*
1,1,0.01873,0.00000,-0.02516*
1,1,0.01873,0.00000,0.02516*
%
%ADD32ROUNDEDRECTD32*%
%ADD33R,0.01873X0.06906*%
%ADD34R,0.05315X0.06102*%
%ADD35C,0.03499*%
%ADD36C,0.03531*%
%ADD37R,0.10630X0.05118*%
%ADD38R,0.05315X0.03740*%
%ADD39R,0.02559X0.06004*%
%ADD40R,0.04331X0.02559*%
%ADD41R,0.03740X0.03347*%
%ADD42R,0.09252X0.06693*%
%ADD43R,0.29528X0.08661*%
G04:AMPARAMS|DCode=44|XSize=39.37mil|YSize=51.58mil|CornerRadius=6.5mil|HoleSize=0mil|Usage=FLASHONLY|Rotation=270.000|XOffset=0mil|YOffset=0mil|HoleType=Round|Shape=RoundedRectangle|*
%AMROUNDEDRECTD44*
21,1,0.03937,0.03858,0,0,270.0*
21,1,0.02638,0.05158,0,0,270.0*
1,1,0.01299,-0.01929,-0.01319*
1,1,0.01299,-0.01929,0.01319*
1,1,0.01299,0.01929,0.01319*
1,1,0.01299,0.01929,-0.01319*
%
%ADD44ROUNDEDRECTD44*%
%ADD45R,0.03150X0.03150*%
%ADD46R,0.03150X0.03150*%
%ADD47O,0.03386X0.01063*%
%ADD48O,0.01063X0.03386*%
%ADD49R,0.12205X0.12205*%
%ADD50R,0.03937X0.02165*%
%ADD51R,0.10984X0.02913*%
%ADD85C,0.03937*%
%ADD86C,0.01968*%
%ADD87C,0.01575*%
%ADD88C,0.06000*%
%ADD89C,0.12795*%
%ADD90C,0.05906*%
%ADD91C,0.11811*%
%ADD92C,0.02362*%
%ADD93C,0.01575*%
G36*
X469670Y377953D02*
X451590D01*
X451529Y378260D01*
X451355Y378520D01*
X451095Y378695D01*
X450787Y378756D01*
X136236D01*
X135929Y378695D01*
X135835Y378632D01*
X135740Y378695D01*
X135433Y378756D01*
X15748D01*
X15441Y378695D01*
X15180Y378520D01*
X15006Y378260D01*
X14945Y377953D01*
Y301181D01*
X15006Y300874D01*
X15180Y300613D01*
X15441Y300439D01*
X15748Y300378D01*
X18417D01*
X18423Y300379D01*
X18429Y300378D01*
X18576Y300410D01*
X18689Y300432D01*
X18813Y300336D01*
X19026Y300037D01*
X18943Y299914D01*
X18882Y299606D01*
Y283465D01*
X18943Y283157D01*
X19117Y282897D01*
X19378Y282723D01*
X19685Y282662D01*
X26772D01*
X27079Y282723D01*
X27339Y282897D01*
X27513Y283157D01*
X27575Y283465D01*
Y299606D01*
X27513Y299914D01*
X27431Y300037D01*
X27644Y300336D01*
X27768Y300432D01*
X27880Y300410D01*
X28027Y300378D01*
X28034Y300379D01*
X28040Y300378D01*
X30463D01*
X30745Y299929D01*
X30747Y299878D01*
X30693Y299606D01*
Y283465D01*
X30754Y283157D01*
X30928Y282897D01*
X31189Y282723D01*
X31496Y282662D01*
X38583D01*
X38890Y282723D01*
X39150Y282897D01*
X39324Y283157D01*
X39386Y283465D01*
Y299606D01*
X39331Y299878D01*
X39334Y299929D01*
X39615Y300378D01*
X44473D01*
Y248031D01*
X44534Y247724D01*
X44708Y247464D01*
X44968Y247290D01*
X45276Y247229D01*
X160236D01*
X160544Y247290D01*
X160804Y247464D01*
X160978Y247724D01*
X161039Y248031D01*
Y276362D01*
X160978Y276670D01*
X160915Y276764D01*
X160978Y276858D01*
X161039Y277165D01*
Y283465D01*
X160978Y283772D01*
X160915Y283866D01*
X160978Y283960D01*
X161039Y284267D01*
Y305496D01*
X184416D01*
X184607Y305034D01*
X162425Y282851D01*
X162424Y282851D01*
X162250Y282591D01*
X162189Y282283D01*
Y281914D01*
X162177Y281850D01*
Y277992D01*
X162189Y277928D01*
Y277165D01*
X162250Y276858D01*
X162424Y276598D01*
X162685Y276424D01*
X162992Y276362D01*
X166535D01*
X166843Y276424D01*
X167103Y276598D01*
X167103Y276598D01*
X192065Y301560D01*
X290985Y301559D01*
X290985Y301559D01*
X291292Y301620D01*
X291553Y301795D01*
X291906Y302148D01*
X292080Y302409D01*
X292141Y302716D01*
X292141Y305143D01*
X292495Y305496D01*
X311097D01*
X317895Y299057D01*
X317774Y298635D01*
X317722Y298563D01*
X317717Y298557D01*
X225487Y298557D01*
X224985Y298457D01*
X224559Y298172D01*
X171794Y245407D01*
X18406D01*
Y246358D01*
X13484D01*
Y246358D01*
X13287D01*
Y246358D01*
X8366D01*
Y245013D01*
X7377D01*
X7021Y245370D01*
X6297Y245669D01*
X5514D01*
X4790Y245370D01*
X4237Y244816D01*
X3937Y244092D01*
Y243309D01*
X4237Y242586D01*
X4790Y242032D01*
X4940Y241970D01*
X4840Y241470D01*
X3051D01*
Y242815D01*
X-1870D01*
Y242815D01*
X-2067D01*
Y242815D01*
X-6988D01*
Y240683D01*
X-42701D01*
Y241240D01*
X-55299D01*
Y237500D01*
Y234350D01*
X-42701D01*
Y234908D01*
X637D01*
X3796Y231749D01*
X3819Y231734D01*
X3667Y231234D01*
X-42701D01*
Y231791D01*
X-55299D01*
Y228051D01*
Y224902D01*
X-42701D01*
Y225459D01*
X4574D01*
X7733Y222300D01*
X8159Y222016D01*
X8661Y221916D01*
X15992D01*
X17072Y220836D01*
X16880Y220374D01*
X13091D01*
Y220374D01*
X12894D01*
Y220374D01*
X7972D01*
Y219029D01*
X7377D01*
X7021Y219385D01*
X6297Y219685D01*
X5514D01*
X4790Y219385D01*
X4237Y218832D01*
X3937Y218108D01*
Y217325D01*
X4237Y216601D01*
X4790Y216048D01*
X4940Y215986D01*
X4840Y215486D01*
X3445D01*
Y216831D01*
X-1476D01*
Y216831D01*
X-1673D01*
Y216831D01*
X-5132D01*
X-9702Y221401D01*
X-10128Y221685D01*
X-10630Y221785D01*
X-42701D01*
Y222342D01*
X-55299D01*
Y218602D01*
Y215453D01*
X-42701D01*
Y216010D01*
X-15111D01*
X-11937Y212836D01*
X-12144Y212336D01*
X-42701D01*
Y212894D01*
X-55299D01*
Y209154D01*
Y206004D01*
X-42701D01*
Y206561D01*
X-13929D01*
X-8015Y200647D01*
X-7589Y200362D01*
X-7087Y200262D01*
X42913D01*
X43416Y200362D01*
X43841Y200647D01*
X51268Y208073D01*
X53150D01*
X106731Y208073D01*
X243898Y70907D01*
X244323Y70622D01*
X244826Y70522D01*
X313842D01*
X318209Y66155D01*
Y62697D01*
X323130D01*
Y62697D01*
X323327D01*
Y62697D01*
X325747D01*
X325748Y62695D01*
X326032Y62269D01*
X331962Y56340D01*
X332387Y56055D01*
X332890Y55955D01*
X343654D01*
X344156Y56055D01*
X344582Y56340D01*
X346373Y58131D01*
X346835Y57939D01*
Y25591D01*
X346896Y25283D01*
X347070Y25023D01*
X347331Y24849D01*
X347638Y24788D01*
X450787D01*
X451095Y24849D01*
X451355Y25023D01*
X451529Y25283D01*
X451590Y25591D01*
Y33465D01*
X469670D01*
Y2039D01*
X8100D01*
X8087Y2037D01*
X8074Y2039D01*
X7487Y2032D01*
X6333Y2246D01*
X5242Y2682D01*
X4258Y3322D01*
X3417Y4142D01*
X2753Y5110D01*
X2290Y6190D01*
X2046Y7338D01*
X2039Y7913D01*
Y115437D01*
X1884Y116217D01*
X1442Y116879D01*
X780Y117321D01*
X-0Y117476D01*
X-23933D01*
X-23983Y117466D01*
X-24033Y117474D01*
X-24419Y117455D01*
X-24566Y117418D01*
X-24717D01*
X-25474Y117267D01*
X-25659Y117191D01*
X-25856Y117151D01*
X-26569Y116856D01*
X-26736Y116744D01*
X-26922Y116668D01*
X-27564Y116239D01*
X-27706Y116097D01*
X-27873Y115985D01*
X-28418Y115439D01*
X-28530Y115272D01*
X-28672Y115130D01*
X-29101Y114489D01*
X-29177Y114303D01*
X-29289Y114136D01*
X-29585Y113423D01*
X-29624Y113226D01*
X-29700Y113041D01*
X-29851Y112284D01*
Y112133D01*
X-29888Y111986D01*
X-29907Y111600D01*
X-29899Y111550D01*
X-29909Y111500D01*
Y109602D01*
X-32838D01*
Y121343D01*
X-32848Y121392D01*
X-32841Y121443D01*
X-32860Y121828D01*
X-32896Y121975D01*
Y122126D01*
X-33047Y122883D01*
X-33124Y123069D01*
X-33163Y123266D01*
X-33458Y123979D01*
X-33570Y124146D01*
X-33647Y124331D01*
X-34076Y124973D01*
X-34218Y125115D01*
X-34329Y125282D01*
X-34875Y125828D01*
X-35042Y125939D01*
X-35184Y126081D01*
X-35826Y126510D01*
X-36011Y126587D01*
X-36178Y126699D01*
X-36891Y126994D01*
X-37088Y127033D01*
X-37274Y127110D01*
X-38031Y127260D01*
X-38182D01*
X-38328Y127297D01*
X-38714Y127316D01*
X-38765Y127309D01*
X-38814Y127319D01*
X-42701D01*
Y127821D01*
X-33615D01*
X-27306Y121513D01*
X-26880Y121228D01*
X-26378Y121128D01*
X-23524D01*
Y120177D01*
X-18209D01*
Y121325D01*
X-15256D01*
Y120177D01*
X-9941D01*
Y121325D01*
X-6594D01*
Y120374D01*
X-1280D01*
Y124992D01*
X-1280Y125295D01*
X-1280Y125795D01*
Y130413D01*
X-1922D01*
X-2028Y130524D01*
X-2211Y130913D01*
X-1969Y131498D01*
Y132281D01*
X-2268Y133005D01*
X-2822Y133559D01*
X-3545Y133858D01*
X-4329D01*
X-5052Y133559D01*
X-5606Y133005D01*
X-5906Y132281D01*
Y131498D01*
X-5663Y130913D01*
X-5846Y130524D01*
X-5952Y130413D01*
X-6594D01*
Y125795D01*
X-6594Y125492D01*
X-6594Y124992D01*
Y123950D01*
X-9587D01*
X-9941Y124304D01*
X-9941Y125098D01*
X-9941Y125598D01*
Y130217D01*
X-10781D01*
X-10988Y130717D01*
X-10930Y130775D01*
X-10630Y131498D01*
Y132281D01*
X-10930Y133005D01*
X-11483Y133559D01*
X-12207Y133858D01*
X-12990D01*
X-13713Y133559D01*
X-14267Y133005D01*
X-14567Y132281D01*
Y131498D01*
X-14267Y130775D01*
X-14209Y130717D01*
X-14416Y130217D01*
X-15256D01*
Y125598D01*
X-15256Y125295D01*
X-15256Y124795D01*
Y123950D01*
X-18209D01*
Y125098D01*
X-23524D01*
Y123754D01*
X-25834D01*
X-32143Y130062D01*
X-32568Y130347D01*
X-33071Y130447D01*
X-42701D01*
Y134153D01*
X-55299D01*
Y130413D01*
Y127319D01*
X-56461D01*
Y183969D01*
X-38028D01*
X-37961Y183982D01*
X-37894Y183973D01*
X-37278Y184013D01*
X-37084Y184065D01*
X-36883Y184079D01*
X-35692Y184398D01*
X-35453Y184516D01*
X-35200Y184602D01*
X-34132Y185218D01*
X-33931Y185394D01*
X-33710Y185542D01*
X-32838Y186414D01*
X-32689Y186636D01*
X-32513Y186837D01*
X-31897Y187905D01*
X-31811Y188157D01*
X-31693Y188397D01*
X-31374Y189588D01*
X-31356Y189854D01*
X-31304Y190116D01*
Y191349D01*
X-31356Y191611D01*
X-31374Y191877D01*
X-31693Y193068D01*
X-31811Y193307D01*
X-31897Y193560D01*
X-32513Y194628D01*
X-32689Y194828D01*
X-32838Y195050D01*
X-33710Y195922D01*
X-33931Y196071D01*
X-34132Y196246D01*
X-34766Y196613D01*
X-34632Y197113D01*
X-25741D01*
X-9609Y180981D01*
X-9183Y180697D01*
X-8681Y180597D01*
X22323D01*
Y179665D01*
X34882D01*
Y184153D01*
X22323D01*
Y183222D01*
X-8137D01*
X-10012Y185097D01*
X-9805Y185597D01*
X22323D01*
Y184665D01*
X34882D01*
Y189154D01*
X22323D01*
Y188222D01*
X-9594D01*
X-23875Y202503D01*
X-24301Y202787D01*
X-24803Y202887D01*
X-42701D01*
Y203445D01*
X-55299D01*
Y199705D01*
Y197496D01*
X-56461D01*
Y266744D01*
X-38814D01*
X-38765Y266754D01*
X-38714Y266747D01*
X-38328Y266766D01*
X-38182Y266803D01*
X-38031D01*
X-37274Y266953D01*
X-37088Y267030D01*
X-36891Y267069D01*
X-36178Y267364D01*
X-36011Y267476D01*
X-35826Y267553D01*
X-35184Y267982D01*
X-35042Y268124D01*
X-34875Y268235D01*
X-34329Y268781D01*
X-34218Y268948D01*
X-34076Y269090D01*
X-33647Y269732D01*
X-33570Y269917D01*
X-33458Y270084D01*
X-33163Y270797D01*
X-33124Y270994D01*
X-33047Y271180D01*
X-32896Y271937D01*
Y272088D01*
X-32860Y272235D01*
X-32841Y272620D01*
X-32848Y272671D01*
X-32838Y272721D01*
Y284461D01*
X-29909D01*
Y282563D01*
X-29899Y282513D01*
X-29907Y282463D01*
X-29888Y282077D01*
X-29851Y281930D01*
Y281779D01*
X-29700Y281022D01*
X-29624Y280837D01*
X-29585Y280640D01*
X-29289Y279927D01*
X-29178Y279760D01*
X-29101Y279574D01*
X-28672Y278932D01*
X-28530Y278790D01*
X-28418Y278624D01*
X-27873Y278078D01*
X-27706Y277966D01*
X-27564Y277824D01*
X-26922Y277395D01*
X-26736Y277319D01*
X-26569Y277207D01*
X-25856Y276912D01*
X-25659Y276872D01*
X-25474Y276796D01*
X-24717Y276645D01*
X-24566D01*
X-24419Y276608D01*
X-24033Y276589D01*
X-23983Y276597D01*
X-23933Y276587D01*
X-0D01*
X780Y276742D01*
X1442Y277184D01*
X1884Y277846D01*
X2039Y278626D01*
Y385700D01*
Y386287D01*
X2268Y387439D01*
X2718Y388524D01*
X3370Y389500D01*
X4200Y390331D01*
X5177Y390983D01*
X6262Y391432D01*
X7414Y391662D01*
X469670D01*
Y377953D01*
D02*
G37*
G36*
X450787Y361440D02*
X439505D01*
X439044Y361349D01*
X438654Y361088D01*
X438654Y361088D01*
X438219Y360653D01*
X437303D01*
Y361319D01*
X431791D01*
Y361319D01*
X431791Y361319D01*
X427173D01*
X426870Y361319D01*
X426370Y361319D01*
X421752D01*
Y358793D01*
X420374D01*
Y361319D01*
X415756D01*
X415453Y361319D01*
X414953Y361319D01*
X410335D01*
Y359275D01*
X409350D01*
Y360531D01*
X404035D01*
Y359866D01*
X402881D01*
X402599Y360353D01*
X402086Y360867D01*
X401458Y361229D01*
X400757Y361417D01*
X400031D01*
X399330Y361229D01*
X398702Y360867D01*
X398188Y360353D01*
X397826Y359725D01*
X397638Y359024D01*
Y358299D01*
X397826Y357598D01*
X398091Y357139D01*
X365188Y324236D01*
X364567D01*
Y324329D01*
X364327Y324908D01*
X363884Y325351D01*
X363305Y325590D01*
X362679D01*
X362100Y325351D01*
X361657Y324908D01*
X361417Y324329D01*
Y323703D01*
X361657Y323124D01*
X362100Y322681D01*
X362514Y322509D01*
Y321979D01*
X362100Y321808D01*
X361657Y321364D01*
X361417Y320786D01*
Y320159D01*
X361657Y319580D01*
X362100Y319137D01*
X362679Y318898D01*
X363305D01*
X363884Y319137D01*
X364327Y319580D01*
X364567Y320159D01*
Y320252D01*
X366338D01*
X366339Y320252D01*
X366799Y320344D01*
X367190Y320605D01*
X397556Y350971D01*
X398052Y350906D01*
X398188Y350670D01*
X398702Y350157D01*
X399330Y349794D01*
X400031Y349606D01*
X400757D01*
X401458Y349794D01*
X402086Y350157D01*
X402599Y350670D01*
X402881Y351158D01*
X404035D01*
Y350492D01*
X409350D01*
Y351748D01*
X410335D01*
Y349705D01*
X414953D01*
X415256Y349705D01*
X415756Y349705D01*
X420374D01*
Y352231D01*
X421752D01*
Y349705D01*
X426370D01*
X426673Y349705D01*
X427173Y349705D01*
X431791D01*
Y349705D01*
X431791Y349705D01*
X437303D01*
Y353445D01*
X437220D01*
Y354021D01*
X440656Y357457D01*
X450787D01*
Y347661D01*
X439205D01*
X439205Y347661D01*
X438744Y347569D01*
X438353Y347308D01*
X438353Y347308D01*
X437918Y346873D01*
X437303D01*
Y347539D01*
X431791D01*
Y347539D01*
X431791Y347539D01*
X427173D01*
X426870Y347539D01*
X426370Y347539D01*
X421752D01*
Y345013D01*
X420374D01*
Y347539D01*
X415756D01*
X415453Y347539D01*
X414953Y347539D01*
X410335D01*
Y345407D01*
X409350D01*
Y346752D01*
X404035D01*
Y346195D01*
X402818D01*
X402599Y346574D01*
X402086Y347087D01*
X401458Y347450D01*
X400757Y347638D01*
X400031D01*
X399330Y347450D01*
X398702Y347087D01*
X398188Y346574D01*
X397826Y345946D01*
X397638Y345245D01*
Y344519D01*
X397668Y344408D01*
X397289Y343939D01*
X394988D01*
X394486Y343839D01*
X394060Y343554D01*
X368221Y317715D01*
X356905D01*
X356890Y318209D01*
X356890D01*
Y325098D01*
X355643D01*
Y336221D01*
X355543Y336723D01*
X355259Y337149D01*
X347947Y344461D01*
X347521Y344745D01*
X347019Y344845D01*
X346502D01*
X346298Y345274D01*
X346575Y345669D01*
X347242D01*
X347966Y345969D01*
X348519Y346523D01*
X348819Y347246D01*
Y348029D01*
X348519Y348753D01*
X347966Y349307D01*
X347242Y349606D01*
X346738D01*
X346343Y350001D01*
X346457Y350425D01*
Y351150D01*
X346269Y351851D01*
X345906Y352480D01*
X345393Y352993D01*
X344764Y353356D01*
X344064Y353543D01*
X343338D01*
X342637Y353356D01*
X342009Y352993D01*
X341495Y352480D01*
X341163Y351903D01*
X339173D01*
Y352559D01*
X337927D01*
Y353248D01*
X339272D01*
Y358169D01*
X333957D01*
Y353248D01*
X335301D01*
Y352559D01*
X334055D01*
Y351313D01*
X332808D01*
X330435Y353686D01*
Y358620D01*
X330301Y359293D01*
X329920Y359863D01*
X329350Y360244D01*
X328677Y360378D01*
X328005Y360244D01*
X327434Y359863D01*
X327361D01*
X326791Y360244D01*
X326118Y360378D01*
X325445Y360244D01*
X324875Y359863D01*
X324802D01*
X324232Y360244D01*
X323559Y360378D01*
X322927Y360252D01*
X322710Y360387D01*
X322490Y360565D01*
X322565Y360863D01*
X323114D01*
Y365982D01*
X322962D01*
X322648Y366482D01*
X322835Y366931D01*
Y367714D01*
X322535Y368438D01*
X321981Y368992D01*
X321258Y369291D01*
X320475D01*
X319751Y368992D01*
X319197Y368438D01*
X318898Y367714D01*
Y366931D01*
X319084Y366482D01*
X318783Y365982D01*
X318783D01*
Y360863D01*
X319662D01*
Y359720D01*
X319376Y359293D01*
X319242Y358620D01*
Y353588D01*
X319376Y352915D01*
X319757Y352345D01*
X320191Y352055D01*
X320353Y351580D01*
X320363Y351447D01*
X320263Y351313D01*
X317508D01*
X315685Y353136D01*
Y356398D01*
X311067D01*
X310764Y356398D01*
X310264Y356398D01*
X305646D01*
Y356037D01*
X303874D01*
Y358760D01*
X298559D01*
Y357021D01*
X297870D01*
Y357874D01*
X292752D01*
Y357716D01*
X290705D01*
Y362695D01*
X286571D01*
Y355116D01*
X289290D01*
X289417Y355091D01*
X292752D01*
Y353543D01*
X297870D01*
Y354396D01*
X298205D01*
X298559Y354043D01*
Y353839D01*
X298559D01*
Y353642D01*
X298559D01*
Y351706D01*
X297870D01*
Y352362D01*
X292752D01*
Y351509D01*
X278300D01*
X275193Y354616D01*
X275400Y355116D01*
X275705D01*
Y362695D01*
X271571D01*
Y357716D01*
X270415D01*
X269913Y357616D01*
X269487Y357332D01*
X266191Y354035D01*
X263429D01*
X263126Y354035D01*
X262626Y354035D01*
X258008D01*
Y351903D01*
X257319D01*
Y352756D01*
X252594D01*
Y352756D01*
X247476D01*
Y350041D01*
X246677D01*
X246365Y350541D01*
X246492Y351015D01*
Y351741D01*
X246304Y352442D01*
X245941Y353070D01*
X245428Y353583D01*
X244800Y353946D01*
X244099Y354134D01*
X243373D01*
X242672Y353946D01*
X242044Y353583D01*
X241531Y353070D01*
X241168Y352442D01*
X240980Y351741D01*
Y351015D01*
X241107Y350541D01*
X240795Y350041D01*
X240740D01*
X240238Y349941D01*
X239812Y349657D01*
X236654Y346499D01*
X236370Y346073D01*
X236270Y345571D01*
Y335480D01*
X236370Y334978D01*
X236654Y334552D01*
X248331Y322875D01*
X248757Y322590D01*
X249260Y322491D01*
X334801D01*
X334993Y322029D01*
X334945Y321981D01*
X334646Y321258D01*
Y320475D01*
X334945Y319751D01*
X335499Y319197D01*
X336223Y318898D01*
X337006D01*
X337729Y319197D01*
X338194Y319662D01*
X339752D01*
X339883Y319319D01*
X339898Y319162D01*
X339488Y318752D01*
X339248Y318173D01*
Y317547D01*
X339452Y317054D01*
X339280Y316789D01*
X339119Y316650D01*
X338774Y316793D01*
X338148D01*
X337569Y316553D01*
X337126Y316110D01*
X336886Y315532D01*
Y314905D01*
X337126Y314326D01*
X337569Y313883D01*
X338148Y313644D01*
X338774D01*
X339109Y313782D01*
X339600Y313477D01*
Y311437D01*
X339703Y310922D01*
X339994Y310486D01*
X340430Y310195D01*
X340945Y310092D01*
X341459Y310195D01*
X341896Y310486D01*
X341963D01*
X342399Y310195D01*
X342913Y310092D01*
X343428Y310195D01*
X343864Y310486D01*
X343931D01*
X344367Y310195D01*
X344882Y310092D01*
X345396Y310195D01*
X345833Y310486D01*
X345900D01*
X346336Y310195D01*
X346850Y310092D01*
X347365Y310195D01*
X347801Y310486D01*
X347868D01*
X348304Y310195D01*
X348819Y310092D01*
X349334Y310195D01*
X349770Y310486D01*
X349836D01*
X350273Y310195D01*
X350787Y310092D01*
X351302Y310195D01*
X351738Y310486D01*
X351805D01*
X352241Y310195D01*
X352756Y310092D01*
X353271Y310195D01*
X353707Y310486D01*
X353773D01*
X354210Y310195D01*
X354454Y310146D01*
X354790Y309968D01*
X354969Y309631D01*
X355017Y309387D01*
X355309Y308951D01*
Y308884D01*
X355017Y308448D01*
X354915Y307933D01*
X355017Y307418D01*
X355309Y306982D01*
Y306915D01*
X355017Y306479D01*
X354915Y305965D01*
X355017Y305450D01*
X355062Y305383D01*
X355290Y304980D01*
X355062Y304577D01*
X355017Y304511D01*
X354915Y303996D01*
X355017Y303481D01*
X355309Y303045D01*
Y302978D01*
X355017Y302542D01*
X354915Y302028D01*
X355017Y301513D01*
X355062Y301446D01*
X355290Y301043D01*
X355062Y300640D01*
X355017Y300574D01*
X354915Y300059D01*
X355017Y299544D01*
X355309Y299108D01*
Y299041D01*
X355017Y298605D01*
X354915Y298091D01*
X355017Y297576D01*
X355309Y297140D01*
Y297073D01*
X355017Y296637D01*
X354969Y296392D01*
X354790Y296056D01*
X354454Y295878D01*
X354210Y295829D01*
X353773Y295537D01*
X353707D01*
X353271Y295829D01*
X352756Y295931D01*
X352241Y295829D01*
X351805Y295537D01*
X351738D01*
X351302Y295829D01*
X350787Y295931D01*
X350273Y295829D01*
X349836Y295537D01*
X349770D01*
X349334Y295829D01*
X348819Y295931D01*
X348532Y295874D01*
X348031Y296202D01*
Y296457D01*
X341339D01*
Y301181D01*
X340986D01*
X340685Y301681D01*
X340754Y302028D01*
X340652Y302542D01*
X340360Y302978D01*
Y303045D01*
X340652Y303481D01*
X340754Y303996D01*
X340652Y304511D01*
X340360Y304947D01*
X339924Y305238D01*
X339409Y305341D01*
X337087D01*
X336925Y305309D01*
X335625D01*
X335123Y305209D01*
X334697Y304924D01*
X334111Y304338D01*
X333827Y303913D01*
X333727Y303410D01*
Y303206D01*
X333465Y302815D01*
X324016D01*
Y301834D01*
X322146D01*
X322035Y301945D01*
X321312Y302244D01*
X320529D01*
X319805Y301945D01*
X319251Y301391D01*
X318952Y300667D01*
Y299884D01*
X318975Y299828D01*
X318554Y299538D01*
X311417Y306299D01*
X292021D01*
X291906Y306472D01*
X291646Y306646D01*
X291339Y306707D01*
X186614Y306709D01*
X186614Y306709D01*
X186307Y306648D01*
X186047Y306474D01*
X186047Y306474D01*
X185872Y306299D01*
X160920D01*
X160804Y306473D01*
X136236Y331041D01*
Y337780D01*
X149213D01*
X149520Y337841D01*
X149780Y338015D01*
X149954Y338276D01*
X150015Y338583D01*
Y349213D01*
X149954Y349520D01*
X149780Y349780D01*
X149520Y349954D01*
X149213Y350015D01*
X136236D01*
Y377953D01*
X450787D01*
Y361440D01*
D02*
G37*
G36*
X53543Y352185D02*
X47244D01*
Y354547D01*
X45276Y356516D01*
X40945D01*
Y366929D01*
X53543D01*
Y352185D01*
D02*
G37*
G36*
X135433Y349897D02*
X135259Y349780D01*
X135085Y349520D01*
X135024Y349213D01*
Y347000D01*
X134524Y346878D01*
X134426Y347024D01*
X134166Y347198D01*
X133858Y347259D01*
X125591D01*
X125283Y347198D01*
X125023Y347024D01*
X124849Y346764D01*
X124788Y346457D01*
Y338583D01*
X124849Y338276D01*
X125023Y338015D01*
X125283Y337841D01*
X125591Y337780D01*
X133858D01*
X134166Y337841D01*
X134426Y338015D01*
X134581Y338247D01*
X134803Y338275D01*
X134882D01*
X135104Y338247D01*
X135259Y338015D01*
X135433Y337899D01*
Y330709D01*
X160236Y305906D01*
Y284267D01*
X157087D01*
X157087Y284267D01*
X156779Y284206D01*
X156519Y284032D01*
X156519Y284032D01*
X154392Y281905D01*
X143884D01*
X143693Y282367D01*
X144442Y283117D01*
X144543Y283268D01*
X145472D01*
Y287992D01*
Y293110D01*
X141142D01*
Y287283D01*
X140985Y287154D01*
X140642Y286970D01*
X140356Y287027D01*
X139893D01*
Y288878D01*
X139893Y288878D01*
X139771Y289492D01*
X139423Y290013D01*
X137303Y292133D01*
Y297146D01*
X130413D01*
Y289469D01*
X135426D01*
X136682Y288213D01*
Y287027D01*
X136219D01*
X135835Y286951D01*
X135510Y286734D01*
X135293Y286409D01*
X135217Y286026D01*
Y284644D01*
X135293Y284260D01*
X135430Y284055D01*
X135293Y283850D01*
X135217Y283467D01*
Y282085D01*
X135293Y281701D01*
X135259Y281312D01*
X135188Y281205D01*
X135109Y281103D01*
X135101Y281075D01*
X135085Y281051D01*
X135060Y280925D01*
X135026Y280801D01*
X135030Y280772D01*
X135024Y280744D01*
Y279782D01*
X135051Y279647D01*
X135071Y279511D01*
X135081Y279494D01*
X135085Y279475D01*
X135161Y279360D01*
X135232Y279242D01*
X135285Y279184D01*
X135293Y279142D01*
X135510Y278817D01*
X135835Y278600D01*
X136219Y278524D01*
X140356D01*
X140596Y278120D01*
X140616Y278020D01*
X140683Y277920D01*
X140690Y277902D01*
X140703Y277889D01*
X140748Y277822D01*
Y277362D01*
X141187D01*
X141952Y276598D01*
X142212Y276424D01*
X142520Y276362D01*
X160236D01*
Y248031D01*
X45276D01*
Y301181D01*
X28040D01*
X28017Y301239D01*
X27957Y301681D01*
X28127Y301795D01*
X28301Y302055D01*
X28362Y302362D01*
Y335883D01*
X31345Y338567D01*
X53543D01*
X53851Y338628D01*
X54111Y338802D01*
X54285Y339063D01*
X54346Y339370D01*
Y346260D01*
X54285Y346567D01*
X54111Y346828D01*
X54036Y346878D01*
Y351567D01*
X54111Y351617D01*
X54285Y351878D01*
X54346Y352185D01*
Y366929D01*
X54285Y367236D01*
X54111Y367497D01*
X53851Y367671D01*
X53543Y367732D01*
X40945D01*
X40638Y367671D01*
X40559Y367618D01*
X40256D01*
Y367315D01*
X40203Y367236D01*
X40142Y366929D01*
Y362178D01*
X40059Y361713D01*
X39642Y361713D01*
X35138D01*
Y361197D01*
X34638Y360863D01*
X34250Y361024D01*
X33467D01*
X32743Y360724D01*
X32189Y360170D01*
X31890Y359447D01*
Y358664D01*
X32189Y357940D01*
X32743Y357386D01*
X33467Y357087D01*
X34250D01*
X34638Y357247D01*
X35138Y356913D01*
Y356398D01*
X39696D01*
X39787Y356307D01*
X39787Y356301D01*
X39365Y355807D01*
X35138D01*
Y354462D01*
X34252D01*
X33750Y354362D01*
X33324Y354078D01*
X30962Y351715D01*
X30677Y351290D01*
X30577Y350787D01*
Y345704D01*
X18898D01*
X18590Y345643D01*
X18330Y345469D01*
X18156Y345209D01*
X18095Y344902D01*
Y302362D01*
X18156Y302055D01*
X18330Y301795D01*
X18500Y301681D01*
X18439Y301239D01*
X18417Y301181D01*
X15748D01*
Y377953D01*
X135433D01*
Y349897D01*
D02*
G37*
G36*
X35138Y351472D02*
Y350492D01*
X40059D01*
Y350492D01*
X40256D01*
Y350492D01*
X40764D01*
X41142Y350197D01*
Y345704D01*
X33202D01*
Y350244D01*
X34638Y351679D01*
X35138Y351472D01*
D02*
G37*
G36*
X247476Y342913D02*
X257319D01*
Y343766D01*
X258008D01*
Y341634D01*
X262626D01*
X262929Y341634D01*
X263429Y341634D01*
X266191D01*
X268700Y339125D01*
X269126Y338841D01*
X269628Y338740D01*
X271571D01*
Y333762D01*
X275705D01*
Y341340D01*
X275705D01*
X275524Y341778D01*
X277906Y344160D01*
X292752D01*
Y343307D01*
X297870D01*
Y344160D01*
X298559D01*
Y342028D01*
X298559Y342028D01*
Y341831D01*
X298559D01*
Y341627D01*
X298205Y341273D01*
X297870D01*
Y342126D01*
X292752D01*
Y341273D01*
X290705D01*
Y341340D01*
X286571D01*
Y333762D01*
X290705D01*
Y338648D01*
X292752D01*
Y337795D01*
X297870D01*
Y338648D01*
X298559D01*
Y336910D01*
X303874D01*
Y339298D01*
X304038Y339331D01*
X304464Y339615D01*
X305146Y340297D01*
X305646Y340090D01*
Y339272D01*
X310264D01*
X310567Y339272D01*
X311067Y339272D01*
X315685D01*
Y342730D01*
X317705Y344750D01*
X319535D01*
X319553Y344732D01*
Y344199D01*
X319276D01*
Y335719D01*
X322724D01*
X322724Y335718D01*
Y335719D01*
X323224Y335751D01*
X323559Y335685D01*
X324232Y335819D01*
X324802Y336200D01*
X324875D01*
X325445Y335819D01*
X326118Y335685D01*
X326681Y335797D01*
X326981Y335580D01*
X327104Y335426D01*
X327056Y335236D01*
X326575D01*
Y332673D01*
X326023Y332121D01*
X290153D01*
X289762Y332283D01*
X288979D01*
X288587Y332121D01*
X280906D01*
Y332874D01*
X280002D01*
Y333762D01*
X280705D01*
Y341340D01*
X276571D01*
Y333762D01*
X277376D01*
Y332874D01*
X276575D01*
Y327756D01*
X280906D01*
Y328509D01*
X288587D01*
X288979Y328346D01*
X289762D01*
X290153Y328509D01*
X326772D01*
X327463Y328646D01*
X328049Y329038D01*
X329129Y330118D01*
X330906D01*
Y332503D01*
X330940Y332677D01*
X330906Y332852D01*
Y335236D01*
X330021D01*
Y336351D01*
X330301Y336770D01*
X330435Y337443D01*
Y342475D01*
X330317Y343069D01*
X330551Y343569D01*
X334055D01*
Y342717D01*
X339173D01*
Y343176D01*
X341094D01*
X341133Y343031D01*
X341495Y342402D01*
X342009Y341889D01*
X342637Y341526D01*
X343338Y341339D01*
X344064D01*
X344764Y341526D01*
X345393Y341889D01*
X345724Y342220D01*
X346475D01*
X347256Y341439D01*
X347043Y340945D01*
X346459D01*
X345735Y340645D01*
X345182Y340091D01*
X344882Y339368D01*
Y338585D01*
X345182Y337861D01*
X345735Y337308D01*
X346459Y337008D01*
X346963D01*
X349081Y334889D01*
Y332579D01*
X347244D01*
Y325689D01*
X349189D01*
Y325098D01*
X345272D01*
X345185Y325116D01*
X338945D01*
X338678Y325616D01*
X338710Y325664D01*
X341642D01*
X341769Y325689D01*
X346457D01*
Y332579D01*
X340354D01*
Y328289D01*
X337881D01*
X337729Y328440D01*
X337006Y328740D01*
X336223D01*
X335499Y328440D01*
X334945Y327887D01*
X334646Y327163D01*
Y327028D01*
X334521Y326903D01*
X250544D01*
X240683Y336764D01*
Y343107D01*
X241168Y343228D01*
X241531Y342599D01*
X242044Y342086D01*
X242672Y341723D01*
X243373Y341535D01*
X244099D01*
X244800Y341723D01*
X245428Y342086D01*
X245941Y342599D01*
X246304Y343228D01*
X246492Y343929D01*
Y344654D01*
X246365Y345128D01*
X246677Y345628D01*
X247476D01*
Y342913D01*
D02*
G37*
G36*
X149213Y338583D02*
X135827D01*
Y349213D01*
X149213D01*
Y338583D01*
D02*
G37*
G36*
X133858D02*
X125591D01*
Y346457D01*
X133858D01*
Y338583D01*
D02*
G37*
G36*
X450787Y333881D02*
X439205D01*
X439205Y333881D01*
X438744Y333790D01*
X438353Y333529D01*
X438353Y333529D01*
X437918Y333094D01*
X437303D01*
Y333760D01*
X431791D01*
Y333760D01*
X431791Y333760D01*
X427173D01*
X426870Y333760D01*
X426370Y333760D01*
X421752D01*
Y331234D01*
X420374D01*
Y333760D01*
X415756D01*
X415453Y333760D01*
X414953Y333760D01*
X410335D01*
Y331628D01*
X409350D01*
Y332972D01*
X404035D01*
Y332415D01*
X402818D01*
X402599Y332794D01*
X402086Y333308D01*
X401458Y333670D01*
X400757Y333858D01*
X400031D01*
X399330Y333670D01*
X398702Y333308D01*
X398188Y332794D01*
X397826Y332166D01*
X397638Y331465D01*
Y330739D01*
X397668Y330629D01*
X397289Y330159D01*
X396563D01*
X396061Y330059D01*
X395635Y329775D01*
X376984Y311124D01*
X359128D01*
X359097Y311144D01*
X358583Y311246D01*
X356541D01*
X356205Y311382D01*
X356069Y311718D01*
Y313302D01*
X369505D01*
X370007Y313402D01*
X370433Y313687D01*
X396272Y339526D01*
X397290D01*
X397668Y339056D01*
X397638Y338946D01*
Y338220D01*
X397826Y337519D01*
X398188Y336891D01*
X398702Y336377D01*
X399330Y336015D01*
X400031Y335827D01*
X400757D01*
X401458Y336015D01*
X402086Y336377D01*
X402599Y336891D01*
X402818Y337270D01*
X404035D01*
Y336713D01*
X409350D01*
Y338057D01*
X410335D01*
Y335925D01*
X414953D01*
X415256Y335925D01*
X415756Y335925D01*
X420374D01*
Y338451D01*
X421752D01*
Y335925D01*
X426370D01*
X426673Y335925D01*
X427173Y335925D01*
X431791D01*
Y335925D01*
X431791Y335925D01*
X437303D01*
Y339665D01*
X437220D01*
Y340241D01*
X440656Y343678D01*
X450787D01*
Y333881D01*
D02*
G37*
G36*
Y320102D02*
X439505D01*
X439044Y320010D01*
X438654Y319749D01*
X438654Y319749D01*
X438219Y319315D01*
X437303D01*
Y319980D01*
X431791D01*
Y319980D01*
X431791Y319980D01*
X427173D01*
X426870Y319980D01*
X426370Y319980D01*
X421752D01*
Y317454D01*
X420374D01*
Y319980D01*
X415756D01*
X415453Y319980D01*
X414953Y319980D01*
X410335D01*
Y317848D01*
X409350D01*
Y319193D01*
X404035D01*
Y318635D01*
X402818D01*
X402599Y319015D01*
X402086Y319528D01*
X401458Y319891D01*
X400757Y320079D01*
X400031D01*
X399330Y319891D01*
X398702Y319528D01*
X398188Y319015D01*
X397826Y318387D01*
X397638Y317686D01*
Y316960D01*
X397668Y316849D01*
X397289Y316379D01*
X395776D01*
X395273Y316280D01*
X394847Y315995D01*
X386039Y307187D01*
X379941D01*
X379749Y307649D01*
X397138Y325037D01*
X397638Y324830D01*
Y324440D01*
X397826Y323739D01*
X398188Y323111D01*
X398702Y322598D01*
X399330Y322235D01*
X400031Y322047D01*
X400757D01*
X401458Y322235D01*
X402086Y322598D01*
X402599Y323111D01*
X402818Y323491D01*
X404035D01*
Y322933D01*
X409350D01*
Y324278D01*
X410335D01*
Y322146D01*
X414953D01*
X415256Y322146D01*
X415756Y322146D01*
X420374D01*
Y324672D01*
X421752D01*
Y322146D01*
X426370D01*
X426673Y322146D01*
X427173Y322146D01*
X431791D01*
Y322146D01*
X431791Y322146D01*
X437303D01*
Y325886D01*
X437220D01*
Y326462D01*
X440656Y329898D01*
X450787D01*
Y320102D01*
D02*
G37*
G36*
Y306322D02*
X439205D01*
X439205Y306322D01*
X438744Y306231D01*
X438353Y305970D01*
X438353Y305970D01*
X437918Y305535D01*
X437303D01*
Y306201D01*
X431791D01*
Y306201D01*
X431791Y306201D01*
X427173D01*
X426870Y306201D01*
X426370Y306201D01*
X421752D01*
Y303675D01*
X420374D01*
Y306201D01*
X415756D01*
X415453Y306201D01*
X414953Y306201D01*
X410335D01*
Y304068D01*
X409350D01*
Y305413D01*
X404035D01*
Y304856D01*
X402818D01*
X402599Y305235D01*
X402086Y305749D01*
X401458Y306111D01*
X400757Y306299D01*
X400031D01*
X399330Y306111D01*
X398702Y305749D01*
X398188Y305235D01*
X397826Y304607D01*
X397638Y303906D01*
Y303181D01*
X397295Y302797D01*
X396860Y302778D01*
X396773Y302865D01*
X396347Y303150D01*
X395845Y303250D01*
X388996D01*
X388804Y303712D01*
X396865Y311772D01*
X397282Y311754D01*
X397638Y311386D01*
Y310661D01*
X397826Y309960D01*
X398188Y309331D01*
X398702Y308818D01*
X399330Y308455D01*
X400031Y308268D01*
X400757D01*
X401458Y308455D01*
X402086Y308818D01*
X402599Y309331D01*
X402818Y309711D01*
X404035D01*
Y309154D01*
X409350D01*
Y310498D01*
X410335D01*
Y308366D01*
X414953D01*
X415256Y308366D01*
X415756Y308366D01*
X420374D01*
Y310892D01*
X421752D01*
Y308366D01*
X426370D01*
X426673Y308366D01*
X427173Y308366D01*
X431791D01*
Y308366D01*
X431791Y308366D01*
X437303D01*
Y312106D01*
X437220D01*
Y312682D01*
X440656Y316119D01*
X450787D01*
Y306322D01*
D02*
G37*
G36*
X53543Y339370D02*
X31037D01*
X27559Y336240D01*
Y302362D01*
X18898D01*
Y344902D01*
X45669D01*
X47028Y346260D01*
X53543D01*
Y339370D01*
D02*
G37*
G36*
X291339Y305904D02*
X291339Y302716D01*
X290985Y302362D01*
X191733Y302363D01*
X166535Y277165D01*
X162992D01*
Y282283D01*
X186614Y305906D01*
X291339Y305904D01*
D02*
G37*
G36*
X450787Y292543D02*
X439505D01*
X439044Y292451D01*
X438654Y292190D01*
X438654Y292190D01*
X438219Y291755D01*
X437303D01*
Y292421D01*
X431791D01*
Y292421D01*
X431791Y292421D01*
X427173D01*
X426870Y292421D01*
X426370Y292421D01*
X421752D01*
Y289895D01*
X420374D01*
Y292421D01*
X415756D01*
X415453Y292421D01*
X414953Y292421D01*
X410335D01*
Y290289D01*
X409350D01*
Y291634D01*
X404035D01*
Y291076D01*
X402818D01*
X402599Y291456D01*
X402086Y291969D01*
X401458Y292332D01*
X400757Y292520D01*
X400031D01*
X399330Y292332D01*
X398702Y291969D01*
X398188Y291456D01*
X397826Y290827D01*
X397638Y290127D01*
Y289401D01*
X397282Y289034D01*
X396865Y289015D01*
X387505Y298375D01*
X387697Y298837D01*
X394560D01*
X394826Y298572D01*
X395251Y298287D01*
X395754Y298187D01*
X397290D01*
X397668Y297718D01*
X397638Y297607D01*
Y296881D01*
X397826Y296180D01*
X398188Y295552D01*
X398702Y295039D01*
X399330Y294676D01*
X400031Y294488D01*
X400757D01*
X401458Y294676D01*
X402086Y295039D01*
X402599Y295552D01*
X402818Y295931D01*
X404035D01*
Y295374D01*
X409350D01*
Y296719D01*
X410335D01*
Y294587D01*
X414953D01*
X415256Y294587D01*
X415756Y294587D01*
X420374D01*
Y297113D01*
X421752D01*
Y294587D01*
X426370D01*
X426673Y294587D01*
X427173Y294587D01*
X431791D01*
Y294587D01*
X431791Y294587D01*
X437303D01*
Y298327D01*
X437220D01*
Y298903D01*
X440656Y302339D01*
X450787D01*
Y292543D01*
D02*
G37*
G36*
X38583Y283465D02*
X31496D01*
Y299606D01*
X38583D01*
Y283465D01*
D02*
G37*
G36*
X26772D02*
X19685D01*
Y299606D01*
X26772D01*
Y283465D01*
D02*
G37*
G36*
X394847Y284792D02*
X395273Y284508D01*
X395776Y284408D01*
X397290D01*
X397668Y283938D01*
X397638Y283827D01*
Y283102D01*
X397826Y282401D01*
X398188Y281772D01*
X398702Y281259D01*
X399330Y280896D01*
X400031Y280709D01*
X400757D01*
X401458Y280896D01*
X402086Y281259D01*
X402599Y281772D01*
X402818Y282152D01*
X404035D01*
Y281594D01*
X409350D01*
Y282939D01*
X410335D01*
Y280807D01*
X414953D01*
X415256Y280807D01*
X415756Y280807D01*
X420374D01*
Y283333D01*
X421752D01*
Y280807D01*
X426370D01*
X426673Y280807D01*
X427173Y280807D01*
X431791D01*
Y280807D01*
X431791Y280807D01*
X437303D01*
Y284547D01*
X437220D01*
Y285123D01*
X440656Y288560D01*
X450787D01*
Y278763D01*
X439505D01*
X439505Y278763D01*
X439044Y278672D01*
X438654Y278411D01*
X438654Y278411D01*
X438182Y277939D01*
X437303D01*
Y278642D01*
X431791D01*
Y278642D01*
X431791Y278642D01*
X427173D01*
X426870Y278642D01*
X426370Y278642D01*
X421752D01*
Y276116D01*
X420374D01*
Y278642D01*
X415756D01*
X415453Y278642D01*
X414953Y278642D01*
X410335D01*
Y276509D01*
X409350D01*
Y277854D01*
X404035D01*
Y277297D01*
X402818D01*
X402599Y277676D01*
X402086Y278189D01*
X401458Y278552D01*
X400757Y278740D01*
X400031D01*
X399330Y278552D01*
X398702Y278189D01*
X398188Y277676D01*
X397826Y277048D01*
X397638Y276347D01*
Y275621D01*
X397668Y275511D01*
X397289Y275041D01*
X371681D01*
X355946Y290776D01*
Y291719D01*
X355967Y291749D01*
X356069Y292264D01*
Y294305D01*
X356205Y294641D01*
X356541Y294777D01*
X358583D01*
X359097Y294880D01*
X359128Y294900D01*
X384740D01*
X394847Y284792D01*
D02*
G37*
G36*
X341339Y295654D02*
X341439D01*
X341706Y295154D01*
X341671Y295101D01*
X341569Y294587D01*
Y294094D01*
Y292264D01*
X341601Y292102D01*
Y290216D01*
X339764D01*
Y285098D01*
Y280768D01*
X339968D01*
X340302Y280268D01*
X340158Y279919D01*
Y279136D01*
X340386Y278584D01*
X340132Y278084D01*
X333221D01*
X330840Y280465D01*
Y285827D01*
X330740Y286329D01*
X330456Y286755D01*
X328248Y288963D01*
Y292357D01*
X334472D01*
D01*
X334634D01*
X335136Y292457D01*
X335562Y292741D01*
X337598Y294777D01*
X339409D01*
X339924Y294880D01*
X340360Y295171D01*
X340652Y295607D01*
X341031Y295715D01*
X341339Y295654D01*
D02*
G37*
G36*
X160236Y277165D02*
X142520D01*
X141358Y278327D01*
Y278348D01*
X141282Y278732D01*
X141065Y279057D01*
X140740Y279274D01*
X140356Y279350D01*
X136219D01*
X135827Y279782D01*
Y280744D01*
X136219Y281083D01*
X140356D01*
X140453Y281102D01*
X154724D01*
X157087Y283465D01*
X160236D01*
Y277165D01*
D02*
G37*
G36*
X450787Y264984D02*
X439505D01*
X439044Y264892D01*
X438654Y264631D01*
X438654Y264631D01*
X438219Y264196D01*
X437303D01*
Y264862D01*
X431791D01*
Y264862D01*
X431791Y264862D01*
X427173D01*
X426870Y264862D01*
X426370Y264862D01*
X421752D01*
Y262336D01*
X420374D01*
Y264862D01*
X415756D01*
X415453Y264862D01*
X414953Y264862D01*
X410335D01*
Y262730D01*
X409350D01*
Y264075D01*
X404035D01*
Y263517D01*
X402818D01*
X402599Y263897D01*
X402086Y264410D01*
X401458Y264773D01*
X400757Y264961D01*
X400031D01*
X399330Y264773D01*
X398702Y264410D01*
X398188Y263897D01*
X397826Y263268D01*
X397638Y262567D01*
Y261842D01*
X397668Y261731D01*
X397289Y261261D01*
X380405D01*
X371501Y270166D01*
X371692Y270628D01*
X397290D01*
X397668Y270159D01*
X397638Y270048D01*
Y269322D01*
X397826Y268621D01*
X398188Y267993D01*
X398702Y267480D01*
X399330Y267117D01*
X400031Y266929D01*
X400757D01*
X401458Y267117D01*
X402086Y267480D01*
X402599Y267993D01*
X402818Y268372D01*
X404035D01*
Y267815D01*
X409350D01*
Y269160D01*
X410335D01*
Y267027D01*
X414953D01*
X415256Y267027D01*
X415756Y267027D01*
X420374D01*
Y269553D01*
X421752D01*
Y267027D01*
X426370D01*
X426673Y267027D01*
X427173Y267027D01*
X431791D01*
Y267027D01*
X431791Y267028D01*
X437303D01*
Y270768D01*
X437220D01*
Y271344D01*
X440656Y274780D01*
X450787D01*
Y264984D01*
D02*
G37*
G36*
X378193Y257233D02*
X378619Y256949D01*
X379121Y256849D01*
X397290D01*
X397668Y256379D01*
X397638Y256268D01*
Y255543D01*
X397826Y254842D01*
X398188Y254213D01*
X398702Y253700D01*
X399330Y253337D01*
X400031Y253150D01*
X400757D01*
X401458Y253337D01*
X402086Y253700D01*
X402599Y254213D01*
X402818Y254593D01*
X404035D01*
Y254035D01*
X409350D01*
Y255380D01*
X410335D01*
Y253248D01*
X414953D01*
X415256Y253248D01*
X415756Y253248D01*
X420374D01*
Y255774D01*
X421752D01*
Y253248D01*
X426370D01*
X426673Y253248D01*
X427173Y253248D01*
X431791D01*
Y253248D01*
X431791Y253248D01*
X437303D01*
Y256988D01*
X437220D01*
Y257564D01*
X440656Y261000D01*
X450787D01*
Y251204D01*
X439505D01*
X439044Y251113D01*
X438654Y250851D01*
X438654Y250851D01*
X438219Y250417D01*
X437303D01*
Y251083D01*
X431791D01*
Y251083D01*
X431791Y251083D01*
X427173D01*
X426870Y251083D01*
X426370Y251083D01*
X421752D01*
Y248557D01*
X420374D01*
Y251083D01*
X415756D01*
X415453Y251083D01*
X414953Y251083D01*
X410335D01*
Y249629D01*
X409350D01*
Y250295D01*
X404035D01*
Y249629D01*
X402881D01*
X402599Y250117D01*
X402086Y250630D01*
X401458Y250993D01*
X400757Y251181D01*
X400031D01*
X399330Y250993D01*
X398702Y250630D01*
X398188Y250117D01*
X397826Y249489D01*
X397638Y248788D01*
Y248062D01*
X397717Y247767D01*
X397333Y247267D01*
X397244D01*
X396783Y247176D01*
X396393Y246915D01*
X396392Y246915D01*
X396352Y246873D01*
X393138D01*
X393138Y246873D01*
X392677Y246782D01*
X392287Y246521D01*
X392287Y246521D01*
X361683Y215917D01*
X361192Y216014D01*
X361178Y216050D01*
X360735Y216493D01*
X360156Y216732D01*
X359529D01*
X358950Y216493D01*
X358507Y216050D01*
X358268Y215471D01*
Y214844D01*
X358507Y214265D01*
X358950Y213822D01*
X359365Y213651D01*
Y213121D01*
X358950Y212949D01*
X358507Y212506D01*
X358268Y211927D01*
Y211301D01*
X358450Y210860D01*
X358217Y210360D01*
X356890D01*
Y216437D01*
X355250D01*
Y227953D01*
X355150Y228455D01*
X354865Y228881D01*
X347385Y236361D01*
X347165Y236508D01*
X347215Y236830D01*
X347288Y237027D01*
X347966Y237308D01*
X348519Y237861D01*
X348819Y238585D01*
Y239368D01*
X348519Y240091D01*
X347966Y240645D01*
X347242Y240945D01*
X346640D01*
X345970Y241614D01*
X346063Y241960D01*
Y242686D01*
X345875Y243387D01*
X345512Y244015D01*
X344999Y244528D01*
X344371Y244891D01*
X343670Y245079D01*
X342944D01*
X342243Y244891D01*
X341615Y244528D01*
X341102Y244015D01*
X340769Y243439D01*
X338779D01*
Y244094D01*
X337533D01*
Y244783D01*
X338878D01*
Y249705D01*
X333563D01*
Y244783D01*
X334908D01*
Y244094D01*
X333661D01*
Y242848D01*
X332415D01*
X330041Y245222D01*
Y250156D01*
X329907Y250829D01*
X329526Y251399D01*
X328956Y251780D01*
X328284Y251914D01*
X327611Y251780D01*
X327041Y251399D01*
X326967D01*
X326397Y251780D01*
X325724Y251914D01*
X325052Y251780D01*
X324481Y251399D01*
X324408D01*
X323838Y251780D01*
X323165Y251914D01*
X322533Y251788D01*
X322316Y251923D01*
X322096Y252101D01*
X322171Y252399D01*
X322720D01*
Y257517D01*
X322568D01*
X322255Y258017D01*
X322441Y258467D01*
Y259250D01*
X322141Y259973D01*
X321587Y260527D01*
X320864Y260827D01*
X320081D01*
X319357Y260527D01*
X318804Y259973D01*
X318504Y259250D01*
Y258467D01*
X318690Y258017D01*
X318389Y257517D01*
X318389D01*
Y252399D01*
X319268D01*
Y251256D01*
X318982Y250829D01*
X318848Y250156D01*
Y245123D01*
X318982Y244450D01*
X319363Y243880D01*
X319797Y243590D01*
X319960Y243116D01*
X319969Y242982D01*
X319869Y242848D01*
X317115D01*
X315291Y244671D01*
Y247933D01*
X310673D01*
X310370Y247933D01*
X309870Y247933D01*
X305252D01*
Y247572D01*
X303480D01*
Y250295D01*
X298165D01*
Y248557D01*
X297476D01*
Y249410D01*
X292358D01*
Y249252D01*
X290311D01*
Y254230D01*
X286177D01*
Y246652D01*
X288897D01*
X289024Y246626D01*
X292358D01*
Y245079D01*
X297476D01*
Y245932D01*
X297812D01*
X298165Y245578D01*
Y245374D01*
X298165D01*
Y245177D01*
X298165D01*
Y243242D01*
X297476D01*
Y243898D01*
X292358D01*
Y243045D01*
X277906D01*
X274799Y246152D01*
X275006Y246652D01*
X275311D01*
Y254230D01*
X271177D01*
Y249252D01*
X270022D01*
X269519Y249152D01*
X269093Y248867D01*
X265797Y245571D01*
X263035D01*
X262732Y245571D01*
X262232Y245571D01*
X257614D01*
Y243427D01*
X256925D01*
Y244291D01*
X252201D01*
Y244291D01*
X247083D01*
Y241565D01*
X246275D01*
X245968Y242065D01*
X246098Y242551D01*
Y243276D01*
X245911Y243977D01*
X245548Y244606D01*
X245035Y245119D01*
X244406Y245481D01*
X243705Y245669D01*
X242980D01*
X242279Y245481D01*
X241650Y245119D01*
X241137Y244606D01*
X240774Y243977D01*
X240587Y243276D01*
Y242551D01*
X240717Y242065D01*
X240410Y241565D01*
X240352D01*
X239850Y241465D01*
X239424Y241181D01*
X236267Y238023D01*
X235982Y237597D01*
X235882Y237095D01*
Y227004D01*
X235982Y226502D01*
X236267Y226076D01*
X247944Y214399D01*
X248369Y214115D01*
X248872Y214015D01*
X334200D01*
X334469Y213515D01*
X334252Y212990D01*
Y212207D01*
X334552Y211483D01*
X335105Y210930D01*
X335829Y210630D01*
X336612D01*
X337335Y210930D01*
X337800Y211394D01*
X339358D01*
X339489Y211051D01*
X339504Y210894D01*
X339094Y210484D01*
X338854Y209905D01*
Y209279D01*
X339059Y208786D01*
X338887Y208521D01*
X338726Y208383D01*
X338381Y208525D01*
X337754D01*
X337175Y208286D01*
X336732Y207843D01*
X336493Y207264D01*
Y206637D01*
X336732Y206059D01*
X337175Y205616D01*
X337754Y205376D01*
X338381D01*
X338712Y205513D01*
X338751Y205507D01*
X339197Y205200D01*
Y203117D01*
X339300Y202603D01*
X339591Y202167D01*
X340028Y201875D01*
X340542Y201773D01*
X341057Y201875D01*
X341124Y201920D01*
X341527Y202148D01*
X341929Y201920D01*
X341996Y201875D01*
X342511Y201773D01*
X343025Y201875D01*
X343092Y201920D01*
X343495Y202148D01*
X343898Y201920D01*
X343965Y201875D01*
X344479Y201773D01*
X344994Y201875D01*
X345060Y201920D01*
X345463Y202148D01*
X345866Y201920D01*
X345933Y201875D01*
X346448Y201773D01*
X346962Y201875D01*
X347029Y201920D01*
X347432Y202148D01*
X347835Y201920D01*
X347902Y201875D01*
X348416Y201773D01*
X348931Y201875D01*
X348997Y201920D01*
X349400Y202148D01*
X349803Y201920D01*
X349870Y201875D01*
X350385Y201773D01*
X350899Y201875D01*
X350966Y201920D01*
X351369Y202148D01*
X351772Y201920D01*
X351839Y201875D01*
X352353Y201773D01*
X352868Y201875D01*
X352935Y201920D01*
X353338Y202148D01*
X353741Y201920D01*
X353807Y201875D01*
X354051Y201826D01*
X354388Y201648D01*
X354566Y201311D01*
X354615Y201067D01*
X354906Y200631D01*
Y200564D01*
X354615Y200128D01*
X354512Y199613D01*
X354615Y199099D01*
X354906Y198662D01*
Y198596D01*
X354615Y198160D01*
X354512Y197645D01*
X354615Y197130D01*
X354659Y197064D01*
X354887Y196661D01*
X354659Y196258D01*
X354615Y196191D01*
X354512Y195676D01*
X354615Y195162D01*
X354906Y194726D01*
Y194659D01*
X354615Y194222D01*
X354512Y193708D01*
X354615Y193193D01*
X354659Y193127D01*
X354887Y192724D01*
X354659Y192321D01*
X354615Y192254D01*
X354512Y191739D01*
X354615Y191225D01*
X354906Y190788D01*
Y190722D01*
X354615Y190286D01*
X354512Y189771D01*
X354615Y189256D01*
X354906Y188820D01*
Y188753D01*
X354615Y188317D01*
X354566Y188073D01*
X354388Y187736D01*
X354051Y187558D01*
X353807Y187509D01*
X353741Y187465D01*
X353338Y187237D01*
X352935Y187465D01*
X352868Y187509D01*
X352353Y187612D01*
X351839Y187509D01*
X351772Y187465D01*
X351369Y187237D01*
X350966Y187465D01*
X350899Y187509D01*
X350385Y187612D01*
X349870Y187509D01*
X349803Y187465D01*
X349400Y187237D01*
X348997Y187465D01*
X348931Y187509D01*
X348416Y187612D01*
X348138Y187556D01*
X347638Y187889D01*
Y188583D01*
X340945D01*
Y192520D01*
X340400D01*
X340139Y193010D01*
X340205Y193127D01*
X340249Y193193D01*
X340352Y193708D01*
X340249Y194222D01*
X339958Y194659D01*
Y194726D01*
X340249Y195162D01*
X340352Y195676D01*
X340249Y196191D01*
X339958Y196627D01*
X339521Y196919D01*
X339007Y197021D01*
X336684D01*
X336523Y196989D01*
X335223D01*
X334720Y196889D01*
X334294Y196605D01*
X333709Y196019D01*
X333424Y195593D01*
X333324Y195091D01*
Y194887D01*
X333062Y194495D01*
X323613D01*
Y193515D01*
X322275D01*
X322257Y193511D01*
X321820Y193692D01*
X321037D01*
X320313Y193392D01*
X319759Y192839D01*
X319460Y192115D01*
Y191332D01*
X319685Y190789D01*
X319426Y190289D01*
X317924D01*
X311417Y194882D01*
X226378D01*
Y273228D01*
X348031D01*
Y276616D01*
X348063Y276663D01*
X348163Y277165D01*
Y286610D01*
X348625Y286802D01*
X378193Y257233D01*
D02*
G37*
G36*
X450787Y237425D02*
X439205D01*
X439205Y237425D01*
X438744Y237333D01*
X438353Y237072D01*
X438353Y237072D01*
X437918Y236637D01*
X437303D01*
Y237303D01*
X431791D01*
Y237303D01*
X431791Y237303D01*
X427173D01*
X426870Y237303D01*
X426370Y237303D01*
X421752D01*
Y234777D01*
X420374D01*
Y237303D01*
X415756D01*
X415453Y237303D01*
X414953Y237303D01*
X410335D01*
Y235171D01*
X409350D01*
Y236516D01*
X404035D01*
Y235958D01*
X402818D01*
X402599Y236338D01*
X402086Y236851D01*
X401458Y237214D01*
X400757Y237402D01*
X400031D01*
X399330Y237214D01*
X398702Y236851D01*
X398188Y236338D01*
X397826Y235709D01*
X397638Y235009D01*
Y234283D01*
X397465Y234058D01*
X386516D01*
X385989Y234462D01*
X385974Y234575D01*
X394289Y242890D01*
X397228D01*
X397638Y242489D01*
Y241763D01*
X397826Y241062D01*
X398188Y240434D01*
X398702Y239921D01*
X399330Y239558D01*
X400031Y239370D01*
X400757D01*
X401458Y239558D01*
X402086Y239921D01*
X402599Y240434D01*
X402881Y240922D01*
X404035D01*
Y240256D01*
X409350D01*
Y241512D01*
X410335D01*
Y239469D01*
X414953D01*
X415256Y239469D01*
X415756Y239469D01*
X420374D01*
Y241995D01*
X421752D01*
Y239469D01*
X426370D01*
X426673Y239469D01*
X427173Y239469D01*
X431791D01*
Y239469D01*
X431791Y239469D01*
X437303D01*
Y243209D01*
X437220D01*
Y243785D01*
X440656Y247221D01*
X450787D01*
Y237425D01*
D02*
G37*
G36*
X247083Y234449D02*
X256925D01*
Y235290D01*
X257614D01*
Y233169D01*
X262232D01*
X262535Y233169D01*
X263035Y233169D01*
X265797D01*
X268306Y230660D01*
X268732Y230376D01*
X269234Y230276D01*
X271177D01*
Y225297D01*
X275311D01*
Y232876D01*
X275311D01*
X275130Y233313D01*
X277512Y235695D01*
X292358D01*
Y234842D01*
X297476D01*
Y235695D01*
X298165D01*
Y233563D01*
X298165Y233563D01*
Y233366D01*
X298165D01*
Y233162D01*
X297812Y232809D01*
X297476D01*
Y233661D01*
X292358D01*
Y232809D01*
X290311D01*
Y232876D01*
X286177D01*
Y225297D01*
X290311D01*
Y230184D01*
X292358D01*
Y229331D01*
X297476D01*
Y230184D01*
X298165D01*
Y228445D01*
X303480D01*
Y230888D01*
X303873Y231151D01*
X304752Y232030D01*
X305252Y231856D01*
Y230807D01*
X309870D01*
X310173Y230807D01*
X310673Y230807D01*
X315291D01*
Y234266D01*
X317311Y236286D01*
X319141D01*
X319160Y236267D01*
Y235735D01*
X318882D01*
Y227254D01*
X322330D01*
X322330Y227254D01*
Y227254D01*
X322830Y227287D01*
X323165Y227220D01*
X323838Y227354D01*
X324043Y227491D01*
X324445Y227715D01*
X324847Y227491D01*
X325052Y227354D01*
X325724Y227220D01*
X326288Y227332D01*
X326588Y227116D01*
X326710Y226962D01*
X326663Y226772D01*
X326181D01*
Y224767D01*
X326085Y224703D01*
X324842Y223460D01*
X290153D01*
X289762Y223622D01*
X288979D01*
X288769Y223535D01*
X280512D01*
Y224409D01*
X279608D01*
Y225297D01*
X280311D01*
Y232876D01*
X276177D01*
Y225297D01*
X276983D01*
Y224409D01*
X276181D01*
Y219291D01*
X280512D01*
Y219922D01*
X288405D01*
X288979Y219685D01*
X289762D01*
X290153Y219847D01*
X325590D01*
X326282Y219985D01*
X326868Y220376D01*
X328145Y221654D01*
X330512D01*
Y226772D01*
X329628D01*
Y227886D01*
X329907Y228305D01*
X330041Y228978D01*
Y234011D01*
X329923Y234605D01*
X330158Y235105D01*
X333661D01*
Y234252D01*
X338779D01*
Y234711D01*
X340700D01*
X340739Y234566D01*
X341102Y233938D01*
X341615Y233425D01*
X342243Y233062D01*
X342944Y232874D01*
X343670D01*
X344371Y233062D01*
X344999Y233425D01*
X345496Y233921D01*
X345550Y233940D01*
X346064Y233969D01*
X346856Y233177D01*
X346649Y232677D01*
X346459D01*
X345735Y232378D01*
X345182Y231824D01*
X344882Y231100D01*
Y230317D01*
X345182Y229594D01*
X345735Y229040D01*
X346459Y228740D01*
X346963D01*
X348687Y227015D01*
Y224516D01*
X347244D01*
Y217626D01*
X349189D01*
Y216437D01*
X345746D01*
X345720Y216464D01*
X345294Y216748D01*
X344791Y216848D01*
X344289Y216748D01*
X344127Y216640D01*
X341856D01*
X341704Y217140D01*
X341767Y217182D01*
X342107Y217523D01*
X342182Y217572D01*
X342235Y217626D01*
X346457D01*
Y224516D01*
X340354D01*
Y219813D01*
X337253D01*
X336612Y220079D01*
X335829D01*
X335105Y219779D01*
X334552Y219225D01*
X334284Y218578D01*
X334133Y218427D01*
X250156D01*
X240295Y228289D01*
Y234496D01*
X240749Y234741D01*
X240795Y234728D01*
X241137Y234135D01*
X241650Y233622D01*
X242279Y233259D01*
X242980Y233071D01*
X243705D01*
X244406Y233259D01*
X245035Y233622D01*
X245548Y234135D01*
X245911Y234763D01*
X246098Y235464D01*
Y236190D01*
X245974Y236653D01*
X246292Y237153D01*
X247083D01*
Y234449D01*
D02*
G37*
G36*
X450787Y223645D02*
X439205D01*
X438744Y223553D01*
X438353Y223292D01*
X438353Y223292D01*
X437918Y222858D01*
X437303D01*
Y223524D01*
X431791D01*
Y223524D01*
X431791Y223524D01*
X427173D01*
X426870Y223524D01*
X426370Y223524D01*
X421752D01*
Y220998D01*
X420374D01*
Y223524D01*
X415756D01*
X415453Y223524D01*
X414953Y223524D01*
X410335D01*
Y221391D01*
X409350D01*
Y222736D01*
X404035D01*
Y222179D01*
X402818D01*
X402599Y222558D01*
X402086Y223071D01*
X401458Y223434D01*
X400757Y223622D01*
X400031D01*
X399330Y223434D01*
X398702Y223071D01*
X398188Y222558D01*
X397826Y221930D01*
X397638Y221229D01*
Y220503D01*
X397668Y220392D01*
X397289Y219923D01*
X387419D01*
X386917Y219823D01*
X386491Y219538D01*
X369756Y202804D01*
X358725D01*
X358695Y202824D01*
X358180Y202927D01*
X356138D01*
X355802Y203062D01*
X355666Y203398D01*
Y205204D01*
X356410Y205947D01*
X363559D01*
X364061Y206047D01*
X364487Y206332D01*
X387801Y229645D01*
X397424D01*
X397755Y229145D01*
X397638Y228709D01*
Y227984D01*
X397826Y227283D01*
X398188Y226654D01*
X398702Y226141D01*
X399330Y225778D01*
X400031Y225590D01*
X400757D01*
X401458Y225778D01*
X402086Y226141D01*
X402599Y226654D01*
X402818Y227034D01*
X404035D01*
Y226476D01*
X409350D01*
Y227821D01*
X410335D01*
Y225689D01*
X414953D01*
X415256Y225689D01*
X415756Y225689D01*
X420374D01*
Y228215D01*
X421752D01*
Y225689D01*
X426370D01*
X426673Y225689D01*
X427173Y225689D01*
X431791D01*
Y225689D01*
X431791Y225689D01*
X437303D01*
Y229429D01*
X437220D01*
Y230005D01*
X440656Y233441D01*
X450787D01*
Y223645D01*
D02*
G37*
G36*
Y209866D02*
X439205D01*
X439205Y209866D01*
X438744Y209774D01*
X438353Y209513D01*
X438353Y209513D01*
X437918Y209078D01*
X437303D01*
Y209744D01*
X431791D01*
Y209744D01*
X431791Y209744D01*
X427173D01*
X426870Y209744D01*
X426370Y209744D01*
X421752D01*
Y207218D01*
X420374D01*
Y209744D01*
X415756D01*
X415453Y209744D01*
X414953Y209744D01*
X410335D01*
Y207612D01*
X409350D01*
Y208957D01*
X404035D01*
Y208399D01*
X402818D01*
X402599Y208779D01*
X402086Y209292D01*
X401458Y209655D01*
X400757Y209842D01*
X400031D01*
X399330Y209655D01*
X398702Y209292D01*
X398188Y208779D01*
X397826Y208150D01*
X397638Y207449D01*
Y206724D01*
X397668Y206613D01*
X397289Y206143D01*
X382498D01*
X381995Y206043D01*
X381570Y205759D01*
X374678Y198867D01*
X372713D01*
X372522Y199329D01*
X388703Y215510D01*
X397290D01*
X397668Y215041D01*
X397638Y214930D01*
Y214204D01*
X397826Y213503D01*
X398188Y212875D01*
X398702Y212362D01*
X399330Y211999D01*
X400031Y211811D01*
X400757D01*
X401458Y211999D01*
X402086Y212362D01*
X402599Y212875D01*
X402818Y213254D01*
X404035D01*
Y212697D01*
X409350D01*
Y214042D01*
X410335D01*
Y211909D01*
X414953D01*
X415256Y211909D01*
X415756Y211909D01*
X420374D01*
Y214435D01*
X421752D01*
Y211909D01*
X426370D01*
X426673Y211909D01*
X427173Y211909D01*
X431791D01*
Y211909D01*
X431791Y211910D01*
X437303D01*
Y215650D01*
X437220D01*
Y216226D01*
X440656Y219662D01*
X450787D01*
Y209866D01*
D02*
G37*
G36*
Y196086D02*
X439505D01*
X439044Y195994D01*
X438654Y195733D01*
X438654Y195733D01*
X438219Y195299D01*
X437303D01*
Y195965D01*
X431791D01*
Y195965D01*
X431791Y195965D01*
X427173D01*
X426870Y195965D01*
X426370Y195965D01*
X421752D01*
Y193439D01*
X420374D01*
Y195965D01*
X415756D01*
X415453Y195965D01*
X414953Y195965D01*
X410335D01*
Y193832D01*
X409350D01*
Y195177D01*
X404035D01*
Y194620D01*
X402818D01*
X402599Y194999D01*
X402086Y195512D01*
X401458Y195875D01*
X400757Y196063D01*
X400031D01*
X399330Y195875D01*
X398702Y195512D01*
X398188Y194999D01*
X397826Y194371D01*
X397638Y193670D01*
Y192944D01*
X397668Y192833D01*
X397289Y192364D01*
X396370D01*
X394188Y194545D01*
X393762Y194830D01*
X393260Y194930D01*
X377634D01*
X377443Y195392D01*
X383782Y201731D01*
X397290D01*
X397668Y201261D01*
X397638Y201150D01*
Y200425D01*
X397826Y199724D01*
X398188Y199095D01*
X398702Y198582D01*
X399330Y198219D01*
X400031Y198031D01*
X400757D01*
X401458Y198219D01*
X402086Y198582D01*
X402599Y199095D01*
X402818Y199475D01*
X404035D01*
Y198917D01*
X409350D01*
Y200262D01*
X410335D01*
Y198130D01*
X414953D01*
X415256Y198130D01*
X415756Y198130D01*
X420374D01*
Y200656D01*
X421752D01*
Y198130D01*
X426370D01*
X426673Y198130D01*
X427173Y198130D01*
X431791D01*
Y198130D01*
X431791Y198130D01*
X437303D01*
Y201870D01*
X437220D01*
Y202446D01*
X440656Y205882D01*
X450787D01*
Y196086D01*
D02*
G37*
G36*
Y182307D02*
X439205D01*
X439205Y182307D01*
X438744Y182215D01*
X438353Y181954D01*
X438353Y181954D01*
X437918Y181519D01*
X437303D01*
Y182185D01*
X431791D01*
Y182185D01*
X431791Y182185D01*
X427173D01*
X426870Y182185D01*
X426370Y182185D01*
X421752D01*
Y179659D01*
X420374D01*
Y182185D01*
X415756D01*
X415453Y182185D01*
X414953Y182185D01*
X410335D01*
Y180053D01*
X409350D01*
Y181398D01*
X404035D01*
Y180840D01*
X402818D01*
X402599Y181220D01*
X402086Y181733D01*
X401458Y182096D01*
X400757Y182283D01*
X400031D01*
X399330Y182096D01*
X398702Y181733D01*
X398188Y181220D01*
X397826Y180591D01*
X397638Y179890D01*
Y179165D01*
X397668Y179054D01*
X397289Y178584D01*
X385301D01*
X373830Y190055D01*
X374021Y190517D01*
X391976D01*
X394158Y188336D01*
X394584Y188051D01*
X395086Y187951D01*
X397290D01*
X397668Y187481D01*
X397638Y187371D01*
Y186645D01*
X397826Y185944D01*
X398188Y185316D01*
X398702Y184803D01*
X399330Y184440D01*
X400031Y184252D01*
X400757D01*
X401458Y184440D01*
X402086Y184803D01*
X402599Y185316D01*
X402818Y185695D01*
X404035D01*
Y185138D01*
X409350D01*
Y186483D01*
X410335D01*
Y184350D01*
X414953D01*
X415256Y184350D01*
X415756Y184350D01*
X420374D01*
Y186876D01*
X421752D01*
Y184350D01*
X426370D01*
X426673Y184350D01*
X427173Y184350D01*
X431791D01*
Y184350D01*
X431791Y184350D01*
X437303D01*
Y188091D01*
X437220D01*
Y188667D01*
X440656Y192103D01*
X450787D01*
Y182307D01*
D02*
G37*
G36*
X340945Y187780D02*
X341501D01*
X341653Y187280D01*
X341560Y187218D01*
X341268Y186782D01*
X341166Y186267D01*
Y185775D01*
Y183944D01*
X341198Y183783D01*
Y181897D01*
X339361D01*
Y176779D01*
Y172448D01*
X339361Y172448D01*
X339361D01*
X339493Y171948D01*
X339370Y171651D01*
Y170868D01*
X339599Y170317D01*
X339345Y169817D01*
X334008D01*
X330053Y173772D01*
Y177559D01*
X329953Y178061D01*
X329668Y178487D01*
X327854Y180301D01*
Y183589D01*
X328218Y184089D01*
X334219D01*
X334283D01*
X334786Y184189D01*
X335211Y184473D01*
X337196Y186458D01*
X339007D01*
X339521Y186560D01*
X339958Y186852D01*
X340249Y187288D01*
X340274Y187413D01*
X340542Y187802D01*
X340832D01*
X340945Y187780D01*
D02*
G37*
G36*
X383089Y174556D02*
X383514Y174272D01*
X384017Y174172D01*
X397290D01*
X397668Y173702D01*
X397638Y173591D01*
Y172865D01*
X397826Y172165D01*
X398188Y171536D01*
X398702Y171023D01*
X399330Y170660D01*
X400031Y170472D01*
X400757D01*
X401458Y170660D01*
X402086Y171023D01*
X402599Y171536D01*
X402818Y171916D01*
X404035D01*
Y171358D01*
X409350D01*
Y172703D01*
X410335D01*
Y170571D01*
X414953D01*
X415256Y170571D01*
X415756Y170571D01*
X420374D01*
Y173097D01*
X421752D01*
Y170571D01*
X426370D01*
X426673Y170571D01*
X427173Y170571D01*
X431791D01*
Y170571D01*
X431791Y170571D01*
X437303D01*
Y174311D01*
X437220D01*
Y174887D01*
X440656Y178323D01*
X450787D01*
Y168527D01*
X439505D01*
X439044Y168435D01*
X438654Y168174D01*
X438654Y168174D01*
X438219Y167740D01*
X437303D01*
Y168405D01*
X431791D01*
Y168405D01*
X431791Y168405D01*
X427173D01*
X426870Y168405D01*
X426370Y168405D01*
X421752D01*
Y165879D01*
X420374D01*
Y168405D01*
X415756D01*
X415453Y168405D01*
X414953Y168405D01*
X410335D01*
Y166273D01*
X409350D01*
Y167618D01*
X404035D01*
Y167061D01*
X402818D01*
X402599Y167440D01*
X402086Y167953D01*
X401458Y168316D01*
X400757Y168504D01*
X400031D01*
X399330Y168316D01*
X398702Y167953D01*
X398188Y167440D01*
X397826Y166812D01*
X397638Y166111D01*
Y165385D01*
X397668Y165274D01*
X397289Y164805D01*
X374314D01*
X355585Y183534D01*
X355666Y183944D01*
Y185986D01*
X355802Y186322D01*
X356138Y186458D01*
X358180D01*
X358695Y186560D01*
X358725Y186580D01*
X371064D01*
X383089Y174556D01*
D02*
G37*
G36*
X380826Y146997D02*
X381252Y146713D01*
X381754Y146613D01*
X397290D01*
X397668Y146143D01*
X397638Y146032D01*
Y145306D01*
X397826Y144606D01*
X398188Y143977D01*
X398702Y143464D01*
X399330Y143101D01*
X400031Y142913D01*
X400757D01*
X401458Y143101D01*
X402086Y143464D01*
X402599Y143977D01*
X402818Y144357D01*
X404035D01*
Y143799D01*
X409350D01*
Y145144D01*
X410335D01*
Y143012D01*
X414953D01*
X415256Y143012D01*
X415756Y143012D01*
X420374D01*
Y145538D01*
X421752D01*
Y143012D01*
X426370D01*
X426673Y143012D01*
X427173Y143012D01*
X431791D01*
Y143012D01*
X431791Y143012D01*
X437303D01*
Y146752D01*
X437220D01*
Y147328D01*
X440656Y150764D01*
X450787D01*
Y140968D01*
X439205D01*
X439205Y140968D01*
X438744Y140876D01*
X438353Y140615D01*
X438353Y140615D01*
X437918Y140181D01*
X437303D01*
Y140847D01*
X431791D01*
Y140847D01*
X431791Y140846D01*
X427173D01*
X426870Y140847D01*
X426370Y140846D01*
X421752D01*
Y138321D01*
X420374D01*
Y140846D01*
X415756D01*
X415453Y140847D01*
X414953Y140846D01*
X410335D01*
Y138803D01*
X409350D01*
Y140059D01*
X404035D01*
Y139393D01*
X402881D01*
X402599Y139881D01*
X402086Y140394D01*
X401458Y140757D01*
X400757Y140945D01*
X400031D01*
X399330Y140757D01*
X398702Y140394D01*
X398188Y139881D01*
X397826Y139253D01*
X397638Y138552D01*
Y137826D01*
X397717Y137531D01*
X397333Y137031D01*
X392744D01*
X392284Y136939D01*
X391893Y136678D01*
X391893Y136678D01*
X362076Y106862D01*
X361586Y106959D01*
X361571Y106994D01*
X361128Y107437D01*
X360549Y107677D01*
X359923D01*
X359344Y107437D01*
X358901Y106994D01*
X358661Y106416D01*
Y105789D01*
X358901Y105210D01*
X359344Y104767D01*
X359758Y104596D01*
Y104066D01*
X359344Y103894D01*
X358901Y103451D01*
X358661Y102872D01*
Y102246D01*
X358901Y101667D01*
X359344Y101224D01*
X359923Y100984D01*
X360549D01*
X361128Y101224D01*
X361571Y101667D01*
X361811Y102246D01*
Y102339D01*
X362688D01*
X362688Y102339D01*
X363149Y102431D01*
X363540Y102692D01*
X393896Y133048D01*
X397333D01*
X397710Y132597D01*
X397717Y132548D01*
X397638Y132253D01*
Y131527D01*
X397826Y130826D01*
X398188Y130198D01*
X398702Y129684D01*
X399330Y129322D01*
X400031Y129134D01*
X400757D01*
X401458Y129322D01*
X402086Y129684D01*
X402599Y130198D01*
X402881Y130685D01*
X404035D01*
Y130020D01*
X409350D01*
Y131276D01*
X410335D01*
Y129232D01*
X414953D01*
X415256Y129232D01*
X415756Y129232D01*
X420374D01*
Y131758D01*
X421752D01*
Y129232D01*
X426370D01*
X426673Y129232D01*
X427173Y129232D01*
X431791D01*
Y129232D01*
X431791Y129232D01*
X437303D01*
Y132972D01*
X437220D01*
Y133548D01*
X440656Y136985D01*
X450787D01*
Y127189D01*
X439205D01*
X439205Y127189D01*
X438744Y127097D01*
X438353Y126836D01*
X438353Y126836D01*
X437918Y126401D01*
X437303D01*
Y127067D01*
X431791D01*
Y127067D01*
X431791Y127067D01*
X427173D01*
X426870Y127067D01*
X426370Y127067D01*
X421752D01*
Y124541D01*
X420374D01*
Y127067D01*
X415756D01*
X415453Y127067D01*
X414953Y127067D01*
X410335D01*
Y124935D01*
X409350D01*
Y126279D01*
X404035D01*
Y125722D01*
X402818D01*
X402599Y126102D01*
X402086Y126615D01*
X401458Y126978D01*
X400757Y127165D01*
X400031D01*
X399330Y126978D01*
X398702Y126615D01*
X398188Y126102D01*
X397826Y125473D01*
X397638Y124772D01*
Y124047D01*
X397465Y123821D01*
X392981D01*
X392479Y123722D01*
X392053Y123437D01*
X368748Y100131D01*
X356890D01*
Y106988D01*
X355250D01*
Y118504D01*
Y119291D01*
X355150Y119794D01*
X354865Y120220D01*
X347825Y127259D01*
X347818Y127484D01*
X347895Y127830D01*
X347966Y127859D01*
X348519Y128412D01*
X348819Y129136D01*
Y129919D01*
X348519Y130643D01*
X347966Y131196D01*
X347242Y131496D01*
X346738D01*
X345950Y132285D01*
X346063Y132708D01*
Y133434D01*
X345875Y134135D01*
X345512Y134763D01*
X344999Y135276D01*
X344371Y135639D01*
X343670Y135827D01*
X342944D01*
X342243Y135639D01*
X341615Y135276D01*
X341102Y134763D01*
X340769Y134187D01*
X338779D01*
Y134843D01*
X337533D01*
Y135531D01*
X338878D01*
Y140453D01*
X333563D01*
Y135531D01*
X334908D01*
Y134843D01*
X333661D01*
Y133596D01*
X332415D01*
X330041Y135970D01*
Y140904D01*
X329907Y141577D01*
X329526Y142147D01*
X328956Y142528D01*
X328284Y142662D01*
X327611Y142528D01*
X327041Y142147D01*
X326967D01*
X326397Y142528D01*
X325724Y142662D01*
X325052Y142528D01*
X324481Y142147D01*
X324408D01*
X323838Y142528D01*
X323165Y142662D01*
X322533Y142536D01*
X322316Y142671D01*
X322096Y142849D01*
X322171Y143147D01*
X322720D01*
Y148265D01*
X322568D01*
X322255Y148765D01*
X322441Y149215D01*
Y149998D01*
X322141Y150721D01*
X321587Y151275D01*
X320864Y151575D01*
X320081D01*
X319357Y151275D01*
X318804Y150721D01*
X318504Y149998D01*
Y149215D01*
X318690Y148765D01*
X318389Y148265D01*
X318389D01*
Y143147D01*
X319268D01*
Y142004D01*
X318982Y141577D01*
X318848Y140904D01*
Y135871D01*
X318982Y135198D01*
X319363Y134628D01*
X319797Y134338D01*
X319960Y133864D01*
X319969Y133730D01*
X319869Y133596D01*
X317115D01*
X315291Y135419D01*
Y138681D01*
X310673D01*
X310370Y138681D01*
X309870Y138681D01*
X305252D01*
Y138321D01*
X303480D01*
Y141043D01*
X298165D01*
Y139305D01*
X297476D01*
Y140157D01*
X292358D01*
Y140000D01*
X290311D01*
Y144978D01*
X286177D01*
Y137400D01*
X288897D01*
X289024Y137374D01*
X292358D01*
Y135827D01*
X297476D01*
Y136679D01*
X297812D01*
X298165Y136326D01*
Y136122D01*
X298165D01*
Y135925D01*
X298165D01*
Y133990D01*
X297476D01*
Y134646D01*
X292358D01*
Y133793D01*
X277906D01*
X274799Y136900D01*
X275006Y137400D01*
X275311D01*
Y144978D01*
X271177D01*
Y140000D01*
X270022D01*
X269519Y139900D01*
X269093Y139615D01*
X265797Y136319D01*
X263035D01*
X262732Y136319D01*
X262232Y136319D01*
X257614D01*
Y134162D01*
X256925D01*
Y135039D01*
X252201D01*
Y135039D01*
X247083D01*
Y132300D01*
X246264D01*
X245965Y132800D01*
X246098Y133299D01*
Y134024D01*
X245911Y134725D01*
X245548Y135354D01*
X245035Y135867D01*
X244406Y136230D01*
X243705Y136417D01*
X242980D01*
X242279Y136230D01*
X241650Y135867D01*
X241137Y135354D01*
X240774Y134725D01*
X240587Y134024D01*
Y133299D01*
X240720Y132800D01*
X240421Y132300D01*
X240370D01*
X239868Y132200D01*
X239442Y131915D01*
X236284Y128758D01*
X236000Y128332D01*
X235900Y127830D01*
Y117739D01*
X236000Y117237D01*
X236284Y116811D01*
X247961Y105134D01*
X248387Y104849D01*
X248889Y104750D01*
X334383D01*
X334575Y104288D01*
X334552Y104265D01*
X334252Y103541D01*
Y102758D01*
X334552Y102034D01*
X335105Y101481D01*
X335829Y101181D01*
X336612D01*
X337335Y101481D01*
X337800Y101945D01*
X339358D01*
X339489Y101603D01*
X339504Y101445D01*
X339094Y101035D01*
X338854Y100457D01*
Y99830D01*
X339059Y99337D01*
X338887Y99072D01*
X338726Y98934D01*
X338381Y99077D01*
X337754D01*
X337175Y98837D01*
X336732Y98394D01*
X336493Y97815D01*
Y97189D01*
X336732Y96610D01*
X337175Y96167D01*
X337754Y95927D01*
X338381D01*
X338816Y96107D01*
X338965Y96046D01*
X339209Y95869D01*
X339271Y95796D01*
Y93595D01*
X339373Y93081D01*
X339665Y92644D01*
X340101Y92353D01*
X340616Y92251D01*
X341130Y92353D01*
X341197Y92397D01*
X341600Y92625D01*
X342003Y92397D01*
X342069Y92353D01*
X342584Y92251D01*
X343099Y92353D01*
X343165Y92397D01*
X343568Y92625D01*
X343971Y92397D01*
X344038Y92353D01*
X344552Y92251D01*
X345067Y92353D01*
X345134Y92397D01*
X345537Y92625D01*
X345940Y92397D01*
X346006Y92353D01*
X346521Y92251D01*
X347036Y92353D01*
X347102Y92397D01*
X347505Y92625D01*
X347908Y92397D01*
X347975Y92353D01*
X348489Y92251D01*
X349004Y92353D01*
X349071Y92397D01*
X349474Y92625D01*
X349877Y92397D01*
X349943Y92353D01*
X350458Y92251D01*
X350973Y92353D01*
X351039Y92397D01*
X351442Y92625D01*
X351845Y92397D01*
X351912Y92353D01*
X352427Y92251D01*
X352941Y92353D01*
X353008Y92397D01*
X353411Y92625D01*
X353814Y92397D01*
X353880Y92353D01*
X354124Y92304D01*
X354461Y92126D01*
X354640Y91789D01*
X354688Y91545D01*
X354979Y91109D01*
Y91042D01*
X354688Y90606D01*
X354586Y90091D01*
X354688Y89577D01*
X354979Y89140D01*
Y89074D01*
X354688Y88638D01*
X354586Y88123D01*
X354688Y87608D01*
X354733Y87542D01*
X354961Y87139D01*
X354733Y86736D01*
X354688Y86669D01*
X354586Y86154D01*
X354688Y85640D01*
X354979Y85203D01*
Y85137D01*
X354688Y84700D01*
X354586Y84186D01*
X354688Y83671D01*
X354733Y83605D01*
X354961Y83202D01*
X354733Y82799D01*
X354688Y82732D01*
X354586Y82217D01*
X354688Y81703D01*
X354979Y81266D01*
Y81200D01*
X354688Y80763D01*
X354586Y80249D01*
X354688Y79734D01*
X354979Y79298D01*
Y79231D01*
X354688Y78795D01*
X354640Y78551D01*
X354461Y78214D01*
X354124Y78036D01*
X353880Y77987D01*
X353814Y77943D01*
X353411Y77715D01*
X353008Y77943D01*
X352941Y77987D01*
X352427Y78090D01*
X351912Y77987D01*
X351845Y77943D01*
X351442Y77715D01*
X351039Y77943D01*
X350973Y77987D01*
X350458Y78090D01*
X349943Y77987D01*
X349877Y77943D01*
X349474Y77715D01*
X349071Y77943D01*
X349004Y77987D01*
X348489Y78090D01*
X348138Y78020D01*
X347638Y78318D01*
Y78740D01*
X340945D01*
Y80709D01*
X340333Y80711D01*
X340322Y80763D01*
X340031Y81200D01*
Y81266D01*
X340322Y81703D01*
X340425Y82217D01*
X340322Y82732D01*
X340278Y82799D01*
X340050Y83202D01*
X340278Y83605D01*
X340322Y83671D01*
X340425Y84186D01*
X340322Y84700D01*
X340031Y85137D01*
Y85203D01*
X340322Y85640D01*
X340425Y86154D01*
X340322Y86669D01*
X340031Y87105D01*
X339595Y87397D01*
X339080Y87499D01*
X336757D01*
X336596Y87467D01*
X335296D01*
X334793Y87367D01*
X334368Y87082D01*
X333782Y86497D01*
X333497Y86071D01*
X333397Y85568D01*
Y85365D01*
X333135Y84973D01*
X323686D01*
Y83992D01*
X322388D01*
X322359Y83987D01*
X321928Y84165D01*
X321145D01*
X320421Y83865D01*
X319868Y83312D01*
X319568Y82588D01*
Y81974D01*
X319210Y81677D01*
X319106Y81640D01*
X316929Y82677D01*
X246063D01*
X226378Y102362D01*
Y165354D01*
X332356D01*
X332403Y165323D01*
X332905Y165223D01*
X344094D01*
X344597Y165323D01*
X344644Y165354D01*
X347638D01*
Y168352D01*
X347660Y168386D01*
X347760Y168889D01*
Y179409D01*
X348222Y179600D01*
X380826Y146997D01*
D02*
G37*
G36*
X450787Y154748D02*
X439505D01*
X439505Y154748D01*
X439044Y154656D01*
X438654Y154395D01*
X438654Y154395D01*
X438219Y153960D01*
X437303D01*
Y154626D01*
X431791D01*
Y154626D01*
X431791Y154626D01*
X427173D01*
X426870Y154626D01*
X426370Y154626D01*
X421752D01*
Y152100D01*
X420374D01*
Y154626D01*
X415756D01*
X415453Y154626D01*
X414953Y154626D01*
X410335D01*
Y152494D01*
X409350D01*
Y153839D01*
X404035D01*
Y153281D01*
X402818D01*
X402599Y153661D01*
X402086Y154174D01*
X401458Y154537D01*
X400757Y154724D01*
X400031D01*
X399330Y154537D01*
X398702Y154174D01*
X398188Y153661D01*
X397826Y153032D01*
X397638Y152331D01*
Y151606D01*
X397668Y151495D01*
X397289Y151025D01*
X383038D01*
X374133Y159930D01*
X374324Y160392D01*
X397290D01*
X397668Y159923D01*
X397638Y159812D01*
Y159086D01*
X397826Y158385D01*
X398188Y157757D01*
X398702Y157244D01*
X399330Y156881D01*
X400031Y156693D01*
X400757D01*
X401458Y156881D01*
X402086Y157244D01*
X402599Y157757D01*
X402818Y158136D01*
X404035D01*
Y157579D01*
X409350D01*
Y158924D01*
X410335D01*
Y156791D01*
X414953D01*
X415256Y156791D01*
X415756Y156791D01*
X420374D01*
Y159317D01*
X421752D01*
Y156791D01*
X426370D01*
X426673Y156791D01*
X427173Y156791D01*
X431791D01*
Y156791D01*
X431791Y156791D01*
X437303D01*
Y160531D01*
X437220D01*
Y161108D01*
X440656Y164544D01*
X450787D01*
Y154748D01*
D02*
G37*
G36*
X549386Y391431D02*
X550476Y390980D01*
X551458Y390324D01*
X552292Y389489D01*
X552948Y388508D01*
X553400Y387417D01*
X553630Y386260D01*
Y385669D01*
Y8032D01*
Y7441D01*
X553400Y6284D01*
X552948Y5193D01*
X552292Y4212D01*
X551458Y3377D01*
X550476Y2721D01*
X549386Y2269D01*
X548228Y2039D01*
X470472D01*
Y33465D01*
X501968D01*
X509842Y41339D01*
Y125906D01*
X499921Y135827D01*
X480315D01*
X476378Y139764D01*
Y144095D01*
X480315Y148031D01*
X505905Y147638D01*
X509842Y151575D01*
Y181102D01*
X500035Y190910D01*
X480315Y190551D01*
X476772Y194095D01*
Y199606D01*
X480315Y203150D01*
X504331D01*
X509842Y208661D01*
Y236614D01*
X499921Y246063D01*
X490578Y245875D01*
X490335Y245940D01*
X489350D01*
X488988Y245843D01*
X480315Y245669D01*
X476772Y250000D01*
Y254331D01*
X480315Y257874D01*
X503937D01*
X509842Y263779D01*
X509842Y352362D01*
X484252Y377953D01*
X470472D01*
Y391662D01*
X548228D01*
X549386Y391431D01*
D02*
G37*
G36*
X247083Y125197D02*
X256925D01*
Y126025D01*
X257614D01*
Y123917D01*
X262232D01*
X262535Y123917D01*
X263035Y123917D01*
X265797D01*
X268306Y121408D01*
X268732Y121124D01*
X269234Y121024D01*
X271177D01*
Y116045D01*
X275311D01*
Y123624D01*
X275311D01*
X275130Y124061D01*
X277512Y126443D01*
X292358D01*
Y125591D01*
X297476D01*
Y126443D01*
X298165D01*
Y124311D01*
X298165Y124311D01*
Y124114D01*
X298165D01*
Y123910D01*
X297812Y123557D01*
X297476D01*
Y124409D01*
X292358D01*
Y123557D01*
X290311D01*
Y123624D01*
X286177D01*
Y116045D01*
X290311D01*
Y120931D01*
X292358D01*
Y120079D01*
X297476D01*
Y120931D01*
X298165D01*
Y119193D01*
X303480D01*
Y121581D01*
X303644Y121614D01*
X304070Y121899D01*
X304752Y122581D01*
X305252Y122374D01*
Y121555D01*
X309870D01*
X310173Y121555D01*
X310673Y121555D01*
X315291D01*
Y125014D01*
X317311Y127034D01*
X319141D01*
X319160Y127015D01*
Y126483D01*
X318882D01*
Y118002D01*
X322330D01*
X322330Y118002D01*
Y118002D01*
X322830Y118035D01*
X323165Y117968D01*
X323838Y118102D01*
X324408Y118483D01*
X324481D01*
X325052Y118102D01*
X325724Y117968D01*
X326288Y118080D01*
X326588Y117864D01*
X326710Y117710D01*
X326663Y117520D01*
X326181D01*
Y114956D01*
X325630Y114405D01*
X290153D01*
X289762Y114567D01*
X288979D01*
X288587Y114405D01*
X280512D01*
Y115157D01*
X279608D01*
Y116045D01*
X280311D01*
Y123624D01*
X276177D01*
Y116045D01*
X276983D01*
Y115157D01*
X276181D01*
Y110039D01*
X280512D01*
Y110792D01*
X288587D01*
X288979Y110630D01*
X289762D01*
X290153Y110792D01*
X326378D01*
X327069Y110930D01*
X327655Y111321D01*
X328736Y112402D01*
X330512D01*
Y117520D01*
X329628D01*
Y118634D01*
X329907Y119053D01*
X330041Y119726D01*
Y124759D01*
X329923Y125353D01*
X330158Y125853D01*
X333661D01*
Y125000D01*
X338779D01*
Y125459D01*
X340700D01*
X340739Y125314D01*
X341102Y124686D01*
X341615Y124173D01*
X342243Y123810D01*
X342944Y123622D01*
X343670D01*
X344371Y123810D01*
X344999Y124173D01*
X345512Y124686D01*
X345731Y125065D01*
X346307D01*
X346856Y124516D01*
X346649Y124016D01*
X346459D01*
X345735Y123716D01*
X345182Y123162D01*
X344882Y122439D01*
Y121656D01*
X345182Y120932D01*
X345735Y120378D01*
X346459Y120079D01*
X346963D01*
X348687Y118354D01*
Y114992D01*
X347244D01*
Y108102D01*
X349091D01*
Y106988D01*
X345746D01*
X345720Y107015D01*
X345294Y107299D01*
X344791Y107399D01*
X344668Y107375D01*
X338580D01*
X338313Y107875D01*
X338345Y107923D01*
X341271D01*
X341774Y108023D01*
X341893Y108102D01*
X346457D01*
Y114992D01*
X340354D01*
Y110573D01*
X337487D01*
X337335Y110724D01*
X336612Y111024D01*
X335829D01*
X335105Y110724D01*
X334552Y110170D01*
X334252Y109447D01*
Y109264D01*
X334151Y109162D01*
X250173D01*
X240313Y119023D01*
Y125097D01*
X240399Y125162D01*
X241052Y125031D01*
X241137Y124883D01*
X241650Y124370D01*
X242279Y124007D01*
X242980Y123819D01*
X243705D01*
X244406Y124007D01*
X245035Y124370D01*
X245548Y124883D01*
X245911Y125511D01*
X246098Y126212D01*
Y126938D01*
X245978Y127387D01*
X246302Y127887D01*
X247083D01*
Y125197D01*
D02*
G37*
G36*
X450787Y113409D02*
X439205D01*
X439205Y113409D01*
X438744Y113317D01*
X438353Y113056D01*
X438353Y113056D01*
X437918Y112622D01*
X437303D01*
Y113287D01*
X431791D01*
Y113287D01*
X431791Y113287D01*
X427173D01*
X426870Y113287D01*
X426370Y113287D01*
X421752D01*
Y110761D01*
X420374D01*
Y113287D01*
X415756D01*
X415453Y113287D01*
X414953Y113287D01*
X410335D01*
Y111155D01*
X409350D01*
Y112500D01*
X404035D01*
Y111943D01*
X402818D01*
X402599Y112322D01*
X402086Y112835D01*
X401458Y113198D01*
X400757Y113386D01*
X400031D01*
X399330Y113198D01*
X398702Y112835D01*
X398188Y112322D01*
X397826Y111694D01*
X397638Y110993D01*
Y110267D01*
X397668Y110156D01*
X397290Y109687D01*
X387099D01*
X386596Y109587D01*
X386170Y109302D01*
X370150Y93282D01*
X358798D01*
X358768Y93302D01*
X358253Y93405D01*
X356212D01*
X355875Y93540D01*
X355740Y93876D01*
Y95719D01*
X370032D01*
X370534Y95819D01*
X370960Y96103D01*
X394265Y119409D01*
X397239D01*
X397751Y118896D01*
X397638Y118473D01*
Y117747D01*
X397826Y117046D01*
X398188Y116418D01*
X398702Y115905D01*
X399330Y115542D01*
X400031Y115354D01*
X400757D01*
X401458Y115542D01*
X402086Y115905D01*
X402599Y116418D01*
X402818Y116798D01*
X404035D01*
Y116240D01*
X409350D01*
Y117585D01*
X410335D01*
Y115453D01*
X414953D01*
X415256Y115453D01*
X415756Y115453D01*
X420374D01*
Y117979D01*
X421752D01*
Y115453D01*
X426370D01*
X426673Y115453D01*
X427173Y115453D01*
X431791D01*
Y115453D01*
X431791Y115453D01*
X437303D01*
Y119193D01*
X437220D01*
Y119769D01*
X440656Y123205D01*
X450787D01*
Y113409D01*
D02*
G37*
G36*
Y99736D02*
X439311D01*
X438850Y99644D01*
X438459Y99383D01*
X438459Y99383D01*
X437918Y98842D01*
X437303D01*
Y99508D01*
X431791D01*
Y99508D01*
X431791Y99508D01*
X427173D01*
X426870Y99508D01*
X426370Y99508D01*
X421752D01*
Y96982D01*
X420374D01*
Y99508D01*
X415756D01*
X415453Y99508D01*
X414953Y99508D01*
X410335D01*
Y97376D01*
X409350D01*
Y98721D01*
X404035D01*
Y98163D01*
X402818D01*
X402599Y98542D01*
X402086Y99056D01*
X401458Y99418D01*
X400757Y99606D01*
X400031D01*
X399330Y99418D01*
X398702Y99056D01*
X398188Y98542D01*
X397826Y97914D01*
X397638Y97213D01*
Y96487D01*
X397668Y96377D01*
X397290Y95907D01*
X382177D01*
X381675Y95807D01*
X381249Y95523D01*
X375071Y89345D01*
X373107D01*
X372915Y89807D01*
X388383Y105274D01*
X397290D01*
X397668Y104804D01*
X397638Y104693D01*
Y103968D01*
X397826Y103267D01*
X398188Y102638D01*
X398702Y102125D01*
X399330Y101763D01*
X400031Y101575D01*
X400757D01*
X401458Y101763D01*
X402086Y102125D01*
X402599Y102638D01*
X402818Y103018D01*
X404035D01*
Y102461D01*
X409350D01*
Y103805D01*
X410335D01*
Y101673D01*
X414953D01*
X415256Y101673D01*
X415756Y101673D01*
X420374D01*
Y104199D01*
X421752D01*
Y101673D01*
X426370D01*
X426673Y101673D01*
X427173Y101673D01*
X431791D01*
Y101673D01*
X431791Y101673D01*
X437303D01*
Y105413D01*
X437220D01*
Y105989D01*
X440656Y109426D01*
X450787D01*
Y99736D01*
D02*
G37*
G36*
Y85918D02*
X439574D01*
X439574Y85918D01*
X439113Y85827D01*
X438722Y85566D01*
X438722Y85566D01*
X438219Y85062D01*
X437303D01*
Y85728D01*
X431791D01*
Y85728D01*
X431791Y85728D01*
X427173D01*
X426870Y85728D01*
X426370Y85728D01*
X421752D01*
Y83202D01*
X420374D01*
Y85728D01*
X415756D01*
X415453Y85728D01*
X414953Y85728D01*
X410335D01*
Y83596D01*
X409350D01*
Y84941D01*
X404035D01*
Y84383D01*
X402818D01*
X402599Y84763D01*
X402086Y85276D01*
X401458Y85639D01*
X400757Y85827D01*
X400031D01*
X399330Y85639D01*
X398702Y85276D01*
X398188Y84763D01*
X397826Y84135D01*
X397638Y83434D01*
Y82708D01*
X397465Y82483D01*
X381721D01*
X379181Y85023D01*
X378755Y85308D01*
X378253Y85408D01*
X378028D01*
X377837Y85870D01*
X383461Y91494D01*
X397290D01*
X397668Y91025D01*
X397638Y90914D01*
Y90188D01*
X397826Y89487D01*
X398188Y88859D01*
X398702Y88346D01*
X399330Y87983D01*
X400031Y87795D01*
X400757D01*
X401458Y87983D01*
X402086Y88346D01*
X402599Y88859D01*
X402818Y89239D01*
X404035D01*
Y88681D01*
X409350D01*
Y90026D01*
X410335D01*
Y87894D01*
X414953D01*
X415256Y87894D01*
X415756Y87894D01*
X420374D01*
Y90420D01*
X421752D01*
Y87894D01*
X426370D01*
X426673Y87894D01*
X427173Y87894D01*
X431791D01*
Y87894D01*
X431791Y87894D01*
X437303D01*
Y91634D01*
X437220D01*
Y92210D01*
X440763Y95752D01*
X450787D01*
Y85918D01*
D02*
G37*
G36*
Y72283D02*
X439417D01*
X439417Y72283D01*
X438956Y72191D01*
X438566Y71930D01*
X438566Y71930D01*
X437918Y71283D01*
X437303D01*
Y71949D01*
X431791D01*
Y71949D01*
X431791Y71949D01*
X427173D01*
X426870Y71949D01*
X426370Y71949D01*
X421752D01*
Y69423D01*
X420374D01*
Y71949D01*
X415756D01*
X415453Y71949D01*
X414953Y71949D01*
X410335D01*
Y69816D01*
X409350D01*
Y71161D01*
X404035D01*
Y70604D01*
X402818D01*
X402599Y70983D01*
X402086Y71497D01*
X401458Y71859D01*
X400757Y72047D01*
X400031D01*
X399330Y71859D01*
X398702Y71497D01*
X398188Y70983D01*
X397826Y70355D01*
X397638Y69654D01*
Y68928D01*
X397668Y68818D01*
X397290Y68348D01*
X385695D01*
X373509Y80533D01*
X373701Y80995D01*
X376968D01*
X379509Y78455D01*
X379935Y78170D01*
X380437Y78070D01*
X397424D01*
X397755Y77570D01*
X397638Y77135D01*
Y76409D01*
X397826Y75708D01*
X398188Y75080D01*
X398702Y74566D01*
X399330Y74203D01*
X400031Y74016D01*
X400757D01*
X401458Y74203D01*
X402086Y74566D01*
X402599Y75080D01*
X402818Y75459D01*
X404035D01*
Y74902D01*
X409350D01*
Y76246D01*
X410335D01*
Y74114D01*
X414953D01*
X415256Y74114D01*
X415756Y74114D01*
X420374D01*
Y76640D01*
X421752D01*
Y74114D01*
X426370D01*
X426673Y74114D01*
X427173Y74114D01*
X431791D01*
Y74114D01*
X431791Y74114D01*
X437303D01*
Y77854D01*
X437220D01*
Y78430D01*
X440725Y81935D01*
X450787D01*
Y72283D01*
D02*
G37*
G36*
X340945Y77937D02*
X341193D01*
X341460Y77437D01*
X341342Y77259D01*
X341239Y76745D01*
Y76253D01*
Y74422D01*
X341271Y74261D01*
Y72375D01*
X339434D01*
Y67257D01*
Y62926D01*
X339434D01*
X339580Y62709D01*
X339370Y62203D01*
Y61419D01*
X339599Y60868D01*
X339345Y60368D01*
X334402D01*
X330990Y63779D01*
X330773Y63997D01*
X330447Y64323D01*
Y68110D01*
X330347Y68613D01*
X330062Y69038D01*
X328248Y70852D01*
Y74246D01*
X334036D01*
X334538Y74346D01*
X334964Y74631D01*
X335224Y74891D01*
X337269Y76936D01*
X339080D01*
X339595Y77038D01*
X340031Y77329D01*
X340322Y77766D01*
X340345Y77877D01*
X340638Y77998D01*
X340945Y77937D01*
D02*
G37*
G36*
X383482Y64320D02*
X383908Y64035D01*
X384411Y63935D01*
X397290D01*
X397668Y63466D01*
X397638Y63355D01*
Y62629D01*
X397826Y61928D01*
X398188Y61300D01*
X398702Y60787D01*
X399330Y60424D01*
X400031Y60236D01*
X400757D01*
X401458Y60424D01*
X402086Y60787D01*
X402599Y61300D01*
X402818Y61680D01*
X404035D01*
Y61122D01*
X409350D01*
Y62467D01*
X410335D01*
Y60335D01*
X414953D01*
X415256Y60335D01*
X415756Y60335D01*
X420374D01*
Y62861D01*
X421752D01*
Y60335D01*
X426370D01*
X426673Y60335D01*
X427173Y60335D01*
X431791D01*
Y60335D01*
X431791Y60335D01*
X437303D01*
Y64075D01*
X437220D01*
Y64651D01*
X440869Y68300D01*
X450787D01*
Y58503D01*
X439417D01*
X439417Y58503D01*
X438956Y58412D01*
X438566Y58151D01*
X438566Y58151D01*
X437918Y57503D01*
X437303D01*
Y58169D01*
X431791D01*
Y58169D01*
X431791Y58169D01*
X427173D01*
X426870Y58169D01*
X426370Y58169D01*
X421752D01*
Y55643D01*
X420374D01*
Y58169D01*
X415756D01*
X415453Y58169D01*
X414953Y58169D01*
X410335D01*
Y56037D01*
X409350D01*
Y57382D01*
X404035D01*
Y56824D01*
X402818D01*
X402599Y57204D01*
X402086Y57717D01*
X401458Y58080D01*
X400757Y58268D01*
X400031D01*
X399330Y58080D01*
X398702Y57717D01*
X398188Y57204D01*
X397826Y56576D01*
X397638Y55875D01*
Y55149D01*
X397668Y55038D01*
X397290Y54568D01*
X373983D01*
X355617Y72934D01*
Y73877D01*
X355637Y73907D01*
X355740Y74422D01*
Y76464D01*
X355875Y76800D01*
X356212Y76936D01*
X358253D01*
X358768Y77038D01*
X358798Y77058D01*
X370744D01*
X383482Y64320D01*
D02*
G37*
G36*
X450787Y44724D02*
X439417D01*
X439417Y44724D01*
X438956Y44632D01*
X438566Y44371D01*
X438566Y44371D01*
X437918Y43724D01*
X437303D01*
Y44390D01*
X431791D01*
Y44390D01*
X431791Y44390D01*
X427173D01*
X426870Y44390D01*
X426370Y44390D01*
X421752D01*
Y41864D01*
X420374D01*
Y44390D01*
X415756D01*
X415453Y44390D01*
X414953Y44390D01*
X410335D01*
Y42257D01*
X409350D01*
Y43602D01*
X404035D01*
Y43045D01*
X402818D01*
X402599Y43424D01*
X402086Y43938D01*
X401458Y44300D01*
X400757Y44488D01*
X400031D01*
X399330Y44300D01*
X398702Y43938D01*
X398188Y43424D01*
X397826Y42796D01*
X397638Y42095D01*
Y41369D01*
X397668Y41259D01*
X397290Y40789D01*
X382707D01*
X373802Y49694D01*
X373993Y50156D01*
X397290D01*
X397668Y49686D01*
X397638Y49575D01*
Y48850D01*
X397826Y48149D01*
X398188Y47520D01*
X398702Y47007D01*
X399330Y46644D01*
X400031Y46457D01*
X400757D01*
X401458Y46644D01*
X402086Y47007D01*
X402599Y47520D01*
X402818Y47900D01*
X404035D01*
Y47343D01*
X409350D01*
Y48687D01*
X410335D01*
Y46555D01*
X414953D01*
X415256Y46555D01*
X415756Y46555D01*
X420374D01*
Y49081D01*
X421752D01*
Y46555D01*
X426370D01*
X426673Y46555D01*
X427173Y46555D01*
X431791D01*
Y46555D01*
X431791Y46555D01*
X437303D01*
Y50295D01*
X437220D01*
Y50871D01*
X440869Y54520D01*
X450787D01*
Y44724D01*
D02*
G37*
G36*
X380495Y36761D02*
X380920Y36476D01*
X381423Y36376D01*
X397290D01*
X397668Y35907D01*
X397638Y35796D01*
Y35070D01*
X397826Y34369D01*
X398188Y33741D01*
X398702Y33228D01*
X399330Y32865D01*
X400031Y32677D01*
X400757D01*
X401458Y32865D01*
X402086Y33228D01*
X402599Y33741D01*
X402818Y34120D01*
X404035D01*
Y33563D01*
X409350D01*
Y34908D01*
X410335D01*
Y32776D01*
X414953D01*
X415256Y32776D01*
X415756Y32776D01*
X420374D01*
Y35302D01*
X421752D01*
Y32776D01*
X426370D01*
X426673Y32776D01*
X427173Y32776D01*
X431791D01*
Y32776D01*
X431791Y32776D01*
X437303D01*
Y36516D01*
X437220D01*
Y37092D01*
X440869Y40741D01*
X450787D01*
Y25591D01*
X347638D01*
Y59489D01*
X347734Y59633D01*
X347834Y60135D01*
Y68769D01*
X348295Y68960D01*
X380495Y36761D01*
D02*
G37*
%LPC*%
G36*
X13386Y299606D02*
X8661D01*
Y294882D01*
X9711D01*
Y292815D01*
X8366D01*
Y288197D01*
X8366Y287894D01*
X8366Y287394D01*
Y282776D01*
X13006D01*
X18493Y277289D01*
X18918Y277004D01*
X19079Y276972D01*
Y271063D01*
X19140Y270756D01*
X19314Y270495D01*
X19454Y270402D01*
Y265315D01*
X14212Y260074D01*
X13417D01*
X13372Y260241D01*
X12873Y261105D01*
X12168Y261810D01*
X11304Y262309D01*
X10341Y262567D01*
X9344D01*
X8381Y262309D01*
X7517Y261810D01*
X6812Y261105D01*
X6313Y260241D01*
X6268Y260074D01*
X-42701D01*
Y260138D01*
X-55299D01*
Y256398D01*
X-42701D01*
Y256461D01*
X6808D01*
X6812Y256454D01*
X7517Y255749D01*
X8381Y255250D01*
X9344Y254992D01*
X10341D01*
X11304Y255250D01*
X12168Y255749D01*
X12873Y256454D01*
X12877Y256461D01*
X14961D01*
X15652Y256599D01*
X16238Y256990D01*
X22537Y263290D01*
X22929Y263876D01*
X23066Y264567D01*
Y270402D01*
X23205Y270495D01*
X23380Y270756D01*
X23441Y271063D01*
Y275378D01*
X26575D01*
X26882Y275439D01*
X27143Y275613D01*
X27316Y275874D01*
X27378Y276181D01*
Y280118D01*
X27316Y280425D01*
X27143Y280686D01*
X26882Y280860D01*
X26575Y280921D01*
X19882D01*
X19575Y280860D01*
X19314Y280686D01*
X18751Y280743D01*
X14473Y285021D01*
X14047Y285306D01*
X13681Y285378D01*
Y287394D01*
X13681Y287697D01*
X13681Y288197D01*
Y292815D01*
X12336D01*
Y294882D01*
X13386D01*
Y299606D01*
D02*
G37*
G36*
X-34648Y253937D02*
X-35431D01*
X-36154Y253637D01*
X-36511Y253281D01*
X-42701D01*
Y253839D01*
X-55299D01*
Y250098D01*
X-42701D01*
Y250656D01*
X-36511D01*
X-36154Y250300D01*
X-35431Y250000D01*
X-34648D01*
X-33924Y250300D01*
X-33371Y250853D01*
X-33071Y251577D01*
Y252360D01*
X-33371Y253084D01*
X-33924Y253637D01*
X-34648Y253937D01*
D02*
G37*
G36*
X-11813Y247638D02*
X-12596D01*
X-13320Y247338D01*
X-13676Y246982D01*
X-42701D01*
Y247539D01*
X-55299D01*
Y243799D01*
X-42701D01*
Y244357D01*
X-13676D01*
X-13320Y244001D01*
X-12596Y243701D01*
X-11813D01*
X-11090Y244001D01*
X-10536Y244554D01*
X-10236Y245278D01*
Y246061D01*
X-10536Y246784D01*
X-11090Y247338D01*
X-11813Y247638D01*
D02*
G37*
G36*
X50906Y194153D02*
X38346D01*
Y189665D01*
X50906D01*
Y190508D01*
X52377D01*
X52822Y190064D01*
X53545Y189764D01*
X54329D01*
X55052Y190064D01*
X55606Y190617D01*
X55905Y191341D01*
Y192124D01*
X55606Y192847D01*
X55052Y193401D01*
X54329Y193701D01*
X53545D01*
X52822Y193401D01*
X52554Y193133D01*
X50906D01*
Y194153D01*
D02*
G37*
G36*
Y189154D02*
X38346D01*
Y184665D01*
X50906D01*
Y185646D01*
X52515D01*
X52822Y185339D01*
X53545Y185039D01*
X54329D01*
X55052Y185339D01*
X55606Y185893D01*
X55905Y186616D01*
Y187399D01*
X55606Y188123D01*
X55052Y188677D01*
X54329Y188976D01*
X53545D01*
X52822Y188677D01*
X52416Y188271D01*
X50906D01*
Y189154D01*
D02*
G37*
G36*
Y184153D02*
X38346D01*
Y179665D01*
X50906D01*
Y180587D01*
X52456D01*
X52822Y180221D01*
X53545Y179921D01*
X54329D01*
X55052Y180221D01*
X55606Y180775D01*
X55905Y181498D01*
Y182281D01*
X55606Y183005D01*
X55052Y183559D01*
X54329Y183858D01*
X53545D01*
X52822Y183559D01*
X52476Y183212D01*
X50906D01*
Y184153D01*
D02*
G37*
G36*
X-38978Y172047D02*
X-39762D01*
X-40485Y171748D01*
X-40841Y171391D01*
X-42701D01*
Y171949D01*
X-55299D01*
Y168209D01*
Y165059D01*
X-42701D01*
Y168766D01*
X-40841D01*
X-40485Y168410D01*
X-39762Y168110D01*
X-38978D01*
X-38255Y168410D01*
X-37899Y168766D01*
X-22197D01*
X-14314Y160883D01*
X-13888Y160598D01*
X-13386Y160498D01*
X22323D01*
Y159665D01*
X34882D01*
Y164154D01*
X22323D01*
Y163124D01*
X-12842D01*
X-20725Y171007D01*
X-21151Y171291D01*
X-21654Y171391D01*
X-37899D01*
X-38255Y171748D01*
X-38978Y172047D01*
D02*
G37*
G36*
X50906Y174153D02*
X38346D01*
Y169665D01*
X50906D01*
Y170666D01*
X52535D01*
X52822Y170378D01*
X53545Y170079D01*
X54329D01*
X55052Y170378D01*
X55606Y170932D01*
X55905Y171656D01*
Y172439D01*
X55606Y173162D01*
X55052Y173716D01*
X54329Y174016D01*
X53545D01*
X52822Y173716D01*
X52397Y173291D01*
X50906D01*
Y174153D01*
D02*
G37*
G36*
X-42701Y181398D02*
X-55299D01*
Y177657D01*
Y174508D01*
X-42701D01*
Y175065D01*
X-16292D01*
X-7208Y165981D01*
X-6782Y165697D01*
X-6279Y165597D01*
X22323D01*
Y164665D01*
X34882D01*
Y169153D01*
X22323D01*
Y168222D01*
X-5736D01*
X-7927Y170414D01*
X-7609Y170802D01*
X-7451Y170697D01*
X-6949Y170597D01*
X22323D01*
Y169665D01*
X34882D01*
Y174153D01*
X22323D01*
Y173222D01*
X-6405D01*
X-13639Y180456D01*
X-14065Y180740D01*
X-14567Y180840D01*
X-42701D01*
Y181398D01*
D02*
G37*
G36*
X50906Y169153D02*
X38346D01*
Y164665D01*
X50906D01*
Y165607D01*
X52476D01*
X52822Y165260D01*
X53545Y164961D01*
X54329D01*
X55052Y165260D01*
X55606Y165814D01*
X55905Y166538D01*
Y167321D01*
X55606Y168044D01*
X55052Y168598D01*
X54329Y168898D01*
X53545D01*
X52822Y168598D01*
X52456Y168232D01*
X50906D01*
Y169153D01*
D02*
G37*
G36*
Y164154D02*
X38346D01*
Y159665D01*
X50906D01*
Y160548D01*
X52416D01*
X52822Y160142D01*
X53545Y159843D01*
X54329D01*
X55052Y160142D01*
X55606Y160696D01*
X55905Y161419D01*
Y162203D01*
X55606Y162926D01*
X55052Y163480D01*
X54329Y163779D01*
X53545D01*
X52822Y163480D01*
X52515Y163173D01*
X50906D01*
Y164154D01*
D02*
G37*
G36*
X34882Y159153D02*
X22323D01*
Y158311D01*
X-11039D01*
X-11483Y158755D01*
X-12207Y159055D01*
X-12990D01*
X-13713Y158755D01*
X-14267Y158202D01*
X-14567Y157478D01*
Y156695D01*
X-14267Y155972D01*
X-13713Y155418D01*
X-12990Y155118D01*
X-12207D01*
X-11483Y155418D01*
X-11216Y155685D01*
X22323D01*
Y154665D01*
X34882D01*
Y159153D01*
D02*
G37*
G36*
X-42701Y162500D02*
X-55299D01*
Y158760D01*
Y155610D01*
X-42701D01*
Y158760D01*
Y162500D01*
D02*
G37*
G36*
X50906Y159153D02*
X38346D01*
Y154665D01*
X50906D01*
Y155685D01*
X52554D01*
X52822Y155418D01*
X53545Y155118D01*
X54329D01*
X55052Y155418D01*
X55606Y155972D01*
X55905Y156695D01*
Y157478D01*
X55606Y158202D01*
X55052Y158755D01*
X54329Y159055D01*
X53545D01*
X52822Y158755D01*
X52377Y158311D01*
X50906D01*
Y159153D01*
D02*
G37*
G36*
X-42701Y153051D02*
X-55299D01*
Y149311D01*
Y146161D01*
X-42701D01*
Y149311D01*
Y153051D01*
D02*
G37*
G36*
Y143602D02*
X-55299D01*
Y139862D01*
Y136713D01*
X-42701D01*
Y139862D01*
Y143602D01*
D02*
G37*
%LPD*%
G36*
X26575Y276181D02*
X22638D01*
Y271063D01*
X19882D01*
Y280118D01*
X26575D01*
Y276181D01*
D02*
G37*
%LPC*%
G36*
X284250Y371654D02*
X283467D01*
X282743Y371354D01*
X282189Y370800D01*
X281890Y370077D01*
Y369293D01*
X282091Y368807D01*
X281799Y368307D01*
X281693D01*
Y363189D01*
X281693D01*
X281679Y362695D01*
X281571D01*
Y355116D01*
X285705D01*
Y362695D01*
X285705D01*
X285719Y363189D01*
X286024D01*
Y368307D01*
X285917D01*
X285625Y368807D01*
X285827Y369293D01*
Y370077D01*
X285527Y370800D01*
X284973Y371354D01*
X284250Y371654D01*
D02*
G37*
G36*
X279132D02*
X278349D01*
X277625Y371354D01*
X277071Y370800D01*
X276772Y370077D01*
Y369293D01*
X276973Y368807D01*
X276681Y368307D01*
X276575D01*
Y363189D01*
X276575D01*
X276571Y362695D01*
X276571D01*
X276571Y362691D01*
Y355116D01*
X280705D01*
Y362695D01*
X280705D01*
X280719Y363189D01*
X280906D01*
Y368307D01*
X280799D01*
X280507Y368807D01*
X280709Y369293D01*
Y370077D01*
X280409Y370800D01*
X279855Y371354D01*
X279132Y371654D01*
D02*
G37*
G36*
X174409Y345685D02*
X151575D01*
X151268Y345624D01*
X151007Y345450D01*
X150833Y345189D01*
X150772Y344882D01*
Y344119D01*
X150759Y344055D01*
Y340197D01*
X150772Y340133D01*
Y339370D01*
X150833Y339063D01*
X151007Y338802D01*
X151268Y338628D01*
X151575Y338567D01*
X167644D01*
X167976Y337987D01*
X167995Y337966D01*
X168004Y337938D01*
X168988Y336216D01*
X169058Y336135D01*
X169117Y336047D01*
X169160Y336018D01*
X169193Y335979D01*
X169289Y335932D01*
X169378Y335872D01*
X169428Y335862D01*
X169474Y335840D01*
X169580Y335832D01*
X169685Y335811D01*
X174409D01*
X174717Y335872D01*
X174977Y336047D01*
X175093Y336221D01*
X175151Y336307D01*
X175212Y336614D01*
Y337073D01*
X178543D01*
Y336319D01*
X184449D01*
Y340453D01*
X178543D01*
Y339698D01*
X175212D01*
Y344882D01*
X175151Y345189D01*
X174977Y345450D01*
X174717Y345624D01*
X174409Y345685D01*
D02*
G37*
G36*
X218898Y333086D02*
X179134D01*
X178827Y333025D01*
X178748Y332972D01*
X178543D01*
Y332817D01*
X178450Y332677D01*
X178392Y332591D01*
X178331Y332283D01*
Y326772D01*
X178392Y326464D01*
X178566Y326204D01*
X178827Y326030D01*
X179134Y325969D01*
X218172D01*
X228959Y315181D01*
X228959Y315181D01*
X229220Y315007D01*
X229527Y314946D01*
X285039Y314947D01*
X285347Y315008D01*
X285607Y315182D01*
X285781Y315442D01*
X285842Y315750D01*
X285842Y318938D01*
X285842Y318938D01*
X285781Y319245D01*
X285607Y319506D01*
X285254Y319859D01*
X284993Y320033D01*
X284686Y320094D01*
X232223Y320094D01*
X219465Y332851D01*
X219205Y333025D01*
X218898Y333086D01*
D02*
G37*
G36*
X174409D02*
X169685D01*
X169378Y333025D01*
X169299Y332972D01*
X169095D01*
Y332817D01*
X169001Y332677D01*
X168943Y332591D01*
X168882Y332283D01*
Y329528D01*
Y318110D01*
X168943Y317803D01*
X169117Y317543D01*
X169378Y317369D01*
X169685Y317307D01*
X215022D01*
X223842Y308487D01*
X223842Y308487D01*
X224102Y308313D01*
X224409Y308252D01*
X312598Y308254D01*
X312906Y308315D01*
X313166Y308489D01*
X313340Y308750D01*
X313401Y309057D01*
X313401Y312245D01*
X313401Y312245D01*
X313340Y312552D01*
X313166Y312813D01*
X312813Y313166D01*
X312552Y313340D01*
X312245Y313401D01*
X226317Y313401D01*
X217103Y322615D01*
X216843Y322789D01*
X216535Y322850D01*
X175212D01*
Y332283D01*
X175151Y332591D01*
X175000Y332817D01*
Y332972D01*
X174796D01*
X174717Y333025D01*
X174409Y333086D01*
D02*
G37*
G36*
X322832Y313386D02*
X322049D01*
X321326Y313086D01*
X320772Y312532D01*
X320472Y311809D01*
Y311026D01*
X320772Y310302D01*
X321326Y309749D01*
X322049Y309449D01*
X322832D01*
X322938Y309492D01*
X323154Y309348D01*
X323656Y309248D01*
X324016D01*
Y308327D01*
X331657D01*
X331784Y308301D01*
X333543D01*
X334899Y306946D01*
X335324Y306661D01*
X335827Y306561D01*
X338189D01*
X338324Y306588D01*
X339409D01*
X339924Y306691D01*
X340360Y306982D01*
X340652Y307418D01*
X340754Y307933D01*
X340652Y308448D01*
X340360Y308884D01*
X339924Y309175D01*
X339409Y309278D01*
X337087D01*
X336628Y309187D01*
X336370D01*
X335015Y310542D01*
X334589Y310827D01*
X334087Y310927D01*
X333465D01*
Y312657D01*
X324016D01*
X324016Y312657D01*
Y312657D01*
X323668Y312974D01*
X323556Y313086D01*
X322832Y313386D01*
D02*
G37*
%LPD*%
G36*
X174409Y336614D02*
X169685D01*
X168701Y338337D01*
Y338386D01*
X168673D01*
X168110Y339370D01*
X151575D01*
Y344882D01*
X174409D01*
Y336614D01*
D02*
G37*
G36*
X231890Y319291D02*
X284686Y319291D01*
X285039Y318938D01*
X285039Y315750D01*
X229527Y315749D01*
X218504Y326772D01*
X179134D01*
Y332283D01*
X218898D01*
X231890Y319291D01*
D02*
G37*
G36*
X174409Y322047D02*
X216535D01*
X225985Y312598D01*
X312245Y312598D01*
X312598Y312245D01*
X312598Y309057D01*
X224409Y309055D01*
X215354Y318110D01*
X169685D01*
Y329528D01*
Y332283D01*
X174409D01*
Y322047D01*
D02*
G37*
%LPC*%
G36*
X90158Y364305D02*
X61024D01*
X60521Y364205D01*
X60096Y363920D01*
X57789Y361614D01*
X54921D01*
Y356496D01*
X59252D01*
Y359376D01*
X59286Y359399D01*
X61567Y361680D01*
X89614D01*
X114042Y337252D01*
Y336620D01*
X113542Y336413D01*
X102910Y347044D01*
X102803Y347116D01*
X102702Y347194D01*
X102674Y347202D01*
X102650Y347218D01*
X102524Y347243D01*
X102399Y347277D01*
X102371Y347273D01*
X102342Y347279D01*
X78543Y347279D01*
Y351378D01*
X78543D01*
X78562Y351870D01*
X79036D01*
Y356791D01*
X73721D01*
Y354410D01*
X73521Y354370D01*
X73096Y354086D01*
X71175Y352165D01*
X64075D01*
Y348819D01*
Y346664D01*
X64010Y346567D01*
X63949Y346260D01*
Y341797D01*
X61684Y339532D01*
X61510Y339272D01*
X61449Y338965D01*
Y331102D01*
X61510Y330795D01*
X61684Y330535D01*
X61945Y330361D01*
X62252Y330299D01*
X79165Y330299D01*
X108366D01*
Y325689D01*
X109711D01*
Y323819D01*
X108465D01*
Y319488D01*
X113583D01*
Y323819D01*
X112336D01*
Y325689D01*
X113681D01*
Y327573D01*
X116282Y330174D01*
X116567Y330600D01*
X116667Y331102D01*
Y337795D01*
X116567Y338298D01*
X116282Y338723D01*
X91086Y363920D01*
X90660Y364205D01*
X90158Y364305D01*
D02*
G37*
G36*
X64567Y318519D02*
X64260Y318458D01*
X63999Y318284D01*
X60085Y314370D01*
X60039D01*
Y314324D01*
X58723Y313007D01*
X45276D01*
X44968Y312946D01*
X44708Y312772D01*
X44534Y312512D01*
X44473Y312205D01*
Y303150D01*
X44534Y302842D01*
X44708Y302582D01*
X44968Y302408D01*
X45276Y302347D01*
X60221D01*
Y275197D01*
X60282Y274890D01*
X60456Y274629D01*
X60716Y274455D01*
X61024Y274394D01*
X70472D01*
X70780Y274455D01*
X71040Y274629D01*
X71214Y274890D01*
X71275Y275197D01*
Y296161D01*
X75492D01*
Y297506D01*
X77559D01*
Y296457D01*
X82284D01*
Y301181D01*
X77559D01*
Y300132D01*
X75492D01*
Y301476D01*
X71275D01*
Y302347D01*
X113779D01*
X114087Y302408D01*
X114347Y302582D01*
X114521Y302842D01*
X114582Y303150D01*
Y317717D01*
X114521Y318024D01*
X114347Y318284D01*
X114087Y318458D01*
X113779Y318519D01*
X64567D01*
X64567Y318519D01*
D02*
G37*
G36*
X129429Y297146D02*
X122539D01*
Y291739D01*
X120420Y289620D01*
X120072Y289099D01*
X119949Y288484D01*
X119949Y288484D01*
Y287027D01*
X119486D01*
X119103Y286951D01*
X118778Y286734D01*
X118561Y286409D01*
X118485Y286026D01*
Y284644D01*
X118561Y284260D01*
X118778Y283935D01*
X119103Y283718D01*
X119486Y283642D01*
X123624D01*
X124007Y283718D01*
X124332Y283935D01*
X124549Y284260D01*
X124626Y284644D01*
Y286026D01*
X124549Y286409D01*
X124332Y286734D01*
X124007Y286951D01*
X123624Y287027D01*
X123161D01*
Y287819D01*
X124810Y289469D01*
X129429D01*
Y297146D01*
D02*
G37*
G36*
X118894Y279543D02*
X104331D01*
X104024Y279482D01*
X103763Y279308D01*
X103589Y279047D01*
X103528Y278740D01*
Y274803D01*
X103589Y274496D01*
X103763Y274236D01*
X104024Y274061D01*
X104331Y274000D01*
X124016D01*
X124323Y274061D01*
X124583Y274236D01*
X124758Y274496D01*
X124819Y274803D01*
Y278092D01*
X124792Y278227D01*
X124772Y278363D01*
X124761Y278380D01*
X124758Y278399D01*
X124681Y278514D01*
X124610Y278632D01*
X124558Y278690D01*
X124549Y278732D01*
X124332Y279057D01*
X124007Y279274D01*
X123624Y279350D01*
X119486D01*
X119468Y279346D01*
X119416Y279357D01*
X119340Y279408D01*
X119267Y279438D01*
X119201Y279482D01*
X119123Y279497D01*
X119050Y279528D01*
X118971D01*
X118894Y279543D01*
D02*
G37*
G36*
X79528Y285055D02*
X74016D01*
X73708Y284994D01*
X73448Y284820D01*
X73274Y284559D01*
X73213Y284252D01*
Y275320D01*
X68919Y261658D01*
X68906Y261537D01*
X68882Y261417D01*
Y250000D01*
X68943Y249693D01*
X69117Y249432D01*
X69378Y249258D01*
X69685Y249197D01*
X100394D01*
X100701Y249258D01*
X100961Y249432D01*
X101135Y249693D01*
X101197Y250000D01*
Y251837D01*
X102854D01*
Y250492D01*
X107472D01*
X107776Y250492D01*
X108276Y250492D01*
X112894D01*
Y251837D01*
X114961D01*
Y250787D01*
X119685D01*
Y255512D01*
X114961D01*
Y254462D01*
X112894D01*
Y255807D01*
X108276D01*
X107973Y255807D01*
X107472Y255807D01*
X102854D01*
Y254462D01*
X101197D01*
Y261417D01*
X101135Y261724D01*
X100961Y261985D01*
X100701Y262159D01*
X100394Y262220D01*
X91708D01*
X80330Y275494D01*
Y284252D01*
X80269Y284559D01*
X80095Y284820D01*
X79835Y284994D01*
X79528Y285055D01*
D02*
G37*
%LPD*%
G36*
X102342Y346476D02*
X102343Y346476D01*
X113386Y335433D01*
Y331102D01*
X79165D01*
X62252Y331102D01*
Y338965D01*
X64752Y341465D01*
Y346260D01*
X71358D01*
Y346476D01*
X102342Y346476D01*
D02*
G37*
G36*
X113779Y303150D02*
X70472D01*
Y275197D01*
X61024D01*
Y303150D01*
X45276D01*
Y312205D01*
X59055D01*
X59646Y312795D01*
X59646D01*
Y312795D01*
X64567Y317717D01*
X113779D01*
Y303150D01*
D02*
G37*
G36*
X119103Y278600D02*
X119486Y278524D01*
X123624D01*
X124016Y278092D01*
Y274803D01*
X104331D01*
Y278740D01*
X118894D01*
X119103Y278600D01*
D02*
G37*
G36*
X79528Y275197D02*
X91339Y261417D01*
X100394D01*
Y250000D01*
X69685D01*
Y261417D01*
X74016Y275197D01*
Y284252D01*
X79528D01*
Y275197D01*
D02*
G37*
%LPC*%
G36*
X285705Y341340D02*
X281571D01*
Y333762D01*
X285705D01*
Y341340D01*
D02*
G37*
G36*
X283856Y263189D02*
X283073D01*
X282349Y262889D01*
X281796Y262336D01*
X281496Y261612D01*
Y260829D01*
X281698Y260343D01*
X281405Y259842D01*
X281299D01*
Y254724D01*
X281299D01*
X281285Y254230D01*
X281177D01*
Y246652D01*
X285311D01*
Y254230D01*
X285311D01*
X285325Y254724D01*
X285630D01*
Y259842D01*
X285524D01*
X285232Y260343D01*
X285433Y260829D01*
Y261612D01*
X285133Y262336D01*
X284580Y262889D01*
X283856Y263189D01*
D02*
G37*
G36*
X278738D02*
X277955D01*
X277231Y262889D01*
X276678Y262336D01*
X276378Y261612D01*
Y260829D01*
X276579Y260343D01*
X276287Y259842D01*
X276181D01*
Y254724D01*
X276181D01*
X276177Y254230D01*
X276177D01*
X276177Y254226D01*
Y246652D01*
X280311D01*
Y254230D01*
X280311D01*
X280325Y254724D01*
X280512D01*
Y259842D01*
X280406D01*
X280114Y260343D01*
X280315Y260829D01*
Y261612D01*
X280015Y262336D01*
X279462Y262889D01*
X278738Y263189D01*
D02*
G37*
G36*
X322439Y205118D02*
X321656D01*
X320932Y204818D01*
X320378Y204265D01*
X320079Y203541D01*
Y202758D01*
X320378Y202034D01*
X320932Y201481D01*
X321656Y201181D01*
X322439D01*
X322496Y201205D01*
X322760Y201029D01*
X323262Y200929D01*
X323613D01*
Y200007D01*
X331254D01*
X331381Y199982D01*
X333140D01*
X334496Y198626D01*
X334922Y198342D01*
X335424Y198242D01*
X337786D01*
X337922Y198269D01*
X339007D01*
X339521Y198371D01*
X339958Y198662D01*
X340249Y199099D01*
X340352Y199613D01*
X340249Y200128D01*
X339958Y200564D01*
X339521Y200856D01*
X339007Y200958D01*
X336684D01*
X336226Y200867D01*
X335968D01*
X334612Y202223D01*
X334186Y202507D01*
X333684Y202607D01*
X333062D01*
Y204338D01*
X323643D01*
X323162Y204818D01*
X322439Y205118D01*
D02*
G37*
G36*
X285311Y232876D02*
X281177D01*
Y225297D01*
X285311D01*
Y232876D01*
D02*
G37*
G36*
X283856Y153937D02*
X283073D01*
X282349Y153637D01*
X281796Y153084D01*
X281496Y152360D01*
Y151577D01*
X281698Y151091D01*
X281405Y150591D01*
X281299D01*
Y145472D01*
X281299D01*
X281285Y144978D01*
X281177D01*
Y137400D01*
X285311D01*
Y144978D01*
X285311D01*
X285325Y145472D01*
X285630D01*
Y150591D01*
X285524D01*
X285232Y151091D01*
X285433Y151577D01*
Y152360D01*
X285133Y153084D01*
X284580Y153637D01*
X283856Y153937D01*
D02*
G37*
G36*
X278738D02*
X277955D01*
X277231Y153637D01*
X276678Y153084D01*
X276378Y152360D01*
Y151577D01*
X276579Y151091D01*
X276287Y150591D01*
X276181D01*
Y145473D01*
X276181D01*
X276177Y144978D01*
X276177D01*
X276177Y144974D01*
Y137400D01*
X280311D01*
Y144978D01*
X280311D01*
X280325Y145473D01*
X280512D01*
Y150591D01*
X280406D01*
X280114Y151091D01*
X280315Y151577D01*
Y152360D01*
X280015Y153084D01*
X279462Y153637D01*
X278738Y153937D01*
D02*
G37*
G36*
X322439Y95669D02*
X321656D01*
X320932Y95370D01*
X320378Y94816D01*
X320079Y94092D01*
Y93309D01*
X320378Y92586D01*
X320932Y92032D01*
X321656Y91732D01*
X322422D01*
X322760Y91507D01*
X323262Y91407D01*
X323686D01*
Y90485D01*
X331327D01*
X331454Y90460D01*
X333213D01*
X334569Y89104D01*
X334995Y88820D01*
X335497Y88720D01*
X337860D01*
X337995Y88747D01*
X339080D01*
X339595Y88849D01*
X340031Y89140D01*
X340322Y89577D01*
X340425Y90091D01*
X340322Y90606D01*
X340031Y91042D01*
X339595Y91334D01*
X339080Y91436D01*
X336757D01*
X336299Y91345D01*
X336041D01*
X334685Y92701D01*
X334260Y92985D01*
X333757Y93085D01*
X333135D01*
Y94816D01*
X323716D01*
X323716Y94816D01*
X323162Y95370D01*
X322439Y95669D01*
D02*
G37*
G36*
X525550Y364035D02*
X524135D01*
X522747Y363759D01*
X521439Y363218D01*
X520262Y362431D01*
X519262Y361431D01*
X518475Y360254D01*
X517934Y358946D01*
X517658Y357558D01*
Y356143D01*
X517934Y354755D01*
X518475Y353447D01*
X519262Y352270D01*
X520262Y351269D01*
X521439Y350483D01*
X522747Y349941D01*
X524135Y349665D01*
X525550D01*
X526938Y349941D01*
X528246Y350483D01*
X529423Y351269D01*
X530423Y352270D01*
X531210Y353447D01*
X531751Y354755D01*
X532028Y356143D01*
Y357558D01*
X531751Y358946D01*
X531210Y360254D01*
X530423Y361431D01*
X529423Y362431D01*
X528246Y363218D01*
X526938Y363759D01*
X525550Y364035D01*
D02*
G37*
G36*
Y44035D02*
X524135D01*
X522747Y43759D01*
X521439Y43218D01*
X520262Y42431D01*
X519262Y41431D01*
X518475Y40254D01*
X517934Y38946D01*
X517658Y37558D01*
Y36143D01*
X517934Y34755D01*
X518475Y33447D01*
X519262Y32270D01*
X520262Y31269D01*
X521439Y30483D01*
X522747Y29941D01*
X524135Y29665D01*
X525550D01*
X526938Y29941D01*
X528246Y30483D01*
X529423Y31269D01*
X530423Y32270D01*
X531210Y33447D01*
X531751Y34755D01*
X532028Y36143D01*
Y37558D01*
X531751Y38946D01*
X531210Y40254D01*
X530423Y41431D01*
X529423Y42431D01*
X528246Y43218D01*
X526938Y43759D01*
X525550Y44035D01*
D02*
G37*
G36*
X285311Y123624D02*
X281177D01*
Y116045D01*
X285311D01*
Y123624D01*
D02*
G37*
%LPD*%
D14*
X476083Y348937D02*
X491749D01*
X492055Y348631D01*
X493360Y347056D02*
X494893Y348589D01*
X492055Y348631D02*
X492707D01*
X491403Y347056D02*
X493360D01*
X491097Y347362D02*
X491403Y347056D01*
X475431Y347362D02*
X491097D01*
X492707Y348631D02*
X493168Y349092D01*
X499324Y348589D02*
X499843Y348070D01*
X489843Y353070D02*
X493168Y349745D01*
X494893Y348589D02*
X499324D01*
X493168Y349092D02*
Y349745D01*
X480160Y327362D02*
X492207D01*
X468370D02*
X480160D01*
X491555Y328937D02*
X496555Y333937D01*
X500034D01*
X500169Y333801D01*
X501420D01*
X503976Y336358D01*
Y339783D01*
X500689Y343070D02*
X503976Y339783D01*
X489843Y343070D02*
X500689D01*
X492207Y327362D02*
X497207Y332362D01*
X499381D01*
X499843Y328070D02*
Y331901D01*
X499381Y332362D02*
X499843Y331901D01*
X491254Y338936D02*
X491462Y339144D01*
X493418D02*
X494492Y338070D01*
X493227Y336455D02*
Y337107D01*
X489843Y333070D02*
X493227Y336455D01*
X492766Y337569D02*
X493227Y337107D01*
X492114Y337569D02*
X492766D01*
X491907Y337362D02*
X492114Y337569D01*
X461851Y337362D02*
X491907D01*
X494492Y338070D02*
X499843D01*
X491462Y339144D02*
X493418D01*
X479741Y318898D02*
X491788D01*
X439505D02*
X479741D01*
X491788D02*
X492055Y318631D01*
X492707D01*
X491136Y317323D02*
X491403Y317056D01*
X493168Y319092D02*
Y319744D01*
X491403Y317056D02*
X493360D01*
X494893Y318589D01*
X492707Y318631D02*
X493168Y319092D01*
X499324Y318589D02*
X499843Y318070D01*
X494893Y318589D02*
X499324D01*
X489843Y323070D02*
X493168Y319744D01*
X491907Y293349D02*
X492055Y293201D01*
X492707D01*
X493360Y291626D02*
X494893Y293159D01*
X489843Y297640D02*
X493168Y294315D01*
Y293662D02*
Y294315D01*
X491403Y291626D02*
X493360D01*
X491254Y291774D02*
X491403Y291626D01*
X494893Y293159D02*
X499324D01*
X499843Y292640D01*
X492707Y293201D02*
X493168Y293662D01*
X469173Y273506D02*
X491555D01*
X496555Y278506D01*
X500034D01*
X500169Y278371D01*
X501420D01*
X503976Y280928D01*
Y284353D01*
X500689Y287640D02*
X503976Y284353D01*
X489843Y287640D02*
X500689D01*
X499381Y276932D02*
X499843Y276470D01*
X492207Y271932D02*
X497207Y276932D01*
X499843Y272640D02*
Y276470D01*
X497207Y276932D02*
X499381D01*
X491254Y283506D02*
X491462Y283714D01*
X492766Y282139D02*
X493227Y281678D01*
X491907Y281932D02*
X492114Y282139D01*
X462163Y281932D02*
X491907D01*
X492114Y282139D02*
X492766D01*
X493418Y283714D02*
X494492Y282640D01*
X491462Y283714D02*
X493418D01*
X489843Y277640D02*
X493227Y281025D01*
Y281678D01*
X494492Y282640D02*
X499843D01*
X467437Y261626D02*
X493360D01*
X494893Y263159D01*
X493168Y263662D02*
Y264315D01*
X499324Y263159D02*
X499843Y262640D01*
X494893Y263159D02*
X499324D01*
X489843Y267640D02*
X493168Y264315D01*
X492707Y263201D02*
X493168Y263662D01*
X468090Y263201D02*
X492707D01*
X461608Y250000D02*
X473699Y237909D01*
X491907D01*
X492055Y237761D02*
X492707D01*
X493168Y238222D02*
Y238875D01*
X489843Y242200D02*
X493168Y238875D01*
X491254Y236334D02*
X491403Y236186D01*
X493360D02*
X494893Y237719D01*
X491907Y237909D02*
X492055Y237761D01*
X499324Y237719D02*
X499843Y237200D01*
X494893Y237719D02*
X499324D01*
X473046Y236334D02*
X491254D01*
X492707Y237761D02*
X493168Y238222D01*
X491403Y236186D02*
X493360D01*
X480160Y216492D02*
X492207D01*
X458705D02*
X480160D01*
X491555Y218067D02*
X496555Y223066D01*
X500034D01*
X500169Y222931D01*
X501420D01*
X503976Y225488D01*
Y228913D01*
X500689Y232200D02*
X503976Y228913D01*
X489843Y232200D02*
X500689D01*
X492207Y216492D02*
X497207Y221492D01*
X499381D01*
X499843Y221030D01*
Y217200D02*
Y221030D01*
X491254Y228066D02*
X491462Y228274D01*
X493227Y225585D02*
Y226238D01*
X492766Y226699D02*
X493227Y226238D01*
X492114Y226699D02*
X492766D01*
X491907Y226492D02*
X492114Y226699D01*
X462485Y226492D02*
X491907D01*
X493418Y228274D02*
X494492Y227200D01*
X499843D01*
X489843Y222200D02*
X493227Y225585D01*
X491462Y228274D02*
X493418D01*
X467588Y206186D02*
X493360D01*
X494893Y207719D02*
X499324D01*
X493168Y208222D02*
Y208875D01*
X492707Y207761D02*
X493168Y208222D01*
X468240Y207761D02*
X492707D01*
X499324Y207719D02*
X499843Y207200D01*
X493360Y206186D02*
X494893Y207719D01*
X489843Y212200D02*
X493168Y208875D01*
X491749Y182636D02*
X492055Y182331D01*
X473735Y182636D02*
X491749D01*
X494893Y182289D02*
X499324D01*
X492055Y182331D02*
X492707D01*
X491097Y181062D02*
X491403Y180756D01*
X473082Y181062D02*
X491097D01*
X489843Y186770D02*
X493168Y183444D01*
X493360Y180756D02*
X494893Y182289D01*
X491403Y180756D02*
X493360D01*
X493168Y182792D02*
Y183444D01*
X492707Y182331D02*
X493168Y182792D01*
X499324Y182289D02*
X499843Y181770D01*
X491555Y162636D02*
X496555Y167637D01*
X500034D01*
X500169Y167501D01*
X501420D01*
X503976Y170058D01*
Y173483D01*
X500689Y176770D02*
X503976Y173483D01*
X489843Y176770D02*
X500689D01*
X499381Y166062D02*
X499843Y165601D01*
X492207Y161062D02*
X497207Y166062D01*
X499843Y161770D02*
Y165601D01*
X497207Y166062D02*
X499381D01*
X479859Y171062D02*
X491907D01*
X462796D02*
X479859D01*
X491254Y172636D02*
X491462Y172844D01*
X493227Y170155D02*
Y170808D01*
X492114Y171269D02*
X492766D01*
X493418Y172844D02*
X494492Y171770D01*
X489843Y166770D02*
X493227Y170155D01*
X492766Y171269D02*
X493227Y170808D01*
X491907Y171062D02*
X492114Y171269D01*
X494492Y171770D02*
X499843D01*
X491462Y172844D02*
X493418D01*
X467798Y150756D02*
X493360D01*
X494893Y152289D02*
X499324D01*
X489843Y156770D02*
X493168Y153445D01*
Y152792D02*
Y153445D01*
X492707Y152331D02*
X493168Y152792D01*
X499324Y152289D02*
X499843Y151770D01*
X493360Y150756D02*
X494893Y152289D01*
X468450Y152331D02*
X492707D01*
X473961Y127207D02*
X491749D01*
X492055Y126901D01*
X492707D01*
X493360Y125326D02*
X494893Y126859D01*
X491403Y125326D02*
X493360D01*
X493168Y127362D02*
Y128015D01*
X492707Y126901D02*
X493168Y127362D01*
X499324Y126859D02*
X499843Y126340D01*
X494893Y126859D02*
X499324D01*
X491097Y125632D02*
X491403Y125326D01*
X489843Y131340D02*
X493168Y128015D01*
X491555Y107206D02*
X496555Y112206D01*
X500034D01*
X500169Y112071D01*
X501420D01*
X503976Y114628D01*
Y118053D01*
X500689Y121340D02*
X503976Y118053D01*
X489843Y121340D02*
X500689D01*
X492207Y105632D02*
X497207Y110632D01*
X499381D01*
X499843Y110170D01*
Y106340D02*
Y110170D01*
X491254Y117207D02*
X491462Y117414D01*
X493227Y114725D02*
Y115377D01*
X492766Y115839D02*
X493227Y115377D01*
X492114Y115839D02*
X492766D01*
X491907Y115632D02*
X492114Y115839D01*
X470224Y115632D02*
X491907D01*
X494492Y116340D02*
X499843D01*
X493418Y117414D02*
X494492Y116340D01*
X489843Y111340D02*
X493227Y114725D01*
X491462Y117414D02*
X493418D01*
X468028Y95326D02*
X493360D01*
X494893Y96859D02*
X499324D01*
X493360Y95326D02*
X494893Y96859D01*
X489843Y101340D02*
X493168Y98014D01*
Y97362D02*
Y98014D01*
X499324Y96859D02*
X499843Y96340D01*
X492707Y96901D02*
X493168Y97362D01*
X468681Y96901D02*
X492707D01*
X462493Y83139D02*
X475431Y70202D01*
X491749Y71776D02*
X492055Y71471D01*
X492707D01*
X493168Y71932D01*
X493360Y69896D02*
X494893Y71429D01*
X491403Y69896D02*
X493360D01*
X489843Y75910D02*
X493168Y72584D01*
X499324Y71429D02*
X499843Y70910D01*
X494893Y71429D02*
X499324D01*
X491097Y70202D02*
X491403Y69896D01*
X475431Y70202D02*
X491097D01*
X493168Y71932D02*
Y72584D01*
X476083Y71776D02*
X491749D01*
X500169Y56641D02*
X501420D01*
X503976Y59198D01*
Y62623D01*
X491555Y51776D02*
X496555Y56776D01*
X500689Y65910D02*
X503976Y62623D01*
X496555Y56776D02*
X500034D01*
X489843Y65910D02*
X500689D01*
X500034Y56776D02*
X500169Y56641D01*
X492207Y50202D02*
X497207Y55202D01*
X499381D01*
X499843Y50910D02*
Y54741D01*
X499381Y55202D02*
X499843Y54741D01*
X487467Y61608D02*
X487478Y61619D01*
X491097D01*
X491462Y61984D01*
X493418D02*
X494492Y60910D01*
X499843D01*
X478234Y59883D02*
X478384Y60033D01*
X488119D01*
X488130Y60044D01*
X463739Y59883D02*
X478234D01*
X478974Y61608D02*
X487467D01*
X493227Y59295D02*
Y59948D01*
X478912Y61670D02*
X478974Y61608D01*
X491749Y60044D02*
X492114Y60409D01*
X488130Y60044D02*
X491749D01*
X489843Y55910D02*
X493227Y59295D01*
X491462Y61984D02*
X493418D01*
X492766Y60409D02*
X493227Y59948D01*
X492114Y60409D02*
X492766D01*
X481486Y39173D02*
X482426D01*
X468554D02*
X481486D01*
X482426Y40961D02*
X482533Y40854D01*
X494893Y41429D02*
X499324D01*
X482533Y39279D02*
X492743D01*
X482533Y40854D02*
X492091D01*
X493168Y41932D02*
Y42584D01*
X499324Y41429D02*
X499843Y40910D01*
X492743Y39279D02*
X494893Y41429D01*
X482426Y39173D02*
X482533Y39279D01*
X489843Y45910D02*
X493168Y42584D01*
X492091Y40854D02*
X493168Y41932D01*
X436016Y120268D02*
X440158Y124409D01*
X461446D02*
X470224Y115632D01*
X440158Y124409D02*
X461446D01*
X460752Y138189D02*
X473309Y125632D01*
X436016Y134047D02*
X440158Y138189D01*
X460752D01*
X440158Y151969D02*
X466585D01*
X436016Y147827D02*
X440158Y151969D01*
X466585D02*
X467798Y150756D01*
X439505Y153543D02*
X467237D01*
X468450Y152331D01*
X438718Y152756D02*
X439505Y153543D01*
X434547Y152756D02*
X438718D01*
X440158Y207087D02*
X466687D01*
X436016Y202945D02*
X440158Y207087D01*
X466687D02*
X467588Y206186D01*
X467340Y208661D02*
X468240Y207761D01*
X439205Y208661D02*
X467340D01*
X438417Y207874D02*
X439205Y208661D01*
X439505Y277559D02*
X465121D01*
X436016Y271843D02*
X440158Y275984D01*
X464468D01*
X465121Y277559D02*
X469173Y273506D01*
X438681Y276735D02*
X439505Y277559D01*
X464468Y275984D02*
X468521Y271932D01*
X434547Y276772D02*
X434584Y276735D01*
X438681D01*
X440158Y331102D02*
X464629D01*
X468370Y327362D01*
X465281Y332677D02*
X469022Y328937D01*
X439205Y332677D02*
X465281D01*
X469022Y328937D02*
X491555D01*
X454983Y346457D02*
X462503Y338936D01*
X454331Y344882D02*
X461851Y337362D01*
X462503Y338936D02*
X491254D01*
X440158Y344882D02*
X454331D01*
X464783Y360236D02*
X476083Y348937D01*
X464131Y358661D02*
X475431Y347362D01*
X440158Y358661D02*
X464131D01*
X468521Y271932D02*
X492207D01*
X454983Y291339D02*
X462815Y283506D01*
X491254D01*
X454331Y289764D02*
X462163Y281932D01*
X466752Y293349D02*
X491907D01*
X454983Y305118D02*
X466752Y293349D01*
X454331Y303543D02*
X466100Y291774D01*
X491254D01*
X440158Y262205D02*
X466859D01*
X467511Y263779D02*
X468090Y263201D01*
X466859Y262205D02*
X467437Y261626D01*
X439505Y263779D02*
X467511D01*
X454983Y222441D02*
X459357Y218067D01*
X491555D01*
X454331Y220866D02*
X458705Y216492D01*
X454983Y236221D02*
X463137Y228066D01*
X491254D01*
X440158Y234646D02*
X454331D01*
X462485Y226492D01*
X460955Y248425D02*
X473046Y236334D01*
X440158Y248425D02*
X460955D01*
X455175Y167323D02*
X459861Y162636D01*
X459209Y161062D02*
X492207D01*
X459861Y162636D02*
X491555D01*
X440158Y165748D02*
X454522D01*
X459209Y161062D01*
X463449Y172636D02*
X491254D01*
X454331Y179527D02*
X462796Y171062D01*
X440158Y179527D02*
X454331D01*
X454983Y181102D02*
X463449Y172636D01*
X461489Y194882D02*
X473735Y182636D01*
X460837Y193307D02*
X473082Y181062D01*
X440158Y193307D02*
X460837D01*
X439205Y181102D02*
X454983D01*
X439505Y167323D02*
X455175D01*
X461404Y139764D02*
X473961Y127207D01*
X473309Y125632D02*
X491097D01*
X460117Y107206D02*
X491555D01*
X455119Y112205D02*
X460117Y107206D01*
X454467Y110630D02*
X459465Y105632D01*
X440158Y110630D02*
X454467D01*
X459465Y105632D02*
X492207D01*
X462098Y125984D02*
X470876Y117207D01*
X491254D01*
X438718Y359449D02*
X439505Y360236D01*
X464783D01*
X434547Y359449D02*
X438718D01*
X438417Y345669D02*
X439205Y346457D01*
X454983D01*
X438417Y331890D02*
X439205Y332677D01*
X438718Y318110D02*
X439505Y318898D01*
X434547Y318110D02*
X438718D01*
X438417Y304331D02*
X439205Y305118D01*
X454983D01*
X438718Y290551D02*
X439505Y291339D01*
X434547Y290551D02*
X438718D01*
X439505Y291339D02*
X454983D01*
X434547Y262992D02*
X438718D01*
X439505Y263779D01*
Y250000D02*
X461608D01*
X438718Y249213D02*
X439505Y250000D01*
X434547Y249213D02*
X438718D01*
X439205Y236221D02*
X454983D01*
X438417Y235433D02*
X439205Y236221D01*
X439205Y222441D02*
X454983D01*
X438417Y221654D02*
X439205Y222441D01*
X438718Y194095D02*
X439505Y194882D01*
X434547Y194095D02*
X438718D01*
X439505Y194882D02*
X461489D01*
X438417Y180315D02*
X439205Y181102D01*
X434547Y166535D02*
X438718D01*
X439505Y167323D01*
X439205Y139764D02*
X461404D01*
X438417Y138976D02*
X439205Y139764D01*
X438417Y125197D02*
X439205Y125984D01*
X462098D01*
X438417Y111417D02*
X439205Y112205D01*
X455119D01*
X440264Y96957D02*
X466398D01*
X436016Y92709D02*
X440264Y96957D01*
X439311Y98532D02*
X467050D01*
X438417Y97638D02*
X439311Y98532D01*
X436016Y78929D02*
X440226Y83139D01*
X462493D01*
X438718Y83858D02*
X439574Y84714D01*
X434547Y83858D02*
X438718D01*
X439574Y84714D02*
X463145D01*
X476083Y71776D01*
X436016Y65150D02*
X440370Y69504D01*
X454118D02*
X463739Y59883D01*
X440370Y69504D02*
X454118D01*
X436016Y51370D02*
X440370Y55724D01*
X454316D02*
X459838Y50202D01*
X440370Y55724D02*
X454316D01*
X436016Y37591D02*
X440370Y41945D01*
X465782D01*
X468554Y39173D01*
X467050Y98532D02*
X468681Y96901D01*
X466398Y96957D02*
X468028Y95326D01*
X460490Y51776D02*
X491555D01*
X459838Y50202D02*
X492207D01*
X454968Y57299D02*
X460490Y51776D01*
X439417Y71079D02*
X455071D01*
X464480Y61670D02*
X478912D01*
X455071Y71079D02*
X464480Y61670D01*
X466735Y43520D02*
X469294Y40961D01*
X439417Y43520D02*
X466735D01*
X469294Y40961D02*
X482426D01*
X436016Y352157D02*
Y354520D01*
X435433Y351575D02*
X436016Y352157D01*
X434547Y351575D02*
X435433D01*
X436016Y354520D02*
X440158Y358661D01*
X436016Y338378D02*
Y340740D01*
X435433Y337795D02*
X436016Y338378D01*
X434547Y337795D02*
X435433D01*
X434547Y345669D02*
X438417D01*
X436016Y340740D02*
X440158Y344882D01*
X436016Y324598D02*
Y326961D01*
X435433Y324016D02*
X436016Y324598D01*
X434547Y324016D02*
X435433D01*
X434547Y331890D02*
X438417D01*
X436016Y326961D02*
X440158Y331102D01*
X436016Y310819D02*
Y313181D01*
X435433Y310236D02*
X436016Y310819D01*
X434547Y310236D02*
X435433D01*
X436016Y313181D02*
X440158Y317323D01*
X491136D01*
X436016Y297039D02*
Y299402D01*
X435433Y296457D02*
X436016Y297039D01*
X434547Y296457D02*
X435433D01*
X434547Y304331D02*
X438417D01*
X436016Y299402D02*
X440158Y303543D01*
X454331D01*
X436016Y283260D02*
Y285622D01*
X435433Y282677D02*
X436016Y283260D01*
X434547Y282677D02*
X435433D01*
X436016Y285622D02*
X440158Y289764D01*
X454331D01*
X436016Y269480D02*
Y271843D01*
X435433Y268898D02*
X436016Y269480D01*
X434547Y268898D02*
X435433D01*
X436016Y255701D02*
Y258063D01*
X435433Y255118D02*
X436016Y255701D01*
X434547Y255118D02*
X435433D01*
X436016Y258063D02*
X440158Y262205D01*
X436016Y241921D02*
Y244284D01*
X435433Y241339D02*
X436016Y241921D01*
X434547Y241339D02*
X435433D01*
X436016Y244284D02*
X440158Y248425D01*
X436016Y228142D02*
Y230504D01*
X435433Y227559D02*
X436016Y228142D01*
X434547Y227559D02*
X435433D01*
X434547Y235433D02*
X438417D01*
X436016Y230504D02*
X440158Y234646D01*
X436016Y214362D02*
Y216724D01*
X435433Y213779D02*
X436016Y214362D01*
X434547Y213779D02*
X435433D01*
X434547Y221654D02*
X438417D01*
X436016Y216724D02*
X440158Y220866D01*
X454331D01*
X436016Y200583D02*
Y202945D01*
X435433Y200000D02*
X436016Y200583D01*
X434547Y200000D02*
X435433D01*
X434547Y207874D02*
X438417D01*
X436016Y186803D02*
Y189165D01*
X435433Y186221D02*
X436016Y186803D01*
X434547Y186221D02*
X435433D01*
X436016Y189165D02*
X440158Y193307D01*
X436016Y173024D02*
Y175386D01*
X435433Y172441D02*
X436016Y173024D01*
X434547Y172441D02*
X435433D01*
X434547Y180315D02*
X438417D01*
X436016Y175386D02*
X440158Y179527D01*
X436016Y159244D02*
Y161606D01*
X435433Y158661D02*
X436016Y159244D01*
X434547Y158661D02*
X435433D01*
X436016Y161606D02*
X440158Y165748D01*
X436016Y145465D02*
Y147827D01*
X435433Y144882D02*
X436016Y145465D01*
X434547Y144882D02*
X435433D01*
X436016Y131685D02*
Y134047D01*
X435433Y131102D02*
X436016Y131685D01*
X434547Y131102D02*
X435433D01*
X434547Y138976D02*
X438417D01*
X436016Y117905D02*
Y120268D01*
X435433Y117323D02*
X436016Y117905D01*
X434547Y117323D02*
X435433D01*
X434547Y125197D02*
X438417D01*
X436016Y104126D02*
Y106488D01*
X435433Y103543D02*
X436016Y104126D01*
X434547Y103543D02*
X435433D01*
X434547Y111417D02*
X438417D01*
X436016Y106488D02*
X440158Y110630D01*
X436016Y90346D02*
Y92709D01*
X435433Y89764D02*
X436016Y90346D01*
X434547Y89764D02*
X435433D01*
X434547Y97638D02*
X438417D01*
X436016Y76567D02*
Y78929D01*
X435433Y75984D02*
X436016Y76567D01*
X434547Y75984D02*
X435433D01*
X436016Y62787D02*
Y65150D01*
X435433Y62205D02*
X436016Y62787D01*
X434547Y62205D02*
X435433D01*
X434547Y70079D02*
X438417D01*
X439417Y71079D01*
X436016Y49008D02*
Y51370D01*
X435433Y48425D02*
X436016Y49008D01*
X434547Y48425D02*
X435433D01*
X434547Y56299D02*
X438417D01*
X439417Y57299D01*
X454968D01*
X438417Y42520D02*
X439417Y43520D01*
X434547Y42520D02*
X438417D01*
X434547Y34646D02*
X435433D01*
X436016Y35228D01*
Y37591D01*
X346850Y322047D02*
X346850Y322047D01*
X346480Y104306D02*
X346480Y104306D01*
Y94857D02*
Y104306D01*
X346462Y213572D02*
X346462Y213572D01*
Y204123D02*
Y213572D01*
X412008Y132480D02*
X412205Y132677D01*
X406693Y132480D02*
X412008D01*
X406693Y137598D02*
X412008D01*
X412598Y138189D01*
X400394Y131890D02*
X405512D01*
X405905Y132283D01*
X400394Y138189D02*
X406299D01*
X406299Y138189D01*
X392744Y135827D02*
X398302D01*
X398302Y135827D01*
X398954D02*
X399415Y136288D01*
Y136358D01*
X393397Y134252D02*
X397649D01*
X397649Y134252D01*
X400394Y137337D02*
Y138189D01*
X399415Y136358D02*
X400394Y137337D01*
Y131890D02*
Y132742D01*
X399415Y133721D02*
X400394Y132742D01*
X398302Y135827D02*
X398954D01*
X399415Y133721D02*
Y133791D01*
X398954Y134252D02*
X399415Y133791D01*
X397649Y134252D02*
X398954D01*
X361221Y105118D02*
X362036D01*
X360236Y106102D02*
X361221Y105118D01*
X362688Y103543D02*
X393397Y134252D01*
X361221Y103543D02*
X362688D01*
X360236Y102559D02*
X361221Y103543D01*
X362036Y105118D02*
X392744Y135827D01*
X412008Y242717D02*
X412205Y242913D01*
X406693Y242717D02*
X412008D01*
X407283Y248425D02*
X412992D01*
X406693Y247835D02*
X407283Y248425D01*
X405512Y242126D02*
X405905Y242520D01*
X400394Y242126D02*
X405512D01*
X400394Y248425D02*
X406299D01*
X406693Y248031D01*
X393138Y245669D02*
X396850D01*
X398031Y244488D02*
X398684D01*
X393791Y244094D02*
X397638D01*
X398031Y244488D01*
X398684Y246063D02*
X400394Y247773D01*
X396850Y245669D02*
X397244Y246063D01*
X400394Y242126D02*
Y242778D01*
X398684Y244488D02*
X400394Y242778D01*
Y247773D02*
Y248425D01*
X397244Y246063D02*
X398684D01*
X362295Y212598D02*
X393791Y244094D01*
X359842Y211614D02*
X360827Y212598D01*
X361642Y214173D02*
X393138Y245669D01*
X360827Y214173D02*
X361642D01*
X360827Y212598D02*
X362295D01*
X359842Y215158D02*
X360827Y214173D01*
X353543Y209842D02*
Y213386D01*
X348425Y204331D02*
Y207877D01*
X350394Y209845D01*
X350295Y221071D02*
X350394Y220972D01*
Y209845D02*
Y220972D01*
X348425Y94882D02*
Y98428D01*
X350394Y100397D01*
X350295Y106788D02*
Y111547D01*
X350394Y100397D02*
Y106690D01*
X350295Y106788D02*
X350394Y106690D01*
X340498Y94935D02*
X340551Y94882D01*
X338067Y97502D02*
X338137Y97572D01*
X339386D01*
X340498Y96459D01*
Y94935D02*
Y96459D01*
X340429Y100143D02*
X340499Y100073D01*
Y98685D02*
Y100073D01*
X342467Y94935D02*
X342520Y94882D01*
X340499Y98685D02*
X342467Y96717D01*
Y94935D02*
Y96717D01*
X346457Y104331D02*
X346457Y104331D01*
X350394Y97244D02*
X353543Y100394D01*
X350394Y94882D02*
Y97244D01*
X344488Y94882D02*
Y98819D01*
X342913Y100394D02*
X344488Y98819D01*
X353543Y100394D02*
Y103937D01*
X346457Y94882D02*
Y104331D01*
X342913Y100394D02*
Y101575D01*
X336221Y103150D02*
X341339D01*
X342913Y101575D01*
X340498Y204383D02*
X340551Y204331D01*
X338067Y206951D02*
X338137Y207021D01*
X339386D01*
X340498Y205908D01*
Y204383D02*
Y205908D01*
X340429Y209592D02*
X340499Y209522D01*
Y208134D02*
Y209522D01*
X342467Y204383D02*
X342520Y204331D01*
X340499Y208134D02*
X342467Y206166D01*
Y204383D02*
Y206166D01*
X346457Y213779D02*
X346457Y213779D01*
X350394Y206693D02*
X353543Y209842D01*
X350394Y204331D02*
Y206693D01*
X344488Y204331D02*
Y208268D01*
X342913Y209842D02*
X344488Y208268D01*
X346457Y204331D02*
Y213779D01*
X342913Y209842D02*
Y211024D01*
X336221Y212598D02*
X341339D01*
X342913Y211024D01*
X406693Y352953D02*
X412008D01*
X412205Y352756D01*
X406693Y358071D02*
X412008D01*
X412598Y358661D01*
X406299Y352362D02*
X406693Y352756D01*
X400394Y352362D02*
X406299D01*
X406299Y358661D02*
X406693Y358268D01*
X400394Y358661D02*
X406299D01*
X399415Y356831D02*
X400394Y357809D01*
X365686Y323031D02*
X399415Y356760D01*
X363976Y323031D02*
X365686D01*
X366339Y321457D02*
X397705Y352823D01*
X399932D01*
X363976Y321457D02*
X366339D01*
X399415Y356760D02*
Y356831D01*
X399932Y352823D02*
X400394Y352362D01*
Y357809D02*
Y358661D01*
X341732Y320866D02*
X343307Y319291D01*
X336614Y320866D02*
X341732D01*
X343307Y318110D02*
Y319291D01*
X346850Y312598D02*
Y322047D01*
X350394Y318110D02*
Y329134D01*
X353937Y318110D02*
Y321654D01*
X343307Y318110D02*
X344882Y316535D01*
Y312598D02*
Y316535D01*
X348819Y312598D02*
Y316535D01*
X350394Y318110D01*
X350787Y312598D02*
Y314961D01*
X353937Y318110D01*
X362992Y320472D02*
X363976Y321457D01*
X362992Y324016D02*
X363976Y323031D01*
X342861Y312651D02*
Y314434D01*
X340893Y316402D02*
X342861Y314434D01*
Y312651D02*
X342913Y312598D01*
X340893Y316402D02*
Y317790D01*
X340823Y317860D02*
X340893Y317790D01*
X340892Y312651D02*
Y314175D01*
X339779Y315288D02*
X340892Y314175D01*
X338531Y315288D02*
X339779D01*
X338461Y315218D02*
X338531Y315288D01*
X340892Y312651D02*
X340945Y312598D01*
D15*
X11024Y285039D02*
X11970Y284093D01*
X13545D01*
X19421Y278217D01*
X21931D02*
X21973Y278174D01*
X19421Y278217D02*
X21931D01*
X16535Y223228D02*
X19685Y220079D01*
X33858D01*
X8661Y223228D02*
X16535D01*
X1181Y236221D02*
X4724Y232677D01*
X17717D02*
X23772Y238732D01*
X4724Y232677D02*
X17717D01*
X23772Y238732D02*
X174559D01*
X227709Y291882D01*
X40157Y235827D02*
X41276Y236945D01*
X175299Y236945D01*
X-49606Y207874D02*
X-13386D01*
X-7087Y201575D01*
X42913D01*
X50724Y209386D02*
X53150D01*
X42913Y201575D02*
X50724Y209386D01*
X39691Y222305D02*
X40551Y223165D01*
X39691Y222120D02*
Y222305D01*
X-5118Y204331D02*
X39370D01*
X-11811Y211024D02*
X-5118Y204331D01*
X-49000Y211024D02*
X-11811D01*
X10433Y210630D02*
X10630D01*
X5906D02*
X10433D01*
X110236Y216535D02*
X247638Y79134D01*
X16535Y216535D02*
X110236D01*
X18126Y214748D02*
X109496D01*
X201289Y122955D02*
X246898Y77346D01*
X17551Y214173D02*
X18126Y214748D01*
X109496D02*
X201289Y122955D01*
X108755Y212961D02*
X246157Y75559D01*
X18866Y212961D02*
X108755D01*
X17906Y212000D02*
X18866Y212961D01*
X22197Y211173D02*
X108015D01*
X18110Y207087D02*
X22197Y211173D01*
X108015D02*
X245566Y73622D01*
X-4331Y207087D02*
X18110D01*
X-49000Y217323D02*
X-14567D01*
X-4331Y207087D01*
Y214173D02*
Y214567D01*
X-5307Y215543D02*
X-4331Y214567D01*
X-10630Y220472D02*
X-5701Y215543D01*
X-5307D01*
X-48031Y220472D02*
X-10630D01*
X5906Y217717D02*
X10236D01*
X38732Y224953D02*
X169039D01*
X33858Y220079D02*
X38732Y224953D01*
X-49000Y226772D02*
X5118D01*
X8661Y223228D01*
X10630Y227559D02*
Y227953D01*
X8268Y229921D02*
X9260Y228929D01*
X-46850Y229921D02*
X8268D01*
X9653Y228929D02*
X10630Y227953D01*
X9260Y228929D02*
X9653D01*
X21260Y223228D02*
X24803D01*
X21654Y230709D02*
X25787D01*
X25787Y230709D01*
X1181Y214173D02*
X17551D01*
X16724Y212000D02*
X17906D01*
X15748Y211024D02*
X16724Y212000D01*
X15354Y217717D02*
X16535Y216535D01*
X15748Y227559D02*
X16142Y227165D01*
X33299D01*
X34661Y228528D02*
X170519D01*
X33299Y227165D02*
X34661Y228528D01*
X35402Y226740D02*
X169779D01*
X32049Y224765D02*
X33427D01*
X30906Y223622D02*
X32049Y224765D01*
X33427D02*
X35402Y226740D01*
X30709Y230315D02*
X171260D01*
X-49000Y236221D02*
X1181D01*
X394Y240158D02*
X17765D01*
X5906Y236614D02*
X10630D01*
X10630Y236614D01*
X5906Y243701D02*
X10630D01*
X17118Y237984D02*
X18693D01*
X21228Y240520D02*
X173819D01*
X18693Y237984D02*
X21228Y240520D01*
X15748Y236614D02*
Y236614D01*
X17118Y237984D01*
X19915Y242307D02*
X173078D01*
X17765Y240158D02*
X19915Y242307D01*
X15748Y243307D02*
X16535Y244094D01*
X172338D01*
X53150Y209386D02*
X107275Y209386D01*
X244826Y71835D01*
X314386D01*
X320669Y65551D01*
Y65354D02*
Y65551D01*
X40945Y223165D02*
X168298D01*
X176834Y214630D01*
Y214630D02*
X209787Y181677D01*
X313402D01*
X176834Y214630D02*
Y214630D01*
X318905Y176173D02*
X319102D01*
X320276Y174803D02*
Y175000D01*
X319102Y176173D02*
X320276Y175000D01*
X313402Y181677D02*
X318905Y176173D01*
X318110Y183465D02*
X320472Y181102D01*
Y71653D02*
Y72047D01*
X175299Y236945D02*
X228449Y290094D01*
X314039D01*
X319496Y284835D02*
X320669Y283661D01*
Y283465D02*
Y283661D01*
X319299Y284835D02*
X319496D01*
X314039Y290094D02*
X319299Y284835D01*
X318354Y291882D02*
X320866Y289370D01*
X-5906Y239370D02*
X-4724Y240551D01*
X225487Y297244D02*
X332470Y297244D01*
X172338Y244094D02*
X225487Y297244D01*
X318898Y73622D02*
X320472Y72047D01*
X245566Y73622D02*
X318898D01*
X210527Y183465D02*
X318110D01*
X210527D02*
X210527D01*
X326961Y63197D02*
Y64378D01*
X325984Y65354D02*
X326961Y64378D01*
Y63197D02*
X332890Y57268D01*
X343654D01*
X346521Y60135D01*
Y75583D01*
X325984Y71260D02*
Y71653D01*
Y71260D02*
X329134Y68110D01*
Y63779D02*
Y68110D01*
Y63779D02*
X333858Y59055D01*
X342913D01*
X344552Y60694D01*
X325197Y174803D02*
X326567Y173433D01*
Y172874D02*
X332905Y166535D01*
X325197Y174803D02*
X325197D01*
X326567Y172874D02*
Y173433D01*
X332905Y166535D02*
X344094D01*
X346448Y168889D01*
Y185106D01*
X325197Y180709D02*
X325591D01*
X328740Y177559D01*
Y173228D02*
Y177559D01*
Y173228D02*
X333465Y168504D01*
X343307D01*
X344479Y169676D01*
X331315Y274984D02*
X344669D01*
X346850Y277165D01*
X325984Y289370D02*
X329528Y285827D01*
X325984Y289370D02*
X325984D01*
X329528Y279921D02*
Y285827D01*
Y279921D02*
X332677Y276772D01*
X343701D01*
X327740Y278559D02*
X331315Y274984D01*
X327740Y278559D02*
Y281509D01*
X325984Y283071D02*
Y283465D01*
Y283071D02*
X326961Y282095D01*
X327154D01*
X327740Y281509D01*
X346850Y277165D02*
Y293425D01*
X344882Y277953D02*
Y293425D01*
X343701Y276772D02*
X344882Y277953D01*
X169039Y224953D02*
X210527Y183465D01*
X344479Y169676D02*
Y185106D01*
X344552Y60694D02*
Y75583D01*
X341469Y61942D02*
Y65355D01*
X341600Y65485D01*
X341339Y61811D02*
X341469Y61942D01*
X341403Y70013D02*
X342584Y71194D01*
X341600Y65881D02*
X341732Y65748D01*
X341600Y65881D02*
Y69816D01*
X341527Y175009D02*
X341732Y174803D01*
X341432Y171354D02*
Y174913D01*
X341527Y175007D01*
X341339Y171260D02*
X341432Y171354D01*
X341330Y179535D02*
X342511Y180716D01*
X341527Y175009D02*
Y179338D01*
X342028Y279626D02*
Y283228D01*
Y279626D02*
X342126Y279528D01*
X341929Y283327D02*
X342028Y283228D01*
X341732Y287854D02*
X342913Y289035D01*
X341929Y283327D02*
Y287657D01*
Y283268D02*
Y283327D01*
X341732Y283071D02*
X341929Y283268D01*
X53908Y196880D02*
X53937Y196850D01*
X44626Y196909D02*
X44655Y196880D01*
X53908D01*
X28346Y191732D02*
Y196653D01*
X28602Y196909D01*
X19754Y196919D02*
X28534D01*
X430118Y359449D02*
X434547D01*
X429331Y358661D02*
X430118Y359449D01*
X430118Y351575D02*
X434547D01*
X429331Y352362D02*
X430118Y351575D01*
X429331Y344882D02*
X430118Y345669D01*
X434547D01*
X429331Y338583D02*
X430118Y337795D01*
X434547D01*
X430118Y331890D02*
X434547D01*
X429331Y331102D02*
X430118Y331890D01*
X430118Y324016D02*
X434547D01*
X429331Y324803D02*
X430118Y324016D01*
X430118Y318110D02*
X434547D01*
X429331Y317323D02*
X430118Y318110D01*
X430118Y310236D02*
X434547D01*
X429331Y311024D02*
X430118Y310236D01*
X430118Y304331D02*
X434547D01*
X429331Y303543D02*
X430118Y304331D01*
X429331Y297244D02*
X430118Y296457D01*
X434547D01*
X430118Y290551D02*
X434547D01*
X429331Y289764D02*
X430118Y290551D01*
X430118Y282677D02*
X434547D01*
X429331Y283465D02*
X430118Y282677D01*
X430118Y276772D02*
X434547D01*
X429331Y275984D02*
X430118Y276772D01*
X429331Y269685D02*
X430118Y268898D01*
X434547D01*
X429331Y262205D02*
X430118Y262992D01*
X434547D01*
X429331Y255906D02*
X430118Y255118D01*
X434547D01*
X429331Y248425D02*
X430118Y249213D01*
X434547D01*
X430118Y241339D02*
X434547D01*
X429331Y242126D02*
X430118Y241339D01*
X430118Y235433D02*
X434547D01*
X429331Y234646D02*
X430118Y235433D01*
X430118Y227559D02*
X434547D01*
X429331Y228346D02*
X430118Y227559D01*
X430118Y221654D02*
X434547D01*
X429331Y220866D02*
X430118Y221654D01*
X430118Y213779D02*
X434547D01*
X429331Y214567D02*
X430118Y213779D01*
X430118Y207874D02*
X434547D01*
X429331Y207087D02*
X430118Y207874D01*
X430118Y200000D02*
X434547D01*
X429331Y200787D02*
X430118Y200000D01*
X429331Y193307D02*
X430118Y194095D01*
X434547D01*
X430118Y186221D02*
X434547D01*
X429331Y187008D02*
X430118Y186221D01*
X429331Y179527D02*
X430118Y180315D01*
X434547D01*
X429331Y173228D02*
X430118Y172441D01*
X434547D01*
X430118Y166535D02*
X434547D01*
X429331Y165748D02*
X430118Y166535D01*
X429331Y159449D02*
X430118Y158661D01*
X434547D01*
X430118Y152756D02*
X434547D01*
X429331Y151969D02*
X430118Y152756D01*
X430118Y144882D02*
X434547D01*
X429331Y145669D02*
X430118Y144882D01*
X429331Y138189D02*
X430118Y138976D01*
X434547D01*
X429331Y131890D02*
X430118Y131102D01*
X434547D01*
X429331Y124409D02*
X430118Y125197D01*
X434547D01*
X430118Y117323D02*
X434547D01*
X429331Y118110D02*
X430118Y117323D01*
X430118Y111417D02*
X434547D01*
X429331Y110630D02*
X430118Y111417D01*
X430118Y103543D02*
X434547D01*
X429331Y104331D02*
X430118Y103543D01*
X429331Y96850D02*
X430118Y97638D01*
X434547D01*
X430118Y89764D02*
X434547D01*
X429331Y90551D02*
X430118Y89764D01*
X429331Y83071D02*
X430118Y83858D01*
X434547D01*
X429331Y76772D02*
X430118Y75984D01*
X434547D01*
X430118Y70079D02*
X434547D01*
X429331Y69291D02*
X430118Y70079D01*
X430118Y62205D02*
X434547D01*
X429331Y62992D02*
X430118Y62205D01*
X429331Y55512D02*
X430118Y56299D01*
X434547D01*
X430118Y48425D02*
X434547D01*
X429331Y49213D02*
X430118Y48425D01*
X429331Y35433D02*
X430118Y34646D01*
X434547D01*
X430118Y42520D02*
X434547D01*
X429331Y41732D02*
X430118Y42520D01*
X-50000Y217323D02*
X-49000D01*
X-48425Y239370D02*
X-5906D01*
X-50000Y226772D02*
X-49000D01*
X170519Y228528D02*
X211858Y187189D01*
X169779Y226740D02*
X211118Y185402D01*
X171260Y230315D02*
X212598Y188976D01*
X211118Y185402D02*
X334283Y185402D01*
X336684Y187802D01*
X211858Y187189D02*
X332860Y187189D01*
X335430Y189759D01*
X246157Y75559D02*
X334036Y75559D01*
X336757Y78280D02*
X337919D01*
X334036Y75559D02*
X336757Y78280D01*
X246898Y77346D02*
X332613Y77346D01*
X335503Y80237D01*
X337907D01*
X337919Y80249D01*
X247638Y79134D02*
X331872Y79134D01*
X333908Y81169D01*
Y81191D01*
X334934Y82217D01*
X337919D01*
X212598Y188976D02*
X332120Y188976D01*
X336684Y187802D02*
X337845D01*
X337833Y189759D02*
X337845Y189771D01*
X335430Y189759D02*
X337833D01*
X333835Y190713D02*
X334861Y191739D01*
X333835Y190691D02*
Y190713D01*
X332120Y188976D02*
X333835Y190691D01*
X334861Y191739D02*
X337845D01*
X173819Y240520D02*
X226968Y293669D01*
X173078Y242307D02*
X226228Y295457D01*
X227709Y291882D02*
X318354Y291882D01*
X337087Y296122D02*
X338248D01*
X334634Y293669D02*
X337087Y296122D01*
X226968Y293669D02*
X334634Y293669D01*
X226228Y295457D02*
X333211Y295457D01*
X335833Y298078D01*
X338236D01*
X338248Y298091D01*
X335273Y300047D02*
X338236D01*
X332470Y297244D02*
X335273Y300047D01*
X338236D02*
X338248Y300059D01*
X249260Y323803D02*
X345185D01*
X346850Y322047D02*
Y322138D01*
X345185Y323803D02*
X346850Y322138D01*
X237583Y335480D02*
X249260Y323803D01*
X241110Y129200D02*
X241939D01*
X242804Y131852D02*
Y133075D01*
X241939Y130987D02*
X242804Y131852D01*
X240370Y130987D02*
X241939D01*
X237212Y117739D02*
Y127830D01*
X239000Y127089D02*
X241110Y129200D01*
X237212Y127830D02*
X240370Y130987D01*
X239000Y118479D02*
Y127089D01*
X242804Y133075D02*
X243366Y133637D01*
X242804Y127112D02*
Y128335D01*
X241939Y129200D02*
X242804Y128335D01*
Y127112D02*
X243366Y126550D01*
X239000Y118479D02*
X249630Y107850D01*
X237212Y117739D02*
X248889Y106062D01*
X249271Y132850D02*
X249665D01*
X248394Y131573D02*
Y131972D01*
X244817Y129200D02*
X247808D01*
X244817Y130987D02*
X247808D01*
X248394Y131573D01*
X243366Y126550D02*
Y127345D01*
X244232Y131573D02*
X244817Y130987D01*
X247808Y129200D02*
X248394Y128614D01*
X243366Y132842D02*
X244232Y131976D01*
Y131573D02*
Y131976D01*
X243366Y132842D02*
Y133637D01*
X248394Y131972D02*
X249271Y132850D01*
X243366Y127345D02*
X244232Y128211D01*
Y128614D02*
X244817Y129200D01*
X244232Y128211D02*
Y128614D01*
X248394Y128216D02*
Y128614D01*
Y128216D02*
X249271Y127338D01*
X249665D01*
X254390D01*
X249665Y132850D02*
X254390D01*
X249665Y132850D02*
X249665Y132850D01*
X259311Y127338D02*
X260098Y126550D01*
X254390Y127338D02*
X259311D01*
X254390Y132850D02*
X259311D01*
X260098Y133637D01*
X344815Y106062D02*
X346480Y104397D01*
Y104306D02*
Y104397D01*
X248889Y106062D02*
X344815D01*
X249630Y107850D02*
X334694D01*
X335875Y109031D01*
X336244D01*
X336449Y109235D01*
X341271D01*
X342543Y110507D01*
Y111393D01*
X241093Y238465D02*
X241921D01*
X242786Y241118D02*
Y242340D01*
X241921Y240253D02*
X242786Y241118D01*
X240352Y240253D02*
X241921D01*
X237195Y227004D02*
Y237095D01*
X238982Y236355D02*
X241093Y238465D01*
X237195Y237095D02*
X240352Y240253D01*
X238982Y227745D02*
Y236355D01*
X242786Y242340D02*
X243348Y242902D01*
X242786Y236378D02*
Y237600D01*
X241921Y238465D02*
X242786Y237600D01*
Y236378D02*
X243348Y235816D01*
X238982Y227745D02*
X249612Y217115D01*
X237195Y227004D02*
X248872Y215328D01*
X249254Y242115D02*
X249647D01*
X248376Y240839D02*
Y241237D01*
X244800Y238465D02*
X247790D01*
X244800Y240253D02*
X247790D01*
X248376Y240839D01*
X243348Y235816D02*
Y236610D01*
X244214Y240839D02*
X244800Y240253D01*
X247790Y238465D02*
X248376Y237879D01*
X243348Y242108D02*
X244214Y241242D01*
Y240839D02*
Y241242D01*
X243348Y242108D02*
Y242902D01*
X248376Y241237D02*
X249254Y242115D01*
X243348Y236610D02*
X244214Y237476D01*
Y237879D02*
X244800Y238465D01*
X244214Y237476D02*
Y237879D01*
X248376Y237481D02*
Y237879D01*
Y237481D02*
X249254Y236603D01*
X249647D01*
X254372D01*
X249647Y242115D02*
X254372D01*
X249647Y242115D02*
X249647Y242115D01*
X259293Y236603D02*
X260081Y235816D01*
X254372Y236603D02*
X259293D01*
X254372Y242115D02*
X259293D01*
X260081Y242902D01*
X344797Y215328D02*
X346462Y213662D01*
Y213572D02*
Y213662D01*
X248872Y215328D02*
X344797D01*
X249612Y217115D02*
X334677D01*
X335858Y218296D01*
X336226D01*
X336431Y218501D01*
X341254D01*
X342526Y219772D01*
Y220658D01*
X353937Y104331D02*
Y118504D01*
Y119291D01*
X346850Y126378D02*
X353937Y119291D01*
X350000Y111417D02*
Y118898D01*
X346850Y122047D02*
X350000Y118898D01*
Y220866D02*
Y227559D01*
X346850Y230709D02*
X350000Y227559D01*
X346457Y235433D02*
X353937Y227953D01*
X343307Y236024D02*
X343701Y235630D01*
X336614Y236024D02*
X343307D01*
X340839Y218110D02*
X343701Y220972D01*
Y221260D01*
X336221Y218110D02*
X340839D01*
X352365Y204291D02*
Y206287D01*
X355125Y209047D02*
X362819D01*
X354334Y205728D02*
X355866Y207260D01*
X352365Y206287D02*
X355125Y209047D01*
X354334Y204291D02*
Y205728D01*
X355866Y207260D02*
X363559D01*
X354322Y204279D02*
X354334Y204291D01*
X352353Y204279D02*
X352365Y204291D01*
X355086Y97031D02*
X370032D01*
X354346Y98819D02*
X369291D01*
X354407Y94769D02*
Y96352D01*
X355086Y97031D01*
X352438Y96912D02*
X354346Y98819D01*
X352438Y94769D02*
Y96912D01*
X352427Y94757D02*
X352438Y94769D01*
X353543Y103937D02*
X353937Y104331D01*
X344791Y106087D02*
X346457Y104421D01*
Y104331D02*
Y104421D01*
X335852Y109055D02*
X336221D01*
X336425Y109260D01*
X341248D01*
X342520Y110531D01*
Y111417D01*
X353937Y213779D02*
Y227953D01*
X353543Y213386D02*
X353937Y213779D01*
X344791Y215535D02*
X346457Y213870D01*
Y213779D02*
Y213870D01*
X344094Y235433D02*
X346457D01*
X343701Y235827D02*
X344094Y235433D01*
X393722Y120721D02*
X397783D01*
X400394Y118110D01*
X398493Y122509D02*
X400394Y124409D01*
X407087Y118898D02*
X412992D01*
X406299Y118110D02*
X407087Y118898D01*
X369291Y98819D02*
X392981Y122509D01*
X370032Y97031D02*
X393722Y120721D01*
X406693Y124016D02*
Y124016D01*
X392981Y122509D02*
X398493D01*
X354395Y94757D02*
X354407Y94769D01*
X407087Y105118D02*
X412992D01*
X406299Y104331D02*
X407087Y105118D01*
X357092Y92060D02*
X358270D01*
X358361Y91969D01*
X370694D01*
X387099Y108374D01*
X358270Y90091D02*
X358361Y90182D01*
X357092Y90091D02*
X358270D01*
X371434Y90182D02*
X387839Y106587D01*
X358361Y90182D02*
X371434D01*
X387839Y106587D02*
X398138D01*
X400394Y104331D01*
X398138Y108374D02*
X400394Y110630D01*
X387099Y108374D02*
X398138D01*
X407087Y36220D02*
X412992D01*
X406299Y35433D02*
X407087Y36220D01*
X350458Y74405D02*
Y75583D01*
X350367Y74314D02*
X350458Y74405D01*
X382163Y39476D02*
X398138D01*
X350367Y71272D02*
X382163Y39476D01*
X398138D02*
X400394Y41732D01*
X348489Y74405D02*
Y75583D01*
X350367Y71272D02*
Y74314D01*
X348580Y70532D02*
Y74314D01*
X348489Y74405D02*
X348580Y74314D01*
X381423Y37689D02*
X398138D01*
X348580Y70532D02*
X381423Y37689D01*
X398138D02*
X400394Y35433D01*
X407087Y50000D02*
X412992D01*
X406299Y49213D02*
X407087Y50000D01*
X354304Y74314D02*
X354395Y74405D01*
X354304Y72391D02*
Y74314D01*
Y72391D02*
X373439Y53256D01*
X398138D01*
X400394Y55512D01*
X352427Y74405D02*
Y75583D01*
Y74405D02*
X352517Y74314D01*
Y71650D02*
Y74314D01*
X354395Y74405D02*
Y75583D01*
X398138Y51468D02*
X400394Y49213D01*
X406299D01*
X352517Y71650D02*
X372699Y51468D01*
X398138D01*
X407087Y63779D02*
X412992D01*
X406299Y62992D02*
X407087Y63779D01*
X385151Y67035D02*
X398138D01*
X358270Y80249D02*
X358361Y80158D01*
X398138Y67035D02*
X400394Y69291D01*
X357092Y78280D02*
X358270D01*
X358361Y78371D01*
X357092Y80249D02*
X358270D01*
X358361Y78371D02*
X371288D01*
X372028Y80158D02*
X385151Y67035D01*
X384411Y65248D02*
X398138D01*
X400394Y62992D01*
X371288Y78371D02*
X384411Y65248D01*
X358361Y80158D02*
X372028D01*
X398493Y81170D02*
X400394Y83071D01*
X407087Y77559D02*
X412992D01*
X406299Y76772D02*
X407087Y77559D01*
X357092Y84186D02*
X358270D01*
X358361Y84095D01*
X378253D02*
X381178Y81170D01*
X358361Y84095D02*
X378253D01*
X406693Y82677D02*
Y82677D01*
X398928Y79383D02*
X399514Y78797D01*
X357092Y82217D02*
X358270D01*
X377512Y82308D02*
X380437Y79383D01*
X400394Y76772D02*
Y77566D01*
X380437Y79383D02*
X398928D01*
X399514Y78446D02*
Y78797D01*
X358361Y82308D02*
X377512D01*
X399514Y78446D02*
X400394Y77566D01*
X358270Y82217D02*
X358361Y82308D01*
X381178Y81170D02*
X398493D01*
X407087Y91339D02*
X412992D01*
X406299Y90551D02*
X407087Y91339D01*
X358270Y88123D02*
X358361Y88032D01*
X375615D01*
X382918Y92807D02*
X398138D01*
X357092Y88123D02*
X358270D01*
X376355Y86245D02*
X382918Y92807D01*
X358361Y86245D02*
X376355D01*
X398138Y92807D02*
X400394Y90551D01*
X358270Y86154D02*
X358361Y86245D01*
X398138Y94595D02*
X400394Y96850D01*
X357092Y86154D02*
X358270D01*
X382177Y94595D02*
X398138D01*
X375615Y88032D02*
X382177Y94595D01*
X398577Y230958D02*
X400394Y229141D01*
X387257Y230958D02*
X398577D01*
X386516Y232745D02*
X398339D01*
X400240Y234646D01*
X406299D01*
X406693Y234252D01*
X407087Y229134D02*
X412992D01*
X406299Y228346D02*
X407087Y229134D01*
X362819Y209047D02*
X386516Y232745D01*
X400394Y228346D02*
Y229141D01*
X363559Y207260D02*
X387257Y230958D01*
X407087Y215354D02*
X412992D01*
X406299Y214567D02*
X407087Y215354D01*
X357019Y201582D02*
X358197D01*
X358288Y201491D01*
X400394Y220866D02*
X406299D01*
X357019Y199613D02*
X358197D01*
X370300Y201491D02*
X387419Y218610D01*
X388159Y216823D02*
X398138D01*
X358288Y199704D02*
X371040D01*
X358288Y201491D02*
X370300D01*
X398138Y216823D02*
X400394Y214567D01*
X387419Y218610D02*
X398138D01*
X358197Y199613D02*
X358288Y199704D01*
X398138Y218610D02*
X400394Y220866D01*
Y214567D02*
X406299D01*
X371040Y199704D02*
X388159Y216823D01*
X400308Y200787D02*
Y200873D01*
X407087Y201575D02*
X412992D01*
X406299Y200787D02*
X407087Y201575D01*
X400394Y200787D02*
X406299D01*
X400308D02*
X400394D01*
X358288Y195767D02*
X375962D01*
X398138Y204831D02*
X400394Y207087D01*
X382498Y204831D02*
X398138D01*
X398138Y203043D02*
X400308Y200873D01*
X375221Y197554D02*
X382498Y204831D01*
X357019Y197645D02*
X358197D01*
X383238Y203043D02*
X398138D01*
X358197Y197645D02*
X358288Y197554D01*
X375962Y195767D02*
X383238Y203043D01*
X358288Y197554D02*
X375221D01*
X358197Y195676D02*
X358288Y195767D01*
X357019Y195676D02*
X358197D01*
X407087Y174016D02*
X412992D01*
X406299Y173228D02*
X407087Y174016D01*
X357019Y189771D02*
X358197D01*
X358288Y189680D01*
X372348D01*
X358288Y187893D02*
X371608D01*
X384017Y175484D01*
X358197Y187802D02*
X358288Y187893D01*
X398138Y175484D02*
X400394Y173228D01*
X384017Y175484D02*
X398138D01*
X398138Y177272D02*
X400394Y179527D01*
X357019Y187802D02*
X358197D01*
X384757Y177272D02*
X398138D01*
X372348Y189680D02*
X384757Y177272D01*
X407087Y187795D02*
X412992D01*
X406299Y187008D02*
X407087Y187795D01*
X398138Y189264D02*
X400394Y187008D01*
X395086Y189264D02*
X398138D01*
X392520Y191830D02*
X395086Y189264D01*
X398138Y191051D02*
X400394Y193307D01*
X395826Y191051D02*
X398138D01*
X393260Y193617D02*
X395826Y191051D01*
X358197Y191739D02*
X358288Y191830D01*
X357019Y193708D02*
X358197D01*
X358288Y191830D02*
X392520D01*
X357019Y191739D02*
X358197D01*
X358288Y193617D02*
X393260D01*
X358197Y193708D02*
X358288Y193617D01*
X407087Y160236D02*
X412992D01*
X406299Y159449D02*
X407087Y160236D01*
X354257Y183862D02*
X354322Y183927D01*
X354257Y183006D02*
Y183862D01*
X352469Y182265D02*
Y183811D01*
Y182265D02*
X373030Y161705D01*
X352353Y183927D02*
Y185106D01*
Y183927D02*
X352469Y183811D01*
X373770Y163492D02*
X398138D01*
X400394Y165748D01*
X354257Y183006D02*
X373770Y163492D01*
X354322Y183927D02*
Y185106D01*
X398138Y161705D02*
X400394Y159449D01*
X373030Y161705D02*
X398138D01*
X407087Y146457D02*
X412992D01*
X406299Y145669D02*
X407087Y146457D01*
X350294Y183836D02*
X350385Y183927D01*
Y185106D01*
X350294Y181913D02*
X382494Y149713D01*
X398138D01*
X400394Y151969D01*
X350294Y181913D02*
Y183836D01*
X348416Y183927D02*
Y185106D01*
X348507Y181172D02*
X381754Y147925D01*
X348416Y183927D02*
X348507Y183836D01*
X381754Y147925D02*
X398138D01*
X400394Y145669D01*
X348507Y181172D02*
Y183836D01*
X407087Y256693D02*
X412992D01*
X406299Y255906D02*
X407087Y256693D01*
X350697Y292156D02*
X350787Y292247D01*
X350697Y289114D02*
Y292156D01*
Y289114D02*
X379862Y259949D01*
X398138D02*
X400394Y262205D01*
X379862Y259949D02*
X398138D01*
X348819Y292247D02*
Y293425D01*
Y292247D02*
X348909Y292156D01*
Y288373D02*
Y292156D01*
Y288373D02*
X379121Y258161D01*
X350787Y292247D02*
Y293425D01*
X379121Y258161D02*
X398138D01*
X400394Y255906D01*
X407087Y270472D02*
X412992D01*
X406299Y269685D02*
X407087Y270472D01*
X354724Y292247D02*
Y293425D01*
X354634Y292156D02*
X354724Y292247D01*
X352756D02*
Y293425D01*
X354634Y290232D02*
Y292156D01*
X398138Y273728D02*
X400394Y275984D01*
X371138Y273728D02*
X398138D01*
X354634Y290232D02*
X371138Y273728D01*
X370397Y271941D02*
X398138D01*
X400394Y269685D01*
X352847Y289492D02*
X370397Y271941D01*
X352847Y289492D02*
Y292156D01*
X352756Y292247D02*
X352847Y292156D01*
X407087Y339370D02*
X412992D01*
X406299Y338583D02*
X407087Y339370D01*
X395728Y340839D02*
X398138D01*
X398138Y342626D02*
X400394Y344882D01*
X398138Y340839D02*
X400394Y338583D01*
X369505Y314615D02*
X395728Y340839D01*
X394988Y342626D02*
X398138D01*
X368764Y316402D02*
X394988Y342626D01*
X352906Y313927D02*
Y314701D01*
X354607Y316402D01*
X352756Y313777D02*
X352906Y313927D01*
X354736Y312611D02*
Y314004D01*
X355347Y314615D02*
X369505D01*
X352756Y312598D02*
Y313777D01*
X354736Y314004D02*
X355347Y314615D01*
X354607Y316402D02*
X368764D01*
X354724Y312598D02*
X354736Y312611D01*
X407087Y325590D02*
X412992D01*
X406299Y324803D02*
X407087Y325590D01*
X398138Y328846D02*
X400394Y331102D01*
X377528Y309811D02*
X396563Y328846D01*
X398138Y327059D02*
X400394Y324803D01*
X397303Y327059D02*
X398138D01*
X378268Y308024D02*
X397303Y327059D01*
X396563Y328846D02*
X398138D01*
X358690Y309811D02*
X377528D01*
X358600Y309902D02*
X358690Y309811D01*
X357421Y309902D02*
X358600D01*
X358690Y308024D02*
X378268D01*
X358600Y307933D02*
X358690Y308024D01*
X357421Y307933D02*
X358600D01*
X407087Y284252D02*
X412992D01*
X406299Y283465D02*
X407087Y284252D01*
X395776Y285720D02*
X398138D01*
X396516Y287508D02*
X398138D01*
X398138Y285720D02*
X400394Y283465D01*
X398138Y287508D02*
X400394Y289764D01*
X358600Y296122D02*
X358690Y296213D01*
X357421Y296122D02*
X358600D01*
X386024Y298000D02*
X396516Y287508D01*
X357421Y298091D02*
X358600D01*
X385283Y296213D02*
X395776Y285720D01*
X358690Y296213D02*
X385283D01*
X358690Y298000D02*
X386024D01*
X358600Y298091D02*
X358690Y298000D01*
X407087Y298031D02*
X412992D01*
X406299Y297244D02*
X407087Y298031D01*
X395845Y301937D02*
X396494Y301287D01*
X398138Y299500D02*
X400394Y297244D01*
X395754Y299500D02*
X398138D01*
X395104Y300150D02*
X395754Y299500D01*
X398138Y301287D02*
X400394Y303543D01*
X396494Y301287D02*
X398138D01*
X358600Y300059D02*
X358690Y300150D01*
X358690Y301937D02*
X395845D01*
X357421Y302028D02*
X358600D01*
X358690Y300150D02*
X395104D01*
X357421Y300059D02*
X358600D01*
Y302028D02*
X358690Y301937D01*
X407087Y311811D02*
X412992D01*
X406299Y311024D02*
X407087Y311811D01*
X387323Y304087D02*
X396516Y313280D01*
X386583Y305874D02*
X395776Y315067D01*
X398138Y313280D02*
X400394Y311024D01*
X396516Y313280D02*
X398138D01*
X398138Y315067D02*
X400394Y317323D01*
X395776Y315067D02*
X398138D01*
X358690Y304087D02*
X387323D01*
X358600Y303996D02*
X358690Y304087D01*
X358600Y305965D02*
X358690Y305874D01*
X357421Y305965D02*
X358600D01*
X357421Y303996D02*
X358600D01*
X358690Y305874D02*
X386583D01*
X342913Y328248D02*
Y329134D01*
X341642Y326976D02*
X342913Y328248D01*
X336819Y326976D02*
X341642D01*
X336614Y326772D02*
X336819Y326976D01*
X336246Y326772D02*
X336614D01*
X335065Y325591D02*
X336246Y326772D01*
X250000Y325591D02*
X335065D01*
X350394Y329134D02*
Y335433D01*
X346850Y338976D02*
X350394Y335433D01*
X353937Y321654D02*
X354331Y322047D01*
Y336221D01*
X347019Y343532D02*
X354331Y336221D01*
X259681Y350590D02*
X260469Y351378D01*
X254760Y350590D02*
X259681D01*
X254760Y345079D02*
X259681D01*
X260469Y344291D01*
X250035Y350591D02*
X250035Y350590D01*
X254760D01*
X250035Y345079D02*
X254760D01*
X249642D02*
X250035D01*
X248764Y345957D02*
X249642Y345079D01*
X248764Y345957D02*
Y346355D01*
X244602Y345952D02*
Y346355D01*
X245188Y346941D01*
X243736Y345086D02*
X244602Y345952D01*
X248764Y349713D02*
X249642Y350591D01*
X243736Y350583D02*
Y351378D01*
X244602Y349314D02*
Y349717D01*
X243736Y350583D02*
X244602Y349717D01*
X248178Y346941D02*
X248764Y346355D01*
X244602Y349314D02*
X245188Y348728D01*
X243736Y344291D02*
Y345086D01*
X248178Y348728D02*
X248764Y349314D01*
X245188Y348728D02*
X248178D01*
X245188Y346941D02*
X248178D01*
X248764Y349314D02*
Y349713D01*
X249642Y350591D02*
X250035D01*
X239370Y336221D02*
X250000Y325591D01*
X243174Y344853D02*
X243736Y344291D01*
X242309Y346941D02*
X243174Y346076D01*
Y344853D02*
Y346076D01*
Y350816D02*
X243736Y351378D01*
X239370Y336221D02*
Y344830D01*
X237583Y345571D02*
X240740Y348728D01*
X239370Y344830D02*
X241481Y346941D01*
X237583Y335480D02*
Y345571D01*
X240740Y348728D02*
X242309D01*
X243174Y349594D01*
Y350816D01*
X241481Y346941D02*
X242309D01*
X337008Y344488D02*
X343701D01*
X300823Y121653D02*
X301996Y122827D01*
X303142D02*
X304528Y124213D01*
X307713D01*
X301996Y122827D02*
X303142D01*
X301996Y232079D02*
X302945D01*
X304331Y233465D02*
X307713D01*
X300823Y230906D02*
X301996Y232079D01*
X302945D02*
X304331Y233465D01*
X333529Y83339D02*
X334710Y84521D01*
X326442Y83339D02*
X333529D01*
X322388Y82680D02*
X326177D01*
X321536Y82197D02*
X321905D01*
X322388Y82680D01*
X326177D02*
X326442Y82946D01*
X323262Y92719D02*
X326117D01*
X322047Y93701D02*
X322281D01*
X323262Y92719D01*
Y202241D02*
X326044D01*
X322047Y203150D02*
X322354D01*
X323262Y202241D01*
X333456Y192861D02*
X334637Y194043D01*
X326369Y192861D02*
X333456D01*
X322275Y192202D02*
X326103D01*
X321428Y191724D02*
X321797D01*
X322275Y192202D01*
X326103D02*
X326369Y192468D01*
X326772Y301181D02*
X333858D01*
X335039Y302362D01*
X321166Y300522D02*
X326506D01*
X320920Y300276D02*
X321166Y300522D01*
X322800Y311417D02*
X323656Y310561D01*
X326447D01*
X322441Y311417D02*
X322800D01*
X304921Y341929D02*
X308106D01*
X302390Y340543D02*
X303535D01*
X301217Y339370D02*
X302390Y340543D01*
X303535D02*
X304921Y341929D01*
X-48819Y173228D02*
X-37827D01*
X-37359Y173697D02*
X-36990D01*
X-37827Y173228D02*
X-37359Y173697D01*
X-39567Y254921D02*
X-39370Y254724D01*
X-48622Y254921D02*
X-39567D01*
X-48819Y255118D02*
X-48622Y254921D01*
Y261614D02*
X-39567D01*
X-39370Y261811D01*
X-48819Y261417D02*
X-48622Y261614D01*
X71468Y350602D02*
X74024Y353157D01*
X75598D02*
X76378Y353937D01*
X67826Y350602D02*
X71468D01*
X67716Y350492D02*
X67826Y350602D01*
X74024Y353157D02*
X75598D01*
X46358Y350492D02*
X50394D01*
X42717Y352983D02*
Y353150D01*
X43890Y351809D02*
X45041D01*
X42717Y352983D02*
X43890Y351809D01*
X45041D02*
X46358Y350492D01*
X-49000Y251969D02*
X-35039D01*
X-49213D02*
X-49000D01*
X328346Y224213D02*
X328346Y224213D01*
X328315Y224244D02*
X328346Y224213D01*
X98819Y253150D02*
X105315D01*
X76772Y279134D02*
X77165Y279528D01*
X-12510Y156998D02*
X28514D01*
X28602Y156909D01*
X-12598Y157087D02*
X-12510Y156998D01*
X-49000Y245669D02*
X-12205D01*
X-12598Y127756D02*
Y131890D01*
Y127559D02*
Y127756D01*
X114567Y282283D02*
X115354D01*
X117421Y280217D01*
X121555D01*
X123622Y253150D02*
X128347D01*
X110433D02*
X117323D01*
X172047Y338386D02*
X181496D01*
X171850D02*
X172047D01*
X171653Y338583D02*
X171850Y338386D01*
X11024Y303543D02*
Y308268D01*
Y290354D02*
Y297244D01*
X111024Y327953D02*
X112205D01*
X111024D02*
X111024D01*
X110630Y321654D02*
X111024Y322047D01*
X112205Y327953D02*
X115354Y331102D01*
Y337795D01*
X111024Y322047D02*
Y327953D01*
X90158Y362992D02*
X115354Y337795D01*
X57087Y359449D02*
X57965Y360327D01*
X58358D02*
X61024Y362992D01*
X57087Y359055D02*
Y359449D01*
X57965Y360327D02*
X58358D01*
X61024Y362992D02*
X90158D01*
X37598Y359055D02*
X37598Y359055D01*
X33858Y359055D02*
X37598D01*
Y364961D02*
X37598Y364961D01*
X33858Y364961D02*
X37598D01*
X37795Y347638D02*
X37795Y347638D01*
X34646Y347638D02*
X37795D01*
X31890Y350787D02*
X34252Y353150D01*
X31890Y343314D02*
Y350787D01*
X34252Y353150D02*
X37598D01*
X86221Y298819D02*
X91732D01*
X73032D02*
X79921D01*
X65748Y311024D02*
X65945Y310827D01*
X43307Y347638D02*
X43602Y347933D01*
X50394D01*
X75591Y349213D02*
X76378D01*
X67716Y347933D02*
X74311D01*
X75591Y349213D01*
X343869Y343532D02*
X347019D01*
X44577Y191821D02*
X53848D01*
X44488Y191732D02*
X44577Y191821D01*
X53848D02*
X53937Y191732D01*
X53888Y186959D02*
X53937Y187008D01*
X44931Y186959D02*
X53888D01*
X44882Y187008D02*
X44931Y186959D01*
X53927Y181900D02*
X53937Y181890D01*
X44882D02*
X44892Y181900D01*
X53927D01*
X19715Y151939D02*
X28573D01*
X19685Y151969D02*
X19715Y151939D01*
X28573D02*
X28602Y151909D01*
X53908Y151939D02*
X53937Y151969D01*
X44626Y151909D02*
X44655Y151939D01*
X53908D01*
X28534Y176841D02*
X28602Y176909D01*
X19754Y176841D02*
X28534D01*
X19685Y176772D02*
X19754Y176841D01*
X53868D02*
X53937Y176772D01*
X44626Y176909D02*
X44695Y176841D01*
X53868D01*
X44951Y171978D02*
X53868D01*
X53937Y172047D01*
X44882D02*
X44951Y171978D01*
X53927Y166919D02*
X53937Y166929D01*
X45276D02*
X45285Y166919D01*
X53927D01*
X-39370Y170079D02*
X-21654D01*
X-49000D02*
X-39370D01*
X-21654D02*
X-13386Y161811D01*
X28346D01*
X44931Y161860D02*
X53888D01*
X53937Y161811D01*
X44882D02*
X44931Y161860D01*
X28366Y166909D02*
X28740Y166535D01*
X-6279Y166909D02*
X28366D01*
X-15748Y176378D02*
X-6279Y166909D01*
X-49000Y176378D02*
X-15748D01*
X28091Y171909D02*
X28346Y171653D01*
X-6949Y171909D02*
X28091D01*
X-14567Y179528D02*
X-6949Y171909D01*
X-49000Y179528D02*
X-14567D01*
X-10138Y186909D02*
X28602D01*
X-24803Y201575D02*
X-10138Y186909D01*
X-49000Y201575D02*
X-24803D01*
X-8681Y181909D02*
X27972D01*
X-25197Y198425D02*
X-8681Y181909D01*
X-49000Y198425D02*
X-25197D01*
X44488Y156693D02*
X44793Y156998D01*
X53848D01*
X53937Y157087D01*
X-3937Y127953D02*
Y131890D01*
X-20866Y127756D02*
Y131890D01*
X-3740Y122638D02*
X-3543Y122835D01*
X-26378Y122441D02*
X-20866D01*
Y122638D02*
X-3740D01*
X-33071Y129134D02*
X-26378Y122441D01*
X-49000Y129134D02*
X-33071D01*
X-48819Y135433D02*
X-39370D01*
X-48819Y144882D02*
X-39370D01*
X-48819Y154331D02*
X-39370D01*
X-48819Y163779D02*
X-39370D01*
X-48819Y182677D02*
X-39370D01*
X-48819Y204724D02*
X-39370D01*
X-48819Y214173D02*
X-39370D01*
X-48819Y223622D02*
X-39370D01*
X-48819Y233071D02*
X-39370D01*
X-48819Y242520D02*
X-39370D01*
X-48819Y248819D02*
X-39370D01*
X-48819Y264567D02*
X-39370D01*
X336614Y126772D02*
X343307D01*
X343701Y126378D01*
X344094D02*
X346850D01*
X343110Y132874D02*
X343307Y132677D01*
Y133071D02*
X346850Y129528D01*
Y129528D02*
Y129528D01*
X346754Y121950D02*
X346850Y122047D01*
X343307Y242126D02*
X343602D01*
X343110Y242126D02*
X343307Y241929D01*
X346752Y238976D02*
X346850D01*
X343602Y242126D02*
X346752Y238976D01*
X283465Y148425D02*
Y151969D01*
X283465Y151969D01*
X283465Y148425D02*
X283465Y148425D01*
X277953D02*
X278346Y148819D01*
Y151969D01*
X283465Y261221D02*
X283465Y261221D01*
X283465Y257874D02*
Y261221D01*
X278346Y257874D02*
Y261221D01*
X278346Y257874D02*
X278346Y257874D01*
X278740Y366142D02*
X279134Y365748D01*
X278740Y366142D02*
Y369685D01*
X283858Y366142D02*
Y369685D01*
Y366142D02*
X283858Y366142D01*
X283858Y369685D02*
X283858Y369685D01*
X330306Y197586D02*
X330377Y197657D01*
X330050Y202172D02*
X330306Y201917D01*
X326172Y202172D02*
X330050D01*
X342511Y180716D02*
Y185106D01*
X341330Y179476D02*
Y179535D01*
X335223Y195676D02*
X337845D01*
X337833Y193696D02*
X337845Y193708D01*
X334637Y195091D02*
X335223Y195676D01*
X334637Y194043D02*
Y195091D01*
X334684Y193696D02*
X337833D01*
Y197657D02*
X337845Y197645D01*
X330377Y197657D02*
X337833D01*
X333684Y201294D02*
X335424Y199554D01*
X331381Y201294D02*
X333684D01*
X335424Y199554D02*
X337786D01*
X330503Y202172D02*
X331381Y201294D01*
X337393Y201523D02*
X338180D01*
X335030Y203885D02*
X337393Y201523D01*
X330379Y88064D02*
X330450Y88135D01*
X330123Y92650D02*
X330379Y92395D01*
X326245Y92650D02*
X330123D01*
X342584Y71194D02*
Y75583D01*
X341403Y69954D02*
Y70013D01*
X335296Y86154D02*
X337919D01*
X337907Y84174D02*
X337919Y84186D01*
X334710Y85568D02*
X335296Y86154D01*
X334710Y84521D02*
Y85568D01*
X334757Y84174D02*
X337907D01*
Y88135D02*
X337919Y88123D01*
X330450Y88135D02*
X337907D01*
X333757Y91772D02*
X335497Y90032D01*
X331454Y91772D02*
X333757D01*
X335497Y90032D02*
X337860D01*
X330576Y92650D02*
X331454Y91772D01*
X337466Y92001D02*
X338253D01*
X335104Y94363D02*
X337466Y92001D01*
X337795Y309842D02*
X338583D01*
X335433Y312205D02*
X337795Y309842D01*
X326506Y300522D02*
X326772Y300787D01*
X330780Y305977D02*
X338236D01*
X338248Y305965D01*
X330709Y305906D02*
X330780Y305977D01*
X343701Y344488D02*
X344094Y344094D01*
X343307D02*
X343869Y343532D01*
X343504Y350590D02*
X343701Y350394D01*
X344094D02*
Y350787D01*
Y350394D02*
X346850Y347638D01*
X294384Y247939D02*
X294882Y247441D01*
X294917Y237008D02*
X299839D01*
X300823Y236024D01*
X294917Y231496D02*
X300197D01*
X300787Y230906D01*
X300823D02*
X301020D01*
X314004Y243905D02*
X314201D01*
X264961Y243110D02*
X265193D01*
X336221Y241929D02*
Y247244D01*
X295508Y241929D02*
X300035D01*
X300823Y242717D01*
X300823Y247835D02*
X300823Y247835D01*
X300823Y247835D02*
X301020D01*
X300787D02*
X300823D01*
X300232Y247244D02*
X300823Y247835D01*
X306728Y246260D02*
X307713Y245276D01*
X301020Y247835D02*
X302594Y246260D01*
X306728D01*
X295472Y247244D02*
X300232D01*
X336221Y236417D02*
X336614Y236024D01*
X336417Y242126D02*
X343110D01*
X289024Y247939D02*
X294384D01*
X288244Y248719D02*
Y250441D01*
Y248719D02*
X289024Y247939D01*
X294882Y247835D02*
X295472Y247244D01*
X283244Y250441D02*
Y256323D01*
X278244Y250441D02*
Y256205D01*
X273228Y248703D02*
Y250591D01*
X273244Y248719D02*
Y250441D01*
X273228Y245866D02*
X277362Y241732D01*
X294917D01*
X273228Y248703D02*
X273244Y248719D01*
X272465Y247939D02*
X273228Y248703D01*
X270022Y247939D02*
X272465D01*
X273228Y245866D02*
Y248703D01*
X265193Y243110D02*
X270022Y247939D01*
X276969Y237008D02*
X294917D01*
X273228Y233268D02*
X276969Y237008D01*
X273228Y229331D02*
Y230825D01*
X273244Y229087D02*
Y230809D01*
X265354Y235469D02*
X269234Y231589D01*
X272465D01*
X265354Y235469D02*
Y236024D01*
X273228Y230825D02*
X273244Y230809D01*
X273228Y230825D02*
Y233268D01*
X272465Y231589D02*
X273228Y230825D01*
X289024Y231496D02*
X294685D01*
X294882Y231299D01*
X288244Y230717D02*
X289024Y231496D01*
X288244Y229087D02*
Y230717D01*
X320514Y255274D02*
X320581Y255207D01*
X320472Y255315D02*
X320514Y255274D01*
Y254999D02*
Y255274D01*
Y254999D02*
X320555Y254958D01*
X320472Y258858D02*
X320514Y258817D01*
Y255274D02*
Y258817D01*
X328346Y224213D02*
Y224213D01*
X322047Y236811D02*
X323228Y235630D01*
Y232874D02*
Y235630D01*
X320472Y236811D02*
X322047D01*
X322835Y232480D02*
X323228Y232874D01*
X320472Y232087D02*
Y236811D01*
X316768Y237598D02*
X319685D01*
X320472Y236811D01*
X312831Y233661D02*
X316768Y237598D01*
X312831Y233465D02*
Y233661D01*
X327165Y236417D02*
X336221D01*
X325591Y234842D02*
X327165Y236417D01*
X325591Y234449D02*
Y234842D01*
X328315Y224244D02*
Y231463D01*
X328284Y231494D02*
X328315Y231463D01*
X328284Y245123D02*
Y247639D01*
X336221Y241929D02*
X336417Y242126D01*
X328284Y245123D02*
X331871Y241535D01*
X336221D01*
X325591Y244090D02*
Y244291D01*
X322835Y243504D02*
Y244685D01*
X325005Y243504D02*
X325591Y244090D01*
X322835Y243504D02*
X325005D01*
X322835Y243504D02*
X322835Y243504D01*
X312831Y245079D02*
Y245276D01*
Y245079D02*
X314004Y243905D01*
X320866Y241535D02*
X322835Y243504D01*
X316571Y241535D02*
X320866D01*
X314201Y243905D02*
X316571Y241535D01*
X320581Y247665D02*
Y255207D01*
Y247665D02*
X320606Y247639D01*
X278295Y222587D02*
Y229035D01*
X278244Y229087D02*
X278295Y229035D01*
X294384Y138687D02*
X294882Y138189D01*
X294917Y127756D02*
X299839D01*
X300823Y126772D01*
X294917Y122244D02*
X300197D01*
X300787Y121653D01*
X300823D02*
X301020D01*
X314004Y134653D02*
X314201D01*
X264961Y133858D02*
X265193D01*
X336221Y132677D02*
Y137992D01*
X295508Y132677D02*
X300035D01*
X300823Y133465D01*
X300823Y138583D02*
X300823Y138583D01*
X300823Y138583D02*
X301020D01*
X300787D02*
X300823D01*
X300232Y137992D02*
X300823Y138583D01*
X306728Y137008D02*
X307713Y136024D01*
X301020Y138583D02*
X302594Y137008D01*
X306728D01*
X295472Y137992D02*
X300232D01*
X336221Y127165D02*
X336614Y126772D01*
X336417Y132874D02*
X343110D01*
X289024Y138687D02*
X294384D01*
X288244Y139467D02*
Y141189D01*
Y139467D02*
X289024Y138687D01*
X294882Y138583D02*
X295472Y137992D01*
X283244Y141189D02*
Y147071D01*
X278244Y141189D02*
Y146953D01*
X273228Y139451D02*
Y141339D01*
X273244Y139467D02*
Y141189D01*
X273228Y136614D02*
X277362Y132480D01*
X294917D01*
X273228Y139451D02*
X273244Y139467D01*
X272465Y138687D02*
X273228Y139451D01*
X270022Y138687D02*
X272465D01*
X273228Y136614D02*
Y139451D01*
X265193Y133858D02*
X270022Y138687D01*
X276969Y127756D02*
X294917D01*
X273228Y124016D02*
X276969Y127756D01*
X273228Y120079D02*
Y121573D01*
X273244Y119835D02*
Y121557D01*
X265354Y126216D02*
X269234Y122337D01*
X272465D01*
X265354Y126216D02*
Y126772D01*
X273228Y121573D02*
X273244Y121557D01*
X273228Y121573D02*
Y124016D01*
X272465Y122337D02*
X273228Y121573D01*
X289024Y122244D02*
X294685D01*
X294882Y122047D01*
X288244Y121465D02*
X289024Y122244D01*
X288244Y119835D02*
Y121465D01*
X320514Y146022D02*
X320581Y145955D01*
X320472Y146063D02*
X320514Y146022D01*
Y145747D02*
Y146022D01*
Y145747D02*
X320555Y145706D01*
X320472Y149606D02*
X320514Y149565D01*
Y146022D02*
Y149565D01*
X328346Y114961D02*
Y114961D01*
X322047Y127559D02*
X323228Y126378D01*
Y123622D02*
Y126378D01*
X320472Y127559D02*
X322047D01*
X322835Y123228D02*
X323228Y123622D01*
X320472Y122835D02*
Y127559D01*
X316768Y128347D02*
X319685D01*
X320472Y127559D01*
X312831Y124409D02*
X316768Y128347D01*
X312831Y124213D02*
Y124409D01*
X327165Y127165D02*
X336221D01*
X325590Y125591D02*
X327165Y127165D01*
X325590Y125197D02*
Y125591D01*
X328315Y114992D02*
Y122211D01*
X328284Y122242D02*
X328315Y122211D01*
Y114992D02*
X328346Y114961D01*
X328284Y135871D02*
Y138388D01*
X336221Y132677D02*
X336417Y132874D01*
X328284Y135871D02*
X331871Y132283D01*
X336221D01*
X325590Y134838D02*
Y135039D01*
X322835Y134252D02*
Y135433D01*
X325005Y134252D02*
X325590Y134838D01*
X322835Y134252D02*
X325005D01*
X322835Y134252D02*
X322835Y134252D01*
X312831Y135827D02*
Y136024D01*
Y135827D02*
X314004Y134653D01*
X320866Y132283D02*
X322835Y134252D01*
X316571Y132283D02*
X320866D01*
X314201Y134653D02*
X316571Y132283D01*
X320581Y138413D02*
Y145955D01*
Y138413D02*
X320606Y138388D01*
X278295Y113335D02*
Y119783D01*
X278244Y119835D02*
X278295Y119783D01*
X320907Y363738D02*
X320974Y363671D01*
X320866Y363779D02*
X320907Y363738D01*
X320974Y356130D02*
Y363671D01*
X320907Y363738D02*
Y367282D01*
Y363464D02*
Y363738D01*
Y363464D02*
X320948Y363423D01*
X320866Y367323D02*
X320907Y367282D01*
X320974Y356130D02*
X321000Y356104D01*
X328740Y332677D02*
Y332677D01*
X328709Y332709D02*
Y339928D01*
X328677Y339959D02*
X328709Y339928D01*
Y332709D02*
X328740Y332677D01*
X278689Y331051D02*
Y337500D01*
X278638Y337551D02*
X278689Y337500D01*
X273622Y339289D02*
X273638Y339274D01*
X272858Y340053D02*
X273622Y339289D01*
Y341732D01*
Y337795D02*
Y339289D01*
X265748Y343933D02*
Y344488D01*
X269628Y340053D02*
X272858D01*
X273638Y337551D02*
Y339274D01*
X265748Y343933D02*
X269628Y340053D01*
X273622Y357167D02*
X273638Y357183D01*
X272858Y356403D02*
X273622Y357167D01*
Y359055D01*
Y354331D02*
Y357167D01*
X270415Y356403D02*
X272858D01*
X265587Y351575D02*
X270415Y356403D01*
X265354Y351575D02*
X265587D01*
X273638Y357183D02*
Y358906D01*
X278638D02*
Y364669D01*
X283638Y358906D02*
Y364787D01*
X273622Y354331D02*
X277756Y350197D01*
X295311D01*
X273622Y341732D02*
X277362Y345472D01*
X295311D01*
X295079Y339961D02*
X295276Y339764D01*
X288638Y339181D02*
X289417Y339961D01*
X288638Y337551D02*
Y339181D01*
X289417Y339961D02*
X295079D01*
X295276Y356299D02*
X295866Y355709D01*
X288638Y357183D02*
X289417Y356403D01*
X294778D01*
X288638Y357183D02*
Y358906D01*
X294778Y356403D02*
X295276Y355906D01*
X295311Y345472D02*
X300232D01*
X301217Y344488D01*
X295902Y350394D02*
X300429D01*
X301217Y351181D01*
X295311Y339961D02*
X300590D01*
X301181Y339370D01*
X301217Y356299D02*
X301217Y356299D01*
X300626Y355709D02*
X301217Y356299D01*
X301413D01*
X301181D02*
X301217D01*
X295866Y355709D02*
X300626D01*
X301217Y339370D02*
X301413D01*
X301413Y356299D02*
X302988Y354724D01*
X307122D01*
X308106Y353740D01*
X323228Y340945D02*
X323622Y341339D01*
Y344094D01*
X322441Y345276D02*
X323622Y344094D01*
X320866Y345276D02*
X322441D01*
X320866Y340551D02*
Y345276D01*
X320079Y346063D02*
X320866Y345276D01*
X317161Y346063D02*
X320079D01*
X313224Y342126D02*
X317161Y346063D01*
X313224Y341929D02*
Y342126D01*
X325984Y352554D02*
Y352756D01*
X323228Y351969D02*
X325398D01*
X325984Y352554D01*
X323228Y351969D02*
X323228Y351969D01*
X323228Y351969D02*
Y353150D01*
X321260Y350000D02*
X323228Y351969D01*
X314398Y352370D02*
X314595D01*
X313224Y353543D02*
Y353740D01*
Y353543D02*
X314398Y352370D01*
X314595D02*
X316965Y350000D01*
X321260D01*
X336614Y350394D02*
Y355709D01*
X325984Y342913D02*
Y343307D01*
X327559Y344882D01*
X336614D01*
X337008Y344488D01*
X336614Y350394D02*
X336811Y350590D01*
X343504D01*
X332265Y350000D02*
X336614D01*
X328677Y353588D02*
X332265Y350000D01*
X328677Y353588D02*
Y356104D01*
X400394Y145669D02*
X406299D01*
X341732Y287795D02*
Y287854D01*
X342913Y289035D02*
Y293425D01*
X335625Y303996D02*
X338248D01*
X335039Y303410D02*
X335625Y303996D01*
X335039Y302362D02*
Y303410D01*
X338236Y302015D02*
X338248Y302028D01*
X335086Y302015D02*
X338236D01*
X330453Y310492D02*
X330709Y310236D01*
X334087Y309614D02*
X335827Y307874D01*
X338189D01*
X330906Y310492D02*
X331784Y309614D01*
X334087D01*
X326575Y310492D02*
X330453D01*
X419087Y353543D02*
X424409D01*
X417913Y352370D02*
X419087Y353543D01*
X417913Y352362D02*
Y352370D01*
X419087Y357480D02*
X423622D01*
X417913Y358653D02*
X419087Y357480D01*
X417913Y358653D02*
Y358661D01*
X419087Y339764D02*
X424409D01*
X417913Y338591D02*
X419087Y339764D01*
X417913Y338583D02*
Y338591D01*
X406890Y339370D02*
X407087D01*
X406693Y339173D02*
X406890Y339370D01*
X406693Y344291D02*
X406890Y344094D01*
X412598D01*
X419087Y343701D02*
X423622D01*
X417913Y344874D02*
X419087Y343701D01*
X417913Y344874D02*
Y344882D01*
X400394Y338583D02*
X406299D01*
X406299Y344882D02*
X406693Y344488D01*
X400394Y344882D02*
X406299D01*
X419087Y325984D02*
X424409D01*
X417913Y324811D02*
X419087Y325984D01*
X417913Y324803D02*
Y324811D01*
X406890Y325590D02*
X407087D01*
X406693Y325394D02*
X406890Y325590D01*
X406693Y330512D02*
X406890Y330315D01*
X412598D01*
X419087Y329921D02*
X423622D01*
X417913Y331095D02*
X419087Y329921D01*
X417913Y331095D02*
Y331102D01*
X400394Y324803D02*
X406299D01*
X406299Y331102D02*
X406693Y330709D01*
X400394Y331102D02*
X406299D01*
X419087Y312205D02*
X424409D01*
X417913Y311032D02*
X419087Y312205D01*
X417913Y311024D02*
Y311032D01*
X406890Y311811D02*
X407087D01*
X406693Y311614D02*
X406890Y311811D01*
X406693Y316732D02*
X406890Y316535D01*
X412598D01*
X419087Y316142D02*
X423622D01*
X417913Y317315D02*
X419087Y316142D01*
X417913Y317315D02*
Y317323D01*
X400394Y311024D02*
X406299D01*
X406299Y317323D02*
X406693Y316929D01*
X400394Y317323D02*
X406299D01*
X419087Y298425D02*
X424409D01*
X417913Y297252D02*
X419087Y298425D01*
X417913Y297244D02*
Y297252D01*
X406890Y298031D02*
X407087D01*
X406693Y297835D02*
X406890Y298031D01*
X406693Y302953D02*
X406890Y302756D01*
X412598D01*
X419087Y302362D02*
X423622D01*
X417913Y303535D02*
X419087Y302362D01*
X417913Y303535D02*
Y303543D01*
X400394Y297244D02*
X406299D01*
X406299Y303543D02*
X406693Y303150D01*
X400394Y303543D02*
X406299D01*
X419087Y284646D02*
X424409D01*
X417913Y283472D02*
X419087Y284646D01*
X417913Y283465D02*
Y283472D01*
X406890Y284252D02*
X407087D01*
X406693Y284055D02*
X406890Y284252D01*
X406693Y289173D02*
X406890Y288976D01*
X412598D01*
X419087Y288583D02*
X423622D01*
X417913Y289756D02*
X419087Y288583D01*
X417913Y289756D02*
Y289764D01*
X400394Y283465D02*
X406299D01*
X406299Y289764D02*
X406693Y289370D01*
X400394Y289764D02*
X406299D01*
X419087Y270866D02*
X424409D01*
X417913Y269693D02*
X419087Y270866D01*
X417913Y269685D02*
Y269693D01*
X406890Y270472D02*
X407087D01*
X406693Y270276D02*
X406890Y270472D01*
X406693Y275394D02*
X406890Y275197D01*
X412598D01*
X419087Y274803D02*
X423622D01*
X417913Y275976D02*
X419087Y274803D01*
X417913Y275976D02*
Y275984D01*
X400394Y269685D02*
X406299D01*
X406299Y275984D02*
X406693Y275590D01*
X400394Y275984D02*
X406299D01*
X419087Y257087D02*
X424409D01*
X417913Y255913D02*
X419087Y257087D01*
X417913Y255906D02*
Y255913D01*
X406890Y256693D02*
X407087D01*
X406693Y256496D02*
X406890Y256693D01*
X406693Y261614D02*
X406890Y261417D01*
X412598D01*
X419087Y261024D02*
X423622D01*
X417913Y262197D02*
X419087Y261024D01*
X417913Y262197D02*
Y262205D01*
X400394Y255906D02*
X406299D01*
X406299Y262205D02*
X406693Y261811D01*
X400394Y262205D02*
X406299D01*
X419087Y243307D02*
X424409D01*
X417913Y242134D02*
X419087Y243307D01*
X417913Y242126D02*
Y242134D01*
X419087Y247244D02*
X423622D01*
X417913Y248417D02*
X419087Y247244D01*
X417913Y248417D02*
Y248425D01*
X419087Y229528D02*
X424409D01*
X417913Y228354D02*
X419087Y229528D01*
X417913Y228346D02*
Y228354D01*
X406890Y229134D02*
X407087D01*
X406693Y228937D02*
X406890Y229134D01*
X406693Y234055D02*
X406890Y233858D01*
X412598D01*
X419087Y233465D02*
X423622D01*
X417913Y234638D02*
X419087Y233465D01*
X417913Y234638D02*
Y234646D01*
X400394Y228346D02*
X406299D01*
X419087Y215748D02*
X424409D01*
X417913Y214575D02*
X419087Y215748D01*
X417913Y214567D02*
Y214575D01*
X406890Y215354D02*
X407087D01*
X406693Y215158D02*
X406890Y215354D01*
X406693Y220276D02*
X406890Y220079D01*
X412598D01*
X419087Y219685D02*
X423622D01*
X417913Y220858D02*
X419087Y219685D01*
X417913Y220858D02*
Y220866D01*
X406299Y220866D02*
X406693Y220472D01*
X419087Y201969D02*
X424409D01*
X417913Y200795D02*
X419087Y201969D01*
X417913Y200787D02*
Y200795D01*
X406890Y201575D02*
X407087D01*
X406693Y201378D02*
X406890Y201575D01*
X406693Y206496D02*
X406890Y206299D01*
X412598D01*
X419087Y205906D02*
X423622D01*
X417913Y207079D02*
X419087Y205906D01*
X417913Y207079D02*
Y207087D01*
X406299Y207087D02*
X406693Y206693D01*
X400394Y207087D02*
X406299D01*
X419087Y188189D02*
X424409D01*
X417913Y187016D02*
X419087Y188189D01*
X417913Y187008D02*
Y187016D01*
X406890Y187795D02*
X407087D01*
X406693Y187598D02*
X406890Y187795D01*
X406693Y192717D02*
X406890Y192520D01*
X412598D01*
X419087Y192126D02*
X423622D01*
X417913Y193299D02*
X419087Y192126D01*
X417913Y193299D02*
Y193307D01*
X400394Y187008D02*
X406299D01*
X406299Y193307D02*
X406693Y192913D01*
X400394Y193307D02*
X406299D01*
X419087Y174409D02*
X424409D01*
X417913Y173236D02*
X419087Y174409D01*
X417913Y173228D02*
Y173236D01*
X406890Y174016D02*
X407087D01*
X406693Y173819D02*
X406890Y174016D01*
X406693Y178937D02*
X406890Y178740D01*
X412598D01*
X419087Y178347D02*
X423622D01*
X417913Y179520D02*
X419087Y178347D01*
X417913Y179520D02*
Y179527D01*
X400394Y173228D02*
X406299D01*
X406299Y179527D02*
X406693Y179134D01*
X400394Y179527D02*
X406299D01*
X419087Y160630D02*
X424409D01*
X417913Y159457D02*
X419087Y160630D01*
X417913Y159449D02*
Y159457D01*
X406890Y160236D02*
X407087D01*
X406693Y160039D02*
X406890Y160236D01*
X406693Y165157D02*
X406890Y164961D01*
X412598D01*
X419087Y164567D02*
X423622D01*
X417913Y165740D02*
X419087Y164567D01*
X417913Y165740D02*
Y165748D01*
X400394Y159449D02*
X406299D01*
X406299Y165748D02*
X406693Y165354D01*
X400394Y165748D02*
X406299D01*
X419087Y146850D02*
X424409D01*
X417913Y145677D02*
X419087Y146850D01*
X417913Y145669D02*
Y145677D01*
X406890Y146457D02*
X407087D01*
X406693Y146260D02*
X406890Y146457D01*
X406693Y151378D02*
X406890Y151181D01*
X412598D01*
X419087Y150787D02*
X423622D01*
X417913Y151961D02*
X419087Y150787D01*
X417913Y151961D02*
Y151969D01*
X406299Y151969D02*
X406693Y151575D01*
X400394Y151969D02*
X406299D01*
X419087Y133071D02*
X424409D01*
X417913Y131898D02*
X419087Y133071D01*
X417913Y131890D02*
Y131898D01*
X419087Y137008D02*
X423622D01*
X417913Y138181D02*
X419087Y137008D01*
X417913Y138181D02*
Y138189D01*
X419087Y119291D02*
X424409D01*
X417913Y118118D02*
X419087Y119291D01*
X417913Y118110D02*
Y118118D01*
X406890Y118898D02*
X407087D01*
X406693Y118701D02*
X406890Y118898D01*
X406693Y123819D02*
X406890Y123622D01*
X412598D01*
X419087Y123228D02*
X423622D01*
X417913Y124402D02*
X419087Y123228D01*
X417913Y124402D02*
Y124409D01*
X400394Y118110D02*
X406299D01*
X406299Y124409D02*
X406693Y124016D01*
X400394Y124409D02*
X406299D01*
X419087Y105512D02*
X424409D01*
X417913Y104339D02*
X419087Y105512D01*
X417913Y104331D02*
Y104339D01*
X406890Y105118D02*
X407087D01*
X406693Y104921D02*
X406890Y105118D01*
X406693Y110039D02*
X406890Y109843D01*
X412598D01*
X419087Y109449D02*
X423622D01*
X417913Y110622D02*
X419087Y109449D01*
X417913Y110622D02*
Y110630D01*
X400394Y104331D02*
X406299D01*
X406299Y110630D02*
X406693Y110236D01*
X400394Y110630D02*
X406299D01*
X419087Y91732D02*
X424409D01*
X417913Y90559D02*
X419087Y91732D01*
X417913Y90551D02*
Y90559D01*
X406890Y91339D02*
X407087D01*
X406693Y91142D02*
X406890Y91339D01*
X406693Y96260D02*
X406890Y96063D01*
X412598D01*
X419087Y95669D02*
X423622D01*
X417913Y96842D02*
X419087Y95669D01*
X417913Y96842D02*
Y96850D01*
X400394Y90551D02*
X406299D01*
X406299Y96850D02*
X406693Y96457D01*
X400394Y96850D02*
X406299D01*
X419087Y77953D02*
X424409D01*
X417913Y76780D02*
X419087Y77953D01*
X417913Y76772D02*
Y76780D01*
X406890Y77559D02*
X407087D01*
X406693Y77362D02*
X406890Y77559D01*
X406693Y82480D02*
X406890Y82284D01*
X412598D01*
X419087Y81890D02*
X423622D01*
X417913Y83063D02*
X419087Y81890D01*
X417913Y83063D02*
Y83071D01*
X400394Y76772D02*
X406299D01*
X406299Y83071D02*
X406693Y82677D01*
X400394Y83071D02*
X406299D01*
X419087Y64173D02*
X424409D01*
X417913Y63000D02*
X419087Y64173D01*
X417913Y62992D02*
Y63000D01*
X406890Y63779D02*
X407087D01*
X406693Y63583D02*
X406890Y63779D01*
X406693Y68701D02*
X406890Y68504D01*
X412598D01*
X419087Y68110D02*
X423622D01*
X417913Y69283D02*
X419087Y68110D01*
X417913Y69283D02*
Y69291D01*
X400394Y62992D02*
X406299D01*
X406299Y69291D02*
X406693Y68898D01*
X400394Y69291D02*
X406299D01*
X419087Y50394D02*
X424409D01*
X417913Y49220D02*
X419087Y50394D01*
X417913Y49213D02*
Y49220D01*
X406890Y50000D02*
X407087D01*
X406693Y49803D02*
X406890Y50000D01*
X406693Y54921D02*
X406890Y54724D01*
X412598D01*
X419087Y54331D02*
X423622D01*
X417913Y55504D02*
X419087Y54331D01*
X417913Y55504D02*
Y55512D01*
X406299Y55512D02*
X406693Y55118D01*
X400394Y55512D02*
X406299D01*
X419087Y36614D02*
X424409D01*
X417913Y35433D02*
Y35441D01*
X419087Y36614D01*
Y40551D02*
X423622D01*
X417913Y41724D02*
Y41732D01*
Y41724D02*
X419087Y40551D01*
X406890Y36220D02*
X407087D01*
X406693Y36024D02*
X406890Y36220D01*
X406693Y41142D02*
X406890Y40945D01*
X412598D01*
X400394Y35433D02*
X406299D01*
X406299Y41732D02*
X406693Y41339D01*
X400394Y41732D02*
X406299D01*
D19*
X164961Y266142D02*
D03*
X157874D02*
D03*
X131890Y342126D02*
D03*
X138976D02*
D03*
X164961Y279921D02*
D03*
X157874D02*
D03*
X146457Y342126D02*
D03*
X153543D02*
D03*
X138976Y333858D02*
D03*
X131890D02*
D03*
D20*
X10433Y217717D02*
D03*
X15551D02*
D03*
X-4134Y214173D02*
D03*
X984D02*
D03*
X10433Y210630D02*
D03*
X15551D02*
D03*
X10827Y236614D02*
D03*
X15945D02*
D03*
X-4528Y240158D02*
D03*
X591D02*
D03*
X10827Y227559D02*
D03*
X15945D02*
D03*
X25787Y223622D02*
D03*
X30906D02*
D03*
X25787Y230709D02*
D03*
X30906D02*
D03*
X325787Y289764D02*
D03*
X320669D02*
D03*
X10827Y243701D02*
D03*
X15945D02*
D03*
X325787Y283465D02*
D03*
X320669D02*
D03*
X325394Y181102D02*
D03*
X320276D02*
D03*
X325394Y174803D02*
D03*
X320276D02*
D03*
X325787Y71653D02*
D03*
X320669D02*
D03*
X325787Y65354D02*
D03*
X320669D02*
D03*
X37598Y353150D02*
D03*
X42717Y364961D02*
D03*
X42717Y359055D02*
D03*
X312831Y124213D02*
D03*
X312831Y233465D02*
D03*
X313224Y341929D02*
D03*
X312831Y136024D02*
D03*
X312831Y245276D02*
D03*
X313224Y353740D02*
D03*
X429331Y69291D02*
D03*
X424213D02*
D03*
X417913Y352362D02*
D03*
X412795D02*
D03*
X429331D02*
D03*
X424213D02*
D03*
X417913Y358661D02*
D03*
X412795D02*
D03*
X429331D02*
D03*
X424213D02*
D03*
X417913Y338583D02*
D03*
X412795D02*
D03*
X429331D02*
D03*
X424213D02*
D03*
X417913Y344882D02*
D03*
X412795D02*
D03*
X429331D02*
D03*
X424213D02*
D03*
X417913Y324803D02*
D03*
X412795D02*
D03*
X429331D02*
D03*
X424213D02*
D03*
X417913Y331102D02*
D03*
X412795D02*
D03*
X429331D02*
D03*
X424213D02*
D03*
X417913Y311024D02*
D03*
X412795D02*
D03*
X429331D02*
D03*
X424213D02*
D03*
X417913Y317323D02*
D03*
X412795D02*
D03*
X429331D02*
D03*
X424213D02*
D03*
X417913Y297244D02*
D03*
X412795D02*
D03*
X429331D02*
D03*
X424213D02*
D03*
X417913Y303543D02*
D03*
X412795D02*
D03*
X429331D02*
D03*
X424213D02*
D03*
X417913Y283465D02*
D03*
X412795D02*
D03*
X429331D02*
D03*
X424213D02*
D03*
X417913Y289764D02*
D03*
X412795D02*
D03*
X429331D02*
D03*
X424213D02*
D03*
X417913Y269685D02*
D03*
X412795D02*
D03*
X429331D02*
D03*
X424213D02*
D03*
X417913Y275984D02*
D03*
X412795D02*
D03*
X429331D02*
D03*
X424213D02*
D03*
X417913Y255906D02*
D03*
X412795D02*
D03*
X429331D02*
D03*
X424213D02*
D03*
X417913Y262205D02*
D03*
X412795D02*
D03*
X429331D02*
D03*
X424213D02*
D03*
X417913Y242126D02*
D03*
X412795D02*
D03*
X429331D02*
D03*
X424213D02*
D03*
X417913Y248425D02*
D03*
X412795D02*
D03*
X429331D02*
D03*
X424213D02*
D03*
X417913Y228346D02*
D03*
X412795D02*
D03*
X429331D02*
D03*
X424213D02*
D03*
X417913Y234646D02*
D03*
X412795D02*
D03*
X429331D02*
D03*
X424213D02*
D03*
X417913Y214567D02*
D03*
X412795D02*
D03*
X429331D02*
D03*
X424213D02*
D03*
X417913Y220866D02*
D03*
X412795D02*
D03*
X429331D02*
D03*
X424213D02*
D03*
X417913Y200787D02*
D03*
X412795D02*
D03*
X429331D02*
D03*
X424213D02*
D03*
X417913Y207087D02*
D03*
X412795D02*
D03*
X429331D02*
D03*
X424213D02*
D03*
X417913Y187008D02*
D03*
X412795D02*
D03*
X429331D02*
D03*
X424213D02*
D03*
X417913Y193307D02*
D03*
X412795D02*
D03*
X429331D02*
D03*
X424213D02*
D03*
X417913Y173228D02*
D03*
X412795D02*
D03*
X429331D02*
D03*
X424213D02*
D03*
X417913Y179527D02*
D03*
X412795D02*
D03*
X429331D02*
D03*
X424213D02*
D03*
X417913Y159449D02*
D03*
X412795D02*
D03*
X429331D02*
D03*
X424213D02*
D03*
X417913Y165748D02*
D03*
X412795D02*
D03*
X429331D02*
D03*
X424213D02*
D03*
X417913Y145669D02*
D03*
X412795D02*
D03*
X429331D02*
D03*
X424213D02*
D03*
X417913Y151969D02*
D03*
X412795D02*
D03*
X429331D02*
D03*
X424213D02*
D03*
X417913Y131890D02*
D03*
X412795D02*
D03*
X429331D02*
D03*
X424213D02*
D03*
X417913Y138189D02*
D03*
X412795D02*
D03*
X429331D02*
D03*
X424213D02*
D03*
X417913Y118110D02*
D03*
X412795D02*
D03*
X429331D02*
D03*
X424213D02*
D03*
X417913Y124409D02*
D03*
X412795D02*
D03*
X429331D02*
D03*
X424213D02*
D03*
X417913Y104331D02*
D03*
X412795D02*
D03*
X429331D02*
D03*
X424213D02*
D03*
X417913Y110630D02*
D03*
X412795D02*
D03*
X429331D02*
D03*
X424213D02*
D03*
X417913Y90551D02*
D03*
X412795D02*
D03*
X429331D02*
D03*
X424213D02*
D03*
X417913Y96850D02*
D03*
X412795D02*
D03*
X429331D02*
D03*
X424213D02*
D03*
X417913Y76772D02*
D03*
X412795D02*
D03*
X429331D02*
D03*
X424213D02*
D03*
X417913Y83071D02*
D03*
X412795D02*
D03*
X429331D02*
D03*
X424213D02*
D03*
X417913Y62992D02*
D03*
X412795D02*
D03*
X429331D02*
D03*
X424213D02*
D03*
X417913Y69291D02*
D03*
X412795D02*
D03*
X417913Y49213D02*
D03*
X412795D02*
D03*
X429331D02*
D03*
X424213D02*
D03*
X417913Y55512D02*
D03*
X412795D02*
D03*
X429331D02*
D03*
X424213D02*
D03*
X417913Y35433D02*
D03*
X412795D02*
D03*
X429331D02*
D03*
X424213D02*
D03*
X417913Y41732D02*
D03*
X412795D02*
D03*
X429331D02*
D03*
X424213D02*
D03*
X265587Y344291D02*
D03*
X260469D02*
D03*
X308106Y341929D02*
D03*
X265587Y351378D02*
D03*
X260469D02*
D03*
X308106Y353740D02*
D03*
X265193Y235827D02*
D03*
X260075D02*
D03*
X307713Y233465D02*
D03*
X265193Y242913D02*
D03*
X260075D02*
D03*
X307713Y245276D02*
D03*
X265193Y126575D02*
D03*
X260075D02*
D03*
X307713Y124213D02*
D03*
X265193Y133661D02*
D03*
X260075D02*
D03*
X307713Y136024D02*
D03*
X42717Y353150D02*
D03*
X37598Y359055D02*
D03*
X37598Y364961D02*
D03*
X110433Y253150D02*
D03*
X105315D02*
D03*
X73032Y298819D02*
D03*
X67913D02*
D03*
D21*
X548228Y376378D02*
D03*
Y17323D02*
D03*
D22*
X475394D02*
D03*
X463976D02*
D03*
X24213Y313386D02*
D03*
X35630D02*
D03*
X24213Y322835D02*
D03*
X35630D02*
D03*
X24213Y332283D02*
D03*
X35630D02*
D03*
D23*
X464173Y26772D02*
D03*
X475197D02*
D03*
D24*
X353839Y321654D02*
D03*
X346949D02*
D03*
X353839Y212992D02*
D03*
X346949D02*
D03*
X353839Y103543D02*
D03*
X346949D02*
D03*
X350295Y329134D02*
D03*
X343406D02*
D03*
X350295Y221071D02*
D03*
X343406D02*
D03*
X350295Y111547D02*
D03*
X343406D02*
D03*
D25*
X85827Y279528D02*
D03*
X76772D02*
D03*
X67716D02*
D03*
D26*
X76772Y256693D02*
D03*
D27*
X50394Y353051D02*
D03*
Y350492D02*
D03*
Y347933D02*
D03*
Y345374D02*
D03*
X67716Y353051D02*
D03*
Y350492D02*
D03*
Y347933D02*
D03*
Y345374D02*
D03*
D28*
X94095Y259449D02*
D03*
Y264961D02*
D03*
X152756Y279528D02*
D03*
Y274016D02*
D03*
X148031Y279528D02*
D03*
Y274016D02*
D03*
X143307Y279528D02*
D03*
Y274016D02*
D03*
X114961Y276772D02*
D03*
Y282283D02*
D03*
X110236Y276772D02*
D03*
Y282283D02*
D03*
X75984Y349213D02*
D03*
Y343701D02*
D03*
X111024Y321654D02*
D03*
Y316142D02*
D03*
X42126Y335433D02*
D03*
Y340945D02*
D03*
X47638Y314961D02*
D03*
Y309449D02*
D03*
X52362Y314961D02*
D03*
Y309449D02*
D03*
X57087Y314961D02*
D03*
Y309449D02*
D03*
X166142Y336221D02*
D03*
Y341732D02*
D03*
X187402Y334646D02*
D03*
Y329134D02*
D03*
X192126Y334646D02*
D03*
Y329134D02*
D03*
X295311Y345472D02*
D03*
Y339961D02*
D03*
X250035Y339567D02*
D03*
Y345079D02*
D03*
X254760D02*
D03*
Y350590D02*
D03*
X336614Y344882D02*
D03*
Y350394D02*
D03*
X250035Y350591D02*
D03*
Y356102D02*
D03*
X295311Y350197D02*
D03*
Y355709D02*
D03*
X330906Y300650D02*
D03*
Y306161D02*
D03*
X326575Y300650D02*
D03*
Y306161D02*
D03*
X330906Y310492D02*
D03*
Y316004D02*
D03*
X326575Y310492D02*
D03*
Y316004D02*
D03*
X294917Y237008D02*
D03*
Y231496D02*
D03*
X249642Y231102D02*
D03*
Y236614D02*
D03*
X254366D02*
D03*
Y242126D02*
D03*
X336221Y236417D02*
D03*
Y241929D02*
D03*
X249642Y242126D02*
D03*
Y247638D02*
D03*
X294917Y241732D02*
D03*
Y247244D02*
D03*
X330503Y192330D02*
D03*
Y197842D02*
D03*
X326172Y192330D02*
D03*
Y197842D02*
D03*
X330503Y202172D02*
D03*
Y207684D02*
D03*
X326172Y202172D02*
D03*
Y207684D02*
D03*
X294917Y127756D02*
D03*
Y122244D02*
D03*
X249642Y121850D02*
D03*
Y127362D02*
D03*
X254366D02*
D03*
Y132874D02*
D03*
X336221Y127165D02*
D03*
Y132677D02*
D03*
X249642Y132874D02*
D03*
Y138386D02*
D03*
X294917Y132480D02*
D03*
Y137992D02*
D03*
X330576Y82808D02*
D03*
Y88320D02*
D03*
X326245Y82808D02*
D03*
Y88320D02*
D03*
X330576Y92650D02*
D03*
Y98162D02*
D03*
X326245Y92650D02*
D03*
Y98162D02*
D03*
D29*
X67716Y287795D02*
D03*
X73228D02*
D03*
X273228Y330315D02*
D03*
X278740D02*
D03*
X272835Y221850D02*
D03*
X278346D02*
D03*
X272835Y112598D02*
D03*
X278346D02*
D03*
X334252Y332677D02*
D03*
X328740D02*
D03*
X320948Y363423D02*
D03*
X315437D02*
D03*
X333858Y224213D02*
D03*
X328346D02*
D03*
X320555Y254958D02*
D03*
X315043D02*
D03*
X333858Y114961D02*
D03*
X328346D02*
D03*
X320555Y145706D02*
D03*
X315043D02*
D03*
X143307Y285827D02*
D03*
X148819D02*
D03*
X143307Y290551D02*
D03*
X148819D02*
D03*
X288976Y148031D02*
D03*
X283465D02*
D03*
X288976Y257283D02*
D03*
X283465D02*
D03*
X289370Y365748D02*
D03*
X283858D02*
D03*
X272835Y148031D02*
D03*
X278346D02*
D03*
X272835Y257283D02*
D03*
X278346D02*
D03*
X273228Y365748D02*
D03*
X278740D02*
D03*
X51575Y359055D02*
D03*
X57087D02*
D03*
X37795Y347638D02*
D03*
X43307D02*
D03*
X166535Y325197D02*
D03*
X172047D02*
D03*
X166535Y320472D02*
D03*
X172047D02*
D03*
X341929Y283327D02*
D03*
X336417D02*
D03*
X341929Y287657D02*
D03*
X336417D02*
D03*
X341527Y175007D02*
D03*
X336015D02*
D03*
X341527Y179338D02*
D03*
X336015D02*
D03*
X341600Y65485D02*
D03*
X336088D02*
D03*
X341600Y69816D02*
D03*
X336088D02*
D03*
D30*
X-49000Y264567D02*
D03*
Y261417D02*
D03*
Y258268D02*
D03*
Y255118D02*
D03*
Y251969D02*
D03*
Y248819D02*
D03*
Y245669D02*
D03*
Y242520D02*
D03*
Y239370D02*
D03*
Y236221D02*
D03*
Y233071D02*
D03*
Y229921D02*
D03*
Y226772D02*
D03*
Y223622D02*
D03*
Y220472D02*
D03*
Y217323D02*
D03*
Y214173D02*
D03*
Y211024D02*
D03*
Y207874D02*
D03*
Y204724D02*
D03*
Y201575D02*
D03*
Y198425D02*
D03*
Y182677D02*
D03*
Y179528D02*
D03*
Y176378D02*
D03*
Y173228D02*
D03*
Y170079D02*
D03*
Y166929D02*
D03*
Y163779D02*
D03*
Y160630D02*
D03*
Y157480D02*
D03*
Y154331D02*
D03*
Y151181D02*
D03*
Y148031D02*
D03*
Y144882D02*
D03*
Y141732D02*
D03*
Y138583D02*
D03*
Y135433D02*
D03*
Y132283D02*
D03*
Y129134D02*
D03*
D31*
X121555Y285335D02*
D03*
Y282776D02*
D03*
Y280217D02*
D03*
Y277658D02*
D03*
X138287Y285335D02*
D03*
Y282776D02*
D03*
Y280217D02*
D03*
Y277658D02*
D03*
D32*
X320606Y247639D02*
D03*
X323165D02*
D03*
X325724D02*
D03*
X328284D02*
D03*
Y231494D02*
D03*
X325724D02*
D03*
X323165D02*
D03*
X320606Y138388D02*
D03*
X323165D02*
D03*
X325724D02*
D03*
X328284D02*
D03*
Y122242D02*
D03*
X325724D02*
D03*
X323165D02*
D03*
X321000Y356104D02*
D03*
X323559D02*
D03*
X326118D02*
D03*
X328677D02*
D03*
Y339959D02*
D03*
X326118D02*
D03*
X323559D02*
D03*
D33*
X320606Y231494D02*
D03*
X320606Y122242D02*
D03*
X321000Y339959D02*
D03*
D34*
X133858Y293307D02*
D03*
X125984D02*
D03*
D35*
X21973Y278174D02*
D03*
X33784D02*
D03*
D36*
X21973Y285753D02*
D03*
X36294D02*
D03*
D37*
X66142Y322047D02*
D03*
Y311024D02*
D03*
D38*
X160236Y335827D02*
D03*
Y342126D02*
D03*
D39*
X288244Y119835D02*
D03*
X283244D02*
D03*
X278244D02*
D03*
X273244D02*
D03*
Y141189D02*
D03*
X278244D02*
D03*
X283244D02*
D03*
X288244D02*
D03*
X288244Y229087D02*
D03*
X283244D02*
D03*
X278244D02*
D03*
X273244D02*
D03*
Y250441D02*
D03*
X278244D02*
D03*
X283244D02*
D03*
X288244D02*
D03*
X288638Y337551D02*
D03*
X283638D02*
D03*
X278638D02*
D03*
X273638D02*
D03*
Y358906D02*
D03*
X278638D02*
D03*
X283638D02*
D03*
X288638D02*
D03*
D40*
X172047Y330906D02*
D03*
Y338386D02*
D03*
X181496D02*
D03*
Y334646D02*
D03*
Y330906D02*
D03*
D41*
X-12598Y127756D02*
D03*
X111024Y333268D02*
D03*
Y328150D02*
D03*
X-3937Y122835D02*
D03*
Y127953D02*
D03*
X-12598Y122638D02*
D03*
X-20866Y122638D02*
D03*
Y127756D02*
D03*
X406693Y358071D02*
D03*
Y352953D02*
D03*
Y344291D02*
D03*
Y339173D02*
D03*
Y330512D02*
D03*
Y325394D02*
D03*
Y316732D02*
D03*
Y311614D02*
D03*
Y302953D02*
D03*
Y297835D02*
D03*
Y289173D02*
D03*
Y284055D02*
D03*
Y275394D02*
D03*
Y270276D02*
D03*
Y261614D02*
D03*
Y256496D02*
D03*
Y247835D02*
D03*
Y242717D02*
D03*
Y234055D02*
D03*
Y228937D02*
D03*
Y220276D02*
D03*
Y215158D02*
D03*
Y206496D02*
D03*
Y201378D02*
D03*
Y192717D02*
D03*
Y187598D02*
D03*
Y178937D02*
D03*
Y173819D02*
D03*
Y165157D02*
D03*
Y160039D02*
D03*
Y151378D02*
D03*
Y146260D02*
D03*
Y137598D02*
D03*
Y132480D02*
D03*
Y123819D02*
D03*
Y118701D02*
D03*
X406693Y110039D02*
D03*
Y104921D02*
D03*
Y96260D02*
D03*
Y91142D02*
D03*
Y82480D02*
D03*
Y77362D02*
D03*
Y68701D02*
D03*
Y63583D02*
D03*
Y54921D02*
D03*
Y49803D02*
D03*
Y41142D02*
D03*
Y36024D02*
D03*
X301217Y339370D02*
D03*
Y344488D02*
D03*
X336614Y360827D02*
D03*
Y355709D02*
D03*
X301217Y356299D02*
D03*
Y351181D02*
D03*
X300823Y230906D02*
D03*
Y236024D02*
D03*
X336221Y252362D02*
D03*
Y247244D02*
D03*
X300823Y247835D02*
D03*
Y242717D02*
D03*
X300823Y121653D02*
D03*
Y126772D02*
D03*
X336221Y143110D02*
D03*
Y137992D02*
D03*
X300823Y138583D02*
D03*
Y133465D02*
D03*
X76378Y359449D02*
D03*
Y354331D02*
D03*
X11024Y290354D02*
D03*
Y285236D02*
D03*
D42*
X67520Y334646D02*
D03*
X50591D02*
D03*
D43*
X90551Y335827D02*
D03*
Y312992D02*
D03*
D44*
X22441Y304724D02*
D03*
X35827D02*
D03*
Y297638D02*
D03*
X22441D02*
D03*
D45*
X117323Y253150D02*
D03*
X123622D02*
D03*
X79921Y298819D02*
D03*
X86221D02*
D03*
D46*
X11024Y297244D02*
D03*
Y303543D02*
D03*
D47*
X357421Y296122D02*
D03*
Y298091D02*
D03*
Y300059D02*
D03*
Y302028D02*
D03*
Y303996D02*
D03*
Y305965D02*
D03*
Y307933D02*
D03*
Y309902D02*
D03*
X338248D02*
D03*
Y307933D02*
D03*
Y305965D02*
D03*
Y303996D02*
D03*
Y302028D02*
D03*
Y300059D02*
D03*
Y298091D02*
D03*
Y296122D02*
D03*
X357019Y187802D02*
D03*
Y189771D02*
D03*
Y191739D02*
D03*
Y193708D02*
D03*
Y195676D02*
D03*
Y197645D02*
D03*
Y199613D02*
D03*
Y201582D02*
D03*
X337845D02*
D03*
Y199613D02*
D03*
Y197645D02*
D03*
Y195676D02*
D03*
Y193708D02*
D03*
Y191739D02*
D03*
Y189771D02*
D03*
Y187802D02*
D03*
X357092Y78280D02*
D03*
Y80249D02*
D03*
Y82217D02*
D03*
Y84186D02*
D03*
Y86154D02*
D03*
Y88123D02*
D03*
Y90091D02*
D03*
Y92060D02*
D03*
X337919D02*
D03*
Y90091D02*
D03*
Y88123D02*
D03*
Y86154D02*
D03*
Y84186D02*
D03*
Y82217D02*
D03*
Y80249D02*
D03*
Y78280D02*
D03*
D48*
X354724Y312598D02*
D03*
X352756D02*
D03*
X350787D02*
D03*
X348819D02*
D03*
X346850D02*
D03*
X344882D02*
D03*
X342913D02*
D03*
X340945D02*
D03*
Y293425D02*
D03*
X342913D02*
D03*
X344882D02*
D03*
X346850D02*
D03*
X348819D02*
D03*
X350787D02*
D03*
X352756D02*
D03*
X354724D02*
D03*
X354322Y204279D02*
D03*
X352353D02*
D03*
X350385D02*
D03*
X348416D02*
D03*
X346448D02*
D03*
X344479D02*
D03*
X342511D02*
D03*
X340542D02*
D03*
Y185106D02*
D03*
X342511D02*
D03*
X344479D02*
D03*
X346448D02*
D03*
X348416D02*
D03*
X350385D02*
D03*
X352353D02*
D03*
X354322D02*
D03*
X354395Y94757D02*
D03*
X352427D02*
D03*
X350458D02*
D03*
X348489D02*
D03*
X346521D02*
D03*
X344552D02*
D03*
X342584D02*
D03*
X340616D02*
D03*
Y75583D02*
D03*
X342584D02*
D03*
X344552D02*
D03*
X346521D02*
D03*
X348489D02*
D03*
X350458D02*
D03*
X352427D02*
D03*
X354395D02*
D03*
D49*
X347835Y303012D02*
D03*
X347432Y194692D02*
D03*
X347505Y85170D02*
D03*
D50*
X442618Y355512D02*
D03*
X434547Y351575D02*
D03*
Y359449D02*
D03*
X442618Y341732D02*
D03*
X434547Y337795D02*
D03*
Y345669D02*
D03*
X442618Y327953D02*
D03*
X434547Y324016D02*
D03*
Y331890D02*
D03*
X442618Y314173D02*
D03*
X434547Y310236D02*
D03*
Y318110D02*
D03*
X442618Y300394D02*
D03*
X434547Y296457D02*
D03*
Y304331D02*
D03*
X442618Y286614D02*
D03*
X434547Y282677D02*
D03*
Y290551D02*
D03*
X442618Y272835D02*
D03*
X434547Y268898D02*
D03*
Y276772D02*
D03*
X442618Y259055D02*
D03*
X434547Y255118D02*
D03*
Y262992D02*
D03*
X442618Y245276D02*
D03*
X434547Y241339D02*
D03*
Y249213D02*
D03*
X442618Y231496D02*
D03*
X434547Y227559D02*
D03*
Y235433D02*
D03*
X442618Y217717D02*
D03*
X434547Y213779D02*
D03*
Y221654D02*
D03*
X442618Y203937D02*
D03*
X434547Y200000D02*
D03*
Y207874D02*
D03*
X442618Y190157D02*
D03*
X434547Y186221D02*
D03*
Y194095D02*
D03*
X442618Y176378D02*
D03*
X434547Y172441D02*
D03*
Y180315D02*
D03*
X442618Y162598D02*
D03*
X434547Y158661D02*
D03*
Y166535D02*
D03*
X442618Y148819D02*
D03*
X434547Y144882D02*
D03*
Y152756D02*
D03*
X442618Y135039D02*
D03*
X434547Y131102D02*
D03*
Y138976D02*
D03*
X442618Y121260D02*
D03*
X434547Y117323D02*
D03*
Y125197D02*
D03*
X442618Y107480D02*
D03*
X434547Y103543D02*
D03*
Y111417D02*
D03*
X442618Y93701D02*
D03*
X434547Y89764D02*
D03*
Y97638D02*
D03*
X442618Y79921D02*
D03*
X434547Y75984D02*
D03*
Y83858D02*
D03*
X442618Y66142D02*
D03*
X434547Y62205D02*
D03*
Y70079D02*
D03*
X442618Y52362D02*
D03*
X434547Y48425D02*
D03*
Y56299D02*
D03*
X442618Y38583D02*
D03*
X434547Y34646D02*
D03*
Y42520D02*
D03*
D51*
X28602Y196909D02*
D03*
X44626D02*
D03*
X28602Y191909D02*
D03*
X44626D02*
D03*
X28602Y186909D02*
D03*
X44626D02*
D03*
X28602Y181909D02*
D03*
X44626D02*
D03*
X28602Y176909D02*
D03*
X44626D02*
D03*
X28602Y171909D02*
D03*
X44626D02*
D03*
X28602Y166909D02*
D03*
X44626D02*
D03*
X28602Y161909D02*
D03*
X44626D02*
D03*
X28602Y156909D02*
D03*
X44626D02*
D03*
X28602Y151909D02*
D03*
X44626D02*
D03*
D85*
X343701Y344094D02*
D03*
X243736Y344291D02*
D03*
Y351378D02*
D03*
X343701Y350787D02*
D03*
X343307Y235630D02*
D03*
X243342Y235827D02*
D03*
Y242913D02*
D03*
X343307Y242323D02*
D03*
X343307Y126378D02*
D03*
Y133071D02*
D03*
X243342Y126575D02*
D03*
Y133661D02*
D03*
X400394Y352362D02*
D03*
Y358661D02*
D03*
Y338583D02*
D03*
Y344882D02*
D03*
Y324803D02*
D03*
Y331102D02*
D03*
Y311024D02*
D03*
Y317323D02*
D03*
Y297244D02*
D03*
Y303543D02*
D03*
Y283465D02*
D03*
Y289764D02*
D03*
Y269685D02*
D03*
Y275984D02*
D03*
Y255906D02*
D03*
Y262205D02*
D03*
Y242126D02*
D03*
Y248425D02*
D03*
Y228346D02*
D03*
Y234646D02*
D03*
Y214567D02*
D03*
Y220866D02*
D03*
Y200787D02*
D03*
Y207087D02*
D03*
Y187008D02*
D03*
Y193307D02*
D03*
Y173228D02*
D03*
Y179527D02*
D03*
Y159449D02*
D03*
Y165748D02*
D03*
Y145669D02*
D03*
Y151969D02*
D03*
Y131890D02*
D03*
Y138189D02*
D03*
Y118110D02*
D03*
Y124409D02*
D03*
X400394Y104331D02*
D03*
Y110630D02*
D03*
Y90551D02*
D03*
Y96850D02*
D03*
Y76772D02*
D03*
Y83071D02*
D03*
Y62992D02*
D03*
Y69291D02*
D03*
Y49213D02*
D03*
Y55512D02*
D03*
Y35433D02*
D03*
Y41732D02*
D03*
D86*
X9843Y258268D02*
X14961D01*
X9331D02*
X9843Y258780D01*
X-49000Y258268D02*
X9331D01*
X21681Y277980D02*
X22047Y278346D01*
X326772Y330315D02*
X329134Y332677D01*
X329134D01*
X289370Y330315D02*
X326772D01*
X278740Y330315D02*
X289370D01*
X278740Y330315D02*
X278740Y330315D01*
X289370D02*
X289370Y330315D01*
X328346Y224213D02*
Y224410D01*
Y223819D02*
Y224213D01*
X327362Y223425D02*
X327953D01*
X325590Y221654D02*
X327362Y223425D01*
X289370Y221654D02*
X325590D01*
X327953Y223425D02*
X328346Y223819D01*
X278422Y221729D02*
X289295D01*
X278346Y221654D02*
X278422Y221729D01*
X289295D02*
X289370Y221654D01*
Y112598D02*
X326378D01*
X328346Y114567D02*
Y114961D01*
X326378Y112598D02*
X328346Y114567D01*
X278346Y112598D02*
X289370D01*
X21681Y275618D02*
Y277980D01*
X21260Y275197D02*
X21681Y275618D01*
X14961Y258268D02*
X21260Y264567D01*
Y275197D01*
D87*
X143307Y285827D02*
X143701Y285433D01*
X143307Y285827D02*
Y290551D01*
X138386Y282874D02*
X141929D01*
X138287Y282776D02*
X138386Y282874D01*
X141929D02*
X143307Y284252D01*
X138287Y285335D02*
Y288878D01*
X135925Y291240D02*
X138287Y288878D01*
X135531Y291240D02*
X135925D01*
X134252Y292520D02*
X135531Y291240D01*
X134252Y292520D02*
Y292913D01*
X121555Y288484D02*
X126378Y293307D01*
X121555Y285335D02*
Y288484D01*
D88*
X9843Y268779D02*
D03*
Y258780D02*
D03*
D89*
X524843Y36850D02*
D03*
Y356850D02*
D03*
D90*
X489843Y353070D02*
D03*
X499843Y348070D02*
D03*
X489843Y343070D02*
D03*
X499843Y338070D02*
D03*
X489843Y333070D02*
D03*
X499843Y328070D02*
D03*
X489843Y323070D02*
D03*
X499843Y318070D02*
D03*
X489843Y297640D02*
D03*
X499843Y292640D02*
D03*
X489843Y287640D02*
D03*
X499843Y282640D02*
D03*
X489843Y277640D02*
D03*
X499843Y272640D02*
D03*
X489843Y267640D02*
D03*
X499843Y262640D02*
D03*
X489843Y242200D02*
D03*
X499843Y237200D02*
D03*
X489843Y232200D02*
D03*
X499843Y227200D02*
D03*
X489843Y222200D02*
D03*
X499843Y217200D02*
D03*
X489843Y212200D02*
D03*
X499843Y207200D02*
D03*
X489843Y186770D02*
D03*
X499843Y181770D02*
D03*
X489843Y176770D02*
D03*
X499843Y171770D02*
D03*
X489843Y166770D02*
D03*
X499843Y161770D02*
D03*
X489843Y156770D02*
D03*
X499843Y151770D02*
D03*
X489843Y131340D02*
D03*
X499843Y126340D02*
D03*
X489843Y121340D02*
D03*
X499843Y116340D02*
D03*
X489843Y111340D02*
D03*
X499843Y106340D02*
D03*
X489843Y101340D02*
D03*
X499843Y96340D02*
D03*
X489843Y75910D02*
D03*
X499843Y70910D02*
D03*
X489843Y65910D02*
D03*
X499843Y60910D02*
D03*
X489843Y55910D02*
D03*
X499843Y50910D02*
D03*
X489843Y45910D02*
D03*
X499843Y40910D02*
D03*
D91*
X539331Y367618D02*
D03*
Y26083D02*
D03*
X482993Y251850D02*
D03*
Y196850D02*
D03*
Y141850D02*
D03*
D92*
X163779Y270472D02*
D03*
X168898Y262992D02*
D03*
Y265748D02*
D03*
X40157Y236051D02*
D03*
X39691Y222120D02*
D03*
X39370Y204331D02*
D03*
X5906Y210630D02*
D03*
Y217717D02*
D03*
X21260Y223228D02*
D03*
X21654Y230709D02*
D03*
X5906Y236614D02*
D03*
Y243701D02*
D03*
X19685Y196850D02*
D03*
X168898Y268504D02*
D03*
X166535Y270472D02*
D03*
X336221Y218110D02*
D03*
Y103150D02*
D03*
Y109055D02*
D03*
Y212598D02*
D03*
X336614Y326772D02*
D03*
X321536Y82197D02*
D03*
X322047Y93701D02*
D03*
Y203150D02*
D03*
X321428Y191724D02*
D03*
X320920Y300276D02*
D03*
X322441Y311417D02*
D03*
X-36990Y173697D02*
D03*
X-39370Y254724D02*
D03*
Y261811D02*
D03*
X127165Y331102D02*
D03*
Y333465D02*
D03*
Y335827D02*
D03*
X-35039Y251969D02*
D03*
X329528Y211417D02*
D03*
X326772D02*
D03*
X331890D02*
D03*
X329528Y101969D02*
D03*
X326772D02*
D03*
X331890D02*
D03*
X289370Y304331D02*
D03*
Y221654D02*
D03*
Y330315D02*
D03*
X283465Y317323D02*
D03*
X311024Y310630D02*
D03*
X143307Y347244D02*
D03*
X140551D02*
D03*
X137795D02*
D03*
X96063Y268504D02*
D03*
X92913D02*
D03*
X87402Y286221D02*
D03*
X83858D02*
D03*
X77165Y287795D02*
D03*
X73622Y292126D02*
D03*
X98425Y255512D02*
D03*
Y259055D02*
D03*
X-12598Y157087D02*
D03*
X-12205Y245669D02*
D03*
X-12598Y131890D02*
D03*
X38976Y268110D02*
D03*
X35827D02*
D03*
X32677D02*
D03*
X152362Y285827D02*
D03*
Y290551D02*
D03*
X105905Y282283D02*
D03*
X143307Y270472D02*
D03*
X148031D02*
D03*
X152756D02*
D03*
X105905Y276772D02*
D03*
X143307Y331496D02*
D03*
Y336221D02*
D03*
Y333858D02*
D03*
X128347Y253150D02*
D03*
X196063Y334646D02*
D03*
X127165Y340158D02*
D03*
Y344882D02*
D03*
Y342520D02*
D03*
X11024Y308268D02*
D03*
X53150Y329528D02*
D03*
X50000D02*
D03*
X46850D02*
D03*
X44094Y331890D02*
D03*
X47244Y318504D02*
D03*
X52362D02*
D03*
X57087D02*
D03*
X62205Y326772D02*
D03*
X66142D02*
D03*
X70079D02*
D03*
X40945Y328740D02*
D03*
Y311417D02*
D03*
Y315748D02*
D03*
Y320472D02*
D03*
Y325197D02*
D03*
Y331890D02*
D03*
X61811Y354724D02*
D03*
X59055D02*
D03*
X56299D02*
D03*
X33858Y359055D02*
D03*
Y364961D02*
D03*
X34646Y347638D02*
D03*
X91732Y298819D02*
D03*
X57874Y305512D02*
D03*
X54331D02*
D03*
X50787D02*
D03*
X47244D02*
D03*
X336614Y320866D02*
D03*
X53937Y196850D02*
D03*
Y191732D02*
D03*
Y187008D02*
D03*
Y181890D02*
D03*
X19685Y151969D02*
D03*
X53937D02*
D03*
X19685Y176772D02*
D03*
X53937D02*
D03*
Y172047D02*
D03*
Y166929D02*
D03*
X-39370Y170079D02*
D03*
X53937Y161811D02*
D03*
Y157087D02*
D03*
X-3937Y131890D02*
D03*
X-20866D02*
D03*
X-39370Y135433D02*
D03*
Y144882D02*
D03*
Y154331D02*
D03*
Y163779D02*
D03*
Y182677D02*
D03*
Y204724D02*
D03*
Y214173D02*
D03*
Y223622D02*
D03*
Y233071D02*
D03*
Y242520D02*
D03*
Y248819D02*
D03*
Y264567D02*
D03*
X446850Y38583D02*
D03*
Y52362D02*
D03*
Y66142D02*
D03*
Y79921D02*
D03*
Y93701D02*
D03*
Y107480D02*
D03*
Y121260D02*
D03*
Y135039D02*
D03*
Y148819D02*
D03*
Y162598D02*
D03*
Y176378D02*
D03*
Y190157D02*
D03*
Y203937D02*
D03*
Y217717D02*
D03*
Y231496D02*
D03*
Y245276D02*
D03*
Y259055D02*
D03*
Y272835D02*
D03*
Y286614D02*
D03*
Y300394D02*
D03*
Y314173D02*
D03*
Y327953D02*
D03*
Y341732D02*
D03*
Y355512D02*
D03*
X346850Y129528D02*
D03*
Y122047D02*
D03*
Y238976D02*
D03*
Y230709D02*
D03*
X251181Y142126D02*
D03*
X248425D02*
D03*
X248031Y118110D02*
D03*
X250787D02*
D03*
X251181Y251181D02*
D03*
X248425D02*
D03*
X248031Y227165D02*
D03*
X250787D02*
D03*
X332275Y175145D02*
D03*
Y177901D02*
D03*
Y180657D02*
D03*
X322038Y198767D02*
D03*
Y196011D02*
D03*
X343692Y198373D02*
D03*
X351566D02*
D03*
X343692Y190893D02*
D03*
X351172D02*
D03*
X335030Y203885D02*
D03*
X332348Y65623D02*
D03*
Y68379D02*
D03*
Y71135D02*
D03*
X322112Y89245D02*
D03*
Y86489D02*
D03*
X343765Y88851D02*
D03*
X351639D02*
D03*
X343765Y81371D02*
D03*
X351245D02*
D03*
X335104Y94363D02*
D03*
X351575Y299213D02*
D03*
X344094D02*
D03*
X351969Y306693D02*
D03*
X344094D02*
D03*
X335433Y312205D02*
D03*
X328740Y319685D02*
D03*
X325984D02*
D03*
X331102D02*
D03*
X322441Y304331D02*
D03*
Y307087D02*
D03*
X332677Y283465D02*
D03*
Y286221D02*
D03*
Y288976D02*
D03*
X346850Y347638D02*
D03*
Y338976D02*
D03*
X269291Y221063D02*
D03*
X292520Y255709D02*
D03*
Y258465D02*
D03*
X283465Y261221D02*
D03*
X269291Y258858D02*
D03*
Y256102D02*
D03*
X278346Y261221D02*
D03*
X311417Y256496D02*
D03*
Y253740D02*
D03*
X337795Y256102D02*
D03*
X335039D02*
D03*
X337402Y222638D02*
D03*
Y225394D02*
D03*
X269291Y223819D02*
D03*
X320472Y258858D02*
D03*
X269291Y111811D02*
D03*
X292520Y146457D02*
D03*
Y149213D02*
D03*
X283465Y151969D02*
D03*
X269291Y149606D02*
D03*
Y146850D02*
D03*
X278346Y151969D02*
D03*
X311417Y147244D02*
D03*
Y144488D02*
D03*
X337795Y146850D02*
D03*
X335039D02*
D03*
X337402Y113386D02*
D03*
Y116142D02*
D03*
X269291Y114567D02*
D03*
X320472Y149606D02*
D03*
X289370Y112598D02*
D03*
X251181Y335827D02*
D03*
X248425D02*
D03*
X248819Y359842D02*
D03*
X251575D02*
D03*
X278740Y369685D02*
D03*
X283858D02*
D03*
X269685Y367323D02*
D03*
Y364567D02*
D03*
X292913Y364173D02*
D03*
Y366929D02*
D03*
X311811Y364961D02*
D03*
Y362205D02*
D03*
X338189Y364567D02*
D03*
X335433D02*
D03*
X320866Y367323D02*
D03*
X337795Y333858D02*
D03*
Y331102D02*
D03*
X269685Y332283D02*
D03*
Y329528D02*
D03*
X341339Y171260D02*
D03*
Y61811D02*
D03*
X342126Y279528D02*
D03*
D93*
X360236Y106102D02*
D03*
Y102559D02*
D03*
X359842Y215158D02*
D03*
Y211614D02*
D03*
X338067Y97502D02*
D03*
X340429Y100143D02*
D03*
X338067Y206951D02*
D03*
X340429Y209592D02*
D03*
X362992Y324016D02*
D03*
Y320472D02*
D03*
X340823Y317860D02*
D03*
X338461Y315218D02*
D03*
M02*
