G04*
G04 #@! TF.GenerationSoftware,Altium Limited,Altium Designer,22.7.1 (60)*
G04*
G04 Layer_Color=16711935*
%FSLAX25Y25*%
%MOIN*%
G70*
G04*
G04 #@! TF.SameCoordinates,C75278F5-7536-4836-950E-C37C814CBE2D*
G04*
G04*
G04 #@! TF.FilePolarity,Positive*
G04*
G01*
G75*
%ADD13C,0.00394*%
D13*
X-29445Y107563D02*
X-28331Y108024D01*
X-27870Y109138D01*
X-23933Y115437D02*
X-24952Y115303D01*
X-25902Y114910D01*
X-26717Y114284D01*
X-27343Y113469D01*
X-27736Y112519D01*
X-27870Y111500D01*
X-38814Y268783D02*
X-37795Y268918D01*
X-36846Y269311D01*
X-36031Y269937D01*
X-35405Y270752D01*
X-35012Y271702D01*
X-34877Y272721D01*
X-27870Y284925D02*
X-28331Y286039D01*
X-29445Y286500D01*
X-34877Y121343D02*
X-35012Y122362D01*
X-35405Y123311D01*
X-36031Y124126D01*
X-36846Y124752D01*
X-37795Y125145D01*
X-38814Y125279D01*
X-27870Y282563D02*
X-27736Y281544D01*
X-27343Y280594D01*
X-26717Y279779D01*
X-25902Y279153D01*
X-24952Y278760D01*
X-23933Y278626D01*
X-38028Y186008D02*
X-37045Y186111D01*
X-36106Y186416D01*
X-35251Y186910D01*
X-34517Y187571D01*
X-33936Y188370D01*
X-33534Y189272D01*
X-33329Y190238D01*
Y191226D01*
X-33534Y192192D01*
X-33936Y193095D01*
X-34517Y193894D01*
X-35251Y194554D01*
X-36106Y195048D01*
X-37045Y195353D01*
X-38028Y195457D01*
X8001Y393701D02*
X7036Y393642D01*
X6086Y393468D01*
X5164Y393181D01*
X4283Y392784D01*
X3456Y392284D01*
X2695Y391689D01*
X2012Y391005D01*
X1416Y390245D01*
X916Y389418D01*
X520Y388537D01*
X233Y387615D01*
X58Y386664D01*
X0Y385700D01*
X-0Y7900D02*
X70Y6936D01*
X256Y5988D01*
X555Y5070D01*
X963Y4194D01*
X1473Y3373D01*
X2078Y2620D01*
X2770Y1946D01*
X3538Y1359D01*
X4371Y870D01*
X5257Y484D01*
X6183Y209D01*
X7135Y46D01*
X8100Y0D01*
X547638D02*
X548606Y59D01*
X549560Y233D01*
X550486Y522D01*
X551370Y920D01*
X552200Y1422D01*
X552964Y2020D01*
X553649Y2706D01*
X554248Y3469D01*
X554749Y4299D01*
X555147Y5184D01*
X555436Y6109D01*
X555611Y7063D01*
X555669Y8032D01*
Y385669D02*
X555611Y386637D01*
X555436Y387591D01*
X555147Y388517D01*
X554749Y389402D01*
X554248Y390232D01*
X553649Y390995D01*
X552964Y391681D01*
X552200Y392279D01*
X551370Y392781D01*
X550486Y393179D01*
X549560Y393467D01*
X548606Y393642D01*
X547638Y393701D01*
X-27870Y109138D02*
Y111500D01*
X-58500Y125279D02*
X-55431D01*
X-58500Y268783D02*
X-55431D01*
X-27870Y282563D02*
Y284925D01*
X-34877Y272721D02*
Y286500D01*
Y107563D02*
Y121343D01*
Y107563D02*
X-29445D01*
X-34877Y286500D02*
X-29445D01*
X-55431Y125279D02*
X-38814D01*
X-55431Y268783D02*
X-38814D01*
X-23933Y115437D02*
X-75D01*
X-58500Y125279D02*
Y186008D01*
Y195457D02*
Y268783D01*
Y186008D02*
X-55431D01*
X-58500Y195457D02*
X-55431D01*
Y186008D02*
X-38028D01*
X-55431Y195457D02*
X-38028D01*
X-75Y115437D02*
X-0D01*
Y7900D02*
Y115437D01*
X-23933Y278626D02*
X0D01*
Y385700D01*
X8100Y0D02*
X547638D01*
X8001Y393701D02*
X547638D01*
X555669Y8032D02*
Y385669D01*
M02*
