G04*
G04 #@! TF.GenerationSoftware,Altium Limited,Altium Designer,22.7.1 (60)*
G04*
G04 Layer_Physical_Order=3*
G04 Layer_Color=16440176*
%FSLAX25Y25*%
%MOIN*%
G70*
G04*
G04 #@! TF.SameCoordinates,C75278F5-7536-4836-950E-C37C814CBE2D*
G04*
G04*
G04 #@! TF.FilePolarity,Positive*
G04*
G01*
G75*
%ADD14C,0.00787*%
%ADD15C,0.01000*%
%ADD92C,0.02362*%
%ADD93C,0.01575*%
G36*
X135433Y330709D02*
X160236Y305906D01*
Y261826D01*
X96457D01*
X96149Y261765D01*
X95889Y261591D01*
X95715Y261331D01*
X95654Y261024D01*
Y253543D01*
X95715Y253236D01*
X95889Y252976D01*
X96149Y252802D01*
X96457Y252741D01*
X126379D01*
X126385Y252742D01*
X126678Y252034D01*
X127231Y251481D01*
X127955Y251181D01*
X128738D01*
X129462Y251481D01*
X130015Y252034D01*
X130308Y252742D01*
X130314Y252741D01*
X160236D01*
Y248031D01*
X45276D01*
Y301181D01*
X15748D01*
Y377953D01*
X135433D01*
Y330709D01*
D02*
G37*
G36*
X343701Y277953D02*
X224410D01*
Y173228D01*
X331757D01*
X331883Y173176D01*
X332666D01*
X332791Y173228D01*
X342913D01*
Y169291D01*
X224410D01*
Y63386D01*
X342913D01*
Y59842D01*
X219291D01*
Y253543D01*
X130314D01*
X130015Y254265D01*
X129462Y254818D01*
X128738Y255118D01*
X127955D01*
X127231Y254818D01*
X126678Y254265D01*
X126379Y253543D01*
X96457D01*
Y261024D01*
X219291D01*
Y281102D01*
X343701D01*
Y277953D01*
D02*
G37*
G36*
X450787Y25591D02*
X347638D01*
Y78740D01*
X340945D01*
Y83071D01*
X334646D01*
X331890Y80315D01*
X322047D01*
X316929Y82677D01*
X246063D01*
X226378Y102362D01*
Y165354D01*
X347638D01*
Y188583D01*
X344565D01*
X344465Y189083D01*
X344807Y189224D01*
X345361Y189778D01*
X345660Y190501D01*
Y191285D01*
X345361Y192008D01*
X344807Y192562D01*
X344083Y192861D01*
X343300D01*
X342577Y192562D01*
X342023Y192008D01*
X341723Y191285D01*
Y190501D01*
X342023Y189778D01*
X342577Y189224D01*
X342918Y189083D01*
X342819Y188583D01*
X340945D01*
Y192913D01*
X335039D01*
X332283Y190157D01*
X318110D01*
X311417Y194882D01*
X226378D01*
Y273228D01*
X348031D01*
Y296457D01*
X341339D01*
Y301153D01*
X335461D01*
X332733Y298425D01*
X319666D01*
X311417Y306299D01*
X160920D01*
X160804Y306473D01*
X136236Y331041D01*
Y377953D01*
X450787D01*
Y25591D01*
D02*
G37*
%LPC*%
G36*
X34250Y366929D02*
X33467D01*
X32743Y366629D01*
X32189Y366076D01*
X31890Y365352D01*
Y364569D01*
X32189Y363846D01*
X32743Y363292D01*
X33467Y362992D01*
X34250D01*
X34973Y363292D01*
X35527Y363846D01*
X35827Y364569D01*
Y365352D01*
X35527Y366076D01*
X34973Y366629D01*
X34250Y366929D01*
D02*
G37*
G36*
X62203Y356693D02*
X61419D01*
X60696Y356393D01*
X60433Y356130D01*
X60170Y356393D01*
X59447Y356693D01*
X58664D01*
X57940Y356393D01*
X57677Y356130D01*
X57414Y356393D01*
X56691Y356693D01*
X55908D01*
X55184Y356393D01*
X54630Y355839D01*
X54331Y355116D01*
Y354333D01*
X54630Y353609D01*
X55184Y353056D01*
X55908Y352756D01*
X56691D01*
X57414Y353056D01*
X57677Y353319D01*
X57940Y353056D01*
X58664Y352756D01*
X59447D01*
X60170Y353056D01*
X60433Y353319D01*
X60696Y353056D01*
X61419Y352756D01*
X62203D01*
X62926Y353056D01*
X63480Y353609D01*
X63779Y354333D01*
Y355116D01*
X63480Y355839D01*
X62926Y356393D01*
X62203Y356693D01*
D02*
G37*
G36*
X35037Y349606D02*
X34254D01*
X33531Y349307D01*
X32977Y348753D01*
X32677Y348029D01*
Y347246D01*
X32977Y346523D01*
X33531Y345969D01*
X34254Y345669D01*
X35037D01*
X35761Y345969D01*
X36314Y346523D01*
X36614Y347246D01*
Y348029D01*
X36314Y348753D01*
X35761Y349307D01*
X35037Y349606D01*
D02*
G37*
G36*
X44486Y333858D02*
X43703D01*
X42979Y333559D01*
X42520Y333099D01*
X42060Y333559D01*
X41336Y333858D01*
X40553D01*
X39830Y333559D01*
X39276Y333005D01*
X38976Y332281D01*
Y331498D01*
X39276Y330775D01*
X39736Y330315D01*
X39276Y329855D01*
X38976Y329132D01*
Y328349D01*
X39276Y327625D01*
X39606Y327295D01*
X39776Y326969D01*
X39606Y326642D01*
X39276Y326312D01*
X38976Y325588D01*
Y324805D01*
X39276Y324082D01*
X39830Y323528D01*
X40553Y323228D01*
X41336D01*
X42060Y323528D01*
X42614Y324082D01*
X42913Y324805D01*
Y325588D01*
X42614Y326312D01*
X42284Y326642D01*
X42114Y326969D01*
X42284Y327295D01*
X42614Y327625D01*
X42913Y328349D01*
Y329132D01*
X42614Y329855D01*
X42154Y330315D01*
X42520Y330681D01*
X42979Y330221D01*
X43703Y329921D01*
X44420D01*
X44486Y329921D01*
X44882Y329544D01*
Y329136D01*
X45182Y328413D01*
X45735Y327859D01*
X46459Y327559D01*
X47242D01*
X47965Y327859D01*
X48425Y328319D01*
X48885Y327859D01*
X49608Y327559D01*
X50392D01*
X51115Y327859D01*
X51575Y328319D01*
X52034Y327859D01*
X52758Y327559D01*
X53541D01*
X54265Y327859D01*
X54818Y328413D01*
X55118Y329136D01*
Y329919D01*
X54818Y330643D01*
X54265Y331196D01*
X53541Y331496D01*
X52758D01*
X52034Y331196D01*
X51575Y330737D01*
X51115Y331196D01*
X50392Y331496D01*
X49608D01*
X48885Y331196D01*
X48425Y330737D01*
X47965Y331196D01*
X47242Y331496D01*
X46525D01*
X46459Y331496D01*
X46063Y331873D01*
Y332281D01*
X45763Y333005D01*
X45210Y333559D01*
X44486Y333858D01*
D02*
G37*
G36*
X127557Y337795D02*
X126774D01*
X126050Y337496D01*
X125496Y336942D01*
X125197Y336218D01*
Y335435D01*
X125496Y334712D01*
X125563Y334646D01*
X125496Y334580D01*
X125197Y333856D01*
Y333073D01*
X125496Y332349D01*
X125563Y332283D01*
X125496Y332217D01*
X125197Y331494D01*
Y330711D01*
X125496Y329987D01*
X126050Y329433D01*
X126774Y329134D01*
X127557D01*
X128280Y329433D01*
X128834Y329987D01*
X129134Y330711D01*
Y331494D01*
X128834Y332217D01*
X128768Y332283D01*
X128834Y332349D01*
X129134Y333073D01*
Y333856D01*
X128834Y334580D01*
X128768Y334646D01*
X128834Y334712D01*
X129134Y335435D01*
Y336218D01*
X128834Y336942D01*
X128280Y337496D01*
X127557Y337795D01*
D02*
G37*
G36*
X70470Y328740D02*
X69687D01*
X68964Y328440D01*
X68410Y327887D01*
X68381Y327817D01*
X67840D01*
X67811Y327887D01*
X67257Y328440D01*
X66533Y328740D01*
X65750D01*
X65027Y328440D01*
X64473Y327887D01*
X64444Y327817D01*
X63903D01*
X63873Y327887D01*
X63320Y328440D01*
X62596Y328740D01*
X61813D01*
X61090Y328440D01*
X60536Y327887D01*
X60236Y327163D01*
Y326380D01*
X60536Y325657D01*
X61090Y325103D01*
X61813Y324803D01*
X62596D01*
X63320Y325103D01*
X63873Y325657D01*
X63903Y325727D01*
X64444D01*
X64473Y325657D01*
X65027Y325103D01*
X65750Y324803D01*
X66533D01*
X67257Y325103D01*
X67811Y325657D01*
X67840Y325727D01*
X68381D01*
X68410Y325657D01*
X68964Y325103D01*
X69687Y324803D01*
X70470D01*
X71194Y325103D01*
X71748Y325657D01*
X72047Y326380D01*
Y327163D01*
X71748Y327887D01*
X71194Y328440D01*
X70470Y328740D01*
D02*
G37*
G36*
X41336Y322441D02*
X40553D01*
X39830Y322141D01*
X39276Y321587D01*
X38976Y320864D01*
Y320081D01*
X39276Y319357D01*
X39830Y318804D01*
X40553Y318504D01*
X41336D01*
X42060Y318804D01*
X42614Y319357D01*
X42913Y320081D01*
Y320864D01*
X42614Y321587D01*
X42060Y322141D01*
X41336Y322441D01*
D02*
G37*
G36*
X57478Y320472D02*
X56695D01*
X55971Y320173D01*
X55418Y319619D01*
X55118Y318896D01*
Y318112D01*
X55418Y317389D01*
X55971Y316835D01*
X56695Y316535D01*
X57478D01*
X58202Y316835D01*
X58755Y317389D01*
X59055Y318112D01*
Y318896D01*
X58755Y319619D01*
X58202Y320173D01*
X57478Y320472D01*
D02*
G37*
G36*
X52754D02*
X51971D01*
X51247Y320173D01*
X50693Y319619D01*
X50394Y318896D01*
Y318112D01*
X50693Y317389D01*
X51247Y316835D01*
X51971Y316535D01*
X52754D01*
X53477Y316835D01*
X54031Y317389D01*
X54331Y318112D01*
Y318896D01*
X54031Y319619D01*
X53477Y320173D01*
X52754Y320472D01*
D02*
G37*
G36*
X47636D02*
X46852D01*
X46129Y320173D01*
X45575Y319619D01*
X45276Y318896D01*
Y318112D01*
X45575Y317389D01*
X46129Y316835D01*
X46852Y316535D01*
X47636D01*
X48359Y316835D01*
X48913Y317389D01*
X49213Y318112D01*
Y318896D01*
X48913Y319619D01*
X48359Y320173D01*
X47636Y320472D01*
D02*
G37*
G36*
X41336Y317717D02*
X40553D01*
X39830Y317417D01*
X39276Y316863D01*
X38976Y316140D01*
Y315356D01*
X39276Y314633D01*
X39830Y314079D01*
X40389Y313848D01*
Y313318D01*
X39830Y313086D01*
X39276Y312532D01*
X38976Y311809D01*
Y311026D01*
X39276Y310302D01*
X39830Y309749D01*
X40553Y309449D01*
X41336D01*
X42060Y309749D01*
X42614Y310302D01*
X42913Y311026D01*
Y311809D01*
X42614Y312532D01*
X42060Y313086D01*
X41501Y313318D01*
Y313848D01*
X42060Y314079D01*
X42614Y314633D01*
X42913Y315356D01*
Y316140D01*
X42614Y316863D01*
X42060Y317417D01*
X41336Y317717D01*
D02*
G37*
G36*
X92124Y300787D02*
X91341D01*
X90617Y300488D01*
X90064Y299934D01*
X89764Y299211D01*
Y298427D01*
X90064Y297704D01*
X90617Y297150D01*
X91341Y296850D01*
X92124D01*
X92847Y297150D01*
X93401Y297704D01*
X93701Y298427D01*
Y299211D01*
X93401Y299934D01*
X92847Y300488D01*
X92124Y300787D01*
D02*
G37*
G36*
X74014Y294094D02*
X73230D01*
X72507Y293795D01*
X71953Y293241D01*
X71653Y292517D01*
Y291734D01*
X71953Y291011D01*
X72507Y290457D01*
X73230Y290158D01*
X74014D01*
X74737Y290457D01*
X75291Y291011D01*
X75590Y291734D01*
Y292517D01*
X75291Y293241D01*
X74737Y293795D01*
X74014Y294094D01*
D02*
G37*
G36*
X152754Y292520D02*
X151971D01*
X151247Y292220D01*
X150693Y291666D01*
X150394Y290943D01*
Y290160D01*
X150693Y289436D01*
X151247Y288882D01*
X151971Y288583D01*
X152754D01*
X153477Y288882D01*
X154031Y289436D01*
X154331Y290160D01*
Y290943D01*
X154031Y291666D01*
X153477Y292220D01*
X152754Y292520D01*
D02*
G37*
G36*
X87793Y288189D02*
X87010D01*
X86286Y287889D01*
X85957Y287559D01*
X85630Y287389D01*
X85303Y287559D01*
X84973Y287889D01*
X84250Y288189D01*
X83467D01*
X82743Y287889D01*
X82189Y287335D01*
X81890Y286612D01*
Y285829D01*
X82189Y285105D01*
X82743Y284552D01*
X83467Y284252D01*
X84250D01*
X84973Y284552D01*
X85303Y284882D01*
X85630Y285052D01*
X85957Y284882D01*
X86286Y284552D01*
X87010Y284252D01*
X87793D01*
X88517Y284552D01*
X89070Y285105D01*
X89370Y285829D01*
Y286612D01*
X89070Y287335D01*
X88517Y287889D01*
X87793Y288189D01*
D02*
G37*
G36*
X77557Y289764D02*
X76774D01*
X76050Y289464D01*
X75497Y288910D01*
X75197Y288187D01*
Y287404D01*
X75497Y286680D01*
X76050Y286126D01*
X76774Y285827D01*
X77557D01*
X78280Y286126D01*
X78834Y286680D01*
X79134Y287404D01*
Y288187D01*
X78834Y288910D01*
X78280Y289464D01*
X77557Y289764D01*
D02*
G37*
G36*
X152754Y287795D02*
X151971D01*
X151247Y287496D01*
X150693Y286942D01*
X150394Y286218D01*
Y285435D01*
X150693Y284712D01*
X151247Y284158D01*
X151971Y283858D01*
X152754D01*
X153477Y284158D01*
X154031Y284712D01*
X154331Y285435D01*
Y286218D01*
X154031Y286942D01*
X153477Y287496D01*
X152754Y287795D01*
D02*
G37*
G36*
X106297Y284252D02*
X105514D01*
X104790Y283952D01*
X104237Y283399D01*
X103937Y282675D01*
Y281892D01*
X104237Y281168D01*
X104790Y280615D01*
X105514Y280315D01*
X106297D01*
X107021Y280615D01*
X107574Y281168D01*
X107874Y281892D01*
Y282675D01*
X107574Y283399D01*
X107021Y283952D01*
X106297Y284252D01*
D02*
G37*
G36*
X96455Y270472D02*
X95671D01*
X94948Y270173D01*
X94488Y269713D01*
X94029Y270173D01*
X93305Y270472D01*
X92522D01*
X91798Y270173D01*
X91245Y269619D01*
X90945Y268896D01*
Y268112D01*
X91245Y267389D01*
X91798Y266835D01*
X92522Y266535D01*
X93305D01*
X94029Y266835D01*
X94488Y267295D01*
X94948Y266835D01*
X95671Y266535D01*
X96455D01*
X97178Y266835D01*
X97732Y267389D01*
X98032Y268112D01*
Y268896D01*
X97732Y269619D01*
X97178Y270173D01*
X96455Y270472D01*
D02*
G37*
G36*
X153147Y272441D02*
X152364D01*
X151641Y272141D01*
X151087Y271587D01*
X150787Y270864D01*
Y270081D01*
X151087Y269357D01*
X151641Y268804D01*
X152364Y268504D01*
X153147D01*
X153871Y268804D01*
X154425Y269357D01*
X154724Y270081D01*
Y270864D01*
X154425Y271587D01*
X153871Y272141D01*
X153147Y272441D01*
D02*
G37*
G36*
X148423D02*
X147640D01*
X146916Y272141D01*
X146363Y271587D01*
X146063Y270864D01*
Y270081D01*
X146363Y269357D01*
X146916Y268804D01*
X147640Y268504D01*
X148423D01*
X149147Y268804D01*
X149700Y269357D01*
X150000Y270081D01*
Y270864D01*
X149700Y271587D01*
X149147Y272141D01*
X148423Y272441D01*
D02*
G37*
G36*
X143699D02*
X142915D01*
X142192Y272141D01*
X141638Y271587D01*
X141339Y270864D01*
Y270081D01*
X141638Y269357D01*
X142192Y268804D01*
X142915Y268504D01*
X143699D01*
X144422Y268804D01*
X144976Y269357D01*
X145276Y270081D01*
Y270864D01*
X144976Y271587D01*
X144422Y272141D01*
X143699Y272441D01*
D02*
G37*
G36*
X284250Y371654D02*
X283467D01*
X282743Y371354D01*
X282189Y370800D01*
X281890Y370077D01*
Y369293D01*
X282189Y368570D01*
X282743Y368016D01*
X283467Y367717D01*
X284250D01*
X284973Y368016D01*
X285527Y368570D01*
X285827Y369293D01*
Y370077D01*
X285527Y370800D01*
X284973Y371354D01*
X284250Y371654D01*
D02*
G37*
G36*
X338580Y366535D02*
X337797D01*
X337074Y366236D01*
X336811Y365973D01*
X336548Y366236D01*
X335825Y366535D01*
X335041D01*
X334318Y366236D01*
X333764Y365682D01*
X333465Y364959D01*
Y364175D01*
X333764Y363452D01*
X334318Y362898D01*
X335041Y362598D01*
X335825D01*
X336548Y362898D01*
X336811Y363161D01*
X337074Y362898D01*
X337797Y362598D01*
X338580D01*
X339304Y362898D01*
X339858Y363452D01*
X340158Y364175D01*
Y364959D01*
X339858Y365682D01*
X339304Y366236D01*
X338580Y366535D01*
D02*
G37*
G36*
X270077Y369291D02*
X269293D01*
X268570Y368992D01*
X268016Y368438D01*
X267717Y367714D01*
Y366931D01*
X268016Y366208D01*
X268279Y365945D01*
X268016Y365682D01*
X267717Y364959D01*
Y364175D01*
X268016Y363452D01*
X268570Y362898D01*
X269293Y362598D01*
X270077D01*
X270800Y362898D01*
X271354Y363452D01*
X271654Y364175D01*
Y364959D01*
X271354Y365682D01*
X271091Y365945D01*
X271354Y366208D01*
X271654Y366931D01*
Y367714D01*
X271354Y368438D01*
X270800Y368992D01*
X270077Y369291D01*
D02*
G37*
G36*
X293305Y368898D02*
X292522D01*
X291798Y368598D01*
X291245Y368044D01*
X290945Y367321D01*
Y366538D01*
X291245Y365814D01*
X291508Y365551D01*
X291245Y365288D01*
X290945Y364565D01*
Y363782D01*
X291245Y363058D01*
X291798Y362504D01*
X292522Y362205D01*
X293305D01*
X294028Y362504D01*
X294582Y363058D01*
X294882Y363782D01*
Y364565D01*
X294582Y365288D01*
X294319Y365551D01*
X294582Y365814D01*
X294882Y366538D01*
Y367321D01*
X294582Y368044D01*
X294028Y368598D01*
X293305Y368898D01*
D02*
G37*
G36*
X251966Y361811D02*
X251183D01*
X250460Y361511D01*
X250197Y361248D01*
X249934Y361511D01*
X249211Y361811D01*
X248427D01*
X247704Y361511D01*
X247150Y360958D01*
X246850Y360234D01*
Y359451D01*
X247150Y358727D01*
X247704Y358174D01*
X248427Y357874D01*
X249211D01*
X249934Y358174D01*
X250197Y358437D01*
X250460Y358174D01*
X251183Y357874D01*
X251966D01*
X252690Y358174D01*
X253244Y358727D01*
X253543Y359451D01*
Y360234D01*
X253244Y360958D01*
X252690Y361511D01*
X251966Y361811D01*
D02*
G37*
G36*
X312203Y366929D02*
X311420D01*
X310696Y366629D01*
X310142Y366076D01*
X309842Y365352D01*
Y364569D01*
X310142Y363846D01*
X310405Y363583D01*
X310142Y363320D01*
X309842Y362596D01*
Y361813D01*
X310142Y361090D01*
X310696Y360536D01*
X311420Y360236D01*
X312203D01*
X312926Y360536D01*
X313480Y361090D01*
X313779Y361813D01*
Y362596D01*
X313480Y363320D01*
X313217Y363583D01*
X313480Y363846D01*
X313779Y364569D01*
Y365352D01*
X313480Y366076D01*
X312926Y366629D01*
X312203Y366929D01*
D02*
G37*
G36*
X447242Y357480D02*
X446459D01*
X445735Y357181D01*
X445182Y356627D01*
X444882Y355903D01*
Y355120D01*
X445182Y354397D01*
X445735Y353843D01*
X446459Y353543D01*
X447242D01*
X447965Y353843D01*
X448519Y354397D01*
X448819Y355120D01*
Y355903D01*
X448519Y356627D01*
X447965Y357181D01*
X447242Y357480D01*
D02*
G37*
G36*
Y343701D02*
X446459D01*
X445735Y343401D01*
X445182Y342847D01*
X444882Y342124D01*
Y341341D01*
X445182Y340617D01*
X445735Y340064D01*
X446459Y339764D01*
X447242D01*
X447965Y340064D01*
X448519Y340617D01*
X448819Y341341D01*
Y342124D01*
X448519Y342847D01*
X447965Y343401D01*
X447242Y343701D01*
D02*
G37*
G36*
X251573Y337795D02*
X250789D01*
X250066Y337496D01*
X249803Y337233D01*
X249540Y337496D01*
X248817Y337795D01*
X248034D01*
X247310Y337496D01*
X246756Y336942D01*
X246457Y336218D01*
Y335435D01*
X246756Y334712D01*
X247310Y334158D01*
X248034Y333858D01*
X248817D01*
X249540Y334158D01*
X249803Y334421D01*
X250066Y334158D01*
X250789Y333858D01*
X251573D01*
X252296Y334158D01*
X252850Y334712D01*
X253150Y335435D01*
Y336218D01*
X252850Y336942D01*
X252296Y337496D01*
X251573Y337795D01*
D02*
G37*
G36*
X347242Y349606D02*
X346459D01*
X345735Y349307D01*
X345182Y348753D01*
X344882Y348029D01*
Y347246D01*
X345182Y346523D01*
X345538Y346166D01*
Y340448D01*
X345182Y340091D01*
X344882Y339368D01*
Y338585D01*
X345182Y337861D01*
X345735Y337308D01*
X346459Y337008D01*
X347242D01*
X347966Y337308D01*
X348519Y337861D01*
X348819Y338585D01*
Y339368D01*
X348519Y340091D01*
X348163Y340448D01*
Y346166D01*
X348519Y346523D01*
X348819Y347246D01*
Y348029D01*
X348519Y348753D01*
X347966Y349307D01*
X347242Y349606D01*
D02*
G37*
G36*
X196455Y336614D02*
X195671D01*
X194948Y336315D01*
X194394Y335761D01*
X194095Y335037D01*
Y334254D01*
X194394Y333531D01*
X194948Y332977D01*
X195671Y332677D01*
X196455D01*
X197178Y332977D01*
X197732Y333531D01*
X198031Y334254D01*
Y335037D01*
X197732Y335761D01*
X197178Y336315D01*
X196455Y336614D01*
D02*
G37*
G36*
X143699Y338189D02*
X142915D01*
X142192Y337889D01*
X141638Y337335D01*
X141339Y336612D01*
Y335829D01*
X141638Y335105D01*
X141704Y335039D01*
X141638Y334973D01*
X141339Y334250D01*
Y333467D01*
X141638Y332743D01*
X141704Y332677D01*
X141638Y332611D01*
X141339Y331888D01*
Y331104D01*
X141638Y330381D01*
X142192Y329827D01*
X142915Y329528D01*
X143699D01*
X144422Y329827D01*
X144976Y330381D01*
X145276Y331104D01*
Y331888D01*
X144976Y332611D01*
X144910Y332677D01*
X144976Y332743D01*
X145276Y333467D01*
Y334250D01*
X144976Y334973D01*
X144910Y335039D01*
X144976Y335105D01*
X145276Y335829D01*
Y336612D01*
X144976Y337335D01*
X144422Y337889D01*
X143699Y338189D01*
D02*
G37*
G36*
X338187Y335827D02*
X337404D01*
X336680Y335527D01*
X336126Y334973D01*
X335827Y334250D01*
Y333467D01*
X336126Y332743D01*
X336389Y332480D01*
X336126Y332217D01*
X335827Y331494D01*
Y330711D01*
X336126Y329987D01*
X336680Y329434D01*
X337404Y329134D01*
X338187D01*
X338910Y329434D01*
X339464Y329987D01*
X339764Y330711D01*
Y331494D01*
X339464Y332217D01*
X339201Y332480D01*
X339464Y332743D01*
X339764Y333467D01*
Y334250D01*
X339464Y334973D01*
X338910Y335527D01*
X338187Y335827D01*
D02*
G37*
G36*
X289762Y332283D02*
X288979D01*
X288255Y331984D01*
X287701Y331430D01*
X287402Y330707D01*
Y329923D01*
X287701Y329200D01*
X288255Y328646D01*
X288979Y328346D01*
X289762D01*
X290485Y328646D01*
X291039Y329200D01*
X291339Y329923D01*
Y330707D01*
X291039Y331430D01*
X290485Y331984D01*
X289762Y332283D01*
D02*
G37*
G36*
X270077Y334252D02*
X269293D01*
X268570Y333952D01*
X268016Y333399D01*
X267717Y332675D01*
Y331892D01*
X268016Y331168D01*
X268279Y330906D01*
X268016Y330643D01*
X267717Y329919D01*
Y329136D01*
X268016Y328413D01*
X268570Y327859D01*
X269293Y327559D01*
X270077D01*
X270800Y327859D01*
X271354Y328413D01*
X271654Y329136D01*
Y329919D01*
X271354Y330643D01*
X271091Y330906D01*
X271354Y331168D01*
X271654Y331892D01*
Y332675D01*
X271354Y333399D01*
X270800Y333952D01*
X270077Y334252D01*
D02*
G37*
G36*
X447242Y329921D02*
X446459D01*
X445735Y329622D01*
X445182Y329068D01*
X444882Y328344D01*
Y327561D01*
X445182Y326838D01*
X445735Y326284D01*
X446459Y325984D01*
X447242D01*
X447965Y326284D01*
X448519Y326838D01*
X448819Y327561D01*
Y328344D01*
X448519Y329068D01*
X447965Y329622D01*
X447242Y329921D01*
D02*
G37*
G36*
X331494Y321654D02*
X330711D01*
X329987Y321354D01*
X329921Y321288D01*
X329855Y321354D01*
X329132Y321654D01*
X328349D01*
X327625Y321354D01*
X327362Y321091D01*
X327099Y321354D01*
X326376Y321654D01*
X325593D01*
X324869Y321354D01*
X324315Y320800D01*
X324016Y320077D01*
Y319293D01*
X324315Y318570D01*
X324869Y318016D01*
X325593Y317717D01*
X326376D01*
X327099Y318016D01*
X327362Y318279D01*
X327625Y318016D01*
X328349Y317717D01*
X329132D01*
X329855Y318016D01*
X329921Y318082D01*
X329987Y318016D01*
X330711Y317717D01*
X331494D01*
X332217Y318016D01*
X332771Y318570D01*
X333071Y319293D01*
Y320077D01*
X332771Y320800D01*
X332217Y321354D01*
X331494Y321654D01*
D02*
G37*
G36*
X337006Y328740D02*
X336223D01*
X335499Y328440D01*
X334945Y327887D01*
X334646Y327163D01*
Y326380D01*
X334945Y325657D01*
X335301Y325300D01*
Y322337D01*
X334945Y321981D01*
X334646Y321258D01*
Y320475D01*
X334945Y319751D01*
X335499Y319197D01*
X336223Y318898D01*
X336870D01*
X337064Y318830D01*
X337346Y318497D01*
Y316331D01*
X337126Y316110D01*
X336886Y315532D01*
Y314905D01*
X337126Y314326D01*
X337569Y313883D01*
X338148Y313644D01*
X338774D01*
X339353Y313883D01*
X339796Y314326D01*
X340036Y314905D01*
Y315532D01*
X339832Y316025D01*
X339986Y316262D01*
X340255Y316390D01*
X340510Y316285D01*
X341136D01*
X341715Y316525D01*
X342158Y316968D01*
X342398Y317547D01*
Y318173D01*
X342259Y318508D01*
X344003Y320252D01*
X361417D01*
Y320159D01*
X361657Y319580D01*
X362100Y319137D01*
X362679Y318898D01*
X363305D01*
X363884Y319137D01*
X364327Y319580D01*
X364567Y320159D01*
Y320786D01*
X364327Y321364D01*
X363884Y321808D01*
X363470Y321979D01*
Y322509D01*
X363884Y322681D01*
X364327Y323124D01*
X364567Y323703D01*
Y324329D01*
X364327Y324908D01*
X363884Y325351D01*
X363305Y325590D01*
X362679D01*
X362100Y325351D01*
X361657Y324908D01*
X361417Y324329D01*
Y324236D01*
X342852D01*
X342852Y324236D01*
X342391Y324144D01*
X342000Y323883D01*
X339083Y320966D01*
X338583Y321173D01*
Y321258D01*
X338283Y321981D01*
X337927Y322337D01*
Y325300D01*
X338283Y325657D01*
X338583Y326380D01*
Y327163D01*
X338283Y327887D01*
X337729Y328440D01*
X337006Y328740D01*
D02*
G37*
G36*
X283856Y319291D02*
X283073D01*
X282349Y318992D01*
X281796Y318438D01*
X281496Y317714D01*
Y316931D01*
X281796Y316208D01*
X282349Y315654D01*
X283073Y315354D01*
X283856D01*
X284580Y315654D01*
X285133Y316208D01*
X285433Y316931D01*
Y317714D01*
X285133Y318438D01*
X284580Y318992D01*
X283856Y319291D01*
D02*
G37*
G36*
X447242Y316142D02*
X446459D01*
X445735Y315842D01*
X445182Y315288D01*
X444882Y314565D01*
Y313782D01*
X445182Y313058D01*
X445735Y312504D01*
X446459Y312205D01*
X447242D01*
X447965Y312504D01*
X448519Y313058D01*
X448819Y313782D01*
Y314565D01*
X448519Y315288D01*
X447965Y315842D01*
X447242Y316142D01*
D02*
G37*
G36*
X335825Y314173D02*
X335041D01*
X334318Y313874D01*
X333764Y313320D01*
X333465Y312596D01*
Y311813D01*
X333764Y311090D01*
X334318Y310536D01*
X335041Y310236D01*
X335825D01*
X336548Y310536D01*
X337102Y311090D01*
X337402Y311813D01*
Y312596D01*
X337102Y313320D01*
X336548Y313874D01*
X335825Y314173D01*
D02*
G37*
G36*
X311415Y312598D02*
X310632D01*
X309909Y312299D01*
X309355Y311745D01*
X309055Y311021D01*
Y310238D01*
X309355Y309515D01*
X309909Y308961D01*
X310632Y308661D01*
X311415D01*
X312139Y308961D01*
X312692Y309515D01*
X312992Y310238D01*
Y311021D01*
X312692Y311745D01*
X312139Y312299D01*
X311415Y312598D01*
D02*
G37*
G36*
X352360Y308661D02*
X351577D01*
X350853Y308362D01*
X350300Y307808D01*
X350000Y307084D01*
Y306301D01*
X350300Y305578D01*
X350853Y305024D01*
X351577Y304724D01*
X352360D01*
X353084Y305024D01*
X353637Y305578D01*
X353937Y306301D01*
Y307084D01*
X353637Y307808D01*
X353084Y308362D01*
X352360Y308661D01*
D02*
G37*
G36*
X344486D02*
X343703D01*
X342979Y308362D01*
X342426Y307808D01*
X342126Y307084D01*
Y306301D01*
X342426Y305578D01*
X342979Y305024D01*
X343703Y304724D01*
X344486D01*
X345210Y305024D01*
X345763Y305578D01*
X346063Y306301D01*
Y307084D01*
X345763Y307808D01*
X345210Y308362D01*
X344486Y308661D01*
D02*
G37*
G36*
X322832Y313386D02*
X322049D01*
X321326Y313086D01*
X320772Y312532D01*
X320472Y311809D01*
Y311026D01*
X320772Y310302D01*
X321326Y309749D01*
X321885Y309517D01*
Y308987D01*
X321326Y308755D01*
X320772Y308202D01*
X320472Y307478D01*
Y306695D01*
X320772Y305972D01*
X321035Y305709D01*
X320772Y305446D01*
X320472Y304722D01*
Y303939D01*
X320772Y303216D01*
X321326Y302662D01*
X322049Y302362D01*
X322832D01*
X323556Y302662D01*
X324110Y303216D01*
X324409Y303939D01*
Y304722D01*
X324110Y305446D01*
X323847Y305709D01*
X324110Y305972D01*
X324409Y306695D01*
Y307478D01*
X324110Y308202D01*
X323556Y308755D01*
X322997Y308987D01*
Y309517D01*
X323556Y309749D01*
X324110Y310302D01*
X324409Y311026D01*
Y311809D01*
X324110Y312532D01*
X323556Y313086D01*
X322832Y313386D01*
D02*
G37*
G36*
X447242Y302362D02*
X446459D01*
X445735Y302063D01*
X445182Y301509D01*
X444882Y300785D01*
Y300002D01*
X445182Y299279D01*
X445735Y298725D01*
X446459Y298425D01*
X447242D01*
X447965Y298725D01*
X448519Y299279D01*
X448819Y300002D01*
Y300785D01*
X448519Y301509D01*
X447965Y302063D01*
X447242Y302362D01*
D02*
G37*
G36*
X351966Y301181D02*
X351183D01*
X350460Y300881D01*
X349906Y300328D01*
X349606Y299604D01*
Y298821D01*
X349906Y298097D01*
X350460Y297544D01*
X351183Y297244D01*
X351966D01*
X352690Y297544D01*
X353244Y298097D01*
X353543Y298821D01*
Y299604D01*
X353244Y300328D01*
X352690Y300881D01*
X351966Y301181D01*
D02*
G37*
G36*
X344486D02*
X343703D01*
X342979Y300881D01*
X342426Y300328D01*
X342126Y299604D01*
Y298821D01*
X342426Y298097D01*
X342979Y297544D01*
X343703Y297244D01*
X344486D01*
X345210Y297544D01*
X345763Y298097D01*
X346063Y298821D01*
Y299604D01*
X345763Y300328D01*
X345210Y300881D01*
X344486Y301181D01*
D02*
G37*
G36*
X447242Y288583D02*
X446459D01*
X445735Y288283D01*
X445182Y287729D01*
X444882Y287006D01*
Y286223D01*
X445182Y285499D01*
X445735Y284945D01*
X446459Y284646D01*
X447242D01*
X447965Y284945D01*
X448519Y285499D01*
X448819Y286223D01*
Y287006D01*
X448519Y287729D01*
X447965Y288283D01*
X447242Y288583D01*
D02*
G37*
G36*
Y274803D02*
X446459D01*
X445735Y274503D01*
X445182Y273950D01*
X444882Y273226D01*
Y272443D01*
X445182Y271720D01*
X445735Y271166D01*
X446459Y270866D01*
X447242D01*
X447965Y271166D01*
X448519Y271720D01*
X448819Y272443D01*
Y273226D01*
X448519Y273950D01*
X447965Y274503D01*
X447242Y274803D01*
D02*
G37*
G36*
X283856Y263189D02*
X283073D01*
X282349Y262889D01*
X281796Y262336D01*
X281496Y261612D01*
Y260829D01*
X281796Y260105D01*
X282349Y259552D01*
X283073Y259252D01*
X283856D01*
X284580Y259552D01*
X285133Y260105D01*
X285433Y260829D01*
Y261612D01*
X285133Y262336D01*
X284580Y262889D01*
X283856Y263189D01*
D02*
G37*
G36*
X338187Y258071D02*
X337404D01*
X336680Y257771D01*
X336417Y257508D01*
X336154Y257771D01*
X335431Y258071D01*
X334648D01*
X333924Y257771D01*
X333371Y257217D01*
X333071Y256494D01*
Y255711D01*
X333371Y254987D01*
X333924Y254434D01*
X334648Y254134D01*
X335431D01*
X336154Y254434D01*
X336417Y254696D01*
X336680Y254434D01*
X337404Y254134D01*
X338187D01*
X338910Y254434D01*
X339464Y254987D01*
X339764Y255711D01*
Y256494D01*
X339464Y257217D01*
X338910Y257771D01*
X338187Y258071D01*
D02*
G37*
G36*
X447242Y261024D02*
X446459D01*
X445735Y260724D01*
X445182Y260170D01*
X444882Y259447D01*
Y258664D01*
X445182Y257940D01*
X445735Y257386D01*
X446459Y257087D01*
X447242D01*
X447965Y257386D01*
X448519Y257940D01*
X448819Y258664D01*
Y259447D01*
X448519Y260170D01*
X447965Y260724D01*
X447242Y261024D01*
D02*
G37*
G36*
X269683Y260827D02*
X268900D01*
X268176Y260527D01*
X267622Y259973D01*
X267323Y259250D01*
Y258467D01*
X267622Y257743D01*
X267885Y257480D01*
X267622Y257217D01*
X267323Y256494D01*
Y255711D01*
X267622Y254987D01*
X268176Y254434D01*
X268900Y254134D01*
X269683D01*
X270406Y254434D01*
X270960Y254987D01*
X271260Y255711D01*
Y256494D01*
X270960Y257217D01*
X270697Y257480D01*
X270960Y257743D01*
X271260Y258467D01*
Y259250D01*
X270960Y259973D01*
X270406Y260527D01*
X269683Y260827D01*
D02*
G37*
G36*
X292911Y260433D02*
X292128D01*
X291405Y260133D01*
X290851Y259580D01*
X290551Y258856D01*
Y258073D01*
X290851Y257349D01*
X291114Y257087D01*
X290851Y256824D01*
X290551Y256100D01*
Y255317D01*
X290851Y254594D01*
X291405Y254040D01*
X292128Y253740D01*
X292911D01*
X293635Y254040D01*
X294188Y254594D01*
X294488Y255317D01*
Y256100D01*
X294188Y256824D01*
X293926Y257087D01*
X294188Y257349D01*
X294488Y258073D01*
Y258856D01*
X294188Y259580D01*
X293635Y260133D01*
X292911Y260433D01*
D02*
G37*
G36*
X251573Y253150D02*
X250789D01*
X250066Y252850D01*
X249803Y252587D01*
X249540Y252850D01*
X248817Y253150D01*
X248034D01*
X247310Y252850D01*
X246756Y252296D01*
X246457Y251573D01*
Y250790D01*
X246756Y250066D01*
X247310Y249512D01*
X248034Y249213D01*
X248817D01*
X249540Y249512D01*
X249803Y249775D01*
X250066Y249512D01*
X250789Y249213D01*
X251573D01*
X252296Y249512D01*
X252850Y250066D01*
X253150Y250790D01*
Y251573D01*
X252850Y252296D01*
X252296Y252850D01*
X251573Y253150D01*
D02*
G37*
G36*
X311809Y258465D02*
X311026D01*
X310302Y258165D01*
X309749Y257611D01*
X309449Y256888D01*
Y256104D01*
X309749Y255381D01*
X310011Y255118D01*
X309749Y254855D01*
X309449Y254132D01*
Y253349D01*
X309749Y252625D01*
X310302Y252071D01*
X311026Y251772D01*
X311809D01*
X312532Y252071D01*
X313086Y252625D01*
X313386Y253349D01*
Y254132D01*
X313086Y254855D01*
X312823Y255118D01*
X313086Y255381D01*
X313386Y256104D01*
Y256888D01*
X313086Y257611D01*
X312532Y258165D01*
X311809Y258465D01*
D02*
G37*
G36*
X447242Y247244D02*
X446459D01*
X445735Y246944D01*
X445182Y246391D01*
X444882Y245667D01*
Y244884D01*
X445182Y244161D01*
X445735Y243607D01*
X446459Y243307D01*
X447242D01*
X447965Y243607D01*
X448519Y244161D01*
X448819Y244884D01*
Y245667D01*
X448519Y246391D01*
X447965Y246944D01*
X447242Y247244D01*
D02*
G37*
G36*
Y233465D02*
X446459D01*
X445735Y233165D01*
X445182Y232611D01*
X444882Y231888D01*
Y231104D01*
X445182Y230381D01*
X445735Y229827D01*
X446459Y229528D01*
X447242D01*
X447965Y229827D01*
X448519Y230381D01*
X448819Y231104D01*
Y231888D01*
X448519Y232611D01*
X447965Y233165D01*
X447242Y233465D01*
D02*
G37*
G36*
X347242Y240945D02*
X346459D01*
X345735Y240645D01*
X345182Y240091D01*
X344882Y239368D01*
Y238585D01*
X345182Y237861D01*
X345538Y237505D01*
Y232180D01*
X345182Y231824D01*
X344882Y231100D01*
Y230317D01*
X345182Y229594D01*
X345735Y229040D01*
X346459Y228740D01*
X347242D01*
X347966Y229040D01*
X348519Y229594D01*
X348819Y230317D01*
Y231100D01*
X348519Y231824D01*
X348163Y232180D01*
Y237505D01*
X348519Y237861D01*
X348819Y238585D01*
Y239368D01*
X348519Y240091D01*
X347966Y240645D01*
X347242Y240945D01*
D02*
G37*
G36*
X251179Y229134D02*
X250396D01*
X249672Y228834D01*
X249410Y228571D01*
X249147Y228834D01*
X248423Y229134D01*
X247640D01*
X246916Y228834D01*
X246363Y228280D01*
X246063Y227557D01*
Y226774D01*
X246363Y226050D01*
X246916Y225497D01*
X247640Y225197D01*
X248423D01*
X249147Y225497D01*
X249410Y225759D01*
X249672Y225497D01*
X250396Y225197D01*
X251179D01*
X251903Y225497D01*
X252456Y226050D01*
X252756Y226774D01*
Y227557D01*
X252456Y228280D01*
X251903Y228834D01*
X251179Y229134D01*
D02*
G37*
G36*
X337793Y227362D02*
X337010D01*
X336286Y227063D01*
X335733Y226509D01*
X335433Y225785D01*
Y225002D01*
X335733Y224279D01*
X335996Y224016D01*
X335733Y223753D01*
X335433Y223029D01*
Y222246D01*
X335733Y221523D01*
X336286Y220969D01*
X337010Y220669D01*
X337793D01*
X338517Y220969D01*
X339070Y221523D01*
X339370Y222246D01*
Y223029D01*
X339070Y223753D01*
X338808Y224016D01*
X339070Y224279D01*
X339370Y225002D01*
Y225785D01*
X339070Y226509D01*
X338517Y227063D01*
X337793Y227362D01*
D02*
G37*
G36*
X289762Y223622D02*
X288979D01*
X288255Y223322D01*
X287701Y222769D01*
X287402Y222045D01*
Y221262D01*
X287701Y220538D01*
X288255Y219985D01*
X288979Y219685D01*
X289762D01*
X290485Y219985D01*
X291039Y220538D01*
X291339Y221262D01*
Y222045D01*
X291039Y222769D01*
X290485Y223322D01*
X289762Y223622D01*
D02*
G37*
G36*
X269683Y225787D02*
X268900D01*
X268176Y225488D01*
X267622Y224934D01*
X267323Y224210D01*
Y223427D01*
X267622Y222704D01*
X267885Y222441D01*
X267622Y222178D01*
X267323Y221455D01*
Y220671D01*
X267622Y219948D01*
X268176Y219394D01*
X268900Y219094D01*
X269683D01*
X270406Y219394D01*
X270960Y219948D01*
X271260Y220671D01*
Y221455D01*
X270960Y222178D01*
X270697Y222441D01*
X270960Y222704D01*
X271260Y223427D01*
Y224210D01*
X270960Y224934D01*
X270406Y225488D01*
X269683Y225787D01*
D02*
G37*
G36*
X447242Y219685D02*
X446459D01*
X445735Y219385D01*
X445182Y218832D01*
X444882Y218108D01*
Y217325D01*
X445182Y216601D01*
X445735Y216048D01*
X446459Y215748D01*
X447242D01*
X447965Y216048D01*
X448519Y216601D01*
X448819Y217325D01*
Y218108D01*
X448519Y218832D01*
X447965Y219385D01*
X447242Y219685D01*
D02*
G37*
G36*
X332281Y213386D02*
X331498D01*
X330775Y213086D01*
X330709Y213020D01*
X330643Y213086D01*
X329919Y213386D01*
X329136D01*
X328413Y213086D01*
X328150Y212823D01*
X327887Y213086D01*
X327163Y213386D01*
X326380D01*
X325657Y213086D01*
X325103Y212532D01*
X324803Y211809D01*
Y211026D01*
X325103Y210302D01*
X325657Y209749D01*
X326380Y209449D01*
X327163D01*
X327887Y209749D01*
X328150Y210011D01*
X328413Y209749D01*
X329136Y209449D01*
X329919D01*
X330643Y209749D01*
X330709Y209815D01*
X330775Y209749D01*
X331498Y209449D01*
X332281D01*
X333005Y209749D01*
X333559Y210302D01*
X333858Y211026D01*
Y211809D01*
X333559Y212532D01*
X333005Y213086D01*
X332281Y213386D01*
D02*
G37*
G36*
X336612Y220079D02*
X335829D01*
X335105Y219779D01*
X334552Y219225D01*
X334252Y218502D01*
Y217719D01*
X334552Y216995D01*
X334908Y216639D01*
Y214070D01*
X334552Y213714D01*
X334252Y212990D01*
Y212207D01*
X334552Y211483D01*
X335105Y210930D01*
X335829Y210630D01*
X336476D01*
X336670Y210562D01*
X336953Y210230D01*
Y208063D01*
X336732Y207843D01*
X336493Y207264D01*
Y206637D01*
X336732Y206059D01*
X337175Y205616D01*
X337754Y205376D01*
X338381D01*
X338960Y205616D01*
X339403Y206059D01*
X339642Y206637D01*
Y207264D01*
X339438Y207757D01*
X339592Y207995D01*
X339861Y208123D01*
X340116Y208017D01*
X340742D01*
X341321Y208257D01*
X341764Y208700D01*
X342004Y209279D01*
Y209905D01*
X341865Y210241D01*
X343019Y211394D01*
X358146D01*
X358288Y211253D01*
X358507Y210722D01*
X358950Y210279D01*
X359529Y210039D01*
X360156D01*
X360735Y210279D01*
X361178Y210722D01*
X361417Y211301D01*
Y211927D01*
X361178Y212506D01*
X360735Y212949D01*
X360320Y213121D01*
Y213651D01*
X360735Y213822D01*
X361178Y214265D01*
X361417Y214844D01*
Y215471D01*
X361178Y216050D01*
X360735Y216493D01*
X360156Y216732D01*
X359529D01*
X358950Y216493D01*
X358507Y216050D01*
X358288Y215519D01*
X358146Y215377D01*
X341867D01*
X341867Y215377D01*
X341407Y215286D01*
X341016Y215025D01*
X338689Y212698D01*
X338189Y212905D01*
Y212990D01*
X337889Y213714D01*
X337533Y214070D01*
Y216639D01*
X337889Y216995D01*
X338189Y217719D01*
Y218502D01*
X337889Y219225D01*
X337335Y219779D01*
X336612Y220079D01*
D02*
G37*
G36*
X447242Y205906D02*
X446459D01*
X445735Y205606D01*
X445182Y205052D01*
X444882Y204329D01*
Y203545D01*
X445182Y202822D01*
X445735Y202268D01*
X446459Y201969D01*
X447242D01*
X447965Y202268D01*
X448519Y202822D01*
X448819Y203545D01*
Y204329D01*
X448519Y205052D01*
X447965Y205606D01*
X447242Y205906D01*
D02*
G37*
G36*
X335422Y205854D02*
X334639D01*
X333915Y205554D01*
X333362Y205000D01*
X333062Y204277D01*
Y203493D01*
X333362Y202770D01*
X333915Y202216D01*
X334639Y201917D01*
X335422D01*
X336145Y202216D01*
X336699Y202770D01*
X336999Y203493D01*
Y204277D01*
X336699Y205000D01*
X336145Y205554D01*
X335422Y205854D01*
D02*
G37*
G36*
X351957Y200342D02*
X351174D01*
X350451Y200042D01*
X349897Y199488D01*
X349597Y198765D01*
Y197982D01*
X349897Y197258D01*
X350451Y196704D01*
X351174Y196405D01*
X351957D01*
X352681Y196704D01*
X353235Y197258D01*
X353534Y197982D01*
Y198765D01*
X353235Y199488D01*
X352681Y200042D01*
X351957Y200342D01*
D02*
G37*
G36*
X344083D02*
X343300D01*
X342577Y200042D01*
X342023Y199488D01*
X341723Y198765D01*
Y197982D01*
X342023Y197258D01*
X342577Y196704D01*
X343300Y196405D01*
X344083D01*
X344807Y196704D01*
X345361Y197258D01*
X345660Y197982D01*
Y198765D01*
X345361Y199488D01*
X344807Y200042D01*
X344083Y200342D01*
D02*
G37*
G36*
X322439Y205118D02*
X321656D01*
X320932Y204818D01*
X320378Y204265D01*
X320079Y203541D01*
Y202758D01*
X320378Y202034D01*
X320932Y201481D01*
X321586Y201210D01*
X321613Y201000D01*
X321610Y200877D01*
X321586Y200710D01*
X320923Y200436D01*
X320370Y199882D01*
X320070Y199159D01*
Y198375D01*
X320370Y197652D01*
X320632Y197389D01*
X320370Y197126D01*
X320070Y196403D01*
Y195619D01*
X320370Y194896D01*
X320923Y194342D01*
X321647Y194043D01*
X322430D01*
X323153Y194342D01*
X323707Y194896D01*
X324007Y195619D01*
Y196403D01*
X323707Y197126D01*
X323444Y197389D01*
X323707Y197652D01*
X324007Y198375D01*
Y199159D01*
X323707Y199882D01*
X323153Y200436D01*
X322500Y200706D01*
X322473Y200917D01*
X322475Y201040D01*
X322500Y201206D01*
X323162Y201481D01*
X323716Y202034D01*
X324016Y202758D01*
Y203541D01*
X323716Y204265D01*
X323162Y204818D01*
X322439Y205118D01*
D02*
G37*
G36*
X351564Y192861D02*
X350781D01*
X350057Y192562D01*
X349503Y192008D01*
X349204Y191285D01*
Y190501D01*
X349503Y189778D01*
X350057Y189224D01*
X350781Y188924D01*
X351564D01*
X352287Y189224D01*
X352841Y189778D01*
X353141Y190501D01*
Y191285D01*
X352841Y192008D01*
X352287Y192562D01*
X351564Y192861D01*
D02*
G37*
G36*
X447242Y192126D02*
X446459D01*
X445735Y191826D01*
X445182Y191273D01*
X444882Y190549D01*
Y189766D01*
X445182Y189042D01*
X445735Y188489D01*
X446459Y188189D01*
X447242D01*
X447965Y188489D01*
X448519Y189042D01*
X448819Y189766D01*
Y190549D01*
X448519Y191273D01*
X447965Y191826D01*
X447242Y192126D01*
D02*
G37*
G36*
Y178347D02*
X446459D01*
X445735Y178047D01*
X445182Y177493D01*
X444882Y176769D01*
Y175986D01*
X445182Y175263D01*
X445735Y174709D01*
X446459Y174409D01*
X447242D01*
X447965Y174709D01*
X448519Y175263D01*
X448819Y175986D01*
Y176769D01*
X448519Y177493D01*
X447965Y178047D01*
X447242Y178347D01*
D02*
G37*
G36*
Y164567D02*
X446459D01*
X445735Y164267D01*
X445182Y163714D01*
X444882Y162990D01*
Y162207D01*
X445182Y161483D01*
X445735Y160930D01*
X446459Y160630D01*
X447242D01*
X447965Y160930D01*
X448519Y161483D01*
X448819Y162207D01*
Y162990D01*
X448519Y163714D01*
X447965Y164267D01*
X447242Y164567D01*
D02*
G37*
G36*
X283856Y153937D02*
X283073D01*
X282349Y153637D01*
X281796Y153084D01*
X281496Y152360D01*
Y151577D01*
X281796Y150853D01*
X282349Y150300D01*
X283073Y150000D01*
X283856D01*
X284580Y150300D01*
X285133Y150853D01*
X285433Y151577D01*
Y152360D01*
X285133Y153084D01*
X284580Y153637D01*
X283856Y153937D01*
D02*
G37*
G36*
X338187Y148819D02*
X337404D01*
X336680Y148519D01*
X336417Y148256D01*
X336154Y148519D01*
X335431Y148819D01*
X334648D01*
X333924Y148519D01*
X333371Y147966D01*
X333071Y147242D01*
Y146459D01*
X333371Y145735D01*
X333924Y145182D01*
X334648Y144882D01*
X335431D01*
X336154Y145182D01*
X336417Y145445D01*
X336680Y145182D01*
X337404Y144882D01*
X338187D01*
X338910Y145182D01*
X339464Y145735D01*
X339764Y146459D01*
Y147242D01*
X339464Y147966D01*
X338910Y148519D01*
X338187Y148819D01*
D02*
G37*
G36*
X447242Y150787D02*
X446459D01*
X445735Y150488D01*
X445182Y149934D01*
X444882Y149211D01*
Y148427D01*
X445182Y147704D01*
X445735Y147150D01*
X446459Y146850D01*
X447242D01*
X447965Y147150D01*
X448519Y147704D01*
X448819Y148427D01*
Y149211D01*
X448519Y149934D01*
X447965Y150488D01*
X447242Y150787D01*
D02*
G37*
G36*
X269683Y151575D02*
X268900D01*
X268176Y151275D01*
X267622Y150721D01*
X267323Y149998D01*
Y149215D01*
X267622Y148491D01*
X267885Y148228D01*
X267622Y147966D01*
X267323Y147242D01*
Y146459D01*
X267622Y145735D01*
X268176Y145182D01*
X268900Y144882D01*
X269683D01*
X270406Y145182D01*
X270960Y145735D01*
X271260Y146459D01*
Y147242D01*
X270960Y147966D01*
X270697Y148228D01*
X270960Y148491D01*
X271260Y149215D01*
Y149998D01*
X270960Y150721D01*
X270406Y151275D01*
X269683Y151575D01*
D02*
G37*
G36*
X292911Y151181D02*
X292128D01*
X291405Y150881D01*
X290851Y150328D01*
X290551Y149604D01*
Y148821D01*
X290851Y148098D01*
X291114Y147835D01*
X290851Y147572D01*
X290551Y146848D01*
Y146065D01*
X290851Y145342D01*
X291405Y144788D01*
X292128Y144488D01*
X292911D01*
X293635Y144788D01*
X294188Y145342D01*
X294488Y146065D01*
Y146848D01*
X294188Y147572D01*
X293926Y147835D01*
X294188Y148098D01*
X294488Y148821D01*
Y149604D01*
X294188Y150328D01*
X293635Y150881D01*
X292911Y151181D01*
D02*
G37*
G36*
X251573Y144095D02*
X250789D01*
X250066Y143795D01*
X249803Y143532D01*
X249540Y143795D01*
X248817Y144095D01*
X248034D01*
X247310Y143795D01*
X246756Y143241D01*
X246457Y142518D01*
Y141734D01*
X246756Y141011D01*
X247310Y140457D01*
X248034Y140157D01*
X248817D01*
X249540Y140457D01*
X249803Y140720D01*
X250066Y140457D01*
X250789Y140157D01*
X251573D01*
X252296Y140457D01*
X252850Y141011D01*
X253150Y141734D01*
Y142518D01*
X252850Y143241D01*
X252296Y143795D01*
X251573Y144095D01*
D02*
G37*
G36*
X311809Y149213D02*
X311026D01*
X310302Y148913D01*
X309749Y148359D01*
X309449Y147636D01*
Y146853D01*
X309749Y146129D01*
X310011Y145866D01*
X309749Y145603D01*
X309449Y144880D01*
Y144097D01*
X309749Y143373D01*
X310302Y142819D01*
X311026Y142520D01*
X311809D01*
X312532Y142819D01*
X313086Y143373D01*
X313386Y144097D01*
Y144880D01*
X313086Y145603D01*
X312823Y145866D01*
X313086Y146129D01*
X313386Y146853D01*
Y147636D01*
X313086Y148359D01*
X312532Y148913D01*
X311809Y149213D01*
D02*
G37*
G36*
X447242Y137008D02*
X446459D01*
X445735Y136708D01*
X445182Y136154D01*
X444882Y135431D01*
Y134648D01*
X445182Y133924D01*
X445735Y133371D01*
X446459Y133071D01*
X447242D01*
X447965Y133371D01*
X448519Y133924D01*
X448819Y134648D01*
Y135431D01*
X448519Y136154D01*
X447965Y136708D01*
X447242Y137008D01*
D02*
G37*
G36*
X347242Y131496D02*
X346459D01*
X345735Y131196D01*
X345182Y130643D01*
X344882Y129919D01*
Y129136D01*
X345182Y128412D01*
X345538Y128056D01*
Y123519D01*
X345182Y123162D01*
X344882Y122439D01*
Y121656D01*
X345182Y120932D01*
X345735Y120378D01*
X346459Y120079D01*
X347242D01*
X347966Y120378D01*
X348519Y120932D01*
X348819Y121656D01*
Y122439D01*
X348519Y123162D01*
X348163Y123519D01*
Y128056D01*
X348519Y128412D01*
X348819Y129136D01*
Y129919D01*
X348519Y130643D01*
X347966Y131196D01*
X347242Y131496D01*
D02*
G37*
G36*
X251179Y120079D02*
X250396D01*
X249672Y119779D01*
X249410Y119516D01*
X249147Y119779D01*
X248423Y120079D01*
X247640D01*
X246916Y119779D01*
X246363Y119225D01*
X246063Y118502D01*
Y117719D01*
X246363Y116995D01*
X246916Y116441D01*
X247640Y116142D01*
X248423D01*
X249147Y116441D01*
X249410Y116704D01*
X249672Y116441D01*
X250396Y116142D01*
X251179D01*
X251903Y116441D01*
X252456Y116995D01*
X252756Y117719D01*
Y118502D01*
X252456Y119225D01*
X251903Y119779D01*
X251179Y120079D01*
D02*
G37*
G36*
X447242Y123228D02*
X446459D01*
X445735Y122929D01*
X445182Y122375D01*
X444882Y121651D01*
Y120868D01*
X445182Y120145D01*
X445735Y119591D01*
X446459Y119291D01*
X447242D01*
X447965Y119591D01*
X448519Y120145D01*
X448819Y120868D01*
Y121651D01*
X448519Y122375D01*
X447965Y122929D01*
X447242Y123228D01*
D02*
G37*
G36*
X337793Y118110D02*
X337010D01*
X336286Y117810D01*
X335733Y117257D01*
X335433Y116533D01*
Y115750D01*
X335733Y115027D01*
X335996Y114764D01*
X335733Y114501D01*
X335433Y113777D01*
Y112994D01*
X335733Y112271D01*
X336286Y111717D01*
X337010Y111417D01*
X337793D01*
X338517Y111717D01*
X339070Y112271D01*
X339370Y112994D01*
Y113777D01*
X339070Y114501D01*
X338808Y114764D01*
X339070Y115027D01*
X339370Y115750D01*
Y116533D01*
X339070Y117257D01*
X338517Y117810D01*
X337793Y118110D01*
D02*
G37*
G36*
X289762Y114567D02*
X288979D01*
X288255Y114267D01*
X287701Y113714D01*
X287402Y112990D01*
Y112207D01*
X287701Y111483D01*
X288255Y110930D01*
X288979Y110630D01*
X289762D01*
X290485Y110930D01*
X291039Y111483D01*
X291339Y112207D01*
Y112990D01*
X291039Y113714D01*
X290485Y114267D01*
X289762Y114567D01*
D02*
G37*
G36*
X269683Y116535D02*
X268900D01*
X268176Y116236D01*
X267622Y115682D01*
X267323Y114959D01*
Y114175D01*
X267622Y113452D01*
X267885Y113189D01*
X267622Y112926D01*
X267323Y112203D01*
Y111419D01*
X267622Y110696D01*
X268176Y110142D01*
X268900Y109843D01*
X269683D01*
X270406Y110142D01*
X270960Y110696D01*
X271260Y111419D01*
Y112203D01*
X270960Y112926D01*
X270697Y113189D01*
X270960Y113452D01*
X271260Y114175D01*
Y114959D01*
X270960Y115682D01*
X270406Y116236D01*
X269683Y116535D01*
D02*
G37*
G36*
X447242Y109449D02*
X446459D01*
X445735Y109149D01*
X445182Y108595D01*
X444882Y107872D01*
Y107089D01*
X445182Y106365D01*
X445735Y105812D01*
X446459Y105512D01*
X447242D01*
X447965Y105812D01*
X448519Y106365D01*
X448819Y107089D01*
Y107872D01*
X448519Y108595D01*
X447965Y109149D01*
X447242Y109449D01*
D02*
G37*
G36*
X332281Y103937D02*
X331498D01*
X330775Y103637D01*
X330709Y103571D01*
X330643Y103637D01*
X329919Y103937D01*
X329136D01*
X328413Y103637D01*
X328150Y103374D01*
X327887Y103637D01*
X327163Y103937D01*
X326380D01*
X325657Y103637D01*
X325103Y103084D01*
X324803Y102360D01*
Y101577D01*
X325103Y100853D01*
X325657Y100300D01*
X326380Y100000D01*
X327163D01*
X327887Y100300D01*
X328150Y100563D01*
X328413Y100300D01*
X329136Y100000D01*
X329919D01*
X330643Y100300D01*
X330709Y100366D01*
X330775Y100300D01*
X331498Y100000D01*
X332281D01*
X333005Y100300D01*
X333559Y100853D01*
X333858Y101577D01*
Y102360D01*
X333559Y103084D01*
X333005Y103637D01*
X332281Y103937D01*
D02*
G37*
G36*
X336612Y111024D02*
X335829D01*
X335105Y110724D01*
X334552Y110170D01*
X334252Y109447D01*
Y108664D01*
X334552Y107940D01*
X334908Y107584D01*
Y104621D01*
X334552Y104265D01*
X334252Y103541D01*
Y102758D01*
X334552Y102034D01*
X335105Y101481D01*
X335829Y101181D01*
X336404D01*
X336710Y101010D01*
X336863Y100744D01*
Y98525D01*
X336732Y98394D01*
X336493Y97815D01*
Y97189D01*
X336732Y96610D01*
X337175Y96167D01*
X337754Y95927D01*
X338381D01*
X338960Y96167D01*
X339403Y96610D01*
X339642Y97189D01*
Y97815D01*
X339438Y98308D01*
X339610Y98573D01*
X339770Y98710D01*
X339772Y98711D01*
X340116Y98568D01*
X340742D01*
X341321Y98808D01*
X341764Y99251D01*
X342004Y99830D01*
Y100457D01*
X341865Y100792D01*
X343412Y102339D01*
X358661D01*
Y102246D01*
X358901Y101667D01*
X359344Y101224D01*
X359923Y100984D01*
X360549D01*
X361128Y101224D01*
X361571Y101667D01*
X361811Y102246D01*
Y102872D01*
X361571Y103451D01*
X361128Y103894D01*
X360714Y104066D01*
Y104596D01*
X361128Y104767D01*
X361571Y105210D01*
X361811Y105789D01*
Y106416D01*
X361571Y106994D01*
X361128Y107437D01*
X360549Y107677D01*
X359923D01*
X359344Y107437D01*
X358901Y106994D01*
X358661Y106416D01*
Y106322D01*
X342261D01*
X341800Y106231D01*
X341410Y105970D01*
X341410Y105970D01*
X338689Y103249D01*
X338189Y103456D01*
Y103541D01*
X337889Y104265D01*
X337533Y104621D01*
Y107584D01*
X337889Y107940D01*
X338189Y108664D01*
Y109447D01*
X337889Y110170D01*
X337335Y110724D01*
X336612Y111024D01*
D02*
G37*
G36*
X335495Y96332D02*
X334712D01*
X333989Y96032D01*
X333435Y95478D01*
X333135Y94754D01*
Y93971D01*
X333435Y93248D01*
X333989Y92694D01*
X334712Y92395D01*
X335495D01*
X336219Y92694D01*
X336772Y93248D01*
X337072Y93971D01*
Y94754D01*
X336772Y95478D01*
X336219Y96032D01*
X335495Y96332D01*
D02*
G37*
G36*
X447242Y95669D02*
X446459D01*
X445735Y95370D01*
X445182Y94816D01*
X444882Y94092D01*
Y93309D01*
X445182Y92586D01*
X445735Y92032D01*
X446459Y91732D01*
X447242D01*
X447965Y92032D01*
X448519Y92586D01*
X448819Y93309D01*
Y94092D01*
X448519Y94816D01*
X447965Y95370D01*
X447242Y95669D01*
D02*
G37*
G36*
X322439D02*
X321656D01*
X320932Y95370D01*
X320378Y94816D01*
X320079Y94092D01*
Y93309D01*
X320378Y92586D01*
X320932Y92032D01*
X321656Y91732D01*
X322439D01*
X323162Y92032D01*
X323716Y92586D01*
X324016Y93309D01*
Y94092D01*
X323716Y94816D01*
X323162Y95370D01*
X322439Y95669D01*
D02*
G37*
G36*
X352031Y90820D02*
X351248D01*
X350524Y90520D01*
X349970Y89966D01*
X349671Y89243D01*
Y88460D01*
X349970Y87736D01*
X350524Y87182D01*
X351248Y86883D01*
X352031D01*
X352754Y87182D01*
X353308Y87736D01*
X353608Y88460D01*
Y89243D01*
X353308Y89966D01*
X352754Y90520D01*
X352031Y90820D01*
D02*
G37*
G36*
X344157D02*
X343373D01*
X342650Y90520D01*
X342096Y89966D01*
X341797Y89243D01*
Y88460D01*
X342096Y87736D01*
X342650Y87182D01*
X343373Y86883D01*
X344157D01*
X344880Y87182D01*
X345434Y87736D01*
X345734Y88460D01*
Y89243D01*
X345434Y89966D01*
X344880Y90520D01*
X344157Y90820D01*
D02*
G37*
G36*
X322503Y91213D02*
X321720D01*
X320996Y90914D01*
X320443Y90360D01*
X320143Y89636D01*
Y88853D01*
X320443Y88130D01*
X320706Y87867D01*
X320443Y87604D01*
X320143Y86880D01*
Y86097D01*
X320443Y85374D01*
X320996Y84820D01*
X321720Y84521D01*
X322503D01*
X323227Y84820D01*
X323780Y85374D01*
X324080Y86097D01*
Y86880D01*
X323780Y87604D01*
X323517Y87867D01*
X323780Y88130D01*
X324080Y88853D01*
Y89636D01*
X323780Y90360D01*
X323227Y90914D01*
X322503Y91213D01*
D02*
G37*
G36*
X351637Y83339D02*
X350854D01*
X350130Y83040D01*
X349576Y82486D01*
X349277Y81762D01*
Y80979D01*
X349576Y80256D01*
X350130Y79702D01*
X350854Y79402D01*
X351637D01*
X352360Y79702D01*
X352914Y80256D01*
X353214Y80979D01*
Y81762D01*
X352914Y82486D01*
X352360Y83040D01*
X351637Y83339D01*
D02*
G37*
G36*
X344157D02*
X343373D01*
X342650Y83040D01*
X342096Y82486D01*
X341797Y81762D01*
Y80979D01*
X342096Y80256D01*
X342650Y79702D01*
X343373Y79402D01*
X344157D01*
X344880Y79702D01*
X345434Y80256D01*
X345734Y80979D01*
Y81762D01*
X345434Y82486D01*
X344880Y83040D01*
X344157Y83339D01*
D02*
G37*
G36*
X447242Y81890D02*
X446459D01*
X445735Y81590D01*
X445182Y81036D01*
X444882Y80313D01*
Y79530D01*
X445182Y78806D01*
X445735Y78252D01*
X446459Y77953D01*
X447242D01*
X447965Y78252D01*
X448519Y78806D01*
X448819Y79530D01*
Y80313D01*
X448519Y81036D01*
X447965Y81590D01*
X447242Y81890D01*
D02*
G37*
G36*
Y68110D02*
X446459D01*
X445735Y67811D01*
X445182Y67257D01*
X444882Y66533D01*
Y65750D01*
X445182Y65027D01*
X445735Y64473D01*
X446459Y64173D01*
X447242D01*
X447965Y64473D01*
X448519Y65027D01*
X448819Y65750D01*
Y66533D01*
X448519Y67257D01*
X447965Y67811D01*
X447242Y68110D01*
D02*
G37*
G36*
Y54331D02*
X446459D01*
X445735Y54031D01*
X445182Y53477D01*
X444882Y52754D01*
Y51971D01*
X445182Y51247D01*
X445735Y50693D01*
X446459Y50394D01*
X447242D01*
X447965Y50693D01*
X448519Y51247D01*
X448819Y51971D01*
Y52754D01*
X448519Y53477D01*
X447965Y54031D01*
X447242Y54331D01*
D02*
G37*
G36*
Y40551D02*
X446459D01*
X445735Y40251D01*
X445182Y39698D01*
X444882Y38974D01*
Y38191D01*
X445182Y37468D01*
X445735Y36914D01*
X446459Y36614D01*
X447242D01*
X447965Y36914D01*
X448519Y37468D01*
X448819Y38191D01*
Y38974D01*
X448519Y39698D01*
X447965Y40251D01*
X447242Y40551D01*
D02*
G37*
%LPD*%
D14*
X342913Y103543D02*
X359252D01*
Y105118D02*
X360236Y106102D01*
X359252Y103543D02*
X360236Y102559D01*
X342261Y105118D02*
X359252D01*
X340580Y101210D02*
X342913Y103543D01*
X338067Y100924D02*
X342261Y105118D01*
X340580Y100294D02*
Y101210D01*
X338067Y97502D02*
Y100924D01*
X340429Y100143D02*
X340580Y100294D01*
X358645Y212598D02*
X359630Y211614D01*
Y215158D02*
X359842D01*
X358645Y214173D02*
X359630Y215158D01*
X341867Y214173D02*
X358645D01*
X359630Y211614D02*
X359842D01*
X342520Y212598D02*
X358645D01*
X340551Y210630D02*
X342520Y212598D01*
X338157Y210463D02*
X341867Y214173D01*
X340551Y209714D02*
Y210630D01*
X338157Y207040D02*
Y210463D01*
X340429Y209592D02*
X340551Y209714D01*
X338067Y206951D02*
X338157Y207040D01*
X343504Y321457D02*
X362008D01*
X340945Y318898D02*
X343504Y321457D01*
X362008D02*
X362992Y320472D01*
X362008Y323031D02*
X362992Y324016D01*
X342852Y323031D02*
X362008D01*
X338551Y318730D02*
X342852Y323031D01*
X340945Y317982D02*
Y318898D01*
X340823Y317860D02*
X340945Y317982D01*
X338551Y315308D02*
Y318730D01*
X338461Y315218D02*
X338551Y315308D01*
D15*
X336221Y212598D02*
Y218110D01*
Y103150D02*
Y109055D01*
X336614Y320866D02*
Y326772D01*
X-12402Y132087D02*
Y245472D01*
X346850Y122047D02*
Y129528D01*
Y230709D02*
Y238976D01*
Y338976D02*
Y347638D01*
X-12402Y245472D02*
X-12205Y245669D01*
X-12598Y131890D02*
X-12402Y132087D01*
D92*
X336221Y218110D02*
D03*
Y103150D02*
D03*
Y109055D02*
D03*
Y212598D02*
D03*
X336614Y326772D02*
D03*
X321536Y82197D02*
D03*
X321428Y191724D02*
D03*
X320920Y300276D02*
D03*
X143307Y347244D02*
D03*
X140551D02*
D03*
X137795D02*
D03*
X98425Y255512D02*
D03*
Y259055D02*
D03*
X-12598Y157087D02*
D03*
X-12205Y245669D02*
D03*
X-12598Y131890D02*
D03*
X105905Y276772D02*
D03*
X127165Y340158D02*
D03*
Y344882D02*
D03*
Y342520D02*
D03*
X33858Y359055D02*
D03*
X57874Y305512D02*
D03*
X54331D02*
D03*
X50787D02*
D03*
X47244D02*
D03*
X336614Y320866D02*
D03*
X346850Y129528D02*
D03*
Y122047D02*
D03*
Y238976D02*
D03*
Y230709D02*
D03*
Y347638D02*
D03*
Y338976D02*
D03*
X278346Y261221D02*
D03*
X320472Y258858D02*
D03*
X278346Y151969D02*
D03*
X320472Y149606D02*
D03*
X278740Y369685D02*
D03*
X320866Y367323D02*
D03*
X341339Y171260D02*
D03*
Y61811D02*
D03*
X342126Y279528D02*
D03*
D93*
X360236Y106102D02*
D03*
Y102559D02*
D03*
X359842Y215158D02*
D03*
Y211614D02*
D03*
X338067Y97502D02*
D03*
X340429Y100143D02*
D03*
X338067Y206951D02*
D03*
X340429Y209592D02*
D03*
X362992Y324016D02*
D03*
Y320472D02*
D03*
X340823Y317860D02*
D03*
X338461Y315218D02*
D03*
M02*
