G04*
G04 #@! TF.GenerationSoftware,Altium Limited,Altium Designer,22.10.1 (41)*
G04*
G04 Layer_Physical_Order=4*
G04 Layer_Color=16711680*
%FSLAX25Y25*%
%MOIN*%
G70*
G04*
G04 #@! TF.SameCoordinates,A175BB40-D52E-4970-BDEE-3E26937F75EC*
G04*
G04*
G04 #@! TF.FilePolarity,Positive*
G04*
G01*
G75*
%ADD15C,0.01000*%
%ADD21R,0.11811X0.07874*%
%ADD30R,0.11024X0.02165*%
%ADD86C,0.01968*%
%ADD88C,0.06000*%
%ADD89C,0.12795*%
%ADD90C,0.05906*%
%ADD91C,0.11811*%
%ADD92C,0.02362*%
%ADD93C,0.01575*%
G36*
X549386Y391431D02*
X550476Y390980D01*
X551458Y390324D01*
X552292Y389489D01*
X552948Y388508D01*
X553400Y387417D01*
X553630Y386260D01*
Y385669D01*
Y8032D01*
Y7441D01*
X553400Y6284D01*
X552948Y5193D01*
X552292Y4212D01*
X551458Y3377D01*
X550476Y2721D01*
X549386Y2269D01*
X548228Y2039D01*
X470472D01*
Y33465D01*
X501968D01*
X509842Y41339D01*
Y125906D01*
X499921Y135827D01*
X480315D01*
X476378Y139764D01*
Y144095D01*
X480315Y148031D01*
X505905Y147638D01*
X509842Y151575D01*
Y181102D01*
X500035Y190910D01*
X480315Y190551D01*
X476772Y194095D01*
Y199606D01*
X480315Y203150D01*
X504331D01*
X509842Y208661D01*
Y236614D01*
X499921Y246063D01*
X490578Y245875D01*
X490335Y245940D01*
X489350D01*
X488988Y245843D01*
X480315Y245669D01*
X476772Y250000D01*
Y254331D01*
X480315Y257874D01*
X503937D01*
X509842Y263779D01*
X509842Y352362D01*
X484252Y377953D01*
X470472D01*
Y391662D01*
X548228D01*
X549386Y391431D01*
D02*
G37*
G36*
X326772Y213386D02*
X326380D01*
X325657Y213086D01*
X325103Y212532D01*
X324803Y211809D01*
Y211026D01*
X325103Y210302D01*
X325657Y209749D01*
X326380Y209449D01*
X326772D01*
Y103937D01*
X326380D01*
X325657Y103637D01*
X325103Y103084D01*
X324803Y102360D01*
Y101577D01*
X325103Y100853D01*
X325657Y100300D01*
X326380Y100000D01*
X326772D01*
Y92126D01*
X320472D01*
Y95276D01*
X323622D01*
Y194811D01*
X323707Y194896D01*
X324007Y195619D01*
Y196403D01*
X323707Y197126D01*
X323622Y197211D01*
Y197567D01*
X323707Y197652D01*
X324007Y198375D01*
Y199159D01*
X323707Y199882D01*
X323622Y199967D01*
Y201575D01*
X320472D01*
Y204724D01*
X323622D01*
Y302728D01*
X324110Y303216D01*
X324409Y303939D01*
Y304722D01*
X324110Y305446D01*
X323847Y305709D01*
X324110Y305972D01*
X324409Y306695D01*
Y307478D01*
X324110Y308202D01*
X323622Y308689D01*
Y309055D01*
X309055D01*
Y312598D01*
X326772D01*
Y213386D01*
D02*
G37*
G36*
X291339Y260067D02*
X290851Y259580D01*
X290551Y258856D01*
Y258073D01*
X290851Y257349D01*
X291114Y257087D01*
X290851Y256824D01*
X290551Y256100D01*
Y255317D01*
X290851Y254594D01*
X291339Y254106D01*
Y150815D01*
X290851Y150328D01*
X290551Y149604D01*
Y148821D01*
X290851Y148098D01*
X291114Y147835D01*
X290851Y147572D01*
X290551Y146848D01*
Y146065D01*
X290851Y145342D01*
X291339Y144854D01*
Y110630D01*
X287008D01*
Y332283D01*
X291339D01*
Y260067D01*
D02*
G37*
G36*
X285827Y146063D02*
X281496D01*
Y371260D01*
X285827D01*
Y146063D01*
D02*
G37*
%LPC*%
G36*
X525550Y364035D02*
X524135D01*
X522747Y363759D01*
X521439Y363218D01*
X520262Y362431D01*
X519262Y361431D01*
X518475Y360254D01*
X517934Y358946D01*
X517658Y357558D01*
Y356143D01*
X517934Y354755D01*
X518475Y353447D01*
X519262Y352270D01*
X520262Y351269D01*
X521439Y350483D01*
X522747Y349941D01*
X524135Y349665D01*
X525550D01*
X526938Y349941D01*
X528246Y350483D01*
X529423Y351269D01*
X530423Y352270D01*
X531210Y353447D01*
X531751Y354755D01*
X532028Y356143D01*
Y357558D01*
X531751Y358946D01*
X531210Y360254D01*
X530423Y361431D01*
X529423Y362431D01*
X528246Y363218D01*
X526938Y363759D01*
X525550Y364035D01*
D02*
G37*
G36*
Y44035D02*
X524135D01*
X522747Y43759D01*
X521439Y43218D01*
X520262Y42431D01*
X519262Y41431D01*
X518475Y40254D01*
X517934Y38946D01*
X517658Y37558D01*
Y36143D01*
X517934Y34755D01*
X518475Y33447D01*
X519262Y32270D01*
X520262Y31269D01*
X521439Y30483D01*
X522747Y29941D01*
X524135Y29665D01*
X525550D01*
X526938Y29941D01*
X528246Y30483D01*
X529423Y31269D01*
X530423Y32270D01*
X531210Y33447D01*
X531751Y34755D01*
X532028Y36143D01*
Y37558D01*
X531751Y38946D01*
X531210Y40254D01*
X530423Y41431D01*
X529423Y42431D01*
X528246Y43218D01*
X526938Y43759D01*
X525550Y44035D01*
D02*
G37*
%LPD*%
D15*
X11193Y207087D02*
X40157Y236051D01*
X-787Y207087D02*
X11193D01*
X-49000Y211024D02*
X-4724D01*
X-787Y207087D01*
X39531Y204491D02*
Y221959D01*
X39691Y222120D01*
X39370Y204331D02*
X39531Y204491D01*
X-49000Y229921D02*
X20497D01*
X21285Y230709D01*
X21654D01*
X-48819Y226772D02*
X17717D01*
X21260Y223228D01*
X3150Y220472D02*
X5906Y217717D01*
X-49000Y220472D02*
X3150D01*
X-787Y217323D02*
X5906Y210630D01*
X-47244Y217323D02*
X-787D01*
X5143Y236221D02*
X5537Y236614D01*
X5906D01*
X-49000Y236221D02*
X5143D01*
X1575Y239370D02*
X5906Y243701D01*
X-49000Y239370D02*
X1575D01*
X-49000Y132283D02*
X-31102D01*
X-6693Y156693D02*
X53543D01*
X-31102Y132283D02*
X-6693Y156693D01*
X-37827Y173228D02*
X-37359Y173697D01*
X-49000Y173228D02*
X-37827D01*
X-37359Y173697D02*
X-36990D01*
X-49000Y173228D02*
X-49000Y173228D01*
X-39567Y254921D02*
X-39370Y254724D01*
X-48803Y254921D02*
X-39567D01*
X-49000Y255118D02*
X-48803Y254921D01*
X-49000Y261417D02*
X-48803Y261614D01*
X-39567D02*
X-39370Y261811D01*
X-48803Y261614D02*
X-39567D01*
X-49000Y251969D02*
X-35039D01*
X-48425Y245669D02*
X-12205D01*
X-10236Y191732D02*
X53937D01*
X-26378Y207874D02*
X-10236Y191732D01*
X-49000Y207874D02*
X-26378D01*
X-10236Y187008D02*
X53937D01*
X-24803Y201575D02*
X-10236Y187008D01*
X-49000Y201575D02*
X-24803D01*
X-8661Y181890D02*
X53937D01*
X-25197Y198425D02*
X-8661Y181890D01*
X-49000Y198425D02*
X-25197D01*
X-7087Y172047D02*
X53937D01*
X-14567Y179528D02*
X-7087Y172047D01*
X-49000Y179528D02*
X-14567D01*
X-6299Y166929D02*
X53937D01*
X-15748Y176378D02*
X-6299Y166929D01*
X-49000Y176378D02*
X-15748D01*
X-49000Y170079D02*
X-39370D01*
X-13780Y161811D02*
X53937D01*
X-49000Y166929D02*
X-18898D01*
X-13780Y161811D01*
X53543Y156693D02*
X53937Y157087D01*
X-6693Y129134D02*
X-3937Y131890D01*
X-48819Y129134D02*
X-6693D01*
X-49000Y264567D02*
X-39370D01*
X-49000Y248819D02*
X-38976D01*
X-49000Y242520D02*
X-39370D01*
X-39370Y242520D01*
X-49000Y233071D02*
X-39370D01*
X-39370Y233071D01*
X-39370Y223622D02*
X-39370Y223622D01*
X-49000Y223622D02*
X-39370D01*
Y214173D02*
X-39370Y214173D01*
X-49000Y214173D02*
X-39370D01*
X-49000Y204724D02*
X-39370D01*
X-49000Y135433D02*
X-39370D01*
X-49000Y144882D02*
X-39370D01*
X-49000Y154331D02*
X-49000Y154331D01*
X-39370D01*
X-49000Y163779D02*
X-39370D01*
X-49000Y163779D02*
X-49000Y163779D01*
X-49000Y182677D02*
X-49000Y182677D01*
X-39370D01*
D21*
X548228Y251969D02*
D03*
Y141732D02*
D03*
D30*
X-49000Y264567D02*
D03*
Y261417D02*
D03*
Y258268D02*
D03*
Y255118D02*
D03*
Y251969D02*
D03*
Y248819D02*
D03*
Y245669D02*
D03*
Y242520D02*
D03*
Y233071D02*
D03*
Y229921D02*
D03*
Y226772D02*
D03*
Y223622D02*
D03*
Y220472D02*
D03*
Y217323D02*
D03*
Y214173D02*
D03*
Y211024D02*
D03*
Y207874D02*
D03*
Y204724D02*
D03*
Y201575D02*
D03*
Y198425D02*
D03*
Y182677D02*
D03*
Y179528D02*
D03*
Y176378D02*
D03*
Y173228D02*
D03*
Y170079D02*
D03*
Y166929D02*
D03*
Y163779D02*
D03*
Y160630D02*
D03*
Y157480D02*
D03*
Y154331D02*
D03*
Y151181D02*
D03*
Y148031D02*
D03*
Y144882D02*
D03*
Y141732D02*
D03*
Y138583D02*
D03*
Y135433D02*
D03*
Y132283D02*
D03*
Y129134D02*
D03*
Y239370D02*
D03*
Y236221D02*
D03*
D86*
X9843Y258268D02*
X9843Y258268D01*
X-49000Y258268D02*
X9843D01*
D88*
X9843Y268779D02*
D03*
Y258780D02*
D03*
D89*
X524843Y36850D02*
D03*
Y356850D02*
D03*
D90*
X489843Y353070D02*
D03*
X499843Y348070D02*
D03*
X489843Y343070D02*
D03*
X499843Y338070D02*
D03*
X489843Y333070D02*
D03*
X499843Y328070D02*
D03*
X489843Y323070D02*
D03*
X499843Y318070D02*
D03*
X489843Y297640D02*
D03*
X499843Y292640D02*
D03*
X489843Y287640D02*
D03*
X499843Y282640D02*
D03*
X489843Y277640D02*
D03*
X499843Y272640D02*
D03*
X489843Y267640D02*
D03*
X499843Y262640D02*
D03*
X489843Y242200D02*
D03*
X499843Y237200D02*
D03*
X489843Y232200D02*
D03*
X499843Y227200D02*
D03*
X489843Y222200D02*
D03*
X499843Y217200D02*
D03*
X489843Y212200D02*
D03*
X499843Y207200D02*
D03*
X489843Y186770D02*
D03*
X499843Y181770D02*
D03*
X489843Y176770D02*
D03*
X499843Y171770D02*
D03*
X489843Y166770D02*
D03*
X499843Y161770D02*
D03*
X489843Y156770D02*
D03*
X499843Y151770D02*
D03*
X489843Y131340D02*
D03*
X499843Y126340D02*
D03*
X489843Y121340D02*
D03*
X499843Y116340D02*
D03*
X489843Y111340D02*
D03*
X499843Y106340D02*
D03*
X489843Y101340D02*
D03*
X499843Y96340D02*
D03*
X489843Y75910D02*
D03*
X499843Y70910D02*
D03*
X489843Y65910D02*
D03*
X499843Y60910D02*
D03*
X489843Y55910D02*
D03*
X499843Y50910D02*
D03*
X489843Y45910D02*
D03*
X499843Y40910D02*
D03*
D91*
X539331Y367618D02*
D03*
Y26083D02*
D03*
X482993Y251850D02*
D03*
Y196850D02*
D03*
Y141850D02*
D03*
D92*
X163779Y270472D02*
D03*
X168898Y262992D02*
D03*
Y265748D02*
D03*
X40157Y236051D02*
D03*
X39691Y222120D02*
D03*
X39370Y204331D02*
D03*
X5906Y210630D02*
D03*
Y217717D02*
D03*
X21260Y223228D02*
D03*
X21654Y230709D02*
D03*
X5906Y236614D02*
D03*
Y243701D02*
D03*
X19685Y196850D02*
D03*
X168898Y268504D02*
D03*
X166535Y270472D02*
D03*
X336221Y218110D02*
D03*
Y103150D02*
D03*
Y109055D02*
D03*
Y212598D02*
D03*
X336614Y326772D02*
D03*
X321536Y82197D02*
D03*
X322047Y93701D02*
D03*
Y203150D02*
D03*
X321428Y191724D02*
D03*
X320920Y300276D02*
D03*
X322441Y311417D02*
D03*
X-36990Y173697D02*
D03*
X-39370Y254724D02*
D03*
Y261811D02*
D03*
X127165Y331102D02*
D03*
Y333465D02*
D03*
Y335827D02*
D03*
X-35039Y251969D02*
D03*
X329528Y211417D02*
D03*
X326772D02*
D03*
X331890D02*
D03*
X329528Y101969D02*
D03*
X326772D02*
D03*
X331890D02*
D03*
X289370Y304331D02*
D03*
Y221654D02*
D03*
Y330315D02*
D03*
X283465Y317323D02*
D03*
X311024Y310630D02*
D03*
X143307Y347244D02*
D03*
X140551D02*
D03*
X137795D02*
D03*
X96063Y268504D02*
D03*
X92913D02*
D03*
X87402Y286221D02*
D03*
X83858D02*
D03*
X77165Y287795D02*
D03*
X73622Y292126D02*
D03*
X98425Y255512D02*
D03*
Y259055D02*
D03*
X-12598Y157087D02*
D03*
X-12205Y245669D02*
D03*
X-12598Y131890D02*
D03*
X38976Y268110D02*
D03*
X35827D02*
D03*
X32677D02*
D03*
X152362Y285827D02*
D03*
Y290551D02*
D03*
X105905Y282283D02*
D03*
X143307Y270472D02*
D03*
X148031D02*
D03*
X152756D02*
D03*
X105905Y276772D02*
D03*
X143307Y331496D02*
D03*
Y336221D02*
D03*
Y333858D02*
D03*
X128347Y253150D02*
D03*
X196063Y334646D02*
D03*
X127165Y340158D02*
D03*
Y344882D02*
D03*
Y342520D02*
D03*
X11024Y308268D02*
D03*
X53150Y329528D02*
D03*
X50000D02*
D03*
X46850D02*
D03*
X44094Y331890D02*
D03*
X47244Y318504D02*
D03*
X52362D02*
D03*
X57087D02*
D03*
X62205Y326772D02*
D03*
X66142D02*
D03*
X70079D02*
D03*
X40945Y328740D02*
D03*
Y311417D02*
D03*
Y315748D02*
D03*
Y320472D02*
D03*
Y325197D02*
D03*
Y331890D02*
D03*
X61811Y354724D02*
D03*
X59055D02*
D03*
X56299D02*
D03*
X33858Y359055D02*
D03*
Y364961D02*
D03*
X34646Y347638D02*
D03*
X91732Y298819D02*
D03*
X57874Y305512D02*
D03*
X54331D02*
D03*
X50787D02*
D03*
X47244D02*
D03*
X336614Y320866D02*
D03*
X53937Y196850D02*
D03*
Y191732D02*
D03*
Y187008D02*
D03*
Y181890D02*
D03*
X19685Y151969D02*
D03*
X53937D02*
D03*
X19685Y176772D02*
D03*
X53937D02*
D03*
Y172047D02*
D03*
Y166929D02*
D03*
X-39370Y170079D02*
D03*
X53937Y161811D02*
D03*
Y157087D02*
D03*
X-3937Y131890D02*
D03*
X-20866D02*
D03*
X-39370Y135433D02*
D03*
Y144882D02*
D03*
Y154331D02*
D03*
Y163779D02*
D03*
Y182677D02*
D03*
Y204724D02*
D03*
Y214173D02*
D03*
Y223622D02*
D03*
Y233071D02*
D03*
Y242520D02*
D03*
Y248819D02*
D03*
Y264567D02*
D03*
X446850Y38583D02*
D03*
Y52362D02*
D03*
Y66142D02*
D03*
Y79921D02*
D03*
Y93701D02*
D03*
Y107480D02*
D03*
Y121260D02*
D03*
Y135039D02*
D03*
Y148819D02*
D03*
Y162598D02*
D03*
Y176378D02*
D03*
Y190157D02*
D03*
Y203937D02*
D03*
Y217717D02*
D03*
Y231496D02*
D03*
Y245276D02*
D03*
Y259055D02*
D03*
Y272835D02*
D03*
Y286614D02*
D03*
Y300394D02*
D03*
Y314173D02*
D03*
Y327953D02*
D03*
Y341732D02*
D03*
Y355512D02*
D03*
X346850Y129528D02*
D03*
Y122047D02*
D03*
Y238976D02*
D03*
Y230709D02*
D03*
X251181Y142126D02*
D03*
X248425D02*
D03*
X248031Y118110D02*
D03*
X250787D02*
D03*
X251181Y251181D02*
D03*
X248425D02*
D03*
X248031Y227165D02*
D03*
X250787D02*
D03*
X332275Y175145D02*
D03*
Y177901D02*
D03*
Y180657D02*
D03*
X322038Y198767D02*
D03*
Y196011D02*
D03*
X343692Y198373D02*
D03*
X351566D02*
D03*
X343692Y190893D02*
D03*
X351172D02*
D03*
X335030Y203885D02*
D03*
X332348Y65623D02*
D03*
Y68379D02*
D03*
Y71135D02*
D03*
X322112Y89245D02*
D03*
Y86489D02*
D03*
X343765Y88851D02*
D03*
X351639D02*
D03*
X343765Y81371D02*
D03*
X351245D02*
D03*
X335104Y94363D02*
D03*
X351575Y299213D02*
D03*
X344094D02*
D03*
X351969Y306693D02*
D03*
X344094D02*
D03*
X335433Y312205D02*
D03*
X328740Y319685D02*
D03*
X325984D02*
D03*
X331102D02*
D03*
X322441Y304331D02*
D03*
Y307087D02*
D03*
X332677Y283465D02*
D03*
Y286221D02*
D03*
Y288976D02*
D03*
X346850Y347638D02*
D03*
Y338976D02*
D03*
X269291Y221063D02*
D03*
X292520Y255709D02*
D03*
Y258465D02*
D03*
X283465Y261221D02*
D03*
X269291Y258858D02*
D03*
Y256102D02*
D03*
X278346Y261221D02*
D03*
X311417Y256496D02*
D03*
Y253740D02*
D03*
X337795Y256102D02*
D03*
X335039D02*
D03*
X337402Y222638D02*
D03*
Y225394D02*
D03*
X269291Y223819D02*
D03*
X320472Y258858D02*
D03*
X269291Y111811D02*
D03*
X292520Y146457D02*
D03*
Y149213D02*
D03*
X283465Y151969D02*
D03*
X269291Y149606D02*
D03*
Y146850D02*
D03*
X278346Y151969D02*
D03*
X311417Y147244D02*
D03*
Y144488D02*
D03*
X337795Y146850D02*
D03*
X335039D02*
D03*
X337402Y113386D02*
D03*
Y116142D02*
D03*
X269291Y114567D02*
D03*
X320472Y149606D02*
D03*
X289370Y112598D02*
D03*
X251181Y335827D02*
D03*
X248425D02*
D03*
X248819Y359842D02*
D03*
X251575D02*
D03*
X278740Y369685D02*
D03*
X283858D02*
D03*
X269685Y367323D02*
D03*
Y364567D02*
D03*
X292913Y364173D02*
D03*
Y366929D02*
D03*
X311811Y364961D02*
D03*
Y362205D02*
D03*
X338189Y364567D02*
D03*
X335433D02*
D03*
X320866Y367323D02*
D03*
X337795Y333858D02*
D03*
Y331102D02*
D03*
X269685Y332283D02*
D03*
Y329528D02*
D03*
X341339Y171260D02*
D03*
Y61811D02*
D03*
X342126Y279528D02*
D03*
D93*
X360236Y106102D02*
D03*
Y102559D02*
D03*
X359842Y215158D02*
D03*
Y211614D02*
D03*
X338067Y97502D02*
D03*
X340429Y100143D02*
D03*
X338067Y206951D02*
D03*
X340429Y209592D02*
D03*
X362992Y324016D02*
D03*
Y320472D02*
D03*
X340823Y317860D02*
D03*
X338461Y315218D02*
D03*
M02*
