M48
;Layer_Color=9474304
;FILE_FORMAT=2:5
INCH,TZ
;TYPE=PLATED
T01F00S00C0.00787
T02F00S00C0.01181
T03F00S00C0.03543
T04F00S00C0.04000
T05F00S00C0.07480
T06F00S00C0.07874
;TYPE=NON_PLATED
T07F00S00C0.12795
%
T01
X425366Y49211
X425197Y87008
X425366Y100393
Y138188
Y151574
X425591Y189370
X370866Y180407
Y170866
X360630Y170171
Y160630
X370866Y159935
Y140157
Y129226
Y119685
X360630Y118990
Y109449
X370866Y108754
Y88976
Y78045
Y68504
Y57573
X360630Y58268
Y67809
Y78740
Y98518
Y129921
Y149699
Y181102
X329134Y183858
Y187402
Y177559
Y174016
Y167717
Y164173
Y157874
Y154331
Y136221
Y132677
Y126378
Y122835
Y116535
Y112992
Y106693
Y103150
Y85039
Y81496
Y75197
Y71654
Y65354
Y61811
Y55512
Y51968
X309842Y53150
X309842Y63386
X309842Y73622
X309842Y83858
X293307Y82578
X290086Y86646
X290086Y76409
X293307Y72342
X290086Y66173
X293307Y62105
X290086Y55937
X293307Y51869
Y103050
X290086Y107118
X293307Y113286
X290086Y117354
X293307Y123523
X290086Y127590
X293307Y133759
X290086Y137827
X293307Y154231
X290086Y158299
X293307Y164468
X290086Y168535
X293307Y174704
X290086Y178771
X293307Y184940
X290086Y189008
X309842Y186221
X309842Y175984
X309842Y165748
X309842Y155512
X309842Y135039
X309842Y124803
X309842Y114567
X309842Y104331
X360630Y47337
X120079Y90158
Y95276
X109843Y100000
Y105118
X32637Y123622
X32677Y127165
X-2613Y129134
X-21193Y135433
Y157480
X19291Y203543
X-14173Y258268
X-16929
X-19685
X62770Y340746
X82284Y346063
X128347Y344094
Y340158
X135433Y337795
Y345276
X143701Y327165
Y322441
X140157
X156299
X159449
X162598
X165354
X168110
X170866
X175197Y337008
Y338976
X128347Y317717
Y315354
Y312992
X92520Y243701
X88189Y232528
X77052Y229921
X290086Y229953
X293307Y225885
X290086Y219716
X293307Y215649
X290086Y209480
X293307Y205412
X309842Y206693
Y216929
X309842Y227165
Y237402
X293307Y236121
X290086Y240189
X293307Y256593
X290086Y260661
X293307Y266830
X290086Y270898
X293307Y277066
X290086Y281134
X293307Y287302
X290086Y291370
X293307Y307381
X290086Y311449
X293307Y317617
X290086Y321685
X293307Y327815
X290117Y331852
X293307Y338090
X290086Y342157
X309842Y339370
X309842Y329134
X309842Y318898
Y308661
X309842Y288583
Y278346
X309842Y268110
X309842Y257874
X329134Y256693
Y260236
Y266535
Y270079
Y276378
Y279921
Y286221
Y289764
Y307874
Y311417
Y317717
Y321260
Y327559
Y331102
Y337402
Y340945
X360630Y334646
Y323714
Y314173
X370866Y313478
Y324409
Y333951
Y344882
Y293701
Y282769
Y273228
X360630Y272533
Y262992
X370866Y262297
Y242520
Y231589
Y222047
X360630Y221352
Y211811
X370866Y211116
Y191339
X360630Y200880
Y232283
Y252061
Y283465
Y303242
X329134Y238583
Y235039
Y228740
Y225197
Y218898
Y215354
Y209055
Y205512
X425366Y202755
Y240550
Y254330
Y292125
X425365Y305510
X422677Y350000
X170866Y350787
X168110
X165354
X162598
X159449
X159055Y348031
X155118
X156299Y350787
X143701
X140157
X135039
X131496
Y355512
X143701
X135433Y366142
Y373622
X128347Y372441
Y368504
X155118Y376378
X159055
X175197Y367323
Y365354
X60550Y351626
X49213Y355118
T02
X392913Y48606
X402362Y48819
X409449Y48819
X419685Y48819
Y68110
X425365Y68110
X440945Y68110
X433071Y78740
X440945Y87008
Y100394
X433071Y108661
X425365Y119291
X419685Y119291
X409547Y119291
X402362Y119291
X392913Y119449
X387795Y115748
X390158Y112205
X393020Y99894
X402362Y100000
X409449Y100000
X419685Y100000
Y89370
X409547
X402362
X392913Y89528
X387795Y85827
X390158Y82284
X392913Y68268
X387795Y64567
X390158Y61024
X402362Y68110
X409547
X433071Y57480
X440945Y49213
Y119291
X433071Y129921
X440945Y138189
Y151575
X433071Y159843
X440945Y170473
X425365Y170866
X419685Y170472
X409547
X402362
X392913Y170630
X387795Y166929
X390158Y163386
X393020Y151075
X402362Y151181
X409449Y151181
X419685Y151181
X419685Y140551
X409547
X402362
X392913Y140709
X387795Y137008
X390158Y133465
X390158Y184646
X387795Y188189
X433071Y181102
X440945Y189370
X349606Y188583
X340158Y188583
Y178740
X345276Y181693
X349606Y178740
X349577Y167926
X345276Y171850
X340158Y168642
Y159055
X345276Y162008
X349606Y157874
X345276Y151181
Y144882
X349606Y137402
X340158Y137402
Y127559
X345276Y130512
X349606Y127559
X349577Y116744
X345276Y120669
X340158Y117461
Y107874
X345276Y110827
X349606Y106693
X345276Y100000
X334272Y94061
X340158Y86221
X349606Y86221
Y76378
X345276Y79331
X340158Y76378
Y66280
X345276Y69488
X349577Y65563
X349606Y55512
X345276Y59646
X340158Y56693
X345276Y48819
X334272Y43667
X356713
Y94061
X356693Y140551
X334252Y150000
X296457Y150394
Y140551
Y129921
Y119685
Y109449
Y99213
Y88976
Y78740
Y68504
Y58268
Y48031
X243440Y70342
X234252Y74410
Y77165
Y79921
X245669Y90158
Y97638
X253543
Y90158
X237402Y103150
X233465Y110630
X230709
X234252Y174803
Y177559
Y180315
X243440Y170735
X296457Y170866
Y160630
Y181102
X175197Y185827
X167323
X123228Y186221
Y188976
X120079
Y186221
X129528Y111811
X92913
X99213Y90158
X223361Y90814
Y95274
Y98029
X224148Y102625
X62598Y86221
X57480
X52756
X47638
X42520
X37795
X32677
X27559
X17717
Y120472
X42520
X62598
X55905Y189370
X-39370Y182677
X-36990Y173697
X-39370Y170079
Y163779
Y154331
Y144882
Y135433
X-12598Y154331
X-15354Y203543
X-7874Y210236
Y217323
X-6693Y223228
Y230315
X-7874Y236614
Y243701
X-12598Y245669
X-35039Y251969
X-39370Y254724
Y248819
Y242520
Y233071
Y223622
Y214173
Y204724
Y261811
Y264567
X21654Y263779
Y259842
Y255906
Y251969
X25591
X29528
X33465
X37402
X41339
X49213
X53150
X57087
X61024
Y263779
X57087
X64961Y267717
Y271654
Y275590
X33858Y291339
X36220Y326772
Y329921
X38976Y328346
X41732Y329921
Y326772
X33071Y344488
X31890Y206299
X66929Y207087
X69291Y211417
X71260Y218898
X70535Y190551
X74079
X77622
X81165
X92520Y197244
Y200787
Y204331
X92583Y207874
X86221Y210630
X75984Y211417
X72835
X86221Y222441
Y224803
X97638Y218898
X125197Y219685
Y225197
Y245276
Y250787
X125197Y270472
Y275984
X148425Y298031
Y302756
X145669Y306693
X151575
X162205Y312205
X162598Y300000
Y297244
X171653Y284252
Y279528
X182677Y280315
X185827
X185827Y305512
Y308661
X181496Y312205
Y316142
X178347
X175197
X172047
X135827Y322441
X132677
X129528
Y325197
X113779Y326378
Y323622
Y320472
X88189Y329528
X84646
X81496Y331102
Y334646
Y338189
X77953
X146850Y338976
X150000
Y343701
X146850
X162598Y264811
X167323
X172075
X171653Y259055
Y254331
X183071Y255118
X185827
X172047Y238976
X167323
X162598
X171653Y233465
Y228740
X172441Y213386
Y209842
Y206299
X176772
X182677Y202362
Y198425
Y194488
Y190551
X187795Y207480
Y210630
Y213779
X190551Y212205
Y209055
X190945Y221654
Y224409
X177165Y216535
X167717Y213386
X162992
X140157Y210236
X136614
X133071
X130315Y207318
X128740Y196850
X124409Y193539
X88189Y241732
Y245276
X88189Y248488
Y252425
Y256362
X223361Y295539
Y299700
Y302456
X224148Y307350
Y310893
Y203019
X223361Y198423
Y195667
Y191208
X245669Y190551
Y198031
X253543
Y190551
X237402Y203543
X233465Y211024
X230709
X296457Y212205
X296457Y222441
Y232283
Y242520
Y252756
Y262992
Y273228
Y283465
Y293701
Y303543
Y314173
Y324016
Y334252
Y344488
X334252Y345669
X340158Y342126
X349606Y342126
Y332284
X345276Y335236
X340158Y332283
Y322185
X345276Y325394
X349577Y321469
X349606Y311417
X345276Y315551
X340158Y312598
X345276Y304724
X334252Y298819
X340158Y290945
X349606Y290945
Y281103
X345276Y284055
X340158Y281102
Y271004
X345276Y274213
X349577Y270288
X349606Y260236
X345276Y264370
X340158Y261417
X345276Y253543
Y247244
X349606Y239764
X340158Y239764
Y229921
X345276Y232874
X349606Y229922
X349577Y219107
X345276Y223031
X340158Y219823
Y210236
X345276Y213189
X349606Y209055
X345276Y202362
X334272Y196423
X356713
X356693Y242913
X334252Y252362
X356693Y298819
Y345276
X253543Y302362
Y294882
X245669
Y302362
X237402Y307874
X233465Y315354
X230709
X234252Y284646
Y281890
Y279134
X243440Y275066
X296457Y201969
X296457Y191339
X392913Y191890
X402362Y191732
X409547
X419685
Y202362
X409449Y202362
X402362Y202362
X393020Y202256
X390158Y214567
X387795Y218110
X392913Y221811
X402362Y221654
X409547
X419685
X425365
X440945Y221654
X433071Y232283
X440945Y240551
Y254331
X433071Y262598
X425365Y273228
X419685Y273228
X409547Y273228
X402362Y273228
X392913Y273386
X387795Y269685
X390158Y266142
X393020Y253831
X402362Y253937
X409449Y253937
X419685Y253937
Y242913
X409547
X402362
X392913Y243071
X387795Y239370
X390158Y235827
Y287402
X387795Y290945
X392913Y294646
X402362Y294488
X409547
X419685
Y305118
X409449Y305118
X402362Y305118
X393020Y305012
X390158Y317323
X387795Y320866
X392913Y324567
X402362Y324410
X409547
X419685
X425365Y324409
X440945Y324410
X433071Y335039
Y313779
X440945Y305512
Y292126
X433071Y283858
X440945Y273228
X433071Y211024
X440945Y202756
X419685Y345669
X409547
X402362
X392913Y345827
X387795Y342126
X390158Y338583
X345276Y350000
X349606Y356693
X351969
X150000Y367323
X146850
Y372047
X150000
X98032Y355906
X94882
X91732
X88583
X85433
X74016Y361024
X70866Y349606
X68110Y349606
X51968Y350787
X48425
X44882
X41339
X37795
X34252
X33071Y347638
T03
X489843Y45910
Y55910
Y65910
Y75910
X499843Y70910
Y60910
Y50910
Y40910
Y96340
Y106340
Y116340
Y126340
X489843Y131340
Y121340
Y111340
Y101340
Y156770
Y166770
Y176770
Y186770
X499843Y181770
Y171770
Y161770
Y151770
Y207200
Y217200
Y227200
Y237200
X489843Y242200
Y232200
Y222200
Y212200
Y267640
Y277640
Y287640
Y297640
X499843Y292640
Y282640
Y272640
Y262640
Y318070
Y328070
Y338070
X489843Y343070
Y333070
Y323070
Y353070
X499843Y348070
T04
X22441Y283976
Y293976
T05
X438976Y349213
Y368898
X466535
Y349213
T06
X539331Y26083
X482993Y141850
Y196850
Y251850
X539331Y367618
T07
X524843Y36850
Y356850
M30
