M48
;Layer_Color=9474304
;FILE_FORMAT=2:5
INCH,TZ
;TYPE=PLATED
T1F00S00C0.00787
T2F00S00C0.01181
T3F00S00C0.03543
T4F00S00C0.04000
T5F00S00C0.07874
;TYPE=NON_PLATED
T6F00S00C0.12795
%
T01
X338067Y97502
X340429Y100143
X360236Y102559
Y106102
X359842Y211614
Y215158
X340429Y209592
X338067Y206951
X338461Y315218
X340823Y317860
X362992Y320472
Y324016
T02
X446850Y38583
Y52362
Y66142
Y79921
Y93701
Y107480
Y121260
Y135039
Y148819
Y162598
Y176378
Y190157
X332275Y180657
Y177901
Y175145
X341339Y171260
X337795Y146850
X335039
X320472Y149606
X311417Y147244
Y144488
X292520Y146457
Y149213
X283465Y151969
X278346
X269291Y149606
Y146850
X251181Y142126
X248425
X248031Y118110
X250787
X269291Y114567
Y111811
X289370Y112598
X326772Y101969
X329528
X331890
X336221Y103150
Y109055
X337402Y113386
Y116142
X346850Y122047
Y129528
X343765Y88851
Y81371
X351245
X351639Y88851
X335104Y94363
X322047Y93701
X322112Y89245
Y86489
X321536Y82197
X332348Y71135
Y68379
Y65623
X341339Y61811
X53937Y151969
Y157087
Y161811
Y166929
Y172047
Y176772
Y181890
Y187008
X19685Y176772
Y151969
X-12598Y157087
Y131890
X-20866
X-3937
X-39370Y135433
Y144882
Y154331
Y163779
Y170079
X-36990Y173697
X-39370Y182677
Y204724
Y214173
Y223622
Y233071
Y242520
Y248819
Y254724
Y261811
Y264567
X-35039Y251969
X-12205Y245669
X5906Y243701
Y236614
X5906Y217717
Y210630
X19685Y196850
X39370Y204331
X39691Y222120
X40157Y236051
X21654Y230709
X21260Y223228
X32677Y268110
X35827
X38976
X40945Y311417
Y315748
Y320472
Y325197
Y328740
Y331890
X44094
X46850Y329528
X50000
X53150
X62205Y326772
X66142
X70079
X57087Y318504
X52362
X47244
Y305512
X50787
X54331
X57874
X11024Y308268
X53937Y196850
Y191732
X98425Y255512
Y259055
X96063Y268504
X92913
X105905Y276772
Y282283
X87402Y286221
X83858
X77165Y287795
X73622Y292126
X91732Y298819
X127165Y331102
Y333465
Y335827
Y340158
Y342520
Y344882
X143307Y336221
Y333858
Y331496
X152362Y290551
Y285827
X152756Y270472
X148031
X143307
X163779
X166535
X168898Y268504
Y265748
Y262992
X128347Y253150
X196063Y334646
X248425Y335827
X251181
X269685Y332283
Y329528
X289370Y330315
X283465Y317323
X289370Y304331
X311024Y310630
X322441Y311417
Y307087
Y304331
X320920Y300276
X332677Y288976
Y286221
Y283465
X342126Y279528
X344094Y299213
X351575
X351969Y306693
X344094
X335433Y312205
X336614Y320866
Y326772
X337795Y331102
Y333858
X346850Y338976
X331102Y319685
X328740
X325984
X320472Y258858
X311417Y256496
Y253740
X292520Y255709
Y258465
X283465Y261221
X278346
X269291Y258858
Y256102
X251181Y251181
X248425
X248031Y227165
X250787
X269291Y223819
Y221063
X289370Y221654
X326772Y211417
X329528
X331890
X336221Y212598
Y218110
X337402Y222638
Y225394
X346850Y230709
Y238976
X337795Y256102
X335039
X335030Y203885
X322047Y203150
X322038Y198767
Y196011
X321428Y191724
X343692Y190893
Y198373
X351566
X351172Y190893
X446850Y203937
Y217717
Y231496
Y245276
Y259055
Y272835
Y286614
Y300394
Y314173
Y327953
Y341732
Y355512
X346850Y347638
X338189Y364567
X335433
X320866Y367323
X311811Y364961
Y362205
X292913Y364173
Y366929
X283858Y369685
X278740
X269685Y367323
Y364567
X251575Y359842
X248819
X143307Y347244
X140551
X137795
X61811Y354724
X59055
X56299
X33858Y359055
Y364961
X34646Y347638
T03
X489843Y45910
Y55910
Y65910
Y75910
X499843Y70910
Y60910
Y50910
Y40910
Y96340
Y106340
Y116340
Y126340
X489843Y131340
Y121340
Y111340
Y101340
Y156770
Y166770
Y176770
Y186770
X499843Y181770
Y171770
Y161770
Y151770
Y207200
Y217200
Y227200
Y237200
X489843Y242200
Y232200
Y222200
Y212200
Y267640
Y277640
Y287640
Y297640
X499843Y292640
Y282640
Y272640
Y262640
Y318070
Y328070
Y338070
X489843Y343070
Y333070
Y323070
Y353070
X499843Y348070
T04
X9843Y258780
Y268779
T05
X539331Y26083
X482993Y141850
Y196850
Y251850
X539331Y367618
T06
X524843Y36850
Y356850
M30
