G04*
G04 #@! TF.GenerationSoftware,Altium Limited,Altium Designer,24.1.2 (44)*
G04*
G04 Layer_Color=32896*
%FSLAX25Y25*%
%MOIN*%
G70*
G04*
G04 #@! TF.SameCoordinates,0B70BC78-7133-40EF-B392-14414780638A*
G04*
G04*
G04 #@! TF.FilePolarity,Positive*
G04*
G01*
G75*
%ADD11C,0.00984*%
%ADD13C,0.00787*%
%ADD17C,0.01000*%
D11*
X392608Y156004D02*
G03*
X392608Y156004I-492J0D01*
G01*
Y177264D02*
G03*
X392608Y177264I-492J0D01*
G01*
Y331201D02*
G03*
X392608Y331201I-492J0D01*
G01*
Y309941D02*
G03*
X392608Y309941I-492J0D01*
G01*
Y280020D02*
G03*
X392608Y280020I-492J0D01*
G01*
Y258760D02*
G03*
X392608Y258760I-492J0D01*
G01*
Y228445D02*
G03*
X392608Y228445I-492J0D01*
G01*
Y207185D02*
G03*
X392608Y207185I-492J0D01*
G01*
X392608Y126083D02*
G03*
X392608Y126083I-492J0D01*
G01*
Y104823D02*
G03*
X392608Y104823I-492J0D01*
G01*
Y74902D02*
G03*
X392608Y74902I-492J0D01*
G01*
Y53642D02*
G03*
X392608Y53642I-492J0D01*
G01*
D13*
X403255Y153937D02*
X408557D01*
Y165748D01*
X403255D02*
X408557D01*
X403255Y153937D02*
Y165748D01*
X430315Y153740D02*
Y157185D01*
Y153740D02*
X433563D01*
X430315Y162500D02*
Y165945D01*
X433563D01*
X403255Y175197D02*
X408557D01*
Y187008D01*
X403255D02*
X408557D01*
X403255Y175197D02*
Y187008D01*
X430315Y175000D02*
Y178445D01*
Y175000D02*
X433563D01*
X430315Y183760D02*
Y187205D01*
X433563D01*
X403255Y329134D02*
Y340945D01*
X408557D01*
Y329134D02*
Y340945D01*
X403255Y329134D02*
X408557D01*
X430315Y341142D02*
X433563D01*
X430315Y337697D02*
Y341142D01*
Y328937D02*
X433563D01*
X430315D02*
Y332382D01*
X403255Y307874D02*
Y319685D01*
X408557D01*
Y307874D02*
Y319685D01*
X403255Y307874D02*
X408557D01*
X430315Y319882D02*
X433563D01*
X430315Y316437D02*
Y319882D01*
Y307677D02*
X433563D01*
X430315D02*
Y311122D01*
X403255Y277953D02*
Y289764D01*
X408557D01*
Y277953D02*
Y289764D01*
X403255Y277953D02*
X408557D01*
X430315Y289961D02*
X433563D01*
X430315Y286516D02*
Y289961D01*
Y277756D02*
X433563D01*
X430315D02*
Y281201D01*
X403255Y256693D02*
Y268504D01*
X408557D01*
Y256693D02*
Y268504D01*
X403255Y256693D02*
X408557D01*
X430315Y268701D02*
X433563D01*
X430315Y265256D02*
Y268701D01*
Y256496D02*
X433563D01*
X430315D02*
Y259941D01*
X403255Y226378D02*
Y238189D01*
X408557D01*
Y226378D02*
Y238189D01*
X403255Y226378D02*
X408557D01*
X430315Y238386D02*
X433563D01*
X430315Y234941D02*
Y238386D01*
Y226181D02*
X433563D01*
X430315D02*
Y229626D01*
X403255Y205118D02*
Y216929D01*
X408557D01*
Y205118D02*
Y216929D01*
X403255Y205118D02*
X408557D01*
X430315Y217126D02*
X433563D01*
X430315Y213681D02*
Y217126D01*
Y204921D02*
X433563D01*
X430315D02*
Y208366D01*
X430315Y136024D02*
X433563D01*
X430315Y132579D02*
Y136024D01*
Y123819D02*
X433563D01*
X430315D02*
Y127264D01*
X403255Y124016D02*
Y135827D01*
X408557D01*
Y124016D02*
Y135827D01*
X403255Y124016D02*
X408557D01*
X430315Y114764D02*
X433563D01*
X430315Y111319D02*
Y114764D01*
Y102559D02*
X433563D01*
X430315D02*
Y106004D01*
X403255Y102756D02*
Y114567D01*
X408557D01*
Y102756D02*
Y114567D01*
X403255Y102756D02*
X408557D01*
X430315Y84842D02*
X433563D01*
X430315Y81398D02*
Y84842D01*
Y72638D02*
X433563D01*
X430315D02*
Y76083D01*
X403255Y72835D02*
Y84646D01*
X408557D01*
Y72835D02*
Y84646D01*
X403255Y72835D02*
X408557D01*
X430315Y63583D02*
X433563D01*
X430315Y60138D02*
Y63583D01*
Y51378D02*
X433563D01*
X430315D02*
Y54823D01*
X403255Y51575D02*
Y63386D01*
X408557D01*
Y51575D02*
Y63386D01*
X403255Y51575D02*
X408557D01*
X540945Y248031D02*
Y255906D01*
X565354Y248031D02*
Y255906D01*
X555315Y248031D02*
X565354D01*
X555315Y255906D02*
X565354D01*
X540945Y137795D02*
Y145669D01*
X565354Y137795D02*
Y145669D01*
X555315Y137795D02*
X565354D01*
X555315Y145669D02*
X565354D01*
D17*
X415484Y346850D02*
Y343570D01*
X414828Y342914D01*
X413516D01*
X412860Y343570D01*
Y346850D01*
X411548Y346194D02*
X410892Y346850D01*
X409580D01*
X408924Y346194D01*
Y345538D01*
X409580Y344882D01*
X410236D01*
X409580D01*
X408924Y344226D01*
Y343570D01*
X409580Y342914D01*
X410892D01*
X411548Y343570D01*
X407612Y346850D02*
X404989Y342914D01*
Y346850D02*
X407612Y342914D01*
X409578Y305905D02*
Y302625D01*
X408922Y301969D01*
X407611D01*
X406954Y302625D01*
Y305905D01*
X405643Y305249D02*
X404987Y305905D01*
X403675D01*
X403019Y305249D01*
Y304593D01*
X403675Y303937D01*
X404331D01*
X403675D01*
X403019Y303281D01*
Y302625D01*
X403675Y301969D01*
X404987D01*
X405643Y302625D01*
X401707Y305905D02*
Y303281D01*
X400395Y301969D01*
X399083Y303281D01*
Y305905D01*
X415484Y295669D02*
Y292389D01*
X414828Y291733D01*
X413516D01*
X412860Y292389D01*
Y295669D01*
X411548Y295013D02*
X410892Y295669D01*
X409580D01*
X408924Y295013D01*
Y294357D01*
X409580Y293701D01*
X410236D01*
X409580D01*
X408924Y293045D01*
Y292389D01*
X409580Y291733D01*
X410892D01*
X411548Y292389D01*
X407612Y295669D02*
X404989D01*
X406300D01*
Y291733D01*
X409578Y254724D02*
Y251444D01*
X408922Y250788D01*
X407611D01*
X406954Y251444D01*
Y254724D01*
X405643Y254068D02*
X404987Y254724D01*
X403675D01*
X403019Y254068D01*
Y253412D01*
X403675Y252756D01*
X404331D01*
X403675D01*
X403019Y252100D01*
Y251444D01*
X403675Y250788D01*
X404987D01*
X405643Y251444D01*
X401707Y250788D02*
Y254724D01*
X399739D01*
X399083Y254068D01*
Y252756D01*
X399739Y252100D01*
X401707D01*
X400395D02*
X399083Y250788D01*
X415484Y244094D02*
Y240814D01*
X414828Y240158D01*
X413516D01*
X412860Y240814D01*
Y244094D01*
X411548Y243438D02*
X410892Y244094D01*
X409580D01*
X408924Y243438D01*
Y242782D01*
X409580Y242126D01*
X410236D01*
X409580D01*
X408924Y241470D01*
Y240814D01*
X409580Y240158D01*
X410892D01*
X411548Y240814D01*
X407612Y240158D02*
Y244094D01*
X405645D01*
X404989Y243438D01*
Y242126D01*
X405645Y241470D01*
X407612D01*
X409578Y203149D02*
Y199869D01*
X408922Y199213D01*
X407611D01*
X406954Y199869D01*
Y203149D01*
X405643Y202493D02*
X404987Y203149D01*
X403675D01*
X403019Y202493D01*
Y201837D01*
X403675Y201181D01*
X404331D01*
X403675D01*
X403019Y200525D01*
Y199869D01*
X403675Y199213D01*
X404987D01*
X405643Y199869D01*
X401707Y199213D02*
Y203149D01*
X399083Y199213D01*
Y203149D01*
X415484Y192913D02*
Y189633D01*
X414828Y188977D01*
X413516D01*
X412860Y189633D01*
Y192913D01*
X411548Y192257D02*
X410892Y192913D01*
X409580D01*
X408924Y192257D01*
Y191601D01*
X409580Y190945D01*
X410236D01*
X409580D01*
X408924Y190289D01*
Y189633D01*
X409580Y188977D01*
X410892D01*
X411548Y189633D01*
X407612Y192913D02*
Y188977D01*
X404989D01*
X409578Y151968D02*
Y148688D01*
X408922Y148032D01*
X407611D01*
X406954Y148688D01*
Y151968D01*
X405643Y151312D02*
X404987Y151968D01*
X403675D01*
X403019Y151312D01*
Y150656D01*
X403675Y150000D01*
X404331D01*
X403675D01*
X403019Y149344D01*
Y148688D01*
X403675Y148032D01*
X404987D01*
X405643Y148688D01*
X399083Y151968D02*
X400395D01*
X399739D01*
Y148688D01*
X400395Y148032D01*
X401051D01*
X401707Y148688D01*
X415484Y141732D02*
Y138452D01*
X414828Y137796D01*
X413516D01*
X412860Y138452D01*
Y141732D01*
X411548Y141076D02*
X410892Y141732D01*
X409580D01*
X408924Y141076D01*
Y140420D01*
X409580Y139764D01*
X410236D01*
X409580D01*
X408924Y139108D01*
Y138452D01*
X409580Y137796D01*
X410892D01*
X411548Y138452D01*
X407612Y141732D02*
Y137796D01*
Y139764D01*
X404989D01*
Y141732D01*
Y137796D01*
X409578Y100787D02*
Y97507D01*
X408922Y96851D01*
X407611D01*
X406954Y97507D01*
Y100787D01*
X405643Y100131D02*
X404987Y100787D01*
X403675D01*
X403019Y100131D01*
Y99475D01*
X403675Y98819D01*
X404331D01*
X403675D01*
X403019Y98163D01*
Y97507D01*
X403675Y96851D01*
X404987D01*
X405643Y97507D01*
X399083Y100787D02*
X401707D01*
Y98819D01*
X400395D01*
X401707D01*
Y96851D01*
X415484Y90551D02*
Y87271D01*
X414828Y86615D01*
X413516D01*
X412860Y87271D01*
Y90551D01*
X411548Y89895D02*
X410892Y90551D01*
X409580D01*
X408924Y89895D01*
Y89239D01*
X409580Y88583D01*
X410236D01*
X409580D01*
X408924Y87927D01*
Y87271D01*
X409580Y86615D01*
X410892D01*
X411548Y87271D01*
X407612Y90551D02*
Y86615D01*
X405645D01*
X404989Y87271D01*
Y89895D01*
X405645Y90551D01*
X407612D01*
X409578Y49606D02*
Y46326D01*
X408922Y45670D01*
X407611D01*
X406954Y46326D01*
Y49606D01*
X405643Y48950D02*
X404987Y49606D01*
X403675D01*
X403019Y48950D01*
Y48294D01*
X403675Y47638D01*
X404331D01*
X403675D01*
X403019Y46982D01*
Y46326D01*
X403675Y45670D01*
X404987D01*
X405643Y46326D01*
X401707Y49606D02*
Y45670D01*
X399739D01*
X399083Y46326D01*
Y46982D01*
X399739Y47638D01*
X401707D01*
X399739D01*
X399083Y48294D01*
Y48950D01*
X399739Y49606D01*
X401707D01*
X539250Y256149D02*
Y250151D01*
Y253150D01*
X535252D01*
Y256149D01*
Y250151D01*
X530253D02*
Y256149D01*
X533252Y253150D01*
X529254D01*
X538069Y143550D02*
Y137552D01*
Y140551D01*
X534070D01*
Y143550D01*
Y137552D01*
X532071Y142551D02*
X531072Y143550D01*
X529072D01*
X528073Y142551D01*
Y141551D01*
X529072Y140551D01*
X530072D01*
X529072D01*
X528073Y139551D01*
Y138552D01*
X529072Y137552D01*
X531072D01*
X532071Y138552D01*
M02*
