G04*
G04 #@! TF.GenerationSoftware,Altium Limited,Altium Designer,24.1.2 (44)*
G04*
G04 Layer_Color=8388736*
%FSLAX25Y25*%
%MOIN*%
G70*
G04*
G04 #@! TF.SameCoordinates,0B70BC78-7133-40EF-B392-14414780638A*
G04*
G04*
G04 #@! TF.FilePolarity,Negative*
G04*
G01*
G75*
G04:AMPARAMS|DCode=26|XSize=69.06mil|YSize=18.73mil|CornerRadius=9.37mil|HoleSize=0mil|Usage=FLASHONLY|Rotation=0.000|XOffset=0mil|YOffset=0mil|HoleType=Round|Shape=RoundedRectangle|*
%AMROUNDEDRECTD26*
21,1,0.06906,0.00000,0,0,0.0*
21,1,0.05033,0.01873,0,0,0.0*
1,1,0.01873,0.02516,0.00000*
1,1,0.01873,-0.02516,0.00000*
1,1,0.01873,-0.02516,0.00000*
1,1,0.01873,0.02516,0.00000*
%
%ADD26ROUNDEDRECTD26*%
%ADD33R,0.06906X0.01873*%
%ADD45R,0.29528X0.08661*%
%ADD56C,0.03499*%
%ADD57C,0.03531*%
%ADD63C,0.04737*%
G04:AMPARAMS|DCode=64|XSize=25.72mil|YSize=53.28mil|CornerRadius=5.95mil|HoleSize=0mil|Usage=FLASHONLY|Rotation=90.000|XOffset=0mil|YOffset=0mil|HoleType=Round|Shape=RoundedRectangle|*
%AMROUNDEDRECTD64*
21,1,0.02572,0.04138,0,0,90.0*
21,1,0.01382,0.05328,0,0,90.0*
1,1,0.01190,0.02069,0.00691*
1,1,0.01190,0.02069,-0.00691*
1,1,0.01190,-0.02069,-0.00691*
1,1,0.01190,-0.02069,0.00691*
%
%ADD64ROUNDEDRECTD64*%
%ADD65R,0.06115X0.06902*%
G04:AMPARAMS|DCode=66|XSize=35.95mil|YSize=42.65mil|CornerRadius=8.61mil|HoleSize=0mil|Usage=FLASHONLY|Rotation=270.000|XOffset=0mil|YOffset=0mil|HoleType=Round|Shape=RoundedRectangle|*
%AMROUNDEDRECTD66*
21,1,0.03595,0.02542,0,0,270.0*
21,1,0.01873,0.04265,0,0,270.0*
1,1,0.01722,-0.01271,-0.00936*
1,1,0.01722,-0.01271,0.00936*
1,1,0.01722,0.01271,0.00936*
1,1,0.01722,0.01271,-0.00936*
%
%ADD66ROUNDEDRECTD66*%
G04:AMPARAMS|DCode=67|XSize=35.95mil|YSize=42.65mil|CornerRadius=8.61mil|HoleSize=0mil|Usage=FLASHONLY|Rotation=180.000|XOffset=0mil|YOffset=0mil|HoleType=Round|Shape=RoundedRectangle|*
%AMROUNDEDRECTD67*
21,1,0.03595,0.02542,0,0,180.0*
21,1,0.01873,0.04265,0,0,180.0*
1,1,0.01722,-0.00936,0.01271*
1,1,0.01722,0.00936,0.01271*
1,1,0.01722,0.00936,-0.01271*
1,1,0.01722,-0.00936,-0.01271*
%
%ADD67ROUNDEDRECTD67*%
G04:AMPARAMS|DCode=68|XSize=47.37mil|YSize=59.58mil|CornerRadius=10.5mil|HoleSize=0mil|Usage=FLASHONLY|Rotation=180.000|XOffset=0mil|YOffset=0mil|HoleType=Round|Shape=RoundedRectangle|*
%AMROUNDEDRECTD68*
21,1,0.04737,0.03858,0,0,180.0*
21,1,0.02638,0.05958,0,0,180.0*
1,1,0.02099,-0.01319,0.01929*
1,1,0.02099,0.01319,0.01929*
1,1,0.02099,0.01319,-0.01929*
1,1,0.02099,-0.01319,-0.01929*
%
%ADD68ROUNDEDRECTD68*%
G04:AMPARAMS|DCode=69|XSize=26.9mil|YSize=29.65mil|CornerRadius=7.12mil|HoleSize=0mil|Usage=FLASHONLY|Rotation=180.000|XOffset=0mil|YOffset=0mil|HoleType=Round|Shape=RoundedRectangle|*
%AMROUNDEDRECTD69*
21,1,0.02690,0.01542,0,0,180.0*
21,1,0.01266,0.02965,0,0,180.0*
1,1,0.01424,-0.00633,0.00771*
1,1,0.01424,0.00633,0.00771*
1,1,0.01424,0.00633,-0.00771*
1,1,0.01424,-0.00633,-0.00771*
%
%ADD69ROUNDEDRECTD69*%
%ADD70O,0.06693X0.01575*%
G04:AMPARAMS|DCode=71|XSize=31.62mil|YSize=65.09mil|CornerRadius=6.01mil|HoleSize=0mil|Usage=FLASHONLY|Rotation=90.000|XOffset=0mil|YOffset=0mil|HoleType=Round|Shape=RoundedRectangle|*
%AMROUNDEDRECTD71*
21,1,0.03162,0.05307,0,0,90.0*
21,1,0.01961,0.06509,0,0,90.0*
1,1,0.01202,0.02653,0.00980*
1,1,0.01202,0.02653,-0.00980*
1,1,0.01202,-0.02653,-0.00980*
1,1,0.01202,-0.02653,0.00980*
%
%ADD71ROUNDEDRECTD71*%
%ADD72R,0.04800X0.04000*%
G04:AMPARAMS|DCode=73|XSize=27.69mil|YSize=43.43mil|CornerRadius=7.25mil|HoleSize=0mil|Usage=FLASHONLY|Rotation=0.000|XOffset=0mil|YOffset=0mil|HoleType=Round|Shape=RoundedRectangle|*
%AMROUNDEDRECTD73*
21,1,0.02769,0.02894,0,0,0.0*
21,1,0.01319,0.04343,0,0,0.0*
1,1,0.01450,0.00659,-0.01447*
1,1,0.01450,-0.00659,-0.01447*
1,1,0.01450,-0.00659,0.01447*
1,1,0.01450,0.00659,0.01447*
%
%ADD73ROUNDEDRECTD73*%
G04:AMPARAMS|DCode=74|XSize=26.9mil|YSize=29.65mil|CornerRadius=7.12mil|HoleSize=0mil|Usage=FLASHONLY|Rotation=90.000|XOffset=0mil|YOffset=0mil|HoleType=Round|Shape=RoundedRectangle|*
%AMROUNDEDRECTD74*
21,1,0.02690,0.01542,0,0,90.0*
21,1,0.01266,0.02965,0,0,90.0*
1,1,0.01424,0.00771,0.00633*
1,1,0.01424,0.00771,-0.00633*
1,1,0.01424,-0.00771,-0.00633*
1,1,0.01424,-0.00771,0.00633*
%
%ADD74ROUNDEDRECTD74*%
G04:AMPARAMS|DCode=75|XSize=24.14mil|YSize=29.26mil|CornerRadius=6.66mil|HoleSize=0mil|Usage=FLASHONLY|Rotation=180.000|XOffset=0mil|YOffset=0mil|HoleType=Round|Shape=RoundedRectangle|*
%AMROUNDEDRECTD75*
21,1,0.02414,0.01593,0,0,180.0*
21,1,0.01082,0.02926,0,0,180.0*
1,1,0.01333,-0.00541,0.00797*
1,1,0.01333,0.00541,0.00797*
1,1,0.01333,0.00541,-0.00797*
1,1,0.01333,-0.00541,-0.00797*
%
%ADD75ROUNDEDRECTD75*%
%ADD76R,0.04737X0.02965*%
%ADD77R,0.03713X0.11784*%
%ADD78R,0.08241X0.06981*%
%ADD79O,0.02100X0.07493*%
G04:AMPARAMS|DCode=80|XSize=27.69mil|YSize=43.43mil|CornerRadius=7.25mil|HoleSize=0mil|Usage=FLASHONLY|Rotation=270.000|XOffset=0mil|YOffset=0mil|HoleType=Round|Shape=RoundedRectangle|*
%AMROUNDEDRECTD80*
21,1,0.02769,0.02894,0,0,270.0*
21,1,0.01319,0.04343,0,0,270.0*
1,1,0.01450,-0.01447,-0.00659*
1,1,0.01450,-0.01447,0.00659*
1,1,0.01450,0.01447,0.00659*
1,1,0.01450,0.01447,-0.00659*
%
%ADD80ROUNDEDRECTD80*%
%ADD81R,0.06509X0.02572*%
%ADD82R,0.11430X0.05918*%
%ADD83R,0.03556X0.04343*%
%ADD84R,0.10052X0.07493*%
%ADD85R,0.04343X0.03556*%
G04:AMPARAMS|DCode=86|XSize=55.64mil|YSize=79.65mil|CornerRadius=11.86mil|HoleSize=0mil|Usage=FLASHONLY|Rotation=180.000|XOffset=0mil|YOffset=0mil|HoleType=Round|Shape=RoundedRectangle|*
%AMROUNDEDRECTD86*
21,1,0.05564,0.05593,0,0,180.0*
21,1,0.03192,0.07965,0,0,180.0*
1,1,0.02372,-0.01596,0.02797*
1,1,0.02372,0.01596,0.02797*
1,1,0.02372,0.01596,-0.02797*
1,1,0.02372,-0.01596,-0.02797*
%
%ADD86ROUNDEDRECTD86*%
%ADD87O,0.04186X0.01863*%
%ADD88O,0.01863X0.04186*%
%ADD89R,0.13005X0.13005*%
G04:AMPARAMS|DCode=90|XSize=47.37mil|YSize=59.58mil|CornerRadius=10.5mil|HoleSize=0mil|Usage=FLASHONLY|Rotation=270.000|XOffset=0mil|YOffset=0mil|HoleType=Round|Shape=RoundedRectangle|*
%AMROUNDEDRECTD90*
21,1,0.04737,0.03858,0,0,270.0*
21,1,0.02638,0.05958,0,0,270.0*
1,1,0.02099,-0.01929,-0.01319*
1,1,0.02099,-0.01929,0.01319*
1,1,0.02099,0.01929,0.01319*
1,1,0.02099,0.01929,-0.01319*
%
%ADD90ROUNDEDRECTD90*%
G04:AMPARAMS|DCode=91|XSize=24.14mil|YSize=29.26mil|CornerRadius=6.66mil|HoleSize=0mil|Usage=FLASHONLY|Rotation=90.000|XOffset=0mil|YOffset=0mil|HoleType=Round|Shape=RoundedRectangle|*
%AMROUNDEDRECTD91*
21,1,0.02414,0.01593,0,0,90.0*
21,1,0.01082,0.02926,0,0,90.0*
1,1,0.01333,0.00797,0.00541*
1,1,0.01333,0.00797,-0.00541*
1,1,0.01333,-0.00797,-0.00541*
1,1,0.01333,-0.00797,0.00541*
%
%ADD91ROUNDEDRECTD91*%
%ADD92R,0.12611X0.08674*%
%ADD93R,0.05524X0.07296*%
%ADD94R,0.04540X0.09265*%
%ADD95R,0.13595X0.09265*%
%ADD96R,0.11417X0.02559*%
%ADD97R,0.05131X0.03359*%
%ADD98R,0.03950X0.03950*%
%ADD99R,0.03950X0.03950*%
%ADD100R,0.04147X0.04540*%
%ADD101R,0.04540X0.04147*%
%ADD102C,0.06600*%
%ADD103C,0.13595*%
%ADD104C,0.06706*%
%ADD105C,0.12611*%
%ADD106C,0.02375*%
%ADD107C,0.03162*%
%ADD108C,0.02800*%
G36*
X38386Y283661D02*
X31693D01*
Y287598D01*
X35630D01*
Y292717D01*
X38386D01*
Y283661D01*
D02*
G37*
G36*
X22638Y287598D02*
X26575D01*
Y283661D01*
X19882D01*
Y292717D01*
X22638D01*
Y287598D01*
D02*
G37*
G36*
X38386Y271063D02*
X35630D01*
Y276181D01*
X31693D01*
Y280118D01*
X38386D01*
Y271063D01*
D02*
G37*
G36*
X26575Y276181D02*
X22638D01*
Y271063D01*
X19882D01*
Y280118D01*
X26575D01*
Y276181D01*
D02*
G37*
G36*
X135077Y105312D02*
X132677Y102912D01*
X130277Y105312D01*
Y106312D01*
X135077D01*
Y105312D01*
D02*
G37*
G36*
Y101312D02*
X130277D01*
Y105112D01*
X132677Y102712D01*
X135077Y105112D01*
Y101312D01*
D02*
G37*
D26*
X397833Y53642D02*
D03*
Y74902D02*
D03*
Y104823D02*
D03*
Y126083D02*
D03*
X397833Y156004D02*
D03*
Y177264D02*
D03*
Y207185D02*
D03*
Y228445D02*
D03*
Y258760D02*
D03*
Y280020D02*
D03*
Y309941D02*
D03*
Y331201D02*
D03*
X413978Y214862D02*
D03*
Y212303D02*
D03*
Y209744D02*
D03*
Y207185D02*
D03*
X397833Y209744D02*
D03*
Y212303D02*
D03*
X413978Y236122D02*
D03*
Y233563D02*
D03*
Y231004D02*
D03*
Y228445D02*
D03*
X397833Y231004D02*
D03*
Y233563D02*
D03*
X413978Y266437D02*
D03*
Y263878D02*
D03*
Y261319D02*
D03*
Y258760D02*
D03*
X397833Y261319D02*
D03*
Y263878D02*
D03*
X413978Y287697D02*
D03*
Y285138D02*
D03*
Y282579D02*
D03*
Y280020D02*
D03*
X397833Y282579D02*
D03*
Y285138D02*
D03*
X413978Y317618D02*
D03*
Y315059D02*
D03*
Y312500D02*
D03*
Y309941D02*
D03*
X397833Y312500D02*
D03*
Y315059D02*
D03*
X413978Y338878D02*
D03*
Y336319D02*
D03*
Y333760D02*
D03*
Y331201D02*
D03*
X397833Y333760D02*
D03*
Y336319D02*
D03*
X413978Y184941D02*
D03*
Y182382D02*
D03*
Y179823D02*
D03*
Y177264D02*
D03*
X397833Y179823D02*
D03*
Y182382D02*
D03*
X413978Y163681D02*
D03*
Y161122D02*
D03*
Y158563D02*
D03*
Y156004D02*
D03*
X397833Y158563D02*
D03*
Y161122D02*
D03*
X397833Y131201D02*
D03*
Y128642D02*
D03*
X413978Y126083D02*
D03*
Y128642D02*
D03*
Y131201D02*
D03*
Y133760D02*
D03*
X397833Y80020D02*
D03*
Y77461D02*
D03*
X413978Y74902D02*
D03*
Y77461D02*
D03*
Y80020D02*
D03*
Y82579D02*
D03*
X397833Y109941D02*
D03*
Y107382D02*
D03*
X413978Y104823D02*
D03*
Y107382D02*
D03*
Y109941D02*
D03*
Y112500D02*
D03*
X397833Y58760D02*
D03*
Y56201D02*
D03*
X413978Y53642D02*
D03*
Y56201D02*
D03*
Y58760D02*
D03*
Y61319D02*
D03*
D33*
X397833Y214862D02*
D03*
Y236122D02*
D03*
Y266437D02*
D03*
Y287697D02*
D03*
Y317618D02*
D03*
Y338878D02*
D03*
Y184941D02*
D03*
Y163681D02*
D03*
X397833Y133760D02*
D03*
Y82579D02*
D03*
Y112500D02*
D03*
Y61319D02*
D03*
D45*
X118898Y190945D02*
D03*
Y213779D02*
D03*
X90551Y335827D02*
D03*
Y312992D02*
D03*
D56*
X21973Y278174D02*
D03*
X33784D02*
D03*
D57*
X21973Y285753D02*
D03*
X36294D02*
D03*
D63*
X-19291Y122441D02*
D03*
X305906Y176772D02*
D03*
X299606Y175197D02*
D03*
X305906Y309449D02*
D03*
X299606Y307874D02*
D03*
X255512Y216929D02*
D03*
X258661Y211417D02*
D03*
X255512Y321260D02*
D03*
X258661Y315748D02*
D03*
Y111024D02*
D03*
X255512Y116535D02*
D03*
X299606Y338583D02*
D03*
X305906Y340158D02*
D03*
X299606Y287795D02*
D03*
X305906Y289370D02*
D03*
X299606Y236614D02*
D03*
X305906Y238189D02*
D03*
X299606Y185433D02*
D03*
X305906Y187008D02*
D03*
X299606Y134252D02*
D03*
X305906Y135827D02*
D03*
X299606Y83071D02*
D03*
X305906Y84646D02*
D03*
X299606Y328346D02*
D03*
X305906Y329921D02*
D03*
X299606Y277559D02*
D03*
X305906Y279134D02*
D03*
X299606Y226378D02*
D03*
X305906Y227953D02*
D03*
X299606Y124016D02*
D03*
X305906Y125591D02*
D03*
X299606Y72835D02*
D03*
X305906Y74410D02*
D03*
X299606Y318110D02*
D03*
X305906Y319685D02*
D03*
X299606Y267323D02*
D03*
X305906Y268898D02*
D03*
X299606Y216142D02*
D03*
X305906Y217717D02*
D03*
X299606Y164961D02*
D03*
X305906Y166535D02*
D03*
X299606Y113779D02*
D03*
X305906Y115354D02*
D03*
X299606Y62598D02*
D03*
X305906Y64173D02*
D03*
X299606Y257087D02*
D03*
X305906Y258661D02*
D03*
X299606Y205906D02*
D03*
X305906Y207480D02*
D03*
X299606Y154724D02*
D03*
X305906Y156299D02*
D03*
X299606Y103543D02*
D03*
X305906Y105118D02*
D03*
Y53937D02*
D03*
X299606Y52362D02*
D03*
D64*
X157579Y297342D02*
D03*
Y299902D02*
D03*
Y302461D02*
D03*
Y305020D02*
D03*
X140847Y297342D02*
D03*
Y299902D02*
D03*
Y302461D02*
D03*
Y305020D02*
D03*
X157579Y271752D02*
D03*
Y274311D02*
D03*
Y276870D02*
D03*
Y279429D02*
D03*
X140847Y271752D02*
D03*
Y274311D02*
D03*
Y276870D02*
D03*
Y279429D02*
D03*
X140847Y330217D02*
D03*
X157579D02*
D03*
Y325098D02*
D03*
Y327658D02*
D03*
X140847D02*
D03*
Y325098D02*
D03*
Y322539D02*
D03*
X157579D02*
D03*
D65*
X153150Y312992D02*
D03*
X145276D02*
D03*
X153150Y287402D02*
D03*
X145276D02*
D03*
X145276Y338189D02*
D03*
X153150D02*
D03*
D66*
X129528Y302244D02*
D03*
Y296181D02*
D03*
X134252Y302244D02*
D03*
Y296181D02*
D03*
X162598Y293425D02*
D03*
Y299488D02*
D03*
X167323Y293425D02*
D03*
Y299488D02*
D03*
X172047Y293425D02*
D03*
Y299488D02*
D03*
X129528Y276654D02*
D03*
Y270590D02*
D03*
X134252Y276654D02*
D03*
Y270590D02*
D03*
X162598Y267835D02*
D03*
Y273898D02*
D03*
X167323Y267835D02*
D03*
Y273898D02*
D03*
X172047Y267835D02*
D03*
Y273898D02*
D03*
X167323Y324685D02*
D03*
X172047D02*
D03*
X162598D02*
D03*
X75984Y193189D02*
D03*
Y187126D02*
D03*
X70472Y213110D02*
D03*
Y219173D02*
D03*
X187402Y358543D02*
D03*
Y352480D02*
D03*
X166142Y359567D02*
D03*
Y365630D02*
D03*
X162598Y318622D02*
D03*
X134252Y327441D02*
D03*
Y321378D02*
D03*
X47638Y315236D02*
D03*
Y309173D02*
D03*
X42126Y335157D02*
D03*
Y341220D02*
D03*
X232677Y302244D02*
D03*
Y296181D02*
D03*
Y197913D02*
D03*
Y191850D02*
D03*
Y97520D02*
D03*
Y91457D02*
D03*
X80709Y187126D02*
D03*
Y193189D02*
D03*
X85433Y187126D02*
D03*
Y193189D02*
D03*
X160236Y359567D02*
D03*
Y365630D02*
D03*
X192126Y358543D02*
D03*
Y352480D02*
D03*
X172047Y318622D02*
D03*
X167323D02*
D03*
X129528Y327441D02*
D03*
Y321378D02*
D03*
X57087Y315236D02*
D03*
Y309173D02*
D03*
X52362Y315236D02*
D03*
Y309173D02*
D03*
X228346Y312087D02*
D03*
Y306024D02*
D03*
Y207756D02*
D03*
Y201693D02*
D03*
Y107362D02*
D03*
Y101299D02*
D03*
Y302244D02*
D03*
Y296181D02*
D03*
Y197913D02*
D03*
Y191850D02*
D03*
Y97520D02*
D03*
Y91457D02*
D03*
X162598Y227677D02*
D03*
Y233740D02*
D03*
X153150Y208543D02*
D03*
Y202480D02*
D03*
D67*
X168386Y310236D02*
D03*
X162323D02*
D03*
X168386Y305512D02*
D03*
X162323D02*
D03*
X168386Y284646D02*
D03*
X162323D02*
D03*
X168386Y279921D02*
D03*
X162323D02*
D03*
X162323Y335433D02*
D03*
Y330709D02*
D03*
X125472Y111024D02*
D03*
X119409D02*
D03*
X157205Y240551D02*
D03*
X163268D02*
D03*
X161535Y196851D02*
D03*
X167598D02*
D03*
X65866Y225591D02*
D03*
X71929D02*
D03*
X166260Y348819D02*
D03*
X172323D02*
D03*
X37520Y347638D02*
D03*
X43583D02*
D03*
X237520Y283071D02*
D03*
X243583D02*
D03*
X237520Y178740D02*
D03*
X243583D02*
D03*
X237520Y78347D02*
D03*
X243583D02*
D03*
X157205Y245669D02*
D03*
X163268D02*
D03*
X173504Y228346D02*
D03*
X167441D02*
D03*
X161535Y191732D02*
D03*
X167598D02*
D03*
X166260Y344094D02*
D03*
X172323D02*
D03*
X168386Y330709D02*
D03*
Y335433D02*
D03*
X237520Y278740D02*
D03*
X243583D02*
D03*
X237520Y174409D02*
D03*
X243583D02*
D03*
X237520Y74016D02*
D03*
X243583D02*
D03*
D68*
X184252Y299606D02*
D03*
X177165D02*
D03*
X184252Y274016D02*
D03*
X177165D02*
D03*
X184252Y324803D02*
D03*
X177165D02*
D03*
X164961Y256299D02*
D03*
X157874D02*
D03*
X131890Y365748D02*
D03*
X138976D02*
D03*
X146457D02*
D03*
X153543D02*
D03*
X138976Y357480D02*
D03*
X131890D02*
D03*
D69*
X395433Y48819D02*
D03*
Y70078D02*
D03*
Y100000D02*
D03*
Y121260D02*
D03*
X395433Y151181D02*
D03*
Y172441D02*
D03*
Y202362D02*
D03*
Y223622D02*
D03*
Y253937D02*
D03*
Y275197D02*
D03*
Y305118D02*
D03*
Y326378D02*
D03*
X315197Y177953D02*
D03*
X311575D02*
D03*
Y174016D02*
D03*
X315197D02*
D03*
X315197Y310630D02*
D03*
X311575D02*
D03*
Y306693D02*
D03*
X315197D02*
D03*
X399055Y202362D02*
D03*
X412756Y219685D02*
D03*
X416378D02*
D03*
X424646Y212992D02*
D03*
X421024D02*
D03*
X424646Y209055D02*
D03*
X421024D02*
D03*
X399055Y223622D02*
D03*
X412756Y240945D02*
D03*
X416378D02*
D03*
X424646Y234252D02*
D03*
X421024D02*
D03*
X424646Y230315D02*
D03*
X421024D02*
D03*
X399055Y253937D02*
D03*
X412756Y271260D02*
D03*
X416378D02*
D03*
X424646Y264567D02*
D03*
X421024D02*
D03*
X424646Y260630D02*
D03*
X421024D02*
D03*
X399055Y275197D02*
D03*
X412756Y292520D02*
D03*
X416378D02*
D03*
X424646Y285826D02*
D03*
X421024D02*
D03*
X424646Y281890D02*
D03*
X421024D02*
D03*
X399055Y305118D02*
D03*
X412756Y322441D02*
D03*
X416378D02*
D03*
X424646Y315748D02*
D03*
X421024D02*
D03*
X424646Y311811D02*
D03*
X421024D02*
D03*
X399055Y326378D02*
D03*
X412756Y343701D02*
D03*
X416378D02*
D03*
X424646Y337008D02*
D03*
X421024D02*
D03*
X424646Y333071D02*
D03*
X421024D02*
D03*
X399055Y172441D02*
D03*
X412756Y189764D02*
D03*
X416378D02*
D03*
X424646Y183071D02*
D03*
X421024D02*
D03*
X424646Y179134D02*
D03*
X421024D02*
D03*
X399055Y151181D02*
D03*
X412756Y168504D02*
D03*
X416378D02*
D03*
X424646Y161811D02*
D03*
X421024D02*
D03*
X424646Y157874D02*
D03*
X421024D02*
D03*
X424646Y59449D02*
D03*
X421024D02*
D03*
X424646Y55512D02*
D03*
X421024D02*
D03*
X311575Y341338D02*
D03*
X315197D02*
D03*
X311575Y331102D02*
D03*
X315197D02*
D03*
X311575Y320866D02*
D03*
X315197D02*
D03*
X311575Y290551D02*
D03*
X315197D02*
D03*
X311575Y280315D02*
D03*
X315197D02*
D03*
X311575Y270078D02*
D03*
X315197D02*
D03*
X311575Y259842D02*
D03*
X315197D02*
D03*
X311575Y239370D02*
D03*
X315197D02*
D03*
X311575Y229134D02*
D03*
X315197D02*
D03*
X311575Y218897D02*
D03*
X315197D02*
D03*
X311575Y208661D02*
D03*
X315197D02*
D03*
X311575Y188189D02*
D03*
X315197D02*
D03*
X311575Y167716D02*
D03*
X315197D02*
D03*
X311575Y157480D02*
D03*
X315197D02*
D03*
X311575Y137008D02*
D03*
X315197D02*
D03*
X311575Y126771D02*
D03*
X315197D02*
D03*
X311575Y116535D02*
D03*
X315197D02*
D03*
X311575Y106299D02*
D03*
X315197D02*
D03*
X311575Y85827D02*
D03*
X315197D02*
D03*
X311575Y75590D02*
D03*
X315197D02*
D03*
X311575Y65354D02*
D03*
X315197D02*
D03*
X311575Y55118D02*
D03*
X315197D02*
D03*
X315197Y337402D02*
D03*
X311575D02*
D03*
X315197Y327166D02*
D03*
X311575D02*
D03*
X315197Y316929D02*
D03*
X311575D02*
D03*
X315197Y286614D02*
D03*
X311575D02*
D03*
X315197Y276378D02*
D03*
X311575D02*
D03*
X315197Y266142D02*
D03*
X311575D02*
D03*
X315197Y255906D02*
D03*
X311575D02*
D03*
X315197Y235433D02*
D03*
X311575D02*
D03*
X315197Y225197D02*
D03*
X311575D02*
D03*
X315197Y214961D02*
D03*
X311575D02*
D03*
X315197Y204725D02*
D03*
X311575D02*
D03*
X315197Y184252D02*
D03*
X311575D02*
D03*
X315197Y163780D02*
D03*
X311575D02*
D03*
X315197Y153543D02*
D03*
X311575D02*
D03*
X315197Y133071D02*
D03*
X311575D02*
D03*
X315197Y122835D02*
D03*
X311575D02*
D03*
X315197Y112599D02*
D03*
X311575D02*
D03*
X315197Y102362D02*
D03*
X311575D02*
D03*
X315197Y81890D02*
D03*
X311575D02*
D03*
X315197Y71654D02*
D03*
X311575D02*
D03*
X315197Y61418D02*
D03*
X311575D02*
D03*
X315197Y51181D02*
D03*
X311575D02*
D03*
X421024Y127953D02*
D03*
X424646D02*
D03*
X421024Y131889D02*
D03*
X424646D02*
D03*
X416378Y138583D02*
D03*
X412756D02*
D03*
X399055Y121260D02*
D03*
X421024Y106693D02*
D03*
X424646D02*
D03*
X421024Y110630D02*
D03*
X424646D02*
D03*
X416378Y117323D02*
D03*
X412756D02*
D03*
X399055Y100000D02*
D03*
X421024Y76771D02*
D03*
X424646D02*
D03*
X421024Y80708D02*
D03*
X424646D02*
D03*
X416378Y87402D02*
D03*
X412756D02*
D03*
X399055Y70078D02*
D03*
X416378Y66142D02*
D03*
X412756D02*
D03*
X399055Y48819D02*
D03*
D70*
X333858Y80315D02*
D03*
Y78347D02*
D03*
Y70473D02*
D03*
Y68504D02*
D03*
Y60630D02*
D03*
Y58661D02*
D03*
Y50787D02*
D03*
X355906Y78347D02*
D03*
Y68504D02*
D03*
Y58661D02*
D03*
X333858Y131496D02*
D03*
Y129528D02*
D03*
Y121653D02*
D03*
Y119685D02*
D03*
Y111811D02*
D03*
Y109843D02*
D03*
Y101969D02*
D03*
X355906Y129528D02*
D03*
Y119685D02*
D03*
Y109843D02*
D03*
X333858Y182677D02*
D03*
Y180709D02*
D03*
Y172835D02*
D03*
Y170866D02*
D03*
Y162992D02*
D03*
Y161024D02*
D03*
Y153150D02*
D03*
X355906Y180709D02*
D03*
Y170866D02*
D03*
Y161024D02*
D03*
X333858Y233858D02*
D03*
Y231890D02*
D03*
Y224016D02*
D03*
Y222047D02*
D03*
Y214173D02*
D03*
Y212205D02*
D03*
Y204331D02*
D03*
X355906Y231890D02*
D03*
Y222047D02*
D03*
Y212205D02*
D03*
X333858Y285039D02*
D03*
Y283071D02*
D03*
Y275197D02*
D03*
Y273228D02*
D03*
Y265354D02*
D03*
Y263386D02*
D03*
Y255512D02*
D03*
X355906Y283071D02*
D03*
Y273228D02*
D03*
Y263386D02*
D03*
X333858Y336221D02*
D03*
Y334252D02*
D03*
Y326378D02*
D03*
Y324410D02*
D03*
Y316535D02*
D03*
Y314567D02*
D03*
Y306693D02*
D03*
X355906Y334252D02*
D03*
Y324410D02*
D03*
Y314567D02*
D03*
Y306693D02*
D03*
Y308661D02*
D03*
Y310630D02*
D03*
Y312598D02*
D03*
Y316535D02*
D03*
Y318504D02*
D03*
Y320472D02*
D03*
Y322441D02*
D03*
Y326378D02*
D03*
Y328346D02*
D03*
Y330315D02*
D03*
Y332283D02*
D03*
Y336221D02*
D03*
Y338189D02*
D03*
Y340158D02*
D03*
Y342126D02*
D03*
X333858Y308661D02*
D03*
Y310630D02*
D03*
Y312598D02*
D03*
Y318504D02*
D03*
Y320472D02*
D03*
Y322441D02*
D03*
Y328346D02*
D03*
Y330315D02*
D03*
Y332283D02*
D03*
Y338189D02*
D03*
Y340158D02*
D03*
Y342126D02*
D03*
X355906Y255512D02*
D03*
Y257480D02*
D03*
Y259449D02*
D03*
Y261417D02*
D03*
Y265354D02*
D03*
Y267323D02*
D03*
Y269291D02*
D03*
Y271260D02*
D03*
Y275197D02*
D03*
Y277165D02*
D03*
Y279134D02*
D03*
Y281102D02*
D03*
Y285039D02*
D03*
Y287008D02*
D03*
Y288976D02*
D03*
Y290945D02*
D03*
X333858Y257480D02*
D03*
Y259449D02*
D03*
Y261417D02*
D03*
Y267323D02*
D03*
Y269291D02*
D03*
Y271260D02*
D03*
Y277165D02*
D03*
Y279134D02*
D03*
Y281102D02*
D03*
Y287008D02*
D03*
Y288976D02*
D03*
Y290945D02*
D03*
X355906Y204331D02*
D03*
Y206299D02*
D03*
Y208268D02*
D03*
Y210236D02*
D03*
Y214173D02*
D03*
Y216142D02*
D03*
Y218110D02*
D03*
Y220079D02*
D03*
Y224016D02*
D03*
Y225984D02*
D03*
Y227953D02*
D03*
Y229921D02*
D03*
Y233858D02*
D03*
Y235827D02*
D03*
Y237795D02*
D03*
Y239764D02*
D03*
X333858Y206299D02*
D03*
Y208268D02*
D03*
Y210236D02*
D03*
Y216142D02*
D03*
Y218110D02*
D03*
Y220079D02*
D03*
Y225984D02*
D03*
Y227953D02*
D03*
Y229921D02*
D03*
Y235827D02*
D03*
Y237795D02*
D03*
Y239764D02*
D03*
X355906Y153150D02*
D03*
Y155118D02*
D03*
Y157087D02*
D03*
Y159055D02*
D03*
Y162992D02*
D03*
Y164961D02*
D03*
Y166929D02*
D03*
Y168898D02*
D03*
Y172835D02*
D03*
Y174803D02*
D03*
Y176772D02*
D03*
Y178740D02*
D03*
Y182677D02*
D03*
Y184646D02*
D03*
Y186614D02*
D03*
Y188583D02*
D03*
X333858Y155118D02*
D03*
Y157087D02*
D03*
Y159055D02*
D03*
Y164961D02*
D03*
Y166929D02*
D03*
Y168898D02*
D03*
Y174803D02*
D03*
Y176772D02*
D03*
Y178740D02*
D03*
Y184646D02*
D03*
Y186614D02*
D03*
Y188583D02*
D03*
X355906Y101969D02*
D03*
Y103937D02*
D03*
Y105905D02*
D03*
Y107874D02*
D03*
Y111811D02*
D03*
Y113779D02*
D03*
Y115748D02*
D03*
Y117717D02*
D03*
Y121653D02*
D03*
Y123622D02*
D03*
Y125591D02*
D03*
Y127559D02*
D03*
Y131496D02*
D03*
Y133465D02*
D03*
Y135433D02*
D03*
Y137402D02*
D03*
X333858Y103937D02*
D03*
Y105905D02*
D03*
Y107874D02*
D03*
Y113779D02*
D03*
Y115748D02*
D03*
Y117717D02*
D03*
Y123622D02*
D03*
Y125591D02*
D03*
Y127559D02*
D03*
Y133465D02*
D03*
Y135433D02*
D03*
Y137402D02*
D03*
X355906Y50787D02*
D03*
Y52756D02*
D03*
Y54724D02*
D03*
Y56693D02*
D03*
Y60630D02*
D03*
Y62598D02*
D03*
Y64567D02*
D03*
Y66535D02*
D03*
Y70473D02*
D03*
Y72441D02*
D03*
Y74410D02*
D03*
Y76378D02*
D03*
Y80315D02*
D03*
Y82284D02*
D03*
Y84252D02*
D03*
Y86221D02*
D03*
X333858Y52756D02*
D03*
Y54724D02*
D03*
Y56693D02*
D03*
Y62598D02*
D03*
Y64567D02*
D03*
Y66535D02*
D03*
Y72441D02*
D03*
Y74410D02*
D03*
Y76378D02*
D03*
Y82284D02*
D03*
Y84252D02*
D03*
Y86221D02*
D03*
D71*
X104232Y105138D02*
D03*
Y100138D02*
D03*
Y95138D02*
D03*
Y90138D02*
D03*
X125689Y105138D02*
D03*
Y100138D02*
D03*
Y95138D02*
D03*
Y90138D02*
D03*
D72*
X132677Y107312D02*
D03*
Y100562D02*
D03*
D73*
X131378Y95276D02*
D03*
X137126D02*
D03*
X131378Y90158D02*
D03*
X137126D02*
D03*
X98543Y105118D02*
D03*
X92795D02*
D03*
X98543Y100000D02*
D03*
X92795D02*
D03*
X6417Y128740D02*
D03*
X669D02*
D03*
X37284Y364961D02*
D03*
X43031D02*
D03*
Y359055D02*
D03*
X37284D02*
D03*
X37284Y353150D02*
D03*
X43031D02*
D03*
X65630Y231102D02*
D03*
X71378D02*
D03*
X65630Y236221D02*
D03*
X71378D02*
D03*
Y241339D02*
D03*
X65630D02*
D03*
X253268Y209842D02*
D03*
X247520D02*
D03*
X250118Y215354D02*
D03*
X244370D02*
D03*
X253268Y314173D02*
D03*
X247520D02*
D03*
X250118Y319685D02*
D03*
X244370D02*
D03*
X253268Y109449D02*
D03*
X247520D02*
D03*
X250118Y114961D02*
D03*
X244370D02*
D03*
D74*
X318504Y174173D02*
D03*
Y177795D02*
D03*
X318504Y306850D02*
D03*
Y310472D02*
D03*
X318504Y341181D02*
D03*
Y337559D02*
D03*
X318504Y330945D02*
D03*
Y327323D02*
D03*
X318504Y320709D02*
D03*
Y317087D02*
D03*
X318504Y290394D02*
D03*
Y286772D02*
D03*
Y280157D02*
D03*
Y276536D02*
D03*
X318504Y269921D02*
D03*
Y266299D02*
D03*
X318504Y259685D02*
D03*
Y256063D02*
D03*
Y239213D02*
D03*
Y235591D02*
D03*
Y228976D02*
D03*
Y225354D02*
D03*
X318504Y218740D02*
D03*
Y215118D02*
D03*
Y208504D02*
D03*
Y204882D02*
D03*
X318504Y188031D02*
D03*
Y184409D02*
D03*
X318504Y167559D02*
D03*
Y163937D02*
D03*
X318504Y157323D02*
D03*
Y153701D02*
D03*
X318504Y136850D02*
D03*
Y133228D02*
D03*
X318504Y126614D02*
D03*
Y122992D02*
D03*
X318504Y116378D02*
D03*
Y112756D02*
D03*
X318504Y106142D02*
D03*
Y102520D02*
D03*
X318504Y85669D02*
D03*
Y82047D02*
D03*
X318504Y75433D02*
D03*
Y71811D02*
D03*
X318504Y65197D02*
D03*
Y61575D02*
D03*
X318504Y54961D02*
D03*
Y51339D02*
D03*
X373622Y344724D02*
D03*
Y341102D02*
D03*
Y293543D02*
D03*
Y289921D02*
D03*
Y242362D02*
D03*
Y238740D02*
D03*
Y191181D02*
D03*
Y187559D02*
D03*
Y140000D02*
D03*
Y136378D02*
D03*
Y88819D02*
D03*
Y85197D02*
D03*
Y324252D02*
D03*
Y320630D02*
D03*
Y273071D02*
D03*
Y269449D02*
D03*
Y221890D02*
D03*
Y218268D02*
D03*
Y170709D02*
D03*
Y167087D02*
D03*
Y119528D02*
D03*
Y115905D02*
D03*
Y68347D02*
D03*
Y64724D02*
D03*
X373622Y334409D02*
D03*
Y338032D02*
D03*
Y283228D02*
D03*
Y286850D02*
D03*
Y232047D02*
D03*
Y235669D02*
D03*
Y180866D02*
D03*
Y184488D02*
D03*
Y129685D02*
D03*
Y133307D02*
D03*
Y78504D02*
D03*
Y82126D02*
D03*
Y313937D02*
D03*
Y317559D02*
D03*
Y262756D02*
D03*
Y266378D02*
D03*
Y211575D02*
D03*
Y215197D02*
D03*
Y160394D02*
D03*
Y164016D02*
D03*
Y109213D02*
D03*
Y112835D02*
D03*
Y58031D02*
D03*
Y61654D02*
D03*
X363386Y334488D02*
D03*
Y330866D02*
D03*
Y283307D02*
D03*
Y279685D02*
D03*
Y232126D02*
D03*
Y228504D02*
D03*
Y180945D02*
D03*
Y177323D02*
D03*
Y129764D02*
D03*
Y126142D02*
D03*
Y78583D02*
D03*
Y74961D02*
D03*
Y314016D02*
D03*
Y310394D02*
D03*
Y262835D02*
D03*
Y259213D02*
D03*
Y211654D02*
D03*
Y208032D02*
D03*
Y160472D02*
D03*
Y156850D02*
D03*
Y109291D02*
D03*
Y105669D02*
D03*
Y58110D02*
D03*
Y54488D02*
D03*
X363386Y324173D02*
D03*
Y327795D02*
D03*
Y272992D02*
D03*
Y276614D02*
D03*
Y221811D02*
D03*
Y225433D02*
D03*
Y170630D02*
D03*
Y174252D02*
D03*
Y119449D02*
D03*
Y123071D02*
D03*
Y68268D02*
D03*
Y71890D02*
D03*
Y303701D02*
D03*
Y307323D02*
D03*
Y252520D02*
D03*
Y256142D02*
D03*
Y201339D02*
D03*
Y204961D02*
D03*
Y150157D02*
D03*
Y153779D02*
D03*
Y98976D02*
D03*
Y102598D02*
D03*
Y47795D02*
D03*
Y51417D02*
D03*
D75*
X321890Y177953D02*
D03*
X325354D02*
D03*
X321890Y174016D02*
D03*
X325354D02*
D03*
X321890Y310630D02*
D03*
X325354D02*
D03*
X321890Y306693D02*
D03*
X325354D02*
D03*
X421102Y216535D02*
D03*
X424567D02*
D03*
X421102Y205512D02*
D03*
X424567D02*
D03*
X421102Y237795D02*
D03*
X424567D02*
D03*
X421102Y226772D02*
D03*
X424567D02*
D03*
X421102Y268110D02*
D03*
X424567D02*
D03*
X421102Y257087D02*
D03*
X424567D02*
D03*
X421102Y289370D02*
D03*
X424567D02*
D03*
X421102Y278346D02*
D03*
X424567D02*
D03*
X421102Y319291D02*
D03*
X424567D02*
D03*
X421102Y308268D02*
D03*
X424567D02*
D03*
X421102Y340551D02*
D03*
X424567D02*
D03*
X421102Y329528D02*
D03*
X424567D02*
D03*
Y186614D02*
D03*
X421102D02*
D03*
X424567Y175591D02*
D03*
X421102D02*
D03*
X424567Y165354D02*
D03*
X421102D02*
D03*
X424567Y154331D02*
D03*
X421102D02*
D03*
X-2520Y240551D02*
D03*
X945D02*
D03*
X-2520Y237008D02*
D03*
X945D02*
D03*
X-2520Y244094D02*
D03*
X945D02*
D03*
X228504Y272047D02*
D03*
X225039D02*
D03*
X228504Y167717D02*
D03*
X225039D02*
D03*
X228898Y67323D02*
D03*
X225433D02*
D03*
X945Y230315D02*
D03*
X-2520D02*
D03*
X945Y217323D02*
D03*
X-2520D02*
D03*
X945Y226772D02*
D03*
X-2520D02*
D03*
X945Y213779D02*
D03*
X-2520D02*
D03*
X945Y223228D02*
D03*
X-2520D02*
D03*
X945Y210236D02*
D03*
X-2520D02*
D03*
X228504Y275590D02*
D03*
X225039D02*
D03*
X228504Y171260D02*
D03*
X225039D02*
D03*
X228898Y70866D02*
D03*
X225433D02*
D03*
X421102Y51968D02*
D03*
X424567D02*
D03*
X421102Y62992D02*
D03*
X424567D02*
D03*
X325354Y341339D02*
D03*
X321890D02*
D03*
X325354Y331102D02*
D03*
X321890D02*
D03*
X325354Y320866D02*
D03*
X321890D02*
D03*
X325354Y290551D02*
D03*
X321890D02*
D03*
X325354Y280315D02*
D03*
X321890D02*
D03*
X325354Y270079D02*
D03*
X321890D02*
D03*
X325354Y259842D02*
D03*
X321890D02*
D03*
X325354Y239370D02*
D03*
X321890D02*
D03*
X325354Y229134D02*
D03*
X321890D02*
D03*
X325354Y218898D02*
D03*
X321890D02*
D03*
X325354Y208661D02*
D03*
X321890D02*
D03*
X325354Y188189D02*
D03*
X321890D02*
D03*
X325354Y167717D02*
D03*
X321890D02*
D03*
X325354Y157480D02*
D03*
X321890D02*
D03*
X325354Y137008D02*
D03*
X321890D02*
D03*
X325354Y126772D02*
D03*
X321890D02*
D03*
X325354Y116535D02*
D03*
X321890D02*
D03*
X325354Y106299D02*
D03*
X321890D02*
D03*
X325354Y85827D02*
D03*
X321890D02*
D03*
X325354Y75591D02*
D03*
X321890D02*
D03*
X325354Y65354D02*
D03*
X321890D02*
D03*
X325354Y55118D02*
D03*
X321890D02*
D03*
X325354Y337402D02*
D03*
X321890D02*
D03*
X325354Y327165D02*
D03*
X321890D02*
D03*
X325354Y316929D02*
D03*
X321890D02*
D03*
X325354Y286614D02*
D03*
X321890D02*
D03*
X325354Y276378D02*
D03*
X321890D02*
D03*
X325354Y266142D02*
D03*
X321890D02*
D03*
X325354Y255906D02*
D03*
X321890D02*
D03*
X325354Y235433D02*
D03*
X321890D02*
D03*
X325354Y225197D02*
D03*
X321890D02*
D03*
X325354Y214961D02*
D03*
X321890D02*
D03*
X325354Y204724D02*
D03*
X321890D02*
D03*
X325354Y184252D02*
D03*
X321890D02*
D03*
X325354Y163779D02*
D03*
X321890D02*
D03*
X325354Y153543D02*
D03*
X321890D02*
D03*
X325354Y133071D02*
D03*
X321890D02*
D03*
X325354Y122835D02*
D03*
X321890D02*
D03*
X325354Y112598D02*
D03*
X321890D02*
D03*
X325354Y102362D02*
D03*
X321890D02*
D03*
X325354Y81890D02*
D03*
X321890D02*
D03*
X325354Y71653D02*
D03*
X321890D02*
D03*
X325354Y61417D02*
D03*
X321890D02*
D03*
X325354Y51181D02*
D03*
X321890D02*
D03*
X370315Y327559D02*
D03*
X373780D02*
D03*
X370315Y307087D02*
D03*
X373780D02*
D03*
X370315Y331102D02*
D03*
X373780D02*
D03*
X370315Y310630D02*
D03*
X373780D02*
D03*
X380551Y337795D02*
D03*
X384016D02*
D03*
X380551Y317323D02*
D03*
X384016D02*
D03*
X380551Y341339D02*
D03*
X384016D02*
D03*
X380551Y320866D02*
D03*
X384016D02*
D03*
X370315Y276378D02*
D03*
X373780D02*
D03*
X370315Y255906D02*
D03*
X373780D02*
D03*
X370315Y279921D02*
D03*
X373780D02*
D03*
X370315Y259449D02*
D03*
X373780D02*
D03*
X380551Y286614D02*
D03*
X384016D02*
D03*
X380551Y266142D02*
D03*
X384016D02*
D03*
X380551Y290158D02*
D03*
X384016D02*
D03*
X380551Y269685D02*
D03*
X384016D02*
D03*
X370315Y225197D02*
D03*
X373780D02*
D03*
X370315Y204724D02*
D03*
X373780D02*
D03*
X370315Y228740D02*
D03*
X373780D02*
D03*
X370315Y208268D02*
D03*
X373780D02*
D03*
X380551Y235433D02*
D03*
X384016D02*
D03*
X380551Y214961D02*
D03*
X384016D02*
D03*
X380551Y238976D02*
D03*
X384016D02*
D03*
X380551Y218504D02*
D03*
X384016D02*
D03*
X370315Y174016D02*
D03*
X373780D02*
D03*
X370315Y153543D02*
D03*
X373780D02*
D03*
X370315Y177559D02*
D03*
X373780D02*
D03*
X370315Y157087D02*
D03*
X373780D02*
D03*
X380551Y184252D02*
D03*
X384016D02*
D03*
X380551Y163779D02*
D03*
X384016D02*
D03*
X380551Y187795D02*
D03*
X384016D02*
D03*
X380551Y167323D02*
D03*
X384016D02*
D03*
X424567Y124409D02*
D03*
X421102D02*
D03*
X424567Y135433D02*
D03*
X421102D02*
D03*
X424567Y103150D02*
D03*
X421102D02*
D03*
X424567Y114173D02*
D03*
X421102D02*
D03*
X370315Y122835D02*
D03*
X373780D02*
D03*
X370315Y102362D02*
D03*
X373780D02*
D03*
X370315Y126378D02*
D03*
X373780D02*
D03*
X370315Y105905D02*
D03*
X373780D02*
D03*
X380551Y133071D02*
D03*
X384016D02*
D03*
X380551Y112598D02*
D03*
X384016D02*
D03*
X380551Y136614D02*
D03*
X384016D02*
D03*
X380551Y116142D02*
D03*
X384016D02*
D03*
X424567Y73228D02*
D03*
X421102D02*
D03*
X424567Y84252D02*
D03*
X421102D02*
D03*
X370315Y71654D02*
D03*
X373780D02*
D03*
X370315Y51181D02*
D03*
X373780D02*
D03*
X370315Y75197D02*
D03*
X373780D02*
D03*
X370315Y54724D02*
D03*
X373780D02*
D03*
X380551Y81890D02*
D03*
X384016D02*
D03*
X380551Y61417D02*
D03*
X384016D02*
D03*
X380551Y85433D02*
D03*
X384016D02*
D03*
X380551Y64961D02*
D03*
X384016D02*
D03*
D76*
X437106Y207087D02*
D03*
Y214961D02*
D03*
X429036Y211024D02*
D03*
X437106Y228346D02*
D03*
Y236221D02*
D03*
X429036Y232283D02*
D03*
X437106Y258661D02*
D03*
Y266535D02*
D03*
X429036Y262598D02*
D03*
X437106Y279921D02*
D03*
Y287795D02*
D03*
X429036Y283858D02*
D03*
X437106Y309842D02*
D03*
Y317717D02*
D03*
X429036Y313779D02*
D03*
X437106Y331102D02*
D03*
Y338976D02*
D03*
X429036Y335039D02*
D03*
X437106Y177165D02*
D03*
Y185039D02*
D03*
X429036Y181102D02*
D03*
X437106Y155905D02*
D03*
Y163779D02*
D03*
X429036Y159843D02*
D03*
X437106Y53543D02*
D03*
Y61417D02*
D03*
X429036Y57480D02*
D03*
Y129921D02*
D03*
X437106Y133858D02*
D03*
Y125984D02*
D03*
X429036Y108661D02*
D03*
X437106Y112598D02*
D03*
Y104724D02*
D03*
X429036Y78740D02*
D03*
X437106Y82677D02*
D03*
Y74803D02*
D03*
D77*
X17658Y95531D02*
D03*
Y111555D02*
D03*
X22658Y95531D02*
D03*
Y111555D02*
D03*
X27657Y95531D02*
D03*
Y111555D02*
D03*
X32658Y95531D02*
D03*
Y111555D02*
D03*
X37657Y95531D02*
D03*
Y111555D02*
D03*
X42658Y95531D02*
D03*
Y111555D02*
D03*
X47657Y95531D02*
D03*
Y111555D02*
D03*
X52658Y95531D02*
D03*
Y111555D02*
D03*
X57657Y95531D02*
D03*
Y111555D02*
D03*
X62657Y95531D02*
D03*
Y111555D02*
D03*
D78*
X162992Y212992D02*
D03*
D79*
X159153Y204724D02*
D03*
X161713D02*
D03*
X164272D02*
D03*
X166831D02*
D03*
X159153Y221260D02*
D03*
X161713D02*
D03*
X164272D02*
D03*
X166831D02*
D03*
D80*
X104331Y236732D02*
D03*
Y230984D02*
D03*
X139370Y211804D02*
D03*
Y206056D02*
D03*
X75984Y359173D02*
D03*
Y353425D02*
D03*
X111024Y333583D02*
D03*
Y327835D02*
D03*
X157480Y227441D02*
D03*
Y233189D02*
D03*
X153150Y217992D02*
D03*
Y223740D02*
D03*
D81*
X96063Y223327D02*
D03*
Y225886D02*
D03*
Y228445D02*
D03*
Y231004D02*
D03*
X78740Y223327D02*
D03*
Y225886D02*
D03*
Y228445D02*
D03*
Y231004D02*
D03*
X50394Y353051D02*
D03*
Y350492D02*
D03*
Y347933D02*
D03*
Y345374D02*
D03*
X67716Y353051D02*
D03*
Y350492D02*
D03*
Y347933D02*
D03*
Y345374D02*
D03*
D82*
X94488Y200000D02*
D03*
Y188976D02*
D03*
X66142Y322047D02*
D03*
Y311024D02*
D03*
D83*
X79921Y237008D02*
D03*
X85433D02*
D03*
X67716Y287795D02*
D03*
X73228D02*
D03*
X51575Y359055D02*
D03*
X57087D02*
D03*
D84*
X95866Y212598D02*
D03*
X78937D02*
D03*
X67520Y334646D02*
D03*
X50591D02*
D03*
D85*
X139370Y199606D02*
D03*
Y194095D02*
D03*
X111024Y316142D02*
D03*
Y321654D02*
D03*
X232677Y201969D02*
D03*
Y207480D02*
D03*
Y306299D02*
D03*
Y311811D02*
D03*
Y107087D02*
D03*
Y101575D02*
D03*
X104331Y221654D02*
D03*
Y227165D02*
D03*
X94095Y259449D02*
D03*
Y264961D02*
D03*
X75984Y349213D02*
D03*
Y343701D02*
D03*
D86*
X52559Y191339D02*
D03*
X63976D02*
D03*
X52559Y200787D02*
D03*
X63976D02*
D03*
X52559Y210236D02*
D03*
X63976D02*
D03*
X24213Y332283D02*
D03*
X35630D02*
D03*
X24213Y322835D02*
D03*
X35630D02*
D03*
X24213Y313386D02*
D03*
X35630D02*
D03*
X475394Y17323D02*
D03*
X463976D02*
D03*
D87*
X259193Y291929D02*
D03*
Y293898D02*
D03*
Y295866D02*
D03*
Y297835D02*
D03*
Y299803D02*
D03*
Y301772D02*
D03*
Y303740D02*
D03*
Y305709D02*
D03*
X240020D02*
D03*
Y303740D02*
D03*
Y301772D02*
D03*
Y299803D02*
D03*
Y297835D02*
D03*
Y295866D02*
D03*
Y293898D02*
D03*
Y291929D02*
D03*
X259193Y187598D02*
D03*
Y189567D02*
D03*
Y191535D02*
D03*
Y193504D02*
D03*
Y195472D02*
D03*
Y197441D02*
D03*
Y199409D02*
D03*
Y201378D02*
D03*
X240020D02*
D03*
Y199409D02*
D03*
Y197441D02*
D03*
Y195472D02*
D03*
Y193504D02*
D03*
Y191535D02*
D03*
Y189567D02*
D03*
Y187598D02*
D03*
Y87205D02*
D03*
Y89173D02*
D03*
Y91142D02*
D03*
Y93110D02*
D03*
Y95079D02*
D03*
Y97047D02*
D03*
Y99016D02*
D03*
Y100984D02*
D03*
X259193D02*
D03*
Y99016D02*
D03*
Y97047D02*
D03*
Y95079D02*
D03*
Y93110D02*
D03*
Y91142D02*
D03*
Y89173D02*
D03*
Y87205D02*
D03*
D88*
X256496Y308405D02*
D03*
X254528D02*
D03*
X252559D02*
D03*
X250590D02*
D03*
X248622D02*
D03*
X246654D02*
D03*
X244685D02*
D03*
X242717D02*
D03*
Y289232D02*
D03*
X244685D02*
D03*
X246654D02*
D03*
X248622D02*
D03*
X250590D02*
D03*
X252559D02*
D03*
X254528D02*
D03*
X256496D02*
D03*
Y204075D02*
D03*
X254528D02*
D03*
X252559D02*
D03*
X250590D02*
D03*
X248622D02*
D03*
X246654D02*
D03*
X244685D02*
D03*
X242717D02*
D03*
Y184902D02*
D03*
X244685D02*
D03*
X246654D02*
D03*
X248622D02*
D03*
X250590D02*
D03*
X252559D02*
D03*
X254528D02*
D03*
X256496D02*
D03*
Y84508D02*
D03*
X254528D02*
D03*
X252559D02*
D03*
X250590D02*
D03*
X248622D02*
D03*
X246654D02*
D03*
X244685D02*
D03*
X242717D02*
D03*
Y103681D02*
D03*
X244685D02*
D03*
X246654D02*
D03*
X248622D02*
D03*
X250590D02*
D03*
X252559D02*
D03*
X254528D02*
D03*
X256496D02*
D03*
D89*
X249606Y298819D02*
D03*
Y194488D02*
D03*
Y94095D02*
D03*
D90*
X168898Y240945D02*
D03*
Y233858D02*
D03*
X173228Y191339D02*
D03*
Y184252D02*
D03*
X22441Y304724D02*
D03*
X35827D02*
D03*
Y297638D02*
D03*
X22441D02*
D03*
D91*
X366929Y324252D02*
D03*
Y327716D02*
D03*
Y303780D02*
D03*
Y307244D02*
D03*
Y334409D02*
D03*
Y330945D02*
D03*
Y313937D02*
D03*
Y310472D02*
D03*
X377165Y334488D02*
D03*
Y337953D02*
D03*
Y314016D02*
D03*
Y317480D02*
D03*
Y344646D02*
D03*
Y341181D02*
D03*
Y324173D02*
D03*
Y320709D02*
D03*
X366929Y273071D02*
D03*
Y276535D02*
D03*
Y252598D02*
D03*
Y256063D02*
D03*
Y283228D02*
D03*
Y279764D02*
D03*
Y262756D02*
D03*
Y259291D02*
D03*
X377165Y283307D02*
D03*
Y286772D02*
D03*
Y262835D02*
D03*
Y266299D02*
D03*
Y293465D02*
D03*
Y290000D02*
D03*
Y272992D02*
D03*
Y269528D02*
D03*
X366929Y221890D02*
D03*
Y225354D02*
D03*
Y201417D02*
D03*
Y204882D02*
D03*
Y232047D02*
D03*
Y228583D02*
D03*
Y211575D02*
D03*
Y208110D02*
D03*
X377165Y232126D02*
D03*
Y235591D02*
D03*
Y211654D02*
D03*
Y215118D02*
D03*
Y242284D02*
D03*
Y238819D02*
D03*
Y221811D02*
D03*
Y218347D02*
D03*
X366929Y170709D02*
D03*
Y174173D02*
D03*
Y150236D02*
D03*
Y153701D02*
D03*
Y180866D02*
D03*
Y177402D02*
D03*
Y160394D02*
D03*
Y156929D02*
D03*
X377165Y180945D02*
D03*
Y184409D02*
D03*
Y160473D02*
D03*
Y163937D02*
D03*
Y191102D02*
D03*
Y187638D02*
D03*
Y170630D02*
D03*
Y167165D02*
D03*
X366929Y119528D02*
D03*
Y122992D02*
D03*
Y99055D02*
D03*
Y102520D02*
D03*
Y129685D02*
D03*
Y126221D02*
D03*
Y109213D02*
D03*
Y105748D02*
D03*
X377165Y129764D02*
D03*
Y133228D02*
D03*
Y109291D02*
D03*
Y112756D02*
D03*
Y139921D02*
D03*
Y136457D02*
D03*
Y119449D02*
D03*
Y115984D02*
D03*
X366929Y68347D02*
D03*
Y71811D02*
D03*
Y47874D02*
D03*
Y51339D02*
D03*
Y78504D02*
D03*
Y75039D02*
D03*
Y58031D02*
D03*
Y54567D02*
D03*
X377165Y78583D02*
D03*
Y82047D02*
D03*
Y58110D02*
D03*
Y61575D02*
D03*
Y88740D02*
D03*
Y85276D02*
D03*
Y68268D02*
D03*
Y64803D02*
D03*
D92*
X548228Y376378D02*
D03*
Y17323D02*
D03*
D93*
X464173Y26772D02*
D03*
X475197D02*
D03*
D94*
X85827Y279528D02*
D03*
X76772D02*
D03*
X67716D02*
D03*
D95*
X76772Y256693D02*
D03*
D96*
X-48976Y264567D02*
D03*
Y261417D02*
D03*
Y258268D02*
D03*
Y255118D02*
D03*
Y251969D02*
D03*
Y248819D02*
D03*
Y245669D02*
D03*
Y242520D02*
D03*
Y239370D02*
D03*
Y236221D02*
D03*
Y233071D02*
D03*
Y229921D02*
D03*
Y226772D02*
D03*
Y223622D02*
D03*
Y220472D02*
D03*
Y217323D02*
D03*
Y214173D02*
D03*
Y211024D02*
D03*
Y207874D02*
D03*
Y204724D02*
D03*
Y201575D02*
D03*
Y198425D02*
D03*
Y182677D02*
D03*
Y179528D02*
D03*
Y176378D02*
D03*
Y173228D02*
D03*
Y170079D02*
D03*
Y166929D02*
D03*
Y163779D02*
D03*
Y160630D02*
D03*
Y157480D02*
D03*
Y154331D02*
D03*
Y151181D02*
D03*
Y148031D02*
D03*
Y144882D02*
D03*
Y141732D02*
D03*
Y138583D02*
D03*
Y135433D02*
D03*
Y132283D02*
D03*
Y129134D02*
D03*
D97*
X172047Y354528D02*
D03*
Y362008D02*
D03*
X181496D02*
D03*
Y358268D02*
D03*
Y354528D02*
D03*
D98*
X117323Y253150D02*
D03*
X123622D02*
D03*
X79921Y298819D02*
D03*
X86221D02*
D03*
D99*
X11024Y297244D02*
D03*
Y303543D02*
D03*
D100*
X110433Y253150D02*
D03*
X105315D02*
D03*
X73032Y298819D02*
D03*
X67913D02*
D03*
D101*
X11024Y290354D02*
D03*
Y285236D02*
D03*
D102*
X9843Y268779D02*
D03*
Y258780D02*
D03*
D103*
X524843Y36850D02*
D03*
Y356850D02*
D03*
D104*
X489843Y353070D02*
D03*
X499843Y348070D02*
D03*
X489843Y343070D02*
D03*
X499843Y338070D02*
D03*
X489843Y333070D02*
D03*
X499843Y328070D02*
D03*
X489843Y323070D02*
D03*
X499843Y318070D02*
D03*
X489843Y297640D02*
D03*
X499843Y292640D02*
D03*
X489843Y287640D02*
D03*
X499843Y282640D02*
D03*
X489843Y277640D02*
D03*
X499843Y272640D02*
D03*
X489843Y267640D02*
D03*
X499843Y262640D02*
D03*
X489843Y242200D02*
D03*
X499843Y237200D02*
D03*
X489843Y232200D02*
D03*
X499843Y227200D02*
D03*
X489843Y222200D02*
D03*
X499843Y217200D02*
D03*
X489843Y212200D02*
D03*
X499843Y207200D02*
D03*
X489843Y186770D02*
D03*
X499843Y181770D02*
D03*
X489843Y176770D02*
D03*
X499843Y171770D02*
D03*
X489843Y166770D02*
D03*
X499843Y161770D02*
D03*
X489843Y156770D02*
D03*
X499843Y151770D02*
D03*
X489843Y131340D02*
D03*
X499843Y126340D02*
D03*
X489843Y121340D02*
D03*
X499843Y116340D02*
D03*
X489843Y111340D02*
D03*
X499843Y106340D02*
D03*
X489843Y101340D02*
D03*
X499843Y96340D02*
D03*
X489843Y75910D02*
D03*
X499843Y70910D02*
D03*
X489843Y65910D02*
D03*
X499843Y60910D02*
D03*
X489843Y55910D02*
D03*
X499843Y50910D02*
D03*
X489843Y45910D02*
D03*
X499843Y40910D02*
D03*
D105*
X539331Y367618D02*
D03*
Y26083D02*
D03*
X482993Y251850D02*
D03*
Y196850D02*
D03*
Y141850D02*
D03*
D106*
X-21193Y135433D02*
D03*
Y157480D02*
D03*
X109843Y100000D02*
D03*
Y105118D02*
D03*
X-2613Y129134D02*
D03*
X120079Y95276D02*
D03*
Y90158D02*
D03*
X32637Y123622D02*
D03*
X32677Y127165D02*
D03*
X19291Y203543D02*
D03*
X309842Y53150D02*
D03*
X293307Y51869D02*
D03*
X290086Y55937D02*
D03*
X309842Y63386D02*
D03*
X293307Y62105D02*
D03*
X290086Y66173D02*
D03*
X309842Y73622D02*
D03*
X293307Y72342D02*
D03*
X290086Y76409D02*
D03*
X309842Y83858D02*
D03*
X293307Y82578D02*
D03*
X290086Y86646D02*
D03*
X309842Y104331D02*
D03*
X293307Y103050D02*
D03*
X290086Y107118D02*
D03*
X309842Y114567D02*
D03*
X293307Y113286D02*
D03*
X290086Y117354D02*
D03*
X309842Y124803D02*
D03*
X293307Y123523D02*
D03*
X290086Y127590D02*
D03*
X309842Y135039D02*
D03*
X293307Y133759D02*
D03*
X290086Y137827D02*
D03*
X309842Y155512D02*
D03*
X293307Y154231D02*
D03*
X290086Y158299D02*
D03*
X309842Y165748D02*
D03*
X293307Y164468D02*
D03*
X290086Y168535D02*
D03*
X309842Y175984D02*
D03*
X293307Y174704D02*
D03*
X290086Y178771D02*
D03*
X309842Y186221D02*
D03*
X293307Y184940D02*
D03*
X290086Y189008D02*
D03*
X309842Y206693D02*
D03*
X293307Y205412D02*
D03*
X290086Y209480D02*
D03*
X309842Y216929D02*
D03*
X293307Y215649D02*
D03*
X290086Y219716D02*
D03*
X309842Y227165D02*
D03*
X293307Y225885D02*
D03*
X290086Y229953D02*
D03*
X309842Y237402D02*
D03*
X293307Y236121D02*
D03*
X290086Y240189D02*
D03*
X309842Y257874D02*
D03*
X293307Y256593D02*
D03*
X290086Y260661D02*
D03*
X309842Y268110D02*
D03*
X293307Y266830D02*
D03*
X290086Y270898D02*
D03*
X309842Y278346D02*
D03*
X293307Y277066D02*
D03*
X290086Y281134D02*
D03*
X309842Y288583D02*
D03*
X293307Y287302D02*
D03*
X290086Y291370D02*
D03*
X309842Y308661D02*
D03*
X293307Y307381D02*
D03*
X290086Y311449D02*
D03*
X309842Y318898D02*
D03*
X293307Y317617D02*
D03*
X290086Y321685D02*
D03*
X290086Y342157D02*
D03*
X293307Y338090D02*
D03*
X290117Y331852D02*
D03*
X293307Y327815D02*
D03*
X309842Y329134D02*
D03*
X309842Y339370D02*
D03*
X169291Y204331D02*
D03*
X156693D02*
D03*
X329134Y307874D02*
D03*
Y311417D02*
D03*
Y321260D02*
D03*
Y317717D02*
D03*
Y331102D02*
D03*
Y327559D02*
D03*
Y340945D02*
D03*
Y337402D02*
D03*
X360630Y334646D02*
D03*
Y323714D02*
D03*
X370866Y333951D02*
D03*
Y344882D02*
D03*
Y313478D02*
D03*
Y324409D02*
D03*
X360630Y303242D02*
D03*
Y314173D02*
D03*
X329134Y256693D02*
D03*
Y260236D02*
D03*
Y270079D02*
D03*
Y266535D02*
D03*
Y279921D02*
D03*
Y276378D02*
D03*
Y289764D02*
D03*
Y286221D02*
D03*
X360630Y283465D02*
D03*
Y272533D02*
D03*
X370866Y282769D02*
D03*
Y293701D02*
D03*
Y262297D02*
D03*
Y273228D02*
D03*
X360630Y252061D02*
D03*
Y262992D02*
D03*
X329134Y205512D02*
D03*
Y209055D02*
D03*
Y218898D02*
D03*
Y215354D02*
D03*
Y228740D02*
D03*
Y225197D02*
D03*
Y238583D02*
D03*
Y235039D02*
D03*
X360630Y232283D02*
D03*
Y221352D02*
D03*
X370866Y231589D02*
D03*
Y242520D02*
D03*
Y211116D02*
D03*
Y222047D02*
D03*
X360630Y200880D02*
D03*
Y211811D02*
D03*
X329134Y154331D02*
D03*
Y157874D02*
D03*
Y167717D02*
D03*
Y164173D02*
D03*
Y177559D02*
D03*
Y174016D02*
D03*
Y187402D02*
D03*
Y183858D02*
D03*
X360630Y181102D02*
D03*
Y170171D02*
D03*
X370866Y180407D02*
D03*
Y191339D02*
D03*
Y159935D02*
D03*
Y170866D02*
D03*
X360630Y149699D02*
D03*
Y160630D02*
D03*
X329134Y103150D02*
D03*
Y106693D02*
D03*
Y116535D02*
D03*
Y112992D02*
D03*
Y126378D02*
D03*
Y122835D02*
D03*
Y136221D02*
D03*
Y132677D02*
D03*
X360630Y129921D02*
D03*
Y118990D02*
D03*
X370866Y129226D02*
D03*
Y140157D02*
D03*
Y108754D02*
D03*
Y119685D02*
D03*
X360630Y98518D02*
D03*
Y109449D02*
D03*
Y58268D02*
D03*
Y47337D02*
D03*
X370866Y68504D02*
D03*
Y57573D02*
D03*
Y88976D02*
D03*
Y78045D02*
D03*
X360630Y67809D02*
D03*
Y78740D02*
D03*
X329134Y81496D02*
D03*
Y85039D02*
D03*
Y71654D02*
D03*
Y75197D02*
D03*
Y61811D02*
D03*
Y65354D02*
D03*
Y55512D02*
D03*
Y51968D02*
D03*
D107*
X129528Y111811D02*
D03*
X92913D02*
D03*
X99213Y90158D02*
D03*
X177165Y346063D02*
D03*
Y343307D02*
D03*
D108*
X165354Y214764D02*
D03*
Y211221D02*
D03*
X160630Y214764D02*
D03*
Y211221D02*
D03*
X162992Y212992D02*
D03*
M02*
