G04*
G04 #@! TF.GenerationSoftware,Altium Limited,Altium Designer,24.1.2 (44)*
G04*
G04 Layer_Color=8421504*
%FSLAX25Y25*%
%MOIN*%
G70*
G04*
G04 #@! TF.SameCoordinates,0B70BC78-7133-40EF-B392-14414780638A*
G04*
G04*
G04 #@! TF.FilePolarity,Positive*
G04*
G01*
G75*
G04:AMPARAMS|DCode=20|XSize=17.72mil|YSize=45.28mil|CornerRadius=1.95mil|HoleSize=0mil|Usage=FLASHONLY|Rotation=90.000|XOffset=0mil|YOffset=0mil|HoleType=Round|Shape=RoundedRectangle|*
%AMROUNDEDRECTD20*
21,1,0.01772,0.04138,0,0,90.0*
21,1,0.01382,0.04528,0,0,90.0*
1,1,0.00390,0.02069,0.00691*
1,1,0.00390,0.02069,-0.00691*
1,1,0.00390,-0.02069,-0.00691*
1,1,0.00390,-0.02069,0.00691*
%
%ADD20ROUNDEDRECTD20*%
%ADD21R,0.05315X0.06102*%
G04:AMPARAMS|DCode=22|XSize=27.95mil|YSize=34.65mil|CornerRadius=4.61mil|HoleSize=0mil|Usage=FLASHONLY|Rotation=270.000|XOffset=0mil|YOffset=0mil|HoleType=Round|Shape=RoundedRectangle|*
%AMROUNDEDRECTD22*
21,1,0.02795,0.02542,0,0,270.0*
21,1,0.01873,0.03465,0,0,270.0*
1,1,0.00922,-0.01271,-0.00936*
1,1,0.00922,-0.01271,0.00936*
1,1,0.00922,0.01271,0.00936*
1,1,0.00922,0.01271,-0.00936*
%
%ADD22ROUNDEDRECTD22*%
G04:AMPARAMS|DCode=23|XSize=27.95mil|YSize=34.65mil|CornerRadius=4.61mil|HoleSize=0mil|Usage=FLASHONLY|Rotation=180.000|XOffset=0mil|YOffset=0mil|HoleType=Round|Shape=RoundedRectangle|*
%AMROUNDEDRECTD23*
21,1,0.02795,0.02542,0,0,180.0*
21,1,0.01873,0.03465,0,0,180.0*
1,1,0.00922,-0.00936,0.01271*
1,1,0.00922,0.00936,0.01271*
1,1,0.00922,0.00936,-0.01271*
1,1,0.00922,-0.00936,-0.01271*
%
%ADD23ROUNDEDRECTD23*%
G04:AMPARAMS|DCode=24|XSize=39.37mil|YSize=51.58mil|CornerRadius=6.5mil|HoleSize=0mil|Usage=FLASHONLY|Rotation=180.000|XOffset=0mil|YOffset=0mil|HoleType=Round|Shape=RoundedRectangle|*
%AMROUNDEDRECTD24*
21,1,0.03937,0.03858,0,0,180.0*
21,1,0.02638,0.05158,0,0,180.0*
1,1,0.01299,-0.01319,0.01929*
1,1,0.01299,0.01319,0.01929*
1,1,0.01299,0.01319,-0.01929*
1,1,0.01299,-0.01319,-0.01929*
%
%ADD24ROUNDEDRECTD24*%
G04:AMPARAMS|DCode=25|XSize=18.9mil|YSize=21.65mil|CornerRadius=3.12mil|HoleSize=0mil|Usage=FLASHONLY|Rotation=180.000|XOffset=0mil|YOffset=0mil|HoleType=Round|Shape=RoundedRectangle|*
%AMROUNDEDRECTD25*
21,1,0.01890,0.01542,0,0,180.0*
21,1,0.01266,0.02165,0,0,180.0*
1,1,0.00624,-0.00633,0.00771*
1,1,0.00624,0.00633,0.00771*
1,1,0.00624,0.00633,-0.00771*
1,1,0.00624,-0.00633,-0.00771*
%
%ADD25ROUNDEDRECTD25*%
G04:AMPARAMS|DCode=26|XSize=69.06mil|YSize=18.73mil|CornerRadius=9.37mil|HoleSize=0mil|Usage=FLASHONLY|Rotation=0.000|XOffset=0mil|YOffset=0mil|HoleType=Round|Shape=RoundedRectangle|*
%AMROUNDEDRECTD26*
21,1,0.06906,0.00000,0,0,0.0*
21,1,0.05033,0.01873,0,0,0.0*
1,1,0.01873,0.02516,0.00000*
1,1,0.01873,-0.02516,0.00000*
1,1,0.01873,-0.02516,0.00000*
1,1,0.01873,0.02516,0.00000*
%
%ADD26ROUNDEDRECTD26*%
%ADD27O,0.06299X0.01181*%
G04:AMPARAMS|DCode=28|XSize=23.62mil|YSize=57.09mil|CornerRadius=2.01mil|HoleSize=0mil|Usage=FLASHONLY|Rotation=90.000|XOffset=0mil|YOffset=0mil|HoleType=Round|Shape=RoundedRectangle|*
%AMROUNDEDRECTD28*
21,1,0.02362,0.05307,0,0,90.0*
21,1,0.01961,0.05709,0,0,90.0*
1,1,0.00402,0.02653,0.00980*
1,1,0.00402,0.02653,-0.00980*
1,1,0.00402,-0.02653,-0.00980*
1,1,0.00402,-0.02653,0.00980*
%
%ADD28ROUNDEDRECTD28*%
%ADD29R,0.04000X0.03200*%
G04:AMPARAMS|DCode=30|XSize=19.68mil|YSize=35.43mil|CornerRadius=3.25mil|HoleSize=0mil|Usage=FLASHONLY|Rotation=0.000|XOffset=0mil|YOffset=0mil|HoleType=Round|Shape=RoundedRectangle|*
%AMROUNDEDRECTD30*
21,1,0.01968,0.02894,0,0,0.0*
21,1,0.01319,0.03543,0,0,0.0*
1,1,0.00650,0.00659,-0.01447*
1,1,0.00650,-0.00659,-0.01447*
1,1,0.00650,-0.00659,0.01447*
1,1,0.00650,0.00659,0.01447*
%
%ADD30ROUNDEDRECTD30*%
G04:AMPARAMS|DCode=31|XSize=18.9mil|YSize=21.65mil|CornerRadius=3.12mil|HoleSize=0mil|Usage=FLASHONLY|Rotation=90.000|XOffset=0mil|YOffset=0mil|HoleType=Round|Shape=RoundedRectangle|*
%AMROUNDEDRECTD31*
21,1,0.01890,0.01542,0,0,90.0*
21,1,0.01266,0.02165,0,0,90.0*
1,1,0.00624,0.00771,0.00633*
1,1,0.00624,0.00771,-0.00633*
1,1,0.00624,-0.00771,-0.00633*
1,1,0.00624,-0.00771,0.00633*
%
%ADD31ROUNDEDRECTD31*%
G04:AMPARAMS|DCode=32|XSize=16.14mil|YSize=21.26mil|CornerRadius=2.66mil|HoleSize=0mil|Usage=FLASHONLY|Rotation=180.000|XOffset=0mil|YOffset=0mil|HoleType=Round|Shape=RoundedRectangle|*
%AMROUNDEDRECTD32*
21,1,0.01614,0.01593,0,0,180.0*
21,1,0.01082,0.02126,0,0,180.0*
1,1,0.00533,-0.00541,0.00797*
1,1,0.00533,0.00541,0.00797*
1,1,0.00533,0.00541,-0.00797*
1,1,0.00533,-0.00541,-0.00797*
%
%ADD32ROUNDEDRECTD32*%
%ADD33R,0.06906X0.01873*%
%ADD34R,0.03937X0.02165*%
%ADD35R,0.02913X0.10984*%
%ADD36R,0.07441X0.06181*%
%ADD37O,0.01300X0.06693*%
G04:AMPARAMS|DCode=38|XSize=19.68mil|YSize=35.43mil|CornerRadius=3.25mil|HoleSize=0mil|Usage=FLASHONLY|Rotation=270.000|XOffset=0mil|YOffset=0mil|HoleType=Round|Shape=RoundedRectangle|*
%AMROUNDEDRECTD38*
21,1,0.01968,0.02894,0,0,270.0*
21,1,0.01319,0.03543,0,0,270.0*
1,1,0.00650,-0.01447,-0.00659*
1,1,0.00650,-0.01447,0.00659*
1,1,0.00650,0.01447,0.00659*
1,1,0.00650,0.01447,-0.00659*
%
%ADD38ROUNDEDRECTD38*%
%ADD39R,0.05709X0.01772*%
%ADD40R,0.10630X0.05118*%
%ADD41R,0.02756X0.03543*%
%ADD42R,0.09252X0.06693*%
%ADD43R,0.03543X0.02756*%
G04:AMPARAMS|DCode=44|XSize=47.64mil|YSize=71.65mil|CornerRadius=7.86mil|HoleSize=0mil|Usage=FLASHONLY|Rotation=180.000|XOffset=0mil|YOffset=0mil|HoleType=Round|Shape=RoundedRectangle|*
%AMROUNDEDRECTD44*
21,1,0.04764,0.05593,0,0,180.0*
21,1,0.03192,0.07165,0,0,180.0*
1,1,0.01572,-0.01596,0.02797*
1,1,0.01572,0.01596,0.02797*
1,1,0.01572,0.01596,-0.02797*
1,1,0.01572,-0.01596,-0.02797*
%
%ADD44ROUNDEDRECTD44*%
%ADD45R,0.29528X0.08661*%
%ADD46O,0.03386X0.01063*%
%ADD47O,0.01063X0.03386*%
%ADD48R,0.12205X0.12205*%
G04:AMPARAMS|DCode=49|XSize=39.37mil|YSize=51.58mil|CornerRadius=6.5mil|HoleSize=0mil|Usage=FLASHONLY|Rotation=270.000|XOffset=0mil|YOffset=0mil|HoleType=Round|Shape=RoundedRectangle|*
%AMROUNDEDRECTD49*
21,1,0.03937,0.03858,0,0,270.0*
21,1,0.02638,0.05158,0,0,270.0*
1,1,0.01299,-0.01929,-0.01319*
1,1,0.01299,-0.01929,0.01319*
1,1,0.01299,0.01929,0.01319*
1,1,0.01299,0.01929,-0.01319*
%
%ADD49ROUNDEDRECTD49*%
G04:AMPARAMS|DCode=50|XSize=16.14mil|YSize=21.26mil|CornerRadius=2.66mil|HoleSize=0mil|Usage=FLASHONLY|Rotation=90.000|XOffset=0mil|YOffset=0mil|HoleType=Round|Shape=RoundedRectangle|*
%AMROUNDEDRECTD50*
21,1,0.01614,0.01593,0,0,90.0*
21,1,0.01082,0.02126,0,0,90.0*
1,1,0.00533,0.00797,0.00541*
1,1,0.00533,0.00797,-0.00541*
1,1,0.00533,-0.00797,-0.00541*
1,1,0.00533,-0.00797,0.00541*
%
%ADD50ROUNDEDRECTD50*%
%ADD51R,0.11811X0.07874*%
%ADD52R,0.04724X0.06496*%
%ADD53R,0.03740X0.08465*%
%ADD54R,0.12795X0.08465*%
%ADD55R,0.11024X0.02165*%
%ADD56C,0.03499*%
%ADD57C,0.03531*%
%ADD58R,0.04331X0.02559*%
%ADD59R,0.03150X0.03150*%
%ADD60R,0.03150X0.03150*%
%ADD61R,0.03347X0.03740*%
%ADD62R,0.03740X0.03347*%
G36*
X38386Y283661D02*
X31693D01*
Y287598D01*
X35630D01*
Y292717D01*
X38386D01*
Y283661D01*
D02*
G37*
G36*
X22638Y287598D02*
X26575D01*
Y283661D01*
X19882D01*
Y292717D01*
X22638D01*
Y287598D01*
D02*
G37*
G36*
X38386Y271063D02*
X35630D01*
Y276181D01*
X31693D01*
Y280118D01*
X38386D01*
Y271063D01*
D02*
G37*
G36*
X26575Y276181D02*
X22638D01*
Y271063D01*
X19882D01*
Y280118D01*
X26575D01*
Y276181D01*
D02*
G37*
G36*
X134677Y105312D02*
X132677Y103312D01*
X130677Y105312D01*
Y106312D01*
X134677D01*
Y105312D01*
D02*
G37*
G36*
Y101312D02*
X130677D01*
Y104312D01*
X132677Y102312D01*
X134677Y104312D01*
Y101312D01*
D02*
G37*
D20*
X157579Y297342D02*
D03*
Y299902D02*
D03*
Y302461D02*
D03*
Y305020D02*
D03*
X140847Y297342D02*
D03*
Y299902D02*
D03*
Y302461D02*
D03*
Y305020D02*
D03*
X157579Y271752D02*
D03*
Y274311D02*
D03*
Y276870D02*
D03*
Y279429D02*
D03*
X140847Y271752D02*
D03*
Y274311D02*
D03*
Y276870D02*
D03*
Y279429D02*
D03*
X140847Y330217D02*
D03*
X157579D02*
D03*
Y325098D02*
D03*
Y327658D02*
D03*
X140847D02*
D03*
Y325098D02*
D03*
Y322539D02*
D03*
X157579D02*
D03*
D21*
X153150Y312992D02*
D03*
X145276D02*
D03*
X153150Y287402D02*
D03*
X145276D02*
D03*
X145276Y338189D02*
D03*
X153150D02*
D03*
D22*
X129528Y302244D02*
D03*
Y296181D02*
D03*
X134252Y302244D02*
D03*
Y296181D02*
D03*
X162598Y293425D02*
D03*
Y299488D02*
D03*
X167323Y293425D02*
D03*
Y299488D02*
D03*
X172047Y293425D02*
D03*
Y299488D02*
D03*
X129528Y276654D02*
D03*
Y270590D02*
D03*
X134252Y276654D02*
D03*
Y270590D02*
D03*
X162598Y267835D02*
D03*
Y273898D02*
D03*
X167323Y267835D02*
D03*
Y273898D02*
D03*
X172047Y267835D02*
D03*
Y273898D02*
D03*
X167323Y324685D02*
D03*
X172047D02*
D03*
X162598D02*
D03*
X75984Y193189D02*
D03*
Y187126D02*
D03*
X70472Y213110D02*
D03*
Y219173D02*
D03*
X187402Y358543D02*
D03*
Y352480D02*
D03*
X166142Y359567D02*
D03*
Y365630D02*
D03*
X162598Y318622D02*
D03*
X134252Y327441D02*
D03*
Y321378D02*
D03*
X47638Y315236D02*
D03*
Y309173D02*
D03*
X42126Y335157D02*
D03*
Y341220D02*
D03*
X232677Y302244D02*
D03*
Y296181D02*
D03*
Y197913D02*
D03*
Y191850D02*
D03*
Y97520D02*
D03*
Y91457D02*
D03*
X80709Y187126D02*
D03*
Y193189D02*
D03*
X85433Y187126D02*
D03*
Y193189D02*
D03*
X160236Y359567D02*
D03*
Y365630D02*
D03*
X192126Y358543D02*
D03*
Y352480D02*
D03*
X172047Y318622D02*
D03*
X167323D02*
D03*
X129528Y327441D02*
D03*
Y321378D02*
D03*
X57087Y315236D02*
D03*
Y309173D02*
D03*
X52362Y315236D02*
D03*
Y309173D02*
D03*
X228346Y312087D02*
D03*
Y306024D02*
D03*
Y207756D02*
D03*
Y201693D02*
D03*
Y107362D02*
D03*
Y101299D02*
D03*
Y302244D02*
D03*
Y296181D02*
D03*
Y197913D02*
D03*
Y191850D02*
D03*
Y97520D02*
D03*
Y91457D02*
D03*
X162598Y227677D02*
D03*
Y233740D02*
D03*
X153150Y208543D02*
D03*
Y202480D02*
D03*
D23*
X168386Y310236D02*
D03*
X162323D02*
D03*
X168386Y305512D02*
D03*
X162323D02*
D03*
X168386Y284646D02*
D03*
X162323D02*
D03*
X168386Y279921D02*
D03*
X162323D02*
D03*
X162323Y335433D02*
D03*
Y330709D02*
D03*
X125472Y111024D02*
D03*
X119409D02*
D03*
X157205Y240551D02*
D03*
X163268D02*
D03*
X161535Y196851D02*
D03*
X167598D02*
D03*
X65866Y225591D02*
D03*
X71929D02*
D03*
X166260Y348819D02*
D03*
X172323D02*
D03*
X37520Y347638D02*
D03*
X43583D02*
D03*
X237520Y283071D02*
D03*
X243583D02*
D03*
X237520Y178740D02*
D03*
X243583D02*
D03*
X237520Y78347D02*
D03*
X243583D02*
D03*
X157205Y245669D02*
D03*
X163268D02*
D03*
X173504Y228346D02*
D03*
X167441D02*
D03*
X161535Y191732D02*
D03*
X167598D02*
D03*
X166260Y344094D02*
D03*
X172323D02*
D03*
X168386Y330709D02*
D03*
Y335433D02*
D03*
X237520Y278740D02*
D03*
X243583D02*
D03*
X237520Y174409D02*
D03*
X243583D02*
D03*
X237520Y74016D02*
D03*
X243583D02*
D03*
D24*
X184252Y299606D02*
D03*
X177165D02*
D03*
X184252Y274016D02*
D03*
X177165D02*
D03*
X184252Y324803D02*
D03*
X177165D02*
D03*
X164961Y256299D02*
D03*
X157874D02*
D03*
X131890Y365748D02*
D03*
X138976D02*
D03*
X146457D02*
D03*
X153543D02*
D03*
X138976Y357480D02*
D03*
X131890D02*
D03*
D25*
X395433Y48819D02*
D03*
Y70078D02*
D03*
Y100000D02*
D03*
Y121260D02*
D03*
X395433Y151181D02*
D03*
Y172441D02*
D03*
Y202362D02*
D03*
Y223622D02*
D03*
Y253937D02*
D03*
Y275197D02*
D03*
Y305118D02*
D03*
Y326378D02*
D03*
X315197Y177953D02*
D03*
X311575D02*
D03*
Y174016D02*
D03*
X315197D02*
D03*
X315197Y310630D02*
D03*
X311575D02*
D03*
Y306693D02*
D03*
X315197D02*
D03*
X399055Y202362D02*
D03*
X412756Y219685D02*
D03*
X416378D02*
D03*
X424646Y212992D02*
D03*
X421024D02*
D03*
X424646Y209055D02*
D03*
X421024D02*
D03*
X399055Y223622D02*
D03*
X412756Y240945D02*
D03*
X416378D02*
D03*
X424646Y234252D02*
D03*
X421024D02*
D03*
X424646Y230315D02*
D03*
X421024D02*
D03*
X399055Y253937D02*
D03*
X412756Y271260D02*
D03*
X416378D02*
D03*
X424646Y264567D02*
D03*
X421024D02*
D03*
X424646Y260630D02*
D03*
X421024D02*
D03*
X399055Y275197D02*
D03*
X412756Y292520D02*
D03*
X416378D02*
D03*
X424646Y285826D02*
D03*
X421024D02*
D03*
X424646Y281890D02*
D03*
X421024D02*
D03*
X399055Y305118D02*
D03*
X412756Y322441D02*
D03*
X416378D02*
D03*
X424646Y315748D02*
D03*
X421024D02*
D03*
X424646Y311811D02*
D03*
X421024D02*
D03*
X399055Y326378D02*
D03*
X412756Y343701D02*
D03*
X416378D02*
D03*
X424646Y337008D02*
D03*
X421024D02*
D03*
X424646Y333071D02*
D03*
X421024D02*
D03*
X399055Y172441D02*
D03*
X412756Y189764D02*
D03*
X416378D02*
D03*
X424646Y183071D02*
D03*
X421024D02*
D03*
X424646Y179134D02*
D03*
X421024D02*
D03*
X399055Y151181D02*
D03*
X412756Y168504D02*
D03*
X416378D02*
D03*
X424646Y161811D02*
D03*
X421024D02*
D03*
X424646Y157874D02*
D03*
X421024D02*
D03*
X424646Y59449D02*
D03*
X421024D02*
D03*
X424646Y55512D02*
D03*
X421024D02*
D03*
X311575Y341338D02*
D03*
X315197D02*
D03*
X311575Y331102D02*
D03*
X315197D02*
D03*
X311575Y320866D02*
D03*
X315197D02*
D03*
X311575Y290551D02*
D03*
X315197D02*
D03*
X311575Y280315D02*
D03*
X315197D02*
D03*
X311575Y270078D02*
D03*
X315197D02*
D03*
X311575Y259842D02*
D03*
X315197D02*
D03*
X311575Y239370D02*
D03*
X315197D02*
D03*
X311575Y229134D02*
D03*
X315197D02*
D03*
X311575Y218897D02*
D03*
X315197D02*
D03*
X311575Y208661D02*
D03*
X315197D02*
D03*
X311575Y188189D02*
D03*
X315197D02*
D03*
X311575Y167716D02*
D03*
X315197D02*
D03*
X311575Y157480D02*
D03*
X315197D02*
D03*
X311575Y137008D02*
D03*
X315197D02*
D03*
X311575Y126771D02*
D03*
X315197D02*
D03*
X311575Y116535D02*
D03*
X315197D02*
D03*
X311575Y106299D02*
D03*
X315197D02*
D03*
X311575Y85827D02*
D03*
X315197D02*
D03*
X311575Y75590D02*
D03*
X315197D02*
D03*
X311575Y65354D02*
D03*
X315197D02*
D03*
X311575Y55118D02*
D03*
X315197D02*
D03*
X315197Y337402D02*
D03*
X311575D02*
D03*
X315197Y327166D02*
D03*
X311575D02*
D03*
X315197Y316929D02*
D03*
X311575D02*
D03*
X315197Y286614D02*
D03*
X311575D02*
D03*
X315197Y276378D02*
D03*
X311575D02*
D03*
X315197Y266142D02*
D03*
X311575D02*
D03*
X315197Y255906D02*
D03*
X311575D02*
D03*
X315197Y235433D02*
D03*
X311575D02*
D03*
X315197Y225197D02*
D03*
X311575D02*
D03*
X315197Y214961D02*
D03*
X311575D02*
D03*
X315197Y204725D02*
D03*
X311575D02*
D03*
X315197Y184252D02*
D03*
X311575D02*
D03*
X315197Y163780D02*
D03*
X311575D02*
D03*
X315197Y153543D02*
D03*
X311575D02*
D03*
X315197Y133071D02*
D03*
X311575D02*
D03*
X315197Y122835D02*
D03*
X311575D02*
D03*
X315197Y112599D02*
D03*
X311575D02*
D03*
X315197Y102362D02*
D03*
X311575D02*
D03*
X315197Y81890D02*
D03*
X311575D02*
D03*
X315197Y71654D02*
D03*
X311575D02*
D03*
X315197Y61418D02*
D03*
X311575D02*
D03*
X315197Y51181D02*
D03*
X311575D02*
D03*
X421024Y127953D02*
D03*
X424646D02*
D03*
X421024Y131889D02*
D03*
X424646D02*
D03*
X416378Y138583D02*
D03*
X412756D02*
D03*
X399055Y121260D02*
D03*
X421024Y106693D02*
D03*
X424646D02*
D03*
X421024Y110630D02*
D03*
X424646D02*
D03*
X416378Y117323D02*
D03*
X412756D02*
D03*
X399055Y100000D02*
D03*
X421024Y76771D02*
D03*
X424646D02*
D03*
X421024Y80708D02*
D03*
X424646D02*
D03*
X416378Y87402D02*
D03*
X412756D02*
D03*
X399055Y70078D02*
D03*
X416378Y66142D02*
D03*
X412756D02*
D03*
X399055Y48819D02*
D03*
D26*
X397833Y53642D02*
D03*
Y74902D02*
D03*
Y104823D02*
D03*
Y126083D02*
D03*
X397833Y156004D02*
D03*
Y177264D02*
D03*
Y207185D02*
D03*
Y228445D02*
D03*
Y258760D02*
D03*
Y280020D02*
D03*
Y309941D02*
D03*
Y331201D02*
D03*
X413978Y214862D02*
D03*
Y212303D02*
D03*
Y209744D02*
D03*
Y207185D02*
D03*
X397833Y209744D02*
D03*
Y212303D02*
D03*
X413978Y236122D02*
D03*
Y233563D02*
D03*
Y231004D02*
D03*
Y228445D02*
D03*
X397833Y231004D02*
D03*
Y233563D02*
D03*
X413978Y266437D02*
D03*
Y263878D02*
D03*
Y261319D02*
D03*
Y258760D02*
D03*
X397833Y261319D02*
D03*
Y263878D02*
D03*
X413978Y287697D02*
D03*
Y285138D02*
D03*
Y282579D02*
D03*
Y280020D02*
D03*
X397833Y282579D02*
D03*
Y285138D02*
D03*
X413978Y317618D02*
D03*
Y315059D02*
D03*
Y312500D02*
D03*
Y309941D02*
D03*
X397833Y312500D02*
D03*
Y315059D02*
D03*
X413978Y338878D02*
D03*
Y336319D02*
D03*
Y333760D02*
D03*
Y331201D02*
D03*
X397833Y333760D02*
D03*
Y336319D02*
D03*
X413978Y184941D02*
D03*
Y182382D02*
D03*
Y179823D02*
D03*
Y177264D02*
D03*
X397833Y179823D02*
D03*
Y182382D02*
D03*
X413978Y163681D02*
D03*
Y161122D02*
D03*
Y158563D02*
D03*
Y156004D02*
D03*
X397833Y158563D02*
D03*
Y161122D02*
D03*
X397833Y131201D02*
D03*
Y128642D02*
D03*
X413978Y126083D02*
D03*
Y128642D02*
D03*
Y131201D02*
D03*
Y133760D02*
D03*
X397833Y80020D02*
D03*
Y77461D02*
D03*
X413978Y74902D02*
D03*
Y77461D02*
D03*
Y80020D02*
D03*
Y82579D02*
D03*
X397833Y109941D02*
D03*
Y107382D02*
D03*
X413978Y104823D02*
D03*
Y107382D02*
D03*
Y109941D02*
D03*
Y112500D02*
D03*
X397833Y58760D02*
D03*
Y56201D02*
D03*
X413978Y53642D02*
D03*
Y56201D02*
D03*
Y58760D02*
D03*
Y61319D02*
D03*
D27*
X333858Y80315D02*
D03*
Y78347D02*
D03*
Y70473D02*
D03*
Y68504D02*
D03*
Y60630D02*
D03*
Y58661D02*
D03*
Y50787D02*
D03*
X355906Y78347D02*
D03*
Y68504D02*
D03*
Y58661D02*
D03*
X333858Y131496D02*
D03*
Y129528D02*
D03*
Y121653D02*
D03*
Y119685D02*
D03*
Y111811D02*
D03*
Y109843D02*
D03*
Y101969D02*
D03*
X355906Y129528D02*
D03*
Y119685D02*
D03*
Y109843D02*
D03*
X333858Y182677D02*
D03*
Y180709D02*
D03*
Y172835D02*
D03*
Y170866D02*
D03*
Y162992D02*
D03*
Y161024D02*
D03*
Y153150D02*
D03*
X355906Y180709D02*
D03*
Y170866D02*
D03*
Y161024D02*
D03*
X333858Y233858D02*
D03*
Y231890D02*
D03*
Y224016D02*
D03*
Y222047D02*
D03*
Y214173D02*
D03*
Y212205D02*
D03*
Y204331D02*
D03*
X355906Y231890D02*
D03*
Y222047D02*
D03*
Y212205D02*
D03*
X333858Y285039D02*
D03*
Y283071D02*
D03*
Y275197D02*
D03*
Y273228D02*
D03*
Y265354D02*
D03*
Y263386D02*
D03*
Y255512D02*
D03*
X355906Y283071D02*
D03*
Y273228D02*
D03*
Y263386D02*
D03*
X333858Y336221D02*
D03*
Y334252D02*
D03*
Y326378D02*
D03*
Y324410D02*
D03*
Y316535D02*
D03*
Y314567D02*
D03*
Y306693D02*
D03*
X355906Y334252D02*
D03*
Y324410D02*
D03*
Y314567D02*
D03*
Y306693D02*
D03*
Y308661D02*
D03*
Y310630D02*
D03*
Y312598D02*
D03*
Y316535D02*
D03*
Y318504D02*
D03*
Y320472D02*
D03*
Y322441D02*
D03*
Y326378D02*
D03*
Y328346D02*
D03*
Y330315D02*
D03*
Y332283D02*
D03*
Y336221D02*
D03*
Y338189D02*
D03*
Y340158D02*
D03*
Y342126D02*
D03*
X333858Y308661D02*
D03*
Y310630D02*
D03*
Y312598D02*
D03*
Y318504D02*
D03*
Y320472D02*
D03*
Y322441D02*
D03*
Y328346D02*
D03*
Y330315D02*
D03*
Y332283D02*
D03*
Y338189D02*
D03*
Y340158D02*
D03*
Y342126D02*
D03*
X355906Y255512D02*
D03*
Y257480D02*
D03*
Y259449D02*
D03*
Y261417D02*
D03*
Y265354D02*
D03*
Y267323D02*
D03*
Y269291D02*
D03*
Y271260D02*
D03*
Y275197D02*
D03*
Y277165D02*
D03*
Y279134D02*
D03*
Y281102D02*
D03*
Y285039D02*
D03*
Y287008D02*
D03*
Y288976D02*
D03*
Y290945D02*
D03*
X333858Y257480D02*
D03*
Y259449D02*
D03*
Y261417D02*
D03*
Y267323D02*
D03*
Y269291D02*
D03*
Y271260D02*
D03*
Y277165D02*
D03*
Y279134D02*
D03*
Y281102D02*
D03*
Y287008D02*
D03*
Y288976D02*
D03*
Y290945D02*
D03*
X355906Y204331D02*
D03*
Y206299D02*
D03*
Y208268D02*
D03*
Y210236D02*
D03*
Y214173D02*
D03*
Y216142D02*
D03*
Y218110D02*
D03*
Y220079D02*
D03*
Y224016D02*
D03*
Y225984D02*
D03*
Y227953D02*
D03*
Y229921D02*
D03*
Y233858D02*
D03*
Y235827D02*
D03*
Y237795D02*
D03*
Y239764D02*
D03*
X333858Y206299D02*
D03*
Y208268D02*
D03*
Y210236D02*
D03*
Y216142D02*
D03*
Y218110D02*
D03*
Y220079D02*
D03*
Y225984D02*
D03*
Y227953D02*
D03*
Y229921D02*
D03*
Y235827D02*
D03*
Y237795D02*
D03*
Y239764D02*
D03*
X355906Y153150D02*
D03*
Y155118D02*
D03*
Y157087D02*
D03*
Y159055D02*
D03*
Y162992D02*
D03*
Y164961D02*
D03*
Y166929D02*
D03*
Y168898D02*
D03*
Y172835D02*
D03*
Y174803D02*
D03*
Y176772D02*
D03*
Y178740D02*
D03*
Y182677D02*
D03*
Y184646D02*
D03*
Y186614D02*
D03*
Y188583D02*
D03*
X333858Y155118D02*
D03*
Y157087D02*
D03*
Y159055D02*
D03*
Y164961D02*
D03*
Y166929D02*
D03*
Y168898D02*
D03*
Y174803D02*
D03*
Y176772D02*
D03*
Y178740D02*
D03*
Y184646D02*
D03*
Y186614D02*
D03*
Y188583D02*
D03*
X355906Y101969D02*
D03*
Y103937D02*
D03*
Y105905D02*
D03*
Y107874D02*
D03*
Y111811D02*
D03*
Y113779D02*
D03*
Y115748D02*
D03*
Y117717D02*
D03*
Y121653D02*
D03*
Y123622D02*
D03*
Y125591D02*
D03*
Y127559D02*
D03*
Y131496D02*
D03*
Y133465D02*
D03*
Y135433D02*
D03*
Y137402D02*
D03*
X333858Y103937D02*
D03*
Y105905D02*
D03*
Y107874D02*
D03*
Y113779D02*
D03*
Y115748D02*
D03*
Y117717D02*
D03*
Y123622D02*
D03*
Y125591D02*
D03*
Y127559D02*
D03*
Y133465D02*
D03*
Y135433D02*
D03*
Y137402D02*
D03*
X355906Y50787D02*
D03*
Y52756D02*
D03*
Y54724D02*
D03*
Y56693D02*
D03*
Y60630D02*
D03*
Y62598D02*
D03*
Y64567D02*
D03*
Y66535D02*
D03*
Y70473D02*
D03*
Y72441D02*
D03*
Y74410D02*
D03*
Y76378D02*
D03*
Y80315D02*
D03*
Y82284D02*
D03*
Y84252D02*
D03*
Y86221D02*
D03*
X333858Y52756D02*
D03*
Y54724D02*
D03*
Y56693D02*
D03*
Y62598D02*
D03*
Y64567D02*
D03*
Y66535D02*
D03*
Y72441D02*
D03*
Y74410D02*
D03*
Y76378D02*
D03*
Y82284D02*
D03*
Y84252D02*
D03*
Y86221D02*
D03*
D28*
X104232Y105138D02*
D03*
Y100138D02*
D03*
Y95138D02*
D03*
Y90138D02*
D03*
X125689Y105138D02*
D03*
Y100138D02*
D03*
Y95138D02*
D03*
Y90138D02*
D03*
D29*
X132677Y107312D02*
D03*
Y100562D02*
D03*
D30*
X131378Y95276D02*
D03*
X137126D02*
D03*
X131378Y90158D02*
D03*
X137126D02*
D03*
X98543Y105118D02*
D03*
X92795D02*
D03*
X98543Y100000D02*
D03*
X92795D02*
D03*
X6417Y128740D02*
D03*
X669D02*
D03*
X37284Y364961D02*
D03*
X43031D02*
D03*
Y359055D02*
D03*
X37284D02*
D03*
X37284Y353150D02*
D03*
X43031D02*
D03*
X65630Y231102D02*
D03*
X71378D02*
D03*
X65630Y236221D02*
D03*
X71378D02*
D03*
Y241339D02*
D03*
X65630D02*
D03*
X253268Y209842D02*
D03*
X247520D02*
D03*
X250118Y215354D02*
D03*
X244370D02*
D03*
X253268Y314173D02*
D03*
X247520D02*
D03*
X250118Y319685D02*
D03*
X244370D02*
D03*
X253268Y109449D02*
D03*
X247520D02*
D03*
X250118Y114961D02*
D03*
X244370D02*
D03*
D31*
X318504Y174173D02*
D03*
Y177795D02*
D03*
X318504Y306850D02*
D03*
Y310472D02*
D03*
X318504Y341181D02*
D03*
Y337559D02*
D03*
X318504Y330945D02*
D03*
Y327323D02*
D03*
X318504Y320709D02*
D03*
Y317087D02*
D03*
X318504Y290394D02*
D03*
Y286772D02*
D03*
Y280157D02*
D03*
Y276536D02*
D03*
X318504Y269921D02*
D03*
Y266299D02*
D03*
X318504Y259685D02*
D03*
Y256063D02*
D03*
Y239213D02*
D03*
Y235591D02*
D03*
Y228976D02*
D03*
Y225354D02*
D03*
X318504Y218740D02*
D03*
Y215118D02*
D03*
Y208504D02*
D03*
Y204882D02*
D03*
X318504Y188031D02*
D03*
Y184409D02*
D03*
X318504Y167559D02*
D03*
Y163937D02*
D03*
X318504Y157323D02*
D03*
Y153701D02*
D03*
X318504Y136850D02*
D03*
Y133228D02*
D03*
X318504Y126614D02*
D03*
Y122992D02*
D03*
X318504Y116378D02*
D03*
Y112756D02*
D03*
X318504Y106142D02*
D03*
Y102520D02*
D03*
X318504Y85669D02*
D03*
Y82047D02*
D03*
X318504Y75433D02*
D03*
Y71811D02*
D03*
X318504Y65197D02*
D03*
Y61575D02*
D03*
X318504Y54961D02*
D03*
Y51339D02*
D03*
X373622Y344724D02*
D03*
Y341102D02*
D03*
Y293543D02*
D03*
Y289921D02*
D03*
Y242362D02*
D03*
Y238740D02*
D03*
Y191181D02*
D03*
Y187559D02*
D03*
Y140000D02*
D03*
Y136378D02*
D03*
Y88819D02*
D03*
Y85197D02*
D03*
Y324252D02*
D03*
Y320630D02*
D03*
Y273071D02*
D03*
Y269449D02*
D03*
Y221890D02*
D03*
Y218268D02*
D03*
Y170709D02*
D03*
Y167087D02*
D03*
Y119528D02*
D03*
Y115905D02*
D03*
Y68347D02*
D03*
Y64724D02*
D03*
X373622Y334409D02*
D03*
Y338032D02*
D03*
Y283228D02*
D03*
Y286850D02*
D03*
Y232047D02*
D03*
Y235669D02*
D03*
Y180866D02*
D03*
Y184488D02*
D03*
Y129685D02*
D03*
Y133307D02*
D03*
Y78504D02*
D03*
Y82126D02*
D03*
Y313937D02*
D03*
Y317559D02*
D03*
Y262756D02*
D03*
Y266378D02*
D03*
Y211575D02*
D03*
Y215197D02*
D03*
Y160394D02*
D03*
Y164016D02*
D03*
Y109213D02*
D03*
Y112835D02*
D03*
Y58031D02*
D03*
Y61654D02*
D03*
X363386Y334488D02*
D03*
Y330866D02*
D03*
Y283307D02*
D03*
Y279685D02*
D03*
Y232126D02*
D03*
Y228504D02*
D03*
Y180945D02*
D03*
Y177323D02*
D03*
Y129764D02*
D03*
Y126142D02*
D03*
Y78583D02*
D03*
Y74961D02*
D03*
Y314016D02*
D03*
Y310394D02*
D03*
Y262835D02*
D03*
Y259213D02*
D03*
Y211654D02*
D03*
Y208032D02*
D03*
Y160472D02*
D03*
Y156850D02*
D03*
Y109291D02*
D03*
Y105669D02*
D03*
Y58110D02*
D03*
Y54488D02*
D03*
X363386Y324173D02*
D03*
Y327795D02*
D03*
Y272992D02*
D03*
Y276614D02*
D03*
Y221811D02*
D03*
Y225433D02*
D03*
Y170630D02*
D03*
Y174252D02*
D03*
Y119449D02*
D03*
Y123071D02*
D03*
Y68268D02*
D03*
Y71890D02*
D03*
Y303701D02*
D03*
Y307323D02*
D03*
Y252520D02*
D03*
Y256142D02*
D03*
Y201339D02*
D03*
Y204961D02*
D03*
Y150157D02*
D03*
Y153779D02*
D03*
Y98976D02*
D03*
Y102598D02*
D03*
Y47795D02*
D03*
Y51417D02*
D03*
D32*
X321890Y177953D02*
D03*
X325354D02*
D03*
X321890Y174016D02*
D03*
X325354D02*
D03*
X321890Y310630D02*
D03*
X325354D02*
D03*
X321890Y306693D02*
D03*
X325354D02*
D03*
X421102Y216535D02*
D03*
X424567D02*
D03*
X421102Y205512D02*
D03*
X424567D02*
D03*
X421102Y237795D02*
D03*
X424567D02*
D03*
X421102Y226772D02*
D03*
X424567D02*
D03*
X421102Y268110D02*
D03*
X424567D02*
D03*
X421102Y257087D02*
D03*
X424567D02*
D03*
X421102Y289370D02*
D03*
X424567D02*
D03*
X421102Y278346D02*
D03*
X424567D02*
D03*
X421102Y319291D02*
D03*
X424567D02*
D03*
X421102Y308268D02*
D03*
X424567D02*
D03*
X421102Y340551D02*
D03*
X424567D02*
D03*
X421102Y329528D02*
D03*
X424567D02*
D03*
Y186614D02*
D03*
X421102D02*
D03*
X424567Y175591D02*
D03*
X421102D02*
D03*
X424567Y165354D02*
D03*
X421102D02*
D03*
X424567Y154331D02*
D03*
X421102D02*
D03*
X-2520Y240551D02*
D03*
X945D02*
D03*
X-2520Y237008D02*
D03*
X945D02*
D03*
X-2520Y244094D02*
D03*
X945D02*
D03*
X228504Y272047D02*
D03*
X225039D02*
D03*
X228504Y167717D02*
D03*
X225039D02*
D03*
X228898Y67323D02*
D03*
X225433D02*
D03*
X945Y230315D02*
D03*
X-2520D02*
D03*
X945Y217323D02*
D03*
X-2520D02*
D03*
X945Y226772D02*
D03*
X-2520D02*
D03*
X945Y213779D02*
D03*
X-2520D02*
D03*
X945Y223228D02*
D03*
X-2520D02*
D03*
X945Y210236D02*
D03*
X-2520D02*
D03*
X228504Y275590D02*
D03*
X225039D02*
D03*
X228504Y171260D02*
D03*
X225039D02*
D03*
X228898Y70866D02*
D03*
X225433D02*
D03*
X421102Y51968D02*
D03*
X424567D02*
D03*
X421102Y62992D02*
D03*
X424567D02*
D03*
X325354Y341339D02*
D03*
X321890D02*
D03*
X325354Y331102D02*
D03*
X321890D02*
D03*
X325354Y320866D02*
D03*
X321890D02*
D03*
X325354Y290551D02*
D03*
X321890D02*
D03*
X325354Y280315D02*
D03*
X321890D02*
D03*
X325354Y270079D02*
D03*
X321890D02*
D03*
X325354Y259842D02*
D03*
X321890D02*
D03*
X325354Y239370D02*
D03*
X321890D02*
D03*
X325354Y229134D02*
D03*
X321890D02*
D03*
X325354Y218898D02*
D03*
X321890D02*
D03*
X325354Y208661D02*
D03*
X321890D02*
D03*
X325354Y188189D02*
D03*
X321890D02*
D03*
X325354Y167717D02*
D03*
X321890D02*
D03*
X325354Y157480D02*
D03*
X321890D02*
D03*
X325354Y137008D02*
D03*
X321890D02*
D03*
X325354Y126772D02*
D03*
X321890D02*
D03*
X325354Y116535D02*
D03*
X321890D02*
D03*
X325354Y106299D02*
D03*
X321890D02*
D03*
X325354Y85827D02*
D03*
X321890D02*
D03*
X325354Y75591D02*
D03*
X321890D02*
D03*
X325354Y65354D02*
D03*
X321890D02*
D03*
X325354Y55118D02*
D03*
X321890D02*
D03*
X325354Y337402D02*
D03*
X321890D02*
D03*
X325354Y327165D02*
D03*
X321890D02*
D03*
X325354Y316929D02*
D03*
X321890D02*
D03*
X325354Y286614D02*
D03*
X321890D02*
D03*
X325354Y276378D02*
D03*
X321890D02*
D03*
X325354Y266142D02*
D03*
X321890D02*
D03*
X325354Y255906D02*
D03*
X321890D02*
D03*
X325354Y235433D02*
D03*
X321890D02*
D03*
X325354Y225197D02*
D03*
X321890D02*
D03*
X325354Y214961D02*
D03*
X321890D02*
D03*
X325354Y204724D02*
D03*
X321890D02*
D03*
X325354Y184252D02*
D03*
X321890D02*
D03*
X325354Y163779D02*
D03*
X321890D02*
D03*
X325354Y153543D02*
D03*
X321890D02*
D03*
X325354Y133071D02*
D03*
X321890D02*
D03*
X325354Y122835D02*
D03*
X321890D02*
D03*
X325354Y112598D02*
D03*
X321890D02*
D03*
X325354Y102362D02*
D03*
X321890D02*
D03*
X325354Y81890D02*
D03*
X321890D02*
D03*
X325354Y71653D02*
D03*
X321890D02*
D03*
X325354Y61417D02*
D03*
X321890D02*
D03*
X325354Y51181D02*
D03*
X321890D02*
D03*
X370315Y327559D02*
D03*
X373780D02*
D03*
X370315Y307087D02*
D03*
X373780D02*
D03*
X370315Y331102D02*
D03*
X373780D02*
D03*
X370315Y310630D02*
D03*
X373780D02*
D03*
X380551Y337795D02*
D03*
X384016D02*
D03*
X380551Y317323D02*
D03*
X384016D02*
D03*
X380551Y341339D02*
D03*
X384016D02*
D03*
X380551Y320866D02*
D03*
X384016D02*
D03*
X370315Y276378D02*
D03*
X373780D02*
D03*
X370315Y255906D02*
D03*
X373780D02*
D03*
X370315Y279921D02*
D03*
X373780D02*
D03*
X370315Y259449D02*
D03*
X373780D02*
D03*
X380551Y286614D02*
D03*
X384016D02*
D03*
X380551Y266142D02*
D03*
X384016D02*
D03*
X380551Y290158D02*
D03*
X384016D02*
D03*
X380551Y269685D02*
D03*
X384016D02*
D03*
X370315Y225197D02*
D03*
X373780D02*
D03*
X370315Y204724D02*
D03*
X373780D02*
D03*
X370315Y228740D02*
D03*
X373780D02*
D03*
X370315Y208268D02*
D03*
X373780D02*
D03*
X380551Y235433D02*
D03*
X384016D02*
D03*
X380551Y214961D02*
D03*
X384016D02*
D03*
X380551Y238976D02*
D03*
X384016D02*
D03*
X380551Y218504D02*
D03*
X384016D02*
D03*
X370315Y174016D02*
D03*
X373780D02*
D03*
X370315Y153543D02*
D03*
X373780D02*
D03*
X370315Y177559D02*
D03*
X373780D02*
D03*
X370315Y157087D02*
D03*
X373780D02*
D03*
X380551Y184252D02*
D03*
X384016D02*
D03*
X380551Y163779D02*
D03*
X384016D02*
D03*
X380551Y187795D02*
D03*
X384016D02*
D03*
X380551Y167323D02*
D03*
X384016D02*
D03*
X424567Y124409D02*
D03*
X421102D02*
D03*
X424567Y135433D02*
D03*
X421102D02*
D03*
X424567Y103150D02*
D03*
X421102D02*
D03*
X424567Y114173D02*
D03*
X421102D02*
D03*
X370315Y122835D02*
D03*
X373780D02*
D03*
X370315Y102362D02*
D03*
X373780D02*
D03*
X370315Y126378D02*
D03*
X373780D02*
D03*
X370315Y105905D02*
D03*
X373780D02*
D03*
X380551Y133071D02*
D03*
X384016D02*
D03*
X380551Y112598D02*
D03*
X384016D02*
D03*
X380551Y136614D02*
D03*
X384016D02*
D03*
X380551Y116142D02*
D03*
X384016D02*
D03*
X424567Y73228D02*
D03*
X421102D02*
D03*
X424567Y84252D02*
D03*
X421102D02*
D03*
X370315Y71654D02*
D03*
X373780D02*
D03*
X370315Y51181D02*
D03*
X373780D02*
D03*
X370315Y75197D02*
D03*
X373780D02*
D03*
X370315Y54724D02*
D03*
X373780D02*
D03*
X380551Y81890D02*
D03*
X384016D02*
D03*
X380551Y61417D02*
D03*
X384016D02*
D03*
X380551Y85433D02*
D03*
X384016D02*
D03*
X380551Y64961D02*
D03*
X384016D02*
D03*
D33*
X397833Y214862D02*
D03*
Y236122D02*
D03*
Y266437D02*
D03*
Y287697D02*
D03*
Y317618D02*
D03*
Y338878D02*
D03*
Y184941D02*
D03*
Y163681D02*
D03*
X397833Y133760D02*
D03*
Y82579D02*
D03*
Y112500D02*
D03*
Y61319D02*
D03*
D34*
X437106Y207087D02*
D03*
Y214961D02*
D03*
X429036Y211024D02*
D03*
X437106Y228346D02*
D03*
Y236221D02*
D03*
X429036Y232283D02*
D03*
X437106Y258661D02*
D03*
Y266535D02*
D03*
X429036Y262598D02*
D03*
X437106Y279921D02*
D03*
Y287795D02*
D03*
X429036Y283858D02*
D03*
X437106Y309842D02*
D03*
Y317717D02*
D03*
X429036Y313779D02*
D03*
X437106Y331102D02*
D03*
Y338976D02*
D03*
X429036Y335039D02*
D03*
X437106Y177165D02*
D03*
Y185039D02*
D03*
X429036Y181102D02*
D03*
X437106Y155905D02*
D03*
Y163779D02*
D03*
X429036Y159843D02*
D03*
X437106Y53543D02*
D03*
Y61417D02*
D03*
X429036Y57480D02*
D03*
Y129921D02*
D03*
X437106Y133858D02*
D03*
Y125984D02*
D03*
X429036Y108661D02*
D03*
X437106Y112598D02*
D03*
Y104724D02*
D03*
X429036Y78740D02*
D03*
X437106Y82677D02*
D03*
Y74803D02*
D03*
D35*
X17658Y95531D02*
D03*
Y111555D02*
D03*
X22658Y95531D02*
D03*
Y111555D02*
D03*
X27657Y95531D02*
D03*
Y111555D02*
D03*
X32658Y95531D02*
D03*
Y111555D02*
D03*
X37657Y95531D02*
D03*
Y111555D02*
D03*
X42658Y95531D02*
D03*
Y111555D02*
D03*
X47657Y95531D02*
D03*
Y111555D02*
D03*
X52658Y95531D02*
D03*
Y111555D02*
D03*
X57657Y95531D02*
D03*
Y111555D02*
D03*
X62657Y95531D02*
D03*
Y111555D02*
D03*
D36*
X162992Y212992D02*
D03*
D37*
X159153Y204724D02*
D03*
X161713D02*
D03*
X164272D02*
D03*
X166831D02*
D03*
X159153Y221260D02*
D03*
X161713D02*
D03*
X164272D02*
D03*
X166831D02*
D03*
D38*
X104331Y236732D02*
D03*
Y230984D02*
D03*
X139370Y211804D02*
D03*
Y206056D02*
D03*
X75984Y359173D02*
D03*
Y353425D02*
D03*
X111024Y333583D02*
D03*
Y327835D02*
D03*
X157480Y227441D02*
D03*
Y233189D02*
D03*
X153150Y217992D02*
D03*
Y223740D02*
D03*
D39*
X96063Y223327D02*
D03*
Y225886D02*
D03*
Y228445D02*
D03*
Y231004D02*
D03*
X78740Y223327D02*
D03*
Y225886D02*
D03*
Y228445D02*
D03*
Y231004D02*
D03*
X50394Y353051D02*
D03*
Y350492D02*
D03*
Y347933D02*
D03*
Y345374D02*
D03*
X67716Y353051D02*
D03*
Y350492D02*
D03*
Y347933D02*
D03*
Y345374D02*
D03*
D40*
X94488Y200000D02*
D03*
Y188976D02*
D03*
X66142Y322047D02*
D03*
Y311024D02*
D03*
D41*
X79921Y237008D02*
D03*
X85433D02*
D03*
X67716Y287795D02*
D03*
X73228D02*
D03*
X51575Y359055D02*
D03*
X57087D02*
D03*
D42*
X95866Y212598D02*
D03*
X78937D02*
D03*
X67520Y334646D02*
D03*
X50591D02*
D03*
D43*
X139370Y199606D02*
D03*
Y194095D02*
D03*
X111024Y316142D02*
D03*
Y321654D02*
D03*
X232677Y201969D02*
D03*
Y207480D02*
D03*
Y306299D02*
D03*
Y311811D02*
D03*
Y107087D02*
D03*
Y101575D02*
D03*
X104331Y221654D02*
D03*
Y227165D02*
D03*
X94095Y259449D02*
D03*
Y264961D02*
D03*
X75984Y349213D02*
D03*
Y343701D02*
D03*
D44*
X52559Y191339D02*
D03*
X63976D02*
D03*
X52559Y200787D02*
D03*
X63976D02*
D03*
X52559Y210236D02*
D03*
X63976D02*
D03*
X24213Y332283D02*
D03*
X35630D02*
D03*
X24213Y322835D02*
D03*
X35630D02*
D03*
X24213Y313386D02*
D03*
X35630D02*
D03*
X475394Y17323D02*
D03*
X463976D02*
D03*
D45*
X118898Y190945D02*
D03*
Y213779D02*
D03*
X90551Y335827D02*
D03*
Y312992D02*
D03*
D46*
X259193Y291929D02*
D03*
Y293898D02*
D03*
Y295866D02*
D03*
Y297835D02*
D03*
Y299803D02*
D03*
Y301772D02*
D03*
Y303740D02*
D03*
Y305709D02*
D03*
X240020D02*
D03*
Y303740D02*
D03*
Y301772D02*
D03*
Y299803D02*
D03*
Y297835D02*
D03*
Y295866D02*
D03*
Y293898D02*
D03*
Y291929D02*
D03*
X259193Y187598D02*
D03*
Y189567D02*
D03*
Y191535D02*
D03*
Y193504D02*
D03*
Y195472D02*
D03*
Y197441D02*
D03*
Y199409D02*
D03*
Y201378D02*
D03*
X240020D02*
D03*
Y199409D02*
D03*
Y197441D02*
D03*
Y195472D02*
D03*
Y193504D02*
D03*
Y191535D02*
D03*
Y189567D02*
D03*
Y187598D02*
D03*
Y87205D02*
D03*
Y89173D02*
D03*
Y91142D02*
D03*
Y93110D02*
D03*
Y95079D02*
D03*
Y97047D02*
D03*
Y99016D02*
D03*
Y100984D02*
D03*
X259193D02*
D03*
Y99016D02*
D03*
Y97047D02*
D03*
Y95079D02*
D03*
Y93110D02*
D03*
Y91142D02*
D03*
Y89173D02*
D03*
Y87205D02*
D03*
D47*
X256496Y308405D02*
D03*
X254528D02*
D03*
X252559D02*
D03*
X250590D02*
D03*
X248622D02*
D03*
X246654D02*
D03*
X244685D02*
D03*
X242717D02*
D03*
Y289232D02*
D03*
X244685D02*
D03*
X246654D02*
D03*
X248622D02*
D03*
X250590D02*
D03*
X252559D02*
D03*
X254528D02*
D03*
X256496D02*
D03*
Y204075D02*
D03*
X254528D02*
D03*
X252559D02*
D03*
X250590D02*
D03*
X248622D02*
D03*
X246654D02*
D03*
X244685D02*
D03*
X242717D02*
D03*
Y184902D02*
D03*
X244685D02*
D03*
X246654D02*
D03*
X248622D02*
D03*
X250590D02*
D03*
X252559D02*
D03*
X254528D02*
D03*
X256496D02*
D03*
Y84508D02*
D03*
X254528D02*
D03*
X252559D02*
D03*
X250590D02*
D03*
X248622D02*
D03*
X246654D02*
D03*
X244685D02*
D03*
X242717D02*
D03*
Y103681D02*
D03*
X244685D02*
D03*
X246654D02*
D03*
X248622D02*
D03*
X250590D02*
D03*
X252559D02*
D03*
X254528D02*
D03*
X256496D02*
D03*
D48*
X249606Y298819D02*
D03*
Y194488D02*
D03*
Y94095D02*
D03*
D49*
X168898Y240945D02*
D03*
Y233858D02*
D03*
X173228Y191339D02*
D03*
Y184252D02*
D03*
X22441Y304724D02*
D03*
X35827D02*
D03*
Y297638D02*
D03*
X22441D02*
D03*
D50*
X366929Y324252D02*
D03*
Y327716D02*
D03*
Y303780D02*
D03*
Y307244D02*
D03*
Y334409D02*
D03*
Y330945D02*
D03*
Y313937D02*
D03*
Y310472D02*
D03*
X377165Y334488D02*
D03*
Y337953D02*
D03*
Y314016D02*
D03*
Y317480D02*
D03*
Y344646D02*
D03*
Y341181D02*
D03*
Y324173D02*
D03*
Y320709D02*
D03*
X366929Y273071D02*
D03*
Y276535D02*
D03*
Y252598D02*
D03*
Y256063D02*
D03*
Y283228D02*
D03*
Y279764D02*
D03*
Y262756D02*
D03*
Y259291D02*
D03*
X377165Y283307D02*
D03*
Y286772D02*
D03*
Y262835D02*
D03*
Y266299D02*
D03*
Y293465D02*
D03*
Y290000D02*
D03*
Y272992D02*
D03*
Y269528D02*
D03*
X366929Y221890D02*
D03*
Y225354D02*
D03*
Y201417D02*
D03*
Y204882D02*
D03*
Y232047D02*
D03*
Y228583D02*
D03*
Y211575D02*
D03*
Y208110D02*
D03*
X377165Y232126D02*
D03*
Y235591D02*
D03*
Y211654D02*
D03*
Y215118D02*
D03*
Y242284D02*
D03*
Y238819D02*
D03*
Y221811D02*
D03*
Y218347D02*
D03*
X366929Y170709D02*
D03*
Y174173D02*
D03*
Y150236D02*
D03*
Y153701D02*
D03*
Y180866D02*
D03*
Y177402D02*
D03*
Y160394D02*
D03*
Y156929D02*
D03*
X377165Y180945D02*
D03*
Y184409D02*
D03*
Y160473D02*
D03*
Y163937D02*
D03*
Y191102D02*
D03*
Y187638D02*
D03*
Y170630D02*
D03*
Y167165D02*
D03*
X366929Y119528D02*
D03*
Y122992D02*
D03*
Y99055D02*
D03*
Y102520D02*
D03*
Y129685D02*
D03*
Y126221D02*
D03*
Y109213D02*
D03*
Y105748D02*
D03*
X377165Y129764D02*
D03*
Y133228D02*
D03*
Y109291D02*
D03*
Y112756D02*
D03*
Y139921D02*
D03*
Y136457D02*
D03*
Y119449D02*
D03*
Y115984D02*
D03*
X366929Y68347D02*
D03*
Y71811D02*
D03*
Y47874D02*
D03*
Y51339D02*
D03*
Y78504D02*
D03*
Y75039D02*
D03*
Y58031D02*
D03*
Y54567D02*
D03*
X377165Y78583D02*
D03*
Y82047D02*
D03*
Y58110D02*
D03*
Y61575D02*
D03*
Y88740D02*
D03*
Y85276D02*
D03*
Y68268D02*
D03*
Y64803D02*
D03*
D51*
X548228Y376378D02*
D03*
Y17323D02*
D03*
D52*
X464173Y26772D02*
D03*
X475197D02*
D03*
D53*
X85827Y279528D02*
D03*
X76772D02*
D03*
X67716D02*
D03*
D54*
X76772Y256693D02*
D03*
D55*
X-48976Y264567D02*
D03*
Y261417D02*
D03*
Y258268D02*
D03*
Y255118D02*
D03*
Y251969D02*
D03*
Y248819D02*
D03*
Y245669D02*
D03*
Y242520D02*
D03*
Y239370D02*
D03*
Y236221D02*
D03*
Y233071D02*
D03*
Y229921D02*
D03*
Y226772D02*
D03*
Y223622D02*
D03*
Y220472D02*
D03*
Y217323D02*
D03*
Y214173D02*
D03*
Y211024D02*
D03*
Y207874D02*
D03*
Y204724D02*
D03*
Y201575D02*
D03*
Y198425D02*
D03*
Y182677D02*
D03*
Y179528D02*
D03*
Y176378D02*
D03*
Y173228D02*
D03*
Y170079D02*
D03*
Y166929D02*
D03*
Y163779D02*
D03*
Y160630D02*
D03*
Y157480D02*
D03*
Y154331D02*
D03*
Y151181D02*
D03*
Y148031D02*
D03*
Y144882D02*
D03*
Y141732D02*
D03*
Y138583D02*
D03*
Y135433D02*
D03*
Y132283D02*
D03*
Y129134D02*
D03*
D56*
X21973Y278174D02*
D03*
X33784D02*
D03*
D57*
X21973Y285753D02*
D03*
X36294D02*
D03*
D58*
X172047Y354528D02*
D03*
Y362008D02*
D03*
X181496D02*
D03*
Y358268D02*
D03*
Y354528D02*
D03*
D59*
X117323Y253150D02*
D03*
X123622D02*
D03*
X79921Y298819D02*
D03*
X86221D02*
D03*
D60*
X11024Y297244D02*
D03*
Y303543D02*
D03*
D61*
X110433Y253150D02*
D03*
X105315D02*
D03*
X73032Y298819D02*
D03*
X67913D02*
D03*
D62*
X11024Y290354D02*
D03*
Y285236D02*
D03*
M02*
