G04*
G04 #@! TF.GenerationSoftware,Altium Limited,Altium Designer,24.1.2 (44)*
G04*
G04 Layer_Physical_Order=4*
G04 Layer_Color=6736896*
%FSLAX25Y25*%
%MOIN*%
G70*
G04*
G04 #@! TF.SameCoordinates,0B70BC78-7133-40EF-B392-14414780638A*
G04*
G04*
G04 #@! TF.FilePolarity,Positive*
G04*
G01*
G75*
%ADD116C,0.02362*%
G36*
X210516Y347638D02*
X225590Y332251D01*
Y305512D01*
X221654D01*
Y328740D01*
X208661Y341732D01*
X175197D01*
Y347638D01*
X210516Y347638D01*
D02*
G37*
G36*
X347229Y251181D02*
X343307D01*
Y352362D01*
X347229D01*
Y251181D01*
D02*
G37*
G36*
Y148819D02*
X343307D01*
Y248819D01*
X347229D01*
Y148819D01*
D02*
G37*
G36*
Y46457D02*
X343307D01*
Y146457D01*
X347229D01*
Y46457D01*
D02*
G37*
G36*
X353543Y46063D02*
X348031D01*
Y358268D01*
X353543D01*
Y46063D01*
D02*
G37*
D116*
X224148Y310893D02*
D03*
X345276Y247244D02*
D03*
Y144882D02*
D03*
X177165Y346063D02*
D03*
Y343307D02*
D03*
X345276Y79331D02*
D03*
Y69488D02*
D03*
Y59646D02*
D03*
Y48819D02*
D03*
Y100000D02*
D03*
Y110827D02*
D03*
Y120669D02*
D03*
Y130512D02*
D03*
Y151181D02*
D03*
Y162008D02*
D03*
Y171850D02*
D03*
Y181693D02*
D03*
Y202362D02*
D03*
Y213189D02*
D03*
Y223031D02*
D03*
Y232874D02*
D03*
Y253543D02*
D03*
Y264370D02*
D03*
Y274213D02*
D03*
Y284055D02*
D03*
Y304724D02*
D03*
Y315551D02*
D03*
Y325394D02*
D03*
Y335236D02*
D03*
Y350000D02*
D03*
X351969Y356693D02*
D03*
X349606D02*
D03*
X349606Y332284D02*
D03*
Y342126D02*
D03*
X349577Y321469D02*
D03*
X349606Y311417D02*
D03*
X349606Y281103D02*
D03*
Y290945D02*
D03*
X349577Y270288D02*
D03*
X349606Y260236D02*
D03*
X349606Y229922D02*
D03*
Y239764D02*
D03*
X349577Y219107D02*
D03*
X349606Y209055D02*
D03*
X349606Y178740D02*
D03*
Y188583D02*
D03*
X349577Y167926D02*
D03*
X349606Y157874D02*
D03*
X349606Y127559D02*
D03*
Y137402D02*
D03*
X349577Y116744D02*
D03*
X349606Y106693D02*
D03*
Y55512D02*
D03*
X349577Y65563D02*
D03*
X349606Y86221D02*
D03*
Y76378D02*
D03*
X224148Y307350D02*
D03*
M02*
