G04*
G04 #@! TF.GenerationSoftware,Altium Limited,Altium Designer,25.6.2 (33)*
G04*
G04 Layer_Physical_Order=5*
G04 Layer_Color=16737945*
%FSLAX25Y25*%
%MOIN*%
G70*
G04*
G04 #@! TF.SameCoordinates,10163D42-10C9-4D92-95DA-64D600520AAF*
G04*
G04*
G04 #@! TF.FilePolarity,Positive*
G04*
G01*
G75*
%ADD122C,0.02362*%
%ADD123C,0.01575*%
G36*
X448032Y342126D02*
X448032D01*
Y33563D01*
X447572Y33465D01*
X249606D01*
Y87402D01*
X242913D01*
Y92126D01*
X236614D01*
X233465Y88976D01*
X220472D01*
Y161417D01*
X249606D01*
Y187795D01*
X242913D01*
Y192913D01*
X236221D01*
X233071Y189764D01*
X220472D01*
Y265748D01*
X249606D01*
Y292126D01*
X242913D01*
Y297244D01*
X237008D01*
X233858Y294094D01*
X218504D01*
X205421Y281496D01*
X187429D01*
X186942Y281984D01*
X186218Y282283D01*
X185435D01*
X184712Y281984D01*
X184252Y281524D01*
X183792Y281984D01*
X183069Y282283D01*
X182286D01*
X181602Y282000D01*
X181102Y282177D01*
Y310235D01*
X181105Y310236D01*
X181888D01*
X182611Y310536D01*
X183165Y311090D01*
X183465Y311813D01*
Y312596D01*
X183165Y313320D01*
X182611Y313874D01*
X182491Y313923D01*
Y314423D01*
X182611Y314473D01*
X183165Y315027D01*
X183465Y315750D01*
Y316533D01*
X183165Y317257D01*
X182611Y317811D01*
X181888Y318110D01*
X181105D01*
X181102Y318112D01*
Y320079D01*
X136574D01*
X136475Y320579D01*
X136942Y320772D01*
X137496Y321326D01*
X137795Y322049D01*
Y322832D01*
X137496Y323556D01*
X136942Y324110D01*
X136218Y324409D01*
X135435D01*
X134712Y324110D01*
X134252Y323650D01*
X133792Y324110D01*
X133069Y324409D01*
X132286D01*
X131788Y324203D01*
X131405Y324586D01*
X131496Y324805D01*
Y325588D01*
X131196Y326312D01*
X130643Y326866D01*
X129919Y327165D01*
X129136D01*
X128412Y326866D01*
X127859Y326312D01*
X127559Y325588D01*
Y324805D01*
X127859Y324082D01*
X128122Y323819D01*
X127859Y323556D01*
X127559Y322832D01*
Y322049D01*
X127859Y321326D01*
X128412Y320772D01*
X128879Y320579D01*
X128780Y320079D01*
X124016D01*
Y377953D01*
X153759D01*
X153966Y377453D01*
X153783Y377270D01*
X153543Y376691D01*
Y376065D01*
X153783Y375486D01*
X154226Y375043D01*
X154805Y374803D01*
X155431D01*
X156010Y375043D01*
X156453Y375486D01*
X156693Y376065D01*
Y376691D01*
X156453Y377270D01*
X156270Y377453D01*
X156477Y377953D01*
X157696D01*
X157903Y377453D01*
X157720Y377270D01*
X157480Y376691D01*
Y376065D01*
X157720Y375486D01*
X158163Y375043D01*
X158742Y374803D01*
X159368D01*
X159947Y375043D01*
X160390Y375486D01*
X160630Y376065D01*
Y376691D01*
X160390Y377270D01*
X160207Y377453D01*
X160415Y377953D01*
X448032D01*
Y342126D01*
D02*
G37*
G36*
X122047Y319701D02*
X114989D01*
X114681Y319639D01*
X114464Y319494D01*
X114011Y319307D01*
X113548D01*
X113095Y319494D01*
X112878Y319639D01*
X112570Y319701D01*
X84978D01*
X84671Y319639D01*
X84411Y319465D01*
X84237Y319205D01*
X84175Y318898D01*
Y226960D01*
X84191Y226883D01*
Y226804D01*
X84221Y226731D01*
X84237Y226653D01*
X84281Y226588D01*
X84311Y226515D01*
X84367Y226459D01*
X84411Y226393D01*
X84476Y226349D01*
X84532Y226293D01*
X85032Y225959D01*
X85105Y225929D01*
X85171Y225885D01*
X85249Y225869D01*
X85322Y225839D01*
X85401D01*
X85478Y225824D01*
X85556Y225839D01*
X85635D01*
X85708Y225869D01*
X85786Y225885D01*
X85989Y225969D01*
X86452D01*
X86881Y225791D01*
X87209Y225463D01*
X87386Y225035D01*
Y224571D01*
X87183Y224082D01*
X87081Y223929D01*
X87081Y223929D01*
X87081Y223929D01*
X87020Y223622D01*
X87065Y223397D01*
X87081Y223315D01*
X87081Y223315D01*
X87082Y223315D01*
X87183Y223162D01*
X87386Y222673D01*
Y222209D01*
X87209Y221781D01*
X86881Y221453D01*
X86452Y221275D01*
X85989D01*
X85560Y221453D01*
X85185Y221828D01*
X84925Y222002D01*
X84618Y222063D01*
X72008D01*
X71930Y222047D01*
X71851D01*
X71778Y222017D01*
X71700Y222002D01*
X71635Y221958D01*
X71561Y221927D01*
X71321Y221878D01*
X71199D01*
X70958Y221927D01*
X70885Y221958D01*
X70819Y222002D01*
X70742Y222017D01*
X70669Y222047D01*
X70590D01*
X70512Y222063D01*
X68110D01*
X67803Y222002D01*
X67543Y221828D01*
X67369Y221567D01*
X67307Y221260D01*
Y213600D01*
X67323Y213523D01*
Y213443D01*
X67353Y213370D01*
X67369Y213293D01*
X67413Y213227D01*
X67443Y213154D01*
X67499Y213098D01*
X67543Y213032D01*
X67608Y212988D01*
X67664Y212932D01*
X68164Y212598D01*
X68237Y212568D01*
X68303Y212524D01*
X68381Y212509D01*
X68454Y212478D01*
X68533D01*
X68610Y212463D01*
X68688Y212478D01*
X68767D01*
X68840Y212509D01*
X68918Y212524D01*
X69059Y212583D01*
X69523D01*
X69952Y212405D01*
X70169Y212189D01*
X70270Y212121D01*
X70365Y212044D01*
X70692Y211874D01*
X70760Y211854D01*
X70822Y211820D01*
X70909Y211811D01*
X70993Y211786D01*
X71063Y211794D01*
X71133Y211786D01*
X71217Y211811D01*
X71304Y211820D01*
X71366Y211854D01*
X71434Y211874D01*
X71761Y212044D01*
X71856Y212121D01*
X71957Y212189D01*
X72174Y212405D01*
X72603Y212583D01*
X73067D01*
X73495Y212405D01*
X73842Y212059D01*
X74102Y211885D01*
X74410Y211824D01*
X74717Y211885D01*
X74977Y212059D01*
X74977Y212059D01*
X75324Y212405D01*
X75752Y212583D01*
X76216D01*
X76644Y212405D01*
X76973Y212078D01*
X77150Y211649D01*
Y211185D01*
X76973Y210757D01*
X76644Y210429D01*
X76216Y210252D01*
X75752D01*
X75324Y210429D01*
X74977Y210776D01*
X74717Y210950D01*
X74410Y211011D01*
X74102Y210950D01*
X73842Y210776D01*
X73842Y210776D01*
X73495Y210429D01*
X73067Y210252D01*
X72603D01*
X72174Y210429D01*
X71957Y210646D01*
X71856Y210714D01*
X71761Y210790D01*
X71434Y210961D01*
X71366Y210980D01*
X71304Y211014D01*
X71217Y211024D01*
X71133Y211048D01*
X71063Y211041D01*
X70993Y211048D01*
X70909Y211024D01*
X70822Y211014D01*
X70760Y210980D01*
X70692Y210961D01*
X70365Y210790D01*
X70270Y210714D01*
X70169Y210646D01*
X69952Y210429D01*
X69523Y210252D01*
X69059D01*
X68918Y210311D01*
X68840Y210326D01*
X68767Y210356D01*
X68688D01*
X68610Y210372D01*
X68533Y210356D01*
X68454D01*
X68381Y210326D01*
X68303Y210311D01*
X68237Y210266D01*
X68164Y210236D01*
X67664Y209902D01*
X67608Y209846D01*
X67543Y209802D01*
X67499Y209737D01*
X67443Y209681D01*
X67413Y209608D01*
X67369Y209542D01*
X67353Y209464D01*
X67323Y209391D01*
Y209312D01*
X67307Y209235D01*
Y208689D01*
X67307Y208689D01*
X67369Y208382D01*
X67543Y208122D01*
X67543Y208122D01*
X67917Y207747D01*
X68095Y207318D01*
Y206855D01*
X67917Y206426D01*
X67543Y206051D01*
X67369Y205791D01*
X67307Y205484D01*
Y181102D01*
X47244D01*
Y295276D01*
X41339Y301181D01*
X15748D01*
Y377953D01*
X122047D01*
Y319701D01*
D02*
G37*
G36*
X179225Y318537D02*
X179219Y318398D01*
X178777Y318094D01*
X178738Y318110D01*
X177955D01*
X177231Y317811D01*
X176772Y317351D01*
X176312Y317811D01*
X175588Y318110D01*
X174805D01*
X174082Y317811D01*
X173622Y317351D01*
X173162Y317811D01*
X172439Y318110D01*
X171656D01*
X170932Y317811D01*
X170378Y317257D01*
X170079Y316533D01*
Y315750D01*
X170378Y315027D01*
X170932Y314473D01*
X171656Y314173D01*
X172439D01*
X173162Y314473D01*
X173622Y314933D01*
X174082Y314473D01*
X174805Y314173D01*
X175588D01*
X176312Y314473D01*
X176772Y314933D01*
X177231Y314473D01*
X177955Y314173D01*
X178738D01*
X178887Y314235D01*
X179304Y313959D01*
X180143Y205294D01*
X180141Y205292D01*
X179967Y205032D01*
X179906Y204724D01*
Y181102D01*
X68110D01*
Y205484D01*
X68598Y205972D01*
X68898Y206695D01*
Y207478D01*
X68598Y208202D01*
X68110Y208689D01*
Y209235D01*
X68610Y209569D01*
X68900Y209449D01*
X69683D01*
X70406Y209749D01*
X70736Y210078D01*
X71063Y210249D01*
X71390Y210078D01*
X71720Y209749D01*
X72443Y209449D01*
X73226D01*
X73950Y209749D01*
X74410Y210208D01*
X74869Y209749D01*
X75593Y209449D01*
X76376D01*
X77099Y209749D01*
X77653Y210302D01*
X77953Y211026D01*
Y211809D01*
X77653Y212532D01*
X77099Y213086D01*
X76376Y213386D01*
X75593D01*
X74869Y213086D01*
X74410Y212626D01*
X73950Y213086D01*
X73226Y213386D01*
X72443D01*
X71720Y213086D01*
X71390Y212756D01*
X71063Y212586D01*
X70736Y212756D01*
X70406Y213086D01*
X69683Y213386D01*
X68900D01*
X68610Y213266D01*
X68110Y213600D01*
Y221260D01*
X70512D01*
X70612Y220760D01*
X70145Y220567D01*
X69591Y220013D01*
X69291Y219289D01*
Y218506D01*
X69591Y217783D01*
X70145Y217229D01*
X70868Y216929D01*
X71651D01*
X72375Y217229D01*
X72929Y217783D01*
X73228Y218506D01*
Y219289D01*
X72929Y220013D01*
X72375Y220567D01*
X71908Y220760D01*
X72008Y221260D01*
X84618D01*
X85105Y220772D01*
X85829Y220472D01*
X86612D01*
X87335Y220772D01*
X87889Y221326D01*
X88189Y222049D01*
Y222832D01*
X87889Y223556D01*
X87823Y223622D01*
X87889Y223688D01*
X88189Y224412D01*
Y225195D01*
X87889Y225918D01*
X87335Y226472D01*
X86612Y226772D01*
X85829D01*
X85478Y226626D01*
X84978Y226960D01*
Y318898D01*
X112570D01*
X112664Y318804D01*
X113388Y318504D01*
X114171D01*
X114895Y318804D01*
X114989Y318898D01*
X178879D01*
X179225Y318537D01*
D02*
G37*
G36*
X245669Y273622D02*
X219685D01*
X210630Y264567D01*
Y201181D01*
Y172441D01*
X245669D01*
Y168898D01*
X210630D01*
Y72441D01*
X245669D01*
Y68504D01*
X180709D01*
Y204724D01*
X203937D01*
Y264567D01*
X216142Y276772D01*
X245669D01*
Y273622D01*
D02*
G37*
%LPC*%
G36*
X150392Y374016D02*
X149608D01*
X148885Y373716D01*
X148425Y373256D01*
X147966Y373716D01*
X147242Y374016D01*
X146459D01*
X145735Y373716D01*
X145182Y373162D01*
X144882Y372439D01*
Y371656D01*
X145182Y370932D01*
X145735Y370378D01*
X146459Y370079D01*
X147242D01*
X147966Y370378D01*
X148425Y370838D01*
X148885Y370378D01*
X149608Y370079D01*
X150392D01*
X151115Y370378D01*
X151669Y370932D01*
X151969Y371656D01*
Y372439D01*
X151669Y373162D01*
X151115Y373716D01*
X150392Y374016D01*
D02*
G37*
G36*
X135746Y375197D02*
X135120D01*
X134541Y374957D01*
X134098Y374514D01*
X133858Y373935D01*
Y373309D01*
X134098Y372730D01*
X134541Y372287D01*
X135120Y372047D01*
X135746D01*
X136325Y372287D01*
X136768Y372730D01*
X137008Y373309D01*
Y373935D01*
X136768Y374514D01*
X136325Y374957D01*
X135746Y375197D01*
D02*
G37*
G36*
X128660Y374016D02*
X128033D01*
X127454Y373776D01*
X127011Y373333D01*
X126772Y372754D01*
Y372128D01*
X127011Y371549D01*
X127454Y371106D01*
X128033Y370866D01*
X128660D01*
X129238Y371106D01*
X129682Y371549D01*
X129921Y372128D01*
Y372754D01*
X129682Y373333D01*
X129238Y373776D01*
X128660Y374016D01*
D02*
G37*
G36*
X150392Y369291D02*
X149608D01*
X148885Y368992D01*
X148425Y368532D01*
X147966Y368992D01*
X147242Y369291D01*
X146459D01*
X145735Y368992D01*
X145182Y368438D01*
X144882Y367714D01*
Y366931D01*
X145182Y366208D01*
X145735Y365654D01*
X146459Y365354D01*
X147242D01*
X147966Y365654D01*
X148425Y366114D01*
X148885Y365654D01*
X149608Y365354D01*
X150392D01*
X151115Y365654D01*
X151669Y366208D01*
X151969Y366931D01*
Y367714D01*
X151669Y368438D01*
X151115Y368992D01*
X150392Y369291D01*
D02*
G37*
G36*
X128660Y370079D02*
X128033D01*
X127454Y369839D01*
X127011Y369396D01*
X126772Y368817D01*
Y368191D01*
X127011Y367612D01*
X127454Y367169D01*
X128033Y366929D01*
X128660D01*
X129238Y367169D01*
X129682Y367612D01*
X129921Y368191D01*
Y368817D01*
X129682Y369396D01*
X129238Y369839D01*
X128660Y370079D01*
D02*
G37*
G36*
X135746Y367717D02*
X135120D01*
X134541Y367477D01*
X134098Y367034D01*
X133858Y366455D01*
Y365828D01*
X134098Y365250D01*
X134541Y364807D01*
X135120Y364567D01*
X135746D01*
X136325Y364807D01*
X136768Y365250D01*
X137008Y365828D01*
Y366455D01*
X136768Y367034D01*
X136325Y367477D01*
X135746Y367717D01*
D02*
G37*
G36*
X175510Y368898D02*
X174884D01*
X174305Y368658D01*
X173862Y368215D01*
X173622Y367636D01*
Y367010D01*
X173862Y366431D01*
X173954Y366339D01*
X173862Y366246D01*
X173622Y365668D01*
Y365041D01*
X173862Y364462D01*
X174305Y364019D01*
X174884Y363779D01*
X175510D01*
X176089Y364019D01*
X176532Y364462D01*
X176772Y365041D01*
Y365668D01*
X176532Y366246D01*
X176440Y366339D01*
X176532Y366431D01*
X176772Y367010D01*
Y367636D01*
X176532Y368215D01*
X176089Y368658D01*
X175510Y368898D01*
D02*
G37*
G36*
X439607Y375295D02*
X438346D01*
X437110Y375049D01*
X435946Y374567D01*
X434898Y373867D01*
X434007Y372976D01*
X433307Y371928D01*
X432825Y370764D01*
X432579Y369528D01*
Y368267D01*
X432825Y367032D01*
X433307Y365867D01*
X434007Y364819D01*
X434898Y363928D01*
X435946Y363228D01*
X437110Y362746D01*
X438346Y362500D01*
X439607D01*
X440842Y362746D01*
X442007Y363228D01*
X443055Y363928D01*
X443946Y364819D01*
X444646Y365867D01*
X445128Y367032D01*
X445374Y368267D01*
Y369528D01*
X445128Y370764D01*
X444646Y371928D01*
X443946Y372976D01*
X443055Y373867D01*
X442007Y374567D01*
X440842Y375049D01*
X439607Y375295D01*
D02*
G37*
G36*
X352360Y358661D02*
X351577D01*
X350853Y358362D01*
X350787Y358296D01*
X350721Y358362D01*
X349998Y358661D01*
X349215D01*
X348491Y358362D01*
X347937Y357808D01*
X347638Y357084D01*
Y356301D01*
X347937Y355578D01*
X348491Y355024D01*
X349215Y354724D01*
X349998D01*
X350721Y355024D01*
X350787Y355090D01*
X350853Y355024D01*
X351577Y354724D01*
X352360D01*
X353084Y355024D01*
X353637Y355578D01*
X353937Y356301D01*
Y357084D01*
X353637Y357808D01*
X353084Y358362D01*
X352360Y358661D01*
D02*
G37*
G36*
X144014Y357087D02*
X143387D01*
X142809Y356847D01*
X142366Y356404D01*
X142126Y355825D01*
Y355199D01*
X142366Y354620D01*
X142809Y354177D01*
X143387Y353937D01*
X144014D01*
X144593Y354177D01*
X145036Y354620D01*
X145276Y355199D01*
Y355825D01*
X145036Y356404D01*
X144593Y356847D01*
X144014Y357087D01*
D02*
G37*
G36*
X131809D02*
X131183D01*
X130604Y356847D01*
X130161Y356404D01*
X129921Y355825D01*
Y355199D01*
X130161Y354620D01*
X130604Y354177D01*
X131183Y353937D01*
X131809D01*
X132388Y354177D01*
X132831Y354620D01*
X133071Y355199D01*
Y355825D01*
X132831Y356404D01*
X132388Y356847D01*
X131809Y357087D01*
D02*
G37*
G36*
X171179Y352362D02*
X170553D01*
X169974Y352122D01*
X169815Y351963D01*
X169488Y351712D01*
X169162Y351963D01*
X169002Y352122D01*
X168423Y352362D01*
X167797D01*
X167218Y352122D01*
X167059Y351963D01*
X166732Y351712D01*
X166406Y351963D01*
X166246Y352122D01*
X165668Y352362D01*
X165041D01*
X164462Y352122D01*
X164303Y351963D01*
X163976Y351712D01*
X163650Y351963D01*
X163490Y352122D01*
X162912Y352362D01*
X162285D01*
X161706Y352122D01*
X161307Y351723D01*
X161024Y351699D01*
X160740Y351723D01*
X160341Y352122D01*
X159762Y352362D01*
X159136D01*
X158557Y352122D01*
X158157Y351723D01*
X157874Y351699D01*
X157591Y351723D01*
X157191Y352122D01*
X156613Y352362D01*
X155986D01*
X155407Y352122D01*
X154964Y351679D01*
X154724Y351101D01*
Y350474D01*
X154877Y350106D01*
X154825Y349747D01*
X154622Y349531D01*
X154226Y349367D01*
X153783Y348923D01*
X153543Y348345D01*
Y347718D01*
X153783Y347139D01*
X154226Y346696D01*
X154805Y346457D01*
X155431D01*
X156010Y346696D01*
X156453Y347139D01*
X156693Y347718D01*
Y348345D01*
X156541Y348713D01*
X156592Y349072D01*
X156795Y349288D01*
X157191Y349452D01*
X157506Y349767D01*
X157928Y349664D01*
X157998Y349202D01*
X157720Y348923D01*
X157480Y348345D01*
Y347718D01*
X157720Y347139D01*
X158163Y346696D01*
X158742Y346457D01*
X159368D01*
X159947Y346696D01*
X160390Y347139D01*
X160630Y347718D01*
Y348345D01*
X160390Y348923D01*
X160355Y348958D01*
X160388Y349500D01*
X160740Y349852D01*
X161024Y349875D01*
X161307Y349852D01*
X161706Y349452D01*
X162285Y349213D01*
X162912D01*
X163490Y349452D01*
X163650Y349612D01*
X163976Y349862D01*
X164303Y349612D01*
X164462Y349452D01*
X165041Y349213D01*
X165668D01*
X166246Y349452D01*
X166406Y349612D01*
X166732Y349862D01*
X167059Y349612D01*
X167218Y349452D01*
X167797Y349213D01*
X168423D01*
X169002Y349452D01*
X169162Y349612D01*
X169488Y349862D01*
X169815Y349612D01*
X169974Y349452D01*
X170553Y349213D01*
X171179D01*
X171758Y349452D01*
X172201Y349895D01*
X172441Y350474D01*
Y351101D01*
X172201Y351679D01*
X171758Y352122D01*
X171179Y352362D01*
D02*
G37*
G36*
X144014D02*
X143387D01*
X142809Y352122D01*
X142366Y351679D01*
X142194Y351265D01*
X141664D01*
X141492Y351679D01*
X141050Y352122D01*
X140471Y352362D01*
X139844D01*
X139265Y352122D01*
X138822Y351679D01*
X138583Y351101D01*
Y350474D01*
X138822Y349895D01*
X139265Y349452D01*
X139844Y349213D01*
X140471D01*
X141050Y349452D01*
X141492Y349895D01*
X141664Y350309D01*
X142194D01*
X142366Y349895D01*
X142809Y349452D01*
X143387Y349213D01*
X144014D01*
X144593Y349452D01*
X145036Y349895D01*
X145276Y350474D01*
Y351101D01*
X145036Y351679D01*
X144593Y352122D01*
X144014Y352362D01*
D02*
G37*
G36*
X135353D02*
X134726D01*
X134147Y352122D01*
X133704Y351679D01*
X133533Y351265D01*
X133003D01*
X132831Y351679D01*
X132388Y352122D01*
X131809Y352362D01*
X131183D01*
X130604Y352122D01*
X130161Y351679D01*
X129921Y351101D01*
Y350474D01*
X130161Y349895D01*
X130604Y349452D01*
X131183Y349213D01*
X131809D01*
X132388Y349452D01*
X132831Y349895D01*
X133003Y350309D01*
X133533D01*
X133704Y349895D01*
X134147Y349452D01*
X134726Y349213D01*
X135353D01*
X135931Y349452D01*
X136374Y349895D01*
X136614Y350474D01*
Y351101D01*
X136374Y351679D01*
X135931Y352122D01*
X135353Y352362D01*
D02*
G37*
G36*
X422990Y351575D02*
X422364D01*
X421785Y351335D01*
X421342Y350892D01*
X421102Y350313D01*
Y349687D01*
X421342Y349108D01*
X421785Y348665D01*
X422364Y348425D01*
X422990D01*
X423569Y348665D01*
X424012Y349108D01*
X424252Y349687D01*
Y350313D01*
X424012Y350892D01*
X423569Y351335D01*
X422990Y351575D01*
D02*
G37*
G36*
X345667Y351969D02*
X344884D01*
X344161Y351669D01*
X343607Y351115D01*
X343307Y350392D01*
Y349608D01*
X343607Y348885D01*
X344161Y348331D01*
X344884Y348031D01*
X345667D01*
X346391Y348331D01*
X346944Y348885D01*
X347244Y349608D01*
Y350392D01*
X346944Y351115D01*
X346391Y351669D01*
X345667Y351969D01*
D02*
G37*
G36*
X150392Y345669D02*
X149608D01*
X148885Y345370D01*
X148425Y344910D01*
X147966Y345370D01*
X147242Y345669D01*
X146459D01*
X145735Y345370D01*
X145182Y344816D01*
X144882Y344092D01*
Y343309D01*
X145182Y342586D01*
X145735Y342032D01*
X146459Y341732D01*
X147242D01*
X147966Y342032D01*
X148425Y342492D01*
X148885Y342032D01*
X149608Y341732D01*
X150392D01*
X151115Y342032D01*
X151669Y342586D01*
X151969Y343309D01*
Y344092D01*
X151669Y344816D01*
X151115Y345370D01*
X150392Y345669D01*
D02*
G37*
G36*
X393305Y347795D02*
X392522D01*
X391798Y347496D01*
X391245Y346942D01*
X390945Y346218D01*
Y345435D01*
X391245Y344712D01*
X391798Y344158D01*
X392522Y343858D01*
X393305D01*
X394028Y344158D01*
X394582Y344712D01*
X394882Y345435D01*
Y346218D01*
X394582Y346942D01*
X394028Y347496D01*
X393305Y347795D01*
D02*
G37*
G36*
X420077Y347638D02*
X419293D01*
X418570Y347338D01*
X418016Y346784D01*
X417717Y346061D01*
Y345278D01*
X418016Y344554D01*
X418570Y344001D01*
X419293Y343701D01*
X420077D01*
X420800Y344001D01*
X421354Y344554D01*
X421654Y345278D01*
Y346061D01*
X421354Y346784D01*
X420800Y347338D01*
X420077Y347638D01*
D02*
G37*
G36*
X409939D02*
X409156D01*
X408432Y347338D01*
X407878Y346784D01*
X407579Y346061D01*
Y345278D01*
X407878Y344554D01*
X408432Y344001D01*
X409156Y343701D01*
X409939D01*
X410662Y344001D01*
X411216Y344554D01*
X411516Y345278D01*
Y346061D01*
X411216Y346784D01*
X410662Y347338D01*
X409939Y347638D01*
D02*
G37*
G36*
X402754D02*
X401971D01*
X401247Y347338D01*
X400693Y346784D01*
X400394Y346061D01*
Y345278D01*
X400693Y344554D01*
X401247Y344001D01*
X401971Y343701D01*
X402754D01*
X403477Y344001D01*
X404031Y344554D01*
X404331Y345278D01*
Y346061D01*
X404031Y346784D01*
X403477Y347338D01*
X402754Y347638D01*
D02*
G37*
G36*
X135746Y346850D02*
X135120D01*
X134541Y346611D01*
X134098Y346168D01*
X133858Y345589D01*
Y344962D01*
X134098Y344384D01*
X134541Y343940D01*
X135120Y343701D01*
X135746D01*
X136325Y343940D01*
X136768Y344384D01*
X137008Y344962D01*
Y345589D01*
X136768Y346168D01*
X136325Y346611D01*
X135746Y346850D01*
D02*
G37*
G36*
X334644Y347638D02*
X333860D01*
X333137Y347338D01*
X332583Y346784D01*
X332283Y346061D01*
Y345278D01*
X332583Y344554D01*
X333137Y344001D01*
X333860Y343701D01*
X334644D01*
X335367Y344001D01*
X335921Y344554D01*
X336221Y345278D01*
Y346061D01*
X335921Y346784D01*
X335367Y347338D01*
X334644Y347638D01*
D02*
G37*
G36*
X357084Y347244D02*
X356301D01*
X355578Y346944D01*
X355024Y346391D01*
X354724Y345667D01*
Y344884D01*
X355024Y344161D01*
X355578Y343607D01*
X356301Y343307D01*
X357084D01*
X357808Y343607D01*
X358362Y344161D01*
X358661Y344884D01*
Y345667D01*
X358362Y346391D01*
X357808Y346944D01*
X357084Y347244D01*
D02*
G37*
G36*
X371179Y346457D02*
X370553D01*
X369974Y346217D01*
X369531Y345774D01*
X369291Y345195D01*
Y344569D01*
X369531Y343990D01*
X369974Y343547D01*
X370553Y343307D01*
X371179D01*
X371758Y343547D01*
X372201Y343990D01*
X372441Y344569D01*
Y345195D01*
X372201Y345774D01*
X371758Y346217D01*
X371179Y346457D01*
D02*
G37*
G36*
X439607Y355610D02*
X438346D01*
X437110Y355364D01*
X435946Y354882D01*
X434898Y354182D01*
X434007Y353291D01*
X433307Y352243D01*
X432825Y351079D01*
X432579Y349843D01*
Y348583D01*
X432825Y347346D01*
X433307Y346182D01*
X434007Y345134D01*
X434898Y344243D01*
X435946Y343543D01*
X437110Y343061D01*
X438346Y342815D01*
X439607D01*
X440842Y343061D01*
X442007Y343543D01*
X443055Y344243D01*
X443946Y345134D01*
X444646Y346182D01*
X445128Y347346D01*
X445374Y348583D01*
Y349843D01*
X445128Y351079D01*
X444646Y352243D01*
X443946Y353291D01*
X443055Y354182D01*
X442007Y354882D01*
X440842Y355364D01*
X439607Y355610D01*
D02*
G37*
G36*
X296848Y346457D02*
X296065D01*
X295342Y346157D01*
X294788Y345603D01*
X294488Y344880D01*
Y344097D01*
X294788Y343373D01*
X295342Y342819D01*
X296065Y342520D01*
X296848D01*
X297572Y342819D01*
X298126Y343373D01*
X298425Y344097D01*
Y344880D01*
X298126Y345603D01*
X297572Y346157D01*
X296848Y346457D01*
D02*
G37*
G36*
X128660Y345669D02*
X128033D01*
X127454Y345429D01*
X127011Y344987D01*
X126772Y344408D01*
Y343781D01*
X127011Y343202D01*
X127454Y342759D01*
X128033Y342520D01*
X128660D01*
X129238Y342759D01*
X129682Y343202D01*
X129921Y343781D01*
Y344408D01*
X129682Y344987D01*
X129238Y345429D01*
X128660Y345669D01*
D02*
G37*
G36*
X290399Y343732D02*
X289772D01*
X289194Y343492D01*
X288751Y343049D01*
X288511Y342471D01*
Y341844D01*
X288751Y341265D01*
X289194Y340822D01*
X289772Y340582D01*
X290399D01*
X290978Y340822D01*
X291421Y341265D01*
X291660Y341844D01*
Y342471D01*
X291421Y343049D01*
X290978Y343492D01*
X290399Y343732D01*
D02*
G37*
G36*
X150392Y340945D02*
X149608D01*
X148885Y340645D01*
X148425Y340185D01*
X147966Y340645D01*
X147242Y340945D01*
X146459D01*
X145735Y340645D01*
X145182Y340091D01*
X144882Y339368D01*
Y338585D01*
X145182Y337861D01*
X145735Y337308D01*
X146459Y337008D01*
X147242D01*
X147966Y337308D01*
X148425Y337767D01*
X148885Y337308D01*
X149608Y337008D01*
X150392D01*
X151115Y337308D01*
X151669Y337861D01*
X151969Y338585D01*
Y339368D01*
X151669Y340091D01*
X151115Y340645D01*
X150392Y340945D01*
D02*
G37*
G36*
X349998Y344095D02*
X349215D01*
X348491Y343795D01*
X347937Y343241D01*
X347638Y342518D01*
Y341735D01*
X347937Y341011D01*
X348491Y340457D01*
X349215Y340158D01*
X349998D01*
X350721Y340457D01*
X351275Y341011D01*
X351575Y341735D01*
Y342518D01*
X351275Y343241D01*
X350721Y343795D01*
X349998Y344095D01*
D02*
G37*
G36*
X128660Y341732D02*
X128033D01*
X127454Y341493D01*
X127011Y341050D01*
X126772Y340471D01*
Y339844D01*
X127011Y339265D01*
X127454Y338822D01*
X128033Y338583D01*
X128660D01*
X129238Y338822D01*
X129682Y339265D01*
X129921Y339844D01*
Y340471D01*
X129682Y341050D01*
X129238Y341493D01*
X128660Y341732D01*
D02*
G37*
G36*
X310156Y340945D02*
X309529D01*
X308950Y340705D01*
X308507Y340262D01*
X308268Y339683D01*
Y339057D01*
X308507Y338478D01*
X308950Y338035D01*
X309529Y337795D01*
X310156D01*
X310735Y338035D01*
X311177Y338478D01*
X311417Y339057D01*
Y339683D01*
X311177Y340262D01*
X310735Y340705D01*
X310156Y340945D01*
D02*
G37*
G36*
X388187Y344094D02*
X387404D01*
X386680Y343795D01*
X386126Y343241D01*
X385827Y342517D01*
Y341734D01*
X386126Y341011D01*
X386680Y340457D01*
X387404Y340158D01*
X388187D01*
X388280Y340196D01*
X388563Y339772D01*
X388489Y339698D01*
X388189Y338974D01*
Y338191D01*
X388489Y337468D01*
X389042Y336914D01*
X389766Y336614D01*
X390549D01*
X391272Y336914D01*
X391826Y337468D01*
X392126Y338191D01*
Y338974D01*
X391826Y339698D01*
X391272Y340251D01*
X390549Y340551D01*
X389766D01*
X389673Y340513D01*
X389390Y340937D01*
X389464Y341011D01*
X389764Y341734D01*
Y342517D01*
X389464Y343241D01*
X388910Y343795D01*
X388187Y344094D01*
D02*
G37*
G36*
X293620Y339664D02*
X292994D01*
X292415Y339425D01*
X291972Y338982D01*
X291732Y338403D01*
Y337776D01*
X291972Y337197D01*
X292415Y336754D01*
X292994Y336515D01*
X293620D01*
X294199Y336754D01*
X294642Y337197D01*
X294882Y337776D01*
Y338403D01*
X294642Y338982D01*
X294199Y339425D01*
X293620Y339664D01*
D02*
G37*
G36*
X135746Y339370D02*
X135120D01*
X134541Y339130D01*
X134098Y338687D01*
X133858Y338108D01*
Y337482D01*
X134098Y336903D01*
X134541Y336460D01*
X135120Y336221D01*
X135746D01*
X136325Y336460D01*
X136768Y336903D01*
X137008Y337482D01*
Y338108D01*
X136768Y338687D01*
X136325Y339130D01*
X135746Y339370D01*
D02*
G37*
G36*
X329447Y342520D02*
X328821D01*
X328242Y342280D01*
X327799Y341837D01*
X327559Y341258D01*
Y340632D01*
X327799Y340053D01*
X328242Y339610D01*
X328656Y339438D01*
Y338908D01*
X328242Y338737D01*
X327799Y338294D01*
X327559Y337715D01*
Y337088D01*
X327799Y336509D01*
X328242Y336067D01*
X328821Y335827D01*
X329447D01*
X330026Y336067D01*
X330469Y336509D01*
X330709Y337088D01*
Y337715D01*
X330469Y338294D01*
X330026Y338737D01*
X329612Y338908D01*
Y339438D01*
X330026Y339610D01*
X330469Y340053D01*
X330709Y340632D01*
Y341258D01*
X330469Y341837D01*
X330026Y342280D01*
X329447Y342520D01*
D02*
G37*
G36*
X345667Y337205D02*
X344884D01*
X344161Y336905D01*
X343607Y336351D01*
X343307Y335628D01*
Y334845D01*
X343607Y334121D01*
X344161Y333567D01*
X344884Y333268D01*
X345667D01*
X346391Y333567D01*
X346944Y334121D01*
X347244Y334845D01*
Y335628D01*
X346944Y336351D01*
X346391Y336905D01*
X345667Y337205D01*
D02*
G37*
G36*
X433462Y337008D02*
X432679D01*
X431956Y336708D01*
X431402Y336154D01*
X431102Y335431D01*
Y334648D01*
X431402Y333924D01*
X431956Y333371D01*
X432679Y333071D01*
X433462D01*
X434186Y333371D01*
X434740Y333924D01*
X435039Y334648D01*
Y335431D01*
X434740Y336154D01*
X434186Y336708D01*
X433462Y337008D01*
D02*
G37*
G36*
X360943Y336221D02*
X360317D01*
X359738Y335981D01*
X359295Y335538D01*
X359055Y334959D01*
Y334332D01*
X359295Y333754D01*
X359738Y333311D01*
X360317Y333071D01*
X360943D01*
X361522Y333311D01*
X361965Y333754D01*
X362205Y334332D01*
Y334959D01*
X361965Y335538D01*
X361522Y335981D01*
X360943Y336221D01*
D02*
G37*
G36*
X371179Y335525D02*
X370553D01*
X369974Y335286D01*
X369531Y334843D01*
X369291Y334264D01*
Y333637D01*
X369531Y333059D01*
X369974Y332616D01*
X370553Y332376D01*
X371179D01*
X371758Y332616D01*
X372201Y333059D01*
X372441Y333637D01*
Y334264D01*
X372201Y334843D01*
X371758Y335286D01*
X371179Y335525D01*
D02*
G37*
G36*
X296848Y336221D02*
X296065D01*
X295342Y335921D01*
X294788Y335367D01*
X294488Y334644D01*
Y333860D01*
X294788Y333137D01*
X295342Y332583D01*
X296065Y332283D01*
X296848D01*
X297572Y332583D01*
X298126Y333137D01*
X298425Y333860D01*
Y334644D01*
X298126Y335367D01*
X297572Y335921D01*
X296848Y336221D01*
D02*
G37*
G36*
X349998Y334252D02*
X349215D01*
X348491Y333952D01*
X347937Y333399D01*
X347638Y332675D01*
Y331892D01*
X347937Y331169D01*
X348491Y330615D01*
X349215Y330315D01*
X349998D01*
X350721Y330615D01*
X351275Y331169D01*
X351575Y331892D01*
Y332675D01*
X351275Y333399D01*
X350721Y333952D01*
X349998Y334252D01*
D02*
G37*
G36*
X290430Y333426D02*
X289804D01*
X289225Y333187D01*
X288782Y332744D01*
X288542Y332165D01*
Y331538D01*
X288782Y330960D01*
X289225Y330517D01*
X289804Y330277D01*
X290430D01*
X291009Y330517D01*
X291452Y330960D01*
X291692Y331538D01*
Y332165D01*
X291452Y332744D01*
X291009Y333187D01*
X290430Y333426D01*
D02*
G37*
G36*
X310156Y330709D02*
X309529D01*
X308950Y330469D01*
X308507Y330026D01*
X308268Y329447D01*
Y328821D01*
X308507Y328242D01*
X308950Y327799D01*
X309529Y327559D01*
X310156D01*
X310735Y327799D01*
X311178Y328242D01*
X311417Y328821D01*
Y329447D01*
X311178Y330026D01*
X310735Y330469D01*
X310156Y330709D01*
D02*
G37*
G36*
X293620Y329390D02*
X292994D01*
X292415Y329150D01*
X291972Y328707D01*
X291732Y328128D01*
Y327502D01*
X291972Y326923D01*
X292415Y326480D01*
X292994Y326240D01*
X293620D01*
X294199Y326480D01*
X294642Y326923D01*
X294882Y327502D01*
Y328128D01*
X294642Y328707D01*
X294199Y329150D01*
X293620Y329390D01*
D02*
G37*
G36*
X329447Y332677D02*
X328821D01*
X328242Y332437D01*
X327799Y331994D01*
X327559Y331416D01*
Y330789D01*
X327799Y330210D01*
X328242Y329767D01*
X328656Y329596D01*
Y329066D01*
X328242Y328894D01*
X327799Y328451D01*
X327559Y327872D01*
Y327246D01*
X327799Y326667D01*
X328242Y326224D01*
X328821Y325984D01*
X329447D01*
X330026Y326224D01*
X330469Y326667D01*
X330709Y327246D01*
Y327872D01*
X330469Y328451D01*
X330026Y328894D01*
X329612Y329066D01*
Y329596D01*
X330026Y329767D01*
X330469Y330210D01*
X330709Y330789D01*
Y331416D01*
X330469Y331994D01*
X330026Y332437D01*
X329447Y332677D01*
D02*
G37*
G36*
X144014Y328740D02*
X143387D01*
X142809Y328500D01*
X142366Y328057D01*
X142126Y327479D01*
Y326852D01*
X142366Y326273D01*
X142809Y325830D01*
X143387Y325591D01*
X144014D01*
X144593Y325830D01*
X145036Y326273D01*
X145276Y326852D01*
Y327479D01*
X145036Y328057D01*
X144593Y328500D01*
X144014Y328740D01*
D02*
G37*
G36*
X345667Y327362D02*
X344884D01*
X344161Y327063D01*
X343607Y326509D01*
X343307Y325785D01*
Y325002D01*
X343607Y324279D01*
X344161Y323725D01*
X344884Y323425D01*
X345667D01*
X346391Y323725D01*
X346944Y324279D01*
X347244Y325002D01*
Y325785D01*
X346944Y326509D01*
X346391Y327063D01*
X345667Y327362D01*
D02*
G37*
G36*
X171179Y324016D02*
X170553D01*
X169974Y323776D01*
X169815Y323617D01*
X169488Y323366D01*
X169161Y323617D01*
X169002Y323776D01*
X168423Y324016D01*
X167797D01*
X167218Y323776D01*
X167059Y323617D01*
X166732Y323366D01*
X166406Y323617D01*
X166246Y323776D01*
X165668Y324016D01*
X165041D01*
X164462Y323776D01*
X164303Y323617D01*
X163976Y323366D01*
X163650Y323617D01*
X163490Y323776D01*
X162912Y324016D01*
X162285D01*
X161706Y323776D01*
X161307Y323377D01*
X161024Y323353D01*
X160740Y323377D01*
X160341Y323776D01*
X159762Y324016D01*
X159136D01*
X158557Y323776D01*
X158157Y323377D01*
X157874Y323353D01*
X157591Y323377D01*
X157191Y323776D01*
X156612Y324016D01*
X155986D01*
X155407Y323776D01*
X154964Y323333D01*
X154724Y322754D01*
Y322128D01*
X154964Y321549D01*
X155407Y321106D01*
X155986Y320866D01*
X156612D01*
X157191Y321106D01*
X157591Y321505D01*
X157874Y321529D01*
X158157Y321505D01*
X158557Y321106D01*
X159136Y320866D01*
X159762D01*
X160341Y321106D01*
X160740Y321505D01*
X161024Y321529D01*
X161307Y321505D01*
X161706Y321106D01*
X162285Y320866D01*
X162912D01*
X163490Y321106D01*
X163650Y321265D01*
X163976Y321516D01*
X164303Y321265D01*
X164462Y321106D01*
X165041Y320866D01*
X165668D01*
X166246Y321106D01*
X166406Y321265D01*
X166732Y321516D01*
X167059Y321265D01*
X167218Y321106D01*
X167797Y320866D01*
X168423D01*
X169002Y321106D01*
X169161Y321265D01*
X169488Y321516D01*
X169815Y321265D01*
X169974Y321106D01*
X170553Y320866D01*
X171179D01*
X171758Y321106D01*
X172201Y321549D01*
X172441Y322128D01*
Y322754D01*
X172201Y323333D01*
X171758Y323776D01*
X171179Y324016D01*
D02*
G37*
G36*
X144014D02*
X143387D01*
X142809Y323776D01*
X142366Y323333D01*
X142194Y322919D01*
X141664D01*
X141492Y323333D01*
X141050Y323776D01*
X140471Y324016D01*
X139844D01*
X139265Y323776D01*
X138822Y323333D01*
X138583Y322754D01*
Y322128D01*
X138822Y321549D01*
X139265Y321106D01*
X139844Y320866D01*
X140471D01*
X141050Y321106D01*
X141492Y321549D01*
X141664Y321963D01*
X142194D01*
X142366Y321549D01*
X142809Y321106D01*
X143387Y320866D01*
X144014D01*
X144593Y321106D01*
X145036Y321549D01*
X145276Y322128D01*
Y322754D01*
X145036Y323333D01*
X144593Y323776D01*
X144014Y324016D01*
D02*
G37*
G36*
X371179Y325984D02*
X370553D01*
X369974Y325745D01*
X369531Y325302D01*
X369291Y324723D01*
Y324096D01*
X369531Y323517D01*
X369974Y323074D01*
X370553Y322835D01*
X371179D01*
X371758Y323074D01*
X372201Y323517D01*
X372441Y324096D01*
Y324723D01*
X372201Y325302D01*
X371758Y325745D01*
X371179Y325984D01*
D02*
G37*
G36*
X393305Y326535D02*
X392522D01*
X391798Y326236D01*
X391245Y325682D01*
X390945Y324958D01*
Y324175D01*
X391245Y323452D01*
X391798Y322898D01*
X392522Y322598D01*
X393305D01*
X394028Y322898D01*
X394582Y323452D01*
X394882Y324175D01*
Y324958D01*
X394582Y325682D01*
X394028Y326236D01*
X393305Y326535D01*
D02*
G37*
G36*
X441336Y326378D02*
X440553D01*
X439830Y326078D01*
X439276Y325524D01*
X438976Y324801D01*
Y324018D01*
X439276Y323294D01*
X439830Y322741D01*
X440553Y322441D01*
X441336D01*
X442060Y322741D01*
X442614Y323294D01*
X442913Y324018D01*
Y324801D01*
X442614Y325524D01*
X442060Y326078D01*
X441336Y326378D01*
D02*
G37*
G36*
X420077D02*
X419293D01*
X418570Y326078D01*
X418016Y325524D01*
X417717Y324801D01*
Y324018D01*
X418016Y323294D01*
X418570Y322741D01*
X419293Y322441D01*
X420077D01*
X420800Y322741D01*
X421354Y323294D01*
X421654Y324018D01*
Y324801D01*
X421354Y325524D01*
X420800Y326078D01*
X420077Y326378D01*
D02*
G37*
G36*
X409939D02*
X409156D01*
X408432Y326078D01*
X407878Y325524D01*
X407579Y324801D01*
Y324018D01*
X407878Y323294D01*
X408432Y322741D01*
X409156Y322441D01*
X409939D01*
X410662Y322741D01*
X411216Y323294D01*
X411516Y324018D01*
Y324801D01*
X411216Y325524D01*
X410662Y326078D01*
X409939Y326378D01*
D02*
G37*
G36*
X402754D02*
X401971D01*
X401247Y326078D01*
X400693Y325524D01*
X400394Y324801D01*
Y324018D01*
X400693Y323294D01*
X401247Y322741D01*
X401971Y322441D01*
X402754D01*
X403477Y322741D01*
X404031Y323294D01*
X404331Y324018D01*
Y324801D01*
X404031Y325524D01*
X403477Y326078D01*
X402754Y326378D01*
D02*
G37*
G36*
X425757Y326378D02*
X424974D01*
X424250Y326078D01*
X423696Y325524D01*
X423397Y324801D01*
Y324018D01*
X423696Y323294D01*
X424250Y322741D01*
X424974Y322441D01*
X425757D01*
X426480Y322741D01*
X427034Y323294D01*
X427334Y324018D01*
Y324801D01*
X427034Y325524D01*
X426480Y326078D01*
X425757Y326378D01*
D02*
G37*
G36*
X360943Y325289D02*
X360317D01*
X359738Y325049D01*
X359295Y324606D01*
X359055Y324028D01*
Y323401D01*
X359295Y322822D01*
X359738Y322379D01*
X360317Y322140D01*
X360943D01*
X361522Y322379D01*
X361965Y322822D01*
X362205Y323401D01*
Y324028D01*
X361965Y324606D01*
X361522Y325049D01*
X360943Y325289D01*
D02*
G37*
G36*
X296848Y325984D02*
X296065D01*
X295342Y325685D01*
X294788Y325131D01*
X294488Y324407D01*
Y323624D01*
X294788Y322901D01*
X295342Y322347D01*
X296065Y322047D01*
X296848D01*
X297572Y322347D01*
X298126Y322901D01*
X298425Y323624D01*
Y324407D01*
X298126Y325131D01*
X297572Y325685D01*
X296848Y325984D01*
D02*
G37*
G36*
X290399Y323260D02*
X289772D01*
X289194Y323020D01*
X288751Y322577D01*
X288511Y321998D01*
Y321372D01*
X288751Y320793D01*
X289194Y320350D01*
X289772Y320110D01*
X290399D01*
X290978Y320350D01*
X291421Y320793D01*
X291660Y321372D01*
Y321998D01*
X291421Y322577D01*
X290978Y323020D01*
X290399Y323260D01*
D02*
G37*
G36*
X349968Y323437D02*
X349185D01*
X348462Y323138D01*
X347908Y322584D01*
X347608Y321861D01*
Y321077D01*
X347908Y320354D01*
X348462Y319800D01*
X349185Y319500D01*
X349968D01*
X350692Y319800D01*
X351246Y320354D01*
X351545Y321077D01*
Y321861D01*
X351246Y322584D01*
X350692Y323138D01*
X349968Y323437D01*
D02*
G37*
G36*
X310156Y320472D02*
X309529D01*
X308950Y320233D01*
X308507Y319790D01*
X308268Y319211D01*
Y318584D01*
X308507Y318006D01*
X308950Y317563D01*
X309529Y317323D01*
X310156D01*
X310735Y317563D01*
X311178Y318006D01*
X311417Y318584D01*
Y319211D01*
X311178Y319790D01*
X310735Y320233D01*
X310156Y320472D01*
D02*
G37*
G36*
X233856Y317323D02*
X233073D01*
X232349Y317023D01*
X232087Y316760D01*
X231824Y317023D01*
X231100Y317323D01*
X230317D01*
X229594Y317023D01*
X229040Y316469D01*
X228740Y315746D01*
Y314963D01*
X229040Y314239D01*
X229594Y313685D01*
X230317Y313386D01*
X231100D01*
X231824Y313685D01*
X232087Y313948D01*
X232349Y313685D01*
X233073Y313386D01*
X233856D01*
X234580Y313685D01*
X235133Y314239D01*
X235433Y314963D01*
Y315746D01*
X235133Y316469D01*
X234580Y317023D01*
X233856Y317323D01*
D02*
G37*
G36*
X329447Y322835D02*
X328821D01*
X328242Y322595D01*
X327799Y322152D01*
X327559Y321573D01*
Y320947D01*
X327799Y320368D01*
X328242Y319925D01*
X328656Y319753D01*
Y319223D01*
X328242Y319052D01*
X327799Y318609D01*
X327559Y318030D01*
Y317403D01*
X327799Y316825D01*
X328242Y316382D01*
X328821Y316142D01*
X329447D01*
X330026Y316382D01*
X330469Y316825D01*
X330709Y317403D01*
Y318030D01*
X330469Y318609D01*
X330026Y319052D01*
X329612Y319223D01*
Y319753D01*
X330026Y319925D01*
X330469Y320368D01*
X330709Y320947D01*
Y321573D01*
X330469Y322152D01*
X330026Y322595D01*
X329447Y322835D01*
D02*
G37*
G36*
X293620Y319192D02*
X292994D01*
X292415Y318952D01*
X291972Y318509D01*
X291732Y317930D01*
Y317304D01*
X291972Y316725D01*
X292415Y316282D01*
X292994Y316042D01*
X293620D01*
X294199Y316282D01*
X294642Y316725D01*
X294882Y317304D01*
Y317930D01*
X294642Y318509D01*
X294199Y318952D01*
X293620Y319192D01*
D02*
G37*
G36*
X388187Y322835D02*
X387404D01*
X386680Y322535D01*
X386126Y321981D01*
X385827Y321258D01*
Y320475D01*
X386126Y319751D01*
X386680Y319197D01*
X387404Y318898D01*
X388187D01*
X388280Y318936D01*
X388563Y318512D01*
X388489Y318438D01*
X388189Y317714D01*
Y316931D01*
X388489Y316208D01*
X389042Y315654D01*
X389766Y315354D01*
X390549D01*
X391272Y315654D01*
X391826Y316208D01*
X392126Y316931D01*
Y317714D01*
X391826Y318438D01*
X391272Y318992D01*
X390549Y319291D01*
X389766D01*
X389673Y319253D01*
X389390Y319677D01*
X389464Y319751D01*
X389764Y320475D01*
Y321258D01*
X389464Y321981D01*
X388910Y322535D01*
X388187Y322835D01*
D02*
G37*
G36*
X345667Y317520D02*
X344884D01*
X344161Y317220D01*
X343607Y316666D01*
X343307Y315943D01*
Y315160D01*
X343607Y314436D01*
X344161Y313882D01*
X344884Y313583D01*
X345667D01*
X346391Y313882D01*
X346944Y314436D01*
X347244Y315160D01*
Y315943D01*
X346944Y316666D01*
X346391Y317220D01*
X345667Y317520D01*
D02*
G37*
G36*
X360943Y315748D02*
X360317D01*
X359738Y315508D01*
X359295Y315065D01*
X359055Y314487D01*
Y313860D01*
X359295Y313281D01*
X359738Y312838D01*
X360317Y312598D01*
X360943D01*
X361522Y312838D01*
X361965Y313281D01*
X362205Y313860D01*
Y314487D01*
X361965Y315065D01*
X361522Y315508D01*
X360943Y315748D01*
D02*
G37*
G36*
X296848Y316142D02*
X296065D01*
X295342Y315842D01*
X294788Y315288D01*
X294488Y314565D01*
Y313782D01*
X294788Y313058D01*
X295342Y312504D01*
X296065Y312205D01*
X296848D01*
X297572Y312504D01*
X298126Y313058D01*
X298425Y313782D01*
Y314565D01*
X298126Y315288D01*
X297572Y315842D01*
X296848Y316142D01*
D02*
G37*
G36*
X371179Y315053D02*
X370553D01*
X369974Y314813D01*
X369531Y314370D01*
X369291Y313791D01*
Y313165D01*
X369531Y312586D01*
X369974Y312143D01*
X370553Y311903D01*
X371179D01*
X371758Y312143D01*
X372201Y312586D01*
X372441Y313165D01*
Y313791D01*
X372201Y314370D01*
X371758Y314813D01*
X371179Y315053D01*
D02*
G37*
G36*
X433462Y315748D02*
X432679D01*
X431956Y315448D01*
X431402Y314895D01*
X431102Y314171D01*
Y313388D01*
X431402Y312664D01*
X431956Y312111D01*
X432679Y311811D01*
X433462D01*
X434186Y312111D01*
X434740Y312664D01*
X435039Y313388D01*
Y314171D01*
X434740Y314895D01*
X434186Y315448D01*
X433462Y315748D01*
D02*
G37*
G36*
X290399Y313023D02*
X289772D01*
X289194Y312784D01*
X288751Y312341D01*
X288511Y311762D01*
Y311135D01*
X288751Y310557D01*
X289194Y310114D01*
X289772Y309874D01*
X290399D01*
X290978Y310114D01*
X291421Y310557D01*
X291660Y311135D01*
Y311762D01*
X291421Y312341D01*
X290978Y312784D01*
X290399Y313023D01*
D02*
G37*
G36*
X349998Y313386D02*
X349215D01*
X348491Y313086D01*
X347937Y312532D01*
X347638Y311809D01*
Y311026D01*
X347937Y310302D01*
X348491Y309749D01*
X349215Y309449D01*
X349998D01*
X350721Y309749D01*
X351275Y310302D01*
X351575Y311026D01*
Y311809D01*
X351275Y312532D01*
X350721Y313086D01*
X349998Y313386D01*
D02*
G37*
G36*
X310156Y310236D02*
X309529D01*
X308950Y309997D01*
X308507Y309554D01*
X308268Y308975D01*
Y308348D01*
X308507Y307769D01*
X308950Y307326D01*
X309529Y307087D01*
X310156D01*
X310735Y307326D01*
X311178Y307769D01*
X311417Y308348D01*
Y308975D01*
X311178Y309554D01*
X310735Y309997D01*
X310156Y310236D01*
D02*
G37*
G36*
X329447Y312992D02*
X328821D01*
X328242Y312752D01*
X327799Y312309D01*
X327559Y311731D01*
Y311104D01*
X327799Y310525D01*
X328242Y310082D01*
X328656Y309911D01*
Y309381D01*
X328242Y309209D01*
X327799Y308766D01*
X327559Y308187D01*
Y307561D01*
X327799Y306982D01*
X328242Y306539D01*
X328821Y306299D01*
X329447D01*
X330026Y306539D01*
X330469Y306982D01*
X330709Y307561D01*
Y308187D01*
X330469Y308766D01*
X330026Y309209D01*
X329612Y309381D01*
Y309911D01*
X330026Y310082D01*
X330469Y310525D01*
X330709Y311104D01*
Y311731D01*
X330469Y312309D01*
X330026Y312752D01*
X329447Y312992D01*
D02*
G37*
G36*
X237793Y309842D02*
X237010D01*
X236286Y309543D01*
X235733Y308989D01*
X235433Y308266D01*
Y307483D01*
X235733Y306759D01*
X236286Y306205D01*
X237010Y305906D01*
X237793D01*
X238517Y306205D01*
X239070Y306759D01*
X239370Y307483D01*
Y308266D01*
X239070Y308989D01*
X238517Y309543D01*
X237793Y309842D01*
D02*
G37*
G36*
X293620Y308956D02*
X292994D01*
X292415Y308716D01*
X291972Y308273D01*
X291732Y307694D01*
Y307068D01*
X291972Y306489D01*
X292415Y306046D01*
X292994Y305806D01*
X293620D01*
X294199Y306046D01*
X294642Y306489D01*
X294882Y307068D01*
Y307694D01*
X294642Y308273D01*
X294199Y308716D01*
X293620Y308956D01*
D02*
G37*
G36*
X224540Y312861D02*
X223757D01*
X223033Y312562D01*
X222480Y312008D01*
X222180Y311284D01*
Y310501D01*
X222480Y309778D01*
X222810Y309448D01*
X222980Y309121D01*
X222810Y308795D01*
X222480Y308465D01*
X222180Y307741D01*
Y306958D01*
X222480Y306235D01*
X223033Y305681D01*
X223757Y305381D01*
X224540D01*
X225263Y305681D01*
X225817Y306235D01*
X226117Y306958D01*
Y307741D01*
X225817Y308465D01*
X225487Y308795D01*
X225317Y309121D01*
X225487Y309448D01*
X225817Y309778D01*
X226117Y310501D01*
Y311284D01*
X225817Y312008D01*
X225263Y312562D01*
X224540Y312861D01*
D02*
G37*
G36*
X425678Y307084D02*
X425052D01*
X424473Y306845D01*
X424030Y306402D01*
X423790Y305823D01*
Y305196D01*
X424030Y304618D01*
X424473Y304175D01*
X425052Y303935D01*
X425678D01*
X426257Y304175D01*
X426700Y304618D01*
X426940Y305196D01*
Y305823D01*
X426700Y306402D01*
X426257Y306845D01*
X425678Y307084D01*
D02*
G37*
G36*
X441336Y307480D02*
X440553D01*
X439830Y307181D01*
X439276Y306627D01*
X438976Y305903D01*
Y305120D01*
X439276Y304397D01*
X439830Y303843D01*
X440553Y303543D01*
X441336D01*
X442060Y303843D01*
X442614Y304397D01*
X442913Y305120D01*
Y305903D01*
X442614Y306627D01*
X442060Y307181D01*
X441336Y307480D01*
D02*
G37*
G36*
X186218Y310630D02*
X185435D01*
X184712Y310330D01*
X184158Y309776D01*
X183858Y309053D01*
Y308270D01*
X184158Y307546D01*
X184618Y307087D01*
X184158Y306627D01*
X183858Y305903D01*
Y305120D01*
X184158Y304397D01*
X184712Y303843D01*
X185435Y303543D01*
X186218D01*
X186942Y303843D01*
X187496Y304397D01*
X187795Y305120D01*
Y305903D01*
X187496Y306627D01*
X187036Y307087D01*
X187496Y307546D01*
X187795Y308270D01*
Y309053D01*
X187496Y309776D01*
X186942Y310330D01*
X186218Y310630D01*
D02*
G37*
G36*
X409840Y307087D02*
X409057D01*
X408334Y306787D01*
X407780Y306233D01*
X407480Y305510D01*
Y304727D01*
X407780Y304003D01*
X408334Y303449D01*
X409057Y303150D01*
X409840D01*
X410564Y303449D01*
X411118Y304003D01*
X411417Y304727D01*
Y305510D01*
X411118Y306233D01*
X410564Y306787D01*
X409840Y307087D01*
D02*
G37*
G36*
X402754Y307086D02*
X401971D01*
X401247Y306787D01*
X400693Y306233D01*
X400394Y305509D01*
Y304726D01*
X400693Y304003D01*
X401247Y303449D01*
X401971Y303149D01*
X402754D01*
X403477Y303449D01*
X404031Y304003D01*
X404331Y304726D01*
Y305509D01*
X404031Y306233D01*
X403477Y306787D01*
X402754Y307086D01*
D02*
G37*
G36*
X420077Y307086D02*
X419293D01*
X418570Y306786D01*
X418016Y306233D01*
X417717Y305509D01*
Y304726D01*
X418016Y304003D01*
X418570Y303449D01*
X419293Y303149D01*
X420077D01*
X420800Y303449D01*
X421354Y304003D01*
X421654Y304726D01*
Y305509D01*
X421354Y306233D01*
X420800Y306786D01*
X420077Y307086D01*
D02*
G37*
G36*
X393411Y306980D02*
X392628D01*
X391904Y306680D01*
X391351Y306127D01*
X391051Y305403D01*
Y304620D01*
X391351Y303897D01*
X391904Y303343D01*
X392628Y303043D01*
X393411D01*
X394135Y303343D01*
X394688Y303897D01*
X394988Y304620D01*
Y305403D01*
X394688Y306127D01*
X394135Y306680D01*
X393411Y306980D01*
D02*
G37*
G36*
X345667Y306693D02*
X344884D01*
X344161Y306393D01*
X343607Y305839D01*
X343307Y305116D01*
Y304333D01*
X343607Y303609D01*
X344161Y303055D01*
X344884Y302756D01*
X345667D01*
X346391Y303055D01*
X346944Y303609D01*
X347244Y304333D01*
Y305116D01*
X346944Y305839D01*
X346391Y306393D01*
X345667Y306693D01*
D02*
G37*
G36*
X360943Y304817D02*
X360317D01*
X359738Y304577D01*
X359295Y304134D01*
X359055Y303555D01*
Y302929D01*
X359295Y302350D01*
X359738Y301907D01*
X360317Y301667D01*
X360943D01*
X361522Y301907D01*
X361965Y302350D01*
X362205Y302929D01*
Y303555D01*
X361965Y304134D01*
X361522Y304577D01*
X360943Y304817D01*
D02*
G37*
G36*
X296848Y305512D02*
X296065D01*
X295342Y305212D01*
X294788Y304658D01*
X294488Y303935D01*
Y303152D01*
X294788Y302428D01*
X295342Y301874D01*
X296065Y301575D01*
X296848D01*
X297572Y301874D01*
X298126Y302428D01*
X298425Y303152D01*
Y303935D01*
X298126Y304658D01*
X297572Y305212D01*
X296848Y305512D01*
D02*
G37*
G36*
X253935Y304331D02*
X253152D01*
X252428Y304031D01*
X251874Y303477D01*
X251575Y302754D01*
Y301971D01*
X251874Y301247D01*
X252428Y300693D01*
X253152Y300394D01*
X253935D01*
X254658Y300693D01*
X255212Y301247D01*
X255512Y301971D01*
Y302754D01*
X255212Y303477D01*
X254658Y304031D01*
X253935Y304331D01*
D02*
G37*
G36*
X246061D02*
X245278D01*
X244554Y304031D01*
X244001Y303477D01*
X243701Y302754D01*
Y301971D01*
X244001Y301247D01*
X244554Y300693D01*
X245278Y300394D01*
X246061D01*
X246784Y300693D01*
X247338Y301247D01*
X247638Y301971D01*
Y302754D01*
X247338Y303477D01*
X246784Y304031D01*
X246061Y304331D01*
D02*
G37*
G36*
X223752Y304425D02*
X222969D01*
X222246Y304125D01*
X221692Y303571D01*
X221392Y302848D01*
Y302065D01*
X221692Y301341D01*
X221955Y301078D01*
X221692Y300815D01*
X221392Y300092D01*
Y299309D01*
X221692Y298585D01*
X222246Y298031D01*
X222969Y297732D01*
X223752D01*
X224476Y298031D01*
X225030Y298585D01*
X225329Y299309D01*
Y300092D01*
X225030Y300815D01*
X224767Y301078D01*
X225030Y301341D01*
X225329Y302065D01*
Y302848D01*
X225030Y303571D01*
X224476Y304125D01*
X223752Y304425D01*
D02*
G37*
G36*
X357084Y300787D02*
X356301D01*
X355578Y300488D01*
X355024Y299934D01*
X354724Y299211D01*
Y298427D01*
X355024Y297704D01*
X355578Y297150D01*
X356301Y296850D01*
X357084D01*
X357808Y297150D01*
X358362Y297704D01*
X358661Y298427D01*
Y299211D01*
X358362Y299934D01*
X357808Y300488D01*
X357084Y300787D01*
D02*
G37*
G36*
X334644D02*
X333860D01*
X333137Y300488D01*
X332583Y299934D01*
X332283Y299211D01*
Y298427D01*
X332583Y297704D01*
X333137Y297150D01*
X333860Y296850D01*
X334644D01*
X335367Y297150D01*
X335921Y297704D01*
X336221Y298427D01*
Y299211D01*
X335921Y299934D01*
X335367Y300488D01*
X334644Y300787D01*
D02*
G37*
G36*
X253935Y296850D02*
X253152D01*
X252428Y296551D01*
X251874Y295997D01*
X251575Y295273D01*
Y294490D01*
X251874Y293767D01*
X252428Y293213D01*
X253152Y292913D01*
X253935D01*
X254658Y293213D01*
X255212Y293767D01*
X255512Y294490D01*
Y295273D01*
X255212Y295997D01*
X254658Y296551D01*
X253935Y296850D01*
D02*
G37*
G36*
X246061D02*
X245278D01*
X244554Y296551D01*
X244001Y295997D01*
X243701Y295273D01*
Y294490D01*
X244001Y293767D01*
X244554Y293213D01*
X245278Y292913D01*
X246061D01*
X246784Y293213D01*
X247338Y293767D01*
X247638Y294490D01*
Y295273D01*
X247338Y295997D01*
X246784Y296551D01*
X246061Y296850D01*
D02*
G37*
G36*
X393305Y296614D02*
X392522D01*
X391798Y296315D01*
X391245Y295761D01*
X390945Y295037D01*
Y294254D01*
X391245Y293531D01*
X391798Y292977D01*
X392522Y292677D01*
X393305D01*
X394028Y292977D01*
X394582Y293531D01*
X394882Y294254D01*
Y295037D01*
X394582Y295761D01*
X394028Y296315D01*
X393305Y296614D01*
D02*
G37*
G36*
X420077Y296457D02*
X419293D01*
X418570Y296157D01*
X418016Y295603D01*
X417717Y294880D01*
Y294097D01*
X418016Y293373D01*
X418570Y292819D01*
X419293Y292520D01*
X420077D01*
X420800Y292819D01*
X421354Y293373D01*
X421654Y294097D01*
Y294880D01*
X421354Y295603D01*
X420800Y296157D01*
X420077Y296457D01*
D02*
G37*
G36*
X409939D02*
X409156D01*
X408432Y296157D01*
X407878Y295603D01*
X407579Y294880D01*
Y294097D01*
X407878Y293373D01*
X408432Y292819D01*
X409156Y292520D01*
X409939D01*
X410662Y292819D01*
X411216Y293373D01*
X411516Y294097D01*
Y294880D01*
X411216Y295603D01*
X410662Y296157D01*
X409939Y296457D01*
D02*
G37*
G36*
X402754D02*
X401971D01*
X401247Y296157D01*
X400693Y295603D01*
X400394Y294880D01*
Y294097D01*
X400693Y293373D01*
X401247Y292819D01*
X401971Y292520D01*
X402754D01*
X403477Y292819D01*
X404031Y293373D01*
X404331Y294097D01*
Y294880D01*
X404031Y295603D01*
X403477Y296157D01*
X402754Y296457D01*
D02*
G37*
G36*
X371179Y295276D02*
X370553D01*
X369974Y295036D01*
X369531Y294593D01*
X369291Y294014D01*
Y293388D01*
X369531Y292809D01*
X369974Y292366D01*
X370553Y292126D01*
X371179D01*
X371758Y292366D01*
X372201Y292809D01*
X372441Y293388D01*
Y294014D01*
X372201Y294593D01*
X371758Y295036D01*
X371179Y295276D01*
D02*
G37*
G36*
X296848Y295669D02*
X296065D01*
X295342Y295370D01*
X294788Y294816D01*
X294488Y294092D01*
Y293309D01*
X294788Y292586D01*
X295342Y292032D01*
X296065Y291732D01*
X296848D01*
X297572Y292032D01*
X298126Y292586D01*
X298425Y293309D01*
Y294092D01*
X298126Y294816D01*
X297572Y295370D01*
X296848Y295669D01*
D02*
G37*
G36*
X425679Y293700D02*
X425053D01*
X424474Y293460D01*
X424031Y293017D01*
X423792Y292438D01*
Y291812D01*
X424031Y291233D01*
X424474Y290790D01*
X425053Y290550D01*
X425679D01*
X426258Y290790D01*
X426701Y291233D01*
X426941Y291812D01*
Y292438D01*
X426701Y293017D01*
X426258Y293460D01*
X425679Y293700D01*
D02*
G37*
G36*
X441336Y294094D02*
X440553D01*
X439830Y293795D01*
X439276Y293241D01*
X438976Y292517D01*
Y291734D01*
X439276Y291011D01*
X439830Y290457D01*
X440553Y290158D01*
X441336D01*
X442060Y290457D01*
X442614Y291011D01*
X442913Y291734D01*
Y292517D01*
X442614Y293241D01*
X442060Y293795D01*
X441336Y294094D01*
D02*
G37*
G36*
X290399Y292945D02*
X289772D01*
X289194Y292705D01*
X288751Y292262D01*
X288511Y291683D01*
Y291057D01*
X288751Y290478D01*
X289194Y290035D01*
X289772Y289795D01*
X290399D01*
X290978Y290035D01*
X291421Y290478D01*
X291660Y291057D01*
Y291683D01*
X291421Y292262D01*
X290978Y292705D01*
X290399Y292945D01*
D02*
G37*
G36*
X349998Y292914D02*
X349215D01*
X348491Y292614D01*
X347937Y292060D01*
X347638Y291337D01*
Y290553D01*
X347937Y289830D01*
X348491Y289276D01*
X349215Y288977D01*
X349998D01*
X350721Y289276D01*
X351275Y289830D01*
X351575Y290553D01*
Y291337D01*
X351275Y292060D01*
X350721Y292614D01*
X349998Y292914D01*
D02*
G37*
G36*
X310156Y290158D02*
X309529D01*
X308950Y289918D01*
X308507Y289475D01*
X308268Y288896D01*
Y288269D01*
X308507Y287691D01*
X308950Y287248D01*
X309529Y287008D01*
X310156D01*
X310735Y287248D01*
X311177Y287691D01*
X311417Y288269D01*
Y288896D01*
X311177Y289475D01*
X310735Y289918D01*
X310156Y290158D01*
D02*
G37*
G36*
X293620Y288877D02*
X292994D01*
X292415Y288637D01*
X291972Y288194D01*
X291732Y287615D01*
Y286989D01*
X291972Y286410D01*
X292415Y285967D01*
X292994Y285727D01*
X293620D01*
X294199Y285967D01*
X294642Y286410D01*
X294882Y286989D01*
Y287615D01*
X294642Y288194D01*
X294199Y288637D01*
X293620Y288877D01*
D02*
G37*
G36*
X388187Y292913D02*
X387404D01*
X386680Y292614D01*
X386126Y292060D01*
X385827Y291336D01*
Y290553D01*
X386126Y289830D01*
X386680Y289276D01*
X387404Y288976D01*
X388187D01*
X388280Y289015D01*
X388563Y288591D01*
X388489Y288517D01*
X388189Y287793D01*
Y287010D01*
X388489Y286286D01*
X389042Y285733D01*
X389766Y285433D01*
X390549D01*
X391272Y285733D01*
X391826Y286286D01*
X392126Y287010D01*
Y287793D01*
X391826Y288517D01*
X391272Y289070D01*
X390549Y289370D01*
X389766D01*
X389673Y289332D01*
X389390Y289756D01*
X389464Y289830D01*
X389764Y290553D01*
Y291336D01*
X389464Y292060D01*
X388910Y292614D01*
X388187Y292913D01*
D02*
G37*
G36*
X329447Y291339D02*
X328821D01*
X328242Y291099D01*
X327799Y290656D01*
X327559Y290077D01*
Y289451D01*
X327799Y288872D01*
X328242Y288429D01*
X328656Y288257D01*
Y287727D01*
X328242Y287556D01*
X327799Y287112D01*
X327559Y286534D01*
Y285907D01*
X327799Y285328D01*
X328242Y284885D01*
X328821Y284646D01*
X329447D01*
X330026Y284885D01*
X330469Y285328D01*
X330709Y285907D01*
Y286534D01*
X330469Y287112D01*
X330026Y287556D01*
X329612Y287727D01*
Y288257D01*
X330026Y288429D01*
X330469Y288872D01*
X330709Y289451D01*
Y290077D01*
X330469Y290656D01*
X330026Y291099D01*
X329447Y291339D01*
D02*
G37*
G36*
X345667Y286024D02*
X344884D01*
X344161Y285724D01*
X343607Y285170D01*
X343307Y284447D01*
Y283664D01*
X343607Y282940D01*
X344161Y282386D01*
X344884Y282087D01*
X345667D01*
X346391Y282386D01*
X346944Y282940D01*
X347244Y283664D01*
Y284447D01*
X346944Y285170D01*
X346391Y285724D01*
X345667Y286024D01*
D02*
G37*
G36*
X360943Y285039D02*
X360317D01*
X359738Y284800D01*
X359295Y284357D01*
X359055Y283778D01*
Y283151D01*
X359295Y282573D01*
X359738Y282130D01*
X360317Y281890D01*
X360943D01*
X361522Y282130D01*
X361965Y282573D01*
X362205Y283151D01*
Y283778D01*
X361965Y284357D01*
X361522Y284800D01*
X360943Y285039D01*
D02*
G37*
G36*
X433462Y285827D02*
X432679D01*
X431956Y285527D01*
X431402Y284973D01*
X431102Y284250D01*
Y283467D01*
X431402Y282743D01*
X431956Y282189D01*
X432679Y281890D01*
X433462D01*
X434186Y282189D01*
X434740Y282743D01*
X435039Y283467D01*
Y284250D01*
X434740Y284973D01*
X434186Y285527D01*
X433462Y285827D01*
D02*
G37*
G36*
X296848Y285433D02*
X296065D01*
X295342Y285133D01*
X294788Y284580D01*
X294488Y283856D01*
Y283073D01*
X294788Y282349D01*
X295342Y281796D01*
X296065Y281496D01*
X296848D01*
X297572Y281796D01*
X298126Y282349D01*
X298425Y283073D01*
Y283856D01*
X298126Y284580D01*
X297572Y285133D01*
X296848Y285433D01*
D02*
G37*
G36*
X371179Y284344D02*
X370553D01*
X369974Y284105D01*
X369531Y283662D01*
X369291Y283083D01*
Y282456D01*
X369531Y281877D01*
X369974Y281434D01*
X370553Y281195D01*
X371179D01*
X371758Y281434D01*
X372201Y281877D01*
X372441Y282456D01*
Y283083D01*
X372201Y283662D01*
X371758Y284105D01*
X371179Y284344D01*
D02*
G37*
G36*
X290399Y282709D02*
X289772D01*
X289194Y282469D01*
X288751Y282026D01*
X288511Y281447D01*
Y280820D01*
X288751Y280242D01*
X289194Y279799D01*
X289772Y279559D01*
X290399D01*
X290978Y279799D01*
X291421Y280242D01*
X291660Y280820D01*
Y281447D01*
X291421Y282026D01*
X290978Y282469D01*
X290399Y282709D01*
D02*
G37*
G36*
X349998Y283071D02*
X349215D01*
X348491Y282771D01*
X347937Y282218D01*
X347638Y281494D01*
Y280711D01*
X347937Y279988D01*
X348491Y279434D01*
X349215Y279134D01*
X349998D01*
X350721Y279434D01*
X351275Y279988D01*
X351575Y280711D01*
Y281494D01*
X351275Y282218D01*
X350721Y282771D01*
X349998Y283071D01*
D02*
G37*
G36*
X310156Y279921D02*
X309529D01*
X308950Y279681D01*
X308507Y279239D01*
X308268Y278660D01*
Y278033D01*
X308507Y277454D01*
X308950Y277011D01*
X309529Y276772D01*
X310156D01*
X310735Y277011D01*
X311177Y277454D01*
X311417Y278033D01*
Y278660D01*
X311177Y279239D01*
X310735Y279681D01*
X310156Y279921D01*
D02*
G37*
G36*
X293620Y278641D02*
X292994D01*
X292415Y278401D01*
X291972Y277958D01*
X291732Y277379D01*
Y276753D01*
X291972Y276174D01*
X292415Y275731D01*
X292994Y275491D01*
X293620D01*
X294199Y275731D01*
X294642Y276174D01*
X294882Y276753D01*
Y277379D01*
X294642Y277958D01*
X294199Y278401D01*
X293620Y278641D01*
D02*
G37*
G36*
X329447Y281496D02*
X328821D01*
X328242Y281256D01*
X327799Y280813D01*
X327559Y280235D01*
Y279608D01*
X327799Y279029D01*
X328242Y278586D01*
X328656Y278415D01*
Y277885D01*
X328242Y277713D01*
X327799Y277270D01*
X327559Y276691D01*
Y276065D01*
X327799Y275486D01*
X328242Y275043D01*
X328821Y274803D01*
X329447D01*
X330026Y275043D01*
X330469Y275486D01*
X330709Y276065D01*
Y276691D01*
X330469Y277270D01*
X330026Y277713D01*
X329612Y277885D01*
Y278415D01*
X330026Y278586D01*
X330469Y279029D01*
X330709Y279608D01*
Y280235D01*
X330469Y280813D01*
X330026Y281256D01*
X329447Y281496D01*
D02*
G37*
G36*
X345667Y276181D02*
X344884D01*
X344161Y275881D01*
X343607Y275328D01*
X343307Y274604D01*
Y273821D01*
X343607Y273097D01*
X344161Y272544D01*
X344884Y272244D01*
X345667D01*
X346391Y272544D01*
X346944Y273097D01*
X347244Y273821D01*
Y274604D01*
X346944Y275328D01*
X346391Y275881D01*
X345667Y276181D01*
D02*
G37*
G36*
X371179Y274803D02*
X370553D01*
X369974Y274563D01*
X369531Y274120D01*
X369291Y273542D01*
Y272915D01*
X369531Y272336D01*
X369974Y271893D01*
X370553Y271654D01*
X371179D01*
X371758Y271893D01*
X372201Y272336D01*
X372441Y272915D01*
Y273542D01*
X372201Y274120D01*
X371758Y274563D01*
X371179Y274803D01*
D02*
G37*
G36*
X393305Y275354D02*
X392522D01*
X391798Y275055D01*
X391245Y274501D01*
X390945Y273777D01*
Y272994D01*
X391245Y272271D01*
X391798Y271717D01*
X392522Y271417D01*
X393305D01*
X394028Y271717D01*
X394582Y272271D01*
X394882Y272994D01*
Y273777D01*
X394582Y274501D01*
X394028Y275055D01*
X393305Y275354D01*
D02*
G37*
G36*
X441336Y275197D02*
X440553D01*
X439830Y274897D01*
X439276Y274343D01*
X438976Y273620D01*
Y272837D01*
X439276Y272113D01*
X439830Y271560D01*
X440553Y271260D01*
X441336D01*
X442060Y271560D01*
X442614Y272113D01*
X442913Y272837D01*
Y273620D01*
X442614Y274343D01*
X442060Y274897D01*
X441336Y275197D01*
D02*
G37*
G36*
X420077D02*
X419293D01*
X418570Y274897D01*
X418016Y274343D01*
X417717Y273620D01*
Y272837D01*
X418016Y272113D01*
X418570Y271560D01*
X419293Y271260D01*
X420077D01*
X420800Y271560D01*
X421354Y272113D01*
X421654Y272837D01*
Y273620D01*
X421354Y274343D01*
X420800Y274897D01*
X420077Y275197D01*
D02*
G37*
G36*
X402754D02*
X401971D01*
X401247Y274897D01*
X400693Y274343D01*
X400394Y273620D01*
Y272837D01*
X400693Y272113D01*
X401247Y271560D01*
X401971Y271260D01*
X402754D01*
X403477Y271560D01*
X404031Y272113D01*
X404331Y272837D01*
Y273620D01*
X404031Y274343D01*
X403477Y274897D01*
X402754Y275197D01*
D02*
G37*
G36*
X296848D02*
X296065D01*
X295342Y274897D01*
X294788Y274343D01*
X294488Y273620D01*
Y272837D01*
X294788Y272113D01*
X295342Y271560D01*
X296065Y271260D01*
X296848D01*
X297572Y271560D01*
X298126Y272113D01*
X298425Y272837D01*
Y273620D01*
X298126Y274343D01*
X297572Y274897D01*
X296848Y275197D01*
D02*
G37*
G36*
X425757Y275197D02*
X424974D01*
X424250Y274897D01*
X423696Y274343D01*
X423397Y273620D01*
Y272837D01*
X423696Y272113D01*
X424250Y271560D01*
X424974Y271260D01*
X425757D01*
X426480Y271560D01*
X427034Y272113D01*
X427334Y272837D01*
Y273620D01*
X427034Y274343D01*
X426480Y274897D01*
X425757Y275197D01*
D02*
G37*
G36*
X409939D02*
X409156D01*
X408432Y274897D01*
X407878Y274343D01*
X407579Y273620D01*
Y272837D01*
X407878Y272113D01*
X408432Y271560D01*
X409156Y271260D01*
X409939D01*
X410662Y271560D01*
X411216Y272113D01*
X411516Y272837D01*
Y273620D01*
X411216Y274343D01*
X410662Y274897D01*
X409939Y275197D01*
D02*
G37*
G36*
X360943Y274108D02*
X360317D01*
X359738Y273868D01*
X359295Y273425D01*
X359055Y272847D01*
Y272220D01*
X359295Y271641D01*
X359738Y271198D01*
X360317Y270958D01*
X360943D01*
X361522Y271198D01*
X361965Y271641D01*
X362205Y272220D01*
Y272847D01*
X361965Y273425D01*
X361522Y273868D01*
X360943Y274108D01*
D02*
G37*
G36*
X290399Y272472D02*
X289772D01*
X289194Y272233D01*
X288751Y271790D01*
X288511Y271211D01*
Y270584D01*
X288751Y270005D01*
X289194Y269563D01*
X289772Y269323D01*
X290399D01*
X290978Y269563D01*
X291421Y270005D01*
X291660Y270584D01*
Y271211D01*
X291421Y271790D01*
X290978Y272233D01*
X290399Y272472D01*
D02*
G37*
G36*
X349968Y272256D02*
X349185D01*
X348462Y271957D01*
X347908Y271403D01*
X347608Y270679D01*
Y269896D01*
X347908Y269173D01*
X348462Y268619D01*
X349185Y268319D01*
X349968D01*
X350692Y268619D01*
X351246Y269173D01*
X351545Y269896D01*
Y270679D01*
X351246Y271403D01*
X350692Y271957D01*
X349968Y272256D01*
D02*
G37*
G36*
X310156Y269685D02*
X309529D01*
X308950Y269445D01*
X308507Y269002D01*
X308268Y268424D01*
Y267797D01*
X308507Y267218D01*
X308950Y266775D01*
X309529Y266535D01*
X310156D01*
X310735Y266775D01*
X311178Y267218D01*
X311417Y267797D01*
Y268424D01*
X311178Y269002D01*
X310735Y269445D01*
X310156Y269685D01*
D02*
G37*
G36*
X293620Y268405D02*
X292994D01*
X292415Y268165D01*
X291972Y267722D01*
X291732Y267143D01*
Y266516D01*
X291972Y265938D01*
X292415Y265495D01*
X292994Y265255D01*
X293620D01*
X294199Y265495D01*
X294642Y265938D01*
X294882Y266516D01*
Y267143D01*
X294642Y267722D01*
X294199Y268165D01*
X293620Y268405D01*
D02*
G37*
G36*
X329447Y271654D02*
X328821D01*
X328242Y271414D01*
X327799Y270971D01*
X327559Y270392D01*
Y269765D01*
X327799Y269187D01*
X328242Y268744D01*
X328656Y268572D01*
Y268042D01*
X328242Y267870D01*
X327799Y267427D01*
X327559Y266849D01*
Y266222D01*
X327799Y265643D01*
X328242Y265200D01*
X328821Y264961D01*
X329447D01*
X330026Y265200D01*
X330469Y265643D01*
X330709Y266222D01*
Y266849D01*
X330469Y267427D01*
X330026Y267870D01*
X329612Y268042D01*
Y268572D01*
X330026Y268744D01*
X330469Y269187D01*
X330709Y269765D01*
Y270392D01*
X330469Y270971D01*
X330026Y271414D01*
X329447Y271654D01*
D02*
G37*
G36*
X388187Y271654D02*
X387404D01*
X386680Y271354D01*
X386126Y270800D01*
X385827Y270077D01*
Y269293D01*
X386126Y268570D01*
X386680Y268016D01*
X387404Y267717D01*
X388187D01*
X388280Y267755D01*
X388563Y267331D01*
X388489Y267257D01*
X388189Y266533D01*
Y265750D01*
X388489Y265027D01*
X389042Y264473D01*
X389766Y264173D01*
X390549D01*
X391272Y264473D01*
X391826Y265027D01*
X392126Y265750D01*
Y266533D01*
X391826Y267257D01*
X391272Y267811D01*
X390549Y268110D01*
X389766D01*
X389673Y268072D01*
X389390Y268496D01*
X389464Y268570D01*
X389764Y269293D01*
Y270077D01*
X389464Y270800D01*
X388910Y271354D01*
X388187Y271654D01*
D02*
G37*
G36*
X345667Y266339D02*
X344884D01*
X344161Y266039D01*
X343607Y265485D01*
X343307Y264762D01*
Y263979D01*
X343607Y263255D01*
X344161Y262701D01*
X344884Y262402D01*
X345667D01*
X346391Y262701D01*
X346944Y263255D01*
X347244Y263979D01*
Y264762D01*
X346944Y265485D01*
X346391Y266039D01*
X345667Y266339D01*
D02*
G37*
G36*
X360943Y264567D02*
X360317D01*
X359738Y264327D01*
X359295Y263884D01*
X359055Y263305D01*
Y262679D01*
X359295Y262100D01*
X359738Y261657D01*
X360317Y261417D01*
X360943D01*
X361522Y261657D01*
X361965Y262100D01*
X362205Y262679D01*
Y263305D01*
X361965Y263884D01*
X361522Y264327D01*
X360943Y264567D01*
D02*
G37*
G36*
X296848Y264961D02*
X296065D01*
X295342Y264661D01*
X294788Y264107D01*
X294488Y263384D01*
Y262601D01*
X294788Y261877D01*
X295342Y261323D01*
X296065Y261024D01*
X296848D01*
X297572Y261323D01*
X298126Y261877D01*
X298425Y262601D01*
Y263384D01*
X298126Y264107D01*
X297572Y264661D01*
X296848Y264961D01*
D02*
G37*
G36*
X371179Y263872D02*
X370553D01*
X369974Y263632D01*
X369531Y263189D01*
X369291Y262610D01*
Y261984D01*
X369531Y261405D01*
X369974Y260962D01*
X370553Y260722D01*
X371179D01*
X371758Y260962D01*
X372201Y261405D01*
X372441Y261984D01*
Y262610D01*
X372201Y263189D01*
X371758Y263632D01*
X371179Y263872D01*
D02*
G37*
G36*
X433462Y264567D02*
X432679D01*
X431956Y264267D01*
X431402Y263714D01*
X431102Y262990D01*
Y262207D01*
X431402Y261483D01*
X431956Y260930D01*
X432679Y260630D01*
X433462D01*
X434186Y260930D01*
X434740Y261483D01*
X435039Y262207D01*
Y262990D01*
X434740Y263714D01*
X434186Y264267D01*
X433462Y264567D01*
D02*
G37*
G36*
X290399Y262236D02*
X289772D01*
X289194Y261996D01*
X288751Y261553D01*
X288511Y260975D01*
Y260348D01*
X288751Y259769D01*
X289194Y259326D01*
X289772Y259086D01*
X290399D01*
X290978Y259326D01*
X291421Y259769D01*
X291660Y260348D01*
Y260975D01*
X291421Y261553D01*
X290978Y261996D01*
X290399Y262236D01*
D02*
G37*
G36*
X349998Y262205D02*
X349215D01*
X348491Y261905D01*
X347937Y261351D01*
X347638Y260628D01*
Y259845D01*
X347937Y259121D01*
X348491Y258567D01*
X349215Y258268D01*
X349998D01*
X350721Y258567D01*
X351275Y259121D01*
X351575Y259845D01*
Y260628D01*
X351275Y261351D01*
X350721Y261905D01*
X349998Y262205D01*
D02*
G37*
G36*
X310156Y259449D02*
X309529D01*
X308950Y259209D01*
X308507Y258766D01*
X308268Y258187D01*
Y257561D01*
X308507Y256982D01*
X308950Y256539D01*
X309529Y256299D01*
X310156D01*
X310735Y256539D01*
X311178Y256982D01*
X311417Y257561D01*
Y258187D01*
X311178Y258766D01*
X310735Y259209D01*
X310156Y259449D01*
D02*
G37*
G36*
X329447Y261811D02*
X328821D01*
X328242Y261571D01*
X327799Y261128D01*
X327559Y260549D01*
Y259923D01*
X327799Y259344D01*
X328242Y258901D01*
X328656Y258730D01*
Y258200D01*
X328242Y258028D01*
X327799Y257585D01*
X327559Y257006D01*
Y256380D01*
X327799Y255801D01*
X328242Y255358D01*
X328821Y255118D01*
X329447D01*
X330026Y255358D01*
X330469Y255801D01*
X330709Y256380D01*
Y257006D01*
X330469Y257585D01*
X330026Y258028D01*
X329612Y258200D01*
Y258730D01*
X330026Y258901D01*
X330469Y259344D01*
X330709Y259923D01*
Y260549D01*
X330469Y261128D01*
X330026Y261571D01*
X329447Y261811D01*
D02*
G37*
G36*
X293620Y258168D02*
X292994D01*
X292415Y257929D01*
X291972Y257486D01*
X291732Y256907D01*
Y256280D01*
X291972Y255701D01*
X292415Y255258D01*
X292994Y255019D01*
X293620D01*
X294199Y255258D01*
X294642Y255701D01*
X294882Y256280D01*
Y256907D01*
X294642Y257486D01*
X294199Y257929D01*
X293620Y258168D01*
D02*
G37*
G36*
X425679Y255904D02*
X425053D01*
X424474Y255665D01*
X424031Y255222D01*
X423792Y254643D01*
Y254016D01*
X424031Y253438D01*
X424474Y252995D01*
X425053Y252755D01*
X425679D01*
X426258Y252995D01*
X426701Y253438D01*
X426941Y254016D01*
Y254643D01*
X426701Y255222D01*
X426258Y255665D01*
X425679Y255904D01*
D02*
G37*
G36*
X441336Y256299D02*
X440553D01*
X439830Y255999D01*
X439276Y255446D01*
X438976Y254722D01*
Y253939D01*
X439276Y253216D01*
X439830Y252662D01*
X440553Y252362D01*
X441336D01*
X442060Y252662D01*
X442614Y253216D01*
X442913Y253939D01*
Y254722D01*
X442614Y255446D01*
X442060Y255999D01*
X441336Y256299D01*
D02*
G37*
G36*
X409840Y255906D02*
X409057D01*
X408334Y255606D01*
X407780Y255052D01*
X407480Y254329D01*
Y253545D01*
X407780Y252822D01*
X408334Y252268D01*
X409057Y251969D01*
X409840D01*
X410564Y252268D01*
X411118Y252822D01*
X411417Y253545D01*
Y254329D01*
X411118Y255052D01*
X410564Y255606D01*
X409840Y255906D01*
D02*
G37*
G36*
X402754Y255905D02*
X401971D01*
X401247Y255606D01*
X400693Y255052D01*
X400394Y254328D01*
Y253545D01*
X400693Y252822D01*
X401247Y252268D01*
X401971Y251968D01*
X402754D01*
X403477Y252268D01*
X404031Y252822D01*
X404331Y253545D01*
Y254328D01*
X404031Y255052D01*
X403477Y255606D01*
X402754Y255905D01*
D02*
G37*
G36*
X420077Y255905D02*
X419293D01*
X418570Y255605D01*
X418016Y255052D01*
X417717Y254328D01*
Y253545D01*
X418016Y252821D01*
X418570Y252268D01*
X419293Y251968D01*
X420077D01*
X420800Y252268D01*
X421354Y252821D01*
X421654Y253545D01*
Y254328D01*
X421354Y255052D01*
X420800Y255605D01*
X420077Y255905D01*
D02*
G37*
G36*
X393411Y255799D02*
X392628D01*
X391904Y255499D01*
X391351Y254946D01*
X391051Y254222D01*
Y253439D01*
X391351Y252715D01*
X391904Y252162D01*
X392628Y251862D01*
X393411D01*
X394135Y252162D01*
X394688Y252715D01*
X394988Y253439D01*
Y254222D01*
X394688Y254946D01*
X394135Y255499D01*
X393411Y255799D01*
D02*
G37*
G36*
X345667Y255512D02*
X344884D01*
X344161Y255212D01*
X343607Y254658D01*
X343307Y253935D01*
Y253151D01*
X343607Y252428D01*
X344161Y251874D01*
X344884Y251575D01*
X345667D01*
X346391Y251874D01*
X346944Y252428D01*
X347244Y253151D01*
Y253935D01*
X346944Y254658D01*
X346391Y255212D01*
X345667Y255512D01*
D02*
G37*
G36*
X296848Y254724D02*
X296065D01*
X295342Y254425D01*
X294788Y253871D01*
X294488Y253148D01*
Y252364D01*
X294788Y251641D01*
X295342Y251087D01*
X296065Y250787D01*
X296848D01*
X297572Y251087D01*
X298126Y251641D01*
X298425Y252364D01*
Y253148D01*
X298126Y253871D01*
X297572Y254425D01*
X296848Y254724D01*
D02*
G37*
G36*
X360943Y253636D02*
X360317D01*
X359738Y253396D01*
X359295Y252953D01*
X359055Y252374D01*
Y251748D01*
X359295Y251169D01*
X359738Y250726D01*
X360317Y250486D01*
X360943D01*
X361522Y250726D01*
X361965Y251169D01*
X362205Y251748D01*
Y252374D01*
X361965Y252953D01*
X361522Y253396D01*
X360943Y253636D01*
D02*
G37*
G36*
X334644Y254331D02*
X333860D01*
X333137Y254031D01*
X332583Y253477D01*
X332283Y252754D01*
Y251971D01*
X332583Y251247D01*
X333137Y250693D01*
X333860Y250394D01*
X334644D01*
X335367Y250693D01*
X335921Y251247D01*
X336221Y251971D01*
Y252754D01*
X335921Y253477D01*
X335367Y254031D01*
X334644Y254331D01*
D02*
G37*
G36*
X345667Y249213D02*
X344884D01*
X344161Y248913D01*
X343607Y248359D01*
X343307Y247636D01*
Y246852D01*
X343607Y246129D01*
X344161Y245575D01*
X344884Y245276D01*
X345667D01*
X346391Y245575D01*
X346944Y246129D01*
X347244Y246852D01*
Y247636D01*
X346944Y248359D01*
X346391Y248913D01*
X345667Y249213D01*
D02*
G37*
G36*
X393305Y245039D02*
X392522D01*
X391798Y244740D01*
X391245Y244186D01*
X390945Y243462D01*
Y242679D01*
X391245Y241956D01*
X391798Y241402D01*
X392522Y241102D01*
X393305D01*
X394028Y241402D01*
X394582Y241956D01*
X394882Y242679D01*
Y243462D01*
X394582Y244186D01*
X394028Y244740D01*
X393305Y245039D01*
D02*
G37*
G36*
X420077Y244882D02*
X419293D01*
X418570Y244582D01*
X418016Y244028D01*
X417717Y243305D01*
Y242522D01*
X418016Y241798D01*
X418570Y241245D01*
X419293Y240945D01*
X420077D01*
X420800Y241245D01*
X421354Y241798D01*
X421654Y242522D01*
Y243305D01*
X421354Y244028D01*
X420800Y244582D01*
X420077Y244882D01*
D02*
G37*
G36*
X409939D02*
X409156D01*
X408432Y244582D01*
X407878Y244028D01*
X407579Y243305D01*
Y242522D01*
X407878Y241798D01*
X408432Y241245D01*
X409156Y240945D01*
X409939D01*
X410662Y241245D01*
X411216Y241798D01*
X411516Y242522D01*
Y243305D01*
X411216Y244028D01*
X410662Y244582D01*
X409939Y244882D01*
D02*
G37*
G36*
X402754D02*
X401971D01*
X401247Y244582D01*
X400693Y244028D01*
X400394Y243305D01*
Y242522D01*
X400693Y241798D01*
X401247Y241245D01*
X401971Y240945D01*
X402754D01*
X403477Y241245D01*
X404031Y241798D01*
X404331Y242522D01*
Y243305D01*
X404031Y244028D01*
X403477Y244582D01*
X402754Y244882D01*
D02*
G37*
G36*
X371179Y244094D02*
X370553D01*
X369974Y243855D01*
X369531Y243412D01*
X369291Y242833D01*
Y242206D01*
X369531Y241628D01*
X369974Y241185D01*
X370553Y240945D01*
X371179D01*
X371758Y241185D01*
X372201Y241628D01*
X372441Y242206D01*
Y242833D01*
X372201Y243412D01*
X371758Y243855D01*
X371179Y244094D01*
D02*
G37*
G36*
X357084Y244882D02*
X356301D01*
X355578Y244582D01*
X355024Y244028D01*
X354724Y243305D01*
Y242522D01*
X355024Y241798D01*
X355578Y241245D01*
X356301Y240945D01*
X357084D01*
X357808Y241245D01*
X358362Y241798D01*
X358661Y242522D01*
Y243305D01*
X358362Y244028D01*
X357808Y244582D01*
X357084Y244882D01*
D02*
G37*
G36*
X296848Y244488D02*
X296065D01*
X295342Y244188D01*
X294788Y243635D01*
X294488Y242911D01*
Y242128D01*
X294788Y241405D01*
X295342Y240851D01*
X296065Y240551D01*
X296848D01*
X297572Y240851D01*
X298126Y241405D01*
X298425Y242128D01*
Y242911D01*
X298126Y243635D01*
X297572Y244188D01*
X296848Y244488D01*
D02*
G37*
G36*
X425679Y242125D02*
X425053D01*
X424474Y241885D01*
X424031Y241442D01*
X423792Y240863D01*
Y240237D01*
X424031Y239658D01*
X424474Y239215D01*
X425053Y238975D01*
X425679D01*
X426258Y239215D01*
X426701Y239658D01*
X426941Y240237D01*
Y240863D01*
X426701Y241442D01*
X426258Y241885D01*
X425679Y242125D01*
D02*
G37*
G36*
X290399Y241764D02*
X289772D01*
X289194Y241524D01*
X288751Y241081D01*
X288511Y240502D01*
Y239876D01*
X288751Y239297D01*
X289194Y238854D01*
X289772Y238614D01*
X290399D01*
X290978Y238854D01*
X291421Y239297D01*
X291660Y239876D01*
Y240502D01*
X291421Y241081D01*
X290978Y241524D01*
X290399Y241764D01*
D02*
G37*
G36*
X441336Y242520D02*
X440553D01*
X439830Y242220D01*
X439276Y241666D01*
X438976Y240943D01*
Y240160D01*
X439276Y239436D01*
X439830Y238882D01*
X440553Y238583D01*
X441336D01*
X442060Y238882D01*
X442614Y239436D01*
X442913Y240160D01*
Y240943D01*
X442614Y241666D01*
X442060Y242220D01*
X441336Y242520D01*
D02*
G37*
G36*
X349998Y241733D02*
X349215D01*
X348491Y241433D01*
X347937Y240879D01*
X347638Y240156D01*
Y239372D01*
X347937Y238649D01*
X348491Y238095D01*
X349215Y237795D01*
X349998D01*
X350721Y238095D01*
X351275Y238649D01*
X351575Y239372D01*
Y240156D01*
X351275Y240879D01*
X350721Y241433D01*
X349998Y241733D01*
D02*
G37*
G36*
X310156Y238976D02*
X309529D01*
X308950Y238737D01*
X308507Y238294D01*
X308268Y237715D01*
Y237088D01*
X308507Y236509D01*
X308950Y236067D01*
X309529Y235827D01*
X310156D01*
X310735Y236067D01*
X311178Y236509D01*
X311417Y237088D01*
Y237715D01*
X311178Y238294D01*
X310735Y238737D01*
X310156Y238976D01*
D02*
G37*
G36*
X293620Y237696D02*
X292994D01*
X292415Y237456D01*
X291972Y237013D01*
X291732Y236434D01*
Y235808D01*
X291972Y235229D01*
X292415Y234786D01*
X292994Y234546D01*
X293620D01*
X294199Y234786D01*
X294642Y235229D01*
X294882Y235808D01*
Y236434D01*
X294642Y237013D01*
X294199Y237456D01*
X293620Y237696D01*
D02*
G37*
G36*
X388187Y241339D02*
X387404D01*
X386680Y241039D01*
X386126Y240485D01*
X385827Y239762D01*
Y238979D01*
X386126Y238255D01*
X386680Y237701D01*
X387404Y237402D01*
X388187D01*
X388280Y237440D01*
X388563Y237016D01*
X388489Y236942D01*
X388189Y236218D01*
Y235435D01*
X388489Y234712D01*
X389042Y234158D01*
X389766Y233858D01*
X390549D01*
X391272Y234158D01*
X391826Y234712D01*
X392126Y235435D01*
Y236218D01*
X391826Y236942D01*
X391272Y237496D01*
X390549Y237795D01*
X389766D01*
X389673Y237757D01*
X389390Y238181D01*
X389464Y238255D01*
X389764Y238979D01*
Y239762D01*
X389464Y240485D01*
X388910Y241039D01*
X388187Y241339D01*
D02*
G37*
G36*
X329447Y240158D02*
X328821D01*
X328242Y239918D01*
X327799Y239475D01*
X327559Y238896D01*
Y238269D01*
X327799Y237691D01*
X328242Y237248D01*
X328656Y237076D01*
Y236546D01*
X328242Y236374D01*
X327799Y235931D01*
X327559Y235353D01*
Y234726D01*
X327799Y234147D01*
X328242Y233704D01*
X328821Y233465D01*
X329447D01*
X330026Y233704D01*
X330469Y234147D01*
X330709Y234726D01*
Y235353D01*
X330469Y235931D01*
X330026Y236374D01*
X329612Y236546D01*
Y237076D01*
X330026Y237248D01*
X330469Y237691D01*
X330709Y238269D01*
Y238896D01*
X330469Y239475D01*
X330026Y239918D01*
X329447Y240158D01*
D02*
G37*
G36*
X345667Y234842D02*
X344884D01*
X344161Y234543D01*
X343607Y233989D01*
X343307Y233266D01*
Y232483D01*
X343607Y231759D01*
X344161Y231205D01*
X344884Y230906D01*
X345667D01*
X346391Y231205D01*
X346944Y231759D01*
X347244Y232483D01*
Y233266D01*
X346944Y233989D01*
X346391Y234543D01*
X345667Y234842D01*
D02*
G37*
G36*
X360943Y233858D02*
X360317D01*
X359738Y233618D01*
X359295Y233175D01*
X359055Y232597D01*
Y231970D01*
X359295Y231391D01*
X359738Y230948D01*
X360317Y230709D01*
X360943D01*
X361522Y230948D01*
X361965Y231391D01*
X362205Y231970D01*
Y232597D01*
X361965Y233175D01*
X361522Y233618D01*
X360943Y233858D01*
D02*
G37*
G36*
X433462Y234252D02*
X432679D01*
X431956Y233952D01*
X431402Y233399D01*
X431102Y232675D01*
Y231892D01*
X431402Y231168D01*
X431956Y230615D01*
X432679Y230315D01*
X433462D01*
X434186Y230615D01*
X434740Y231168D01*
X435039Y231892D01*
Y232675D01*
X434740Y233399D01*
X434186Y233952D01*
X433462Y234252D01*
D02*
G37*
G36*
X296848D02*
X296065D01*
X295342Y233952D01*
X294788Y233399D01*
X294488Y232675D01*
Y231892D01*
X294788Y231168D01*
X295342Y230615D01*
X296065Y230315D01*
X296848D01*
X297572Y230615D01*
X298126Y231168D01*
X298425Y231892D01*
Y232675D01*
X298126Y233399D01*
X297572Y233952D01*
X296848Y234252D01*
D02*
G37*
G36*
X371179Y233163D02*
X370553D01*
X369974Y232924D01*
X369531Y232481D01*
X369291Y231902D01*
Y231275D01*
X369531Y230696D01*
X369974Y230253D01*
X370553Y230014D01*
X371179D01*
X371758Y230253D01*
X372201Y230696D01*
X372441Y231275D01*
Y231902D01*
X372201Y232481D01*
X371758Y232924D01*
X371179Y233163D01*
D02*
G37*
G36*
X290399Y231527D02*
X289772D01*
X289194Y231288D01*
X288751Y230845D01*
X288511Y230266D01*
Y229639D01*
X288751Y229061D01*
X289194Y228618D01*
X289772Y228378D01*
X290399D01*
X290978Y228618D01*
X291421Y229061D01*
X291660Y229639D01*
Y230266D01*
X291421Y230845D01*
X290978Y231288D01*
X290399Y231527D01*
D02*
G37*
G36*
X349998Y231890D02*
X349215D01*
X348491Y231590D01*
X347937Y231037D01*
X347638Y230313D01*
Y229530D01*
X347937Y228806D01*
X348491Y228253D01*
X349215Y227953D01*
X349998D01*
X350721Y228253D01*
X351275Y228806D01*
X351575Y229530D01*
Y230313D01*
X351275Y231037D01*
X350721Y231590D01*
X349998Y231890D01*
D02*
G37*
G36*
X310156Y228740D02*
X309529D01*
X308950Y228500D01*
X308507Y228057D01*
X308268Y227479D01*
Y226852D01*
X308507Y226273D01*
X308950Y225830D01*
X309529Y225590D01*
X310156D01*
X310735Y225830D01*
X311178Y226273D01*
X311417Y226852D01*
Y227479D01*
X311178Y228057D01*
X310735Y228500D01*
X310156Y228740D01*
D02*
G37*
G36*
X293620Y227460D02*
X292994D01*
X292415Y227220D01*
X291972Y226777D01*
X291732Y226198D01*
Y225572D01*
X291972Y224993D01*
X292415Y224550D01*
X292994Y224310D01*
X293620D01*
X294199Y224550D01*
X294642Y224993D01*
X294882Y225572D01*
Y226198D01*
X294642Y226777D01*
X294199Y227220D01*
X293620Y227460D01*
D02*
G37*
G36*
X329447Y230315D02*
X328821D01*
X328242Y230075D01*
X327799Y229632D01*
X327559Y229053D01*
Y228427D01*
X327799Y227848D01*
X328242Y227405D01*
X328656Y227234D01*
Y226703D01*
X328242Y226532D01*
X327799Y226089D01*
X327559Y225510D01*
Y224884D01*
X327799Y224305D01*
X328242Y223862D01*
X328821Y223622D01*
X329447D01*
X330026Y223862D01*
X330469Y224305D01*
X330709Y224884D01*
Y225510D01*
X330469Y226089D01*
X330026Y226532D01*
X329612Y226703D01*
Y227234D01*
X330026Y227405D01*
X330469Y227848D01*
X330709Y228427D01*
Y229053D01*
X330469Y229632D01*
X330026Y230075D01*
X329447Y230315D01*
D02*
G37*
G36*
X345667Y225000D02*
X344884D01*
X344161Y224700D01*
X343607Y224147D01*
X343307Y223423D01*
Y222640D01*
X343607Y221916D01*
X344161Y221363D01*
X344884Y221063D01*
X345667D01*
X346391Y221363D01*
X346944Y221916D01*
X347244Y222640D01*
Y223423D01*
X346944Y224147D01*
X346391Y224700D01*
X345667Y225000D01*
D02*
G37*
G36*
X371179Y223622D02*
X370553D01*
X369974Y223382D01*
X369531Y222939D01*
X369291Y222360D01*
Y221734D01*
X369531Y221155D01*
X369974Y220712D01*
X370553Y220472D01*
X371179D01*
X371758Y220712D01*
X372201Y221155D01*
X372441Y221734D01*
Y222360D01*
X372201Y222939D01*
X371758Y223382D01*
X371179Y223622D01*
D02*
G37*
G36*
X296848Y224409D02*
X296065D01*
X295342Y224110D01*
X294788Y223556D01*
X294488Y222832D01*
Y222049D01*
X294788Y221326D01*
X295342Y220772D01*
X296065Y220472D01*
X296848D01*
X297572Y220772D01*
X298126Y221326D01*
X298425Y222049D01*
Y222832D01*
X298126Y223556D01*
X297572Y224110D01*
X296848Y224409D01*
D02*
G37*
G36*
X393305Y223780D02*
X392522D01*
X391798Y223480D01*
X391245Y222926D01*
X390945Y222203D01*
Y221420D01*
X391245Y220696D01*
X391798Y220142D01*
X392522Y219843D01*
X393305D01*
X394028Y220142D01*
X394582Y220696D01*
X394882Y221420D01*
Y222203D01*
X394582Y222926D01*
X394028Y223480D01*
X393305Y223780D01*
D02*
G37*
G36*
X360943Y222927D02*
X360317D01*
X359738Y222687D01*
X359295Y222244D01*
X359055Y221666D01*
Y221039D01*
X359295Y220460D01*
X359738Y220017D01*
X360317Y219777D01*
X360943D01*
X361522Y220017D01*
X361965Y220460D01*
X362205Y221039D01*
Y221666D01*
X361965Y222244D01*
X361522Y222687D01*
X360943Y222927D01*
D02*
G37*
G36*
X441336Y223622D02*
X440553D01*
X439830Y223322D01*
X439276Y222769D01*
X438976Y222045D01*
Y221262D01*
X439276Y220538D01*
X439830Y219985D01*
X440553Y219685D01*
X441336D01*
X442060Y219985D01*
X442614Y220538D01*
X442913Y221262D01*
Y222045D01*
X442614Y222769D01*
X442060Y223322D01*
X441336Y223622D01*
D02*
G37*
G36*
X425757Y223622D02*
X424974D01*
X424250Y223322D01*
X423696Y222769D01*
X423397Y222045D01*
Y221262D01*
X423696Y220538D01*
X424250Y219985D01*
X424974Y219685D01*
X425757D01*
X426480Y219985D01*
X427034Y220538D01*
X427334Y221262D01*
Y222045D01*
X427034Y222769D01*
X426480Y223322D01*
X425757Y223622D01*
D02*
G37*
G36*
X420077D02*
X419293D01*
X418570Y223322D01*
X418016Y222769D01*
X417717Y222045D01*
Y221262D01*
X418016Y220538D01*
X418570Y219985D01*
X419293Y219685D01*
X420077D01*
X420800Y219985D01*
X421354Y220538D01*
X421654Y221262D01*
Y222045D01*
X421354Y222769D01*
X420800Y223322D01*
X420077Y223622D01*
D02*
G37*
G36*
X409939D02*
X409156D01*
X408432Y223322D01*
X407878Y222769D01*
X407579Y222045D01*
Y221262D01*
X407878Y220538D01*
X408432Y219985D01*
X409156Y219685D01*
X409939D01*
X410662Y219985D01*
X411216Y220538D01*
X411516Y221262D01*
Y222045D01*
X411216Y222769D01*
X410662Y223322D01*
X409939Y223622D01*
D02*
G37*
G36*
X402754D02*
X401971D01*
X401247Y223322D01*
X400693Y222769D01*
X400394Y222045D01*
Y221262D01*
X400693Y220538D01*
X401247Y219985D01*
X401971Y219685D01*
X402754D01*
X403477Y219985D01*
X404031Y220538D01*
X404331Y221262D01*
Y222045D01*
X404031Y222769D01*
X403477Y223322D01*
X402754Y223622D01*
D02*
G37*
G36*
X290399Y221291D02*
X289772D01*
X289194Y221052D01*
X288751Y220608D01*
X288511Y220030D01*
Y219403D01*
X288751Y218824D01*
X289194Y218381D01*
X289772Y218142D01*
X290399D01*
X290978Y218381D01*
X291421Y218824D01*
X291660Y219403D01*
Y220030D01*
X291421Y220608D01*
X290978Y221052D01*
X290399Y221291D01*
D02*
G37*
G36*
X349968Y221075D02*
X349185D01*
X348462Y220776D01*
X347908Y220222D01*
X347608Y219498D01*
Y218715D01*
X347908Y217992D01*
X348462Y217438D01*
X349185Y217138D01*
X349968D01*
X350692Y217438D01*
X351246Y217992D01*
X351545Y218715D01*
Y219498D01*
X351246Y220222D01*
X350692Y220776D01*
X349968Y221075D01*
D02*
G37*
G36*
X310156Y218504D02*
X309529D01*
X308950Y218264D01*
X308507Y217821D01*
X308268Y217242D01*
Y216616D01*
X308507Y216037D01*
X308950Y215594D01*
X309529Y215354D01*
X310156D01*
X310735Y215594D01*
X311178Y216037D01*
X311417Y216616D01*
Y217242D01*
X311178Y217821D01*
X310735Y218264D01*
X310156Y218504D01*
D02*
G37*
G36*
X293620Y217224D02*
X292994D01*
X292415Y216984D01*
X291972Y216541D01*
X291732Y215962D01*
Y215335D01*
X291972Y214757D01*
X292415Y214314D01*
X292994Y214074D01*
X293620D01*
X294199Y214314D01*
X294642Y214757D01*
X294882Y215335D01*
Y215962D01*
X294642Y216541D01*
X294199Y216984D01*
X293620Y217224D01*
D02*
G37*
G36*
X329447Y220472D02*
X328821D01*
X328242Y220233D01*
X327799Y219790D01*
X327559Y219211D01*
Y218584D01*
X327799Y218006D01*
X328242Y217563D01*
X328656Y217391D01*
Y216861D01*
X328242Y216689D01*
X327799Y216246D01*
X327559Y215668D01*
Y215041D01*
X327799Y214462D01*
X328242Y214019D01*
X328821Y213780D01*
X329447D01*
X330026Y214019D01*
X330469Y214462D01*
X330709Y215041D01*
Y215668D01*
X330469Y216246D01*
X330026Y216689D01*
X329612Y216861D01*
Y217391D01*
X330026Y217563D01*
X330469Y218006D01*
X330709Y218584D01*
Y219211D01*
X330469Y219790D01*
X330026Y220233D01*
X329447Y220472D01*
D02*
G37*
G36*
X388187Y220079D02*
X387404D01*
X386680Y219779D01*
X386126Y219225D01*
X385827Y218502D01*
Y217719D01*
X386126Y216995D01*
X386680Y216441D01*
X387404Y216142D01*
X388187D01*
X388280Y216180D01*
X388563Y215756D01*
X388489Y215682D01*
X388189Y214959D01*
Y214175D01*
X388489Y213452D01*
X389042Y212898D01*
X389766Y212598D01*
X390549D01*
X391272Y212898D01*
X391826Y213452D01*
X392126Y214175D01*
Y214959D01*
X391826Y215682D01*
X391272Y216236D01*
X390549Y216535D01*
X389766D01*
X389673Y216497D01*
X389390Y216921D01*
X389464Y216995D01*
X389764Y217719D01*
Y218502D01*
X389464Y219225D01*
X388910Y219779D01*
X388187Y220079D01*
D02*
G37*
G36*
X233856Y212992D02*
X233073D01*
X232349Y212692D01*
X232087Y212430D01*
X231824Y212692D01*
X231100Y212992D01*
X230317D01*
X229594Y212692D01*
X229040Y212139D01*
X228740Y211415D01*
Y210632D01*
X229040Y209909D01*
X229594Y209355D01*
X230317Y209055D01*
X231100D01*
X231824Y209355D01*
X232087Y209618D01*
X232349Y209355D01*
X233073Y209055D01*
X233856D01*
X234580Y209355D01*
X235133Y209909D01*
X235433Y210632D01*
Y211415D01*
X235133Y212139D01*
X234580Y212692D01*
X233856Y212992D01*
D02*
G37*
G36*
X345667Y215158D02*
X344884D01*
X344161Y214858D01*
X343607Y214304D01*
X343307Y213580D01*
Y212797D01*
X343607Y212074D01*
X344161Y211520D01*
X344884Y211221D01*
X345667D01*
X346391Y211520D01*
X346944Y212074D01*
X347244Y212797D01*
Y213580D01*
X346944Y214304D01*
X346391Y214858D01*
X345667Y215158D01*
D02*
G37*
G36*
X360943Y213386D02*
X360317D01*
X359738Y213146D01*
X359295Y212703D01*
X359055Y212124D01*
Y211498D01*
X359295Y210919D01*
X359738Y210476D01*
X360317Y210236D01*
X360943D01*
X361522Y210476D01*
X361965Y210919D01*
X362205Y211498D01*
Y212124D01*
X361965Y212703D01*
X361522Y213146D01*
X360943Y213386D01*
D02*
G37*
G36*
X296848Y214173D02*
X296065D01*
X295342Y213874D01*
X294788Y213320D01*
X294488Y212596D01*
Y211813D01*
X294788Y211090D01*
X295342Y210536D01*
X296065Y210236D01*
X296848D01*
X297572Y210536D01*
X298126Y211090D01*
X298425Y211813D01*
Y212596D01*
X298126Y213320D01*
X297572Y213874D01*
X296848Y214173D01*
D02*
G37*
G36*
X371179Y212691D02*
X370553D01*
X369974Y212451D01*
X369531Y212008D01*
X369291Y211429D01*
Y210803D01*
X369531Y210224D01*
X369974Y209781D01*
X370553Y209541D01*
X371179D01*
X371758Y209781D01*
X372201Y210224D01*
X372441Y210803D01*
Y211429D01*
X372201Y212008D01*
X371758Y212451D01*
X371179Y212691D01*
D02*
G37*
G36*
X433462Y212992D02*
X432679D01*
X431956Y212692D01*
X431402Y212139D01*
X431102Y211415D01*
Y210632D01*
X431402Y209909D01*
X431956Y209355D01*
X432679Y209055D01*
X433462D01*
X434186Y209355D01*
X434740Y209909D01*
X435039Y210632D01*
Y211415D01*
X434740Y212139D01*
X434186Y212692D01*
X433462Y212992D01*
D02*
G37*
G36*
X290399Y211055D02*
X289772D01*
X289194Y210815D01*
X288751Y210372D01*
X288511Y209793D01*
Y209167D01*
X288751Y208588D01*
X289194Y208145D01*
X289772Y207905D01*
X290399D01*
X290978Y208145D01*
X291421Y208588D01*
X291660Y209167D01*
Y209793D01*
X291421Y210372D01*
X290978Y210815D01*
X290399Y211055D01*
D02*
G37*
G36*
X349998Y211024D02*
X349215D01*
X348491Y210724D01*
X347937Y210170D01*
X347638Y209447D01*
Y208664D01*
X347937Y207940D01*
X348491Y207386D01*
X349215Y207087D01*
X349998D01*
X350721Y207386D01*
X351275Y207940D01*
X351575Y208664D01*
Y209447D01*
X351275Y210170D01*
X350721Y210724D01*
X349998Y211024D01*
D02*
G37*
G36*
X310156Y208268D02*
X309529D01*
X308950Y208028D01*
X308507Y207585D01*
X308268Y207006D01*
Y206380D01*
X308507Y205801D01*
X308950Y205358D01*
X309529Y205118D01*
X310156D01*
X310735Y205358D01*
X311178Y205801D01*
X311417Y206380D01*
Y207006D01*
X311178Y207585D01*
X310735Y208028D01*
X310156Y208268D01*
D02*
G37*
G36*
X329447Y210630D02*
X328821D01*
X328242Y210390D01*
X327799Y209947D01*
X327559Y209368D01*
Y208742D01*
X327799Y208163D01*
X328242Y207720D01*
X328656Y207549D01*
Y207018D01*
X328242Y206847D01*
X327799Y206404D01*
X327559Y205825D01*
Y205199D01*
X327799Y204620D01*
X328242Y204177D01*
X328821Y203937D01*
X329447D01*
X330026Y204177D01*
X330469Y204620D01*
X330709Y205199D01*
Y205825D01*
X330469Y206404D01*
X330026Y206847D01*
X329612Y207018D01*
Y207549D01*
X330026Y207720D01*
X330469Y208163D01*
X330709Y208742D01*
Y209368D01*
X330469Y209947D01*
X330026Y210390D01*
X329447Y210630D01*
D02*
G37*
G36*
X293620Y206987D02*
X292994D01*
X292415Y206748D01*
X291972Y206305D01*
X291732Y205726D01*
Y205099D01*
X291972Y204520D01*
X292415Y204077D01*
X292994Y203838D01*
X293620D01*
X294199Y204077D01*
X294642Y204520D01*
X294882Y205099D01*
Y205726D01*
X294642Y206305D01*
X294199Y206748D01*
X293620Y206987D01*
D02*
G37*
G36*
X237793Y205512D02*
X237010D01*
X236286Y205212D01*
X235733Y204658D01*
X235433Y203935D01*
Y203152D01*
X235733Y202428D01*
X236286Y201874D01*
X237010Y201575D01*
X237793D01*
X238517Y201874D01*
X239070Y202428D01*
X239370Y203152D01*
Y203935D01*
X239070Y204658D01*
X238517Y205212D01*
X237793Y205512D01*
D02*
G37*
G36*
X425679Y204330D02*
X425053D01*
X424474Y204090D01*
X424031Y203647D01*
X423792Y203068D01*
Y202442D01*
X424031Y201863D01*
X424474Y201420D01*
X425053Y201180D01*
X425679D01*
X426258Y201420D01*
X426701Y201863D01*
X426941Y202442D01*
Y203068D01*
X426701Y203647D01*
X426258Y204090D01*
X425679Y204330D01*
D02*
G37*
G36*
X224540Y204987D02*
X223757D01*
X223033Y204688D01*
X222480Y204134D01*
X222180Y203411D01*
Y202627D01*
X222480Y201904D01*
X223033Y201350D01*
X223757Y201050D01*
X224540D01*
X225263Y201350D01*
X225817Y201904D01*
X226117Y202627D01*
Y203411D01*
X225817Y204134D01*
X225263Y204688D01*
X224540Y204987D01*
D02*
G37*
G36*
X441336Y204724D02*
X440553D01*
X439830Y204425D01*
X439276Y203871D01*
X438976Y203148D01*
Y202364D01*
X439276Y201641D01*
X439830Y201087D01*
X440553Y200787D01*
X441336D01*
X442060Y201087D01*
X442614Y201641D01*
X442913Y202364D01*
Y203148D01*
X442614Y203871D01*
X442060Y204425D01*
X441336Y204724D01*
D02*
G37*
G36*
X409840Y204331D02*
X409057D01*
X408334Y204031D01*
X407780Y203477D01*
X407480Y202754D01*
Y201971D01*
X407780Y201247D01*
X408334Y200693D01*
X409057Y200394D01*
X409840D01*
X410564Y200693D01*
X411118Y201247D01*
X411417Y201971D01*
Y202754D01*
X411118Y203477D01*
X410564Y204031D01*
X409840Y204331D01*
D02*
G37*
G36*
X345667Y204330D02*
X344884D01*
X344161Y204031D01*
X343607Y203477D01*
X343307Y202753D01*
Y201970D01*
X343607Y201247D01*
X344161Y200693D01*
X344884Y200394D01*
X345667D01*
X346391Y200693D01*
X346944Y201247D01*
X347244Y201970D01*
Y202753D01*
X346944Y203477D01*
X346391Y204031D01*
X345667Y204330D01*
D02*
G37*
G36*
X402754Y204330D02*
X401971D01*
X401247Y204031D01*
X400693Y203477D01*
X400394Y202753D01*
Y201970D01*
X400693Y201247D01*
X401247Y200693D01*
X401971Y200394D01*
X402754D01*
X403477Y200693D01*
X404031Y201247D01*
X404331Y201970D01*
Y202753D01*
X404031Y203477D01*
X403477Y204031D01*
X402754Y204330D01*
D02*
G37*
G36*
X420077Y204330D02*
X419293D01*
X418570Y204031D01*
X418016Y203477D01*
X417717Y202753D01*
Y201970D01*
X418016Y201247D01*
X418570Y200693D01*
X419293Y200393D01*
X420077D01*
X420800Y200693D01*
X421354Y201247D01*
X421654Y201970D01*
Y202753D01*
X421354Y203477D01*
X420800Y204031D01*
X420077Y204330D01*
D02*
G37*
G36*
X393411Y204224D02*
X392628D01*
X391904Y203925D01*
X391351Y203371D01*
X391051Y202647D01*
Y201864D01*
X391351Y201141D01*
X391904Y200587D01*
X392628Y200287D01*
X393411D01*
X394135Y200587D01*
X394688Y201141D01*
X394988Y201864D01*
Y202647D01*
X394688Y203371D01*
X394135Y203925D01*
X393411Y204224D01*
D02*
G37*
G36*
X296848Y203937D02*
X296065D01*
X295342Y203637D01*
X294788Y203084D01*
X294488Y202360D01*
Y201577D01*
X294788Y200853D01*
X295342Y200300D01*
X296065Y200000D01*
X296848D01*
X297572Y200300D01*
X298126Y200853D01*
X298425Y201577D01*
Y202360D01*
X298126Y203084D01*
X297572Y203637D01*
X296848Y203937D01*
D02*
G37*
G36*
X360943Y202455D02*
X360317D01*
X359738Y202215D01*
X359295Y201772D01*
X359055Y201193D01*
Y200567D01*
X359295Y199988D01*
X359738Y199545D01*
X360317Y199305D01*
X360943D01*
X361522Y199545D01*
X361965Y199988D01*
X362205Y200567D01*
Y201193D01*
X361965Y201772D01*
X361522Y202215D01*
X360943Y202455D01*
D02*
G37*
G36*
X253935Y200000D02*
X253152D01*
X252428Y199700D01*
X251874Y199147D01*
X251575Y198423D01*
Y197640D01*
X251874Y196916D01*
X252428Y196363D01*
X253152Y196063D01*
X253935D01*
X254658Y196363D01*
X255212Y196916D01*
X255512Y197640D01*
Y198423D01*
X255212Y199147D01*
X254658Y199700D01*
X253935Y200000D01*
D02*
G37*
G36*
X246061D02*
X245278D01*
X244554Y199700D01*
X244001Y199147D01*
X243701Y198423D01*
Y197640D01*
X244001Y196916D01*
X244554Y196363D01*
X245278Y196063D01*
X246061D01*
X246784Y196363D01*
X247338Y196916D01*
X247638Y197640D01*
Y198423D01*
X247338Y199147D01*
X246784Y199700D01*
X246061Y200000D01*
D02*
G37*
G36*
X357105Y198391D02*
X356322D01*
X355598Y198092D01*
X355045Y197538D01*
X354745Y196815D01*
Y196031D01*
X355045Y195308D01*
X355598Y194754D01*
X356322Y194455D01*
X357105D01*
X357828Y194754D01*
X358382Y195308D01*
X358682Y196031D01*
Y196815D01*
X358382Y197538D01*
X357828Y198092D01*
X357105Y198391D01*
D02*
G37*
G36*
X334664D02*
X333881D01*
X333157Y198092D01*
X332604Y197538D01*
X332304Y196815D01*
Y196031D01*
X332604Y195308D01*
X333157Y194754D01*
X333881Y194455D01*
X334664D01*
X335387Y194754D01*
X335941Y195308D01*
X336241Y196031D01*
Y196815D01*
X335941Y197538D01*
X335387Y198092D01*
X334664Y198391D01*
D02*
G37*
G36*
X223752Y200392D02*
X222969D01*
X222246Y200092D01*
X221692Y199538D01*
X221392Y198815D01*
Y198031D01*
X221692Y197308D01*
X221955Y197045D01*
X221692Y196782D01*
X221392Y196059D01*
Y195276D01*
X221692Y194552D01*
X222246Y193998D01*
X222969Y193699D01*
X223752D01*
X224476Y193998D01*
X225030Y194552D01*
X225329Y195276D01*
Y196059D01*
X225030Y196782D01*
X224767Y197045D01*
X225030Y197308D01*
X225329Y198031D01*
Y198815D01*
X225030Y199538D01*
X224476Y200092D01*
X223752Y200392D01*
D02*
G37*
G36*
X393305Y193858D02*
X392522D01*
X391798Y193559D01*
X391245Y193005D01*
X390945Y192281D01*
Y191498D01*
X391245Y190775D01*
X391798Y190221D01*
X392522Y189921D01*
X393305D01*
X394028Y190221D01*
X394582Y190775D01*
X394882Y191498D01*
Y192281D01*
X394582Y193005D01*
X394028Y193559D01*
X393305Y193858D01*
D02*
G37*
G36*
X420077Y193701D02*
X419293D01*
X418570Y193401D01*
X418016Y192847D01*
X417717Y192124D01*
Y191341D01*
X418016Y190617D01*
X418570Y190064D01*
X419293Y189764D01*
X420077D01*
X420800Y190064D01*
X421354Y190617D01*
X421654Y191341D01*
Y192124D01*
X421354Y192847D01*
X420800Y193401D01*
X420077Y193701D01*
D02*
G37*
G36*
X409939D02*
X409156D01*
X408432Y193401D01*
X407878Y192847D01*
X407579Y192124D01*
Y191341D01*
X407878Y190617D01*
X408432Y190064D01*
X409156Y189764D01*
X409939D01*
X410662Y190064D01*
X411216Y190617D01*
X411516Y191341D01*
Y192124D01*
X411216Y192847D01*
X410662Y193401D01*
X409939Y193701D01*
D02*
G37*
G36*
X402754D02*
X401971D01*
X401247Y193401D01*
X400693Y192847D01*
X400394Y192124D01*
Y191341D01*
X400693Y190617D01*
X401247Y190064D01*
X401971Y189764D01*
X402754D01*
X403477Y190064D01*
X404031Y190617D01*
X404331Y191341D01*
Y192124D01*
X404031Y192847D01*
X403477Y193401D01*
X402754Y193701D01*
D02*
G37*
G36*
X371179Y192913D02*
X370553D01*
X369974Y192674D01*
X369531Y192231D01*
X369291Y191652D01*
Y191025D01*
X369531Y190446D01*
X369974Y190004D01*
X370553Y189764D01*
X371179D01*
X371758Y190004D01*
X372201Y190446D01*
X372441Y191025D01*
Y191652D01*
X372201Y192231D01*
X371758Y192674D01*
X371179Y192913D01*
D02*
G37*
G36*
X296848Y193307D02*
X296065D01*
X295342Y193007D01*
X294788Y192454D01*
X294488Y191730D01*
Y190947D01*
X294788Y190224D01*
X295342Y189670D01*
X296065Y189370D01*
X296848D01*
X297572Y189670D01*
X298126Y190224D01*
X298425Y190947D01*
Y191730D01*
X298126Y192454D01*
X297572Y193007D01*
X296848Y193307D01*
D02*
G37*
G36*
X253935Y192520D02*
X253152D01*
X252428Y192220D01*
X251874Y191666D01*
X251575Y190943D01*
Y190160D01*
X251874Y189436D01*
X252428Y188882D01*
X253152Y188583D01*
X253935D01*
X254658Y188882D01*
X255212Y189436D01*
X255512Y190160D01*
Y190943D01*
X255212Y191666D01*
X254658Y192220D01*
X253935Y192520D01*
D02*
G37*
G36*
X246061D02*
X245278D01*
X244554Y192220D01*
X244001Y191666D01*
X243701Y190943D01*
Y190160D01*
X244001Y189436D01*
X244554Y188882D01*
X245278Y188583D01*
X246061D01*
X246784Y188882D01*
X247338Y189436D01*
X247638Y190160D01*
Y190943D01*
X247338Y191666D01*
X246784Y192220D01*
X246061Y192520D01*
D02*
G37*
G36*
X425904Y190945D02*
X425277D01*
X424698Y190705D01*
X424256Y190262D01*
X424016Y189683D01*
Y189057D01*
X424256Y188478D01*
X424698Y188035D01*
X425277Y187795D01*
X425904D01*
X426483Y188035D01*
X426926Y188478D01*
X427165Y189057D01*
Y189683D01*
X426926Y190262D01*
X426483Y190705D01*
X425904Y190945D01*
D02*
G37*
G36*
X290399Y190583D02*
X289772D01*
X289194Y190343D01*
X288751Y189900D01*
X288511Y189321D01*
Y188695D01*
X288751Y188116D01*
X289194Y187673D01*
X289772Y187433D01*
X290399D01*
X290978Y187673D01*
X291421Y188116D01*
X291660Y188695D01*
Y189321D01*
X291421Y189900D01*
X290978Y190343D01*
X290399Y190583D01*
D02*
G37*
G36*
X441336Y191339D02*
X440553D01*
X439830Y191039D01*
X439276Y190485D01*
X438976Y189762D01*
Y188979D01*
X439276Y188255D01*
X439830Y187701D01*
X440553Y187402D01*
X441336D01*
X442060Y187701D01*
X442614Y188255D01*
X442913Y188979D01*
Y189762D01*
X442614Y190485D01*
X442060Y191039D01*
X441336Y191339D01*
D02*
G37*
G36*
X349998Y190551D02*
X349215D01*
X348491Y190252D01*
X347937Y189698D01*
X347638Y188974D01*
Y188191D01*
X347937Y187468D01*
X348491Y186914D01*
X349215Y186614D01*
X349998D01*
X350721Y186914D01*
X351275Y187468D01*
X351575Y188191D01*
Y188974D01*
X351275Y189698D01*
X350721Y190252D01*
X349998Y190551D01*
D02*
G37*
G36*
X310156Y187795D02*
X309529D01*
X308950Y187556D01*
X308507Y187112D01*
X308268Y186534D01*
Y185907D01*
X308507Y185328D01*
X308950Y184885D01*
X309529Y184646D01*
X310156D01*
X310735Y184885D01*
X311178Y185328D01*
X311417Y185907D01*
Y186534D01*
X311178Y187112D01*
X310735Y187556D01*
X310156Y187795D01*
D02*
G37*
G36*
X293620Y186515D02*
X292994D01*
X292415Y186275D01*
X291972Y185832D01*
X291732Y185253D01*
Y184627D01*
X291972Y184048D01*
X292415Y183605D01*
X292994Y183365D01*
X293620D01*
X294199Y183605D01*
X294642Y184048D01*
X294882Y184627D01*
Y185253D01*
X294642Y185832D01*
X294199Y186275D01*
X293620Y186515D01*
D02*
G37*
G36*
X388187Y190157D02*
X387404D01*
X386680Y189858D01*
X386126Y189304D01*
X385827Y188581D01*
Y187797D01*
X386126Y187074D01*
X386680Y186520D01*
X387404Y186221D01*
X388187D01*
X388280Y186259D01*
X388563Y185835D01*
X388489Y185761D01*
X388189Y185037D01*
Y184254D01*
X388489Y183531D01*
X389042Y182977D01*
X389766Y182677D01*
X390549D01*
X391272Y182977D01*
X391826Y183531D01*
X392126Y184254D01*
Y185037D01*
X391826Y185761D01*
X391272Y186314D01*
X390549Y186614D01*
X389766D01*
X389673Y186576D01*
X389390Y186999D01*
X389464Y187074D01*
X389764Y187797D01*
Y188581D01*
X389464Y189304D01*
X388910Y189858D01*
X388187Y190157D01*
D02*
G37*
G36*
X329447Y188976D02*
X328821D01*
X328242Y188737D01*
X327799Y188294D01*
X327559Y187715D01*
Y187088D01*
X327799Y186510D01*
X328242Y186066D01*
X328656Y185895D01*
Y185365D01*
X328242Y185193D01*
X327799Y184750D01*
X327559Y184171D01*
Y183545D01*
X327799Y182966D01*
X328242Y182523D01*
X328821Y182283D01*
X329447D01*
X330026Y182523D01*
X330469Y182966D01*
X330709Y183545D01*
Y184171D01*
X330469Y184750D01*
X330026Y185193D01*
X329612Y185365D01*
Y185895D01*
X330026Y186066D01*
X330469Y186510D01*
X330709Y187088D01*
Y187715D01*
X330469Y188294D01*
X330026Y188737D01*
X329447Y188976D01*
D02*
G37*
G36*
X345667Y183661D02*
X344884D01*
X344161Y183362D01*
X343607Y182808D01*
X343307Y182085D01*
Y181301D01*
X343607Y180578D01*
X344161Y180024D01*
X344884Y179724D01*
X345667D01*
X346391Y180024D01*
X346944Y180578D01*
X347244Y181301D01*
Y182085D01*
X346944Y182808D01*
X346391Y183362D01*
X345667Y183661D01*
D02*
G37*
G36*
X360943Y182677D02*
X360317D01*
X359738Y182437D01*
X359295Y181994D01*
X359055Y181416D01*
Y180789D01*
X359295Y180210D01*
X359738Y179767D01*
X360317Y179527D01*
X360943D01*
X361522Y179767D01*
X361965Y180210D01*
X362205Y180789D01*
Y181416D01*
X361965Y181994D01*
X361522Y182437D01*
X360943Y182677D01*
D02*
G37*
G36*
X296848Y183071D02*
X296065D01*
X295342Y182771D01*
X294788Y182217D01*
X294488Y181494D01*
Y180711D01*
X294788Y179987D01*
X295342Y179434D01*
X296065Y179134D01*
X296848D01*
X297572Y179434D01*
X298126Y179987D01*
X298425Y180711D01*
Y181494D01*
X298126Y182217D01*
X297572Y182771D01*
X296848Y183071D01*
D02*
G37*
G36*
X433462Y183071D02*
X432679D01*
X431956Y182771D01*
X431402Y182217D01*
X431102Y181494D01*
Y180711D01*
X431402Y179987D01*
X431956Y179434D01*
X432679Y179134D01*
X433462D01*
X434186Y179434D01*
X434740Y179987D01*
X435039Y180711D01*
Y181494D01*
X434740Y182217D01*
X434186Y182771D01*
X433462Y183071D01*
D02*
G37*
G36*
X371179Y181982D02*
X370553D01*
X369974Y181742D01*
X369531Y181299D01*
X369291Y180721D01*
Y180094D01*
X369531Y179515D01*
X369974Y179072D01*
X370553Y178832D01*
X371179D01*
X371758Y179072D01*
X372201Y179515D01*
X372441Y180094D01*
Y180721D01*
X372201Y181299D01*
X371758Y181742D01*
X371179Y181982D01*
D02*
G37*
G36*
X290399Y180346D02*
X289772D01*
X289194Y180107D01*
X288751Y179664D01*
X288511Y179085D01*
Y178458D01*
X288751Y177880D01*
X289194Y177436D01*
X289772Y177197D01*
X290399D01*
X290978Y177436D01*
X291421Y177880D01*
X291660Y178458D01*
Y179085D01*
X291421Y179664D01*
X290978Y180107D01*
X290399Y180346D01*
D02*
G37*
G36*
X349998Y180709D02*
X349215D01*
X348491Y180409D01*
X347937Y179855D01*
X347638Y179132D01*
Y178349D01*
X347937Y177625D01*
X348491Y177072D01*
X349215Y176772D01*
X349998D01*
X350721Y177072D01*
X351275Y177625D01*
X351575Y178349D01*
Y179132D01*
X351275Y179855D01*
X350721Y180409D01*
X349998Y180709D01*
D02*
G37*
G36*
X310156Y177559D02*
X309529D01*
X308950Y177319D01*
X308507Y176876D01*
X308268Y176297D01*
Y175671D01*
X308507Y175092D01*
X308950Y174649D01*
X309529Y174409D01*
X310156D01*
X310735Y174649D01*
X311177Y175092D01*
X311417Y175671D01*
Y176297D01*
X311177Y176876D01*
X310735Y177319D01*
X310156Y177559D01*
D02*
G37*
G36*
X293620Y176278D02*
X292994D01*
X292415Y176039D01*
X291972Y175596D01*
X291732Y175017D01*
Y174390D01*
X291972Y173812D01*
X292415Y173369D01*
X292994Y173129D01*
X293620D01*
X294199Y173369D01*
X294642Y173812D01*
X294882Y174390D01*
Y175017D01*
X294642Y175596D01*
X294199Y176039D01*
X293620Y176278D01*
D02*
G37*
G36*
X329447Y179134D02*
X328821D01*
X328242Y178894D01*
X327799Y178451D01*
X327559Y177872D01*
Y177246D01*
X327799Y176667D01*
X328242Y176224D01*
X328656Y176052D01*
Y175522D01*
X328242Y175351D01*
X327799Y174908D01*
X327559Y174329D01*
Y173703D01*
X327799Y173124D01*
X328242Y172681D01*
X328821Y172441D01*
X329447D01*
X330026Y172681D01*
X330469Y173124D01*
X330709Y173703D01*
Y174329D01*
X330469Y174908D01*
X330026Y175351D01*
X329612Y175522D01*
Y176052D01*
X330026Y176224D01*
X330469Y176667D01*
X330709Y177246D01*
Y177872D01*
X330469Y178451D01*
X330026Y178894D01*
X329447Y179134D01*
D02*
G37*
G36*
X345667Y173819D02*
X344884D01*
X344161Y173519D01*
X343607Y172966D01*
X343307Y172242D01*
Y171459D01*
X343607Y170735D01*
X344161Y170182D01*
X344884Y169882D01*
X345667D01*
X346391Y170182D01*
X346944Y170735D01*
X347244Y171459D01*
Y172242D01*
X346944Y172966D01*
X346391Y173519D01*
X345667Y173819D01*
D02*
G37*
G36*
X371179Y172441D02*
X370553D01*
X369974Y172201D01*
X369531Y171758D01*
X369291Y171179D01*
Y170553D01*
X369531Y169974D01*
X369974Y169531D01*
X370553Y169291D01*
X371179D01*
X371758Y169531D01*
X372201Y169974D01*
X372441Y170553D01*
Y171179D01*
X372201Y171758D01*
X371758Y172201D01*
X371179Y172441D01*
D02*
G37*
G36*
X425757Y172835D02*
X424974D01*
X424250Y172535D01*
X423696Y171981D01*
X423397Y171258D01*
Y170475D01*
X423696Y169751D01*
X424250Y169197D01*
X424974Y168898D01*
X425757D01*
X426480Y169197D01*
X427034Y169751D01*
X427334Y170475D01*
Y171258D01*
X427034Y171981D01*
X426480Y172535D01*
X425757Y172835D01*
D02*
G37*
G36*
X296848D02*
X296065D01*
X295342Y172535D01*
X294788Y171981D01*
X294488Y171258D01*
Y170475D01*
X294788Y169751D01*
X295342Y169197D01*
X296065Y168898D01*
X296848D01*
X297572Y169197D01*
X298126Y169751D01*
X298425Y170475D01*
Y171258D01*
X298126Y171981D01*
X297572Y172535D01*
X296848Y172835D01*
D02*
G37*
G36*
X393305Y172598D02*
X392522D01*
X391798Y172299D01*
X391245Y171745D01*
X390945Y171021D01*
Y170238D01*
X391245Y169515D01*
X391798Y168961D01*
X392522Y168661D01*
X393305D01*
X394028Y168961D01*
X394582Y169515D01*
X394882Y170238D01*
Y171021D01*
X394582Y171745D01*
X394028Y172299D01*
X393305Y172598D01*
D02*
G37*
G36*
X360943Y171746D02*
X360317D01*
X359738Y171506D01*
X359295Y171063D01*
X359055Y170484D01*
Y169858D01*
X359295Y169279D01*
X359738Y168836D01*
X360317Y168596D01*
X360943D01*
X361522Y168836D01*
X361965Y169279D01*
X362205Y169858D01*
Y170484D01*
X361965Y171063D01*
X361522Y171506D01*
X360943Y171746D01*
D02*
G37*
G36*
X441336Y172441D02*
X440553D01*
X439830Y172141D01*
X439276Y171588D01*
X438976Y170864D01*
Y170081D01*
X439276Y169357D01*
X439830Y168804D01*
X440553Y168504D01*
X441336D01*
X442060Y168804D01*
X442614Y169357D01*
X442913Y170081D01*
Y170864D01*
X442614Y171588D01*
X442060Y172141D01*
X441336Y172441D01*
D02*
G37*
G36*
X420077Y172441D02*
X419293D01*
X418570Y172141D01*
X418016Y171588D01*
X417717Y170864D01*
Y170081D01*
X418016Y169357D01*
X418570Y168804D01*
X419293Y168504D01*
X420077D01*
X420800Y168804D01*
X421354Y169357D01*
X421654Y170081D01*
Y170864D01*
X421354Y171588D01*
X420800Y172141D01*
X420077Y172441D01*
D02*
G37*
G36*
X409939D02*
X409156D01*
X408432Y172141D01*
X407878Y171588D01*
X407579Y170864D01*
Y170081D01*
X407878Y169357D01*
X408432Y168804D01*
X409156Y168504D01*
X409939D01*
X410662Y168804D01*
X411216Y169357D01*
X411516Y170081D01*
Y170864D01*
X411216Y171588D01*
X410662Y172141D01*
X409939Y172441D01*
D02*
G37*
G36*
X402754D02*
X401971D01*
X401247Y172141D01*
X400693Y171588D01*
X400394Y170864D01*
Y170081D01*
X400693Y169357D01*
X401247Y168804D01*
X401971Y168504D01*
X402754D01*
X403477Y168804D01*
X404031Y169357D01*
X404331Y170081D01*
Y170864D01*
X404031Y171588D01*
X403477Y172141D01*
X402754Y172441D01*
D02*
G37*
G36*
X290399Y170110D02*
X289772D01*
X289194Y169870D01*
X288751Y169427D01*
X288511Y168849D01*
Y168222D01*
X288751Y167643D01*
X289194Y167200D01*
X289772Y166961D01*
X290399D01*
X290978Y167200D01*
X291421Y167643D01*
X291660Y168222D01*
Y168849D01*
X291421Y169427D01*
X290978Y169870D01*
X290399Y170110D01*
D02*
G37*
G36*
X349968Y169894D02*
X349185D01*
X348462Y169594D01*
X347908Y169041D01*
X347608Y168317D01*
Y167534D01*
X347908Y166811D01*
X348462Y166257D01*
X349185Y165957D01*
X349968D01*
X350692Y166257D01*
X351246Y166811D01*
X351545Y167534D01*
Y168317D01*
X351246Y169041D01*
X350692Y169594D01*
X349968Y169894D01*
D02*
G37*
G36*
X310156Y167323D02*
X309529D01*
X308950Y167083D01*
X308507Y166640D01*
X308268Y166061D01*
Y165435D01*
X308507Y164856D01*
X308950Y164413D01*
X309529Y164173D01*
X310156D01*
X310735Y164413D01*
X311178Y164856D01*
X311417Y165435D01*
Y166061D01*
X311178Y166640D01*
X310735Y167083D01*
X310156Y167323D01*
D02*
G37*
G36*
X293620Y166042D02*
X292994D01*
X292415Y165803D01*
X291972Y165360D01*
X291732Y164781D01*
Y164154D01*
X291972Y163575D01*
X292415Y163133D01*
X292994Y162893D01*
X293620D01*
X294199Y163133D01*
X294642Y163575D01*
X294882Y164154D01*
Y164781D01*
X294642Y165360D01*
X294199Y165803D01*
X293620Y166042D01*
D02*
G37*
G36*
X329447Y169291D02*
X328821D01*
X328242Y169052D01*
X327799Y168609D01*
X327559Y168030D01*
Y167403D01*
X327799Y166824D01*
X328242Y166382D01*
X328656Y166210D01*
Y165680D01*
X328242Y165508D01*
X327799Y165065D01*
X327559Y164487D01*
Y163860D01*
X327799Y163281D01*
X328242Y162838D01*
X328821Y162598D01*
X329447D01*
X330026Y162838D01*
X330469Y163281D01*
X330709Y163860D01*
Y164487D01*
X330469Y165065D01*
X330026Y165508D01*
X329612Y165680D01*
Y166210D01*
X330026Y166382D01*
X330469Y166824D01*
X330709Y167403D01*
Y168030D01*
X330469Y168609D01*
X330026Y169052D01*
X329447Y169291D01*
D02*
G37*
G36*
X388187Y168898D02*
X387404D01*
X386680Y168598D01*
X386126Y168044D01*
X385827Y167321D01*
Y166538D01*
X386126Y165814D01*
X386680Y165260D01*
X387404Y164961D01*
X388187D01*
X388280Y164999D01*
X388563Y164575D01*
X388489Y164501D01*
X388189Y163777D01*
Y162994D01*
X388489Y162271D01*
X389042Y161717D01*
X389766Y161417D01*
X390549D01*
X391272Y161717D01*
X391826Y162271D01*
X392126Y162994D01*
Y163777D01*
X391826Y164501D01*
X391272Y165055D01*
X390549Y165354D01*
X389766D01*
X389673Y165316D01*
X389390Y165740D01*
X389464Y165814D01*
X389764Y166538D01*
Y167321D01*
X389464Y168044D01*
X388910Y168598D01*
X388187Y168898D01*
D02*
G37*
G36*
X345667Y163976D02*
X344884D01*
X344161Y163677D01*
X343607Y163123D01*
X343307Y162399D01*
Y161616D01*
X343607Y160893D01*
X344161Y160339D01*
X344884Y160039D01*
X345667D01*
X346391Y160339D01*
X346944Y160893D01*
X347244Y161616D01*
Y162399D01*
X346944Y163123D01*
X346391Y163677D01*
X345667Y163976D01*
D02*
G37*
G36*
X360943Y162205D02*
X360317D01*
X359738Y161965D01*
X359295Y161522D01*
X359055Y160943D01*
Y160317D01*
X359295Y159738D01*
X359738Y159295D01*
X360317Y159055D01*
X360943D01*
X361522Y159295D01*
X361965Y159738D01*
X362205Y160317D01*
Y160943D01*
X361965Y161522D01*
X361522Y161965D01*
X360943Y162205D01*
D02*
G37*
G36*
X296848Y162598D02*
X296065D01*
X295342Y162299D01*
X294788Y161745D01*
X294488Y161021D01*
Y160238D01*
X294788Y159515D01*
X295342Y158961D01*
X296065Y158661D01*
X296848D01*
X297572Y158961D01*
X298126Y159515D01*
X298425Y160238D01*
Y161021D01*
X298126Y161745D01*
X297572Y162299D01*
X296848Y162598D01*
D02*
G37*
G36*
X371179Y161510D02*
X370553D01*
X369974Y161270D01*
X369531Y160827D01*
X369291Y160248D01*
Y159622D01*
X369531Y159043D01*
X369974Y158600D01*
X370553Y158360D01*
X371179D01*
X371758Y158600D01*
X372201Y159043D01*
X372441Y159622D01*
Y160248D01*
X372201Y160827D01*
X371758Y161270D01*
X371179Y161510D01*
D02*
G37*
G36*
X433462Y161811D02*
X432679D01*
X431956Y161511D01*
X431402Y160958D01*
X431102Y160234D01*
Y159451D01*
X431402Y158727D01*
X431956Y158174D01*
X432679Y157874D01*
X433462D01*
X434186Y158174D01*
X434740Y158727D01*
X435039Y159451D01*
Y160234D01*
X434740Y160958D01*
X434186Y161511D01*
X433462Y161811D01*
D02*
G37*
G36*
X290399Y159874D02*
X289772D01*
X289194Y159634D01*
X288751Y159191D01*
X288511Y158612D01*
Y157986D01*
X288751Y157407D01*
X289194Y156964D01*
X289772Y156724D01*
X290399D01*
X290978Y156964D01*
X291421Y157407D01*
X291660Y157986D01*
Y158612D01*
X291421Y159191D01*
X290978Y159634D01*
X290399Y159874D01*
D02*
G37*
G36*
X349998Y159843D02*
X349215D01*
X348491Y159543D01*
X347937Y158989D01*
X347638Y158266D01*
Y157482D01*
X347937Y156759D01*
X348491Y156205D01*
X349215Y155905D01*
X349998D01*
X350721Y156205D01*
X351275Y156759D01*
X351575Y157482D01*
Y158266D01*
X351275Y158989D01*
X350721Y159543D01*
X349998Y159843D01*
D02*
G37*
G36*
X310156Y157087D02*
X309529D01*
X308950Y156847D01*
X308507Y156404D01*
X308268Y155825D01*
Y155199D01*
X308507Y154620D01*
X308950Y154177D01*
X309529Y153937D01*
X310156D01*
X310735Y154177D01*
X311178Y154620D01*
X311417Y155199D01*
Y155825D01*
X311178Y156404D01*
X310735Y156847D01*
X310156Y157087D01*
D02*
G37*
G36*
X329447Y159449D02*
X328821D01*
X328242Y159209D01*
X327799Y158766D01*
X327559Y158187D01*
Y157561D01*
X327799Y156982D01*
X328242Y156539D01*
X328656Y156368D01*
Y155837D01*
X328242Y155666D01*
X327799Y155223D01*
X327559Y154644D01*
Y154017D01*
X327799Y153439D01*
X328242Y152996D01*
X328821Y152756D01*
X329447D01*
X330026Y152996D01*
X330469Y153439D01*
X330709Y154017D01*
Y154644D01*
X330469Y155223D01*
X330026Y155666D01*
X329612Y155837D01*
Y156368D01*
X330026Y156539D01*
X330469Y156982D01*
X330709Y157561D01*
Y158187D01*
X330469Y158766D01*
X330026Y159209D01*
X329447Y159449D01*
D02*
G37*
G36*
X293620Y155806D02*
X292994D01*
X292415Y155566D01*
X291972Y155123D01*
X291732Y154545D01*
Y153918D01*
X291972Y153339D01*
X292415Y152896D01*
X292994Y152656D01*
X293620D01*
X294199Y152896D01*
X294642Y153339D01*
X294882Y153918D01*
Y154545D01*
X294642Y155123D01*
X294199Y155566D01*
X293620Y155806D01*
D02*
G37*
G36*
X425679Y153148D02*
X425053D01*
X424474Y152909D01*
X424031Y152466D01*
X423792Y151887D01*
Y151260D01*
X424031Y150682D01*
X424474Y150239D01*
X425053Y149999D01*
X425679D01*
X426258Y150239D01*
X426701Y150682D01*
X426941Y151260D01*
Y151887D01*
X426701Y152466D01*
X426258Y152909D01*
X425679Y153148D01*
D02*
G37*
G36*
X441336Y153543D02*
X440553D01*
X439830Y153244D01*
X439276Y152690D01*
X438976Y151966D01*
Y151183D01*
X439276Y150460D01*
X439830Y149906D01*
X440553Y149606D01*
X441336D01*
X442060Y149906D01*
X442614Y150460D01*
X442913Y151183D01*
Y151966D01*
X442614Y152690D01*
X442060Y153244D01*
X441336Y153543D01*
D02*
G37*
G36*
X409840Y153150D02*
X409057D01*
X408334Y152850D01*
X407780Y152296D01*
X407480Y151573D01*
Y150790D01*
X407780Y150066D01*
X408334Y149512D01*
X409057Y149213D01*
X409840D01*
X410564Y149512D01*
X411118Y150066D01*
X411417Y150790D01*
Y151573D01*
X411118Y152296D01*
X410564Y152850D01*
X409840Y153150D01*
D02*
G37*
G36*
X402754Y153149D02*
X401971D01*
X401247Y152850D01*
X400693Y152296D01*
X400394Y151572D01*
Y150789D01*
X400693Y150066D01*
X401247Y149512D01*
X401971Y149212D01*
X402754D01*
X403477Y149512D01*
X404031Y150066D01*
X404331Y150789D01*
Y151572D01*
X404031Y152296D01*
X403477Y152850D01*
X402754Y153149D01*
D02*
G37*
G36*
X345667Y153149D02*
X344884D01*
X344161Y152850D01*
X343607Y152296D01*
X343307Y151572D01*
Y150789D01*
X343607Y150066D01*
X344161Y149512D01*
X344884Y149212D01*
X345667D01*
X346391Y149512D01*
X346944Y150066D01*
X347244Y150789D01*
Y151572D01*
X346944Y152296D01*
X346391Y152850D01*
X345667Y153149D01*
D02*
G37*
G36*
X420077Y153149D02*
X419293D01*
X418570Y152849D01*
X418016Y152296D01*
X417717Y151572D01*
Y150789D01*
X418016Y150066D01*
X418570Y149512D01*
X419293Y149212D01*
X420077D01*
X420800Y149512D01*
X421354Y150066D01*
X421654Y150789D01*
Y151572D01*
X421354Y152296D01*
X420800Y152849D01*
X420077Y153149D01*
D02*
G37*
G36*
X393411Y153043D02*
X392628D01*
X391904Y152743D01*
X391351Y152190D01*
X391051Y151466D01*
Y150683D01*
X391351Y149960D01*
X391904Y149406D01*
X392628Y149106D01*
X393411D01*
X394135Y149406D01*
X394688Y149960D01*
X394988Y150683D01*
Y151466D01*
X394688Y152190D01*
X394135Y152743D01*
X393411Y153043D01*
D02*
G37*
G36*
X296848Y152362D02*
X296065D01*
X295342Y152062D01*
X294788Y151509D01*
X294488Y150785D01*
Y150002D01*
X294788Y149279D01*
X295342Y148725D01*
X296065Y148425D01*
X296848D01*
X297572Y148725D01*
X298126Y149279D01*
X298425Y150002D01*
Y150785D01*
X298126Y151509D01*
X297572Y152062D01*
X296848Y152362D01*
D02*
G37*
G36*
X360943Y151274D02*
X360317D01*
X359738Y151034D01*
X359295Y150591D01*
X359055Y150012D01*
Y149385D01*
X359295Y148807D01*
X359738Y148364D01*
X360317Y148124D01*
X360943D01*
X361522Y148364D01*
X361965Y148807D01*
X362205Y149385D01*
Y150012D01*
X361965Y150591D01*
X361522Y151034D01*
X360943Y151274D01*
D02*
G37*
G36*
X334644Y151969D02*
X333860D01*
X333137Y151669D01*
X332583Y151115D01*
X332283Y150392D01*
Y149608D01*
X332583Y148885D01*
X333137Y148331D01*
X333860Y148031D01*
X334644D01*
X335367Y148331D01*
X335921Y148885D01*
X336221Y149608D01*
Y150392D01*
X335921Y151115D01*
X335367Y151669D01*
X334644Y151969D01*
D02*
G37*
G36*
X345667Y146850D02*
X344884D01*
X344161Y146551D01*
X343607Y145997D01*
X343307Y145273D01*
Y144490D01*
X343607Y143767D01*
X344161Y143213D01*
X344884Y142913D01*
X345667D01*
X346391Y143213D01*
X346944Y143767D01*
X347244Y144490D01*
Y145273D01*
X346944Y145997D01*
X346391Y146551D01*
X345667Y146850D01*
D02*
G37*
G36*
X393305Y142677D02*
X392522D01*
X391798Y142377D01*
X391245Y141824D01*
X390945Y141100D01*
Y140317D01*
X391245Y139594D01*
X391798Y139040D01*
X392522Y138740D01*
X393305D01*
X394028Y139040D01*
X394582Y139594D01*
X394882Y140317D01*
Y141100D01*
X394582Y141824D01*
X394028Y142377D01*
X393305Y142677D01*
D02*
G37*
G36*
X420077Y142520D02*
X419293D01*
X418570Y142220D01*
X418016Y141666D01*
X417717Y140943D01*
Y140160D01*
X418016Y139436D01*
X418570Y138882D01*
X419293Y138583D01*
X420077D01*
X420800Y138882D01*
X421354Y139436D01*
X421654Y140160D01*
Y140943D01*
X421354Y141666D01*
X420800Y142220D01*
X420077Y142520D01*
D02*
G37*
G36*
X409939D02*
X409156D01*
X408432Y142220D01*
X407878Y141666D01*
X407579Y140943D01*
Y140160D01*
X407878Y139436D01*
X408432Y138882D01*
X409156Y138583D01*
X409939D01*
X410662Y138882D01*
X411216Y139436D01*
X411516Y140160D01*
Y140943D01*
X411216Y141666D01*
X410662Y142220D01*
X409939Y142520D01*
D02*
G37*
G36*
X402754D02*
X401971D01*
X401247Y142220D01*
X400693Y141666D01*
X400394Y140943D01*
Y140160D01*
X400693Y139436D01*
X401247Y138882D01*
X401971Y138583D01*
X402754D01*
X403477Y138882D01*
X404031Y139436D01*
X404331Y140160D01*
Y140943D01*
X404031Y141666D01*
X403477Y142220D01*
X402754Y142520D01*
D02*
G37*
G36*
X357084D02*
X356301D01*
X355578Y142220D01*
X355024Y141666D01*
X354724Y140943D01*
Y140160D01*
X355024Y139436D01*
X355578Y138882D01*
X356301Y138583D01*
X357084D01*
X357808Y138882D01*
X358362Y139436D01*
X358661Y140160D01*
Y140943D01*
X358362Y141666D01*
X357808Y142220D01*
X357084Y142520D01*
D02*
G37*
G36*
X296848D02*
X296065D01*
X295342Y142220D01*
X294788Y141666D01*
X294488Y140943D01*
Y140160D01*
X294788Y139436D01*
X295342Y138882D01*
X296065Y138583D01*
X296848D01*
X297572Y138882D01*
X298126Y139436D01*
X298425Y140160D01*
Y140943D01*
X298126Y141666D01*
X297572Y142220D01*
X296848Y142520D01*
D02*
G37*
G36*
X371179Y141732D02*
X370553D01*
X369974Y141492D01*
X369531Y141050D01*
X369291Y140471D01*
Y139844D01*
X369531Y139265D01*
X369974Y138822D01*
X370553Y138583D01*
X371179D01*
X371758Y138822D01*
X372201Y139265D01*
X372441Y139844D01*
Y140471D01*
X372201Y141050D01*
X371758Y141492D01*
X371179Y141732D01*
D02*
G37*
G36*
X425679Y139763D02*
X425053D01*
X424474Y139523D01*
X424031Y139080D01*
X423792Y138501D01*
Y137875D01*
X424031Y137296D01*
X424474Y136853D01*
X425053Y136613D01*
X425679D01*
X426258Y136853D01*
X426701Y137296D01*
X426941Y137875D01*
Y138501D01*
X426701Y139080D01*
X426258Y139523D01*
X425679Y139763D01*
D02*
G37*
G36*
X290399Y139401D02*
X289772D01*
X289194Y139162D01*
X288751Y138719D01*
X288511Y138140D01*
Y137513D01*
X288751Y136935D01*
X289194Y136492D01*
X289772Y136252D01*
X290399D01*
X290978Y136492D01*
X291421Y136935D01*
X291660Y137513D01*
Y138140D01*
X291421Y138719D01*
X290978Y139162D01*
X290399Y139401D01*
D02*
G37*
G36*
X441336Y140157D02*
X440553D01*
X439830Y139858D01*
X439276Y139304D01*
X438976Y138581D01*
Y137797D01*
X439276Y137074D01*
X439830Y136520D01*
X440553Y136221D01*
X441336D01*
X442060Y136520D01*
X442614Y137074D01*
X442913Y137797D01*
Y138581D01*
X442614Y139304D01*
X442060Y139858D01*
X441336Y140157D01*
D02*
G37*
G36*
X349998Y139370D02*
X349215D01*
X348491Y139071D01*
X347937Y138517D01*
X347638Y137793D01*
Y137010D01*
X347937Y136287D01*
X348491Y135733D01*
X349215Y135433D01*
X349998D01*
X350721Y135733D01*
X351275Y136287D01*
X351575Y137010D01*
Y137793D01*
X351275Y138517D01*
X350721Y139071D01*
X349998Y139370D01*
D02*
G37*
G36*
X310156Y136614D02*
X309529D01*
X308950Y136374D01*
X308507Y135931D01*
X308268Y135353D01*
Y134726D01*
X308507Y134147D01*
X308950Y133704D01*
X309529Y133465D01*
X310156D01*
X310735Y133704D01*
X311178Y134147D01*
X311417Y134726D01*
Y135353D01*
X311178Y135931D01*
X310735Y136374D01*
X310156Y136614D01*
D02*
G37*
G36*
X293620Y135334D02*
X292994D01*
X292415Y135094D01*
X291972Y134651D01*
X291732Y134072D01*
Y133446D01*
X291972Y132867D01*
X292415Y132424D01*
X292994Y132184D01*
X293620D01*
X294199Y132424D01*
X294642Y132867D01*
X294882Y133446D01*
Y134072D01*
X294642Y134651D01*
X294199Y135094D01*
X293620Y135334D01*
D02*
G37*
G36*
X388187Y138976D02*
X387404D01*
X386680Y138677D01*
X386126Y138123D01*
X385827Y137399D01*
Y136616D01*
X386126Y135893D01*
X386680Y135339D01*
X387404Y135039D01*
X388187D01*
X388280Y135078D01*
X388563Y134654D01*
X388489Y134580D01*
X388189Y133856D01*
Y133073D01*
X388489Y132350D01*
X389042Y131796D01*
X389766Y131496D01*
X390549D01*
X391273Y131796D01*
X391826Y132350D01*
X392126Y133073D01*
Y133856D01*
X391826Y134580D01*
X391273Y135133D01*
X390549Y135433D01*
X389766D01*
X389673Y135395D01*
X389390Y135818D01*
X389464Y135893D01*
X389764Y136616D01*
Y137399D01*
X389464Y138123D01*
X388910Y138677D01*
X388187Y138976D01*
D02*
G37*
G36*
X329447Y137795D02*
X328821D01*
X328242Y137556D01*
X327799Y137112D01*
X327559Y136534D01*
Y135907D01*
X327799Y135328D01*
X328242Y134885D01*
X328656Y134714D01*
Y134184D01*
X328242Y134012D01*
X327799Y133569D01*
X327559Y132990D01*
Y132364D01*
X327799Y131785D01*
X328242Y131342D01*
X328821Y131102D01*
X329447D01*
X330026Y131342D01*
X330469Y131785D01*
X330709Y132364D01*
Y132990D01*
X330469Y133569D01*
X330026Y134012D01*
X329612Y134184D01*
Y134714D01*
X330026Y134885D01*
X330469Y135328D01*
X330709Y135907D01*
Y136534D01*
X330469Y137112D01*
X330026Y137556D01*
X329447Y137795D01*
D02*
G37*
G36*
X345667Y132480D02*
X344884D01*
X344161Y132181D01*
X343607Y131627D01*
X343307Y130903D01*
Y130120D01*
X343607Y129397D01*
X344161Y128843D01*
X344884Y128543D01*
X345667D01*
X346391Y128843D01*
X346944Y129397D01*
X347244Y130120D01*
Y130903D01*
X346944Y131627D01*
X346391Y132181D01*
X345667Y132480D01*
D02*
G37*
G36*
X360943Y131496D02*
X360317D01*
X359738Y131256D01*
X359295Y130813D01*
X359055Y130235D01*
Y129608D01*
X359295Y129029D01*
X359738Y128586D01*
X360317Y128347D01*
X360943D01*
X361522Y128586D01*
X361965Y129029D01*
X362205Y129608D01*
Y130235D01*
X361965Y130813D01*
X361522Y131256D01*
X360943Y131496D01*
D02*
G37*
G36*
X296848Y131890D02*
X296065D01*
X295342Y131590D01*
X294788Y131036D01*
X294488Y130313D01*
Y129530D01*
X294788Y128806D01*
X295342Y128252D01*
X296065Y127953D01*
X296848D01*
X297572Y128252D01*
X298126Y128806D01*
X298425Y129530D01*
Y130313D01*
X298126Y131036D01*
X297572Y131590D01*
X296848Y131890D01*
D02*
G37*
G36*
X433462Y131890D02*
X432679D01*
X431956Y131590D01*
X431402Y131036D01*
X431102Y130313D01*
Y129530D01*
X431402Y128806D01*
X431956Y128252D01*
X432679Y127953D01*
X433462D01*
X434186Y128252D01*
X434740Y128806D01*
X435039Y129530D01*
Y130313D01*
X434740Y131036D01*
X434186Y131590D01*
X433462Y131890D01*
D02*
G37*
G36*
X371179Y130801D02*
X370553D01*
X369974Y130561D01*
X369531Y130118D01*
X369291Y129540D01*
Y128913D01*
X369531Y128334D01*
X369974Y127891D01*
X370553Y127651D01*
X371179D01*
X371758Y127891D01*
X372201Y128334D01*
X372441Y128913D01*
Y129540D01*
X372201Y130118D01*
X371758Y130561D01*
X371179Y130801D01*
D02*
G37*
G36*
X290399Y129165D02*
X289772D01*
X289194Y128926D01*
X288751Y128482D01*
X288511Y127904D01*
Y127277D01*
X288751Y126698D01*
X289194Y126255D01*
X289772Y126016D01*
X290399D01*
X290978Y126255D01*
X291421Y126698D01*
X291660Y127277D01*
Y127904D01*
X291421Y128482D01*
X290978Y128926D01*
X290399Y129165D01*
D02*
G37*
G36*
X349998Y129528D02*
X349215D01*
X348491Y129228D01*
X347937Y128674D01*
X347638Y127951D01*
Y127168D01*
X347937Y126444D01*
X348491Y125891D01*
X349215Y125591D01*
X349998D01*
X350721Y125891D01*
X351275Y126444D01*
X351575Y127168D01*
Y127951D01*
X351275Y128674D01*
X350721Y129228D01*
X349998Y129528D01*
D02*
G37*
G36*
X310156Y126378D02*
X309529D01*
X308950Y126138D01*
X308507Y125695D01*
X308268Y125116D01*
Y124490D01*
X308507Y123911D01*
X308950Y123468D01*
X309529Y123228D01*
X310156D01*
X310735Y123468D01*
X311177Y123911D01*
X311417Y124490D01*
Y125116D01*
X311177Y125695D01*
X310735Y126138D01*
X310156Y126378D01*
D02*
G37*
G36*
X293620Y125098D02*
X292994D01*
X292415Y124858D01*
X291972Y124415D01*
X291732Y123836D01*
Y123209D01*
X291972Y122631D01*
X292415Y122188D01*
X292994Y121948D01*
X293620D01*
X294199Y122188D01*
X294642Y122631D01*
X294882Y123209D01*
Y123836D01*
X294642Y124415D01*
X294199Y124858D01*
X293620Y125098D01*
D02*
G37*
G36*
X329447Y127953D02*
X328821D01*
X328242Y127713D01*
X327799Y127270D01*
X327559Y126691D01*
Y126065D01*
X327799Y125486D01*
X328242Y125043D01*
X328656Y124871D01*
Y124341D01*
X328242Y124170D01*
X327799Y123727D01*
X327559Y123148D01*
Y122521D01*
X327799Y121943D01*
X328242Y121500D01*
X328821Y121260D01*
X329447D01*
X330026Y121500D01*
X330469Y121943D01*
X330709Y122521D01*
Y123148D01*
X330469Y123727D01*
X330026Y124170D01*
X329612Y124341D01*
Y124871D01*
X330026Y125043D01*
X330469Y125486D01*
X330709Y126065D01*
Y126691D01*
X330469Y127270D01*
X330026Y127713D01*
X329447Y127953D01*
D02*
G37*
G36*
X345667Y122638D02*
X344884D01*
X344161Y122338D01*
X343607Y121784D01*
X343307Y121061D01*
Y120278D01*
X343607Y119554D01*
X344161Y119000D01*
X344884Y118701D01*
X345667D01*
X346391Y119000D01*
X346944Y119554D01*
X347244Y120278D01*
Y121061D01*
X346944Y121784D01*
X346391Y122338D01*
X345667Y122638D01*
D02*
G37*
G36*
X371179Y121260D02*
X370553D01*
X369974Y121020D01*
X369531Y120577D01*
X369291Y119998D01*
Y119372D01*
X369531Y118793D01*
X369974Y118350D01*
X370553Y118110D01*
X371179D01*
X371758Y118350D01*
X372201Y118793D01*
X372441Y119372D01*
Y119998D01*
X372201Y120577D01*
X371758Y121020D01*
X371179Y121260D01*
D02*
G37*
G36*
X296848Y121653D02*
X296065D01*
X295342Y121354D01*
X294788Y120800D01*
X294488Y120077D01*
Y119293D01*
X294788Y118570D01*
X295342Y118016D01*
X296065Y117717D01*
X296848D01*
X297572Y118016D01*
X298126Y118570D01*
X298425Y119293D01*
Y120077D01*
X298126Y120800D01*
X297572Y121354D01*
X296848Y121653D01*
D02*
G37*
G36*
X393305Y121417D02*
X392522D01*
X391798Y121118D01*
X391245Y120564D01*
X390945Y119840D01*
Y119057D01*
X391245Y118334D01*
X391798Y117780D01*
X392522Y117480D01*
X393305D01*
X394028Y117780D01*
X394582Y118334D01*
X394882Y119057D01*
Y119840D01*
X394582Y120564D01*
X394028Y121118D01*
X393305Y121417D01*
D02*
G37*
G36*
X360943Y120565D02*
X360317D01*
X359738Y120325D01*
X359295Y119882D01*
X359055Y119303D01*
Y118677D01*
X359295Y118098D01*
X359738Y117655D01*
X360317Y117415D01*
X360943D01*
X361522Y117655D01*
X361965Y118098D01*
X362205Y118677D01*
Y119303D01*
X361965Y119882D01*
X361522Y120325D01*
X360943Y120565D01*
D02*
G37*
G36*
X441336Y121260D02*
X440553D01*
X439830Y120960D01*
X439276Y120406D01*
X438976Y119683D01*
Y118900D01*
X439276Y118176D01*
X439830Y117622D01*
X440553Y117323D01*
X441336D01*
X442060Y117622D01*
X442614Y118176D01*
X442913Y118900D01*
Y119683D01*
X442614Y120406D01*
X442060Y120960D01*
X441336Y121260D01*
D02*
G37*
G36*
X420077Y121260D02*
X419293D01*
X418570Y120960D01*
X418016Y120406D01*
X417717Y119683D01*
Y118900D01*
X418016Y118176D01*
X418570Y117622D01*
X419293Y117323D01*
X420077D01*
X420800Y117622D01*
X421354Y118176D01*
X421654Y118900D01*
Y119683D01*
X421354Y120406D01*
X420800Y120960D01*
X420077Y121260D01*
D02*
G37*
G36*
X402754D02*
X401971D01*
X401247Y120960D01*
X400693Y120406D01*
X400394Y119683D01*
Y118900D01*
X400693Y118176D01*
X401247Y117622D01*
X401971Y117323D01*
X402754D01*
X403477Y117622D01*
X404031Y118176D01*
X404331Y118900D01*
Y119683D01*
X404031Y120406D01*
X403477Y120960D01*
X402754Y121260D01*
D02*
G37*
G36*
X425757Y121260D02*
X424974D01*
X424250Y120960D01*
X423696Y120406D01*
X423397Y119683D01*
Y118900D01*
X423696Y118176D01*
X424250Y117622D01*
X424974Y117323D01*
X425757D01*
X426480Y117622D01*
X427034Y118176D01*
X427334Y118900D01*
Y119683D01*
X427034Y120406D01*
X426480Y120960D01*
X425757Y121260D01*
D02*
G37*
G36*
X409939D02*
X409156D01*
X408432Y120960D01*
X407878Y120406D01*
X407579Y119683D01*
Y118900D01*
X407878Y118176D01*
X408432Y117622D01*
X409156Y117323D01*
X409939D01*
X410662Y117622D01*
X411216Y118176D01*
X411516Y118900D01*
Y119683D01*
X411216Y120406D01*
X410662Y120960D01*
X409939Y121260D01*
D02*
G37*
G36*
X290399Y118929D02*
X289772D01*
X289194Y118689D01*
X288751Y118246D01*
X288511Y117667D01*
Y117041D01*
X288751Y116462D01*
X289194Y116019D01*
X289772Y115779D01*
X290399D01*
X290978Y116019D01*
X291421Y116462D01*
X291660Y117041D01*
Y117667D01*
X291421Y118246D01*
X290978Y118689D01*
X290399Y118929D01*
D02*
G37*
G36*
X349968Y118713D02*
X349185D01*
X348462Y118413D01*
X347908Y117860D01*
X347608Y117136D01*
Y116353D01*
X347908Y115629D01*
X348462Y115076D01*
X349185Y114776D01*
X349968D01*
X350692Y115076D01*
X351246Y115629D01*
X351545Y116353D01*
Y117136D01*
X351246Y117860D01*
X350692Y118413D01*
X349968Y118713D01*
D02*
G37*
G36*
X310156Y116142D02*
X309529D01*
X308950Y115902D01*
X308507Y115459D01*
X308268Y114880D01*
Y114254D01*
X308507Y113675D01*
X308950Y113232D01*
X309529Y112992D01*
X310156D01*
X310735Y113232D01*
X311178Y113675D01*
X311417Y114254D01*
Y114880D01*
X311178Y115459D01*
X310735Y115902D01*
X310156Y116142D01*
D02*
G37*
G36*
X233856Y112598D02*
X233073D01*
X232349Y112299D01*
X232087Y112036D01*
X231824Y112299D01*
X231100Y112598D01*
X230317D01*
X229594Y112299D01*
X229040Y111745D01*
X228740Y111021D01*
Y110238D01*
X229040Y109515D01*
X229594Y108961D01*
X230317Y108661D01*
X231100D01*
X231824Y108961D01*
X232087Y109224D01*
X232349Y108961D01*
X233073Y108661D01*
X233856D01*
X234580Y108961D01*
X235133Y109515D01*
X235433Y110238D01*
Y111021D01*
X235133Y111745D01*
X234580Y112299D01*
X233856Y112598D01*
D02*
G37*
G36*
X293620Y114861D02*
X292994D01*
X292415Y114621D01*
X291972Y114179D01*
X291732Y113600D01*
Y112973D01*
X291972Y112394D01*
X292415Y111951D01*
X292994Y111712D01*
X293620D01*
X294199Y111951D01*
X294642Y112394D01*
X294882Y112973D01*
Y113600D01*
X294642Y114179D01*
X294199Y114621D01*
X293620Y114861D01*
D02*
G37*
G36*
X329447Y118110D02*
X328821D01*
X328242Y117870D01*
X327799Y117428D01*
X327559Y116849D01*
Y116222D01*
X327799Y115643D01*
X328242Y115200D01*
X328656Y115029D01*
Y114499D01*
X328242Y114327D01*
X327799Y113884D01*
X327559Y113305D01*
Y112679D01*
X327799Y112100D01*
X328242Y111657D01*
X328821Y111417D01*
X329447D01*
X330026Y111657D01*
X330469Y112100D01*
X330709Y112679D01*
Y113305D01*
X330469Y113884D01*
X330026Y114327D01*
X329612Y114499D01*
Y115029D01*
X330026Y115200D01*
X330469Y115643D01*
X330709Y116222D01*
Y116849D01*
X330469Y117428D01*
X330026Y117870D01*
X329447Y118110D01*
D02*
G37*
G36*
X388187Y117717D02*
X387404D01*
X386680Y117417D01*
X386126Y116863D01*
X385827Y116140D01*
Y115357D01*
X386126Y114633D01*
X386680Y114079D01*
X387404Y113779D01*
X388187D01*
X388280Y113818D01*
X388563Y113394D01*
X388489Y113320D01*
X388189Y112596D01*
Y111813D01*
X388489Y111090D01*
X389042Y110536D01*
X389766Y110236D01*
X390549D01*
X391273Y110536D01*
X391826Y111090D01*
X392126Y111813D01*
Y112596D01*
X391826Y113320D01*
X391273Y113874D01*
X390549Y114173D01*
X389766D01*
X389673Y114135D01*
X389390Y114559D01*
X389464Y114633D01*
X389764Y115357D01*
Y116140D01*
X389464Y116863D01*
X388910Y117417D01*
X388187Y117717D01*
D02*
G37*
G36*
X345667Y112795D02*
X344884D01*
X344161Y112496D01*
X343607Y111942D01*
X343307Y111218D01*
Y110435D01*
X343607Y109712D01*
X344161Y109158D01*
X344884Y108858D01*
X345667D01*
X346391Y109158D01*
X346944Y109712D01*
X347244Y110435D01*
Y111218D01*
X346944Y111942D01*
X346391Y112496D01*
X345667Y112795D01*
D02*
G37*
G36*
X360943Y111024D02*
X360317D01*
X359738Y110784D01*
X359295Y110341D01*
X359055Y109762D01*
Y109136D01*
X359295Y108557D01*
X359738Y108114D01*
X360317Y107874D01*
X360943D01*
X361522Y108114D01*
X361965Y108557D01*
X362205Y109136D01*
Y109762D01*
X361965Y110341D01*
X361522Y110784D01*
X360943Y111024D01*
D02*
G37*
G36*
X296848Y111417D02*
X296065D01*
X295342Y111118D01*
X294788Y110564D01*
X294488Y109840D01*
Y109057D01*
X294788Y108334D01*
X295342Y107780D01*
X296065Y107480D01*
X296848D01*
X297572Y107780D01*
X298126Y108334D01*
X298425Y109057D01*
Y109840D01*
X298126Y110564D01*
X297572Y111118D01*
X296848Y111417D01*
D02*
G37*
G36*
X371179Y110329D02*
X370553D01*
X369974Y110089D01*
X369531Y109646D01*
X369291Y109067D01*
Y108440D01*
X369531Y107862D01*
X369974Y107419D01*
X370553Y107179D01*
X371179D01*
X371758Y107419D01*
X372201Y107862D01*
X372441Y108440D01*
Y109067D01*
X372201Y109646D01*
X371758Y110089D01*
X371179Y110329D01*
D02*
G37*
G36*
X433462Y110630D02*
X432679D01*
X431956Y110330D01*
X431402Y109776D01*
X431102Y109053D01*
Y108270D01*
X431402Y107546D01*
X431956Y106993D01*
X432679Y106693D01*
X433462D01*
X434186Y106993D01*
X434740Y107546D01*
X435039Y108270D01*
Y109053D01*
X434740Y109776D01*
X434186Y110330D01*
X433462Y110630D01*
D02*
G37*
G36*
X290399Y108693D02*
X289772D01*
X289194Y108453D01*
X288751Y108010D01*
X288511Y107431D01*
Y106805D01*
X288751Y106226D01*
X289194Y105783D01*
X289772Y105543D01*
X290399D01*
X290978Y105783D01*
X291421Y106226D01*
X291660Y106805D01*
Y107431D01*
X291421Y108010D01*
X290978Y108453D01*
X290399Y108693D01*
D02*
G37*
G36*
X349998Y108661D02*
X349215D01*
X348491Y108362D01*
X347937Y107808D01*
X347638Y107085D01*
Y106301D01*
X347937Y105578D01*
X348491Y105024D01*
X349215Y104724D01*
X349998D01*
X350721Y105024D01*
X351275Y105578D01*
X351575Y106301D01*
Y107085D01*
X351275Y107808D01*
X350721Y108362D01*
X349998Y108661D01*
D02*
G37*
G36*
X310156Y105905D02*
X309529D01*
X308950Y105666D01*
X308507Y105223D01*
X308268Y104644D01*
Y104017D01*
X308507Y103439D01*
X308950Y102996D01*
X309529Y102756D01*
X310156D01*
X310735Y102996D01*
X311177Y103439D01*
X311417Y104017D01*
Y104644D01*
X311177Y105223D01*
X310735Y105666D01*
X310156Y105905D01*
D02*
G37*
G36*
X329447Y108268D02*
X328821D01*
X328242Y108028D01*
X327799Y107585D01*
X327559Y107006D01*
Y106380D01*
X327799Y105801D01*
X328242Y105358D01*
X328656Y105186D01*
Y104656D01*
X328242Y104485D01*
X327799Y104042D01*
X327559Y103463D01*
Y102836D01*
X327799Y102258D01*
X328242Y101815D01*
X328821Y101575D01*
X329447D01*
X330026Y101815D01*
X330469Y102258D01*
X330709Y102836D01*
Y103463D01*
X330469Y104042D01*
X330026Y104485D01*
X329612Y104656D01*
Y105186D01*
X330026Y105358D01*
X330469Y105801D01*
X330709Y106380D01*
Y107006D01*
X330469Y107585D01*
X330026Y108028D01*
X329447Y108268D01*
D02*
G37*
G36*
X293620Y104625D02*
X292994D01*
X292415Y104385D01*
X291972Y103942D01*
X291732Y103364D01*
Y102737D01*
X291972Y102158D01*
X292415Y101715D01*
X292994Y101475D01*
X293620D01*
X294199Y101715D01*
X294642Y102158D01*
X294882Y102737D01*
Y103364D01*
X294642Y103942D01*
X294199Y104385D01*
X293620Y104625D01*
D02*
G37*
G36*
X237793Y105118D02*
X237010D01*
X236286Y104818D01*
X235733Y104265D01*
X235433Y103541D01*
Y102758D01*
X235733Y102034D01*
X236286Y101481D01*
X237010Y101181D01*
X237793D01*
X238517Y101481D01*
X239070Y102034D01*
X239370Y102758D01*
Y103541D01*
X239070Y104265D01*
X238517Y104818D01*
X237793Y105118D01*
D02*
G37*
G36*
X224540Y104594D02*
X223757D01*
X223033Y104294D01*
X222480Y103740D01*
X222180Y103017D01*
Y102234D01*
X222480Y101510D01*
X223033Y100956D01*
X223757Y100657D01*
X224540D01*
X225263Y100956D01*
X225817Y101510D01*
X226117Y102234D01*
Y103017D01*
X225817Y103740D01*
X225263Y104294D01*
X224540Y104594D01*
D02*
G37*
G36*
X425679Y101967D02*
X425053D01*
X424474Y101728D01*
X424031Y101285D01*
X423792Y100706D01*
Y100079D01*
X424031Y99501D01*
X424474Y99058D01*
X425053Y98818D01*
X425679D01*
X426258Y99058D01*
X426701Y99501D01*
X426941Y100079D01*
Y100706D01*
X426701Y101285D01*
X426258Y101728D01*
X425679Y101967D01*
D02*
G37*
G36*
X441336Y102362D02*
X440553D01*
X439830Y102062D01*
X439276Y101509D01*
X438976Y100785D01*
Y100002D01*
X439276Y99279D01*
X439830Y98725D01*
X440553Y98425D01*
X441336D01*
X442060Y98725D01*
X442614Y99279D01*
X442913Y100002D01*
Y100785D01*
X442614Y101509D01*
X442060Y102062D01*
X441336Y102362D01*
D02*
G37*
G36*
X409840Y101969D02*
X409057D01*
X408334Y101669D01*
X407780Y101115D01*
X407480Y100392D01*
Y99608D01*
X407780Y98885D01*
X408334Y98331D01*
X409057Y98032D01*
X409840D01*
X410564Y98331D01*
X411118Y98885D01*
X411417Y99608D01*
Y100392D01*
X411118Y101115D01*
X410564Y101669D01*
X409840Y101969D01*
D02*
G37*
G36*
X402754Y101968D02*
X401971D01*
X401247Y101669D01*
X400693Y101115D01*
X400394Y100391D01*
Y99608D01*
X400693Y98885D01*
X401247Y98331D01*
X401971Y98031D01*
X402754D01*
X403477Y98331D01*
X404031Y98885D01*
X404331Y99608D01*
Y100391D01*
X404031Y101115D01*
X403477Y101669D01*
X402754Y101968D01*
D02*
G37*
G36*
X345667Y101968D02*
X344884D01*
X344161Y101669D01*
X343607Y101115D01*
X343307Y100391D01*
Y99608D01*
X343607Y98885D01*
X344161Y98331D01*
X344884Y98031D01*
X345667D01*
X346391Y98331D01*
X346944Y98885D01*
X347244Y99608D01*
Y100391D01*
X346944Y101115D01*
X346391Y101669D01*
X345667Y101968D01*
D02*
G37*
G36*
X420077Y101968D02*
X419293D01*
X418570Y101668D01*
X418016Y101115D01*
X417717Y100391D01*
Y99608D01*
X418016Y98884D01*
X418570Y98331D01*
X419293Y98031D01*
X420077D01*
X420800Y98331D01*
X421354Y98884D01*
X421654Y99608D01*
Y100391D01*
X421354Y101115D01*
X420800Y101668D01*
X420077Y101968D01*
D02*
G37*
G36*
X393411Y101862D02*
X392628D01*
X391904Y101562D01*
X391351Y101009D01*
X391051Y100285D01*
Y99502D01*
X391351Y98778D01*
X391904Y98225D01*
X392628Y97925D01*
X393411D01*
X394135Y98225D01*
X394688Y98778D01*
X394988Y99502D01*
Y100285D01*
X394688Y101009D01*
X394135Y101562D01*
X393411Y101862D01*
D02*
G37*
G36*
X296848Y101181D02*
X296065D01*
X295342Y100881D01*
X294788Y100328D01*
X294488Y99604D01*
Y98821D01*
X294788Y98097D01*
X295342Y97544D01*
X296065Y97244D01*
X296848D01*
X297572Y97544D01*
X298126Y98097D01*
X298425Y98821D01*
Y99604D01*
X298126Y100328D01*
X297572Y100881D01*
X296848Y101181D01*
D02*
G37*
G36*
X360943Y100092D02*
X360317D01*
X359738Y99853D01*
X359295Y99410D01*
X359055Y98831D01*
Y98204D01*
X359295Y97625D01*
X359738Y97183D01*
X360317Y96943D01*
X360943D01*
X361522Y97183D01*
X361965Y97625D01*
X362205Y98204D01*
Y98831D01*
X361965Y99410D01*
X361522Y99853D01*
X360943Y100092D01*
D02*
G37*
G36*
X253935Y99606D02*
X253152D01*
X252428Y99307D01*
X251874Y98753D01*
X251575Y98029D01*
Y97246D01*
X251874Y96523D01*
X252428Y95969D01*
X253152Y95669D01*
X253935D01*
X254658Y95969D01*
X255212Y96523D01*
X255512Y97246D01*
Y98029D01*
X255212Y98753D01*
X254658Y99307D01*
X253935Y99606D01*
D02*
G37*
G36*
X246061D02*
X245278D01*
X244554Y99307D01*
X244001Y98753D01*
X243701Y98029D01*
Y97246D01*
X244001Y96523D01*
X244554Y95969D01*
X245278Y95669D01*
X246061D01*
X246784Y95969D01*
X247338Y96523D01*
X247638Y97246D01*
Y98029D01*
X247338Y98753D01*
X246784Y99307D01*
X246061Y99606D01*
D02*
G37*
G36*
X223752Y99998D02*
X222969D01*
X222246Y99698D01*
X221692Y99144D01*
X221392Y98421D01*
Y97638D01*
X221692Y96914D01*
X221955Y96651D01*
X221692Y96389D01*
X221392Y95665D01*
Y94882D01*
X221692Y94158D01*
X222246Y93605D01*
X222969Y93305D01*
X223752D01*
X224476Y93605D01*
X225030Y94158D01*
X225329Y94882D01*
Y95665D01*
X225030Y96389D01*
X224767Y96651D01*
X225030Y96914D01*
X225329Y97638D01*
Y98421D01*
X225030Y99144D01*
X224476Y99698D01*
X223752Y99998D01*
D02*
G37*
G36*
X357105Y96029D02*
X356322D01*
X355598Y95730D01*
X355045Y95176D01*
X354745Y94452D01*
Y93669D01*
X355045Y92946D01*
X355598Y92392D01*
X356322Y92092D01*
X357105D01*
X357828Y92392D01*
X358382Y92946D01*
X358682Y93669D01*
Y94452D01*
X358382Y95176D01*
X357828Y95730D01*
X357105Y96029D01*
D02*
G37*
G36*
X334664D02*
X333881D01*
X333157Y95730D01*
X332604Y95176D01*
X332304Y94452D01*
Y93669D01*
X332604Y92946D01*
X333157Y92392D01*
X333881Y92092D01*
X334664D01*
X335387Y92392D01*
X335941Y92946D01*
X336241Y93669D01*
Y94452D01*
X335941Y95176D01*
X335387Y95730D01*
X334664Y96029D01*
D02*
G37*
G36*
X253935Y92126D02*
X253152D01*
X252428Y91826D01*
X251874Y91273D01*
X251575Y90549D01*
Y89766D01*
X251874Y89042D01*
X252428Y88489D01*
X253152Y88189D01*
X253935D01*
X254658Y88489D01*
X255212Y89042D01*
X255512Y89766D01*
Y90549D01*
X255212Y91273D01*
X254658Y91826D01*
X253935Y92126D01*
D02*
G37*
G36*
X246061D02*
X245278D01*
X244554Y91826D01*
X244001Y91273D01*
X243701Y90549D01*
Y89766D01*
X244001Y89042D01*
X244554Y88489D01*
X245278Y88189D01*
X246061D01*
X246784Y88489D01*
X247338Y89042D01*
X247638Y89766D01*
Y90549D01*
X247338Y91273D01*
X246784Y91826D01*
X246061Y92126D01*
D02*
G37*
G36*
X393305Y91496D02*
X392522D01*
X391798Y91196D01*
X391245Y90643D01*
X390945Y89919D01*
Y89136D01*
X391245Y88412D01*
X391798Y87859D01*
X392522Y87559D01*
X393305D01*
X394028Y87859D01*
X394582Y88412D01*
X394882Y89136D01*
Y89919D01*
X394582Y90643D01*
X394028Y91196D01*
X393305Y91496D01*
D02*
G37*
G36*
X420077Y91339D02*
X419293D01*
X418570Y91039D01*
X418016Y90485D01*
X417717Y89762D01*
Y88978D01*
X418016Y88255D01*
X418570Y87701D01*
X419293Y87402D01*
X420077D01*
X420800Y87701D01*
X421354Y88255D01*
X421654Y88978D01*
Y89762D01*
X421354Y90485D01*
X420800Y91039D01*
X420077Y91339D01*
D02*
G37*
G36*
X409939D02*
X409156D01*
X408432Y91039D01*
X407878Y90485D01*
X407579Y89762D01*
Y88978D01*
X407878Y88255D01*
X408432Y87701D01*
X409156Y87402D01*
X409939D01*
X410662Y87701D01*
X411216Y88255D01*
X411516Y88978D01*
Y89762D01*
X411216Y90485D01*
X410662Y91039D01*
X409939Y91339D01*
D02*
G37*
G36*
X402754D02*
X401971D01*
X401247Y91039D01*
X400693Y90485D01*
X400394Y89762D01*
Y88978D01*
X400693Y88255D01*
X401247Y87701D01*
X401971Y87402D01*
X402754D01*
X403477Y87701D01*
X404031Y88255D01*
X404331Y88978D01*
Y89762D01*
X404031Y90485D01*
X403477Y91039D01*
X402754Y91339D01*
D02*
G37*
G36*
X371179Y90551D02*
X370553D01*
X369974Y90311D01*
X369531Y89868D01*
X369291Y89290D01*
Y88663D01*
X369531Y88084D01*
X369974Y87641D01*
X370553Y87402D01*
X371179D01*
X371758Y87641D01*
X372201Y88084D01*
X372441Y88663D01*
Y89290D01*
X372201Y89868D01*
X371758Y90311D01*
X371179Y90551D01*
D02*
G37*
G36*
X296848Y90945D02*
X296065D01*
X295342Y90645D01*
X294788Y90091D01*
X294488Y89368D01*
Y88585D01*
X294788Y87861D01*
X295342Y87308D01*
X296065Y87008D01*
X296848D01*
X297572Y87308D01*
X298126Y87861D01*
X298425Y88585D01*
Y89368D01*
X298126Y90091D01*
X297572Y90645D01*
X296848Y90945D01*
D02*
G37*
G36*
X425510Y88583D02*
X424884D01*
X424305Y88343D01*
X423862Y87900D01*
X423622Y87321D01*
Y86695D01*
X423862Y86116D01*
X424305Y85673D01*
X424884Y85433D01*
X425510D01*
X426089Y85673D01*
X426532Y86116D01*
X426772Y86695D01*
Y87321D01*
X426532Y87900D01*
X426089Y88343D01*
X425510Y88583D01*
D02*
G37*
G36*
X290399Y88220D02*
X289772D01*
X289194Y87981D01*
X288751Y87538D01*
X288511Y86959D01*
Y86332D01*
X288751Y85754D01*
X289194Y85311D01*
X289772Y85071D01*
X290399D01*
X290978Y85311D01*
X291421Y85754D01*
X291660Y86332D01*
Y86959D01*
X291421Y87538D01*
X290978Y87981D01*
X290399Y88220D01*
D02*
G37*
G36*
X441336Y88976D02*
X440553D01*
X439830Y88677D01*
X439276Y88123D01*
X438976Y87399D01*
Y86616D01*
X439276Y85893D01*
X439830Y85339D01*
X440553Y85039D01*
X441336D01*
X442060Y85339D01*
X442614Y85893D01*
X442913Y86616D01*
Y87399D01*
X442614Y88123D01*
X442060Y88677D01*
X441336Y88976D01*
D02*
G37*
G36*
X349998Y88189D02*
X349215D01*
X348491Y87889D01*
X347937Y87336D01*
X347638Y86612D01*
Y85829D01*
X347937Y85106D01*
X348491Y84552D01*
X349215Y84252D01*
X349998D01*
X350721Y84552D01*
X351275Y85106D01*
X351575Y85829D01*
Y86612D01*
X351275Y87336D01*
X350721Y87889D01*
X349998Y88189D01*
D02*
G37*
G36*
X310156Y85433D02*
X309529D01*
X308950Y85193D01*
X308507Y84750D01*
X308268Y84171D01*
Y83545D01*
X308507Y82966D01*
X308950Y82523D01*
X309529Y82284D01*
X310156D01*
X310735Y82523D01*
X311178Y82966D01*
X311417Y83545D01*
Y84171D01*
X311178Y84750D01*
X310735Y85193D01*
X310156Y85433D01*
D02*
G37*
G36*
X293620Y84153D02*
X292994D01*
X292415Y83913D01*
X291972Y83470D01*
X291732Y82891D01*
Y82265D01*
X291972Y81686D01*
X292415Y81243D01*
X292994Y81003D01*
X293620D01*
X294199Y81243D01*
X294642Y81686D01*
X294882Y82265D01*
Y82891D01*
X294642Y83470D01*
X294199Y83913D01*
X293620Y84153D01*
D02*
G37*
G36*
X388187Y87795D02*
X387404D01*
X386680Y87496D01*
X386126Y86942D01*
X385827Y86218D01*
Y85435D01*
X386126Y84712D01*
X386680Y84158D01*
X387404Y83858D01*
X388187D01*
X388280Y83897D01*
X388563Y83473D01*
X388489Y83398D01*
X388189Y82675D01*
Y81892D01*
X388489Y81168D01*
X389042Y80615D01*
X389766Y80315D01*
X390549D01*
X391273Y80615D01*
X391826Y81168D01*
X392126Y81892D01*
Y82675D01*
X391826Y83398D01*
X391273Y83952D01*
X390549Y84252D01*
X389766D01*
X389673Y84214D01*
X389390Y84637D01*
X389464Y84712D01*
X389764Y85435D01*
Y86218D01*
X389464Y86942D01*
X388910Y87496D01*
X388187Y87795D01*
D02*
G37*
G36*
X329447Y86614D02*
X328821D01*
X328242Y86374D01*
X327799Y85931D01*
X327559Y85353D01*
Y84726D01*
X327799Y84147D01*
X328242Y83704D01*
X328656Y83533D01*
Y83003D01*
X328242Y82831D01*
X327799Y82388D01*
X327559Y81809D01*
Y81183D01*
X327799Y80604D01*
X328242Y80161D01*
X328821Y79921D01*
X329447D01*
X330026Y80161D01*
X330469Y80604D01*
X330709Y81183D01*
Y81809D01*
X330469Y82388D01*
X330026Y82831D01*
X329612Y83003D01*
Y83533D01*
X330026Y83704D01*
X330469Y84147D01*
X330709Y84726D01*
Y85353D01*
X330469Y85931D01*
X330026Y86374D01*
X329447Y86614D01*
D02*
G37*
G36*
X345667Y81299D02*
X344884D01*
X344161Y80999D01*
X343607Y80446D01*
X343307Y79722D01*
Y78939D01*
X343607Y78216D01*
X344161Y77662D01*
X344884Y77362D01*
X345667D01*
X346391Y77662D01*
X346944Y78216D01*
X347244Y78939D01*
Y79722D01*
X346944Y80446D01*
X346391Y80999D01*
X345667Y81299D01*
D02*
G37*
G36*
X360943Y80315D02*
X360317D01*
X359738Y80075D01*
X359295Y79632D01*
X359055Y79053D01*
Y78427D01*
X359295Y77848D01*
X359738Y77405D01*
X360317Y77165D01*
X360943D01*
X361522Y77405D01*
X361965Y77848D01*
X362205Y78427D01*
Y79053D01*
X361965Y79632D01*
X361522Y80075D01*
X360943Y80315D01*
D02*
G37*
G36*
X433462Y80709D02*
X432679D01*
X431956Y80409D01*
X431402Y79855D01*
X431102Y79132D01*
Y78349D01*
X431402Y77625D01*
X431956Y77071D01*
X432679Y76772D01*
X433462D01*
X434186Y77071D01*
X434740Y77625D01*
X435039Y78349D01*
Y79132D01*
X434740Y79855D01*
X434186Y80409D01*
X433462Y80709D01*
D02*
G37*
G36*
X296848D02*
X296065D01*
X295342Y80409D01*
X294788Y79855D01*
X294488Y79132D01*
Y78349D01*
X294788Y77625D01*
X295342Y77071D01*
X296065Y76772D01*
X296848D01*
X297572Y77071D01*
X298126Y77625D01*
X298425Y78349D01*
Y79132D01*
X298126Y79855D01*
X297572Y80409D01*
X296848Y80709D01*
D02*
G37*
G36*
X371179Y79620D02*
X370553D01*
X369974Y79380D01*
X369531Y78937D01*
X369291Y78358D01*
Y77732D01*
X369531Y77153D01*
X369974Y76710D01*
X370553Y76470D01*
X371179D01*
X371758Y76710D01*
X372201Y77153D01*
X372441Y77732D01*
Y78358D01*
X372201Y78937D01*
X371758Y79380D01*
X371179Y79620D01*
D02*
G37*
G36*
X290399Y77984D02*
X289772D01*
X289194Y77744D01*
X288751Y77301D01*
X288511Y76723D01*
Y76096D01*
X288751Y75517D01*
X289194Y75074D01*
X289772Y74835D01*
X290399D01*
X290978Y75074D01*
X291421Y75517D01*
X291660Y76096D01*
Y76723D01*
X291421Y77301D01*
X290978Y77744D01*
X290399Y77984D01*
D02*
G37*
G36*
X349998Y78347D02*
X349215D01*
X348491Y78047D01*
X347937Y77493D01*
X347638Y76770D01*
Y75987D01*
X347937Y75263D01*
X348491Y74709D01*
X349215Y74410D01*
X349998D01*
X350721Y74709D01*
X351275Y75263D01*
X351575Y75987D01*
Y76770D01*
X351275Y77493D01*
X350721Y78047D01*
X349998Y78347D01*
D02*
G37*
G36*
X310156Y75197D02*
X309529D01*
X308950Y74957D01*
X308507Y74514D01*
X308268Y73935D01*
Y73309D01*
X308507Y72730D01*
X308950Y72287D01*
X309529Y72047D01*
X310156D01*
X310735Y72287D01*
X311177Y72730D01*
X311417Y73309D01*
Y73935D01*
X311177Y74514D01*
X310735Y74957D01*
X310156Y75197D01*
D02*
G37*
G36*
X293620Y73916D02*
X292994D01*
X292415Y73677D01*
X291972Y73234D01*
X291732Y72655D01*
Y72028D01*
X291972Y71450D01*
X292415Y71007D01*
X292994Y70767D01*
X293620D01*
X294199Y71007D01*
X294642Y71450D01*
X294882Y72028D01*
Y72655D01*
X294642Y73234D01*
X294199Y73677D01*
X293620Y73916D01*
D02*
G37*
G36*
X329447Y76772D02*
X328821D01*
X328242Y76532D01*
X327799Y76089D01*
X327559Y75510D01*
Y74884D01*
X327799Y74305D01*
X328242Y73862D01*
X328656Y73690D01*
Y73160D01*
X328242Y72989D01*
X327799Y72546D01*
X327559Y71967D01*
Y71340D01*
X327799Y70762D01*
X328242Y70319D01*
X328821Y70079D01*
X329447D01*
X330026Y70319D01*
X330469Y70762D01*
X330709Y71340D01*
Y71967D01*
X330469Y72546D01*
X330026Y72989D01*
X329612Y73160D01*
Y73690D01*
X330026Y73862D01*
X330469Y74305D01*
X330709Y74884D01*
Y75510D01*
X330469Y76089D01*
X330026Y76532D01*
X329447Y76772D01*
D02*
G37*
G36*
X345667Y71457D02*
X344884D01*
X344161Y71157D01*
X343607Y70603D01*
X343307Y69880D01*
Y69097D01*
X343607Y68373D01*
X344161Y67819D01*
X344884Y67520D01*
X345667D01*
X346391Y67819D01*
X346944Y68373D01*
X347244Y69097D01*
Y69880D01*
X346944Y70603D01*
X346391Y71157D01*
X345667Y71457D01*
D02*
G37*
G36*
X371179Y70079D02*
X370553D01*
X369974Y69839D01*
X369531Y69396D01*
X369291Y68817D01*
Y68191D01*
X369531Y67612D01*
X369974Y67169D01*
X370553Y66929D01*
X371179D01*
X371758Y67169D01*
X372201Y67612D01*
X372441Y68191D01*
Y68817D01*
X372201Y69396D01*
X371758Y69839D01*
X371179Y70079D01*
D02*
G37*
G36*
X296848Y70472D02*
X296065D01*
X295342Y70173D01*
X294788Y69619D01*
X294488Y68896D01*
Y68112D01*
X294788Y67389D01*
X295342Y66835D01*
X296065Y66535D01*
X296848D01*
X297572Y66835D01*
X298126Y67389D01*
X298425Y68112D01*
Y68896D01*
X298126Y69619D01*
X297572Y70173D01*
X296848Y70472D01*
D02*
G37*
G36*
X393305Y70236D02*
X392522D01*
X391798Y69937D01*
X391245Y69383D01*
X390945Y68659D01*
Y67876D01*
X391245Y67153D01*
X391798Y66599D01*
X392522Y66299D01*
X393305D01*
X394028Y66599D01*
X394582Y67153D01*
X394882Y67876D01*
Y68659D01*
X394582Y69383D01*
X394028Y69937D01*
X393305Y70236D01*
D02*
G37*
G36*
X360943Y69384D02*
X360317D01*
X359738Y69144D01*
X359295Y68701D01*
X359055Y68122D01*
Y67496D01*
X359295Y66917D01*
X359738Y66474D01*
X360317Y66234D01*
X360943D01*
X361522Y66474D01*
X361965Y66917D01*
X362205Y67496D01*
Y68122D01*
X361965Y68701D01*
X361522Y69144D01*
X360943Y69384D01*
D02*
G37*
G36*
X441336Y70079D02*
X440553D01*
X439830Y69779D01*
X439276Y69225D01*
X438976Y68502D01*
Y67719D01*
X439276Y66995D01*
X439830Y66441D01*
X440553Y66142D01*
X441336D01*
X442060Y66441D01*
X442614Y66995D01*
X442913Y67719D01*
Y68502D01*
X442614Y69225D01*
X442060Y69779D01*
X441336Y70079D01*
D02*
G37*
G36*
X420077D02*
X419293D01*
X418570Y69779D01*
X418016Y69225D01*
X417717Y68502D01*
Y67719D01*
X418016Y66995D01*
X418570Y66441D01*
X419293Y66142D01*
X420077D01*
X420800Y66441D01*
X421354Y66995D01*
X421654Y67719D01*
Y68502D01*
X421354Y69225D01*
X420800Y69779D01*
X420077Y70079D01*
D02*
G37*
G36*
X409939D02*
X409156D01*
X408432Y69779D01*
X407878Y69225D01*
X407579Y68502D01*
Y67719D01*
X407878Y66995D01*
X408432Y66441D01*
X409156Y66142D01*
X409939D01*
X410662Y66441D01*
X411216Y66995D01*
X411516Y67719D01*
Y68502D01*
X411216Y69225D01*
X410662Y69779D01*
X409939Y70079D01*
D02*
G37*
G36*
X402754D02*
X401971D01*
X401247Y69779D01*
X400693Y69225D01*
X400394Y68502D01*
Y67719D01*
X400693Y66995D01*
X401247Y66441D01*
X401971Y66142D01*
X402754D01*
X403477Y66441D01*
X404031Y66995D01*
X404331Y67719D01*
Y68502D01*
X404031Y69225D01*
X403477Y69779D01*
X402754Y70079D01*
D02*
G37*
G36*
X425757Y70079D02*
X424974D01*
X424250Y69779D01*
X423696Y69225D01*
X423397Y68502D01*
Y67719D01*
X423696Y66995D01*
X424250Y66441D01*
X424974Y66142D01*
X425757D01*
X426480Y66441D01*
X427034Y66995D01*
X427334Y67719D01*
Y68502D01*
X427034Y69225D01*
X426480Y69779D01*
X425757Y70079D01*
D02*
G37*
G36*
X290399Y67748D02*
X289772D01*
X289194Y67508D01*
X288751Y67065D01*
X288511Y66486D01*
Y65860D01*
X288751Y65281D01*
X289194Y64838D01*
X289772Y64598D01*
X290399D01*
X290978Y64838D01*
X291421Y65281D01*
X291660Y65860D01*
Y66486D01*
X291421Y67065D01*
X290978Y67508D01*
X290399Y67748D01*
D02*
G37*
G36*
X349968Y67532D02*
X349185D01*
X348462Y67232D01*
X347908Y66679D01*
X347608Y65955D01*
Y65172D01*
X347908Y64448D01*
X348462Y63895D01*
X349185Y63595D01*
X349968D01*
X350692Y63895D01*
X351246Y64448D01*
X351545Y65172D01*
Y65955D01*
X351246Y66679D01*
X350692Y67232D01*
X349968Y67532D01*
D02*
G37*
G36*
X310156Y64961D02*
X309529D01*
X308950Y64721D01*
X308507Y64278D01*
X308268Y63699D01*
Y63073D01*
X308507Y62494D01*
X308950Y62051D01*
X309529Y61811D01*
X310156D01*
X310735Y62051D01*
X311178Y62494D01*
X311417Y63073D01*
Y63699D01*
X311178Y64278D01*
X310735Y64721D01*
X310156Y64961D01*
D02*
G37*
G36*
X293620Y63680D02*
X292994D01*
X292415Y63440D01*
X291972Y62997D01*
X291732Y62419D01*
Y61792D01*
X291972Y61213D01*
X292415Y60770D01*
X292994Y60531D01*
X293620D01*
X294199Y60770D01*
X294642Y61213D01*
X294882Y61792D01*
Y62419D01*
X294642Y62997D01*
X294199Y63440D01*
X293620Y63680D01*
D02*
G37*
G36*
X329447Y66929D02*
X328821D01*
X328242Y66689D01*
X327799Y66246D01*
X327559Y65668D01*
Y65041D01*
X327799Y64462D01*
X328242Y64019D01*
X328656Y63848D01*
Y63318D01*
X328242Y63146D01*
X327799Y62703D01*
X327559Y62124D01*
Y61498D01*
X327799Y60919D01*
X328242Y60476D01*
X328821Y60236D01*
X329447D01*
X330026Y60476D01*
X330469Y60919D01*
X330709Y61498D01*
Y62124D01*
X330469Y62703D01*
X330026Y63146D01*
X329612Y63318D01*
Y63848D01*
X330026Y64019D01*
X330469Y64462D01*
X330709Y65041D01*
Y65668D01*
X330469Y66246D01*
X330026Y66689D01*
X329447Y66929D01*
D02*
G37*
G36*
X388187Y66535D02*
X387404D01*
X386680Y66236D01*
X386126Y65682D01*
X385827Y64959D01*
Y64175D01*
X386126Y63452D01*
X386680Y62898D01*
X387404Y62598D01*
X388187D01*
X388280Y62637D01*
X388563Y62213D01*
X388489Y62139D01*
X388189Y61415D01*
Y60632D01*
X388489Y59909D01*
X389042Y59355D01*
X389766Y59055D01*
X390549D01*
X391273Y59355D01*
X391826Y59909D01*
X392126Y60632D01*
Y61415D01*
X391826Y62139D01*
X391273Y62692D01*
X390549Y62992D01*
X389766D01*
X389673Y62954D01*
X389390Y63377D01*
X389464Y63452D01*
X389764Y64175D01*
Y64959D01*
X389464Y65682D01*
X388910Y66236D01*
X388187Y66535D01*
D02*
G37*
G36*
X345667Y61614D02*
X344884D01*
X344161Y61314D01*
X343607Y60761D01*
X343307Y60037D01*
Y59254D01*
X343607Y58531D01*
X344161Y57977D01*
X344884Y57677D01*
X345667D01*
X346391Y57977D01*
X346944Y58531D01*
X347244Y59254D01*
Y60037D01*
X346944Y60761D01*
X346391Y61314D01*
X345667Y61614D01*
D02*
G37*
G36*
X360943Y59842D02*
X360317D01*
X359738Y59603D01*
X359295Y59160D01*
X359055Y58581D01*
Y57955D01*
X359295Y57376D01*
X359738Y56933D01*
X360317Y56693D01*
X360943D01*
X361522Y56933D01*
X361965Y57376D01*
X362205Y57955D01*
Y58581D01*
X361965Y59160D01*
X361522Y59603D01*
X360943Y59842D01*
D02*
G37*
G36*
X296848Y60236D02*
X296065D01*
X295342Y59936D01*
X294788Y59383D01*
X294488Y58659D01*
Y57876D01*
X294788Y57153D01*
X295342Y56599D01*
X296065Y56299D01*
X296848D01*
X297572Y56599D01*
X298126Y57153D01*
X298425Y57876D01*
Y58659D01*
X298126Y59383D01*
X297572Y59936D01*
X296848Y60236D01*
D02*
G37*
G36*
X371179Y59148D02*
X370553D01*
X369974Y58908D01*
X369531Y58465D01*
X369291Y57886D01*
Y57260D01*
X369531Y56681D01*
X369974Y56238D01*
X370553Y55998D01*
X371179D01*
X371758Y56238D01*
X372201Y56681D01*
X372441Y57260D01*
Y57886D01*
X372201Y58465D01*
X371758Y58908D01*
X371179Y59148D01*
D02*
G37*
G36*
X433462Y59449D02*
X432679D01*
X431956Y59149D01*
X431402Y58595D01*
X431102Y57872D01*
Y57089D01*
X431402Y56365D01*
X431956Y55812D01*
X432679Y55512D01*
X433462D01*
X434186Y55812D01*
X434740Y56365D01*
X435039Y57089D01*
Y57872D01*
X434740Y58595D01*
X434186Y59149D01*
X433462Y59449D01*
D02*
G37*
G36*
X290399Y57512D02*
X289772D01*
X289194Y57272D01*
X288751Y56829D01*
X288511Y56250D01*
Y55624D01*
X288751Y55045D01*
X289194Y54602D01*
X289772Y54362D01*
X290399D01*
X290978Y54602D01*
X291421Y55045D01*
X291660Y55624D01*
Y56250D01*
X291421Y56829D01*
X290978Y57272D01*
X290399Y57512D01*
D02*
G37*
G36*
X349998Y57480D02*
X349215D01*
X348491Y57181D01*
X347937Y56627D01*
X347638Y55903D01*
Y55120D01*
X347937Y54397D01*
X348491Y53843D01*
X349215Y53543D01*
X349998D01*
X350721Y53843D01*
X351275Y54397D01*
X351575Y55120D01*
Y55903D01*
X351275Y56627D01*
X350721Y57181D01*
X349998Y57480D01*
D02*
G37*
G36*
X310156Y54724D02*
X309529D01*
X308950Y54485D01*
X308507Y54042D01*
X308268Y53463D01*
Y52836D01*
X308507Y52258D01*
X308950Y51815D01*
X309529Y51575D01*
X310156D01*
X310735Y51815D01*
X311177Y52258D01*
X311417Y52836D01*
Y53463D01*
X311177Y54042D01*
X310735Y54485D01*
X310156Y54724D01*
D02*
G37*
G36*
X329447Y57087D02*
X328821D01*
X328242Y56847D01*
X327799Y56404D01*
X327559Y55825D01*
Y55199D01*
X327799Y54620D01*
X328242Y54177D01*
X328656Y54005D01*
Y53475D01*
X328242Y53304D01*
X327799Y52861D01*
X327559Y52282D01*
Y51655D01*
X327799Y51077D01*
X328242Y50634D01*
X328821Y50394D01*
X329447D01*
X330026Y50634D01*
X330469Y51077D01*
X330709Y51655D01*
Y52282D01*
X330469Y52861D01*
X330026Y53304D01*
X329612Y53475D01*
Y54005D01*
X330026Y54177D01*
X330469Y54620D01*
X330709Y55199D01*
Y55825D01*
X330469Y56404D01*
X330026Y56847D01*
X329447Y57087D01*
D02*
G37*
G36*
X293620Y53444D02*
X292994D01*
X292415Y53204D01*
X291972Y52761D01*
X291732Y52182D01*
Y51556D01*
X291972Y50977D01*
X292415Y50534D01*
X292994Y50294D01*
X293620D01*
X294199Y50534D01*
X294642Y50977D01*
X294882Y51556D01*
Y52182D01*
X294642Y52761D01*
X294199Y53204D01*
X293620Y53444D01*
D02*
G37*
G36*
X425679Y50786D02*
X425053D01*
X424474Y50547D01*
X424031Y50104D01*
X423792Y49525D01*
Y48898D01*
X424031Y48320D01*
X424474Y47877D01*
X425053Y47637D01*
X425679D01*
X426258Y47877D01*
X426701Y48320D01*
X426941Y48898D01*
Y49525D01*
X426701Y50104D01*
X426258Y50547D01*
X425679Y50786D01*
D02*
G37*
G36*
X441336Y51181D02*
X440553D01*
X439830Y50881D01*
X439276Y50328D01*
X438976Y49604D01*
Y48821D01*
X439276Y48098D01*
X439830Y47544D01*
X440553Y47244D01*
X441336D01*
X442060Y47544D01*
X442614Y48098D01*
X442913Y48821D01*
Y49604D01*
X442614Y50328D01*
X442060Y50881D01*
X441336Y51181D01*
D02*
G37*
G36*
X409840Y50787D02*
X409057D01*
X408334Y50488D01*
X407780Y49934D01*
X407480Y49211D01*
Y48427D01*
X407780Y47704D01*
X408334Y47150D01*
X409057Y46850D01*
X409840D01*
X410564Y47150D01*
X411118Y47704D01*
X411417Y48427D01*
Y49211D01*
X411118Y49934D01*
X410564Y50488D01*
X409840Y50787D01*
D02*
G37*
G36*
X420077Y50787D02*
X419293D01*
X418570Y50488D01*
X418016Y49934D01*
X417717Y49210D01*
Y48427D01*
X418016Y47704D01*
X418570Y47150D01*
X419293Y46850D01*
X420077D01*
X420800Y47150D01*
X421354Y47704D01*
X421654Y48427D01*
Y49210D01*
X421354Y49934D01*
X420800Y50488D01*
X420077Y50787D01*
D02*
G37*
G36*
X402754D02*
X401971D01*
X401247Y50488D01*
X400693Y49934D01*
X400394Y49210D01*
Y48427D01*
X400693Y47704D01*
X401247Y47150D01*
X401971Y46850D01*
X402754D01*
X403477Y47150D01*
X404031Y47704D01*
X404331Y48427D01*
Y49210D01*
X404031Y49934D01*
X403477Y50488D01*
X402754Y50787D01*
D02*
G37*
G36*
X345667D02*
X344884D01*
X344161Y50488D01*
X343607Y49934D01*
X343307Y49210D01*
Y48427D01*
X343607Y47704D01*
X344161Y47150D01*
X344884Y46850D01*
X345667D01*
X346391Y47150D01*
X346944Y47704D01*
X347244Y48427D01*
Y49210D01*
X346944Y49934D01*
X346391Y50488D01*
X345667Y50787D01*
D02*
G37*
G36*
X393305Y50575D02*
X392522D01*
X391798Y50275D01*
X391245Y49721D01*
X390945Y48998D01*
Y48215D01*
X391245Y47491D01*
X391798Y46938D01*
X392522Y46638D01*
X393305D01*
X394028Y46938D01*
X394582Y47491D01*
X394882Y48215D01*
Y48998D01*
X394582Y49721D01*
X394028Y50275D01*
X393305Y50575D01*
D02*
G37*
G36*
X296848Y50000D02*
X296065D01*
X295342Y49700D01*
X294788Y49147D01*
X294488Y48423D01*
Y47640D01*
X294788Y46916D01*
X295342Y46363D01*
X296065Y46063D01*
X296848D01*
X297572Y46363D01*
X298126Y46916D01*
X298425Y47640D01*
Y48423D01*
X298126Y49147D01*
X297572Y49700D01*
X296848Y50000D01*
D02*
G37*
G36*
X360943Y48911D02*
X360317D01*
X359738Y48671D01*
X359295Y48228D01*
X359055Y47650D01*
Y47023D01*
X359295Y46444D01*
X359738Y46001D01*
X360317Y45762D01*
X360943D01*
X361522Y46001D01*
X361965Y46444D01*
X362205Y47023D01*
Y47650D01*
X361965Y48228D01*
X361522Y48671D01*
X360943Y48911D01*
D02*
G37*
G36*
X357105Y45636D02*
X356322D01*
X355598Y45336D01*
X355045Y44782D01*
X354745Y44059D01*
Y43275D01*
X355045Y42552D01*
X355598Y41998D01*
X356322Y41699D01*
X357105D01*
X357828Y41998D01*
X358382Y42552D01*
X358682Y43275D01*
Y44059D01*
X358382Y44782D01*
X357828Y45336D01*
X357105Y45636D01*
D02*
G37*
G36*
X334664D02*
X333881D01*
X333157Y45336D01*
X332604Y44782D01*
X332304Y44059D01*
Y43275D01*
X332604Y42552D01*
X333157Y41998D01*
X333881Y41699D01*
X334664D01*
X335387Y41998D01*
X335941Y42552D01*
X336241Y43275D01*
Y44059D01*
X335941Y44782D01*
X335387Y45336D01*
X334664Y45636D01*
D02*
G37*
G36*
X49526Y356693D02*
X48899D01*
X48320Y356453D01*
X47878Y356010D01*
X47638Y355431D01*
Y354805D01*
X47878Y354226D01*
X48320Y353783D01*
X48899Y353543D01*
X49526D01*
X50105Y353783D01*
X50548Y354226D01*
X50787Y354805D01*
Y355431D01*
X50548Y356010D01*
X50105Y356453D01*
X49526Y356693D01*
D02*
G37*
G36*
X60864Y353201D02*
X60237D01*
X59658Y352961D01*
X59215Y352518D01*
X58976Y351940D01*
Y351313D01*
X59215Y350734D01*
X59658Y350291D01*
X60237Y350052D01*
X60864D01*
X61442Y350291D01*
X61885Y350734D01*
X62125Y351313D01*
Y351940D01*
X61885Y352518D01*
X61442Y352961D01*
X60864Y353201D01*
D02*
G37*
G36*
X82597Y347638D02*
X81970D01*
X81391Y347398D01*
X80948Y346955D01*
X80709Y346376D01*
Y345750D01*
X80948Y345171D01*
X81391Y344728D01*
X81970Y344488D01*
X82597D01*
X83175Y344728D01*
X83618Y345171D01*
X83858Y345750D01*
Y346376D01*
X83618Y346955D01*
X83175Y347398D01*
X82597Y347638D01*
D02*
G37*
G36*
X63084Y342321D02*
X62457D01*
X61878Y342082D01*
X61435Y341638D01*
X61195Y341060D01*
Y340433D01*
X61435Y339854D01*
X61878Y339411D01*
X62457Y339172D01*
X63084D01*
X63662Y339411D01*
X64105Y339854D01*
X64345Y340433D01*
Y341060D01*
X64105Y341638D01*
X63662Y342082D01*
X63084Y342321D01*
D02*
G37*
G36*
X43701Y332693D02*
X34252D01*
X33945Y332631D01*
X33684Y332457D01*
X33510Y332197D01*
X33449Y331890D01*
Y325590D01*
X33510Y325283D01*
X33684Y325023D01*
X62189Y296518D01*
Y264961D01*
X62250Y264653D01*
X62424Y264393D01*
X62685Y264219D01*
X62992Y264158D01*
X66929D01*
X67236Y264219D01*
X67497Y264393D01*
X67671Y264653D01*
X67732Y264961D01*
Y298425D01*
X67732Y298425D01*
X67671Y298732D01*
X67497Y298993D01*
X67497Y298993D01*
X44504Y321986D01*
X44504Y331890D01*
X44442Y332197D01*
X44269Y332457D01*
X44008Y332631D01*
X43701Y332693D01*
D02*
G37*
G36*
X77366Y231496D02*
X76739D01*
X76160Y231256D01*
X75717Y230813D01*
X75478Y230235D01*
Y229608D01*
X75717Y229029D01*
X76160Y228586D01*
X76739Y228346D01*
X77366D01*
X77944Y228586D01*
X78387Y229029D01*
X78627Y229608D01*
Y230235D01*
X78387Y230813D01*
X77944Y231256D01*
X77366Y231496D01*
D02*
G37*
%LPD*%
G36*
X43701Y321654D02*
X66929Y298425D01*
Y264961D01*
X62992D01*
Y296850D01*
X34252Y325590D01*
Y331890D01*
X43701D01*
X43701Y321654D01*
D02*
G37*
%LPC*%
G36*
X162596Y314173D02*
X161813D01*
X161090Y313874D01*
X160536Y313320D01*
X160236Y312596D01*
Y311813D01*
X160536Y311090D01*
X161090Y310536D01*
X161813Y310236D01*
X162596D01*
X163320Y310536D01*
X163874Y311090D01*
X164173Y311813D01*
Y312596D01*
X163874Y313320D01*
X163320Y313874D01*
X162596Y314173D01*
D02*
G37*
G36*
X151966Y308661D02*
X151183D01*
X150460Y308362D01*
X149906Y307808D01*
X149606Y307084D01*
Y306301D01*
X149906Y305578D01*
X150460Y305024D01*
X151183Y304724D01*
X151966D01*
X152690Y305024D01*
X153244Y305578D01*
X153543Y306301D01*
Y307084D01*
X153244Y307808D01*
X152690Y308362D01*
X151966Y308661D01*
D02*
G37*
G36*
X146061D02*
X145278D01*
X144554Y308362D01*
X144000Y307808D01*
X143701Y307084D01*
Y306301D01*
X144000Y305578D01*
X144554Y305024D01*
X145278Y304724D01*
X146061D01*
X146784Y305024D01*
X147338Y305578D01*
X147638Y306301D01*
Y307084D01*
X147338Y307808D01*
X146784Y308362D01*
X146061Y308661D01*
D02*
G37*
G36*
X148817Y304724D02*
X148034D01*
X147310Y304425D01*
X146756Y303871D01*
X146457Y303148D01*
Y302364D01*
X146756Y301641D01*
X147310Y301087D01*
X148034Y300787D01*
X148817D01*
X149540Y301087D01*
X150094Y301641D01*
X150394Y302364D01*
Y303148D01*
X150094Y303871D01*
X149540Y304425D01*
X148817Y304724D01*
D02*
G37*
G36*
Y300000D02*
X148034D01*
X147310Y299700D01*
X146756Y299147D01*
X146457Y298423D01*
Y297640D01*
X146756Y296916D01*
X147310Y296363D01*
X148034Y296063D01*
X148817D01*
X149540Y296363D01*
X150094Y296916D01*
X150394Y297640D01*
Y298423D01*
X150094Y299147D01*
X149540Y299700D01*
X148817Y300000D01*
D02*
G37*
G36*
X162990Y301969D02*
X162207D01*
X161483Y301669D01*
X160930Y301115D01*
X160630Y300392D01*
Y299608D01*
X160930Y298885D01*
X161193Y298622D01*
X160930Y298359D01*
X160630Y297636D01*
Y296852D01*
X160930Y296129D01*
X161483Y295575D01*
X162207Y295276D01*
X162990D01*
X163714Y295575D01*
X164267Y296129D01*
X164567Y296852D01*
Y297636D01*
X164267Y298359D01*
X164004Y298622D01*
X164267Y298885D01*
X164567Y299608D01*
Y300392D01*
X164267Y301115D01*
X163714Y301669D01*
X162990Y301969D01*
D02*
G37*
G36*
X172045Y286221D02*
X171262D01*
X170538Y285921D01*
X169985Y285367D01*
X169685Y284644D01*
Y283860D01*
X169985Y283137D01*
X170538Y282583D01*
X171262Y282283D01*
X172045D01*
X172769Y282583D01*
X173322Y283137D01*
X173622Y283860D01*
Y284644D01*
X173322Y285367D01*
X172769Y285921D01*
X172045Y286221D01*
D02*
G37*
G36*
Y281496D02*
X171262D01*
X170538Y281196D01*
X169985Y280643D01*
X169685Y279919D01*
Y279136D01*
X169985Y278413D01*
X170538Y277859D01*
X171262Y277559D01*
X172045D01*
X172769Y277859D01*
X173322Y278413D01*
X173622Y279136D01*
Y279919D01*
X173322Y280643D01*
X172769Y281196D01*
X172045Y281496D01*
D02*
G37*
G36*
X125588Y277953D02*
X124805D01*
X124082Y277653D01*
X123528Y277099D01*
X123228Y276376D01*
Y275593D01*
X123528Y274869D01*
X124082Y274315D01*
X124805Y274016D01*
X125588D01*
X126312Y274315D01*
X126866Y274869D01*
X127165Y275593D01*
Y276376D01*
X126866Y277099D01*
X126312Y277653D01*
X125588Y277953D01*
D02*
G37*
G36*
X172467Y266779D02*
X171684D01*
X170960Y266480D01*
X170406Y265926D01*
X170107Y265203D01*
Y264420D01*
X170406Y263696D01*
X170960Y263142D01*
X171684Y262842D01*
X172467D01*
X173190Y263142D01*
X173744Y263696D01*
X174044Y264420D01*
Y265203D01*
X173744Y265926D01*
X173190Y266480D01*
X172467Y266779D01*
D02*
G37*
G36*
X167714D02*
X166931D01*
X166208Y266480D01*
X165654Y265926D01*
X165354Y265203D01*
Y264420D01*
X165654Y263696D01*
X166208Y263142D01*
X166931Y262842D01*
X167714D01*
X168438Y263142D01*
X168992Y263696D01*
X169291Y264420D01*
Y265203D01*
X168992Y265926D01*
X168438Y266480D01*
X167714Y266779D01*
D02*
G37*
G36*
X162990D02*
X162207D01*
X161483Y266480D01*
X160930Y265926D01*
X160630Y265203D01*
Y264420D01*
X160930Y263696D01*
X161483Y263142D01*
X162207Y262842D01*
X162990D01*
X163713Y263142D01*
X164267Y263696D01*
X164567Y264420D01*
Y265203D01*
X164267Y265926D01*
X163713Y266480D01*
X162990Y266779D01*
D02*
G37*
G36*
X172045Y261024D02*
X171262D01*
X170538Y260724D01*
X169985Y260170D01*
X169685Y259447D01*
Y258664D01*
X169985Y257940D01*
X170538Y257386D01*
X171262Y257087D01*
X172045D01*
X172769Y257386D01*
X173322Y257940D01*
X173622Y258664D01*
Y259447D01*
X173322Y260170D01*
X172769Y260724D01*
X172045Y261024D01*
D02*
G37*
G36*
Y256299D02*
X171262D01*
X170538Y255999D01*
X169985Y255446D01*
X169685Y254722D01*
Y253939D01*
X169985Y253216D01*
X170538Y252662D01*
X171262Y252362D01*
X172045D01*
X172769Y252662D01*
X173322Y253216D01*
X173622Y253939D01*
Y254722D01*
X173322Y255446D01*
X172769Y255999D01*
X172045Y256299D01*
D02*
G37*
G36*
X125588Y252756D02*
X124805D01*
X124082Y252456D01*
X123528Y251903D01*
X123228Y251179D01*
Y250396D01*
X123528Y249672D01*
X124082Y249119D01*
X124805Y248819D01*
X125588D01*
X126312Y249119D01*
X126866Y249672D01*
X127165Y250396D01*
Y251179D01*
X126866Y251903D01*
X126312Y252456D01*
X125588Y252756D01*
D02*
G37*
G36*
X88581Y258331D02*
X87797D01*
X87074Y258031D01*
X86520Y257477D01*
X86221Y256754D01*
Y255971D01*
X86520Y255247D01*
X87074Y254693D01*
X87144Y254664D01*
Y254123D01*
X87074Y254094D01*
X86520Y253540D01*
X86221Y252817D01*
Y252034D01*
X86520Y251310D01*
X87074Y250756D01*
X87144Y250727D01*
Y250186D01*
X87074Y250157D01*
X86520Y249603D01*
X86221Y248880D01*
Y248097D01*
X86520Y247373D01*
X87011Y246882D01*
X86520Y246391D01*
X86221Y245667D01*
Y244884D01*
X86520Y244161D01*
X86850Y243831D01*
X87020Y243504D01*
X86850Y243177D01*
X86520Y242847D01*
X86221Y242124D01*
Y241341D01*
X86520Y240617D01*
X87074Y240064D01*
X87797Y239764D01*
X88581D01*
X89304Y240064D01*
X89858Y240617D01*
X90158Y241341D01*
Y242124D01*
X89858Y242847D01*
X89528Y243177D01*
X89358Y243504D01*
X89528Y243831D01*
X89858Y244161D01*
X90158Y244884D01*
Y245667D01*
X89858Y246391D01*
X89367Y246882D01*
X89858Y247373D01*
X90158Y248097D01*
Y248880D01*
X89858Y249603D01*
X89304Y250157D01*
X89234Y250186D01*
Y250727D01*
X89304Y250756D01*
X89858Y251310D01*
X90158Y252034D01*
Y252817D01*
X89858Y253540D01*
X89304Y254094D01*
X89234Y254123D01*
Y254664D01*
X89304Y254693D01*
X89858Y255247D01*
X90158Y255971D01*
Y256754D01*
X89858Y257477D01*
X89304Y258031D01*
X88581Y258331D01*
D02*
G37*
G36*
X172439Y240945D02*
X171656D01*
X170932Y240645D01*
X170378Y240091D01*
X170079Y239368D01*
Y238585D01*
X170378Y237861D01*
X170932Y237308D01*
X171656Y237008D01*
X172439D01*
X173162Y237308D01*
X173716Y237861D01*
X174016Y238585D01*
Y239368D01*
X173716Y240091D01*
X173162Y240645D01*
X172439Y240945D01*
D02*
G37*
G36*
X167714D02*
X166931D01*
X166208Y240645D01*
X165654Y240091D01*
X165354Y239368D01*
Y238585D01*
X165654Y237861D01*
X166208Y237308D01*
X166931Y237008D01*
X167714D01*
X168438Y237308D01*
X168992Y237861D01*
X169291Y238585D01*
Y239368D01*
X168992Y240091D01*
X168438Y240645D01*
X167714Y240945D01*
D02*
G37*
G36*
X162990D02*
X162207D01*
X161483Y240645D01*
X160930Y240091D01*
X160630Y239368D01*
Y238585D01*
X160930Y237861D01*
X161483Y237308D01*
X162207Y237008D01*
X162990D01*
X163714Y237308D01*
X164267Y237861D01*
X164567Y238585D01*
Y239368D01*
X164267Y240091D01*
X163714Y240645D01*
X162990Y240945D01*
D02*
G37*
G36*
X172045Y235433D02*
X171262D01*
X170538Y235133D01*
X169985Y234580D01*
X169685Y233856D01*
Y233073D01*
X169985Y232349D01*
X170538Y231796D01*
X171262Y231496D01*
X172045D01*
X172769Y231796D01*
X173322Y232349D01*
X173622Y233073D01*
Y233856D01*
X173322Y234580D01*
X172769Y235133D01*
X172045Y235433D01*
D02*
G37*
G36*
X88502Y234103D02*
X87876D01*
X87297Y233863D01*
X86854Y233420D01*
X86614Y232842D01*
Y232215D01*
X86854Y231636D01*
X87297Y231193D01*
X87876Y230954D01*
X88502D01*
X89081Y231193D01*
X89524Y231636D01*
X89764Y232215D01*
Y232842D01*
X89524Y233420D01*
X89081Y233863D01*
X88502Y234103D01*
D02*
G37*
G36*
X172045Y230709D02*
X171262D01*
X170538Y230409D01*
X169985Y229855D01*
X169685Y229132D01*
Y228349D01*
X169985Y227625D01*
X170538Y227071D01*
X171262Y226772D01*
X172045D01*
X172769Y227071D01*
X173322Y227625D01*
X173622Y228349D01*
Y229132D01*
X173322Y229855D01*
X172769Y230409D01*
X172045Y230709D01*
D02*
G37*
G36*
X125588Y227165D02*
X124805D01*
X124082Y226866D01*
X123528Y226312D01*
X123228Y225588D01*
Y224805D01*
X123528Y224082D01*
X124082Y223528D01*
X124805Y223228D01*
X125588D01*
X126312Y223528D01*
X126866Y224082D01*
X127165Y224805D01*
Y225588D01*
X126866Y226312D01*
X126312Y226866D01*
X125588Y227165D01*
D02*
G37*
G36*
X98029Y220866D02*
X97246D01*
X96523Y220567D01*
X95969Y220013D01*
X95669Y219289D01*
Y218506D01*
X95969Y217783D01*
X96523Y217229D01*
X97246Y216929D01*
X98029D01*
X98753Y217229D01*
X99307Y217783D01*
X99606Y218506D01*
Y219289D01*
X99307Y220013D01*
X98753Y220567D01*
X98029Y220866D01*
D02*
G37*
G36*
X177557Y218504D02*
X176774D01*
X176050Y218204D01*
X175496Y217651D01*
X175197Y216927D01*
Y216144D01*
X175496Y215420D01*
X176050Y214867D01*
X176774Y214567D01*
X177557D01*
X178280Y214867D01*
X178834Y215420D01*
X179134Y216144D01*
Y216927D01*
X178834Y217651D01*
X178280Y218204D01*
X177557Y218504D01*
D02*
G37*
G36*
X168108Y215354D02*
X167325D01*
X166602Y215055D01*
X166048Y214501D01*
X165748Y213777D01*
Y212994D01*
X166048Y212271D01*
X166602Y211717D01*
X167325Y211417D01*
X168108D01*
X168832Y211717D01*
X169385Y212271D01*
X169685Y212994D01*
Y213777D01*
X169385Y214501D01*
X168832Y215055D01*
X168108Y215354D01*
D02*
G37*
G36*
X163384D02*
X162601D01*
X161877Y215055D01*
X161323Y214501D01*
X161024Y213777D01*
Y212994D01*
X161323Y212271D01*
X161877Y211717D01*
X162601Y211417D01*
X163384D01*
X164107Y211717D01*
X164661Y212271D01*
X164961Y212994D01*
Y213777D01*
X164661Y214501D01*
X164107Y215055D01*
X163384Y215354D01*
D02*
G37*
G36*
X140549Y212205D02*
X139766D01*
X139042Y211905D01*
X138713Y211575D01*
X138386Y211405D01*
X138059Y211575D01*
X137729Y211905D01*
X137006Y212205D01*
X136223D01*
X135499Y211905D01*
X135169Y211575D01*
X134843Y211405D01*
X134516Y211575D01*
X134186Y211905D01*
X133462Y212205D01*
X132679D01*
X131956Y211905D01*
X131402Y211351D01*
X131102Y210628D01*
Y209845D01*
X131193Y209626D01*
X130810Y209244D01*
X130707Y209287D01*
X129923D01*
X129200Y208987D01*
X128646Y208433D01*
X128347Y207710D01*
Y206927D01*
X128646Y206203D01*
X129200Y205649D01*
X129923Y205350D01*
X130707D01*
X131430Y205649D01*
X131984Y206203D01*
X132283Y206927D01*
Y207710D01*
X132193Y207928D01*
X132576Y208311D01*
X132679Y208268D01*
X133462D01*
X134186Y208567D01*
X134516Y208897D01*
X134843Y209068D01*
X135169Y208897D01*
X135499Y208567D01*
X136223Y208268D01*
X137006D01*
X137729Y208567D01*
X138059Y208897D01*
X138386Y209068D01*
X138713Y208897D01*
X139042Y208567D01*
X139766Y208268D01*
X140549D01*
X141273Y208567D01*
X141826Y209121D01*
X142126Y209845D01*
Y210628D01*
X141826Y211351D01*
X141273Y211905D01*
X140549Y212205D01*
D02*
G37*
G36*
X86612Y212598D02*
X85829D01*
X85105Y212299D01*
X84552Y211745D01*
X84252Y211021D01*
Y210238D01*
X84552Y209515D01*
X85105Y208961D01*
X85829Y208661D01*
X86612D01*
X87335Y208961D01*
X87889Y209515D01*
X88189Y210238D01*
Y211021D01*
X87889Y211745D01*
X87335Y212299D01*
X86612Y212598D01*
D02*
G37*
G36*
X172833Y215354D02*
X172049D01*
X171326Y215055D01*
X170772Y214501D01*
X170472Y213777D01*
Y212994D01*
X170772Y212271D01*
X171102Y211941D01*
X171272Y211614D01*
X171102Y211287D01*
X170772Y210958D01*
X170472Y210234D01*
Y209451D01*
X170772Y208727D01*
X171102Y208398D01*
X171272Y208071D01*
X171102Y207744D01*
X170772Y207414D01*
X170472Y206691D01*
Y205908D01*
X170772Y205184D01*
X171326Y204630D01*
X172049Y204331D01*
X172833D01*
X173556Y204630D01*
X174110Y205184D01*
X174341Y205743D01*
X174871D01*
X175103Y205184D01*
X175657Y204630D01*
X176380Y204331D01*
X177163D01*
X177887Y204630D01*
X178440Y205184D01*
X178740Y205908D01*
Y206691D01*
X178440Y207414D01*
X177887Y207968D01*
X177163Y208268D01*
X176380D01*
X175657Y207968D01*
X175103Y207414D01*
X174871Y206856D01*
X174341D01*
X174110Y207414D01*
X173780Y207744D01*
X173610Y208071D01*
X173780Y208398D01*
X174110Y208727D01*
X174409Y209451D01*
Y210234D01*
X174110Y210958D01*
X173780Y211287D01*
X173610Y211614D01*
X173780Y211941D01*
X174110Y212271D01*
X174409Y212994D01*
Y213777D01*
X174110Y214501D01*
X173556Y215055D01*
X172833Y215354D01*
D02*
G37*
G36*
X92974Y209842D02*
X92191D01*
X91468Y209543D01*
X90914Y208989D01*
X90614Y208266D01*
Y207482D01*
X90914Y206759D01*
X91212Y206460D01*
X91377Y206065D01*
X91212Y205807D01*
X90851Y205446D01*
X90551Y204722D01*
Y203939D01*
X90851Y203216D01*
X91181Y202886D01*
X91351Y202559D01*
X91181Y202232D01*
X90851Y201903D01*
X90551Y201179D01*
Y200396D01*
X90851Y199672D01*
X91181Y199342D01*
X91351Y199016D01*
X91181Y198689D01*
X90851Y198359D01*
X90551Y197636D01*
Y196853D01*
X90851Y196129D01*
X91405Y195575D01*
X92128Y195276D01*
X92911D01*
X93635Y195575D01*
X94188Y196129D01*
X94488Y196853D01*
Y197636D01*
X94188Y198359D01*
X93859Y198689D01*
X93688Y199016D01*
X93859Y199342D01*
X94188Y199672D01*
X94488Y200396D01*
Y201179D01*
X94188Y201903D01*
X93859Y202232D01*
X93688Y202559D01*
X93859Y202886D01*
X94188Y203216D01*
X94488Y203939D01*
Y204722D01*
X94188Y205446D01*
X93890Y205744D01*
X93725Y206140D01*
X93890Y206398D01*
X94252Y206759D01*
X94551Y207482D01*
Y208266D01*
X94252Y208989D01*
X93698Y209543D01*
X92974Y209842D01*
D02*
G37*
G36*
X129132Y198819D02*
X128349D01*
X127625Y198519D01*
X127071Y197966D01*
X126772Y197242D01*
Y196459D01*
X127071Y195735D01*
X127625Y195182D01*
X128349Y194882D01*
X129132D01*
X129855Y195182D01*
X130409Y195735D01*
X130709Y196459D01*
Y197242D01*
X130409Y197966D01*
X129855Y198519D01*
X129132Y198819D01*
D02*
G37*
G36*
X124801Y195507D02*
X124018D01*
X123294Y195207D01*
X122741Y194654D01*
X122441Y193930D01*
Y193147D01*
X122741Y192423D01*
X123294Y191870D01*
X124018Y191570D01*
X124801D01*
X125524Y191870D01*
X126078Y192423D01*
X126378Y193147D01*
Y193930D01*
X126078Y194654D01*
X125524Y195207D01*
X124801Y195507D01*
D02*
G37*
G36*
X175588Y187795D02*
X174805D01*
X174082Y187496D01*
X173528Y186942D01*
X173228Y186218D01*
Y185435D01*
X173528Y184712D01*
X174082Y184158D01*
X174805Y183858D01*
X175588D01*
X176312Y184158D01*
X176866Y184712D01*
X177165Y185435D01*
Y186218D01*
X176866Y186942D01*
X176312Y187496D01*
X175588Y187795D01*
D02*
G37*
G36*
X167714D02*
X166931D01*
X166208Y187496D01*
X165654Y186942D01*
X165354Y186218D01*
Y185435D01*
X165654Y184712D01*
X166208Y184158D01*
X166931Y183858D01*
X167714D01*
X168438Y184158D01*
X168992Y184712D01*
X169291Y185435D01*
Y186218D01*
X168992Y186942D01*
X168438Y187496D01*
X167714Y187795D01*
D02*
G37*
%LPD*%
D122*
X98032Y355906D02*
D03*
X94882D02*
D03*
X91732D02*
D03*
X88583D02*
D03*
X113779Y326378D02*
D03*
X223361Y90814D02*
D03*
Y191208D02*
D03*
Y295539D02*
D03*
X340158Y86221D02*
D03*
Y76378D02*
D03*
Y66280D02*
D03*
Y56693D02*
D03*
Y107874D02*
D03*
Y117461D02*
D03*
Y127559D02*
D03*
Y137402D02*
D03*
Y159055D02*
D03*
Y168642D02*
D03*
Y178740D02*
D03*
Y188583D02*
D03*
Y210236D02*
D03*
Y219823D02*
D03*
Y229921D02*
D03*
Y239764D02*
D03*
Y261417D02*
D03*
Y271004D02*
D03*
Y281102D02*
D03*
Y290945D02*
D03*
Y312598D02*
D03*
Y322185D02*
D03*
Y332283D02*
D03*
Y342126D02*
D03*
X70866Y349606D02*
D03*
X68110Y349606D02*
D03*
X49213Y251969D02*
D03*
X53150D02*
D03*
X57087D02*
D03*
X61024D02*
D03*
Y263779D02*
D03*
X57087D02*
D03*
X66929Y207087D02*
D03*
X69291Y211417D02*
D03*
X55905Y189370D02*
D03*
X75984Y211417D02*
D03*
X72835D02*
D03*
X86221Y222441D02*
D03*
Y224803D02*
D03*
X113779Y323622D02*
D03*
Y320472D02*
D03*
X81496Y338189D02*
D03*
Y334646D02*
D03*
Y331102D02*
D03*
X88189Y329528D02*
D03*
X74016Y361024D02*
D03*
X41339Y350787D02*
D03*
X37795D02*
D03*
X77953Y338189D02*
D03*
X33071Y344488D02*
D03*
Y347638D02*
D03*
X84646Y329528D02*
D03*
X51968Y350787D02*
D03*
X48425D02*
D03*
X44882D02*
D03*
X34252D02*
D03*
X85433Y355906D02*
D03*
X105118Y186221D02*
D03*
Y188976D02*
D03*
X108268Y186221D02*
D03*
Y188976D02*
D03*
X182677Y190551D02*
D03*
Y194488D02*
D03*
Y202362D02*
D03*
Y198425D02*
D03*
X70535Y190551D02*
D03*
X74079D02*
D03*
X77622D02*
D03*
X81165D02*
D03*
X125197Y270472D02*
D03*
X125197Y245276D02*
D03*
Y219685D02*
D03*
X243440Y70342D02*
D03*
Y170735D02*
D03*
Y275066D02*
D03*
X64961Y275590D02*
D03*
Y271654D02*
D03*
Y267717D02*
D03*
X36220Y326772D02*
D03*
X41732Y329921D02*
D03*
Y326772D02*
D03*
X38976Y328346D02*
D03*
X36220Y329921D02*
D03*
D123*
X175197Y338976D02*
D03*
Y337008D02*
D03*
X92520Y243701D02*
D03*
X128347Y312992D02*
D03*
Y315354D02*
D03*
Y317717D02*
D03*
M02*
