G04*
G04 #@! TF.GenerationSoftware,Altium Limited,Altium Designer,25.8.1 (18)*
G04*
G04 Layer_Color=128*
%FSLAX25Y25*%
%MOIN*%
G70*
G04*
G04 #@! TF.SameCoordinates,7B8565F0-3EC2-410B-8CA8-4BD05896C451*
G04*
G04*
G04 #@! TF.FilePolarity,Positive*
G04*
G01*
G75*
G04:AMPARAMS|DCode=20|XSize=16.14mil|YSize=21.26mil|CornerRadius=2.66mil|HoleSize=0mil|Usage=FLASHONLY|Rotation=180.000|XOffset=0mil|YOffset=0mil|HoleType=Round|Shape=RoundedRectangle|*
%AMROUNDEDRECTD20*
21,1,0.01614,0.01593,0,0,180.0*
21,1,0.01082,0.02126,0,0,180.0*
1,1,0.00533,-0.00541,0.00797*
1,1,0.00533,0.00541,0.00797*
1,1,0.00533,0.00541,-0.00797*
1,1,0.00533,-0.00541,-0.00797*
%
%ADD20ROUNDEDRECTD20*%
G04:AMPARAMS|DCode=22|XSize=18.9mil|YSize=21.65mil|CornerRadius=3.12mil|HoleSize=0mil|Usage=FLASHONLY|Rotation=0.000|XOffset=0mil|YOffset=0mil|HoleType=Round|Shape=RoundedRectangle|*
%AMROUNDEDRECTD22*
21,1,0.01890,0.01542,0,0,0.0*
21,1,0.01266,0.02165,0,0,0.0*
1,1,0.00624,0.00633,-0.00771*
1,1,0.00624,-0.00633,-0.00771*
1,1,0.00624,-0.00633,0.00771*
1,1,0.00624,0.00633,0.00771*
%
%ADD22ROUNDEDRECTD22*%
%ADD27R,0.03937X0.02165*%
G04:AMPARAMS|DCode=35|XSize=69.06mil|YSize=18.73mil|CornerRadius=9.37mil|HoleSize=0mil|Usage=FLASHONLY|Rotation=0.000|XOffset=0mil|YOffset=0mil|HoleType=Round|Shape=RoundedRectangle|*
%AMROUNDEDRECTD35*
21,1,0.06906,0.00000,0,0,0.0*
21,1,0.05033,0.01873,0,0,0.0*
1,1,0.01873,0.02516,0.00000*
1,1,0.01873,-0.02516,0.00000*
1,1,0.01873,-0.02516,0.00000*
1,1,0.01873,0.02516,0.00000*
%
%ADD35ROUNDEDRECTD35*%
G04:AMPARAMS|DCode=53|XSize=18.9mil|YSize=21.65mil|CornerRadius=3.12mil|HoleSize=0mil|Usage=FLASHONLY|Rotation=90.000|XOffset=0mil|YOffset=0mil|HoleType=Round|Shape=RoundedRectangle|*
%AMROUNDEDRECTD53*
21,1,0.01890,0.01542,0,0,90.0*
21,1,0.01266,0.02165,0,0,90.0*
1,1,0.00624,0.00771,0.00633*
1,1,0.00624,0.00771,-0.00633*
1,1,0.00624,-0.00771,-0.00633*
1,1,0.00624,-0.00771,0.00633*
%
%ADD53ROUNDEDRECTD53*%
%ADD54R,0.06906X0.01873*%
%ADD56R,0.11811X0.07874*%
%ADD57R,0.11024X0.02165*%
D20*
X431260Y326772D02*
D03*
X427795D02*
D03*
X431260Y305512D02*
D03*
X427795D02*
D03*
X431260Y275590D02*
D03*
X427795D02*
D03*
X431260Y254331D02*
D03*
X427795D02*
D03*
X431260Y224016D02*
D03*
X427795D02*
D03*
X431260Y202756D02*
D03*
X427795D02*
D03*
X431260Y172835D02*
D03*
X427795D02*
D03*
X431260Y151575D02*
D03*
X427795D02*
D03*
X431260Y121653D02*
D03*
X427795D02*
D03*
X431260Y100394D02*
D03*
X427795D02*
D03*
X431260Y70472D02*
D03*
X427795D02*
D03*
X431260Y49213D02*
D03*
X427795D02*
D03*
X422677Y344094D02*
D03*
X426142D02*
D03*
X437953Y322047D02*
D03*
X434488D02*
D03*
X437953Y292126D02*
D03*
X434488D02*
D03*
X437953Y270866D02*
D03*
X434488D02*
D03*
X437953Y240551D02*
D03*
X434488D02*
D03*
X437953Y219291D02*
D03*
X434488D02*
D03*
X437953Y189370D02*
D03*
X434488D02*
D03*
X437953Y168110D02*
D03*
X434488D02*
D03*
X437953Y138189D02*
D03*
X434488D02*
D03*
X437953Y116929D02*
D03*
X434488D02*
D03*
X437953Y87008D02*
D03*
X434488D02*
D03*
X437953Y65748D02*
D03*
X434488D02*
D03*
Y326772D02*
D03*
X437953D02*
D03*
X434488Y305512D02*
D03*
X437953D02*
D03*
X434488Y275590D02*
D03*
X437953D02*
D03*
X434488Y254331D02*
D03*
X437953D02*
D03*
X434488Y224016D02*
D03*
X437953D02*
D03*
X434488Y202756D02*
D03*
X437953D02*
D03*
X434488Y172835D02*
D03*
X437953D02*
D03*
X434488Y151575D02*
D03*
X437953D02*
D03*
X434488Y121653D02*
D03*
X437953D02*
D03*
X434488Y100394D02*
D03*
X437953D02*
D03*
X434488Y70472D02*
D03*
X437953D02*
D03*
X434488Y49213D02*
D03*
X437953D02*
D03*
X422677Y347638D02*
D03*
X426142D02*
D03*
X427795Y322047D02*
D03*
X431260D02*
D03*
X427795Y292126D02*
D03*
X431260D02*
D03*
X427795Y270866D02*
D03*
X431260D02*
D03*
X427795Y240551D02*
D03*
X431260D02*
D03*
X427795Y219291D02*
D03*
X431260D02*
D03*
X427795Y189370D02*
D03*
X431260D02*
D03*
X427795Y168110D02*
D03*
X431260D02*
D03*
X427795Y138189D02*
D03*
X431260D02*
D03*
X427795Y116929D02*
D03*
X431260D02*
D03*
X427795Y87008D02*
D03*
X431260D02*
D03*
X427795Y65748D02*
D03*
X431260D02*
D03*
X424567Y154331D02*
D03*
X421102D02*
D03*
X424567Y165354D02*
D03*
X421102D02*
D03*
X424567Y175591D02*
D03*
X421102D02*
D03*
X424567Y186614D02*
D03*
X421102D02*
D03*
Y329528D02*
D03*
X424567D02*
D03*
X421102Y340551D02*
D03*
X424567D02*
D03*
X421102Y308268D02*
D03*
X424567D02*
D03*
X421102Y319291D02*
D03*
X424567D02*
D03*
X421102Y278346D02*
D03*
X424567D02*
D03*
X421102Y289370D02*
D03*
X424567D02*
D03*
X421102Y257087D02*
D03*
X424567D02*
D03*
X421102Y268110D02*
D03*
X424567D02*
D03*
X421102Y226772D02*
D03*
X424567D02*
D03*
X421102Y237795D02*
D03*
X424567D02*
D03*
X421102Y205512D02*
D03*
X424567D02*
D03*
X421102Y216535D02*
D03*
X424567D02*
D03*
X421102Y135433D02*
D03*
X424567D02*
D03*
X421102Y124409D02*
D03*
X424567D02*
D03*
X421102Y114173D02*
D03*
X424567D02*
D03*
X421102Y103150D02*
D03*
X424567D02*
D03*
X421102Y84252D02*
D03*
X424567D02*
D03*
X421102Y73228D02*
D03*
X424567D02*
D03*
X421102Y62992D02*
D03*
X424567D02*
D03*
X421102Y51968D02*
D03*
X424567D02*
D03*
D22*
X336378Y52756D02*
D03*
X336772Y69488D02*
D03*
X336378Y79528D02*
D03*
Y83071D02*
D03*
X352992Y58729D02*
D03*
Y62204D02*
D03*
Y79527D02*
D03*
Y83071D02*
D03*
X336378Y134252D02*
D03*
Y130709D02*
D03*
X352992Y134252D02*
D03*
Y130708D02*
D03*
Y113386D02*
D03*
Y109910D02*
D03*
X336378Y185433D02*
D03*
Y181890D02*
D03*
X336772Y171851D02*
D03*
X352992Y185433D02*
D03*
Y181889D02*
D03*
Y164567D02*
D03*
Y161091D02*
D03*
X336378Y155118D02*
D03*
Y236614D02*
D03*
Y233071D02*
D03*
X336772Y223032D02*
D03*
X352992Y236614D02*
D03*
Y233071D02*
D03*
Y215748D02*
D03*
Y212272D02*
D03*
X336378Y206299D02*
D03*
Y287795D02*
D03*
Y284252D02*
D03*
X336772Y274213D02*
D03*
X352992Y287795D02*
D03*
Y284252D02*
D03*
Y266929D02*
D03*
Y263453D02*
D03*
X336378Y257481D02*
D03*
Y338977D02*
D03*
Y335433D02*
D03*
X336772Y325394D02*
D03*
X352992Y338976D02*
D03*
Y335433D02*
D03*
Y318110D02*
D03*
Y314634D02*
D03*
X336378Y308662D02*
D03*
X336772Y73228D02*
D03*
X352992Y69489D02*
D03*
X336772Y60630D02*
D03*
Y124409D02*
D03*
X352992Y120670D02*
D03*
X336772Y120669D02*
D03*
X336378Y103937D02*
D03*
X336772Y111811D02*
D03*
X352992Y171851D02*
D03*
X336772Y175590D02*
D03*
Y162992D02*
D03*
X352992Y223032D02*
D03*
X336772Y226771D02*
D03*
Y214173D02*
D03*
X352992Y274213D02*
D03*
X336772Y277953D02*
D03*
Y265354D02*
D03*
X352992Y325394D02*
D03*
X336772Y329134D02*
D03*
Y316535D02*
D03*
X399055Y66142D02*
D03*
X416378Y48819D02*
D03*
X424646Y55512D02*
D03*
Y59449D02*
D03*
X399055Y87402D02*
D03*
X416378Y70078D02*
D03*
X424646Y76772D02*
D03*
Y80709D02*
D03*
X399055Y117323D02*
D03*
X416378Y100000D02*
D03*
X424646Y106693D02*
D03*
Y110630D02*
D03*
X399055Y138583D02*
D03*
X416378Y121260D02*
D03*
X424646Y127953D02*
D03*
Y131890D02*
D03*
X424646Y212992D02*
D03*
Y209055D02*
D03*
X416378Y202362D02*
D03*
X399055Y219685D02*
D03*
X424646Y234252D02*
D03*
Y230315D02*
D03*
X416378Y223622D02*
D03*
X399055Y240945D02*
D03*
X424646Y264567D02*
D03*
Y260630D02*
D03*
X416378Y253937D02*
D03*
X399055Y271260D02*
D03*
X424646Y285827D02*
D03*
Y281890D02*
D03*
X416378Y275197D02*
D03*
X399055Y292520D02*
D03*
X424646Y315748D02*
D03*
Y311811D02*
D03*
X416378Y305118D02*
D03*
X399055Y322441D02*
D03*
X424646Y337008D02*
D03*
Y333071D02*
D03*
X416378Y326378D02*
D03*
X399055Y343701D02*
D03*
X424646Y183071D02*
D03*
Y179134D02*
D03*
X416378Y172441D02*
D03*
X399055Y189764D02*
D03*
X424646Y161811D02*
D03*
Y157874D02*
D03*
X416378Y151181D02*
D03*
X399055Y168504D02*
D03*
X340000Y52756D02*
D03*
X340394Y69488D02*
D03*
X340000Y79528D02*
D03*
Y83071D02*
D03*
Y134252D02*
D03*
Y130709D02*
D03*
Y185433D02*
D03*
Y181890D02*
D03*
X340394Y171851D02*
D03*
X340000Y155118D02*
D03*
Y236614D02*
D03*
Y233071D02*
D03*
X340394Y223032D02*
D03*
X340000Y206299D02*
D03*
Y287795D02*
D03*
Y284252D02*
D03*
X340394Y274213D02*
D03*
X340000Y257481D02*
D03*
Y338977D02*
D03*
Y335433D02*
D03*
X340394Y325394D02*
D03*
X340000Y308662D02*
D03*
X340394Y120669D02*
D03*
X340000Y103937D02*
D03*
X412756Y48819D02*
D03*
Y70078D02*
D03*
Y100000D02*
D03*
Y121260D02*
D03*
X412756Y202362D02*
D03*
Y223622D02*
D03*
Y253937D02*
D03*
Y275197D02*
D03*
Y305118D02*
D03*
Y326378D02*
D03*
Y172441D02*
D03*
Y151181D02*
D03*
X395433Y66142D02*
D03*
Y87402D02*
D03*
Y117323D02*
D03*
Y138583D02*
D03*
X395433Y168504D02*
D03*
Y189764D02*
D03*
Y219685D02*
D03*
Y240945D02*
D03*
Y271260D02*
D03*
Y292520D02*
D03*
Y322441D02*
D03*
Y343701D02*
D03*
X340394Y73228D02*
D03*
X349370Y69489D02*
D03*
X340394Y60630D02*
D03*
Y124409D02*
D03*
X349370Y120670D02*
D03*
X340394Y111811D02*
D03*
X349370Y171851D02*
D03*
X340394Y175590D02*
D03*
Y162992D02*
D03*
X349370Y223032D02*
D03*
X340394Y226771D02*
D03*
Y214173D02*
D03*
X349370Y274213D02*
D03*
X340394Y277953D02*
D03*
Y265354D02*
D03*
X349370Y325394D02*
D03*
X340394Y329134D02*
D03*
Y316535D02*
D03*
X421024Y157874D02*
D03*
Y161811D02*
D03*
Y179134D02*
D03*
Y183071D02*
D03*
Y333071D02*
D03*
Y337008D02*
D03*
Y311811D02*
D03*
Y315748D02*
D03*
Y281890D02*
D03*
Y285827D02*
D03*
Y260630D02*
D03*
Y264567D02*
D03*
Y230315D02*
D03*
Y234252D02*
D03*
Y209055D02*
D03*
Y212992D02*
D03*
X421024Y131890D02*
D03*
Y127953D02*
D03*
Y110630D02*
D03*
Y106693D02*
D03*
Y80709D02*
D03*
Y76772D02*
D03*
Y59449D02*
D03*
Y55512D02*
D03*
X349370Y314634D02*
D03*
Y318110D02*
D03*
Y335433D02*
D03*
Y338976D02*
D03*
Y263453D02*
D03*
Y266929D02*
D03*
Y284252D02*
D03*
Y287795D02*
D03*
Y212272D02*
D03*
Y215748D02*
D03*
Y233071D02*
D03*
Y236614D02*
D03*
Y161091D02*
D03*
Y164567D02*
D03*
Y181889D02*
D03*
Y185433D02*
D03*
Y109910D02*
D03*
Y113386D02*
D03*
Y130708D02*
D03*
Y134252D02*
D03*
Y83071D02*
D03*
Y79527D02*
D03*
Y62204D02*
D03*
Y58729D02*
D03*
D27*
X429036Y57480D02*
D03*
Y78740D02*
D03*
Y108661D02*
D03*
Y129921D02*
D03*
X429036Y211024D02*
D03*
Y232283D02*
D03*
Y262598D02*
D03*
Y283858D02*
D03*
Y313779D02*
D03*
Y335039D02*
D03*
Y181102D02*
D03*
Y159843D02*
D03*
X437106Y155905D02*
D03*
Y163779D02*
D03*
Y177165D02*
D03*
Y185039D02*
D03*
Y338976D02*
D03*
Y331102D02*
D03*
Y317717D02*
D03*
Y309842D02*
D03*
Y287795D02*
D03*
Y279921D02*
D03*
Y266535D02*
D03*
Y258661D02*
D03*
Y236221D02*
D03*
Y228346D02*
D03*
Y214961D02*
D03*
Y207087D02*
D03*
X437106Y133858D02*
D03*
Y125984D02*
D03*
Y112598D02*
D03*
Y104724D02*
D03*
Y82677D02*
D03*
Y74803D02*
D03*
Y61417D02*
D03*
Y53543D02*
D03*
D35*
X413978Y53642D02*
D03*
Y74902D02*
D03*
Y104823D02*
D03*
Y126083D02*
D03*
X413978Y207185D02*
D03*
Y228445D02*
D03*
Y258760D02*
D03*
Y280020D02*
D03*
Y309941D02*
D03*
Y331201D02*
D03*
Y177264D02*
D03*
Y156004D02*
D03*
X397833Y61319D02*
D03*
Y82579D02*
D03*
Y112500D02*
D03*
Y133760D02*
D03*
X397833Y163681D02*
D03*
Y184941D02*
D03*
Y214862D02*
D03*
Y236122D02*
D03*
Y266437D02*
D03*
Y287697D02*
D03*
Y317618D02*
D03*
Y338878D02*
D03*
Y158563D02*
D03*
Y161122D02*
D03*
X413978Y163681D02*
D03*
Y161122D02*
D03*
Y158563D02*
D03*
X397833Y179823D02*
D03*
Y182382D02*
D03*
X413978Y184941D02*
D03*
Y182382D02*
D03*
Y179823D02*
D03*
Y333760D02*
D03*
Y336319D02*
D03*
Y338878D02*
D03*
X397833Y336319D02*
D03*
Y333760D02*
D03*
X413978Y312500D02*
D03*
Y315059D02*
D03*
Y317618D02*
D03*
X397833Y315059D02*
D03*
Y312500D02*
D03*
X413978Y282579D02*
D03*
Y285138D02*
D03*
Y287697D02*
D03*
X397833Y285138D02*
D03*
Y282579D02*
D03*
X413978Y261319D02*
D03*
Y263878D02*
D03*
Y266437D02*
D03*
X397833Y263878D02*
D03*
Y261319D02*
D03*
X413978Y231004D02*
D03*
Y233563D02*
D03*
Y236122D02*
D03*
X397833Y233563D02*
D03*
Y231004D02*
D03*
X413978Y209744D02*
D03*
Y212303D02*
D03*
Y214862D02*
D03*
X397833Y212303D02*
D03*
Y209744D02*
D03*
X413978Y128642D02*
D03*
Y131201D02*
D03*
Y133760D02*
D03*
X397833Y131201D02*
D03*
Y128642D02*
D03*
X413978Y107382D02*
D03*
Y109941D02*
D03*
Y112500D02*
D03*
X397833Y109941D02*
D03*
Y107382D02*
D03*
X413978Y77461D02*
D03*
Y80020D02*
D03*
Y82579D02*
D03*
X397833Y80020D02*
D03*
Y77461D02*
D03*
X413978Y56201D02*
D03*
Y58760D02*
D03*
Y61319D02*
D03*
X397833Y58760D02*
D03*
Y56201D02*
D03*
D53*
X345275Y86094D02*
D03*
Y137275D02*
D03*
Y188456D02*
D03*
Y239637D02*
D03*
Y290819D02*
D03*
Y342000D02*
D03*
Y82472D02*
D03*
Y133653D02*
D03*
Y184834D02*
D03*
Y236015D02*
D03*
Y287196D02*
D03*
Y338378D02*
D03*
D54*
X397833Y156004D02*
D03*
Y177264D02*
D03*
Y331201D02*
D03*
Y309941D02*
D03*
Y280020D02*
D03*
Y258760D02*
D03*
Y228445D02*
D03*
Y207185D02*
D03*
X397833Y126083D02*
D03*
Y104823D02*
D03*
Y74902D02*
D03*
Y53642D02*
D03*
D56*
X548228Y251969D02*
D03*
Y141732D02*
D03*
D57*
X-48976Y264567D02*
D03*
Y261417D02*
D03*
Y258268D02*
D03*
Y255118D02*
D03*
Y251969D02*
D03*
Y248819D02*
D03*
Y245669D02*
D03*
Y242520D02*
D03*
Y233071D02*
D03*
Y229921D02*
D03*
Y226772D02*
D03*
Y223622D02*
D03*
Y220472D02*
D03*
Y217323D02*
D03*
Y214173D02*
D03*
Y211024D02*
D03*
Y207874D02*
D03*
Y204724D02*
D03*
Y201575D02*
D03*
Y198425D02*
D03*
Y182677D02*
D03*
Y179528D02*
D03*
Y176378D02*
D03*
Y173228D02*
D03*
Y170079D02*
D03*
Y166929D02*
D03*
Y163779D02*
D03*
Y160630D02*
D03*
Y157480D02*
D03*
Y154331D02*
D03*
Y151181D02*
D03*
Y148031D02*
D03*
Y144882D02*
D03*
Y141732D02*
D03*
Y138583D02*
D03*
Y135433D02*
D03*
Y132283D02*
D03*
Y129134D02*
D03*
Y239370D02*
D03*
Y236221D02*
D03*
M02*
