M48
;Layer_Color=9474304
;FILE_FORMAT=2:5
INCH,TZ
;TYPE=PLATED
T01F00S00C0.00787
T02F00S00C0.01181
T03F00S00C0.03543
T04F00S00C0.04000
T05F00S00C0.07874
;TYPE=NON_PLATED
T06F00S00C0.12795
%
T01
X293307Y51869
X290086Y55937
X293307Y62105
X290086Y66173
X293307Y72342
X290086Y76409
X293307Y82578
X290086Y86646
X293307Y103050
X290086Y107118
X293307Y113286
X290086Y117354
X293307Y123523
X290086Y127590
X293307Y133759
X290086Y137827
X293307Y154231
X290086Y158299
X293307Y164468
X290086Y168535
X293307Y174704
X290086Y178771
X293307Y184940
X290086Y189008
X309842Y186221
X309842Y175984
X309842Y165748
X309842Y155512
X309842Y135039
X309842Y124803
X309842Y114567
X309842Y104331
X309842Y83858
X309842Y73622
X309842Y63386
X309842Y53150
X329134Y51968
Y55512
Y61811
Y65354
Y71654
Y75197
Y81496
Y85039
Y103150
Y106693
Y112992
Y116535
Y122835
Y126378
Y132677
Y136221
Y154331
Y157874
Y164173
Y167717
Y174016
Y177559
Y183858
Y187402
X360630Y181102
Y170171
Y160630
X370866Y159935
Y170866
Y180407
Y140157
Y129226
Y119685
X360630Y118990
Y109449
X370866Y108754
Y88976
Y78045
Y68504
Y57573
X360630Y58268
Y67809
Y78740
Y98518
Y129921
Y149699
Y47337
X120079Y90158
Y95276
X109843Y100000
Y105118
X32637Y123622
X32677Y127165
X-2613Y129134
X-21193Y135433
Y157480
X19291Y203543
X156693Y204331
X160630Y211221
Y214764
X162992Y212992
X165354Y214764
Y211221
X169291Y204331
X293307Y205412
X290086Y209480
X293307Y215649
X290086Y219716
X293307Y225885
X290086Y229953
X293307Y236121
X290086Y240189
X293307Y256593
X290086Y260661
X293307Y266830
X290086Y270898
X293307Y277066
X290086Y281134
X293307Y287302
X290086Y291370
X293307Y307381
X290086Y311449
X293307Y317617
X290086Y321685
X293307Y327815
X290117Y331852
X293307Y338090
X290086Y342157
X309842Y339370
X309842Y329134
X309842Y318898
Y308661
X309842Y288583
Y278346
X309842Y268110
X309842Y257874
Y237402
Y227165
X309842Y216929
Y206693
X329134Y205512
Y209055
Y215354
Y218898
Y225197
Y228740
Y235039
Y238583
Y256693
Y260236
Y266535
Y270079
Y276378
Y279921
Y286221
Y289764
Y307874
Y311417
Y317717
Y321260
Y327559
Y331102
Y337402
Y340945
X360630Y334646
Y323714
Y314173
X370866Y313478
Y324409
Y333951
Y344882
Y293701
Y282769
Y273228
X360630Y272533
Y262992
X370866Y262297
Y242520
Y231589
Y222047
X360630Y221352
Y211811
X370866Y211116
Y191339
X360630Y200880
Y232283
Y252061
Y283465
Y303242
T02
X392913Y48606
X402362Y48819
X409449Y48819
X419685Y48819
Y68110
X409547
X402362
X392913Y68268
X387795Y64567
X390158Y61024
Y82284
X387795Y85827
X392913Y89528
X402362Y89370
X409547
X419685
Y100000
X409449Y100000
X402362Y100000
X393020Y99894
X390158Y112205
X387795Y115748
X392913Y119449
X402362Y119291
X409547Y119291
X419685Y119291
Y140551
X409547
X402362
X392913Y140709
X387795Y137008
X390158Y133465
X393020Y151075
X402362Y151181
X409449Y151181
X419685Y151181
Y170472
X409547
X402362
X392913Y170630
X387795Y166929
X390158Y163386
Y184646
X387795Y188189
X433071Y181102
Y159843
X433071Y129921
Y108661
Y78740
Y57480
X349606Y55512
X345276Y59646
X340158Y56693
Y66280
X345276Y69488
X349577Y65563
X349606Y76378
X345276Y79331
X340158Y76378
Y86221
X349606Y86221
X356713Y94061
X345276Y100000
Y110827
X340158Y107874
Y117461
X345276Y120669
X349577Y116744
X349606Y106693
X349606Y127559
X345276Y130512
X340158Y127559
Y137402
X349606Y137402
X356693Y140551
X345276Y144882
Y151181
Y162008
X340158Y159055
Y168642
X345276Y171850
X349577Y167926
X349606Y157874
X349606Y178740
X345276Y181693
X340158Y178740
Y188583
X349606Y188583
X334252Y150000
X296457Y150394
Y140551
Y129921
Y119685
Y109449
Y99213
Y88976
Y78740
Y68504
Y58268
Y48031
X334272Y43667
X345276Y48819
X356713Y43667
X334272Y94061
X253543Y97638
Y90158
X245669
Y97638
X237402Y103150
X233465Y110630
X230709
X234252Y79921
Y77165
Y74410
X243440Y70342
Y170735
X234252Y174803
Y177559
Y180315
X296457Y181102
Y170866
Y160630
X224148Y102625
X223361Y98029
Y95274
Y90814
X129528Y111811
X92913
X99213Y90158
X86221Y183465
X82677
X79134
X75590
X165354Y182677
Y185433
X168110
Y182677
X69291Y189370
X54331Y185827
Y182677
X51575Y184252
X48819Y185827
Y182677
X42520Y120472
X62598
Y86221
X57480
X52756
X47638
X42520
X37795
X32677
X27559
X17717
Y120472
X-12598Y154331
X-39370
Y144882
Y135433
Y163779
Y170079
X-36990Y173697
X-39370Y182677
Y204724
Y214173
Y223622
Y233071
Y242520
Y248819
Y254724
Y261811
Y264567
X-35039Y251969
X-12598Y245669
X-7874Y243701
Y236614
X-6693Y230315
Y223228
X-7874Y217323
Y210236
X-15354Y203543
X31890Y206299
X69291Y206693
Y209842
X72441
X69291Y203150
Y198425
Y193701
X62992Y225590
X62205Y237008
Y242913
X38976Y268110
X35827
X32677
X40945Y311417
Y315748
Y320472
Y325197
Y328740
Y331890
X44094
X46850Y329528
X50000
X53150
X62205Y326772
X66142
X70079
X57087Y318504
X52362
X47244
Y305512
X50787
X54331
X57874
X18898Y308268
Y310827
Y313386
X11024Y308268
X73622Y292126
X77165Y287795
X83858Y286221
X87402
X91732Y298819
X92913Y268504
X96063
X98425Y259055
Y255512
X127953Y256299
X125197Y270866
Y276378
Y296457
Y301969
X125197Y321654
Y327165
X162598Y315354
X167323
X172047
X171653Y310236
Y305512
X172047Y290158
X167323
X162598
X171653Y284646
Y279921
X172075Y264811
X167323
X162598
X163779Y260630
X166535
X168898Y258661
Y255906
Y253150
X170079Y245669
X172835
X167323
X153937Y246457
Y242913
Y239764
X156299Y214567
Y211024
X150787Y211417
Y214567
X157874Y197244
Y194095
Y190551
X174803Y224410
Y231890
X190945Y272835
Y275590
Y298031
Y300787
X223361Y299700
Y302456
X224148Y307350
Y310893
X223361Y295539
X205118Y325197
X202362
X171653Y330709
Y335433
X177165Y343307
Y346063
X224148Y203019
X223361Y198423
Y195667
Y191208
X98425Y204724
X94488
X90551
X81496Y207480
X78347
X75197
X75590Y196457
X80709
X85433
X84646Y232677
X87402
X90158
X230709Y211024
X233465
X237402Y203543
X245669Y198031
Y190551
X253543
Y198031
X296457Y201969
Y212205
X296457Y222441
Y232283
Y242520
Y252756
Y262992
Y273228
Y283465
Y293701
Y303543
Y314173
Y324016
Y334252
Y344488
X334252Y345669
X340158Y342126
X349606Y342126
Y332284
X345276Y335236
X340158Y332283
Y322185
X345276Y325394
X349577Y321469
X349606Y311417
X345276Y315551
X340158Y312598
X345276Y304724
X334252Y298819
X340158Y290945
X349606Y290945
Y281103
X345276Y284055
X340158Y281102
Y271004
X345276Y274213
X349577Y270288
X349606Y260236
X345276Y264370
X340158Y261417
X345276Y253543
Y247244
X349606Y239764
X340158Y239764
Y229921
X345276Y232874
X349606Y229922
X349577Y219107
X345276Y223031
X340158Y219823
Y210236
X345276Y213189
X349606Y209055
X345276Y202362
X334272Y196423
X356713
X356693Y242913
X334252Y252362
X356693Y298819
Y345276
X253543Y302362
Y294882
X245669
Y302362
X237402Y307874
X233465Y315354
X230709
X234252Y284646
Y281890
Y279134
X243440Y275066
X296457Y191339
X392913Y191890
X402362Y191732
X409547
X419685
Y202362
X409449Y202362
X402362Y202362
X393020Y202256
X390158Y214567
X387795Y218110
X392913Y221811
X402362Y221654
X409547
X419685
Y242913
X409547
X402362
X392913Y243071
X387795Y239370
X390158Y235827
X393020Y253831
X402362Y253937
X409449Y253937
X419685Y253937
Y273228
X409547Y273228
X402362Y273228
X392913Y273386
X387795Y269685
X390158Y266142
Y287402
X387795Y290945
X392913Y294646
X402362Y294488
X409547
X419685
Y305118
X409449Y305118
X402362Y305118
X393020Y305012
X390158Y317323
X387795Y320866
X392913Y324567
X402362Y324410
X409547
X419685
Y345669
X409547
X402362
X392913Y345827
X387795Y342126
X390158Y338583
X433071Y335039
Y313779
Y283858
Y262598
Y232283
Y211024
X345276Y350000
X349606Y356693
X351969
X205512Y356299
X202756
X196063Y358268
X143307Y357480
Y359842
Y355118
Y370866
X140551
X137795
X127165Y368504
Y366142
Y363779
Y359449
Y357087
Y354724
X61811Y354724
X59055
X56299
X33858Y359055
Y364961
X34646Y347638
T03
X489843Y45910
Y55910
Y65910
Y75910
X499843Y70910
Y60910
Y50910
Y40910
Y96340
Y106340
Y116340
Y126340
X489843Y131340
Y121340
Y111340
Y101340
Y156770
Y166770
Y176770
Y186770
X499843Y181770
Y171770
Y161770
Y151770
Y207200
Y217200
Y227200
Y237200
X489843Y242200
Y232200
Y222200
Y212200
Y267640
Y277640
Y287640
Y297640
X499843Y292640
Y282640
Y272640
Y262640
Y318070
Y328070
Y338070
X489843Y343070
Y333070
Y323070
Y353070
X499843Y348070
T04
X9843Y258780
Y268779
T05
X539331Y26083
X482993Y141850
Y196850
Y251850
X539331Y367618
T06
X524843Y36850
Y356850
M30
